# MagicaVoxel @ Ephtracy

# group
o 

# material
mtllib river-scene-1.mtl
usemtl palette

# normals
vn -1 0 0
vn 1 0 0
vn 0 0 1
vn 0 0 -1
vn 0 -1 0
vn 0 1 0

# texcoords
vt 0.0839844 0.5
vt 0.150391 0.5
vt 0.224609 0.5
vt 0.482422 0.5
vt 0.556641 0.5
vt 0.736328 0.5
vt 0.958984 0.5
vt 0.966797 0.5

# verts
v -2 0 2
v -2 0 -2
v -2 0.4 2
v -2 0.4 -2
v -1.9 0.4 0.8
v -1.9 0.4 0.7
v -1.9 0.4 -0.3
v -1.9 0.4 -0.4
v -1.9 0.4 -0.5
v -1.9 0.4 -1.9
v -1.9 0.5 0.8
v -1.9 0.5 0.7
v -1.9 0.5 -0.3
v -1.9 0.5 -0.4
v -1.9 1.3 -0.5
v -1.9 1.3 -1.9
v -1.8 0.4 1.7
v -1.8 0.4 1.6
v -1.8 0.4 1.2
v -1.8 0.4 0.9
v -1.8 0.5 1.7
v -1.8 0.5 1.6
v -1.8 0.5 1.2
v -1.8 0.5 0.9
v -1.7 0.5 1.1
v -1.7 0.5 1
v -1.7 0.6 1.1
v -1.7 0.6 1
v -1.6 0.4 -2.38419e-07
v -1.6 0.4 -0.1
v -1.6 0.5 -2.38419e-07
v -1.6 0.5 -0.1
v -1.5 0.4 -0.3
v -1.5 0.4 -0.4
v -1.5 0.5 -0.3
v -1.5 0.5 -0.4
v -1.5 0.6 1.6
v -1.5 0.6 1.4
v -1.5 1.1 1.6
v -1.5 1.1 1.4
v -1.4 0.4 1.6
v -1.4 0.4 1.4
v -1.4 0.4 0.7
v -1.4 0.4 0.6
v -1.4 0.5 0.7
v -1.4 0.5 0.6
v -1.4 0.6 1.7
v -1.4 0.6 1.6
v -1.4 0.6 1.4
v -1.4 0.6 1.3
v -1.4 1.1 1.7
v -1.4 1.1 1.6
v -1.4 1.1 1.4
v -1.4 1.1 1.3
v -1.4 1.2 1.6
v -1.4 1.2 1.4
v -1.3 0.4 1.9
v -1.3 0.4 1.8
v -1.3 0.4 0.5
v -1.3 0.4 0.4
v -1.3 0.5 1.9
v -1.3 0.5 1.8
v -1.3 0.5 0.5
v -1.3 0.5 0.4
v -1.1 0.6 1
v -1.1 0.6 0.8
v -1.1 1.1 1
v -1.1 1.1 0.8
v -1 0.4 1
v -1 0.4 0.8
v -1 0.6 1.1
v -1 0.6 1
v -1 0.6 0.8
v -1 0.6 0.7
v -1 1.1 1.1
v -1 1.1 1
v -1 1.1 0.8
v -1 1.1 0.7
v -1 1.2 1
v -1 1.2 0.8
v -1 1.2 -0.6
v -1 1.2 -1.8
v -1 1.3 -0.6
v -1 1.3 -1.8
v -0.9 0.4 1.7
v -0.9 0.4 1.6
v -0.9 0.5 1.7
v -0.9 0.5 1.6
v -0.9 0.6 1.7
v -0.9 0.6 1.6
v -0.8 0.4 1.8
v -0.8 0.4 1.7
v -0.8 0.4 1.6
v -0.8 0.4 1.5
v -0.8 0.4 1.4
v -0.8 0.4 1.3
v -0.8 0.4 0.4
v -0.8 0.4 0.3
v -0.8 0.4 -0.3
v -0.8 0.4 -0.4
v -0.8 0.4 -0.9
v -0.8 0.4 -1
v -0.8 0.4 -1.7
v -0.8 0.4 -1.8
v -0.8 0.5 1.8
v -0.8 0.5 1.7
v -0.8 0.5 1.6
v -0.8 0.5 1.5
v -0.8 0.5 1.4
v -0.8 0.5 1.3
v -0.8 0.5 -0.9
v -0.8 0.5 -1
v -0.8 0.5 -1.7
v -0.8 0.5 -1.8
v -0.8 0.6 1.8
v -0.8 0.6 1.7
v -0.8 0.6 1.6
v -0.8 0.6 1.5
v -0.8 0.6 -1.7
v -0.8 0.6 -1.8
v -0.8 0.7 0.4
v -0.8 0.7 0.3
v -0.8 0.7 -0.3
v -0.8 0.7 -0.4
v -0.7 0.4 0.3
v -0.7 0.4 -0.3
v -0.7 0.4 -0.5
v -0.7 0.4 -0.6
v -0.7 0.4 -1.6
v -0.7 0.4 -1.7
v -0.7 0.4 -1.8
v -0.7 0.4 -1.9
v -0.7 0.5 0.3
v -0.7 0.5 -0.3
v -0.7 0.5 -0.5
v -0.7 0.5 -0.6
v -0.7 0.5 -1.6
v -0.7 0.5 -1.7
v -0.7 0.5 -1.8
v -0.7 0.5 -1.9
v -0.7 0.6 -1.6
v -0.7 0.6 -1.7
v -0.7 0.6 -1.8
v -0.7 0.6 -1.9
v -0.6 0.5 0.4
v -0.6 0.5 -0.4
v -0.6 0.6 0.4
v -0.6 0.6 0.3
v -0.6 0.6 -0.3
v -0.6 0.6 -0.4
v -0.6 0.7 0.4
v -0.6 0.7 0.3
v -0.6 0.7 -0.3
v -0.6 0.7 -0.4
v -0.6 0.9 0.4
v -0.6 0.9 0.3
v -0.6 0.9 -0.3
v -0.6 0.9 -0.4
v -0.5 0.6 0.3
v -0.5 0.6 -0.3
v -0.5 0.7 0.3
v -0.5 0.7 -0.3
v -0.4 0.7 0.4
v -0.4 0.7 0.3
v -0.4 0.7 -0.3
v -0.4 0.7 -0.4
v -0.4 0.8 0.4
v -0.4 0.8 0.3
v -0.4 0.8 -0.3
v -0.4 0.8 -0.4
v -0.2 0.7 0.4
v -0.2 0.7 0.3
v -0.2 0.7 -0.3
v -0.2 0.7 -0.4
v -0.2 0.8 0.4
v -0.2 0.8 0.3
v -0.2 0.8 -0.3
v -0.2 0.8 -0.4
v 0.1 0.7 0.4
v 0.1 0.7 0.3
v 0.1 0.7 -0.3
v 0.1 0.7 -0.4
v 0.1 0.8 0.4
v 0.1 0.8 0.3
v 0.1 0.8 -0.3
v 0.1 0.8 -0.4
v 0.3 0.7 0.4
v 0.3 0.7 0.3
v 0.3 0.7 -0.3
v 0.3 0.7 -0.4
v 0.3 0.8 0.4
v 0.3 0.8 0.3
v 0.3 0.8 -0.3
v 0.3 0.8 -0.4
v 0.4 0.5 0.4
v 0.4 0.5 -0.4
v 0.4 0.6 0.4
v 0.4 0.6 -0.4
v 0.5 0.3 2
v 0.5 0.3 -2
v 0.5 0.4 2
v 0.5 0.4 0.4
v 0.5 0.4 -0.4
v 0.5 0.4 -2
v 0.5 0.5 0.4
v 0.5 0.5 -0.4
v 0.5 0.7 0.4
v 0.5 0.7 0.3
v 0.5 0.7 -0.3
v 0.5 0.7 -0.4
v 0.5 0.8 0.4
v 0.5 0.8 0.3
v 0.5 0.8 -0.3
v 0.5 0.8 -0.4
v 0.6 0.4 1.9
v 0.6 0.4 1.8
v 0.6 0.4 1.5
v 0.6 0.4 1.4
v 0.6 0.4 0.7
v 0.6 0.4 0.6
v 0.6 0.4 -0.8
v 0.6 0.4 -0.9
v 0.6 0.4 -1.5
v 0.6 0.4 -1.7
v 0.6 0.5 1.9
v 0.6 0.5 1.8
v 0.6 0.5 1.5
v 0.6 0.5 1.4
v 0.6 0.5 0.7
v 0.6 0.5 0.6
v 0.6 0.5 -0.8
v 0.6 0.5 -0.9
v 0.6 0.5 -1.5
v 0.6 0.5 -1.6
v 0.6 0.6 1.5
v 0.6 0.6 1.4
v 0.6 0.6 -0.8
v 0.6 0.6 -0.9
v 0.6 0.6 -1.6
v 0.6 0.6 -1.7
v 0.7 0.4 1.6
v 0.7 0.4 1.5
v 0.7 0.4 1.4
v 0.7 0.4 1.3
v 0.7 0.4 -0.7
v 0.7 0.4 -0.8
v 0.7 0.4 -0.9
v 0.7 0.4 -1
v 0.7 0.4 -1.1
v 0.7 0.4 -1.2
v 0.7 0.4 -1.9
v 0.7 0.4 -2
v 0.7 0.5 1.6
v 0.7 0.5 1.5
v 0.7 0.5 1.4
v 0.7 0.5 1.3
v 0.7 0.5 0.4
v 0.7 0.5 0.3
v 0.7 0.5 -0.3
v 0.7 0.5 -0.4
v 0.7 0.5 -0.7
v 0.7 0.5 -0.8
v 0.7 0.5 -0.9
v 0.7 0.5 -1
v 0.7 0.5 -1.1
v 0.7 0.5 -1.2
v 0.7 0.5 -1.9
v 0.7 0.5 -2
v 0.7 0.6 1.6
v 0.7 0.6 1.5
v 0.7 0.6 1.4
v 0.7 0.6 1.3
v 0.7 0.6 1
v 0.7 0.6 0.8
v 0.7 0.6 0.4
v 0.7 0.6 0.3
v 0.7 0.6 -0.3
v 0.7 0.6 -0.4
v 0.7 0.6 -0.7
v 0.7 0.6 -0.8
v 0.7 0.6 -0.9
v 0.7 0.6 -1
v 0.7 1.1 1
v 0.7 1.1 0.8
v 0.8 0.4 1.9
v 0.8 0.4 1.8
v 0.8 0.4 1
v 0.8 0.4 0.8
v 0.8 0.5 1.9
v 0.8 0.5 1.8
v 0.8 0.6 1.1
v 0.8 0.6 1
v 0.8 0.6 0.8
v 0.8 0.6 0.7
v 0.8 1.1 1.1
v 0.8 1.1 1
v 0.8 1.1 0.8
v 0.8 1.1 0.7
v 0.8 1.2 1
v 0.8 1.2 0.8
v 0.9 0.4 1.7
v 0.9 0.4 1.6
v 0.9 0.4 -0.9
v 0.9 0.4 -1
v 0.9 0.4 -1.8
v 0.9 0.4 -1.9
v 0.9 0.5 1.7
v 0.9 0.5 1.6
v 0.9 0.5 -0.9
v 0.9 0.5 -1
v 0.9 0.5 -1.8
v 0.9 0.5 -1.9
v 1 0.4 1.4
v 1 0.4 1.3
v 1 0.5 1.4
v 1 0.5 1.3
v 1.1 0.4 1.9
v 1.1 0.4 1.7
v 1.1 0.4 1.2
v 1.1 0.4 1.1
v 1.1 0.4 0.7
v 1.1 0.4 0.6
v 1.1 0.4 -0.8
v 1.1 0.4 -0.9
v 1.1 0.5 1.9
v 1.1 0.5 1.8
v 1.1 0.5 1.2
v 1.1 0.5 1.1
v 1.1 0.5 0.7
v 1.1 0.5 0.6
v 1.1 0.5 -0.8
v 1.1 0.5 -0.9
v 1.1 0.6 1.8
v 1.1 0.6 1.7
v 1.2 0.4 -0.2
v 1.2 0.4 -0.3
v 1.2 0.4 -1.7
v 1.2 0.4 -1.8
v 1.2 0.5 -0.2
v 1.2 0.5 -0.3
v 1.2 0.5 -1.7
v 1.2 0.5 -1.8
v 1.2 0.6 -1.2
v 1.2 0.6 -1.4
v 1.2 1.1 -1.2
v 1.2 1.1 -1.4
v 1.3 0.4 0.6
v 1.3 0.4 0.5
v 1.3 0.4 -0.4
v 1.3 0.4 -0.5
v 1.3 0.4 -1.2
v 1.3 0.4 -1.4
v 1.3 0.5 0.6
v 1.3 0.5 0.5
v 1.3 0.5 -0.4
v 1.3 0.5 -0.5
v 1.3 0.6 -1.1
v 1.3 0.6 -1.2
v 1.3 0.6 -1.4
v 1.3 0.6 -1.5
v 1.3 1.1 -1.1
v 1.3 1.1 -1.2
v 1.3 1.1 -1.4
v 1.3 1.1 -1.5
v 1.3 1.2 -1.2
v 1.3 1.2 -1.4
v 1.4 0.4 1.2
v 1.4 0.4 1.1
v 1.4 0.5 1.2
v 1.4 0.5 1.1
v 1.4 0.6 1.5
v 1.4 0.6 1.3
v 1.4 1.1 1.5
v 1.4 1.1 1.3
v 1.5 0.4 1.5
v 1.5 0.4 1.3
v 1.5 0.4 0.3
v 1.5 0.4 0.2
v 1.5 0.4 -1
v 1.5 0.4 -1.1
v 1.5 0.5 0.3
v 1.5 0.5 0.2
v 1.5 0.5 -1
v 1.5 0.5 -1.1
v 1.5 0.6 1.6
v 1.5 0.6 1.5
v 1.5 0.6 1.3
v 1.5 0.6 1.2
v 1.5 1.1 1.6
v 1.5 1.1 1.5
v 1.5 1.1 1.3
v 1.5 1.1 1.2
v 1.5 1.2 1.5
v 1.5 1.2 1.3
v 1.6 0.4 1.2
v 1.6 0.4 1
v 1.6 0.4 -1.7
v 1.6 0.4 -1.8
v 1.6 0.5 1.2
v 1.6 0.5 1
v 1.6 0.5 -1.7
v 1.6 0.5 -1.8
v 1.6 0.6 -1.7
v 1.6 0.6 -1.8
v 1.7 0.4 0.7
v 1.7 0.4 0.6
v 1.7 0.4 -1.6
v 1.7 0.4 -1.7
v 1.7 0.4 -1.8
v 1.7 0.4 -1.9
v 1.7 0.5 1.2
v 1.7 0.5 1.1
v 1.7 0.5 0.7
v 1.7 0.5 0.6
v 1.7 0.5 -1.6
v 1.7 0.5 -1.7
v 1.7 0.5 -1.8
v 1.7 0.5 -1.9
v 1.7 0.6 1.2
v 1.7 0.6 1.1
v 1.7 0.6 -1.6
v 1.7 0.6 -1.7
v 1.7 0.6 -1.8
v 1.7 0.6 -1.9
v 1.8 0.4 1.8
v 1.8 0.4 1.7
v 1.8 0.4 -1.4
v 1.8 0.4 -1.5
v 1.8 0.5 1.8
v 1.8 0.5 1.7
v 1.8 0.5 -1.4
v 1.8 0.5 -1.5
v -1.8 0.4 0.8
v -1.8 0.4 0.7
v -1.8 0.4 -0.3
v -1.8 0.4 -0.4
v -1.8 0.5 0.8
v -1.8 0.5 0.7
v -1.8 0.5 -0.3
v -1.8 0.5 -0.4
v -1.8 1.2 -0.6
v -1.8 1.2 -1.8
v -1.8 1.3 -0.6
v -1.8 1.3 -1.8
v -1.7 0.4 1.7
v -1.7 0.4 1.6
v -1.7 0.5 1.7
v -1.7 0.5 1.6
v -1.6 0.5 1.1
v -1.6 0.5 1
v -1.6 0.6 1.1
v -1.6 0.6 1
v -1.5 0.4 1.2
v -1.5 0.4 0.9
v -1.5 0.4 -2.38419e-07
v -1.5 0.4 -0.1
v -1.5 0.5 1.2
v -1.5 0.5 0.9
v -1.5 0.5 -2.38419e-07
v -1.5 0.5 -0.1
v -1.4 0.4 -0.3
v -1.4 0.4 -0.4
v -1.4 0.5 -0.3
v -1.4 0.5 -0.4
v -1.3 0.4 0.7
v -1.3 0.4 0.6
v -1.3 0.5 0.7
v -1.3 0.5 0.6
v -1.2 0.4 1.9
v -1.2 0.4 1.8
v -1.2 0.4 1.6
v -1.2 0.4 1.4
v -1.2 0.4 0.5
v -1.2 0.4 0.4
v -1.2 0.5 1.9
v -1.2 0.5 1.8
v -1.2 0.5 0.5
v -1.2 0.5 0.4
v -1.2 0.6 1.7
v -1.2 0.6 1.6
v -1.2 0.6 1.4
v -1.2 0.6 1.3
v -1.2 1.1 1.7
v -1.2 1.1 1.6
v -1.2 1.1 1.4
v -1.2 1.1 1.3
v -1.2 1.2 1.6
v -1.2 1.2 1.4
v -1.1 0.6 1.6
v -1.1 0.6 1.4
v -1.1 1.1 1.6
v -1.1 1.1 1.4
v -1 0.4 -1.1
v -1 0.4 -1.4
v -1 0.9 -1.1
v -1 0.9 -1.4
v -0.9 0.4 -0.5
v -0.9 0.4 -1
v -0.9 0.4 -1.1
v -0.9 0.4 -1.4
v -0.9 0.4 -1.5
v -0.9 0.4 -1.9
v -0.9 0.9 -1.1
v -0.9 0.9 -1.4
v -0.9 1 -1
v -0.9 1 -1.5
v -0.9 1.3 -0.5
v -0.9 1.3 -1.9
v -0.8 0.4 1
v -0.8 0.4 0.8
v -0.8 0.6 1.1
v -0.8 0.6 1
v -0.8 0.6 0.8
v -0.8 0.6 0.7
v -0.8 1.1 1.1
v -0.8 1.1 1
v -0.8 1.1 0.8
v -0.8 1.1 0.7
v -0.8 1.2 1
v -0.8 1.2 0.8
v -0.7 0.4 1.8
v -0.7 0.4 1.7
v -0.7 0.4 1.6
v -0.7 0.4 1.5
v -0.7 0.4 1.4
v -0.7 0.4 1.3
v -0.7 0.4 -0.9
v -0.7 0.4 -1
v -0.7 0.5 1.8
v -0.7 0.5 1.7
v -0.7 0.5 1.6
v -0.7 0.5 1.5
v -0.7 0.5 1.4
v -0.7 0.5 1.3
v -0.7 0.5 0.4
v -0.7 0.5 0.3
v -0.7 0.5 -0.3
v -0.7 0.5 -0.4
v -0.7 0.5 -0.9
v -0.7 0.5 -1
v -0.7 0.6 1.8
v -0.7 0.6 1.7
v -0.7 0.6 1.6
v -0.7 0.6 1.5
v -0.7 0.6 1
v -0.7 0.6 0.8
v -0.7 0.6 0.4
v -0.7 0.6 0.3
v -0.7 0.6 -0.3
v -0.7 0.6 -0.4
v -0.7 1.1 1
v -0.7 1.1 0.8
v -0.6 0.4 1.7
v -0.6 0.4 1.6
v -0.6 0.4 -0.5
v -0.6 0.4 -0.6
v -0.6 0.4 -1.6
v -0.6 0.4 -1.7
v -0.6 0.4 -1.8
v -0.6 0.4 -1.9
v -0.6 0.5 1.7
v -0.6 0.5 1.6
v -0.6 0.5 -0.5
v -0.6 0.5 -0.6
v -0.6 0.5 -1.6
v -0.6 0.5 -1.7
v -0.6 0.5 -1.8
v -0.6 0.5 -1.9
v -0.6 0.6 1.7
v -0.6 0.6 1.6
v -0.6 0.6 -1.6
v -0.6 0.6 -1.7
v -0.6 0.6 -1.8
v -0.6 0.6 -1.9
v -0.5 0.3 2
v -0.5 0.3 -2
v -0.5 0.4 2
v -0.5 0.4 0.4
v -0.5 0.4 -0.4
v -0.5 0.4 -1.7
v -0.5 0.4 -1.8
v -0.5 0.4 -2
v -0.5 0.5 0.4
v -0.5 0.5 -0.4
v -0.5 0.5 -1.7
v -0.5 0.5 -1.8
v -0.5 0.6 -1.7
v -0.5 0.6 -1.8
v -0.5 0.7 0.4
v -0.5 0.7 0.3
v -0.5 0.7 -0.3
v -0.5 0.7 -0.4
v -0.5 0.8 0.4
v -0.5 0.8 0.3
v -0.5 0.8 -0.3
v -0.5 0.8 -0.4
v -0.4 0.5 0.4
v -0.4 0.5 -0.4
v -0.4 0.6 0.4
v -0.4 0.6 -0.4
v -0.3 0.7 0.4
v -0.3 0.7 0.3
v -0.3 0.7 -0.3
v -0.3 0.7 -0.4
v -0.3 0.8 0.4
v -0.3 0.8 0.3
v -0.3 0.8 -0.3
v -0.3 0.8 -0.4
v -0.0999999 0.7 0.4
v -0.0999999 0.7 0.3
v -0.0999999 0.7 -0.3
v -0.0999999 0.7 -0.4
v -0.0999999 0.8 0.4
v -0.0999999 0.8 0.3
v -0.0999999 0.8 -0.3
v -0.0999999 0.8 -0.4
v 0.2 0.7 0.4
v 0.2 0.7 0.3
v 0.2 0.7 -0.3
v 0.2 0.7 -0.4
v 0.2 0.8 0.4
v 0.2 0.8 0.3
v 0.2 0.8 -0.3
v 0.2 0.8 -0.4
v 0.4 0.7 0.4
v 0.4 0.7 0.3
v 0.4 0.7 -0.3
v 0.4 0.7 -0.4
v 0.4 0.8 0.4
v 0.4 0.8 0.3
v 0.4 0.8 -0.3
v 0.4 0.8 -0.4
v 0.5 0.6 0.3
v 0.5 0.6 -0.3
v 0.5 0.7 0.3
v 0.5 0.7 -0.3
v 0.6 0.5 0.4
v 0.6 0.5 -0.4
v 0.6 0.6 0.4
v 0.6 0.6 0.3
v 0.6 0.6 -0.3
v 0.6 0.6 -0.4
v 0.6 0.7 0.4
v 0.6 0.7 0.3
v 0.6 0.7 -0.3
v 0.6 0.7 -0.4
v 0.6 0.9 0.4
v 0.6 0.9 0.3
v 0.6 0.9 -0.3
v 0.6 0.9 -0.4
v 0.7 0.4 1.9
v 0.7 0.4 1.8
v 0.7 0.4 0.7
v 0.7 0.4 0.6
v 0.7 0.4 0.3
v 0.7 0.4 -0.3
v 0.7 0.5 1.9
v 0.7 0.5 1.8
v 0.7 0.5 0.7
v 0.7 0.5 0.6
v 0.7 0.5 0.3
v 0.7 0.5 -0.3
v 0.7 0.5 -1.6
v 0.7 0.5 -1.7
v 0.7 0.6 -1.6
v 0.7 0.6 -1.7
v 0.8 0.4 1.6
v 0.8 0.4 1.5
v 0.8 0.4 1.4
v 0.8 0.4 1.3
v 0.8 0.4 0.4
v 0.8 0.4 0.3
v 0.8 0.4 -0.3
v 0.8 0.4 -0.4
v 0.8 0.4 -0.7
v 0.8 0.4 -0.8
v 0.8 0.4 -0.9
v 0.8 0.4 -1
v 0.8 0.4 -1.1
v 0.8 0.4 -1.2
v 0.8 0.4 -1.5
v 0.8 0.4 -1.7
v 0.8 0.4 -1.9
v 0.8 0.4 -2
v 0.8 0.5 1.6
v 0.8 0.5 1.5
v 0.8 0.5 1.4
v 0.8 0.5 1.3
v 0.8 0.5 -0.7
v 0.8 0.5 -0.8
v 0.8 0.5 -0.9
v 0.8 0.5 -1
v 0.8 0.5 -1.1
v 0.8 0.5 -1.2
v 0.8 0.5 -1.5
v 0.8 0.5 -1.7
v 0.8 0.5 -1.9
v 0.8 0.5 -2
v 0.8 0.6 1.6
v 0.8 0.6 1.5
v 0.8 0.6 1.4
v 0.8 0.6 1.3
v 0.8 0.6 -0.7
v 0.8 0.6 -0.8
v 0.8 0.6 -0.9
v 0.8 0.6 -1
v 0.8 0.7 0.4
v 0.8 0.7 0.3
v 0.8 0.7 -0.3
v 0.8 0.7 -0.4
v 0.9 0.4 1.9
v 0.9 0.4 1.8
v 0.9 0.4 1.5
v 0.9 0.4 1.4
v 0.9 0.4 -0.8
v 0.9 0.4 -0.9
v 0.9 0.5 1.9
v 0.9 0.5 1.8
v 0.9 0.5 1.5
v 0.9 0.5 1.4
v 0.9 0.5 -0.8
v 0.9 0.5 -0.9
v 0.9 0.6 1.5
v 0.9 0.6 1.4
v 0.9 0.6 -0.8
v 0.9 0.6 -0.9
v 1 0.4 1.7
v 1 0.4 1.6
v 1 0.4 1
v 1 0.4 0.8
v 1 0.4 -0.9
v 1 0.4 -1
v 1 0.4 -1.8
v 1 0.4 -1.9
v 1 0.5 1.7
v 1 0.5 1.6
v 1 0.5 -0.9
v 1 0.5 -1
v 1 0.5 -1.8
v 1 0.5 -1.9
v 1 0.6 1.1
v 1 0.6 1
v 1 0.6 0.8
v 1 0.6 0.7
v 1 1.1 1.1
v 1 1.1 1
v 1 1.1 0.8
v 1 1.1 0.7
v 1 1.2 1
v 1 1.2 0.8
v 1.1 0.4 1.4
v 1.1 0.4 1.3
v 1.1 0.5 1.4
v 1.1 0.5 1.3
v 1.1 0.6 1
v 1.1 0.6 0.8
v 1.1 1.1 1
v 1.1 1.1 0.8
v 1.2 0.4 1.2
v 1.2 0.4 1.1
v 1.2 0.4 0.7
v 1.2 0.4 0.6
v 1.2 0.4 -0.8
v 1.2 0.4 -0.9
v 1.2 0.5 1.8
v 1.2 0.5 1.7
v 1.2 0.5 1.2
v 1.2 0.5 1.1
v 1.2 0.5 0.7
v 1.2 0.5 0.6
v 1.2 0.5 -0.8
v 1.2 0.5 -0.9
v 1.2 0.6 1.8
v 1.2 0.6 1.7
v 1.3 0.4 1.9
v 1.3 0.4 1.7
v 1.3 0.4 -0.2
v 1.3 0.4 -0.3
v 1.3 0.4 -1.7
v 1.3 0.4 -1.8
v 1.3 0.5 1.9
v 1.3 0.5 1.7
v 1.3 0.5 -0.2
v 1.3 0.5 -0.3
v 1.3 0.5 -1.7
v 1.3 0.5 -1.8
v 1.4 0.4 0.6
v 1.4 0.4 0.5
v 1.4 0.4 -0.4
v 1.4 0.4 -0.5
v 1.4 0.5 0.6
v 1.4 0.5 0.5
v 1.4 0.5 -0.4
v 1.4 0.5 -0.5
v 1.5 0.4 1.2
v 1.5 0.4 1.1
v 1.5 0.4 -1.2
v 1.5 0.4 -1.4
v 1.5 0.5 1.2
v 1.5 0.5 1.1
v 1.5 0.6 -1.1
v 1.5 0.6 -1.2
v 1.5 0.6 -1.4
v 1.5 0.6 -1.5
v 1.5 1.1 -1.1
v 1.5 1.1 -1.2
v 1.5 1.1 -1.4
v 1.5 1.1 -1.5
v 1.5 1.2 -1.2
v 1.5 1.2 -1.4
v 1.6 0.4 0.3
v 1.6 0.4 0.2
v 1.6 0.4 -1
v 1.6 0.4 -1.1
v 1.6 0.5 0.3
v 1.6 0.5 0.2
v 1.6 0.5 -1
v 1.6 0.5 -1.1
v 1.6 0.6 -1.2
v 1.6 0.6 -1.4
v 1.6 1.1 -1.2
v 1.6 1.1 -1.4
v 1.7 0.4 1.5
v 1.7 0.4 1.3
v 1.7 0.6 1.6
v 1.7 0.6 1.5
v 1.7 0.6 1.3
v 1.7 0.6 1.2
v 1.7 1.1 1.6
v 1.7 1.1 1.5
v 1.7 1.1 1.3
v 1.7 1.1 1.2
v 1.7 1.2 1.5
v 1.7 1.2 1.3
v 1.8 0.4 1.2
v 1.8 0.4 1
v 1.8 0.4 0.7
v 1.8 0.4 0.6
v 1.8 0.4 -1.6
v 1.8 0.4 -1.7
v 1.8 0.4 -1.8
v 1.8 0.4 -1.9
v 1.8 0.5 1.1
v 1.8 0.5 1
v 1.8 0.5 0.7
v 1.8 0.5 0.6
v 1.8 0.5 -1.6
v 1.8 0.5 -1.7
v 1.8 0.5 -1.8
v 1.8 0.5 -1.9
v 1.8 0.6 1.5
v 1.8 0.6 1.3
v 1.8 0.6 1.2
v 1.8 0.6 1.1
v 1.8 0.6 -1.6
v 1.8 0.6 -1.7
v 1.8 0.6 -1.8
v 1.8 0.6 -1.9
v 1.8 1.1 1.5
v 1.8 1.1 1.3
v 1.9 0.4 1.8
v 1.9 0.4 1.7
v 1.9 0.4 -1.4
v 1.9 0.4 -1.5
v 1.9 0.4 -1.7
v 1.9 0.4 -1.8
v 1.9 0.5 1.8
v 1.9 0.5 1.7
v 1.9 0.5 -1.4
v 1.9 0.5 -1.5
v 1.9 0.5 -1.7
v 1.9 0.5 -1.8
v 1.9 0.6 -1.7
v 1.9 0.6 -1.8
v 2 0 2
v 2 0 -2
v 2 0.4 2
v 2 0.4 -2
v -2 0 2
v -2 0.4 2
v -0.5 0.2 2
v -0.5 0.3 2
v -0.5 0.4 2
v -0.4 0.1 2
v -0.4 0.2 2
v -0.3 0 2
v -0.3 0.1 2
v 0.3 0 2
v 0.3 0.1 2
v 0.4 0.1 2
v 0.4 0.2 2
v 0.5 0.2 2
v 0.5 0.3 2
v 0.5 0.4 2
v 2 0 2
v 2 0.4 2
v -1.3 0.4 1.9
v -1.3 0.5 1.9
v -1.2 0.4 1.9
v -1.2 0.5 1.9
v 0.6 0.4 1.9
v 0.6 0.5 1.9
v 0.7 0.4 1.9
v 0.7 0.5 1.9
v 0.8 0.4 1.9
v 0.8 0.5 1.9
v 0.9 0.4 1.9
v 0.9 0.5 1.9
v 1.1 0.4 1.9
v 1.1 0.5 1.9
v 1.3 0.4 1.9
v 1.3 0.5 1.9
v -0.8 0.4 1.8
v -0.8 0.5 1.8
v -0.8 0.6 1.8
v -0.7 0.4 1.8
v -0.7 0.5 1.8
v -0.7 0.6 1.8
v 1.1 0.5 1.8
v 1.1 0.6 1.8
v 1.2 0.5 1.8
v 1.2 0.6 1.8
v 1.8 0.4 1.8
v 1.8 0.5 1.8
v 1.9 0.4 1.8
v 1.9 0.5 1.8
v -1.8 0.4 1.7
v -1.8 0.5 1.7
v -1.7 0.4 1.7
v -1.7 0.5 1.7
v -1.4 0.6 1.7
v -1.4 1.1 1.7
v -1.2 0.6 1.7
v -1.2 1.1 1.7
v -0.9 0.4 1.7
v -0.9 0.5 1.7
v -0.9 0.6 1.7
v -0.8 0.4 1.7
v -0.8 0.5 1.7
v -0.8 0.6 1.7
v -0.7 0.4 1.7
v -0.7 0.5 1.7
v -0.7 0.6 1.7
v -0.6 0.4 1.7
v -0.6 0.5 1.7
v -0.6 0.6 1.7
v 0.9 0.4 1.7
v 0.9 0.5 1.7
v 1 0.4 1.7
v 1 0.5 1.7
v -1.5 0.6 1.6
v -1.5 1.1 1.6
v -1.4 0.4 1.6
v -1.4 0.6 1.6
v -1.4 1.1 1.6
v -1.4 1.2 1.6
v -1.2 0.4 1.6
v -1.2 0.6 1.6
v -1.2 1.1 1.6
v -1.2 1.2 1.6
v -1.1 0.6 1.6
v -1.1 1.1 1.6
v 0.7 0.4 1.6
v 0.7 0.5 1.6
v 0.7 0.6 1.6
v 0.8 0.4 1.6
v 0.8 0.5 1.6
v 0.8 0.6 1.6
v 1.5 0.6 1.6
v 1.5 1.1 1.6
v 1.7 0.6 1.6
v 1.7 1.1 1.6
v 0.6 0.4 1.5
v 0.6 0.5 1.5
v 0.6 0.6 1.5
v 0.7 0.4 1.5
v 0.7 0.5 1.5
v 0.7 0.6 1.5
v 0.8 0.4 1.5
v 0.8 0.5 1.5
v 0.8 0.6 1.5
v 0.9 0.4 1.5
v 0.9 0.5 1.5
v 0.9 0.6 1.5
v 1.4 0.6 1.5
v 1.4 1.1 1.5
v 1.5 0.4 1.5
v 1.5 0.6 1.5
v 1.5 1.1 1.5
v 1.5 1.2 1.5
v 1.7 0.4 1.5
v 1.7 0.6 1.5
v 1.7 1.1 1.5
v 1.7 1.2 1.5
v 1.8 0.6 1.5
v 1.8 1.1 1.5
v -0.8 0.4 1.4
v -0.8 0.5 1.4
v -0.7 0.4 1.4
v -0.7 0.5 1.4
v 1 0.4 1.4
v 1 0.5 1.4
v 1.1 0.4 1.4
v 1.1 0.5 1.4
v -1.8 0.4 1.2
v -1.8 0.5 1.2
v -1.5 0.4 1.2
v -1.5 0.5 1.2
v 1.1 0.4 1.2
v 1.1 0.5 1.2
v 1.2 0.4 1.2
v 1.2 0.5 1.2
v 1.4 0.4 1.2
v 1.4 0.5 1.2
v 1.5 0.4 1.2
v 1.5 0.5 1.2
v 1.6 0.4 1.2
v 1.6 0.5 1.2
v 1.7 0.5 1.2
v 1.7 0.6 1.2
v 1.8 0.4 1.2
v 1.8 0.6 1.2
v -1.7 0.5 1.1
v -1.7 0.6 1.1
v -1.6 0.5 1.1
v -1.6 0.6 1.1
v -1 0.6 1.1
v -1 1.1 1.1
v -0.8 0.6 1.1
v -0.8 1.1 1.1
v 0.8 0.6 1.1
v 0.8 1.1 1.1
v 1 0.6 1.1
v 1 1.1 1.1
v -1.1 0.6 1
v -1.1 1.1 1
v -1 0.4 1
v -1 0.6 1
v -1 1.1 1
v -1 1.2 1
v -0.8 0.4 1
v -0.8 0.6 1
v -0.8 1.1 1
v -0.8 1.2 1
v -0.7 0.6 1
v -0.7 1.1 1
v 0.7 0.6 1
v 0.7 1.1 1
v 0.8 0.4 1
v 0.8 0.6 1
v 0.8 1.1 1
v 0.8 1.2 1
v 1 0.4 1
v 1 0.6 1
v 1 1.1 1
v 1 1.2 1
v 1.1 0.6 1
v 1.1 1.1 1
v -1.9 0.4 0.8
v -1.9 0.5 0.8
v -1.8 0.4 0.8
v -1.8 0.5 0.8
v -1.4 0.4 0.7
v -1.4 0.5 0.7
v -1.3 0.4 0.7
v -1.3 0.5 0.7
v 0.6 0.4 0.7
v 0.6 0.5 0.7
v 0.7 0.4 0.7
v 0.7 0.5 0.7
v 1.1 0.4 0.7
v 1.1 0.5 0.7
v 1.2 0.4 0.7
v 1.2 0.5 0.7
v 1.7 0.4 0.7
v 1.7 0.5 0.7
v 1.8 0.4 0.7
v 1.8 0.5 0.7
v 1.3 0.4 0.6
v 1.3 0.5 0.6
v 1.4 0.4 0.6
v 1.4 0.5 0.6
v -1.3 0.4 0.5
v -1.3 0.5 0.5
v -1.2 0.4 0.5
v -1.2 0.5 0.5
v -0.8 0.4 0.4
v -0.8 0.7 0.4
v -0.7 0.5 0.4
v -0.7 0.6 0.4
v -0.6 0.5 0.4
v -0.6 0.6 0.4
v -0.6 0.7 0.4
v -0.6 0.9 0.4
v -0.5 0.4 0.4
v -0.5 0.5 0.4
v -0.5 0.7 0.4
v -0.5 0.8 0.4
v -0.4 0.5 0.4
v -0.4 0.6 0.4
v -0.4 0.7 0.4
v -0.4 0.8 0.4
v -0.3 0.7 0.4
v -0.3 0.8 0.4
v -0.2 0.7 0.4
v -0.2 0.8 0.4
v -0.0999999 0.7 0.4
v -0.0999999 0.8 0.4
v 0.1 0.7 0.4
v 0.1 0.8 0.4
v 0.2 0.7 0.4
v 0.2 0.8 0.4
v 0.3 0.7 0.4
v 0.3 0.8 0.4
v 0.4 0.5 0.4
v 0.4 0.6 0.4
v 0.4 0.7 0.4
v 0.4 0.8 0.4
v 0.5 0.4 0.4
v 0.5 0.5 0.4
v 0.5 0.7 0.4
v 0.5 0.8 0.4
v 0.6 0.5 0.4
v 0.6 0.6 0.4
v 0.6 0.7 0.4
v 0.6 0.9 0.4
v 0.7 0.5 0.4
v 0.7 0.6 0.4
v 0.8 0.4 0.4
v 0.8 0.7 0.4
v 1.5 0.4 0.3
v 1.5 0.5 0.3
v 1.6 0.4 0.3
v 1.6 0.5 0.3
v -1.6 0.4 -2.38419e-07
v -1.6 0.5 -2.38419e-07
v -1.5 0.4 -2.38419e-07
v -1.5 0.5 -2.38419e-07
v 1.2 0.4 -0.2
v 1.2 0.5 -0.2
v 1.3 0.4 -0.2
v 1.3 0.5 -0.2
v -1.9 0.4 -0.3
v -1.9 0.5 -0.3
v -1.8 0.4 -0.3
v -1.8 0.5 -0.3
v -1.5 0.4 -0.3
v -1.5 0.5 -0.3
v -1.4 0.4 -0.3
v -1.4 0.5 -0.3
v -0.8 0.4 -0.3
v -0.8 0.7 -0.3
v -0.7 0.4 -0.3
v -0.7 0.5 -0.3
v -0.7 0.6 -0.3
v -0.6 0.6 -0.3
v -0.6 0.7 -0.3
v -0.6 0.9 -0.3
v -0.5 0.6 -0.3
v -0.5 0.7 -0.3
v -0.5 0.8 -0.3
v -0.4 0.7 -0.3
v -0.4 0.8 -0.3
v -0.3 0.7 -0.3
v -0.3 0.8 -0.3
v -0.2 0.7 -0.3
v -0.2 0.8 -0.3
v -0.0999999 0.7 -0.3
v -0.0999999 0.8 -0.3
v 0.1 0.7 -0.3
v 0.1 0.8 -0.3
v 0.2 0.7 -0.3
v 0.2 0.8 -0.3
v 0.3 0.7 -0.3
v 0.3 0.8 -0.3
v 0.4 0.7 -0.3
v 0.4 0.8 -0.3
v 0.5 0.6 -0.3
v 0.5 0.7 -0.3
v 0.5 0.8 -0.3
v 0.6 0.6 -0.3
v 0.6 0.7 -0.3
v 0.6 0.9 -0.3
v 0.7 0.4 -0.3
v 0.7 0.5 -0.3
v 0.7 0.6 -0.3
v 0.8 0.4 -0.3
v 0.8 0.7 -0.3
v 1.3 0.4 -0.4
v 1.3 0.5 -0.4
v 1.4 0.4 -0.4
v 1.4 0.5 -0.4
v -1.9 0.4 -0.5
v -1.9 1.3 -0.5
v -0.9 0.4 -0.5
v -0.9 1.3 -0.5
v -0.7 0.4 -0.5
v -0.7 0.5 -0.5
v -0.6 0.4 -0.5
v -0.6 0.5 -0.5
v 0.7 0.4 -0.7
v 0.7 0.5 -0.7
v 0.7 0.6 -0.7
v 0.8 0.4 -0.7
v 0.8 0.5 -0.7
v 0.8 0.6 -0.7
v 0.6 0.4 -0.8
v 0.6 0.5 -0.8
v 0.6 0.6 -0.8
v 0.7 0.4 -0.8
v 0.7 0.5 -0.8
v 0.7 0.6 -0.8
v 0.8 0.4 -0.8
v 0.8 0.5 -0.8
v 0.8 0.6 -0.8
v 0.9 0.4 -0.8
v 0.9 0.5 -0.8
v 0.9 0.6 -0.8
v 1.1 0.4 -0.8
v 1.1 0.5 -0.8
v 1.2 0.4 -0.8
v 1.2 0.5 -0.8
v -0.8 0.4 -0.9
v -0.8 0.5 -0.9
v -0.7 0.4 -0.9
v -0.7 0.5 -0.9
v 0.9 0.4 -0.9
v 0.9 0.5 -0.9
v 1 0.4 -0.9
v 1 0.5 -0.9
v 1.5 0.4 -1
v 1.5 0.5 -1
v 1.6 0.4 -1
v 1.6 0.5 -1
v 0.7 0.4 -1.1
v 0.7 0.5 -1.1
v 0.8 0.4 -1.1
v 0.8 0.5 -1.1
v 1.3 0.6 -1.1
v 1.3 1.1 -1.1
v 1.5 0.6 -1.1
v 1.5 1.1 -1.1
v 1.2 0.6 -1.2
v 1.2 1.1 -1.2
v 1.3 0.4 -1.2
v 1.3 0.6 -1.2
v 1.3 1.1 -1.2
v 1.3 1.2 -1.2
v 1.5 0.4 -1.2
v 1.5 0.6 -1.2
v 1.5 1.1 -1.2
v 1.5 1.2 -1.2
v 1.6 0.6 -1.2
v 1.6 1.1 -1.2
v -1 0.4 -1.4
v -1 0.9 -1.4
v -0.9 0.4 -1.4
v -0.9 0.9 -1.4
v 1.8 0.4 -1.4
v 1.8 0.5 -1.4
v 1.9 0.4 -1.4
v 1.9 0.5 -1.4
v 0.6 0.4 -1.5
v 0.6 0.5 -1.5
v 0.8 0.4 -1.5
v 0.8 0.5 -1.5
v -0.7 0.4 -1.6
v -0.7 0.5 -1.6
v -0.7 0.6 -1.6
v -0.6 0.4 -1.6
v -0.6 0.5 -1.6
v -0.6 0.6 -1.6
v 0.6 0.5 -1.6
v 0.6 0.6 -1.6
v 0.7 0.5 -1.6
v 0.7 0.6 -1.6
v 1.7 0.4 -1.6
v 1.7 0.5 -1.6
v 1.7 0.6 -1.6
v 1.8 0.4 -1.6
v 1.8 0.5 -1.6
v 1.8 0.6 -1.6
v -0.8 0.4 -1.7
v -0.8 0.5 -1.7
v -0.8 0.6 -1.7
v -0.7 0.4 -1.7
v -0.7 0.5 -1.7
v -0.7 0.6 -1.7
v -0.6 0.4 -1.7
v -0.6 0.5 -1.7
v -0.6 0.6 -1.7
v -0.5 0.4 -1.7
v -0.5 0.5 -1.7
v -0.5 0.6 -1.7
v 1.2 0.4 -1.7
v 1.2 0.5 -1.7
v 1.3 0.4 -1.7
v 1.3 0.5 -1.7
v 1.6 0.4 -1.7
v 1.6 0.5 -1.7
v 1.6 0.6 -1.7
v 1.7 0.4 -1.7
v 1.7 0.5 -1.7
v 1.7 0.6 -1.7
v 1.8 0.4 -1.7
v 1.8 0.5 -1.7
v 1.8 0.6 -1.7
v 1.9 0.4 -1.7
v 1.9 0.5 -1.7
v 1.9 0.6 -1.7
v -1.8 1.2 -1.8
v -1.8 1.3 -1.8
v -1 1.2 -1.8
v -1 1.3 -1.8
v 0.9 0.4 -1.8
v 0.9 0.5 -1.8
v 1 0.4 -1.8
v 1 0.5 -1.8
v 0.7 0.4 -1.9
v 0.7 0.5 -1.9
v 0.8 0.4 -1.9
v 0.8 0.5 -1.9
v -1.3 0.4 1.8
v -1.3 0.5 1.8
v -1.2 0.4 1.8
v -1.2 0.5 1.8
v 0.6 0.4 1.8
v 0.6 0.5 1.8
v 0.7 0.4 1.8
v 0.7 0.5 1.8
v 0.8 0.4 1.8
v 0.8 0.5 1.8
v 0.9 0.4 1.8
v 0.9 0.5 1.8
v 1.1 0.4 1.7
v 1.1 0.6 1.7
v 1.2 0.5 1.7
v 1.2 0.6 1.7
v 1.3 0.4 1.7
v 1.3 0.5 1.7
v 1.8 0.4 1.7
v 1.8 0.5 1.7
v 1.9 0.4 1.7
v 1.9 0.5 1.7
v -1.8 0.4 1.6
v -1.8 0.5 1.6
v -1.7 0.4 1.6
v -1.7 0.5 1.6
v -0.9 0.4 1.6
v -0.9 0.5 1.6
v -0.9 0.6 1.6
v -0.8 0.4 1.6
v -0.8 0.5 1.6
v -0.8 0.6 1.6
v -0.7 0.4 1.6
v -0.7 0.5 1.6
v -0.7 0.6 1.6
v -0.6 0.4 1.6
v -0.6 0.5 1.6
v -0.6 0.6 1.6
v 0.9 0.4 1.6
v 0.9 0.5 1.6
v 1 0.4 1.6
v 1 0.5 1.6
v -0.8 0.4 1.5
v -0.8 0.5 1.5
v -0.8 0.6 1.5
v -0.7 0.4 1.5
v -0.7 0.5 1.5
v -0.7 0.6 1.5
v -1.5 0.6 1.4
v -1.5 1.1 1.4
v -1.4 0.4 1.4
v -1.4 0.6 1.4
v -1.4 1.1 1.4
v -1.4 1.2 1.4
v -1.2 0.4 1.4
v -1.2 0.6 1.4
v -1.2 1.1 1.4
v -1.2 1.2 1.4
v -1.1 0.6 1.4
v -1.1 1.1 1.4
v 0.6 0.4 1.4
v 0.6 0.5 1.4
v 0.6 0.6 1.4
v 0.7 0.4 1.4
v 0.7 0.5 1.4
v 0.7 0.6 1.4
v 0.8 0.4 1.4
v 0.8 0.5 1.4
v 0.8 0.6 1.4
v 0.9 0.4 1.4
v 0.9 0.5 1.4
v 0.9 0.6 1.4
v -1.4 0.6 1.3
v -1.4 1.1 1.3
v -1.2 0.6 1.3
v -1.2 1.1 1.3
v -0.8 0.4 1.3
v -0.8 0.5 1.3
v -0.7 0.4 1.3
v -0.7 0.5 1.3
v 0.7 0.4 1.3
v 0.7 0.5 1.3
v 0.7 0.6 1.3
v 0.8 0.4 1.3
v 0.8 0.5 1.3
v 0.8 0.6 1.3
v 1 0.4 1.3
v 1 0.5 1.3
v 1.1 0.4 1.3
v 1.1 0.5 1.3
v 1.4 0.6 1.3
v 1.4 1.1 1.3
v 1.5 0.4 1.3
v 1.5 0.6 1.3
v 1.5 1.1 1.3
v 1.5 1.2 1.3
v 1.7 0.4 1.3
v 1.7 0.6 1.3
v 1.7 1.1 1.3
v 1.7 1.2 1.3
v 1.8 0.6 1.3
v 1.8 1.1 1.3
v 1.5 0.6 1.2
v 1.5 1.1 1.2
v 1.7 0.6 1.2
v 1.7 1.1 1.2
v 1.1 0.4 1.1
v 1.1 0.5 1.1
v 1.2 0.4 1.1
v 1.2 0.5 1.1
v 1.4 0.4 1.1
v 1.4 0.5 1.1
v 1.5 0.4 1.1
v 1.5 0.5 1.1
v 1.7 0.5 1.1
v 1.7 0.6 1.1
v 1.8 0.5 1.1
v 1.8 0.6 1.1
v -1.7 0.5 1
v -1.7 0.6 1
v -1.6 0.5 1
v -1.6 0.6 1
v 1.6 0.4 1
v 1.6 0.5 1
v 1.8 0.4 1
v 1.8 0.5 1
v -1.8 0.4 0.9
v -1.8 0.5 0.9
v -1.5 0.4 0.9
v -1.5 0.5 0.9
v -1.1 0.6 0.8
v -1.1 1.1 0.8
v -1 0.4 0.8
v -1 0.6 0.8
v -1 1.1 0.8
v -1 1.2 0.8
v -0.8 0.4 0.8
v -0.8 0.6 0.8
v -0.8 1.1 0.8
v -0.8 1.2 0.8
v -0.7 0.6 0.8
v -0.7 1.1 0.8
v 0.7 0.6 0.8
v 0.7 1.1 0.8
v 0.8 0.4 0.8
v 0.8 0.6 0.8
v 0.8 1.1 0.8
v 0.8 1.2 0.8
v 1 0.4 0.8
v 1 0.6 0.8
v 1 1.1 0.8
v 1 1.2 0.8
v 1.1 0.6 0.8
v 1.1 1.1 0.8
v -1.9 0.4 0.7
v -1.9 0.5 0.7
v -1.8 0.4 0.7
v -1.8 0.5 0.7
v -1 0.6 0.7
v -1 1.1 0.7
v -0.8 0.6 0.7
v -0.8 1.1 0.7
v 0.8 0.6 0.7
v 0.8 1.1 0.7
v 1 0.6 0.7
v 1 1.1 0.7
v -1.4 0.4 0.6
v -1.4 0.5 0.6
v -1.3 0.4 0.6
v -1.3 0.5 0.6
v 0.6 0.4 0.6
v 0.6 0.5 0.6
v 0.7 0.4 0.6
v 0.7 0.5 0.6
v 1.1 0.4 0.6
v 1.1 0.5 0.6
v 1.2 0.4 0.6
v 1.2 0.5 0.6
v 1.7 0.4 0.6
v 1.7 0.5 0.6
v 1.8 0.4 0.6
v 1.8 0.5 0.6
v 1.3 0.4 0.5
v 1.3 0.5 0.5
v 1.4 0.4 0.5
v 1.4 0.5 0.5
v -1.3 0.4 0.4
v -1.3 0.5 0.4
v -1.2 0.4 0.4
v -1.2 0.5 0.4
v -0.8 0.4 0.3
v -0.8 0.7 0.3
v -0.7 0.4 0.3
v -0.7 0.5 0.3
v -0.7 0.6 0.3
v -0.6 0.6 0.3
v -0.6 0.7 0.3
v -0.6 0.9 0.3
v -0.5 0.6 0.3
v -0.5 0.7 0.3
v -0.5 0.8 0.3
v -0.4 0.7 0.3
v -0.4 0.8 0.3
v -0.3 0.7 0.3
v -0.3 0.8 0.3
v -0.2 0.7 0.3
v -0.2 0.8 0.3
v -0.0999999 0.7 0.3
v -0.0999999 0.8 0.3
v 0.1 0.7 0.3
v 0.1 0.8 0.3
v 0.2 0.7 0.3
v 0.2 0.8 0.3
v 0.3 0.7 0.3
v 0.3 0.8 0.3
v 0.4 0.7 0.3
v 0.4 0.8 0.3
v 0.5 0.6 0.3
v 0.5 0.7 0.3
v 0.5 0.8 0.3
v 0.6 0.6 0.3
v 0.6 0.7 0.3
v 0.6 0.9 0.3
v 0.7 0.4 0.3
v 0.7 0.5 0.3
v 0.7 0.6 0.3
v 0.8 0.4 0.3
v 0.8 0.7 0.3
v 1.5 0.4 0.2
v 1.5 0.5 0.2
v 1.6 0.4 0.2
v 1.6 0.5 0.2
v -1.6 0.4 -0.1
v -1.6 0.5 -0.1
v -1.5 0.4 -0.1
v -1.5 0.5 -0.1
v 1.2 0.4 -0.3
v 1.2 0.5 -0.3
v 1.3 0.4 -0.3
v 1.3 0.5 -0.3
v -1.9 0.4 -0.4
v -1.9 0.5 -0.4
v -1.8 0.4 -0.4
v -1.8 0.5 -0.4
v -1.5 0.4 -0.4
v -1.5 0.5 -0.4
v -1.4 0.4 -0.4
v -1.4 0.5 -0.4
v -0.8 0.4 -0.4
v -0.8 0.7 -0.4
v -0.7 0.5 -0.4
v -0.7 0.6 -0.4
v -0.6 0.5 -0.4
v -0.6 0.6 -0.4
v -0.6 0.7 -0.4
v -0.6 0.9 -0.4
v -0.5 0.4 -0.4
v -0.5 0.5 -0.4
v -0.5 0.7 -0.4
v -0.5 0.8 -0.4
v -0.4 0.5 -0.4
v -0.4 0.6 -0.4
v -0.4 0.7 -0.4
v -0.4 0.8 -0.4
v -0.3 0.7 -0.4
v -0.3 0.8 -0.4
v -0.2 0.7 -0.4
v -0.2 0.8 -0.4
v -0.0999999 0.7 -0.4
v -0.0999999 0.8 -0.4
v 0.1 0.7 -0.4
v 0.1 0.8 -0.4
v 0.2 0.7 -0.4
v 0.2 0.8 -0.4
v 0.3 0.7 -0.4
v 0.3 0.8 -0.4
v 0.4 0.5 -0.4
v 0.4 0.6 -0.4
v 0.4 0.7 -0.4
v 0.4 0.8 -0.4
v 0.5 0.4 -0.4
v 0.5 0.5 -0.4
v 0.5 0.7 -0.4
v 0.5 0.8 -0.4
v 0.6 0.5 -0.4
v 0.6 0.6 -0.4
v 0.6 0.7 -0.4
v 0.6 0.9 -0.4
v 0.7 0.5 -0.4
v 0.7 0.6 -0.4
v 0.8 0.4 -0.4
v 0.8 0.7 -0.4
v 1.3 0.4 -0.5
v 1.3 0.5 -0.5
v 1.4 0.4 -0.5
v 1.4 0.5 -0.5
v -1.8 1.2 -0.6
v -1.8 1.3 -0.6
v -1 1.2 -0.6
v -1 1.3 -0.6
v -0.7 0.4 -0.6
v -0.7 0.5 -0.6
v -0.6 0.4 -0.6
v -0.6 0.5 -0.6
v 0.6 0.4 -0.9
v 0.6 0.5 -0.9
v 0.6 0.6 -0.9
v 0.7 0.4 -0.9
v 0.7 0.5 -0.9
v 0.7 0.6 -0.9
v 0.8 0.4 -0.9
v 0.8 0.5 -0.9
v 0.8 0.6 -0.9
v 0.9 0.4 -0.9
v 0.9 0.5 -0.9
v 0.9 0.6 -0.9
v 1.1 0.4 -0.9
v 1.1 0.5 -0.9
v 1.2 0.4 -0.9
v 1.2 0.5 -0.9
v -0.8 0.4 -1
v -0.8 0.5 -1
v -0.7 0.4 -1
v -0.7 0.5 -1
v 0.7 0.4 -1
v 0.7 0.5 -1
v 0.7 0.6 -1
v 0.8 0.4 -1
v 0.8 0.5 -1
v 0.8 0.6 -1
v 0.9 0.4 -1
v 0.9 0.5 -1
v 1 0.4 -1
v 1 0.5 -1
v -1 0.4 -1.1
v -1 0.9 -1.1
v -0.9 0.4 -1.1
v -0.9 0.9 -1.1
v 1.5 0.4 -1.1
v 1.5 0.5 -1.1
v 1.6 0.4 -1.1
v 1.6 0.5 -1.1
v 0.7 0.4 -1.2
v 0.7 0.5 -1.2
v 0.8 0.4 -1.2
v 0.8 0.5 -1.2
v 1.2 0.6 -1.4
v 1.2 1.1 -1.4
v 1.3 0.4 -1.4
v 1.3 0.6 -1.4
v 1.3 1.1 -1.4
v 1.3 1.2 -1.4
v 1.5 0.4 -1.4
v 1.5 0.6 -1.4
v 1.5 1.1 -1.4
v 1.5 1.2 -1.4
v 1.6 0.6 -1.4
v 1.6 1.1 -1.4
v 1.3 0.6 -1.5
v 1.3 1.1 -1.5
v 1.5 0.6 -1.5
v 1.5 1.1 -1.5
v 1.8 0.4 -1.5
v 1.8 0.5 -1.5
v 1.9 0.4 -1.5
v 1.9 0.5 -1.5
v 0.6 0.4 -1.7
v 0.6 0.6 -1.7
v 0.7 0.5 -1.7
v 0.7 0.6 -1.7
v 0.8 0.4 -1.7
v 0.8 0.5 -1.7
v -0.8 0.4 -1.8
v -0.8 0.5 -1.8
v -0.8 0.6 -1.8
v -0.7 0.4 -1.8
v -0.7 0.5 -1.8
v -0.7 0.6 -1.8
v -0.6 0.4 -1.8
v -0.6 0.5 -1.8
v -0.6 0.6 -1.8
v -0.5 0.4 -1.8
v -0.5 0.5 -1.8
v -0.5 0.6 -1.8
v 1.2 0.4 -1.8
v 1.2 0.5 -1.8
v 1.3 0.4 -1.8
v 1.3 0.5 -1.8
v 1.6 0.4 -1.8
v 1.6 0.5 -1.8
v 1.6 0.6 -1.8
v 1.7 0.4 -1.8
v 1.7 0.5 -1.8
v 1.7 0.6 -1.8
v 1.8 0.4 -1.8
v 1.8 0.5 -1.8
v 1.8 0.6 -1.8
v 1.9 0.4 -1.8
v 1.9 0.5 -1.8
v 1.9 0.6 -1.8
v -1.9 0.4 -1.9
v -1.9 1.3 -1.9
v -0.9 0.4 -1.9
v -0.9 1.3 -1.9
v -0.7 0.4 -1.9
v -0.7 0.5 -1.9
v -0.7 0.6 -1.9
v -0.6 0.4 -1.9
v -0.6 0.5 -1.9
v -0.6 0.6 -1.9
v 0.9 0.4 -1.9
v 0.9 0.5 -1.9
v 1 0.4 -1.9
v 1 0.5 -1.9
v 1.7 0.4 -1.9
v 1.7 0.5 -1.9
v 1.7 0.6 -1.9
v 1.8 0.4 -1.9
v 1.8 0.5 -1.9
v 1.8 0.6 -1.9
v -2 0 -2
v -2 0.4 -2
v -0.5 0.2 -2
v -0.5 0.3 -2
v -0.5 0.4 -2
v -0.4 0.1 -2
v -0.4 0.2 -2
v -0.3 0 -2
v -0.3 0.1 -2
v 0.3 0 -2
v 0.3 0.1 -2
v 0.4 0.1 -2
v 0.4 0.2 -2
v 0.5 0.2 -2
v 0.5 0.3 -2
v 0.5 0.4 -2
v 0.7 0.4 -2
v 0.7 0.5 -2
v 0.8 0.4 -2
v 0.8 0.5 -2
v 2 0 -2
v 2 0.4 -2
v -2 0 2
v -0.3 0 2
v 0.3 0 2
v 2 0 2
v -2 0 -2
v -0.3 0 -2
v 0.3 0 -2
v 2 0 -2
v -0.5 0.5 0.4
v -0.4 0.5 0.4
v 0.4 0.5 0.4
v 0.5 0.5 0.4
v -0.5 0.5 -0.4
v -0.4 0.5 -0.4
v 0.4 0.5 -0.4
v 0.5 0.5 -0.4
v -1.4 0.6 1.7
v -1.2 0.6 1.7
v -1.5 0.6 1.6
v -1.4 0.6 1.6
v -1.2 0.6 1.6
v -1.1 0.6 1.6
v 1.5 0.6 1.6
v 1.7 0.6 1.6
v 1.4 0.6 1.5
v 1.5 0.6 1.5
v 1.7 0.6 1.5
v 1.8 0.6 1.5
v -1.5 0.6 1.4
v -1.4 0.6 1.4
v -1.2 0.6 1.4
v -1.1 0.6 1.4
v -1.4 0.6 1.3
v -1.2 0.6 1.3
v 1.4 0.6 1.3
v 1.5 0.6 1.3
v 1.7 0.6 1.3
v 1.8 0.6 1.3
v 1.5 0.6 1.2
v 1.7 0.6 1.2
v -1 0.6 1.1
v -0.8 0.6 1.1
v 0.8 0.6 1.1
v 1 0.6 1.1
v -1.1 0.6 1
v -1 0.6 1
v -0.8 0.6 1
v -0.7 0.6 1
v 0.7 0.6 1
v 0.8 0.6 1
v 1 0.6 1
v 1.1 0.6 1
v -1.1 0.6 0.8
v -1 0.6 0.8
v -0.8 0.6 0.8
v -0.7 0.6 0.8
v 0.7 0.6 0.8
v 0.8 0.6 0.8
v 1 0.6 0.8
v 1.1 0.6 0.8
v -1 0.6 0.7
v -0.8 0.6 0.7
v 0.8 0.6 0.7
v 1 0.6 0.7
v -0.7 0.6 0.4
v -0.6 0.6 0.4
v -0.4 0.6 0.4
v 0.4 0.6 0.4
v 0.6 0.6 0.4
v 0.7 0.6 0.4
v -0.7 0.6 0.3
v -0.6 0.6 0.3
v 0.6 0.6 0.3
v 0.7 0.6 0.3
v -0.7 0.6 -0.3
v -0.6 0.6 -0.3
v 0.6 0.6 -0.3
v 0.7 0.6 -0.3
v -0.7 0.6 -0.4
v -0.6 0.6 -0.4
v -0.4 0.6 -0.4
v 0.4 0.6 -0.4
v 0.6 0.6 -0.4
v 0.7 0.6 -0.4
v 1.3 0.6 -1.1
v 1.5 0.6 -1.1
v 1.2 0.6 -1.2
v 1.3 0.6 -1.2
v 1.5 0.6 -1.2
v 1.6 0.6 -1.2
v 1.2 0.6 -1.4
v 1.3 0.6 -1.4
v 1.5 0.6 -1.4
v 1.6 0.6 -1.4
v 1.3 0.6 -1.5
v 1.5 0.6 -1.5
v -0.5 0.8 0.4
v -0.4 0.8 0.4
v -0.3 0.8 0.4
v -0.2 0.8 0.4
v -0.0999999 0.8 0.4
v 0.1 0.8 0.4
v 0.2 0.8 0.4
v 0.3 0.8 0.4
v 0.4 0.8 0.4
v 0.5 0.8 0.4
v -0.5 0.8 0.3
v -0.4 0.8 0.3
v -0.3 0.8 0.3
v -0.2 0.8 0.3
v -0.0999999 0.8 0.3
v 0.1 0.8 0.3
v 0.2 0.8 0.3
v 0.3 0.8 0.3
v 0.4 0.8 0.3
v 0.5 0.8 0.3
v -0.5 0.8 -0.3
v -0.4 0.8 -0.3
v -0.3 0.8 -0.3
v -0.2 0.8 -0.3
v -0.0999999 0.8 -0.3
v 0.1 0.8 -0.3
v 0.2 0.8 -0.3
v 0.3 0.8 -0.3
v 0.4 0.8 -0.3
v 0.5 0.8 -0.3
v -0.5 0.8 -0.4
v -0.4 0.8 -0.4
v -0.3 0.8 -0.4
v -0.2 0.8 -0.4
v -0.0999999 0.8 -0.4
v 0.1 0.8 -0.4
v 0.2 0.8 -0.4
v 0.3 0.8 -0.4
v 0.4 0.8 -0.4
v 0.5 0.8 -0.4
v -1 0.9 -1.1
v -0.9 0.9 -1.1
v -1 0.9 -1.4
v -0.9 0.9 -1.4
v -0.5 0.3 2
v 0.5 0.3 2
v 0.2 0.3 1.6
v 0.3 0.3 1.6
v -0.3 0.3 1.5
v -0.2 0.3 1.5
v 0.2 0.3 1.5
v 0.3 0.3 1.5
v -0.3 0.3 1.4
v -0.2 0.3 1.4
v 2.38419e-07 0.3 1.2
v 0.1 0.3 1.2
v 2.38419e-07 0.3 1.1
v 0.1 0.3 1.1
v 0.2 0.3 0.9
v 0.3 0.3 0.9
v -0.0999999 0.3 0.8
v 2.38419e-07 0.3 0.8
v 0.2 0.3 0.8
v 0.3 0.3 0.8
v -0.0999999 0.3 0.7
v 2.38419e-07 0.3 0.7
v -0.4 0.3 0.4
v -0.3 0.3 0.4
v -0.4 0.3 0.3
v -0.3 0.3 0.3
v 0.1 0.3 0.2
v 0.2 0.3 0.2
v 0.1 0.3 0.0999999
v 0.2 0.3 0.0999999
v -0.3 0.3 -0.2
v -0.2 0.3 -0.2
v -0.3 0.3 -0.3
v -0.2 0.3 -0.3
v 0.1 0.3 -0.4
v 0.2 0.3 -0.4
v 0.1 0.3 -0.5
v 0.2 0.3 -0.5
v -0.3 0.3 -0.6
v -0.2 0.3 -0.6
v -0.3 0.3 -0.7
v -0.2 0.3 -0.7
v 0.2 0.3 -0.8
v 0.3 0.3 -0.8
v 2.38419e-07 0.3 -0.9
v 0.1 0.3 -0.9
v 0.2 0.3 -0.9
v 0.3 0.3 -0.9
v 2.38419e-07 0.3 -1
v 0.1 0.3 -1
v -0.3 0.3 -1.4
v -0.2 0.3 -1.4
v 0.2 0.3 -1.4
v 0.3 0.3 -1.4
v -0.3 0.3 -1.5
v -0.2 0.3 -1.5
v 0.2 0.3 -1.5
v 0.3 0.3 -1.5
v -0.0999999 0.3 -1.7
v 2.38419e-07 0.3 -1.7
v 0.3 0.3 -1.7
v 0.4 0.3 -1.7
v -0.0999999 0.3 -1.8
v 2.38419e-07 0.3 -1.8
v 0.3 0.3 -1.8
v 0.4 0.3 -1.8
v -0.5 0.3 -2
v 0.5 0.3 -2
v -2 0.4 2
v -0.5 0.4 2
v 0.5 0.4 2
v 2 0.4 2
v -1.3 0.4 1.9
v -1.2 0.4 1.9
v 0.6 0.4 1.9
v 0.7 0.4 1.9
v 0.8 0.4 1.9
v 0.9 0.4 1.9
v 1.1 0.4 1.9
v 1.3 0.4 1.9
v -1.3 0.4 1.8
v -1.2 0.4 1.8
v -0.8 0.4 1.8
v -0.7 0.4 1.8
v 0.6 0.4 1.8
v 0.7 0.4 1.8
v 0.8 0.4 1.8
v 0.9 0.4 1.8
v 1.8 0.4 1.8
v 1.9 0.4 1.8
v -1.8 0.4 1.7
v -1.7 0.4 1.7
v -0.9 0.4 1.7
v -0.8 0.4 1.7
v -0.7 0.4 1.7
v -0.6 0.4 1.7
v 0.9 0.4 1.7
v 1 0.4 1.7
v 1.1 0.4 1.7
v 1.3 0.4 1.7
v 1.8 0.4 1.7
v 1.9 0.4 1.7
v -1.8 0.4 1.6
v -1.7 0.4 1.6
v -1.4 0.4 1.6
v -1.2 0.4 1.6
v -0.9 0.4 1.6
v -0.8 0.4 1.6
v -0.7 0.4 1.6
v -0.6 0.4 1.6
v 0.7 0.4 1.6
v 0.8 0.4 1.6
v 0.9 0.4 1.6
v 1 0.4 1.6
v -0.8 0.4 1.5
v -0.7 0.4 1.5
v 0.6 0.4 1.5
v 0.7 0.4 1.5
v 0.8 0.4 1.5
v 0.9 0.4 1.5
v 1.5 0.4 1.5
v 1.7 0.4 1.5
v -1.4 0.4 1.4
v -1.2 0.4 1.4
v -0.8 0.4 1.4
v -0.7 0.4 1.4
v 0.6 0.4 1.4
v 0.7 0.4 1.4
v 0.8 0.4 1.4
v 0.9 0.4 1.4
v 1 0.4 1.4
v 1.1 0.4 1.4
v -0.8 0.4 1.3
v -0.7 0.4 1.3
v 0.7 0.4 1.3
v 0.8 0.4 1.3
v 1 0.4 1.3
v 1.1 0.4 1.3
v 1.5 0.4 1.3
v 1.7 0.4 1.3
v -1.8 0.4 1.2
v -1.5 0.4 1.2
v 1.1 0.4 1.2
v 1.2 0.4 1.2
v 1.4 0.4 1.2
v 1.5 0.4 1.2
v 1.6 0.4 1.2
v 1.8 0.4 1.2
v 1.1 0.4 1.1
v 1.2 0.4 1.1
v 1.4 0.4 1.1
v 1.5 0.4 1.1
v -1 0.4 1
v -0.8 0.4 1
v 0.8 0.4 1
v 1 0.4 1
v 1.6 0.4 1
v 1.8 0.4 1
v -1.8 0.4 0.9
v -1.5 0.4 0.9
v -1.9 0.4 0.8
v -1.8 0.4 0.8
v -1 0.4 0.8
v -0.8 0.4 0.8
v 0.8 0.4 0.8
v 1 0.4 0.8
v -1.9 0.4 0.7
v -1.8 0.4 0.7
v -1.4 0.4 0.7
v -1.3 0.4 0.7
v 0.6 0.4 0.7
v 0.7 0.4 0.7
v 1.1 0.4 0.7
v 1.2 0.4 0.7
v 1.7 0.4 0.7
v 1.8 0.4 0.7
v -1.8 0.4 0.6
v -1.5 0.4 0.6
v -1.4 0.4 0.6
v -1.3 0.4 0.6
v 0.6 0.4 0.6
v 0.7 0.4 0.6
v 1.1 0.4 0.6
v 1.2 0.4 0.6
v 1.3 0.4 0.6
v 1.4 0.4 0.6
v 1.7 0.4 0.6
v 1.8 0.4 0.6
v -1.9 0.4 0.5
v -1.8 0.4 0.5
v -1.5 0.4 0.5
v -1.4 0.4 0.5
v -1.3 0.4 0.5
v -1.2 0.4 0.5
v 1 0.4 0.5
v 1.3 0.4 0.5
v 1.4 0.4 0.5
v -1.3 0.4 0.4
v -1.2 0.4 0.4
v -0.8 0.4 0.4
v -0.5 0.4 0.4
v 0.5 0.4 0.4
v 0.8 0.4 0.4
v 0.9 0.4 0.4
v 1 0.4 0.4
v 1.3 0.4 0.4
v 1.4 0.4 0.4
v -0.8 0.4 0.3
v -0.7 0.4 0.3
v 0.7 0.4 0.3
v 0.8 0.4 0.3
v 1.5 0.4 0.3
v 1.6 0.4 0.3
v -1.9 0.4 0.2
v -1.8 0.4 0.2
v -1.5 0.4 0.2
v -1.4 0.4 0.2
v 1.5 0.4 0.2
v 1.6 0.4 0.2
v -1.8 0.4 0.0999999
v -1.5 0.4 0.0999999
v -1.3 0.4 0.0999999
v -1 0.4 0.0999999
v 0.9 0.4 0.0999999
v 1 0.4 0.0999999
v 1.3 0.4 0.0999999
v 1.4 0.4 0.0999999
v -1.6 0.4 -2.38419e-07
v -1.5 0.4 -2.38419e-07
v -1.4 0.4 -2.38419e-07
v -1.3 0.4 -2.38419e-07
v -1 0.4 -2.38419e-07
v -0.9 0.4 -2.38419e-07
v 1 0.4 -2.38419e-07
v 1.3 0.4 -2.38419e-07
v 1.5 0.4 -2.38419e-07
v 1.8 0.4 -2.38419e-07
v -1.6 0.4 -0.1
v -1.5 0.4 -0.1
v 1.4 0.4 -0.1
v 1.5 0.4 -0.1
v 1.8 0.4 -0.1
v 1.9 0.4 -0.1
v 1.2 0.4 -0.2
v 1.3 0.4 -0.2
v -1.9 0.4 -0.3
v -1.8 0.4 -0.3
v -1.5 0.4 -0.3
v -1.4 0.4 -0.3
v -1.3 0.4 -0.3
v -1 0.4 -0.3
v -0.9 0.4 -0.3
v -0.8 0.4 -0.3
v -0.7 0.4 -0.3
v 0.7 0.4 -0.3
v 0.8 0.4 -0.3
v 1.2 0.4 -0.3
v 1.3 0.4 -0.3
v -1.9 0.4 -0.4
v -1.8 0.4 -0.4
v -1.5 0.4 -0.4
v -1.4 0.4 -0.4
v -1.3 0.4 -0.4
v -1 0.4 -0.4
v -0.8 0.4 -0.4
v -0.5 0.4 -0.4
v 0.5 0.4 -0.4
v 0.8 0.4 -0.4
v 1.3 0.4 -0.4
v 1.4 0.4 -0.4
v 1.5 0.4 -0.4
v 1.8 0.4 -0.4
v 1.9 0.4 -0.4
v -1.9 0.4 -0.5
v -0.9 0.4 -0.5
v -0.7 0.4 -0.5
v -0.6 0.4 -0.5
v 1.3 0.4 -0.5
v 1.4 0.4 -0.5
v 1.5 0.4 -0.5
v 1.8 0.4 -0.5
v -0.7 0.4 -0.6
v -0.6 0.4 -0.6
v 0.7 0.4 -0.7
v 0.8 0.4 -0.7
v 0.6 0.4 -0.8
v 0.7 0.4 -0.8
v 0.8 0.4 -0.8
v 0.9 0.4 -0.8
v 1.1 0.4 -0.8
v 1.2 0.4 -0.8
v -0.8 0.4 -0.9
v -0.7 0.4 -0.9
v 0.6 0.4 -0.9
v 0.7 0.4 -0.9
v 0.8 0.4 -0.9
v 0.9 0.4 -0.9
v 1 0.4 -0.9
v 1.1 0.4 -0.9
v 1.2 0.4 -0.9
v -0.9 0.4 -1
v -0.8 0.4 -1
v -0.7 0.4 -1
v 0.7 0.4 -1
v 0.8 0.4 -1
v 0.9 0.4 -1
v 1 0.4 -1
v 1.5 0.4 -1
v 1.6 0.4 -1
v -1 0.4 -1.1
v -0.9 0.4 -1.1
v 0.7 0.4 -1.1
v 0.8 0.4 -1.1
v 1.5 0.4 -1.1
v 1.6 0.4 -1.1
v 0.7 0.4 -1.2
v 0.8 0.4 -1.2
v 1.3 0.4 -1.2
v 1.5 0.4 -1.2
v -1 0.4 -1.4
v -0.9 0.4 -1.4
v 1.3 0.4 -1.4
v 1.5 0.4 -1.4
v 1.8 0.4 -1.4
v 1.9 0.4 -1.4
v -0.9 0.4 -1.5
v 0.6 0.4 -1.5
v 0.8 0.4 -1.5
v 1.8 0.4 -1.5
v 1.9 0.4 -1.5
v -0.7 0.4 -1.6
v -0.6 0.4 -1.6
v 1.7 0.4 -1.6
v 1.8 0.4 -1.6
v -0.8 0.4 -1.7
v -0.7 0.4 -1.7
v -0.6 0.4 -1.7
v -0.5 0.4 -1.7
v 0.6 0.4 -1.7
v 0.8 0.4 -1.7
v 1.2 0.4 -1.7
v 1.3 0.4 -1.7
v 1.6 0.4 -1.7
v 1.7 0.4 -1.7
v 1.8 0.4 -1.7
v 1.9 0.4 -1.7
v -0.8 0.4 -1.8
v -0.7 0.4 -1.8
v -0.6 0.4 -1.8
v -0.5 0.4 -1.8
v 0.9 0.4 -1.8
v 1 0.4 -1.8
v 1.2 0.4 -1.8
v 1.3 0.4 -1.8
v 1.6 0.4 -1.8
v 1.7 0.4 -1.8
v 1.8 0.4 -1.8
v 1.9 0.4 -1.8
v -1.9 0.4 -1.9
v -0.9 0.4 -1.9
v -0.7 0.4 -1.9
v -0.6 0.4 -1.9
v 0.7 0.4 -1.9
v 0.8 0.4 -1.9
v 0.9 0.4 -1.9
v 1 0.4 -1.9
v 1.7 0.4 -1.9
v 1.8 0.4 -1.9
v -2 0.4 -2
v -0.5 0.4 -2
v 0.5 0.4 -2
v 0.7 0.4 -2
v 0.8 0.4 -2
v 2 0.4 -2
v -1.3 0.5 1.9
v -1.2 0.5 1.9
v 0.6 0.5 1.9
v 0.7 0.5 1.9
v 0.8 0.5 1.9
v 0.9 0.5 1.9
v 1.1 0.5 1.9
v 1.3 0.5 1.9
v -1.3 0.5 1.8
v -1.2 0.5 1.8
v 0.6 0.5 1.8
v 0.7 0.5 1.8
v 0.8 0.5 1.8
v 0.9 0.5 1.8
v 1.1 0.5 1.8
v 1.2 0.5 1.8
v 1.8 0.5 1.8
v 1.9 0.5 1.8
v -1.8 0.5 1.7
v -1.7 0.5 1.7
v 0.9 0.5 1.7
v 1 0.5 1.7
v 1.2 0.5 1.7
v 1.3 0.5 1.7
v 1.8 0.5 1.7
v 1.9 0.5 1.7
v -1.8 0.5 1.6
v -1.7 0.5 1.6
v 0.9 0.5 1.6
v 1 0.5 1.6
v -0.8 0.5 1.4
v -0.7 0.5 1.4
v 1 0.5 1.4
v 1.1 0.5 1.4
v -0.8 0.5 1.3
v -0.7 0.5 1.3
v 1 0.5 1.3
v 1.1 0.5 1.3
v -1.8 0.5 1.2
v -1.5 0.5 1.2
v 1.1 0.5 1.2
v 1.2 0.5 1.2
v 1.4 0.5 1.2
v 1.5 0.5 1.2
v 1.6 0.5 1.2
v 1.7 0.5 1.2
v -1.7 0.5 1.1
v -1.6 0.5 1.1
v 1.1 0.5 1.1
v 1.2 0.5 1.1
v 1.4 0.5 1.1
v 1.5 0.5 1.1
v 1.7 0.5 1.1
v 1.8 0.5 1.1
v -1.7 0.5 1
v -1.6 0.5 1
v 1.6 0.5 1
v 1.8 0.5 1
v -1.8 0.5 0.9
v -1.5 0.5 0.9
v -1.9 0.5 0.8
v -1.8 0.5 0.8
v -1.9 0.5 0.7
v -1.8 0.5 0.7
v -1.4 0.5 0.7
v -1.3 0.5 0.7
v 0.6 0.5 0.7
v 0.7 0.5 0.7
v 1.1 0.5 0.7
v 1.2 0.5 0.7
v 1.7 0.5 0.7
v 1.8 0.5 0.7
v -1.4 0.5 0.6
v -1.3 0.5 0.6
v 0.6 0.5 0.6
v 0.7 0.5 0.6
v 1.1 0.5 0.6
v 1.2 0.5 0.6
v 1.3 0.5 0.6
v 1.4 0.5 0.6
v 1.7 0.5 0.6
v 1.8 0.5 0.6
v -1.3 0.5 0.5
v -1.2 0.5 0.5
v 1.3 0.5 0.5
v 1.4 0.5 0.5
v -1.3 0.5 0.4
v -1.2 0.5 0.4
v -0.7 0.5 0.4
v -0.6 0.5 0.4
v 0.6 0.5 0.4
v 0.7 0.5 0.4
v -0.7 0.5 0.3
v 0.7 0.5 0.3
v 1.5 0.5 0.3
v 1.6 0.5 0.3
v 1.5 0.5 0.2
v 1.6 0.5 0.2
v -1.6 0.5 -2.38419e-07
v -1.5 0.5 -2.38419e-07
v -1.6 0.5 -0.1
v -1.5 0.5 -0.1
v 1.2 0.5 -0.2
v 1.3 0.5 -0.2
v -1.9 0.5 -0.3
v -1.8 0.5 -0.3
v -1.5 0.5 -0.3
v -1.4 0.5 -0.3
v -0.7 0.5 -0.3
v 0.7 0.5 -0.3
v 1.2 0.5 -0.3
v 1.3 0.5 -0.3
v -1.9 0.5 -0.4
v -1.8 0.5 -0.4
v -1.5 0.5 -0.4
v -1.4 0.5 -0.4
v -0.7 0.5 -0.4
v -0.6 0.5 -0.4
v 0.6 0.5 -0.4
v 0.7 0.5 -0.4
v 1.3 0.5 -0.4
v 1.4 0.5 -0.4
v -0.7 0.5 -0.5
v -0.6 0.5 -0.5
v 1.3 0.5 -0.5
v 1.4 0.5 -0.5
v -0.7 0.5 -0.6
v -0.6 0.5 -0.6
v 1.1 0.5 -0.8
v 1.2 0.5 -0.8
v -0.8 0.5 -0.9
v -0.7 0.5 -0.9
v 0.9 0.5 -0.9
v 1 0.5 -0.9
v 1.1 0.5 -0.9
v 1.2 0.5 -0.9
v -0.8 0.5 -1
v -0.7 0.5 -1
v 0.9 0.5 -1
v 1 0.5 -1
v 1.5 0.5 -1
v 1.6 0.5 -1
v 0.7 0.5 -1.1
v 0.8 0.5 -1.1
v 1.5 0.5 -1.1
v 1.6 0.5 -1.1
v 0.7 0.5 -1.2
v 0.8 0.5 -1.2
v 1.8 0.5 -1.4
v 1.9 0.5 -1.4
v 0.6 0.5 -1.5
v 0.8 0.5 -1.5
v 1.8 0.5 -1.5
v 1.9 0.5 -1.5
v 0.6 0.5 -1.6
v 0.7 0.5 -1.6
v 0.7 0.5 -1.7
v 0.8 0.5 -1.7
v 1.2 0.5 -1.7
v 1.3 0.5 -1.7
v 0.9 0.5 -1.8
v 1 0.5 -1.8
v 1.2 0.5 -1.8
v 1.3 0.5 -1.8
v 0.7 0.5 -1.9
v 0.8 0.5 -1.9
v 0.9 0.5 -1.9
v 1 0.5 -1.9
v 0.7 0.5 -2
v 0.8 0.5 -2
v -0.8 0.6 1.8
v -0.7 0.6 1.8
v 1.1 0.6 1.8
v 1.2 0.6 1.8
v -0.9 0.6 1.7
v -0.8 0.6 1.7
v -0.7 0.6 1.7
v -0.6 0.6 1.7
v 1.1 0.6 1.7
v 1.2 0.6 1.7
v -0.9 0.6 1.6
v -0.8 0.6 1.6
v -0.7 0.6 1.6
v -0.6 0.6 1.6
v 0.7 0.6 1.6
v 0.8 0.6 1.6
v -0.8 0.6 1.5
v -0.7 0.6 1.5
v 0.6 0.6 1.5
v 0.7 0.6 1.5
v 0.8 0.6 1.5
v 0.9 0.6 1.5
v 0.6 0.6 1.4
v 0.7 0.6 1.4
v 0.8 0.6 1.4
v 0.9 0.6 1.4
v 0.7 0.6 1.3
v 0.8 0.6 1.3
v 1.7 0.6 1.2
v 1.8 0.6 1.2
v -1.7 0.6 1.1
v -1.6 0.6 1.1
v 1.7 0.6 1.1
v 1.8 0.6 1.1
v -1.7 0.6 1
v -1.6 0.6 1
v -0.6 0.6 0.3
v -0.5 0.6 0.3
v 0.5 0.6 0.3
v 0.6 0.6 0.3
v -0.6 0.6 -0.3
v -0.5 0.6 -0.3
v 0.5 0.6 -0.3
v 0.6 0.6 -0.3
v 0.7 0.6 -0.7
v 0.8 0.6 -0.7
v 0.6 0.6 -0.8
v 0.7 0.6 -0.8
v 0.8 0.6 -0.8
v 0.9 0.6 -0.8
v 0.6 0.6 -0.9
v 0.7 0.6 -0.9
v 0.8 0.6 -0.9
v 0.9 0.6 -0.9
v 0.7 0.6 -1
v 0.8 0.6 -1
v -0.7 0.6 -1.6
v -0.6 0.6 -1.6
v 0.6 0.6 -1.6
v 0.7 0.6 -1.6
v 1.7 0.6 -1.6
v 1.8 0.6 -1.6
v -0.8 0.6 -1.7
v -0.7 0.6 -1.7
v -0.6 0.6 -1.7
v -0.5 0.6 -1.7
v 0.6 0.6 -1.7
v 0.7 0.6 -1.7
v 1.6 0.6 -1.7
v 1.7 0.6 -1.7
v 1.8 0.6 -1.7
v 1.9 0.6 -1.7
v -0.8 0.6 -1.8
v -0.7 0.6 -1.8
v -0.6 0.6 -1.8
v -0.5 0.6 -1.8
v 1.6 0.6 -1.8
v 1.7 0.6 -1.8
v 1.8 0.6 -1.8
v 1.9 0.6 -1.8
v -0.7 0.6 -1.9
v -0.6 0.6 -1.9
v 1.7 0.6 -1.9
v 1.8 0.6 -1.9
v -0.8 0.7 0.4
v -0.6 0.7 0.4
v -0.5 0.7 0.4
v -0.4 0.7 0.4
v -0.3 0.7 0.4
v -0.2 0.7 0.4
v -0.0999999 0.7 0.4
v 0.1 0.7 0.4
v 0.2 0.7 0.4
v 0.3 0.7 0.4
v 0.4 0.7 0.4
v 0.5 0.7 0.4
v 0.6 0.7 0.4
v 0.8 0.7 0.4
v -0.8 0.7 0.3
v -0.6 0.7 0.3
v -0.5 0.7 0.3
v -0.4 0.7 0.3
v -0.3 0.7 0.3
v -0.2 0.7 0.3
v -0.0999999 0.7 0.3
v 0.1 0.7 0.3
v 0.2 0.7 0.3
v 0.3 0.7 0.3
v 0.4 0.7 0.3
v 0.5 0.7 0.3
v 0.6 0.7 0.3
v 0.8 0.7 0.3
v -0.8 0.7 -0.3
v -0.6 0.7 -0.3
v -0.5 0.7 -0.3
v -0.4 0.7 -0.3
v -0.3 0.7 -0.3
v -0.2 0.7 -0.3
v -0.0999999 0.7 -0.3
v 0.1 0.7 -0.3
v 0.2 0.7 -0.3
v 0.3 0.7 -0.3
v 0.4 0.7 -0.3
v 0.5 0.7 -0.3
v 0.6 0.7 -0.3
v 0.8 0.7 -0.3
v -0.8 0.7 -0.4
v -0.6 0.7 -0.4
v -0.5 0.7 -0.4
v -0.4 0.7 -0.4
v -0.3 0.7 -0.4
v -0.2 0.7 -0.4
v -0.0999999 0.7 -0.4
v 0.1 0.7 -0.4
v 0.2 0.7 -0.4
v 0.3 0.7 -0.4
v 0.4 0.7 -0.4
v 0.5 0.7 -0.4
v 0.6 0.7 -0.4
v 0.8 0.7 -0.4
v -0.6 0.9 0.4
v 0.6 0.9 0.4
v -0.6 0.9 0.3
v 0.6 0.9 0.3
v -0.6 0.9 -0.3
v 0.6 0.9 -0.3
v -0.6 0.9 -0.4
v 0.6 0.9 -0.4
v -1.4 1.1 1.7
v -1.2 1.1 1.7
v -1.5 1.1 1.6
v -1.4 1.1 1.6
v -1.2 1.1 1.6
v -1.1 1.1 1.6
v 1.5 1.1 1.6
v 1.7 1.1 1.6
v 1.4 1.1 1.5
v 1.5 1.1 1.5
v 1.7 1.1 1.5
v 1.8 1.1 1.5
v -1.5 1.1 1.4
v -1.4 1.1 1.4
v -1.2 1.1 1.4
v -1.1 1.1 1.4
v -1.4 1.1 1.3
v -1.2 1.1 1.3
v 1.4 1.1 1.3
v 1.5 1.1 1.3
v 1.7 1.1 1.3
v 1.8 1.1 1.3
v 1.5 1.1 1.2
v 1.7 1.1 1.2
v -1 1.1 1.1
v -0.8 1.1 1.1
v 0.8 1.1 1.1
v 1 1.1 1.1
v -1.1 1.1 1
v -1 1.1 1
v -0.8 1.1 1
v -0.7 1.1 1
v 0.7 1.1 1
v 0.8 1.1 1
v 1 1.1 1
v 1.1 1.1 1
v -1.1 1.1 0.8
v -1 1.1 0.8
v -0.8 1.1 0.8
v -0.7 1.1 0.8
v 0.7 1.1 0.8
v 0.8 1.1 0.8
v 1 1.1 0.8
v 1.1 1.1 0.8
v -1 1.1 0.7
v -0.8 1.1 0.7
v 0.8 1.1 0.7
v 1 1.1 0.7
v 1.3 1.1 -1.1
v 1.5 1.1 -1.1
v 1.2 1.1 -1.2
v 1.3 1.1 -1.2
v 1.5 1.1 -1.2
v 1.6 1.1 -1.2
v 1.2 1.1 -1.4
v 1.3 1.1 -1.4
v 1.5 1.1 -1.4
v 1.6 1.1 -1.4
v 1.3 1.1 -1.5
v 1.5 1.1 -1.5
v -1.4 1.2 1.6
v -1.2 1.2 1.6
v 1.5 1.2 1.5
v 1.7 1.2 1.5
v -1.4 1.2 1.4
v -1.2 1.2 1.4
v 1.5 1.2 1.3
v 1.7 1.2 1.3
v -1 1.2 1
v -0.8 1.2 1
v 0.8 1.2 1
v 1 1.2 1
v -1 1.2 0.8
v -0.8 1.2 0.8
v 0.8 1.2 0.8
v 1 1.2 0.8
v -1.8 1.2 -0.6
v -1 1.2 -0.6
v 1.3 1.2 -1.2
v 1.5 1.2 -1.2
v 1.3 1.2 -1.4
v 1.5 1.2 -1.4
v -1.8 1.2 -1.8
v -1 1.2 -1.8
v -1.9 1.3 -0.5
v -0.9 1.3 -0.5
v -1.8 1.3 -0.6
v -1 1.3 -0.6
v -1.8 1.3 -1.8
v -1 1.3 -1.8
v -1.9 1.3 -1.9
v -0.9 1.3 -1.9

# faces
f 3/5/1 2/5/1 1/5/1
f 4/5/1 2/5/1 3/5/1
f 11/5/1 6/5/1 5/5/1
f 12/5/1 6/5/1 11/5/1
f 13/5/1 8/5/1 7/5/1
f 14/5/1 8/5/1 13/5/1
f 15/7/1 10/7/1 9/7/1
f 16/7/1 10/7/1 15/7/1
f 21/5/1 18/5/1 17/5/1
f 22/5/1 18/5/1 21/5/1
f 23/8/1 20/8/1 19/8/1
f 24/8/1 20/8/1 23/8/1
f 27/8/1 26/8/1 25/8/1
f 28/8/1 26/8/1 27/8/1
f 31/5/1 30/5/1 29/5/1
f 32/5/1 30/5/1 31/5/1
f 35/5/1 34/5/1 33/5/1
f 36/5/1 34/5/1 35/5/1
f 39/5/1 38/5/1 37/5/1
f 40/5/1 38/5/1 39/5/1
f 45/5/1 44/5/1 43/5/1
f 46/5/1 44/5/1 45/5/1
f 48/3/1 42/3/1 41/3/1
f 49/3/1 42/3/1 48/3/1
f 51/5/1 48/5/1 47/5/1
f 52/5/1 48/5/1 51/5/1
f 53/5/1 50/5/1 49/5/1
f 54/5/1 50/5/1 53/5/1
f 55/5/1 53/5/1 52/5/1
f 56/5/1 53/5/1 55/5/1
f 61/5/1 58/5/1 57/5/1
f 62/5/1 58/5/1 61/5/1
f 63/5/1 60/5/1 59/5/1
f 64/5/1 60/5/1 63/5/1
f 67/5/1 66/5/1 65/5/1
f 68/5/1 66/5/1 67/5/1
f 72/3/1 70/3/1 69/3/1
f 73/3/1 70/3/1 72/3/1
f 75/5/1 72/5/1 71/5/1
f 76/5/1 72/5/1 75/5/1
f 77/5/1 74/5/1 73/5/1
f 78/5/1 74/5/1 77/5/1
f 79/5/1 77/5/1 76/5/1
f 80/5/1 77/5/1 79/5/1
f 83/7/1 82/7/1 81/7/1
f 84/7/1 82/7/1 83/7/1
f 87/5/1 86/5/1 85/5/1
f 88/5/1 86/5/1 87/5/1
f 89/1/1 88/1/1 87/1/1
f 90/1/1 88/1/1 89/1/1
f 105/5/1 92/5/1 91/5/1
f 106/5/1 92/5/1 105/5/1
f 107/5/1 94/5/1 93/5/1
f 108/5/1 94/5/1 107/5/1
f 109/5/1 96/5/1 95/5/1
f 110/5/1 96/5/1 109/5/1
f 111/5/1 102/5/1 101/5/1
f 112/5/1 102/5/1 111/5/1
f 113/5/1 104/5/1 103/5/1
f 114/5/1 104/5/1 113/5/1
f 115/1/1 106/1/1 105/1/1
f 116/1/1 106/1/1 115/1/1
f 117/1/1 108/1/1 107/1/1
f 118/1/1 108/1/1 117/1/1
f 119/1/1 114/1/1 113/1/1
f 120/1/1 114/1/1 119/1/1
f 121/3/1 98/3/1 97/3/1
f 122/3/1 98/3/1 121/3/1
f 123/3/1 100/3/1 99/3/1
f 124/3/1 100/3/1 123/3/1
f 133/3/1 126/3/1 125/3/1
f 134/3/1 126/3/1 133/3/1
f 135/5/1 128/5/1 127/5/1
f 136/5/1 128/5/1 135/5/1
f 137/5/1 130/5/1 129/5/1
f 138/5/1 130/5/1 137/5/1
f 139/5/1 132/5/1 131/5/1
f 140/5/1 132/5/1 139/5/1
f 141/1/1 138/1/1 137/1/1
f 142/1/1 138/1/1 141/1/1
f 143/1/1 140/1/1 139/1/1
f 144/1/1 140/1/1 143/1/1
f 147/3/1 146/3/1 145/3/1
f 148/3/1 146/3/1 147/3/1
f 149/3/1 146/3/1 148/3/1
f 150/3/1 146/3/1 149/3/1
f 155/3/1 152/3/1 151/3/1
f 156/3/1 152/3/1 155/3/1
f 157/3/1 154/3/1 153/3/1
f 158/3/1 154/3/1 157/3/1
f 161/3/1 160/3/1 159/3/1
f 162/3/1 160/3/1 161/3/1
f 167/3/1 164/3/1 163/3/1
f 168/3/1 164/3/1 167/3/1
f 169/3/1 166/3/1 165/3/1
f 170/3/1 166/3/1 169/3/1
f 175/3/1 172/3/1 171/3/1
f 176/3/1 172/3/1 175/3/1
f 177/3/1 174/3/1 173/3/1
f 178/3/1 174/3/1 177/3/1
f 183/3/1 180/3/1 179/3/1
f 184/3/1 180/3/1 183/3/1
f 185/3/1 182/3/1 181/3/1
f 186/3/1 182/3/1 185/3/1
f 191/3/1 188/3/1 187/3/1
f 192/3/1 188/3/1 191/3/1
f 193/3/1 190/3/1 189/3/1
f 194/3/1 190/3/1 193/3/1
f 197/3/1 196/3/1 195/3/1
f 198/3/1 196/3/1 197/3/1
f 201/5/1 200/5/1 199/5/1
f 202/5/1 200/5/1 201/5/1
f 203/5/1 200/5/1 202/5/1
f 204/5/1 200/5/1 203/5/1
f 205/3/1 203/3/1 202/3/1
f 206/3/1 203/3/1 205/3/1
f 211/3/1 208/3/1 207/3/1
f 212/3/1 208/3/1 211/3/1
f 213/3/1 210/3/1 209/3/1
f 214/3/1 210/3/1 213/3/1
f 225/8/1 216/8/1 215/8/1
f 226/8/1 216/8/1 225/8/1
f 227/5/1 218/5/1 217/5/1
f 228/5/1 218/5/1 227/5/1
f 229/8/1 220/8/1 219/8/1
f 230/8/1 220/8/1 229/8/1
f 231/5/1 222/5/1 221/5/1
f 232/5/1 222/5/1 231/5/1
f 233/8/1 224/8/1 223/8/1
f 234/8/1 224/8/1 233/8/1
f 235/1/1 228/1/1 227/1/1
f 236/1/1 228/1/1 235/1/1
f 237/1/1 232/1/1 231/1/1
f 238/1/1 232/1/1 237/1/1
f 239/8/1 224/8/1 234/8/1
f 240/8/1 224/8/1 239/8/1
f 253/5/1 242/5/1 241/5/1
f 254/5/1 242/5/1 253/5/1
f 255/5/1 244/5/1 243/5/1
f 256/5/1 244/5/1 255/5/1
f 261/5/1 246/5/1 245/5/1
f 262/5/1 246/5/1 261/5/1
f 263/5/1 248/5/1 247/5/1
f 264/5/1 248/5/1 263/5/1
f 265/5/1 250/5/1 249/5/1
f 266/5/1 250/5/1 265/5/1
f 267/5/1 252/5/1 251/5/1
f 268/5/1 252/5/1 267/5/1
f 269/1/1 254/1/1 253/1/1
f 270/1/1 254/1/1 269/1/1
f 271/1/1 256/1/1 255/1/1
f 272/1/1 256/1/1 271/1/1
f 275/3/1 258/3/1 257/3/1
f 276/3/1 258/3/1 275/3/1
f 277/3/1 260/3/1 259/3/1
f 278/3/1 260/3/1 277/3/1
f 279/1/1 262/1/1 261/1/1
f 280/1/1 262/1/1 279/1/1
f 281/1/1 264/1/1 263/1/1
f 282/1/1 264/1/1 281/1/1
f 283/5/1 274/5/1 273/5/1
f 284/5/1 274/5/1 283/5/1
f 289/5/1 286/5/1 285/5/1
f 290/5/1 286/5/1 289/5/1
f 292/3/1 288/3/1 287/3/1
f 293/3/1 288/3/1 292/3/1
f 295/5/1 292/5/1 291/5/1
f 296/5/1 292/5/1 295/5/1
f 297/5/1 294/5/1 293/5/1
f 298/5/1 294/5/1 297/5/1
f 299/5/1 297/5/1 296/5/1
f 300/5/1 297/5/1 299/5/1
f 307/5/1 302/5/1 301/5/1
f 308/5/1 302/5/1 307/5/1
f 309/5/1 304/5/1 303/5/1
f 310/5/1 304/5/1 309/5/1
f 311/8/1 306/8/1 305/8/1
f 312/8/1 306/8/1 311/8/1
f 315/8/1 314/8/1 313/8/1
f 316/8/1 314/8/1 315/8/1
f 325/8/1 318/8/1 317/8/1
f 326/8/1 318/8/1 325/8/1
f 327/5/1 320/5/1 319/5/1
f 328/5/1 320/5/1 327/5/1
f 329/5/1 322/5/1 321/5/1
f 330/5/1 322/5/1 329/5/1
f 331/8/1 324/8/1 323/8/1
f 332/8/1 324/8/1 331/8/1
f 333/8/1 318/8/1 326/8/1
f 334/8/1 318/8/1 333/8/1
f 339/5/1 336/5/1 335/5/1
f 340/5/1 336/5/1 339/5/1
f 341/5/1 338/5/1 337/5/1
f 342/5/1 338/5/1 341/5/1
f 345/5/1 344/5/1 343/5/1
f 346/5/1 344/5/1 345/5/1
f 353/5/1 348/5/1 347/5/1
f 354/5/1 348/5/1 353/5/1
f 355/5/1 350/5/1 349/5/1
f 356/5/1 350/5/1 355/5/1
f 358/3/1 352/3/1 351/3/1
f 359/3/1 352/3/1 358/3/1
f 361/5/1 358/5/1 357/5/1
f 362/5/1 358/5/1 361/5/1
f 363/5/1 360/5/1 359/5/1
f 364/5/1 360/5/1 363/5/1
f 365/5/1 363/5/1 362/5/1
f 366/5/1 363/5/1 365/5/1
f 369/5/1 368/5/1 367/5/1
f 370/5/1 368/5/1 369/5/1
f 373/5/1 372/5/1 371/5/1
f 374/5/1 372/5/1 373/5/1
f 381/8/1 378/8/1 377/8/1
f 382/8/1 378/8/1 381/8/1
f 383/5/1 380/5/1 379/5/1
f 384/5/1 380/5/1 383/5/1
f 386/3/1 376/3/1 375/3/1
f 387/3/1 376/3/1 386/3/1
f 389/5/1 386/5/1 385/5/1
f 390/5/1 386/5/1 389/5/1
f 391/5/1 388/5/1 387/5/1
f 392/5/1 388/5/1 391/5/1
f 393/5/1 391/5/1 390/5/1
f 394/5/1 391/5/1 393/5/1
f 399/8/1 396/8/1 395/8/1
f 400/8/1 396/8/1 399/8/1
f 401/5/1 398/5/1 397/5/1
f 402/5/1 398/5/1 401/5/1
f 403/1/1 402/1/1 401/1/1
f 404/1/1 402/1/1 403/1/1
f 413/5/1 406/5/1 405/5/1
f 414/5/1 406/5/1 413/5/1
f 415/5/1 408/5/1 407/5/1
f 416/5/1 408/5/1 415/5/1
f 417/5/1 410/5/1 409/5/1
f 418/5/1 410/5/1 417/5/1
f 419/8/1 412/8/1 411/8/1
f 420/8/1 412/8/1 419/8/1
f 421/1/1 416/1/1 415/1/1
f 422/1/1 416/1/1 421/1/1
f 423/1/1 418/1/1 417/1/1
f 424/1/1 418/1/1 423/1/1
f 429/5/1 426/5/1 425/5/1
f 430/5/1 426/5/1 429/5/1
f 431/5/1 428/5/1 427/5/1
f 432/5/1 428/5/1 431/5/1
f 433/5/2 434/5/2 437/5/2
f 437/5/2 434/5/2 438/5/2
f 435/5/2 436/5/2 439/5/2
f 439/5/2 436/5/2 440/5/2
f 441/7/2 442/7/2 443/7/2
f 443/7/2 442/7/2 444/7/2
f 445/5/2 446/5/2 447/5/2
f 447/5/2 446/5/2 448/5/2
f 449/8/2 450/8/2 451/8/2
f 451/8/2 450/8/2 452/8/2
f 453/8/2 454/8/2 457/8/2
f 457/8/2 454/8/2 458/8/2
f 455/5/2 456/5/2 459/5/2
f 459/5/2 456/5/2 460/5/2
f 461/5/2 462/5/2 463/5/2
f 463/5/2 462/5/2 464/5/2
f 465/5/2 466/5/2 467/5/2
f 467/5/2 466/5/2 468/5/2
f 469/5/2 470/5/2 475/5/2
f 475/5/2 470/5/2 476/5/2
f 473/5/2 474/5/2 477/5/2
f 477/5/2 474/5/2 478/5/2
f 471/3/2 472/3/2 480/3/2
f 480/3/2 472/3/2 481/3/2
f 479/5/2 480/5/2 483/5/2
f 483/5/2 480/5/2 484/5/2
f 481/5/2 482/5/2 485/5/2
f 485/5/2 482/5/2 486/5/2
f 484/5/2 485/5/2 487/5/2
f 487/5/2 485/5/2 488/5/2
f 489/5/2 490/5/2 491/5/2
f 491/5/2 490/5/2 492/5/2
f 493/2/2 494/2/2 495/2/2
f 495/2/2 494/2/2 496/2/2
f 498/2/2 499/2/2 503/2/2
f 500/2/2 501/2/2 504/2/2
f 497/7/2 498/7/2 505/7/2
f 503/2/2 504/2/2 505/2/2
f 498/2/2 503/2/2 505/2/2
f 504/2/2 501/2/2 506/2/2
f 505/2/2 504/2/2 506/2/2
f 501/7/2 502/7/2 506/7/2
f 497/7/2 505/7/2 507/7/2
f 505/7/2 506/7/2 507/7/2
f 506/7/2 502/7/2 508/7/2
f 507/7/2 506/7/2 508/7/2
f 509/3/2 510/3/2 512/3/2
f 512/3/2 510/3/2 513/3/2
f 511/5/2 512/5/2 515/5/2
f 515/5/2 512/5/2 516/5/2
f 513/5/2 514/5/2 517/5/2
f 517/5/2 514/5/2 518/5/2
f 516/5/2 517/5/2 519/5/2
f 519/5/2 517/5/2 520/5/2
f 521/5/2 522/5/2 529/5/2
f 529/5/2 522/5/2 530/5/2
f 523/5/2 524/5/2 531/5/2
f 531/5/2 524/5/2 532/5/2
f 525/5/2 526/5/2 533/5/2
f 533/5/2 526/5/2 534/5/2
f 527/5/2 528/5/2 539/5/2
f 539/5/2 528/5/2 540/5/2
f 529/1/2 530/1/2 541/1/2
f 541/1/2 530/1/2 542/1/2
f 531/1/2 532/1/2 543/1/2
f 543/1/2 532/1/2 544/1/2
f 535/3/2 536/3/2 547/3/2
f 547/3/2 536/3/2 548/3/2
f 537/3/2 538/3/2 549/3/2
f 549/3/2 538/3/2 550/3/2
f 545/5/2 546/5/2 551/5/2
f 551/5/2 546/5/2 552/5/2
f 553/5/2 554/5/2 561/5/2
f 561/5/2 554/5/2 562/5/2
f 555/5/2 556/5/2 563/5/2
f 563/5/2 556/5/2 564/5/2
f 557/5/2 558/5/2 565/5/2
f 565/5/2 558/5/2 566/5/2
f 559/5/2 560/5/2 567/5/2
f 567/5/2 560/5/2 568/5/2
f 561/1/2 562/1/2 569/1/2
f 569/1/2 562/1/2 570/1/2
f 565/1/2 566/1/2 571/1/2
f 571/1/2 566/1/2 572/1/2
f 567/1/2 568/1/2 573/1/2
f 573/1/2 568/1/2 574/1/2
f 575/5/2 576/5/2 577/5/2
f 577/5/2 576/5/2 578/5/2
f 578/5/2 576/5/2 579/5/2
f 579/5/2 576/5/2 580/5/2
f 580/5/2 576/5/2 581/5/2
f 581/5/2 576/5/2 582/5/2
f 578/3/2 579/3/2 583/3/2
f 583/3/2 579/3/2 584/3/2
f 580/5/2 581/5/2 585/5/2
f 585/5/2 581/5/2 586/5/2
f 585/1/2 586/1/2 587/1/2
f 587/1/2 586/1/2 588/1/2
f 589/3/2 590/3/2 593/3/2
f 593/3/2 590/3/2 594/3/2
f 591/3/2 592/3/2 595/3/2
f 595/3/2 592/3/2 596/3/2
f 597/3/2 598/3/2 599/3/2
f 599/3/2 598/3/2 600/3/2
f 601/3/2 602/3/2 605/3/2
f 605/3/2 602/3/2 606/3/2
f 603/3/2 604/3/2 607/3/2
f 607/3/2 604/3/2 608/3/2
f 609/3/2 610/3/2 613/3/2
f 613/3/2 610/3/2 614/3/2
f 611/3/2 612/3/2 615/3/2
f 615/3/2 612/3/2 616/3/2
f 617/3/2 618/3/2 621/3/2
f 621/3/2 618/3/2 622/3/2
f 619/3/2 620/3/2 623/3/2
f 623/3/2 620/3/2 624/3/2
f 625/3/2 626/3/2 629/3/2
f 629/3/2 626/3/2 630/3/2
f 627/3/2 628/3/2 631/3/2
f 631/3/2 628/3/2 632/3/2
f 633/3/2 634/3/2 635/3/2
f 635/3/2 634/3/2 636/3/2
f 637/3/2 638/3/2 639/3/2
f 639/3/2 638/3/2 640/3/2
f 640/3/2 638/3/2 641/3/2
f 641/3/2 638/3/2 642/3/2
f 643/3/2 644/3/2 647/3/2
f 647/3/2 644/3/2 648/3/2
f 645/3/2 646/3/2 649/3/2
f 649/3/2 646/3/2 650/3/2
f 651/8/2 652/8/2 657/8/2
f 657/8/2 652/8/2 658/8/2
f 653/8/2 654/8/2 659/8/2
f 659/8/2 654/8/2 660/8/2
f 655/3/2 656/3/2 661/3/2
f 661/3/2 656/3/2 662/3/2
f 663/8/2 664/8/2 665/8/2
f 665/8/2 664/8/2 666/8/2
f 667/5/2 668/5/2 685/5/2
f 685/5/2 668/5/2 686/5/2
f 669/5/2 670/5/2 687/5/2
f 687/5/2 670/5/2 688/5/2
f 675/5/2 676/5/2 689/5/2
f 689/5/2 676/5/2 690/5/2
f 677/5/2 678/5/2 691/5/2
f 691/5/2 678/5/2 692/5/2
f 679/5/2 680/5/2 693/5/2
f 693/5/2 680/5/2 694/5/2
f 681/8/2 682/8/2 695/8/2
f 695/8/2 682/8/2 696/8/2
f 683/5/2 684/5/2 697/5/2
f 697/5/2 684/5/2 698/5/2
f 685/1/2 686/1/2 699/1/2
f 699/1/2 686/1/2 700/1/2
f 687/1/2 688/1/2 701/1/2
f 701/1/2 688/1/2 702/1/2
f 689/1/2 690/1/2 703/1/2
f 703/1/2 690/1/2 704/1/2
f 691/1/2 692/1/2 705/1/2
f 705/1/2 692/1/2 706/1/2
f 671/3/2 672/3/2 707/3/2
f 707/3/2 672/3/2 708/3/2
f 673/3/2 674/3/2 709/3/2
f 709/3/2 674/3/2 710/3/2
f 711/5/2 712/5/2 717/5/2
f 717/5/2 712/5/2 718/5/2
f 713/5/2 714/5/2 719/5/2
f 719/5/2 714/5/2 720/5/2
f 715/5/2 716/5/2 721/5/2
f 721/5/2 716/5/2 722/5/2
f 719/1/2 720/1/2 723/1/2
f 723/1/2 720/1/2 724/1/2
f 721/1/2 722/1/2 725/1/2
f 725/1/2 722/1/2 726/1/2
f 727/5/2 728/5/2 735/5/2
f 735/5/2 728/5/2 736/5/2
f 731/5/2 732/5/2 737/5/2
f 737/5/2 732/5/2 738/5/2
f 733/8/2 734/8/2 739/8/2
f 739/8/2 734/8/2 740/8/2
f 729/3/2 730/3/2 742/3/2
f 742/3/2 730/3/2 743/3/2
f 741/5/2 742/5/2 745/5/2
f 745/5/2 742/5/2 746/5/2
f 743/5/2 744/5/2 747/5/2
f 747/5/2 744/5/2 748/5/2
f 746/5/2 747/5/2 749/5/2
f 749/5/2 747/5/2 750/5/2
f 751/8/2 752/8/2 753/8/2
f 753/8/2 752/8/2 754/8/2
f 755/5/2 756/5/2 757/5/2
f 757/5/2 756/5/2 758/5/2
f 759/5/2 760/5/2 767/5/2
f 767/5/2 760/5/2 768/5/2
f 761/5/2 762/5/2 769/5/2
f 769/5/2 762/5/2 770/5/2
f 763/8/2 764/8/2 771/8/2
f 771/8/2 764/8/2 772/8/2
f 765/8/2 766/8/2 773/8/2
f 773/8/2 766/8/2 774/8/2
f 775/8/2 776/8/2 781/8/2
f 781/8/2 776/8/2 782/8/2
f 777/5/2 778/5/2 783/5/2
f 783/5/2 778/5/2 784/5/2
f 779/5/2 780/5/2 785/5/2
f 785/5/2 780/5/2 786/5/2
f 787/5/2 788/5/2 791/5/2
f 791/5/2 788/5/2 792/5/2
f 789/5/2 790/5/2 793/5/2
f 793/5/2 790/5/2 794/5/2
f 795/5/2 796/5/2 799/5/2
f 799/5/2 796/5/2 800/5/2
f 797/3/2 798/3/2 802/3/2
f 802/3/2 798/3/2 803/3/2
f 801/5/2 802/5/2 805/5/2
f 805/5/2 802/5/2 806/5/2
f 803/5/2 804/5/2 807/5/2
f 807/5/2 804/5/2 808/5/2
f 806/5/2 807/5/2 809/5/2
f 809/5/2 807/5/2 810/5/2
f 811/8/2 812/8/2 815/8/2
f 815/8/2 812/8/2 816/8/2
f 813/5/2 814/5/2 817/5/2
f 817/5/2 814/5/2 818/5/2
f 819/5/2 820/5/2 821/5/2
f 821/5/2 820/5/2 822/5/2
f 823/3/2 824/3/2 826/3/2
f 826/3/2 824/3/2 827/3/2
f 825/5/2 826/5/2 829/5/2
f 829/5/2 826/5/2 830/5/2
f 827/5/2 828/5/2 831/5/2
f 831/5/2 828/5/2 832/5/2
f 830/5/2 831/5/2 833/5/2
f 833/5/2 831/5/2 834/5/2
f 835/8/2 836/8/2 843/8/2
f 843/8/2 836/8/2 844/8/2
f 837/5/2 838/5/2 845/5/2
f 845/5/2 838/5/2 846/5/2
f 839/5/2 840/5/2 847/5/2
f 847/5/2 840/5/2 848/5/2
f 841/5/2 842/5/2 849/5/2
f 849/5/2 842/5/2 850/5/2
f 835/8/2 843/8/2 853/8/2
f 853/8/2 843/8/2 854/8/2
f 847/1/2 848/1/2 855/1/2
f 855/1/2 848/1/2 856/1/2
f 849/1/2 850/1/2 857/1/2
f 857/1/2 850/1/2 858/1/2
f 851/5/2 852/5/2 859/5/2
f 859/5/2 852/5/2 860/5/2
f 861/5/2 862/5/2 867/5/2
f 867/5/2 862/5/2 868/5/2
f 863/5/2 864/5/2 869/5/2
f 869/5/2 864/5/2 870/5/2
f 865/5/2 866/5/2 871/5/2
f 871/5/2 866/5/2 872/5/2
f 871/1/2 872/1/2 873/1/2
f 873/1/2 872/1/2 874/1/2
f 875/5/2 876/5/2 877/5/2
f 877/5/2 876/5/2 878/5/2
f 881/5/3 880/5/3 879/5/3
f 882/5/3 880/5/3 881/5/3
f 883/5/3 880/5/3 882/5/3
f 884/5/3 881/5/3 879/5/3
f 885/6/3 882/6/3 881/6/3
f 885/5/3 881/5/3 884/5/3
f 886/5/3 884/5/3 879/5/3
f 887/6/3 885/6/3 884/6/3
f 887/5/3 884/5/3 886/5/3
f 888/6/3 887/6/3 886/6/3
f 889/6/3 885/6/3 887/6/3
f 889/6/3 887/6/3 888/6/3
f 890/5/3 889/5/3 888/5/3
f 890/6/3 885/6/3 889/6/3
f 891/6/3 882/6/3 885/6/3
f 891/6/3 885/6/3 890/6/3
f 892/5/3 891/5/3 890/5/3
f 892/6/3 882/6/3 891/6/3
f 893/6/3 882/6/3 892/6/3
f 895/5/3 890/5/3 888/5/3
f 895/5/3 894/5/3 893/5/3
f 895/5/3 893/5/3 892/5/3
f 895/5/3 892/5/3 890/5/3
f 896/5/3 894/5/3 895/5/3
f 899/5/3 898/5/3 897/5/3
f 900/5/3 898/5/3 899/5/3
f 903/8/3 902/8/3 901/8/3
f 904/8/3 902/8/3 903/8/3
f 907/5/3 906/5/3 905/5/3
f 908/5/3 906/5/3 907/5/3
f 911/8/3 910/8/3 909/8/3
f 912/8/3 910/8/3 911/8/3
f 916/5/3 914/5/3 913/5/3
f 917/1/3 915/1/3 914/1/3
f 917/5/3 914/5/3 916/5/3
f 918/1/3 915/1/3 917/1/3
f 921/8/3 920/8/3 919/8/3
f 922/8/3 920/8/3 921/8/3
f 925/5/3 924/5/3 923/5/3
f 926/5/3 924/5/3 925/5/3
f 929/5/3 928/5/3 927/5/3
f 930/5/3 928/5/3 929/5/3
f 933/5/3 932/5/3 931/5/3
f 934/5/3 932/5/3 933/5/3
f 938/5/3 936/5/3 935/5/3
f 939/1/3 937/1/3 936/1/3
f 939/5/3 936/5/3 938/5/3
f 940/1/3 937/1/3 939/1/3
f 944/5/3 942/5/3 941/5/3
f 945/1/3 943/1/3 942/1/3
f 945/5/3 942/5/3 944/5/3
f 946/1/3 943/1/3 945/1/3
f 949/5/3 948/5/3 947/5/3
f 950/5/3 948/5/3 949/5/3
f 954/5/3 952/5/3 951/5/3
f 955/5/3 952/5/3 954/5/3
f 957/3/3 954/3/3 953/3/3
f 958/3/3 954/3/3 957/3/3
f 959/5/3 956/5/3 955/5/3
f 960/5/3 956/5/3 959/5/3
f 961/5/3 959/5/3 958/5/3
f 962/5/3 959/5/3 961/5/3
f 966/5/3 964/5/3 963/5/3
f 967/1/3 965/1/3 964/1/3
f 967/5/3 964/5/3 966/5/3
f 968/1/3 965/1/3 967/1/3
f 971/5/3 970/5/3 969/5/3
f 972/5/3 970/5/3 971/5/3
f 976/5/3 974/5/3 973/5/3
f 977/1/3 975/1/3 974/1/3
f 977/5/3 974/5/3 976/5/3
f 978/1/3 975/1/3 977/1/3
f 982/5/3 980/5/3 979/5/3
f 983/1/3 981/1/3 980/1/3
f 983/5/3 980/5/3 982/5/3
f 984/1/3 981/1/3 983/1/3
f 988/5/3 986/5/3 985/5/3
f 989/5/3 986/5/3 988/5/3
f 991/3/3 988/3/3 987/3/3
f 992/3/3 988/3/3 991/3/3
f 993/5/3 990/5/3 989/5/3
f 994/5/3 990/5/3 993/5/3
f 995/5/3 993/5/3 992/5/3
f 996/5/3 993/5/3 995/5/3
f 999/5/3 998/5/3 997/5/3
f 1000/5/3 998/5/3 999/5/3
f 1003/8/3 1002/8/3 1001/8/3
f 1004/8/3 1002/8/3 1003/8/3
f 1007/8/3 1006/8/3 1005/8/3
f 1008/8/3 1006/8/3 1007/8/3
f 1011/5/3 1010/5/3 1009/5/3
f 1012/5/3 1010/5/3 1011/5/3
f 1015/5/3 1014/5/3 1013/5/3
f 1016/5/3 1014/5/3 1015/5/3
f 1019/8/3 1018/8/3 1017/8/3
f 1021/8/3 1019/8/3 1017/8/3
f 1021/8/3 1020/8/3 1019/8/3
f 1022/8/3 1020/8/3 1021/8/3
f 1025/8/3 1024/8/3 1023/8/3
f 1026/8/3 1024/8/3 1025/8/3
f 1029/5/3 1028/5/3 1027/5/3
f 1030/5/3 1028/5/3 1029/5/3
f 1033/5/3 1032/5/3 1031/5/3
f 1034/5/3 1032/5/3 1033/5/3
f 1038/5/3 1036/5/3 1035/5/3
f 1039/5/3 1036/5/3 1038/5/3
f 1041/3/3 1038/3/3 1037/3/3
f 1042/3/3 1038/3/3 1041/3/3
f 1043/5/3 1040/5/3 1039/5/3
f 1044/5/3 1040/5/3 1043/5/3
f 1045/5/3 1043/5/3 1042/5/3
f 1046/5/3 1043/5/3 1045/5/3
f 1050/5/3 1048/5/3 1047/5/3
f 1051/5/3 1048/5/3 1050/5/3
f 1053/3/3 1050/3/3 1049/3/3
f 1054/3/3 1050/3/3 1053/3/3
f 1055/5/3 1052/5/3 1051/5/3
f 1056/5/3 1052/5/3 1055/5/3
f 1057/5/3 1055/5/3 1054/5/3
f 1058/5/3 1055/5/3 1057/5/3
f 1061/5/3 1060/5/3 1059/5/3
f 1062/5/3 1060/5/3 1061/5/3
f 1065/5/3 1064/5/3 1063/5/3
f 1066/5/3 1064/5/3 1065/5/3
f 1069/8/3 1068/8/3 1067/8/3
f 1070/8/3 1068/8/3 1069/8/3
f 1073/5/3 1072/5/3 1071/5/3
f 1074/5/3 1072/5/3 1073/5/3
f 1077/5/3 1076/5/3 1075/5/3
f 1078/5/3 1076/5/3 1077/5/3
f 1081/5/3 1080/5/3 1079/5/3
f 1082/5/3 1080/5/3 1081/5/3
f 1085/5/3 1084/5/3 1083/5/3
f 1086/5/3 1084/5/3 1085/5/3
f 1089/3/3 1088/3/3 1087/3/3
f 1090/3/3 1088/3/3 1089/3/3
f 1091/3/3 1089/3/3 1087/3/3
f 1092/3/3 1088/3/3 1090/3/3
f 1093/3/3 1088/3/3 1092/3/3
f 1095/3/3 1091/3/3 1087/3/3
f 1095/3/3 1094/3/3 1093/3/3
f 1095/3/3 1093/3/3 1092/3/3
f 1095/3/3 1092/3/3 1091/3/3
f 1096/3/3 1094/3/3 1095/3/3
f 1097/3/3 1094/3/3 1096/3/3
f 1098/3/3 1094/3/3 1097/3/3
f 1099/3/3 1097/3/3 1096/3/3
f 1100/3/3 1097/3/3 1099/3/3
f 1101/3/3 1097/3/3 1100/3/3
f 1102/3/3 1094/3/3 1098/3/3
f 1103/3/3 1101/3/3 1100/3/3
f 1103/3/3 1102/3/3 1101/3/3
f 1104/3/3 1094/3/3 1102/3/3
f 1104/3/3 1102/3/3 1103/3/3
f 1105/3/3 1103/3/3 1100/3/3
f 1106/3/3 1094/3/3 1104/3/3
f 1107/3/3 1105/3/3 1100/3/3
f 1107/3/3 1106/3/3 1105/3/3
f 1108/3/3 1094/3/3 1106/3/3
f 1108/3/3 1106/3/3 1107/3/3
f 1109/3/3 1107/3/3 1100/3/3
f 1110/3/3 1094/3/3 1108/3/3
f 1111/3/3 1109/3/3 1100/3/3
f 1111/3/3 1110/3/3 1109/3/3
f 1112/3/3 1094/3/3 1110/3/3
f 1112/3/3 1110/3/3 1111/3/3
f 1113/3/3 1111/3/3 1100/3/3
f 1114/3/3 1094/3/3 1112/3/3
f 1116/3/3 1113/3/3 1100/3/3
f 1116/3/3 1114/3/3 1113/3/3
f 1117/3/3 1114/3/3 1116/3/3
f 1118/3/3 1094/3/3 1114/3/3
f 1118/3/3 1114/3/3 1117/3/3
f 1120/3/3 1117/3/3 1116/3/3
f 1120/3/3 1116/3/3 1115/3/3
f 1121/3/3 1117/3/3 1120/3/3
f 1122/3/3 1094/3/3 1118/3/3
f 1123/3/3 1121/3/3 1120/3/3
f 1123/3/3 1122/3/3 1121/3/3
f 1123/3/3 1120/3/3 1119/3/3
f 1124/3/3 1122/3/3 1123/3/3
f 1125/3/3 1122/3/3 1124/3/3
f 1126/3/3 1094/3/3 1122/3/3
f 1126/3/3 1122/3/3 1125/3/3
f 1127/3/3 1123/3/3 1119/3/3
f 1128/3/3 1125/3/3 1124/3/3
f 1129/3/3 1127/3/3 1119/3/3
f 1129/3/3 1128/3/3 1127/3/3
f 1130/3/3 1125/3/3 1128/3/3
f 1130/3/3 1128/3/3 1129/3/3
f 1133/8/3 1132/8/3 1131/8/3
f 1134/8/3 1132/8/3 1133/8/3
f 1137/5/3 1136/5/3 1135/5/3
f 1138/5/3 1136/5/3 1137/5/3
f 1141/5/3 1140/5/3 1139/5/3
f 1142/5/3 1140/5/3 1141/5/3
f 1145/5/3 1144/5/3 1143/5/3
f 1146/5/3 1144/5/3 1145/5/3
f 1149/5/3 1148/5/3 1147/5/3
f 1150/5/3 1148/5/3 1149/5/3
f 1153/3/3 1152/3/3 1151/3/3
f 1154/3/3 1152/3/3 1153/3/3
f 1155/3/3 1152/3/3 1154/3/3
f 1156/3/3 1152/3/3 1155/3/3
f 1157/3/3 1152/3/3 1156/3/3
f 1159/3/3 1157/3/3 1156/3/3
f 1159/3/3 1158/3/3 1157/3/3
f 1160/3/3 1158/3/3 1159/3/3
f 1161/3/3 1158/3/3 1160/3/3
f 1163/3/3 1158/3/3 1161/3/3
f 1164/3/3 1163/3/3 1162/3/3
f 1165/3/3 1158/3/3 1163/3/3
f 1165/3/3 1163/3/3 1164/3/3
f 1167/3/3 1158/3/3 1165/3/3
f 1168/3/3 1167/3/3 1166/3/3
f 1169/3/3 1158/3/3 1167/3/3
f 1169/3/3 1167/3/3 1168/3/3
f 1171/3/3 1158/3/3 1169/3/3
f 1172/3/3 1171/3/3 1170/3/3
f 1173/3/3 1158/3/3 1171/3/3
f 1173/3/3 1171/3/3 1172/3/3
f 1175/3/3 1158/3/3 1173/3/3
f 1176/3/3 1175/3/3 1174/3/3
f 1177/3/3 1158/3/3 1175/3/3
f 1177/3/3 1175/3/3 1176/3/3
f 1180/3/3 1158/3/3 1177/3/3
f 1181/3/3 1179/3/3 1178/3/3
f 1181/3/3 1180/3/3 1179/3/3
f 1182/3/3 1180/3/3 1181/3/3
f 1183/3/3 1158/3/3 1180/3/3
f 1183/3/3 1180/3/3 1182/3/3
f 1186/3/3 1182/3/3 1181/3/3
f 1187/3/3 1185/3/3 1184/3/3
f 1187/3/3 1186/3/3 1185/3/3
f 1188/3/3 1182/3/3 1186/3/3
f 1188/3/3 1186/3/3 1187/3/3
f 1191/5/3 1190/5/3 1189/5/3
f 1192/5/3 1190/5/3 1191/5/3
f 1195/7/3 1194/7/3 1193/7/3
f 1196/7/3 1194/7/3 1195/7/3
f 1199/5/3 1198/5/3 1197/5/3
f 1200/5/3 1198/5/3 1199/5/3
f 1204/5/3 1202/5/3 1201/5/3
f 1205/1/3 1203/1/3 1202/1/3
f 1205/5/3 1202/5/3 1204/5/3
f 1206/1/3 1203/1/3 1205/1/3
f 1210/5/3 1208/5/3 1207/5/3
f 1211/1/3 1209/1/3 1208/1/3
f 1211/5/3 1208/5/3 1210/5/3
f 1212/1/3 1209/1/3 1211/1/3
f 1216/5/3 1214/5/3 1213/5/3
f 1217/1/3 1215/1/3 1214/1/3
f 1217/5/3 1214/5/3 1216/5/3
f 1218/1/3 1215/1/3 1217/1/3
f 1221/8/3 1220/8/3 1219/8/3
f 1222/8/3 1220/8/3 1221/8/3
f 1225/5/3 1224/5/3 1223/5/3
f 1226/5/3 1224/5/3 1225/5/3
f 1229/5/3 1228/5/3 1227/5/3
f 1230/5/3 1228/5/3 1229/5/3
f 1233/5/3 1232/5/3 1231/5/3
f 1234/5/3 1232/5/3 1233/5/3
f 1237/5/3 1236/5/3 1235/5/3
f 1238/5/3 1236/5/3 1237/5/3
f 1241/5/3 1240/5/3 1239/5/3
f 1242/5/3 1240/5/3 1241/5/3
f 1246/5/3 1244/5/3 1243/5/3
f 1247/5/3 1244/5/3 1246/5/3
f 1249/3/3 1246/3/3 1245/3/3
f 1250/3/3 1246/3/3 1249/3/3
f 1251/5/3 1248/5/3 1247/5/3
f 1252/5/3 1248/5/3 1251/5/3
f 1253/5/3 1251/5/3 1250/5/3
f 1254/5/3 1251/5/3 1253/5/3
f 1257/2/3 1256/2/3 1255/2/3
f 1258/2/3 1256/2/3 1257/2/3
f 1261/5/3 1260/5/3 1259/5/3
f 1262/5/3 1260/5/3 1261/5/3
f 1265/8/3 1264/8/3 1263/8/3
f 1266/8/3 1264/8/3 1265/8/3
f 1270/5/3 1268/5/3 1267/5/3
f 1271/1/3 1269/1/3 1268/1/3
f 1271/5/3 1268/5/3 1270/5/3
f 1272/1/3 1269/1/3 1271/1/3
f 1275/8/3 1274/8/3 1273/8/3
f 1276/8/3 1274/8/3 1275/8/3
f 1280/5/3 1278/5/3 1277/5/3
f 1281/1/3 1279/1/3 1278/1/3
f 1281/5/3 1278/5/3 1280/5/3
f 1282/1/3 1279/1/3 1281/1/3
f 1286/5/3 1284/5/3 1283/5/3
f 1287/1/3 1285/1/3 1284/1/3
f 1287/5/3 1284/5/3 1286/5/3
f 1288/1/3 1285/1/3 1287/1/3
f 1292/5/3 1290/5/3 1289/5/3
f 1293/1/3 1291/1/3 1290/1/3
f 1293/5/3 1290/5/3 1292/5/3
f 1294/1/3 1291/1/3 1293/1/3
f 1297/5/3 1296/5/3 1295/5/3
f 1298/5/3 1296/5/3 1297/5/3
f 1302/5/3 1300/5/3 1299/5/3
f 1303/1/3 1301/1/3 1300/1/3
f 1303/5/3 1300/5/3 1302/5/3
f 1304/1/3 1301/1/3 1303/1/3
f 1308/5/3 1306/5/3 1305/5/3
f 1309/1/3 1307/1/3 1306/1/3
f 1309/5/3 1306/5/3 1308/5/3
f 1310/1/3 1307/1/3 1309/1/3
f 1313/7/3 1312/7/3 1311/7/3
f 1314/7/3 1312/7/3 1313/7/3
f 1317/8/3 1316/8/3 1315/8/3
f 1318/8/3 1316/8/3 1317/8/3
f 1321/5/3 1320/5/3 1319/5/3
f 1322/5/3 1320/5/3 1321/5/3
f 1323/5/4 1324/5/4 1325/5/4
f 1325/5/4 1324/5/4 1326/5/4
f 1327/8/4 1328/8/4 1329/8/4
f 1329/8/4 1328/8/4 1330/8/4
f 1331/5/4 1332/5/4 1333/5/4
f 1333/5/4 1332/5/4 1334/5/4
f 1335/8/4 1336/8/4 1337/8/4
f 1337/8/4 1336/8/4 1338/8/4
f 1335/8/4 1337/8/4 1339/8/4
f 1339/8/4 1337/8/4 1340/8/4
f 1341/5/4 1342/5/4 1343/5/4
f 1343/5/4 1342/5/4 1344/5/4
f 1345/5/4 1346/5/4 1347/5/4
f 1347/5/4 1346/5/4 1348/5/4
f 1349/5/4 1350/5/4 1352/5/4
f 1350/1/4 1351/1/4 1353/1/4
f 1352/5/4 1350/5/4 1353/5/4
f 1353/1/4 1351/1/4 1354/1/4
f 1355/5/4 1356/5/4 1358/5/4
f 1356/1/4 1357/1/4 1359/1/4
f 1358/5/4 1356/5/4 1359/5/4
f 1359/1/4 1357/1/4 1360/1/4
f 1361/5/4 1362/5/4 1363/5/4
f 1363/5/4 1362/5/4 1364/5/4
f 1365/5/4 1366/5/4 1368/5/4
f 1366/1/4 1367/1/4 1369/1/4
f 1368/5/4 1366/5/4 1369/5/4
f 1369/1/4 1367/1/4 1370/1/4
f 1371/5/4 1372/5/4 1374/5/4
f 1374/5/4 1372/5/4 1375/5/4
f 1373/3/4 1374/3/4 1377/3/4
f 1377/3/4 1374/3/4 1378/3/4
f 1375/5/4 1376/5/4 1379/5/4
f 1379/5/4 1376/5/4 1380/5/4
f 1378/5/4 1379/5/4 1381/5/4
f 1381/5/4 1379/5/4 1382/5/4
f 1383/5/4 1384/5/4 1386/5/4
f 1384/1/4 1385/1/4 1387/1/4
f 1386/5/4 1384/5/4 1387/5/4
f 1387/1/4 1385/1/4 1388/1/4
f 1389/5/4 1390/5/4 1392/5/4
f 1390/1/4 1391/1/4 1393/1/4
f 1392/5/4 1390/5/4 1393/5/4
f 1393/1/4 1391/1/4 1394/1/4
f 1395/5/4 1396/5/4 1397/5/4
f 1397/5/4 1396/5/4 1398/5/4
f 1399/5/4 1400/5/4 1401/5/4
f 1401/5/4 1400/5/4 1402/5/4
f 1403/5/4 1404/5/4 1406/5/4
f 1404/1/4 1405/1/4 1407/1/4
f 1406/5/4 1404/5/4 1407/5/4
f 1407/1/4 1405/1/4 1408/1/4
f 1409/8/4 1410/8/4 1411/8/4
f 1411/8/4 1410/8/4 1412/8/4
f 1413/5/4 1414/5/4 1416/5/4
f 1416/5/4 1414/5/4 1417/5/4
f 1415/3/4 1416/3/4 1419/3/4
f 1419/3/4 1416/3/4 1420/3/4
f 1417/5/4 1418/5/4 1421/5/4
f 1421/5/4 1418/5/4 1422/5/4
f 1420/5/4 1421/5/4 1423/5/4
f 1423/5/4 1421/5/4 1424/5/4
f 1425/5/4 1426/5/4 1427/5/4
f 1427/5/4 1426/5/4 1428/5/4
f 1429/5/4 1430/5/4 1431/5/4
f 1431/5/4 1430/5/4 1432/5/4
f 1433/5/4 1434/5/4 1435/5/4
f 1435/5/4 1434/5/4 1436/5/4
f 1437/8/4 1438/8/4 1439/8/4
f 1439/8/4 1438/8/4 1440/8/4
f 1441/8/4 1442/8/4 1443/8/4
f 1443/8/4 1442/8/4 1444/8/4
f 1445/8/4 1446/8/4 1447/8/4
f 1447/8/4 1446/8/4 1448/8/4
f 1449/8/4 1450/8/4 1451/8/4
f 1451/8/4 1450/8/4 1452/8/4
f 1453/5/4 1454/5/4 1456/5/4
f 1456/5/4 1454/5/4 1457/5/4
f 1455/3/4 1456/3/4 1459/3/4
f 1459/3/4 1456/3/4 1460/3/4
f 1457/5/4 1458/5/4 1461/5/4
f 1461/5/4 1458/5/4 1462/5/4
f 1460/5/4 1461/5/4 1463/5/4
f 1463/5/4 1461/5/4 1464/5/4
f 1465/5/4 1466/5/4 1468/5/4
f 1468/5/4 1466/5/4 1469/5/4
f 1467/3/4 1468/3/4 1471/3/4
f 1471/3/4 1468/3/4 1472/3/4
f 1469/5/4 1470/5/4 1473/5/4
f 1473/5/4 1470/5/4 1474/5/4
f 1472/5/4 1473/5/4 1475/5/4
f 1475/5/4 1473/5/4 1476/5/4
f 1477/5/4 1478/5/4 1479/5/4
f 1479/5/4 1478/5/4 1480/5/4
f 1481/5/4 1482/5/4 1483/5/4
f 1483/5/4 1482/5/4 1484/5/4
f 1485/5/4 1486/5/4 1487/5/4
f 1487/5/4 1486/5/4 1488/5/4
f 1489/5/4 1490/5/4 1491/5/4
f 1491/5/4 1490/5/4 1492/5/4
f 1493/8/4 1494/8/4 1495/8/4
f 1495/8/4 1494/8/4 1496/8/4
f 1497/5/4 1498/5/4 1499/5/4
f 1499/5/4 1498/5/4 1500/5/4
f 1501/5/4 1502/5/4 1503/5/4
f 1503/5/4 1502/5/4 1504/5/4
f 1505/5/4 1506/5/4 1507/5/4
f 1507/5/4 1506/5/4 1508/5/4
f 1509/5/4 1510/5/4 1511/5/4
f 1511/5/4 1510/5/4 1512/5/4
f 1513/3/4 1514/3/4 1515/3/4
f 1515/3/4 1514/3/4 1516/3/4
f 1516/3/4 1514/3/4 1517/3/4
f 1517/3/4 1514/3/4 1518/3/4
f 1518/3/4 1514/3/4 1519/3/4
f 1518/3/4 1519/3/4 1521/3/4
f 1519/3/4 1520/3/4 1521/3/4
f 1521/3/4 1520/3/4 1522/3/4
f 1522/3/4 1520/3/4 1523/3/4
f 1523/3/4 1520/3/4 1525/3/4
f 1524/3/4 1525/3/4 1526/3/4
f 1525/3/4 1520/3/4 1527/3/4
f 1526/3/4 1525/3/4 1527/3/4
f 1527/3/4 1520/3/4 1529/3/4
f 1528/3/4 1529/3/4 1530/3/4
f 1529/3/4 1520/3/4 1531/3/4
f 1530/3/4 1529/3/4 1531/3/4
f 1531/3/4 1520/3/4 1533/3/4
f 1532/3/4 1533/3/4 1534/3/4
f 1533/3/4 1520/3/4 1535/3/4
f 1534/3/4 1533/3/4 1535/3/4
f 1535/3/4 1520/3/4 1537/3/4
f 1536/3/4 1537/3/4 1538/3/4
f 1537/3/4 1520/3/4 1539/3/4
f 1538/3/4 1537/3/4 1539/3/4
f 1539/3/4 1520/3/4 1542/3/4
f 1540/3/4 1541/3/4 1543/3/4
f 1541/3/4 1542/3/4 1543/3/4
f 1543/3/4 1542/3/4 1544/3/4
f 1542/3/4 1520/3/4 1545/3/4
f 1544/3/4 1542/3/4 1545/3/4
f 1543/3/4 1544/3/4 1548/3/4
f 1546/3/4 1547/3/4 1549/3/4
f 1547/3/4 1548/3/4 1549/3/4
f 1548/3/4 1544/3/4 1550/3/4
f 1549/3/4 1548/3/4 1550/3/4
f 1551/8/4 1552/8/4 1553/8/4
f 1553/8/4 1552/8/4 1554/8/4
f 1555/5/4 1556/5/4 1557/5/4
f 1557/5/4 1556/5/4 1558/5/4
f 1559/5/4 1560/5/4 1561/5/4
f 1561/5/4 1560/5/4 1562/5/4
f 1563/5/4 1564/5/4 1565/5/4
f 1565/5/4 1564/5/4 1566/5/4
f 1567/5/4 1568/5/4 1569/5/4
f 1569/5/4 1568/5/4 1570/5/4
f 1571/3/4 1572/3/4 1573/3/4
f 1573/3/4 1572/3/4 1574/3/4
f 1571/3/4 1573/3/4 1575/3/4
f 1574/3/4 1572/3/4 1576/3/4
f 1576/3/4 1572/3/4 1577/3/4
f 1571/3/4 1575/3/4 1579/3/4
f 1577/3/4 1578/3/4 1579/3/4
f 1576/3/4 1577/3/4 1579/3/4
f 1575/3/4 1576/3/4 1579/3/4
f 1579/3/4 1578/3/4 1580/3/4
f 1580/3/4 1578/3/4 1581/3/4
f 1581/3/4 1578/3/4 1582/3/4
f 1580/3/4 1581/3/4 1583/3/4
f 1583/3/4 1581/3/4 1584/3/4
f 1584/3/4 1581/3/4 1585/3/4
f 1582/3/4 1578/3/4 1586/3/4
f 1584/3/4 1585/3/4 1587/3/4
f 1585/3/4 1586/3/4 1587/3/4
f 1586/3/4 1578/3/4 1588/3/4
f 1587/3/4 1586/3/4 1588/3/4
f 1584/3/4 1587/3/4 1589/3/4
f 1588/3/4 1578/3/4 1590/3/4
f 1584/3/4 1589/3/4 1591/3/4
f 1589/3/4 1590/3/4 1591/3/4
f 1590/3/4 1578/3/4 1592/3/4
f 1591/3/4 1590/3/4 1592/3/4
f 1584/3/4 1591/3/4 1593/3/4
f 1592/3/4 1578/3/4 1594/3/4
f 1584/3/4 1593/3/4 1595/3/4
f 1593/3/4 1594/3/4 1595/3/4
f 1594/3/4 1578/3/4 1596/3/4
f 1595/3/4 1594/3/4 1596/3/4
f 1584/3/4 1595/3/4 1597/3/4
f 1596/3/4 1578/3/4 1598/3/4
f 1584/3/4 1597/3/4 1600/3/4
f 1597/3/4 1598/3/4 1600/3/4
f 1600/3/4 1598/3/4 1601/3/4
f 1598/3/4 1578/3/4 1602/3/4
f 1601/3/4 1598/3/4 1602/3/4
f 1600/3/4 1601/3/4 1604/3/4
f 1599/3/4 1600/3/4 1604/3/4
f 1604/3/4 1601/3/4 1605/3/4
f 1602/3/4 1578/3/4 1606/3/4
f 1604/3/4 1605/3/4 1607/3/4
f 1605/3/4 1606/3/4 1607/3/4
f 1603/3/4 1604/3/4 1607/3/4
f 1607/3/4 1606/3/4 1608/3/4
f 1608/3/4 1606/3/4 1609/3/4
f 1606/3/4 1578/3/4 1610/3/4
f 1609/3/4 1606/3/4 1610/3/4
f 1603/3/4 1607/3/4 1611/3/4
f 1608/3/4 1609/3/4 1612/3/4
f 1603/3/4 1611/3/4 1613/3/4
f 1611/3/4 1612/3/4 1613/3/4
f 1612/3/4 1609/3/4 1614/3/4
f 1613/3/4 1612/3/4 1614/3/4
f 1615/5/4 1616/5/4 1617/5/4
f 1617/5/4 1616/5/4 1618/5/4
f 1619/7/4 1620/7/4 1621/7/4
f 1621/7/4 1620/7/4 1622/7/4
f 1623/5/4 1624/5/4 1625/5/4
f 1625/5/4 1624/5/4 1626/5/4
f 1627/5/4 1628/5/4 1630/5/4
f 1628/1/4 1629/1/4 1631/1/4
f 1630/5/4 1628/5/4 1631/5/4
f 1631/1/4 1629/1/4 1632/1/4
f 1633/5/4 1634/5/4 1636/5/4
f 1634/1/4 1635/1/4 1637/1/4
f 1636/5/4 1634/5/4 1637/5/4
f 1637/1/4 1635/1/4 1638/1/4
f 1639/8/4 1640/8/4 1641/8/4
f 1641/8/4 1640/8/4 1642/8/4
f 1643/5/4 1644/5/4 1645/5/4
f 1645/5/4 1644/5/4 1646/5/4
f 1647/5/4 1648/5/4 1650/5/4
f 1648/1/4 1649/1/4 1651/1/4
f 1650/5/4 1648/5/4 1651/5/4
f 1651/1/4 1649/1/4 1652/1/4
f 1653/5/4 1654/5/4 1655/5/4
f 1655/5/4 1654/5/4 1656/5/4
f 1657/2/4 1658/2/4 1659/2/4
f 1659/2/4 1658/2/4 1660/2/4
f 1661/5/4 1662/5/4 1663/5/4
f 1663/5/4 1662/5/4 1664/5/4
f 1665/5/4 1666/5/4 1667/5/4
f 1667/5/4 1666/5/4 1668/5/4
f 1669/5/4 1670/5/4 1672/5/4
f 1672/5/4 1670/5/4 1673/5/4
f 1671/3/4 1672/3/4 1675/3/4
f 1675/3/4 1672/3/4 1676/3/4
f 1673/5/4 1674/5/4 1677/5/4
f 1677/5/4 1674/5/4 1678/5/4
f 1676/5/4 1677/5/4 1679/5/4
f 1679/5/4 1677/5/4 1680/5/4
f 1681/5/4 1682/5/4 1683/5/4
f 1683/5/4 1682/5/4 1684/5/4
f 1685/5/4 1686/5/4 1687/5/4
f 1687/5/4 1686/5/4 1688/5/4
f 1689/8/4 1690/8/4 1691/8/4
f 1691/8/4 1690/8/4 1692/8/4
f 1689/8/4 1691/8/4 1693/8/4
f 1693/8/4 1691/8/4 1694/8/4
f 1695/5/4 1696/5/4 1698/5/4
f 1696/1/4 1697/1/4 1699/1/4
f 1698/5/4 1696/5/4 1699/5/4
f 1699/1/4 1697/1/4 1700/1/4
f 1701/5/4 1702/5/4 1704/5/4
f 1702/1/4 1703/1/4 1705/1/4
f 1704/5/4 1702/5/4 1705/5/4
f 1705/1/4 1703/1/4 1706/1/4
f 1707/5/4 1708/5/4 1709/5/4
f 1709/5/4 1708/5/4 1710/5/4
f 1711/5/4 1712/5/4 1714/5/4
f 1712/1/4 1713/1/4 1715/1/4
f 1714/5/4 1712/5/4 1715/5/4
f 1715/1/4 1713/1/4 1716/1/4
f 1717/5/4 1718/5/4 1720/5/4
f 1718/1/4 1719/1/4 1721/1/4
f 1720/5/4 1718/5/4 1721/5/4
f 1721/1/4 1719/1/4 1722/1/4
f 1723/7/4 1724/7/4 1725/7/4
f 1725/7/4 1724/7/4 1726/7/4
f 1727/5/4 1728/5/4 1730/5/4
f 1728/1/4 1729/1/4 1731/1/4
f 1730/5/4 1728/5/4 1731/5/4
f 1731/1/4 1729/1/4 1732/1/4
f 1733/8/4 1734/8/4 1735/8/4
f 1735/8/4 1734/8/4 1736/8/4
f 1737/5/4 1738/5/4 1740/5/4
f 1738/1/4 1739/1/4 1741/1/4
f 1740/5/4 1738/5/4 1741/5/4
f 1741/1/4 1739/1/4 1742/1/4
f 1743/5/4 1744/5/4 1745/5/4
f 1745/5/4 1744/5/4 1746/5/4
f 1746/5/4 1744/5/4 1747/5/4
f 1743/5/4 1745/5/4 1748/5/4
f 1745/6/4 1746/6/4 1749/6/4
f 1748/5/4 1745/5/4 1749/5/4
f 1743/5/4 1748/5/4 1750/5/4
f 1748/6/4 1749/6/4 1751/6/4
f 1750/5/4 1748/5/4 1751/5/4
f 1750/6/4 1751/6/4 1752/6/4
f 1751/6/4 1749/6/4 1753/6/4
f 1752/6/4 1751/6/4 1753/6/4
f 1752/5/4 1753/5/4 1754/5/4
f 1753/6/4 1749/6/4 1754/6/4
f 1749/6/4 1746/6/4 1755/6/4
f 1754/6/4 1749/6/4 1755/6/4
f 1754/5/4 1755/5/4 1756/5/4
f 1755/6/4 1746/6/4 1756/6/4
f 1756/6/4 1746/6/4 1757/6/4
f 1756/5/4 1757/5/4 1759/5/4
f 1757/5/4 1758/5/4 1759/5/4
f 1756/5/4 1759/5/4 1761/5/4
f 1759/5/4 1760/5/4 1761/5/4
f 1761/5/4 1760/5/4 1762/5/4
f 1754/5/4 1756/5/4 1763/5/4
f 1752/5/4 1754/5/4 1763/5/4
f 1756/5/4 1761/5/4 1763/5/4
f 1763/5/4 1761/5/4 1764/5/4
f 1769/5/5 1766/5/5 1765/5/5
f 1770/6/5 1767/6/5 1766/6/5
f 1770/5/5 1766/5/5 1769/5/5
f 1771/5/5 1768/5/5 1767/5/5
f 1771/6/5 1767/6/5 1770/6/5
f 1772/5/5 1768/5/5 1771/5/5
f 1777/3/5 1774/3/5 1773/3/5
f 1778/3/5 1774/3/5 1777/3/5
f 1779/3/5 1776/3/5 1775/3/5
f 1780/3/5 1776/3/5 1779/3/5
f 1784/5/5 1782/5/5 1781/5/5
f 1785/5/5 1782/5/5 1784/5/5
f 1790/5/5 1788/5/5 1787/5/5
f 1791/5/5 1788/5/5 1790/5/5
f 1793/5/5 1784/5/5 1783/5/5
f 1794/5/5 1784/5/5 1793/5/5
f 1795/5/5 1786/5/5 1785/5/5
f 1796/5/5 1786/5/5 1795/5/5
f 1797/5/5 1795/5/5 1794/5/5
f 1798/5/5 1795/5/5 1797/5/5
f 1799/5/5 1790/5/5 1789/5/5
f 1800/5/5 1790/5/5 1799/5/5
f 1801/5/5 1792/5/5 1791/5/5
f 1802/5/5 1792/5/5 1801/5/5
f 1803/5/5 1801/5/5 1800/5/5
f 1804/5/5 1801/5/5 1803/5/5
f 1810/5/5 1806/5/5 1805/5/5
f 1811/5/5 1806/5/5 1810/5/5
f 1814/5/5 1808/5/5 1807/5/5
f 1815/5/5 1808/5/5 1814/5/5
f 1817/5/5 1810/5/5 1809/5/5
f 1818/5/5 1810/5/5 1817/5/5
f 1819/5/5 1812/5/5 1811/5/5
f 1820/5/5 1812/5/5 1819/5/5
f 1821/5/5 1814/5/5 1813/5/5
f 1822/5/5 1814/5/5 1821/5/5
f 1823/5/5 1816/5/5 1815/5/5
f 1824/5/5 1816/5/5 1823/5/5
f 1825/5/5 1819/5/5 1818/5/5
f 1826/5/5 1819/5/5 1825/5/5
f 1827/5/5 1823/5/5 1822/5/5
f 1828/5/5 1823/5/5 1827/5/5
f 1835/3/5 1830/3/5 1829/3/5
f 1836/3/5 1830/3/5 1835/3/5
f 1837/3/5 1834/3/5 1833/3/5
f 1838/3/5 1834/3/5 1837/3/5
f 1843/3/5 1840/3/5 1839/3/5
f 1844/3/5 1840/3/5 1843/3/5
f 1845/3/5 1832/3/5 1831/3/5
f 1846/3/5 1832/3/5 1845/3/5
f 1847/3/5 1842/3/5 1841/3/5
f 1848/3/5 1842/3/5 1847/3/5
f 1852/5/5 1850/5/5 1849/5/5
f 1853/5/5 1850/5/5 1852/5/5
f 1855/5/5 1852/5/5 1851/5/5
f 1856/5/5 1852/5/5 1855/5/5
f 1857/5/5 1854/5/5 1853/5/5
f 1858/5/5 1854/5/5 1857/5/5
f 1859/5/5 1857/5/5 1856/5/5
f 1860/5/5 1857/5/5 1859/5/5
f 1871/3/5 1862/3/5 1861/3/5
f 1872/3/5 1862/3/5 1871/3/5
f 1873/3/5 1864/3/5 1863/3/5
f 1874/3/5 1864/3/5 1873/3/5
f 1875/3/5 1866/3/5 1865/3/5
f 1876/3/5 1866/3/5 1875/3/5
f 1877/3/5 1868/3/5 1867/3/5
f 1878/3/5 1868/3/5 1877/3/5
f 1879/3/5 1870/3/5 1869/3/5
f 1880/3/5 1870/3/5 1879/3/5
f 1891/3/5 1882/3/5 1881/3/5
f 1892/3/5 1882/3/5 1891/3/5
f 1893/3/5 1884/3/5 1883/3/5
f 1894/3/5 1884/3/5 1893/3/5
f 1895/3/5 1886/3/5 1885/3/5
f 1896/3/5 1886/3/5 1895/3/5
f 1897/3/5 1888/3/5 1887/3/5
f 1898/3/5 1888/3/5 1897/3/5
f 1899/3/5 1890/3/5 1889/3/5
f 1900/3/5 1890/3/5 1899/3/5
f 1903/2/5 1902/2/5 1901/2/5
f 1904/2/5 1902/2/5 1903/2/5
f 1905/6/6 1906/6/6 1907/6/6
f 1907/6/6 1906/6/6 1908/6/6
f 1905/6/6 1907/6/6 1909/6/6
f 1909/6/6 1907/6/6 1910/6/6
f 1907/7/6 1908/7/6 1911/7/6
f 1910/6/6 1907/6/6 1911/6/6
f 1908/6/6 1906/6/6 1912/6/6
f 1911/7/6 1908/7/6 1912/7/6
f 1909/7/6 1910/7/6 1913/7/6
f 1905/6/6 1909/6/6 1913/6/6
f 1910/6/6 1911/6/6 1914/6/6
f 1913/7/6 1910/7/6 1914/7/6
f 1911/6/6 1912/6/6 1914/6/6
f 1913/6/6 1914/6/6 1915/6/6
f 1914/6/6 1912/6/6 1915/6/6
f 1915/6/6 1912/6/6 1916/6/6
f 1913/6/6 1915/6/6 1917/6/6
f 1915/7/6 1916/7/6 1917/7/6
f 1916/6/6 1912/6/6 1918/6/6
f 1917/7/6 1916/7/6 1918/7/6
f 1917/6/6 1918/6/6 1919/6/6
f 1918/6/6 1912/6/6 1919/6/6
f 1912/6/6 1906/6/6 1920/6/6
f 1919/6/6 1912/6/6 1920/6/6
f 1917/6/6 1919/6/6 1921/6/6
f 1913/6/6 1917/6/6 1921/6/6
f 1921/6/6 1919/6/6 1922/6/6
f 1919/7/6 1920/7/6 1923/7/6
f 1922/6/6 1919/6/6 1923/6/6
f 1920/6/6 1906/6/6 1924/6/6
f 1923/7/6 1920/7/6 1924/7/6
f 1921/7/6 1922/7/6 1925/7/6
f 1913/6/6 1921/6/6 1925/6/6
f 1922/6/6 1923/6/6 1926/6/6
f 1925/7/6 1922/7/6 1926/7/6
f 1923/6/6 1924/6/6 1926/6/6
f 1905/6/6 1913/6/6 1927/6/6
f 1913/6/6 1925/6/6 1927/6/6
f 1925/6/6 1926/6/6 1927/6/6
f 1927/6/6 1926/6/6 1928/6/6
f 1905/6/6 1927/6/6 1929/6/6
f 1927/7/6 1928/7/6 1929/7/6
f 1928/6/6 1926/6/6 1930/6/6
f 1929/7/6 1928/7/6 1930/7/6
f 1926/6/6 1924/6/6 1931/6/6
f 1930/6/6 1926/6/6 1931/6/6
f 1929/6/6 1930/6/6 1931/6/6
f 1931/6/6 1924/6/6 1932/6/6
f 1929/6/6 1931/6/6 1933/6/6
f 1931/7/6 1932/7/6 1933/7/6
f 1932/6/6 1924/6/6 1934/6/6
f 1933/7/6 1932/7/6 1934/7/6
f 1929/6/6 1933/6/6 1935/6/6
f 1933/6/6 1934/6/6 1935/6/6
f 1935/6/6 1934/6/6 1936/6/6
f 1929/6/6 1935/6/6 1937/6/6
f 1935/7/6 1936/7/6 1937/7/6
f 1936/6/6 1934/6/6 1938/6/6
f 1937/7/6 1936/7/6 1938/7/6
f 1937/6/6 1938/6/6 1939/6/6
f 1938/6/6 1934/6/6 1939/6/6
f 1934/6/6 1924/6/6 1940/6/6
f 1939/6/6 1934/6/6 1940/6/6
f 1937/6/6 1939/6/6 1941/6/6
f 1939/7/6 1940/7/6 1941/7/6
f 1940/6/6 1924/6/6 1942/6/6
f 1941/7/6 1940/7/6 1942/7/6
f 1937/6/6 1941/6/6 1943/6/6
f 1929/6/6 1937/6/6 1943/6/6
f 1941/6/6 1942/6/6 1943/6/6
f 1943/6/6 1942/6/6 1944/6/6
f 1929/6/6 1943/6/6 1945/6/6
f 1943/7/6 1944/7/6 1945/7/6
f 1944/6/6 1942/6/6 1946/6/6
f 1945/7/6 1944/7/6 1946/7/6
f 1942/6/6 1924/6/6 1947/6/6
f 1946/6/6 1942/6/6 1947/6/6
f 1945/6/6 1946/6/6 1947/6/6
f 1924/6/6 1906/6/6 1948/6/6
f 1947/6/6 1924/6/6 1948/6/6
f 1945/6/6 1947/6/6 1949/6/6
f 1949/6/6 1947/6/6 1950/6/6
f 1947/7/6 1948/7/6 1951/7/6
f 1950/6/6 1947/6/6 1951/6/6
f 1948/6/6 1906/6/6 1952/6/6
f 1951/7/6 1948/7/6 1952/7/6
f 1949/7/6 1950/7/6 1953/7/6
f 1945/6/6 1949/6/6 1953/6/6
f 1950/6/6 1951/6/6 1954/6/6
f 1953/7/6 1950/7/6 1954/7/6
f 1951/6/6 1952/6/6 1954/6/6
f 1945/6/6 1953/6/6 1955/6/6
f 1929/6/6 1945/6/6 1955/6/6
f 1953/6/6 1954/6/6 1955/6/6
f 1955/6/6 1954/6/6 1956/6/6
f 1954/6/6 1952/6/6 1957/6/6
f 1956/6/6 1954/6/6 1957/6/6
f 1952/6/6 1906/6/6 1958/6/6
f 1957/6/6 1952/6/6 1958/6/6
f 1955/7/6 1956/7/6 1959/7/6
f 1929/6/6 1955/6/6 1959/6/6
f 1956/6/6 1957/6/6 1960/6/6
f 1959/7/6 1956/7/6 1960/7/6
f 1957/7/6 1958/7/6 1961/7/6
f 1960/6/6 1957/6/6 1961/6/6
f 1958/6/6 1906/6/6 1962/6/6
f 1961/7/6 1958/7/6 1962/7/6
f 1960/6/6 1961/6/6 1963/6/6
f 1959/6/6 1960/6/6 1963/6/6
f 1961/6/6 1962/6/6 1963/6/6
f 1963/6/6 1962/6/6 1964/6/6
f 1962/6/6 1906/6/6 1965/6/6
f 1964/6/6 1962/6/6 1965/6/6
f 1965/6/6 1906/6/6 1966/6/6
f 1963/7/6 1964/7/6 1967/7/6
f 1959/6/6 1963/6/6 1967/6/6
f 1964/6/6 1965/6/6 1968/6/6
f 1967/7/6 1964/7/6 1968/7/6
f 1965/7/6 1966/7/6 1969/7/6
f 1968/6/6 1965/6/6 1969/6/6
f 1966/6/6 1906/6/6 1970/6/6
f 1969/7/6 1966/7/6 1970/7/6
f 1905/6/6 1929/6/6 1971/6/6
f 1968/6/6 1969/6/6 1971/6/6
f 1969/6/6 1970/6/6 1971/6/6
f 1959/6/6 1967/6/6 1971/6/6
f 1967/6/6 1968/6/6 1971/6/6
f 1929/6/6 1959/6/6 1971/6/6
f 1970/6/6 1906/6/6 1972/6/6
f 1971/6/6 1970/6/6 1972/6/6
f 1973/5/6 1974/5/6 1977/5/6
f 1977/5/6 1974/5/6 1978/5/6
f 1975/5/6 1976/5/6 1979/5/6
f 1979/5/6 1976/5/6 1980/5/6
f 1980/5/6 1976/5/6 1981/5/6
f 1981/5/6 1976/5/6 1982/5/6
f 1982/5/6 1976/5/6 1983/5/6
f 1983/5/6 1976/5/6 1984/5/6
f 1973/5/6 1977/5/6 1985/5/6
f 1978/5/6 1974/5/6 1986/5/6
f 1986/5/6 1974/5/6 1987/5/6
f 1987/5/6 1974/5/6 1988/5/6
f 1975/5/6 1979/5/6 1989/5/6
f 1980/5/6 1981/5/6 1990/5/6
f 1990/5/6 1981/5/6 1991/5/6
f 1982/5/6 1983/5/6 1992/5/6
f 1984/5/6 1976/5/6 1993/5/6
f 1993/5/6 1976/5/6 1994/5/6
f 1973/5/6 1985/5/6 1995/5/6
f 1985/5/6 1986/5/6 1995/5/6
f 1986/5/6 1987/5/6 1995/5/6
f 1995/5/6 1987/5/6 1996/5/6
f 1996/5/6 1987/5/6 1997/5/6
f 1997/5/6 1987/5/6 1998/5/6
f 1988/5/6 1974/5/6 1999/5/6
f 1999/5/6 1974/5/6 2000/5/6
f 1991/5/6 1992/5/6 2001/5/6
f 1990/5/6 1991/5/6 2001/5/6
f 1992/5/6 1983/5/6 2001/5/6
f 1989/5/6 1990/5/6 2001/5/6
f 2001/5/6 1983/5/6 2002/5/6
f 2002/5/6 1983/5/6 2003/5/6
f 1984/5/6 1993/5/6 2004/5/6
f 2004/5/6 1993/5/6 2005/5/6
f 1994/5/6 1976/5/6 2006/5/6
f 1973/5/6 1995/5/6 2007/5/6
f 1996/5/6 1997/5/6 2008/5/6
f 2008/5/6 1997/5/6 2009/5/6
f 2009/5/6 1997/5/6 2010/5/6
f 2010/5/6 1997/5/6 2011/5/6
f 2000/5/6 1974/5/6 2014/5/6
f 1989/5/6 2001/5/6 2015/5/6
f 2015/5/6 2001/5/6 2016/5/6
f 2016/5/6 2001/5/6 2017/5/6
f 2004/5/6 2005/5/6 2018/5/6
f 2005/5/6 2006/5/6 2018/5/6
f 2002/5/6 2003/5/6 2018/5/6
f 2003/5/6 2004/5/6 2018/5/6
f 2011/5/6 2012/5/6 2019/5/6
f 2010/5/6 2011/5/6 2019/5/6
f 2013/5/6 2014/5/6 2020/5/6
f 1975/5/6 1989/5/6 2021/5/6
f 1989/5/6 2015/5/6 2021/5/6
f 2021/5/6 2015/5/6 2022/5/6
f 2016/5/6 2017/5/6 2023/5/6
f 2017/5/6 2018/5/6 2023/5/6
f 2023/5/6 2018/5/6 2024/5/6
f 2018/5/6 2006/5/6 2025/5/6
f 2024/5/6 2018/5/6 2025/5/6
f 2025/5/6 2006/5/6 2026/5/6
f 2007/5/6 2008/5/6 2027/5/6
f 2008/5/6 2009/5/6 2027/5/6
f 2019/5/6 2020/5/6 2028/5/6
f 2010/5/6 2019/5/6 2028/5/6
f 2028/5/6 2020/5/6 2029/5/6
f 2020/5/6 2014/5/6 2030/5/6
f 2029/5/6 2020/5/6 2030/5/6
f 1975/5/6 2021/5/6 2031/5/6
f 2024/5/6 2025/5/6 2034/5/6
f 2034/5/6 2025/5/6 2035/5/6
f 2035/5/6 2025/5/6 2036/5/6
f 2028/5/6 2029/5/6 2037/5/6
f 2027/5/6 2028/5/6 2037/5/6
f 2030/5/6 2014/5/6 2038/5/6
f 2031/5/6 2032/5/6 2039/5/6
f 2034/5/6 2035/5/6 2040/5/6
f 2033/5/6 2034/5/6 2040/5/6
f 2040/5/6 2035/5/6 2041/5/6
f 2036/5/6 2025/5/6 2042/5/6
f 2042/5/6 2025/5/6 2043/5/6
f 2026/5/6 2006/5/6 2044/5/6
f 2027/5/6 2037/5/6 2045/5/6
f 2037/5/6 2038/5/6 2045/5/6
f 2007/5/6 2027/5/6 2045/5/6
f 1973/5/6 2007/5/6 2045/5/6
f 2045/5/6 2038/5/6 2046/5/6
f 2042/5/6 2043/5/6 2047/5/6
f 2043/5/6 2044/5/6 2047/5/6
f 2040/5/6 2041/5/6 2047/5/6
f 2041/5/6 2042/5/6 2047/5/6
f 2039/5/6 2040/5/6 2047/5/6
f 2047/5/6 2044/5/6 2048/5/6
f 2048/5/6 2044/5/6 2049/5/6
f 2049/5/6 2044/5/6 2050/5/6
f 2050/5/6 2044/5/6 2051/5/6
f 2044/5/6 2006/5/6 2052/5/6
f 2051/5/6 2044/5/6 2052/5/6
f 2039/5/6 2047/5/6 2053/5/6
f 2048/5/6 2049/5/6 2054/5/6
f 2054/5/6 2049/5/6 2055/5/6
f 2050/5/6 2051/5/6 2056/5/6
f 2046/5/6 2038/5/6 2057/5/6
f 2057/5/6 2038/5/6 2058/5/6
f 2055/5/6 2056/5/6 2059/5/6
f 2054/5/6 2055/5/6 2059/5/6
f 2039/5/6 2053/5/6 2059/5/6
f 2053/5/6 2054/5/6 2059/5/6
f 2059/5/6 2056/5/6 2060/5/6
f 2056/5/6 2051/5/6 2061/5/6
f 2060/5/6 2056/5/6 2061/5/6
f 2052/5/6 2006/5/6 2062/5/6
f 1973/5/6 2045/5/6 2063/5/6
f 2046/5/6 2057/5/6 2064/5/6
f 1973/5/6 2063/5/6 2065/5/6
f 2063/5/6 2064/5/6 2065/5/6
f 2065/5/6 2064/5/6 2066/5/6
f 2064/5/6 2057/5/6 2067/5/6
f 2066/5/6 2064/5/6 2067/5/6
f 2058/5/6 2038/5/6 2068/5/6
f 2039/5/6 2059/5/6 2069/5/6
f 2060/5/6 2061/5/6 2070/5/6
f 2061/5/6 2062/5/6 2070/5/6
f 1973/5/6 2065/5/6 2071/5/6
f 2066/5/6 2067/5/6 2072/5/6
f 2067/5/6 2068/5/6 2072/5/6
f 2072/5/6 2068/5/6 2073/5/6
f 2073/5/6 2068/5/6 2074/5/6
f 2039/5/6 2069/5/6 2075/5/6
f 2031/5/6 2039/5/6 2075/5/6
f 1975/5/6 2031/5/6 2075/5/6
f 2069/5/6 2070/5/6 2075/5/6
f 2075/5/6 2070/5/6 2076/5/6
f 2070/5/6 2062/5/6 2077/5/6
f 2076/5/6 2070/5/6 2077/5/6
f 2077/5/6 2062/5/6 2078/5/6
f 2078/5/6 2062/5/6 2079/5/6
f 2062/5/6 2006/5/6 2080/5/6
f 2079/5/6 2062/5/6 2080/5/6
f 2072/5/6 2073/5/6 2081/5/6
f 2071/5/6 2072/5/6 2081/5/6
f 2081/5/6 2073/5/6 2082/5/6
f 2082/5/6 2073/5/6 2083/5/6
f 2074/5/6 2068/5/6 2084/5/6
f 1975/5/6 2075/5/6 2085/5/6
f 2076/5/6 2077/5/6 2086/5/6
f 2086/5/6 2077/5/6 2087/5/6
f 2078/5/6 2079/5/6 2088/5/6
f 2088/5/6 2079/5/6 2089/5/6
f 2089/5/6 2079/5/6 2090/5/6
f 2090/5/6 2079/5/6 2091/5/6
f 2080/5/6 2006/5/6 2092/5/6
f 1973/5/6 2071/5/6 2093/5/6
f 2071/5/6 2081/5/6 2093/5/6
f 2081/8/6 2082/8/6 2094/8/6
f 2093/5/6 2081/5/6 2094/5/6
f 2082/5/6 2083/5/6 2095/5/6
f 2094/8/6 2082/8/6 2095/8/6
f 2083/5/6 2084/5/6 2095/5/6
f 2095/5/6 2084/5/6 2096/5/6
f 2084/5/6 2068/5/6 2097/5/6
f 2096/5/6 2084/5/6 2097/5/6
f 2097/5/6 2068/5/6 2098/5/6
f 2086/5/6 2087/5/6 2099/5/6
f 2085/5/6 2086/5/6 2099/5/6
f 2087/5/6 2088/5/6 2099/5/6
f 2088/5/6 2089/5/6 2099/5/6
f 2099/5/6 2089/5/6 2100/5/6
f 2091/5/6 2092/5/6 2101/5/6
f 2090/5/6 2091/5/6 2101/5/6
f 2096/5/6 2097/5/6 2102/5/6
f 2098/5/6 2068/5/6 2103/5/6
f 2068/5/6 2038/5/6 2104/5/6
f 2103/5/6 2068/5/6 2104/5/6
f 2014/5/6 1974/5/6 2105/5/6
f 2104/5/6 2038/5/6 2105/5/6
f 2038/5/6 2014/5/6 2105/5/6
f 2085/5/6 2099/5/6 2106/5/6
f 1975/5/6 2085/5/6 2106/5/6
f 2106/5/6 2099/5/6 2107/5/6
f 2107/5/6 2099/5/6 2108/5/6
f 2099/8/6 2100/8/6 2109/8/6
f 2108/5/6 2099/5/6 2109/5/6
f 2100/5/6 2101/5/6 2110/5/6
f 2109/8/6 2100/8/6 2110/8/6
f 2101/5/6 2092/5/6 2111/5/6
f 2110/5/6 2101/5/6 2111/5/6
f 2102/5/6 2103/5/6 2112/5/6
f 2103/5/6 2104/5/6 2112/5/6
f 2107/5/6 2108/5/6 2115/5/6
f 2111/5/6 2092/5/6 2116/5/6
f 2116/5/6 2092/5/6 2117/5/6
f 2093/8/6 2094/8/6 2118/8/6
f 1973/5/6 2093/5/6 2118/5/6
f 2095/8/6 2096/8/6 2118/8/6
f 2094/8/6 2095/8/6 2118/8/6
f 2118/8/6 2096/8/6 2119/8/6
f 2119/8/6 2096/8/6 2120/8/6
f 2112/5/6 2113/5/6 2121/5/6
f 2120/8/6 2096/8/6 2121/8/6
f 2096/5/6 2102/5/6 2121/5/6
f 2102/5/6 2112/5/6 2121/5/6
f 2111/5/6 2116/5/6 2122/5/6
f 2117/5/6 2092/5/6 2123/5/6
f 2119/8/6 2120/8/6 2124/8/6
f 2118/5/6 2119/5/6 2124/5/6
f 2120/5/6 2121/5/6 2125/5/6
f 2124/8/6 2120/8/6 2125/8/6
f 2121/5/6 2113/5/6 2126/5/6
f 2125/5/6 2121/5/6 2126/5/6
f 2126/5/6 2113/5/6 2127/5/6
f 2114/5/6 2115/5/6 2128/5/6
f 2110/8/6 2111/8/6 2128/8/6
f 2115/5/6 2108/5/6 2128/5/6
f 2108/8/6 2109/8/6 2128/8/6
f 2109/8/6 2110/8/6 2128/8/6
f 2128/8/6 2111/8/6 2129/8/6
f 2129/8/6 2111/8/6 2130/8/6
f 2122/5/6 2123/5/6 2131/5/6
f 2130/8/6 2111/8/6 2131/8/6
f 2111/5/6 2122/5/6 2131/5/6
f 2124/5/6 2125/5/6 2132/5/6
f 2125/5/6 2126/5/6 2132/5/6
f 2132/5/6 2126/5/6 2133/5/6
f 2133/5/6 2126/5/6 2134/5/6
f 2126/8/6 2127/8/6 2135/8/6
f 2134/5/6 2126/5/6 2135/5/6
f 2127/5/6 2113/5/6 2136/5/6
f 2135/8/6 2127/8/6 2136/8/6
f 2136/5/6 2113/5/6 2137/5/6
f 2129/8/6 2130/8/6 2138/8/6
f 2128/5/6 2129/5/6 2138/5/6
f 2130/5/6 2131/5/6 2139/5/6
f 2138/8/6 2130/8/6 2139/8/6
f 2131/5/6 2123/5/6 2140/5/6
f 2139/5/6 2131/5/6 2140/5/6
f 2123/5/6 2092/5/6 2141/5/6
f 2140/5/6 2123/5/6 2141/5/6
f 2092/5/6 2006/5/6 2141/5/6
f 2124/5/6 2132/5/6 2142/5/6
f 2133/5/6 2134/5/6 2143/5/6
f 2139/5/6 2140/5/6 2144/5/6
f 2138/5/6 2139/5/6 2144/5/6
f 2140/8/6 2141/8/6 2145/8/6
f 2144/5/6 2140/5/6 2145/5/6
f 2141/5/6 2006/5/6 2146/5/6
f 2145/8/6 2141/8/6 2146/8/6
f 2006/5/6 1976/5/6 2147/5/6
f 2146/5/6 2006/5/6 2147/5/6
f 2138/5/6 2144/5/6 2148/5/6
f 2148/5/6 2144/5/6 2149/5/6
f 2142/5/6 2143/5/6 2150/5/6
f 2124/5/6 2142/5/6 2150/5/6
f 2118/5/6 2124/5/6 2150/5/6
f 1973/5/6 2118/5/6 2150/5/6
f 2150/5/6 2143/5/6 2151/5/6
f 2143/5/6 2134/5/6 2152/5/6
f 2151/5/6 2143/5/6 2152/5/6
f 2136/8/6 2137/8/6 2153/8/6
f 2152/5/6 2134/5/6 2153/5/6
f 2134/8/6 2135/8/6 2153/8/6
f 2135/8/6 2136/8/6 2153/8/6
f 2153/8/6 2137/8/6 2154/8/6
f 2154/8/6 2137/8/6 2155/8/6
f 2137/5/6 2113/5/6 2156/5/6
f 2155/8/6 2137/8/6 2156/8/6
f 2156/5/6 2113/5/6 2157/5/6
f 2157/5/6 2113/5/6 2158/5/6
f 2138/5/6 2148/5/6 2159/5/6
f 2128/5/6 2138/5/6 2159/5/6
f 2114/5/6 2128/5/6 2159/5/6
f 2159/5/6 2148/5/6 2160/5/6
f 2160/5/6 2148/5/6 2161/5/6
f 2149/5/6 2144/5/6 2162/5/6
f 1973/5/6 2150/5/6 2163/5/6
f 2151/5/6 2152/5/6 2164/5/6
f 2164/5/6 2152/5/6 2165/5/6
f 2153/5/6 2154/5/6 2166/5/6
f 2154/8/6 2155/8/6 2167/8/6
f 2166/5/6 2154/5/6 2167/5/6
f 2156/5/6 2157/5/6 2168/5/6
f 2167/8/6 2155/8/6 2168/8/6
f 2155/5/6 2156/5/6 2168/5/6
f 2168/5/6 2157/5/6 2169/5/6
f 2161/5/6 2162/5/6 2172/5/6
f 2160/5/6 2161/5/6 2172/5/6
f 2162/5/6 2144/5/6 2173/5/6
f 2172/5/6 2162/5/6 2173/5/6
f 2145/8/6 2146/8/6 2174/8/6
f 2173/5/6 2144/5/6 2174/5/6
f 2146/8/6 2147/8/6 2174/8/6
f 2144/8/6 2145/8/6 2174/8/6
f 2174/8/6 2147/8/6 2175/8/6
f 2175/8/6 2147/8/6 2176/8/6
f 2147/5/6 1976/5/6 2177/5/6
f 2176/8/6 2147/8/6 2177/8/6
f 2165/5/6 2166/5/6 2178/5/6
f 1973/5/6 2163/5/6 2178/5/6
f 2169/5/6 2170/5/6 2178/5/6
f 2168/5/6 2169/5/6 2178/5/6
f 2163/5/6 2164/5/6 2178/5/6
f 2166/5/6 2167/5/6 2178/5/6
f 2164/5/6 2165/5/6 2178/5/6
f 2167/5/6 2168/5/6 2178/5/6
f 2178/5/6 2170/5/6 2179/5/6
f 2179/5/6 2170/5/6 2180/5/6
f 2180/5/6 2170/5/6 2181/5/6
f 2172/5/6 2173/5/6 2182/5/6
f 2171/5/6 2172/5/6 2182/5/6
f 2174/5/6 2175/5/6 2183/5/6
f 2175/8/6 2176/8/6 2184/8/6
f 2183/5/6 2175/5/6 2184/5/6
f 2176/5/6 2177/5/6 2185/5/6
f 2184/8/6 2176/8/6 2185/8/6
f 2179/5/6 2180/5/6 2186/5/6
f 2181/5/6 2170/5/6 2187/5/6
f 2183/5/6 2184/5/6 2188/5/6
f 2171/5/6 2182/5/6 2188/5/6
f 2182/5/6 2183/5/6 2188/5/6
f 2184/5/6 2185/5/6 2188/5/6
f 2188/5/6 2185/5/6 2189/5/6
f 2171/5/6 2188/5/6 2190/5/6
f 2190/5/6 2188/5/6 2191/5/6
f 2189/5/6 2185/5/6 2192/5/6
f 2192/5/6 2185/5/6 2193/5/6
f 2193/5/6 2185/5/6 2194/5/6
f 2194/5/6 2185/5/6 2195/5/6
f 2186/5/6 2187/5/6 2196/5/6
f 2179/5/6 2186/5/6 2196/5/6
f 2196/5/6 2187/5/6 2197/5/6
f 2171/5/6 2190/5/6 2198/5/6
f 2193/5/6 2194/5/6 2201/5/6
f 2201/5/6 2194/5/6 2202/5/6
f 2202/5/6 2194/5/6 2203/5/6
f 2195/5/6 2185/5/6 2204/5/6
f 2179/5/6 2196/5/6 2205/5/6
f 2205/5/6 2196/5/6 2206/5/6
f 2197/5/6 2187/5/6 2207/5/6
f 2198/5/6 2199/5/6 2208/5/6
f 2200/5/6 2201/5/6 2209/5/6
f 2209/5/6 2201/5/6 2210/5/6
f 2202/5/6 2203/5/6 2211/5/6
f 2203/5/6 2204/5/6 2211/5/6
f 2204/5/6 2185/5/6 2212/5/6
f 2211/5/6 2204/5/6 2212/5/6
f 2212/5/6 2185/5/6 2213/5/6
f 2206/5/6 2207/5/6 2215/5/6
f 2205/5/6 2206/5/6 2215/5/6
f 2209/5/6 2210/5/6 2216/5/6
f 2211/5/6 2212/5/6 2216/5/6
f 2208/5/6 2209/5/6 2216/5/6
f 2210/5/6 2211/5/6 2216/5/6
f 2198/5/6 2208/5/6 2216/5/6
f 2216/5/6 2212/5/6 2217/5/6
f 2217/5/6 2212/5/6 2218/5/6
f 2213/5/6 2185/5/6 2219/5/6
f 2198/5/6 2216/5/6 2220/5/6
f 2217/5/6 2218/5/6 2221/5/6
f 2218/5/6 2219/5/6 2221/5/6
f 2221/5/6 2219/5/6 2222/5/6
f 2222/5/6 2219/5/6 2223/5/6
f 2214/5/6 2215/5/6 2224/5/6
f 2215/5/6 2207/5/6 2225/5/6
f 2224/5/6 2215/5/6 2225/5/6
f 2220/5/6 2221/5/6 2226/5/6
f 2221/5/6 2222/5/6 2226/5/6
f 2223/5/6 2219/5/6 2227/5/6
f 2185/5/6 2177/5/6 2228/5/6
f 2219/5/6 2185/5/6 2228/5/6
f 2227/5/6 2219/5/6 2228/5/6
f 2177/5/6 1976/5/6 2229/5/6
f 2228/5/6 2177/5/6 2229/5/6
f 2225/5/6 2207/5/6 2230/5/6
f 2227/5/6 2228/5/6 2231/5/6
f 2220/5/6 2226/5/6 2231/5/6
f 2198/5/6 2220/5/6 2231/5/6
f 2226/5/6 2227/5/6 2231/5/6
f 2171/5/6 2198/5/6 2231/5/6
f 2231/5/6 2228/5/6 2232/5/6
f 2232/5/6 2228/5/6 2233/5/6
f 2229/5/6 1976/5/6 2234/5/6
f 2230/5/6 2207/5/6 2235/5/6
f 2207/5/6 2187/5/6 2235/5/6
f 2187/5/6 2170/5/6 2236/5/6
f 2235/5/6 2187/5/6 2236/5/6
f 2233/5/6 2234/5/6 2237/5/6
f 2232/5/6 2233/5/6 2237/5/6
f 2237/5/6 2234/5/6 2238/5/6
f 2230/5/6 2235/5/6 2239/5/6
f 2239/5/6 2235/5/6 2240/5/6
f 2236/5/6 2170/5/6 2241/5/6
f 2241/5/6 2170/5/6 2242/5/6
f 2171/5/6 2231/5/6 2243/5/6
f 2232/5/6 2237/5/6 2244/5/6
f 2244/5/6 2237/5/6 2245/5/6
f 2245/5/6 2237/5/6 2246/5/6
f 2246/5/6 2237/5/6 2247/5/6
f 2247/5/6 2237/5/6 2248/5/6
f 2238/5/6 2234/5/6 2249/5/6
f 2234/5/6 1976/5/6 2250/5/6
f 2249/5/6 2234/5/6 2250/5/6
f 2230/5/6 2239/5/6 2251/5/6
f 2244/5/6 2245/5/6 2255/5/6
f 2243/5/6 2244/5/6 2255/5/6
f 2255/5/6 2245/5/6 2256/5/6
f 2256/5/6 2245/5/6 2257/5/6
f 2246/5/6 2247/5/6 2258/5/6
f 2258/5/6 2247/5/6 2259/5/6
f 2250/5/6 1976/5/6 2262/5/6
f 1973/5/6 2178/5/6 2263/5/6
f 2251/5/6 2252/5/6 2264/5/6
f 2230/5/6 2251/5/6 2264/5/6
f 2264/5/6 2252/5/6 2265/5/6
f 2253/5/6 2254/5/6 2266/5/6
f 2243/5/6 2255/5/6 2267/5/6
f 2267/5/6 2255/5/6 2268/5/6
f 2268/5/6 2255/5/6 2269/5/6
f 2259/5/6 2260/5/6 2270/5/6
f 2256/5/6 2257/5/6 2270/5/6
f 2257/5/6 2258/5/6 2270/5/6
f 2258/5/6 2259/5/6 2270/5/6
f 2270/5/6 2260/5/6 2271/5/6
f 2261/5/6 2262/5/6 2272/5/6
f 2264/5/6 2265/5/6 2273/5/6
f 1973/5/6 2263/5/6 2273/5/6
f 2265/5/6 2266/5/6 2273/5/6
f 2263/5/6 2264/5/6 2273/5/6
f 2266/5/6 2254/5/6 2274/5/6
f 2273/5/6 2266/5/6 2274/5/6
f 2171/5/6 2243/5/6 2275/5/6
f 2243/5/6 2267/5/6 2275/5/6
f 2275/5/6 2267/5/6 2276/5/6
f 2268/5/6 2269/5/6 2277/5/6
f 2271/5/6 2272/5/6 2277/5/6
f 2270/5/6 2271/5/6 2277/5/6
f 2269/5/6 2270/5/6 2277/5/6
f 2272/5/6 2262/5/6 2278/5/6
f 2277/5/6 2272/5/6 2278/5/6
f 2262/5/6 1976/5/6 2278/5/6
f 2279/5/6 2280/5/6 2287/5/6
f 2287/5/6 2280/5/6 2288/5/6
f 2281/8/6 2282/8/6 2289/8/6
f 2289/8/6 2282/8/6 2290/8/6
f 2283/5/6 2284/5/6 2291/5/6
f 2291/5/6 2284/5/6 2292/5/6
f 2285/8/6 2286/8/6 2293/8/6
f 2293/8/6 2286/8/6 2294/8/6
f 2294/8/6 2286/8/6 2301/8/6
f 2301/8/6 2286/8/6 2302/8/6
f 2295/5/6 2296/5/6 2303/5/6
f 2303/5/6 2296/5/6 2304/5/6
f 2297/5/6 2298/5/6 2305/5/6
f 2305/5/6 2298/5/6 2306/5/6
f 2299/5/6 2300/5/6 2307/5/6
f 2307/5/6 2300/5/6 2308/5/6
f 2309/5/6 2310/5/6 2313/5/6
f 2313/5/6 2310/5/6 2314/5/6
f 2311/8/6 2312/8/6 2315/8/6
f 2315/8/6 2312/8/6 2316/8/6
f 2317/8/6 2318/8/6 2325/8/6
f 2325/8/6 2318/8/6 2326/8/6
f 2319/5/6 2320/5/6 2327/5/6
f 2327/5/6 2320/5/6 2328/5/6
f 2321/5/6 2322/5/6 2329/5/6
f 2329/5/6 2322/5/6 2330/5/6
f 2323/8/6 2324/8/6 2331/8/6
f 2317/8/6 2325/8/6 2333/8/6
f 2326/8/6 2318/8/6 2334/8/6
f 2331/8/6 2332/8/6 2335/8/6
f 2323/8/6 2331/8/6 2335/8/6
f 2335/8/6 2332/8/6 2336/8/6
f 2333/8/6 2334/8/6 2337/8/6
f 2317/8/6 2333/8/6 2337/8/6
f 2334/8/6 2318/8/6 2338/8/6
f 2337/8/6 2334/8/6 2338/8/6
f 2339/5/6 2340/5/6 2341/5/6
f 2341/5/6 2340/5/6 2342/5/6
f 2343/5/6 2344/5/6 2351/5/6
f 2351/5/6 2344/5/6 2352/5/6
f 2345/8/6 2346/8/6 2353/8/6
f 2353/8/6 2346/8/6 2354/8/6
f 2347/5/6 2348/5/6 2355/5/6
f 2355/5/6 2348/5/6 2356/5/6
f 2349/5/6 2350/5/6 2359/5/6
f 2359/5/6 2350/5/6 2360/5/6
f 2357/5/6 2358/5/6 2363/5/6
f 2363/5/6 2358/5/6 2364/5/6
f 2361/5/6 2362/5/6 2365/5/6
f 2365/5/6 2362/5/6 2366/5/6
f 2367/3/6 2368/3/6 2371/3/6
f 2369/3/6 2370/3/6 2372/3/6
f 2373/8/6 2374/8/6 2375/8/6
f 2375/8/6 2374/8/6 2376/8/6
f 2377/5/6 2378/5/6 2379/5/6
f 2379/5/6 2378/5/6 2380/5/6
f 2371/3/6 2368/3/6 2387/3/6
f 2369/3/6 2372/3/6 2388/3/6
f 2381/5/6 2382/5/6 2389/5/6
f 2389/5/6 2382/5/6 2390/5/6
f 2383/5/6 2384/5/6 2391/5/6
f 2391/5/6 2384/5/6 2392/5/6
f 2385/5/6 2386/5/6 2393/5/6
f 2393/5/6 2386/5/6 2394/5/6
f 2387/3/6 2368/3/6 2395/3/6
f 2395/3/6 2368/3/6 2396/3/6
f 2369/3/6 2388/3/6 2397/3/6
f 2397/3/6 2388/3/6 2398/3/6
f 2399/5/6 2400/5/6 2403/5/6
f 2403/5/6 2400/5/6 2404/5/6
f 2401/5/6 2402/5/6 2405/5/6
f 2405/5/6 2402/5/6 2406/5/6
f 2407/8/6 2408/8/6 2413/8/6
f 2413/8/6 2408/8/6 2414/8/6
f 2409/5/6 2410/5/6 2415/5/6
f 2415/5/6 2410/5/6 2416/5/6
f 2411/5/6 2412/5/6 2417/5/6
f 2417/5/6 2412/5/6 2418/5/6
f 2419/5/6 2420/5/6 2423/5/6
f 2423/5/6 2420/5/6 2424/5/6
f 2421/5/6 2422/5/6 2425/5/6
f 2425/5/6 2422/5/6 2426/5/6
f 2427/5/6 2428/5/6 2431/5/6
f 2431/5/6 2428/5/6 2432/5/6
f 2429/8/6 2430/8/6 2433/8/6
f 2433/8/6 2430/8/6 2434/8/6
f 2434/8/6 2430/8/6 2435/8/6
f 2435/8/6 2430/8/6 2436/8/6
f 2437/5/6 2438/5/6 2441/5/6
f 2441/5/6 2438/5/6 2442/5/6
f 2439/8/6 2440/8/6 2445/8/6
f 2445/8/6 2440/8/6 2446/8/6
f 2443/5/6 2444/5/6 2447/5/6
f 2447/5/6 2444/5/6 2448/5/6
f 2449/1/6 2450/1/6 2454/1/6
f 2454/1/6 2450/1/6 2455/1/6
f 2451/8/6 2452/8/6 2457/8/6
f 2457/8/6 2452/8/6 2458/8/6
f 2453/1/6 2454/1/6 2459/1/6
f 2454/4/6 2455/4/6 2460/4/6
f 2459/1/6 2454/1/6 2460/1/6
f 2455/1/6 2456/1/6 2461/1/6
f 2460/4/6 2455/4/6 2461/4/6
f 2461/1/6 2456/1/6 2462/1/6
f 2460/1/6 2461/1/6 2465/1/6
f 2465/1/6 2461/1/6 2466/1/6
f 2463/1/6 2464/1/6 2468/1/6
f 2468/1/6 2464/1/6 2469/1/6
f 2467/1/6 2468/1/6 2471/1/6
f 2468/4/6 2469/4/6 2472/4/6
f 2471/1/6 2468/1/6 2472/1/6
f 2469/1/6 2470/1/6 2473/1/6
f 2472/4/6 2469/4/6 2473/4/6
f 2473/1/6 2470/1/6 2474/1/6
f 2472/1/6 2473/1/6 2475/1/6
f 2475/1/6 2473/1/6 2476/1/6
f 2477/8/6 2478/8/6 2481/8/6
f 2481/8/6 2478/8/6 2482/8/6
f 2479/8/6 2480/8/6 2483/8/6
f 2483/8/6 2480/8/6 2484/8/6
f 2485/3/6 2486/3/6 2489/3/6
f 2489/3/6 2486/3/6 2490/3/6
f 2487/3/6 2488/3/6 2491/3/6
f 2491/3/6 2488/3/6 2492/3/6
f 2493/1/6 2494/1/6 2496/1/6
f 2496/1/6 2494/1/6 2497/1/6
f 2495/1/6 2496/1/6 2499/1/6
f 2496/4/6 2497/4/6 2500/4/6
f 2499/1/6 2496/1/6 2500/1/6
f 2497/1/6 2498/1/6 2501/1/6
f 2500/4/6 2497/4/6 2501/4/6
f 2501/1/6 2498/1/6 2502/1/6
f 2500/1/6 2501/1/6 2503/1/6
f 2503/1/6 2501/1/6 2504/1/6
f 2505/1/6 2506/1/6 2512/1/6
f 2512/1/6 2506/1/6 2513/1/6
f 2507/8/6 2508/8/6 2515/8/6
f 2515/8/6 2508/8/6 2516/8/6
f 2509/1/6 2510/1/6 2518/1/6
f 2518/1/6 2510/1/6 2519/1/6
f 2511/1/6 2512/1/6 2521/1/6
f 2512/4/6 2513/4/6 2522/4/6
f 2521/1/6 2512/1/6 2522/1/6
f 2513/1/6 2514/1/6 2523/1/6
f 2522/4/6 2513/4/6 2523/4/6
f 2523/1/6 2514/1/6 2524/1/6
f 2517/1/6 2518/1/6 2525/1/6
f 2518/4/6 2519/4/6 2526/4/6
f 2525/1/6 2518/1/6 2526/1/6
f 2519/1/6 2520/1/6 2527/1/6
f 2526/4/6 2519/4/6 2527/4/6
f 2527/1/6 2520/1/6 2528/1/6
f 2522/1/6 2523/1/6 2529/1/6
f 2529/1/6 2523/1/6 2530/1/6
f 2526/1/6 2527/1/6 2531/1/6
f 2531/1/6 2527/1/6 2532/1/6
f 2533/3/6 2534/3/6 2547/3/6
f 2547/3/6 2534/3/6 2548/3/6
f 2535/3/6 2536/3/6 2549/3/6
f 2549/3/6 2536/3/6 2550/3/6
f 2537/3/6 2538/3/6 2551/3/6
f 2551/3/6 2538/3/6 2552/3/6
f 2539/3/6 2540/3/6 2553/3/6
f 2553/3/6 2540/3/6 2554/3/6
f 2541/3/6 2542/3/6 2555/3/6
f 2555/3/6 2542/3/6 2556/3/6
f 2543/3/6 2544/3/6 2557/3/6
f 2557/3/6 2544/3/6 2558/3/6
f 2545/3/6 2546/3/6 2559/3/6
f 2559/3/6 2546/3/6 2560/3/6
f 2557/3/6 2558/3/6 2563/3/6
f 2549/3/6 2550/3/6 2563/3/6
f 2551/3/6 2552/3/6 2563/3/6
f 2556/3/6 2557/3/6 2563/3/6
f 2553/3/6 2554/3/6 2563/3/6
f 2554/3/6 2555/3/6 2563/3/6
f 2555/3/6 2556/3/6 2563/3/6
f 2552/3/6 2553/3/6 2563/3/6
f 2550/3/6 2551/3/6 2563/3/6
f 2563/3/6 2558/3/6 2564/3/6
f 2564/3/6 2558/3/6 2565/3/6
f 2565/3/6 2558/3/6 2566/3/6
f 2566/3/6 2558/3/6 2567/3/6
f 2567/3/6 2558/3/6 2568/3/6
f 2568/3/6 2558/3/6 2569/3/6
f 2569/3/6 2558/3/6 2570/3/6
f 2570/3/6 2558/3/6 2571/3/6
f 2571/3/6 2558/3/6 2572/3/6
f 2561/3/6 2562/3/6 2575/3/6
f 2575/3/6 2562/3/6 2576/3/6
f 2563/3/6 2564/3/6 2577/3/6
f 2577/3/6 2564/3/6 2578/3/6
f 2565/3/6 2566/3/6 2579/3/6
f 2579/3/6 2566/3/6 2580/3/6
f 2567/3/6 2568/3/6 2581/3/6
f 2581/3/6 2568/3/6 2582/3/6
f 2569/3/6 2570/3/6 2583/3/6
f 2583/3/6 2570/3/6 2584/3/6
f 2571/3/6 2572/3/6 2585/3/6
f 2585/3/6 2572/3/6 2586/3/6
f 2573/3/6 2574/3/6 2587/3/6
f 2587/3/6 2574/3/6 2588/3/6
f 2589/3/6 2590/3/6 2591/3/6
f 2591/3/6 2590/3/6 2592/3/6
f 2593/3/6 2594/3/6 2595/3/6
f 2595/3/6 2594/3/6 2596/3/6
f 2597/5/6 2598/5/6 2600/5/6
f 2600/5/6 2598/5/6 2601/5/6
f 2603/5/6 2604/5/6 2606/5/6
f 2606/5/6 2604/5/6 2607/5/6
f 2599/5/6 2600/5/6 2609/5/6
f 2609/5/6 2600/5/6 2610/5/6
f 2601/5/6 2602/5/6 2611/5/6
f 2611/5/6 2602/5/6 2612/5/6
f 2610/5/6 2611/5/6 2613/5/6
f 2613/5/6 2611/5/6 2614/5/6
f 2605/5/6 2606/5/6 2615/5/6
f 2615/5/6 2606/5/6 2616/5/6
f 2607/5/6 2608/5/6 2617/5/6
f 2617/5/6 2608/5/6 2618/5/6
f 2616/5/6 2617/5/6 2619/5/6
f 2619/5/6 2617/5/6 2620/5/6
f 2621/5/6 2622/5/6 2626/5/6
f 2626/5/6 2622/5/6 2627/5/6
f 2623/5/6 2624/5/6 2630/5/6
f 2630/5/6 2624/5/6 2631/5/6
f 2625/5/6 2626/5/6 2633/5/6
f 2633/5/6 2626/5/6 2634/5/6
f 2627/5/6 2628/5/6 2635/5/6
f 2635/5/6 2628/5/6 2636/5/6
f 2629/5/6 2630/5/6 2637/5/6
f 2637/5/6 2630/5/6 2638/5/6
f 2631/5/6 2632/5/6 2639/5/6
f 2639/5/6 2632/5/6 2640/5/6
f 2634/5/6 2635/5/6 2641/5/6
f 2641/5/6 2635/5/6 2642/5/6
f 2638/5/6 2639/5/6 2643/5/6
f 2643/5/6 2639/5/6 2644/5/6
f 2645/5/6 2646/5/6 2648/5/6
f 2648/5/6 2646/5/6 2649/5/6
f 2647/5/6 2648/5/6 2651/5/6
f 2651/5/6 2648/5/6 2652/5/6
f 2649/5/6 2650/5/6 2653/5/6
f 2653/5/6 2650/5/6 2654/5/6
f 2652/5/6 2653/5/6 2655/5/6
f 2655/5/6 2653/5/6 2656/5/6
f 2657/5/6 2658/5/6 2661/5/6
f 2661/5/6 2658/5/6 2662/5/6
f 2659/5/6 2660/5/6 2663/5/6
f 2663/5/6 2660/5/6 2664/5/6
f 2665/5/6 2666/5/6 2669/5/6
f 2669/5/6 2666/5/6 2670/5/6
f 2667/5/6 2668/5/6 2671/5/6
f 2671/5/6 2668/5/6 2672/5/6
f 2675/5/6 2676/5/6 2677/5/6
f 2677/5/6 2676/5/6 2678/5/6
f 2673/7/6 2674/7/6 2679/7/6
f 2679/7/6 2674/7/6 2680/7/6
f 2681/7/6 2682/7/6 2683/7/6
f 2683/7/6 2682/7/6 2684/7/6
f 2681/7/6 2683/7/6 2685/7/6
f 2684/7/6 2682/7/6 2686/7/6
f 2681/7/6 2685/7/6 2687/7/6
f 2685/7/6 2686/7/6 2687/7/6
f 2686/7/6 2682/7/6 2688/7/6
f 2687/7/6 2686/7/6 2688/7/6
