# MagicaVoxel @ Ephtracy

# group
o 

# material
mtllib Whiskey.mtl
usemtl palette

# normals
vn -1 0 0
vn 1 0 0
vn 0 0 1
vn 0 0 -1
vn 0 -1 0
vn 0 1 0

# texcoords
vt 0.736328 0.5
vt 0.759766 0.5
vt 0.896484 0.5
vt 0.904297 0.5
vt 0.912109 0.5
vt 0.958984 0.5
vt 0.962891 0.5
vt 0.966797 0.5
vt 0.982422 0.5
vt 0.986328 0.5

# verts
v -0.8 2.3 0.7
v -0.8 2.3 0.5
v -0.8 2.4 0.7
v -0.8 2.4 0.5
v -0.8 2.6 0.7
v -0.8 2.6 0.5
v -0.7 2.6 0.7
v -0.7 2.6 0.6
v -0.7 2.6 0.5
v -0.7 2.7 0.7
v -0.7 2.7 0.6
v -0.7 2.7 0.5
v -0.6 2.7 0.7
v -0.6 2.7 0.6
v -0.6 2.7 0.5
v -0.6 2.8 0.7
v -0.6 2.8 0.5
v -0.5 0 0.7
v -0.5 0 0.6
v -0.5 0 0.3
v -0.5 0 -0.7
v -0.5 0 -1.1
v -0.5 0.3 0.7
v -0.5 0.3 0.6
v -0.5 0.3 0.3
v -0.5 0.3 -0.7
v -0.5 0.3 -0.8
v -0.5 0.3 -1
v -0.5 0.3 -1.1
v -0.5 0.4 0.6
v -0.5 0.4 0.5
v -0.5 0.4 0.4
v -0.5 0.4 0.3
v -0.5 0.5 0.7
v -0.5 0.5 0.6
v -0.5 0.5 0.5
v -0.5 0.5 0.4
v -0.5 0.5 -1
v -0.5 0.5 -1.1
v -0.5 0.6 0.7
v -0.5 0.6 0.6
v -0.5 0.6 0.5
v -0.5 0.6 0.3
v -0.5 0.6 -0.8
v -0.5 0.6 -0.9
v -0.5 0.6 -1
v -0.5 0.7 0.7
v -0.5 0.7 0.6
v -0.5 0.7 0.4
v -0.5 0.7 0.3
v -0.5 0.7 -0.8
v -0.5 0.7 -0.9
v -0.5 0.7 -1
v -0.5 0.7 -1.1
v -0.5 0.8 0.7
v -0.5 0.8 0.6
v -0.5 0.8 0.3
v -0.5 0.8 -0.2
v -0.5 0.8 -0.3
v -0.5 0.8 -0.4
v -0.5 0.8 -0.5
v -0.5 0.8 -0.6
v -0.5 0.8 -0.7
v -0.5 0.8 -1
v -0.5 0.8 -1.1
v -0.5 0.9 0.4
v -0.5 0.9 0.0999999
v -0.5 0.9 0
v -0.5 0.9 -0.3
v -0.5 0.9 -0.4
v -0.5 0.9 -0.5
v -0.5 0.9 -0.6
v -0.5 0.9 -0.8
v -0.5 0.9 -0.9
v -0.5 0.9 -1
v -0.5 1 0.7
v -0.5 1 0.6
v -0.5 1 0.4
v -0.5 1 0.3
v -0.5 1 0.0999999
v -0.5 1 0
v -0.5 1 -0.2
v -0.5 1 -0.5
v -0.5 1 -0.6
v -0.5 1 -0.8
v -0.5 1 -1
v -0.5 1 -1.1
v -0.5 1.1 0.4
v -0.5 1.1 0.3
v -0.5 1.1 0.2
v -0.5 1.1 -0.1
v -0.5 1.1 -0.2
v -0.5 1.1 -0.3
v -0.5 1.1 -0.5
v -0.5 1.1 -0.6
v -0.5 1.1 -0.7
v -0.5 1.2 0.7
v -0.5 1.2 0.6
v -0.5 1.2 0.3
v -0.5 1.2 0.2
v -0.5 1.2 0.0999999
v -0.5 1.2 -0.1
v -0.5 1.2 -0.2
v -0.5 1.2 -0.6
v -0.5 1.2 -0.7
v -0.5 1.2 -0.8
v -0.5 1.2 -0.9
v -0.5 1.2 -1
v -0.5 1.2 -1.1
v -0.5 1.3 0.6
v -0.5 1.3 0.5
v -0.5 1.3 0.3
v -0.5 1.3 0.2
v -0.5 1.3 0.0999999
v -0.5 1.3 0
v -0.5 1.3 -0.1
v -0.5 1.3 -0.3
v -0.5 1.3 -0.4
v -0.5 1.3 -0.5
v -0.5 1.3 -0.7
v -0.5 1.3 -0.8
v -0.5 1.4 0.6
v -0.5 1.4 0.5
v -0.5 1.4 0.3
v -0.5 1.4 0.2
v -0.5 1.4 0.0999999
v -0.5 1.4 0
v -0.5 1.4 -0.2
v -0.5 1.4 -0.3
v -0.5 1.4 -0.7
v -0.5 1.4 -0.8
v -0.5 1.4 -1
v -0.5 1.4 -1.1
v -0.5 1.5 0.5
v -0.5 1.5 0.3
v -0.5 1.5 0.2
v -0.5 1.5 0.0999999
v -0.5 1.5 0
v -0.5 1.5 -0.1
v -0.5 1.5 -0.2
v -0.5 1.5 -0.3
v -0.5 1.5 -0.4
v -0.5 1.5 -0.5
v -0.5 1.5 -0.6
v -0.5 1.5 -0.7
v -0.5 1.5 -0.8
v -0.5 1.5 -1
v -0.5 1.6 1.1
v -0.5 1.6 0.7
v -0.5 1.6 0.5
v -0.5 1.6 0.3
v -0.5 1.6 0.0999999
v -0.5 1.6 0
v -0.5 1.6 -0.6
v -0.5 1.6 -0.7
v -0.5 1.6 -0.8
v -0.5 1.6 -1
v -0.5 1.6 -1.1
v -0.5 1.7 1
v -0.5 1.7 0.9
v -0.5 1.7 0.8
v -0.5 1.7 0.7
v -0.5 1.7 0.6
v -0.5 1.7 0.4
v -0.5 1.8 1
v -0.5 1.8 0.9
v -0.5 1.8 0.8
v -0.5 1.8 0.5
v -0.5 1.8 0.4
v -0.5 1.8 0.2
v -0.5 1.8 0.0999999
v -0.5 1.9 1.1
v -0.5 1.9 0.9
v -0.5 1.9 0.5
v -0.5 1.9 0.4
v -0.5 1.9 0.2
v -0.5 2 1.1
v -0.5 2 0.9
v -0.5 2 0.7
v -0.5 2 0.6
v -0.5 2 0.4
v -0.5 2 0.3
v -0.5 2.1 0.4
v -0.5 2.1 0.3
v -0.5 2.2 0.6
v -0.5 2.2 0.5
v -0.5 2.2 0.3
v -0.5 2.2 0.2
v -0.5 2.3 1.1
v -0.5 2.3 0.9
v -0.5 2.3 0.4
v -0.5 2.3 0.3
v -0.5 2.4 0.9
v -0.5 2.4 0.7
v -0.5 2.5 0.9
v -0.5 2.5 0.7
v -0.5 2.5 0.6
v -0.5 2.5 0.5
v -0.5 2.5 0.4
v -0.4 1.8 0.2
v -0.4 1.8 0.0999999
v -0.4 1.9 0.2
v -0.4 2.1 0.2
v -0.4 2.1 0.0999999
v -0.4 2.2 0.3
v -0.4 2.2 0.2
v -0.4 2.2 0.0999999
v -0.4 2.3 0.4
v -0.4 2.3 0.3
v -0.4 2.3 0.2
v -0.4 2.4 0.4
v -0.4 2.4 0.3
v -0.3 2.2 0.2
v -0.3 2.2 0.0999999
v -0.3 2.3 1.1
v -0.3 2.3 1
v -0.3 2.3 0.9
v -0.3 2.3 0.2
v -0.3 2.3 0.0999999
v -0.3 2.4 0.4
v -0.3 2.4 0.3
v -0.3 2.5 1.1
v -0.3 2.5 1
v -0.3 2.5 0.9
v -0.3 2.5 0.4
v -0.3 2.5 0.3
v -0.2 1.2 0.8
v -0.2 1.2 0.7
v -0.2 1.4 0.8
v -0.2 1.4 0.7
v -0.2 1.6 1.4
v -0.2 1.6 1.1
v -0.2 1.6 0.8
v -0.2 1.6 0.7
v -0.2 1.7 1.6
v -0.2 1.7 1.5
v -0.2 1.7 1.4
v -0.2 1.7 1.3
v -0.2 1.8 1.5
v -0.2 1.8 1.3
v -0.2 1.8 1.2
v -0.2 1.8 1.1
v -0.2 1.9 1.7
v -0.2 1.9 1.6
v -0.2 1.9 1.5
v -0.2 1.9 1.2
v -0.2 2 1.5
v -0.2 2 1.3
v -0.2 2.1 1.3
v -0.2 2.1 1.1
v -0.2 2.2 1.7
v -0.2 2.2 1.5
v -0.2 2.2 1.3
v -0.2 2.2 1.1
v -0.2 2.3 0.3
v -0.2 2.3 0.0999999
v -0.2 2.4 0.3
v -0.2 2.4 0.2
v -0.2 2.4 0.0999999
v -0.2 2.5 0.3
v -0.2 2.5 0.2
v -0.1 0.9 0.8
v -0.1 0.9 0.7
v -0.1 1.1 0.8
v -0.1 1.1 0.7
v -0.1 1.1 -1.1
v -0.1 1.1 -1.2
v -0.1 1.2 0.8
v -0.1 1.2 0.7
v -0.1 1.2 -1.1
v -0.1 1.2 -1.2
v -0.1 1.2 -1.4
v -0.1 1.3 -1.1
v -0.1 1.3 -1.2
v -0.1 1.3 -1.4
v -0.1 1.3 -1.5
v -0.1 1.4 -1.2
v -0.1 1.4 -1.4
v -0.1 1.4 -1.5
v -0.1 1.4 -1.6
v -0.1 1.5 -1.1
v -0.1 1.5 -1.2
v -0.1 1.5 -1.4
v -0.1 1.5 -1.5
v -0.1 1.5 -1.6
v -0.1 1.5 -1.7
v -0.1 1.6 0.0999999
v -0.1 1.6 -0.3
v -0.1 1.6 -1.1
v -0.1 1.6 -1.3
v -0.1 1.6 -1.4
v -0.1 1.6 -1.5
v -0.1 1.6 -1.6
v -0.1 1.7 -0.1
v -0.1 1.7 -0.3
v -0.1 1.7 -1.5
v -0.1 1.7 -1.6
v -0.1 1.7 -1.7
v -0.1 1.7 -1.8
v -0.1 1.8 0
v -0.1 1.8 -0.1
v -0.1 1.8 -1.3
v -0.1 1.8 -1.4
v -0.1 1.8 -1.8
v -0.1 1.8 -1.9
v -0.1 1.9 -1.4
v -0.1 1.9 -1.5
v -0.1 2 1.8
v -0.1 2 1.7
v -0.1 2 -1.6
v -0.1 2 -1.7
v -0.1 2 -1.8
v -0.1 2 -1.9
v -0.1 2.1 1.8
v -0.1 2.1 1.7
v -0.1 2.1 -1.3
v -0.1 2.1 -1.4
v -0.1 2.1 -1.5
v -0.1 2.1 -1.6
v -0.1 2.1 -1.7
v -0.1 2.1 -1.8
v -0.1 2.2 1.8
v -0.1 2.2 1.7
v -0.1 2.2 0.0999999
v -0.1 2.2 0
v -0.1 2.2 -1.4
v -0.1 2.2 -1.5
v -0.1 2.3 -1.1
v -0.1 2.3 -1.2
v -0.1 2.3 -1.3
v -0.1 2.3 -1.4
v -0.1 2.3 -1.5
v -0.1 2.3 -1.6
v -0.1 2.3 -1.7
v -0.1 2.4 -1
v -0.1 2.4 -1.1
v -0.1 2.5 -0.9
v -0.1 2.5 -1
v -0.1 2.5 -1.1
v -0.1 2.5 -1.2
v -0.1 2.5 -1.4
v -0.1 2.5 -1.5
v -0.1 2.6 -0.9
v -0.1 2.6 -1.1
v -0.1 2.6 -1.2
v 0.1 0 0.7
v 0.1 0 0.3
v 0.1 0 -0.7
v 0.1 0 -1.1
v 0.1 0.1 0.7
v 0.1 0.1 0.4
v 0.1 0.2 0.7
v 0.1 0.2 0.4
v 0.1 0.3 0.7
v 0.1 0.3 0.3
v 0.1 0.3 -0.7
v 0.1 0.3 -1.1
v 0.1 0.5 0.7
v 0.1 0.5 0.6
v 0.1 0.7 0.7
v 0.1 0.7 0.6
v 0.1 0.8 0.7
v 0.1 0.8 0.4
v 0.1 0.8 0.3
v 0.1 0.8 -0.7
v 0.1 0.8 -1
v 0.1 0.8 -1.1
v 0.3 2.5 0.7
v 0.3 2.5 0.6
v 0.3 2.5 0.5
v 0.3 2.6 0.7
v 0.3 2.6 0.5
v 0.4 2.6 0.7
v 0.4 2.6 0.5
v 0.4 2.7 0.7
v 0.4 2.7 0.5
v 0.5 2.7 0.7
v 0.5 2.7 0.6
v 0.5 2.7 0.5
v 0.5 2.8 0.7
v 0.5 2.8 0.6
v 0.5 2.8 0.5
v 0.6 2.4 0.7
v 0.6 2.4 0.5
v 0.6 2.5 0.7
v 0.6 2.5 0.5
v 0.7 2.3 0.7
v 0.7 2.3 0.5
v 0.7 2.4 0.7
v 0.7 2.4 0.5
v -0.7 2.3 0.7
v -0.7 2.3 0.5
v -0.7 2.4 0.7
v -0.7 2.4 0.6
v -0.7 2.4 0.5
v -0.6 2.4 0.7
v -0.6 2.4 0.6
v -0.6 2.4 0.5
v -0.6 2.5 0.7
v -0.6 2.5 0.6
v -0.6 2.5 0.5
v -0.5 2.7 0.7
v -0.5 2.7 0.6
v -0.5 2.7 0.5
v -0.5 2.8 0.7
v -0.5 2.8 0.5
v -0.4 2.6 0.7
v -0.4 2.6 0.6
v -0.4 2.6 0.5
v -0.4 2.7 0.7
v -0.4 2.7 0.6
v -0.4 2.7 0.5
v -0.3 2.5 0.7
v -0.3 2.5 0.5
v -0.3 2.6 0.7
v -0.3 2.6 0.5
v -0.1 0 0.7
v -0.1 0 0.6
v -0.1 0 0.3
v -0.1 0 -0.7
v -0.1 0 -1.1
v -0.1 0.3 0.7
v -0.1 0.3 0.6
v -0.1 0.3 0.3
v -0.1 0.3 -0.7
v -0.1 0.3 -1.1
v -0.1 0.5 -1
v -0.1 0.5 -1.1
v -0.1 0.7 -1
v -0.1 0.7 -1.1
v -0.1 0.8 0.7
v -0.1 0.8 0.4
v -0.1 0.8 0.3
v -0.1 0.8 -0.7
v -0.1 0.8 -0.9
v -0.1 0.8 -1
v -0.1 0.8 -1.1
v 0.1 0.9 0.8
v 0.1 0.9 0.7
v 0.1 1.1 0.8
v 0.1 1.1 0.7
v 0.1 1.1 -1.1
v 0.1 1.1 -1.2
v 0.1 1.2 0.8
v 0.1 1.2 0.7
v 0.1 1.2 -1.2
v 0.1 1.2 -1.4
v 0.1 1.3 -1.1
v 0.1 1.3 -1.4
v 0.1 1.3 -1.5
v 0.1 1.4 -1.4
v 0.1 1.4 -1.5
v 0.1 1.4 -1.6
v 0.1 1.5 -1.1
v 0.1 1.5 -1.2
v 0.1 1.5 -1.5
v 0.1 1.5 -1.6
v 0.1 1.5 -1.7
v 0.1 1.6 0.0999999
v 0.1 1.6 -0.1
v 0.1 1.6 -0.2
v 0.1 1.6 -0.3
v 0.1 1.6 -1.1
v 0.1 1.6 -1.2
v 0.1 1.6 -1.3
v 0.1 1.7 0.0999999
v 0.1 1.7 -0.1
v 0.1 1.7 -0.3
v 0.1 1.7 -1.3
v 0.1 1.7 -1.5
v 0.1 1.7 -1.6
v 0.1 1.7 -1.7
v 0.1 1.7 -1.8
v 0.1 1.8 0.0999999
v 0.1 1.8 0
v 0.1 1.8 -0.1
v 0.1 1.8 -1.3
v 0.1 1.8 -1.4
v 0.1 1.8 -1.5
v 0.1 1.8 -1.8
v 0.1 1.8 -1.9
v 0.1 2 1.8
v 0.1 2 1.7
v 0.1 2 -1.4
v 0.1 2 -1.5
v 0.1 2 -1.6
v 0.1 2 -1.8
v 0.1 2 -1.9
v 0.1 2.1 0.0999999
v 0.1 2.1 -1.3
v 0.1 2.1 -1.4
v 0.1 2.1 -1.5
v 0.1 2.1 -1.6
v 0.1 2.1 -1.7
v 0.1 2.1 -1.8
v 0.1 2.2 1.8
v 0.1 2.2 1.7
v 0.1 2.2 0.0999999
v 0.1 2.2 0
v 0.1 2.3 -1.1
v 0.1 2.3 -1.2
v 0.1 2.3 -1.3
v 0.1 2.3 -1.4
v 0.1 2.3 -1.5
v 0.1 2.3 -1.6
v 0.1 2.3 -1.7
v 0.1 2.4 -1
v 0.1 2.4 -1.1
v 0.1 2.4 -1.2
v 0.1 2.4 -1.4
v 0.1 2.4 -1.5
v 0.1 2.5 -0.9
v 0.1 2.5 -1
v 0.1 2.5 -1.1
v 0.1 2.5 -1.2
v 0.1 2.5 -1.4
v 0.1 2.5 -1.5
v 0.1 2.6 -0.9
v 0.1 2.6 -1
v 0.1 2.6 -1.2
v 0.2 1.2 0.8
v 0.2 1.2 0.7
v 0.2 1.3 0.8
v 0.2 1.3 0.7
v 0.2 1.6 1.4
v 0.2 1.6 1.2
v 0.2 1.6 1.1
v 0.2 1.6 0.8
v 0.2 1.6 0.7
v 0.2 1.7 1.6
v 0.2 1.7 1.5
v 0.2 1.7 1.4
v 0.2 1.8 1.6
v 0.2 1.8 1.5
v 0.2 1.8 1.4
v 0.2 1.9 1.7
v 0.2 1.9 1.6
v 0.2 2.1 1.6
v 0.2 2.1 1.5
v 0.2 2.1 1.4
v 0.2 2.1 1.1
v 0.2 2.2 1.7
v 0.2 2.2 1.5
v 0.2 2.2 1.2
v 0.2 2.2 1.1
v 0.2 2.3 0.3
v 0.2 2.3 0.2
v 0.2 2.3 0.0999999
v 0.2 2.4 0.3
v 0.2 2.4 0.2
v 0.2 2.4 0.0999999
v 0.2 2.5 0.3
v 0.2 2.5 0.2
v 0.3 2.2 0.2
v 0.3 2.2 0.0999999
v 0.3 2.3 1.1
v 0.3 2.3 1
v 0.3 2.3 0.9
v 0.3 2.3 0.2
v 0.3 2.3 0.0999999
v 0.3 2.4 0.4
v 0.3 2.4 0.3
v 0.3 2.5 1.1
v 0.3 2.5 0.9
v 0.3 2.5 0.4
v 0.3 2.5 0.3
v 0.4 1.8 0.2
v 0.4 1.8 0.0999999
v 0.4 2.1 0.2
v 0.4 2.2 0.3
v 0.4 2.2 0.2
v 0.4 2.2 0.0999999
v 0.4 2.3 0.4
v 0.4 2.3 0.3
v 0.4 2.3 0.2
v 0.4 2.4 0.4
v 0.4 2.4 0.3
v 0.5 0 0.7
v 0.5 0 0.3
v 0.5 0 -0.7
v 0.5 0 -1.1
v 0.5 0.3 0.7
v 0.5 0.3 0.3
v 0.5 0.3 -0.7
v 0.5 0.3 -1.1
v 0.5 0.4 -0.9
v 0.5 0.4 -1
v 0.5 0.4 -1.1
v 0.5 0.5 0.7
v 0.5 0.5 0.3
v 0.5 0.5 -0.8
v 0.5 0.5 -0.9
v 0.5 0.5 -1
v 0.5 0.6 0.7
v 0.5 0.6 0.6
v 0.5 0.6 -1
v 0.5 0.6 -1.1
v 0.5 0.7 0.7
v 0.5 0.7 0.6
v 0.5 0.7 0.5
v 0.5 0.7 -0.7
v 0.5 0.7 -0.8
v 0.5 0.7 -0.9
v 0.5 0.7 -1
v 0.5 0.8 0.7
v 0.5 0.8 0.6
v 0.5 0.8 0.5
v 0.5 0.8 0.3
v 0.5 0.8 -0.4
v 0.5 0.8 -0.6
v 0.5 0.8 -0.7
v 0.5 0.8 -0.8
v 0.5 0.8 -0.9
v 0.5 0.8 -1
v 0.5 0.9 0.6
v 0.5 0.9 0.4
v 0.5 0.9 0.2
v 0.5 0.9 0
v 0.5 0.9 -0.4
v 0.5 0.9 -0.5
v 0.5 0.9 -0.6
v 0.5 0.9 -0.8
v 0.5 0.9 -0.9
v 0.5 0.9 -1
v 0.5 0.9 -1.1
v 0.5 1 0.7
v 0.5 1 0.6
v 0.5 1 0.4
v 0.5 1 0.3
v 0.5 1 0.2
v 0.5 1 0
v 0.5 1 -0.2
v 0.5 1 -0.4
v 0.5 1 -0.5
v 0.5 1 -0.6
v 0.5 1 -0.9
v 0.5 1.1 0.7
v 0.5 1.1 0.4
v 0.5 1.1 0.3
v 0.5 1.1 0.2
v 0.5 1.1 0.0999999
v 0.5 1.1 0
v 0.5 1.1 -0.2
v 0.5 1.1 -0.4
v 0.5 1.1 -0.7
v 0.5 1.1 -0.9
v 0.5 1.1 -1
v 0.5 1.1 -1.1
v 0.5 1.2 0.7
v 0.5 1.2 0.6
v 0.5 1.2 0.3
v 0.5 1.2 0.2
v 0.5 1.2 0.0999999
v 0.5 1.2 -0.1
v 0.5 1.2 -0.4
v 0.5 1.2 -0.6
v 0.5 1.2 -0.7
v 0.5 1.2 -0.9
v 0.5 1.3 0.5
v 0.5 1.3 0.4
v 0.5 1.3 0.3
v 0.5 1.3 0.0999999
v 0.5 1.3 0
v 0.5 1.3 -0.2
v 0.5 1.3 -0.3
v 0.5 1.3 -0.4
v 0.5 1.3 -0.5
v 0.5 1.3 -0.6
v 0.5 1.3 -0.7
v 0.5 1.3 -0.8
v 0.5 1.3 -0.9
v 0.5 1.3 -1
v 0.5 1.4 0.7
v 0.5 1.4 0.6
v 0.5 1.4 0.3
v 0.5 1.4 0.0999999
v 0.5 1.4 0
v 0.5 1.4 -0.1
v 0.5 1.4 -0.2
v 0.5 1.4 -0.3
v 0.5 1.4 -0.4
v 0.5 1.4 -0.5
v 0.5 1.4 -0.7
v 0.5 1.4 -0.8
v 0.5 1.4 -0.9
v 0.5 1.5 0.7
v 0.5 1.5 0.5
v 0.5 1.5 0.4
v 0.5 1.5 0.3
v 0.5 1.5 -0.1
v 0.5 1.5 -0.2
v 0.5 1.5 -0.4
v 0.5 1.5 -0.5
v 0.5 1.5 -0.6
v 0.5 1.5 -0.7
v 0.5 1.5 -0.8
v 0.5 1.5 -0.9
v 0.5 1.5 -1.1
v 0.5 1.6 1.1
v 0.5 1.6 0.8
v 0.5 1.6 0.7
v 0.5 1.6 0.5
v 0.5 1.6 0.3
v 0.5 1.6 0.0999999
v 0.5 1.6 0
v 0.5 1.6 -0.4
v 0.5 1.6 -0.6
v 0.5 1.6 -0.7
v 0.5 1.6 -0.8
v 0.5 1.6 -0.9
v 0.5 1.6 -1.1
v 0.5 1.7 0.3
v 0.5 1.7 0.0999999
v 0.5 1.8 1.1
v 0.5 1.8 1
v 0.5 1.8 0.9
v 0.5 1.8 0.8
v 0.5 1.8 0.6
v 0.5 1.8 0.4
v 0.5 1.8 0.2
v 0.5 1.8 0.0999999
v 0.5 2 1.1
v 0.5 2 1
v 0.5 2 0.9
v 0.5 2 0.6
v 0.5 2.1 0.9
v 0.5 2.1 0.6
v 0.5 2.1 0.4
v 0.5 2.1 0.3
v 0.5 2.1 0.2
v 0.5 2.2 0.7
v 0.5 2.2 0.6
v 0.5 2.2 0.5
v 0.5 2.2 0.3
v 0.5 2.2 0.2
v 0.5 2.3 1.1
v 0.5 2.3 0.9
v 0.5 2.3 0.4
v 0.5 2.3 0.3
v 0.5 2.4 0.7
v 0.5 2.4 0.6
v 0.5 2.4 0.5
v 0.5 2.5 0.9
v 0.5 2.5 0.7
v 0.5 2.5 0.6
v 0.5 2.5 0.5
v 0.5 2.5 0.4
v 0.6 2.7 0.7
v 0.6 2.7 0.6
v 0.6 2.7 0.5
v 0.6 2.8 0.7
v 0.6 2.8 0.6
v 0.6 2.8 0.5
v 0.7 2.6 0.7
v 0.7 2.6 0.6
v 0.7 2.6 0.5
v 0.7 2.7 0.7
v 0.7 2.7 0.6
v 0.7 2.7 0.5
v 0.8 2.3 0.7
v 0.8 2.3 0.5
v 0.8 2.5 0.7
v 0.8 2.5 0.6
v 0.8 2.5 0.5
v 0.8 2.6 0.7
v 0.8 2.6 0.6
v 0.8 2.6 0.5
v -0.1 2 1.8
v -0.1 2.1 1.8
v -0.1 2.2 1.8
v 5.96046e-08 2.1 1.8
v 5.96046e-08 2.2 1.8
v 0.1 2 1.8
v 0.1 2.2 1.8
v -0.2 1.9 1.7
v -0.2 2.2 1.7
v -0.1 2 1.7
v -0.1 2.1 1.7
v -0.1 2.2 1.7
v 0.1 2 1.7
v 0.1 2.2 1.7
v 0.2 1.9 1.7
v 0.2 2.2 1.7
v -0.2 1.7 1.6
v -0.2 1.9 1.6
v 0.1 1.8 1.6
v 0.1 1.9 1.6
v 0.2 1.7 1.6
v 0.2 1.8 1.6
v 0.2 1.9 1.6
v -0.2 1.6 1.4
v -0.2 1.7 1.4
v -0.1 1.7 1.4
v 0.1 1.6 1.4
v 0.1 1.7 1.4
v 0.2 1.6 1.4
v 0.2 1.7 1.4
v -0.5 1.6 1.1
v -0.5 1.9 1.1
v -0.5 2 1.1
v -0.5 2.3 1.1
v -0.4 1.9 1.1
v -0.4 2 1.1
v -0.4 2.1 1.1
v -0.4 2.3 1.1
v -0.3 2 1.1
v -0.3 2.1 1.1
v -0.3 2.3 1.1
v -0.3 2.5 1.1
v -0.2 1.6 1.1
v -0.2 1.8 1.1
v -0.2 2.1 1.1
v -0.2 2.2 1.1
v -0.2 2.3 1.1
v -0.2 2.4 1.1
v -0.2 2.5 1.1
v 5.96046e-08 2.4 1.1
v 5.96046e-08 2.5 1.1
v 0.1 2.3 1.1
v 0.1 2.5 1.1
v 0.2 1.6 1.1
v 0.2 2.1 1.1
v 0.2 2.2 1.1
v 0.2 2.3 1.1
v 0.3 1.8 1.1
v 0.3 2 1.1
v 0.3 2.3 1.1
v 0.3 2.5 1.1
v 0.4 2.1 1.1
v 0.4 2.3 1.1
v 0.5 1.6 1.1
v 0.5 1.8 1.1
v 0.5 2 1.1
v 0.5 2.3 1.1
v -0.5 2.3 0.9
v -0.5 2.4 0.9
v -0.5 2.5 0.9
v -0.4 2.3 0.9
v -0.4 2.4 0.9
v -0.4 2.5 0.9
v -0.3 2.3 0.9
v -0.3 2.5 0.9
v 0.3 2.3 0.9
v 0.3 2.5 0.9
v 0.5 2.3 0.9
v 0.5 2.5 0.9
v -0.2 1.2 0.8
v -0.2 1.4 0.8
v -0.2 1.6 0.8
v -0.1 0.9 0.8
v -0.1 1.1 0.8
v -0.1 1.2 0.8
v -0.1 1.4 0.8
v -0.1 1.6 0.8
v 5.96046e-08 1.2 0.8
v 5.96046e-08 1.3 0.8
v 0.1 0.9 0.8
v 0.1 1.1 0.8
v 0.1 1.2 0.8
v 0.2 1.2 0.8
v 0.2 1.3 0.8
v 0.2 1.6 0.8
v -0.8 2.3 0.7
v -0.8 2.4 0.7
v -0.8 2.6 0.7
v -0.7 2.3 0.7
v -0.7 2.4 0.7
v -0.7 2.5 0.7
v -0.7 2.6 0.7
v -0.7 2.7 0.7
v -0.6 2.4 0.7
v -0.6 2.5 0.7
v -0.6 2.6 0.7
v -0.6 2.7 0.7
v -0.6 2.8 0.7
v -0.5 0 0.7
v -0.5 0.3 0.7
v -0.5 0.5 0.7
v -0.5 0.6 0.7
v -0.5 0.7 0.7
v -0.5 0.8 0.7
v -0.5 1 0.7
v -0.5 1.2 0.7
v -0.5 1.6 0.7
v -0.5 2.5 0.7
v -0.5 2.6 0.7
v -0.5 2.7 0.7
v -0.5 2.8 0.7
v -0.4 0.5 0.7
v -0.4 0.6 0.7
v -0.4 0.7 0.7
v -0.4 0.9 0.7
v -0.4 1 0.7
v -0.4 1.2 0.7
v -0.4 1.3 0.7
v -0.4 2.5 0.7
v -0.4 2.6 0.7
v -0.4 2.7 0.7
v -0.3 0.6 0.7
v -0.3 0.7 0.7
v -0.3 0.8 0.7
v -0.3 1 0.7
v -0.3 1.2 0.7
v -0.3 1.3 0.7
v -0.3 2.5 0.7
v -0.3 2.6 0.7
v -0.2 0.6 0.7
v -0.2 0.8 0.7
v -0.2 0.9 0.7
v -0.2 1 0.7
v -0.2 1.2 0.7
v -0.2 1.4 0.7
v -0.2 1.6 0.7
v -0.1 0 0.7
v -0.1 0.3 0.7
v -0.1 0.8 0.7
v -0.1 0.9 0.7
v -0.1 1.1 0.7
v -0.1 1.2 0.7
v 0.1 0 0.7
v 0.1 0.1 0.7
v 0.1 0.2 0.7
v 0.1 0.3 0.7
v 0.1 0.5 0.7
v 0.1 0.7 0.7
v 0.1 0.8 0.7
v 0.1 0.9 0.7
v 0.1 1.1 0.7
v 0.1 1.2 0.7
v 0.2 0.4 0.7
v 0.2 0.5 0.7
v 0.2 0.6 0.7
v 0.2 0.7 0.7
v 0.2 1.1 0.7
v 0.2 1.2 0.7
v 0.2 1.3 0.7
v 0.2 1.6 0.7
v 0.3 0.1 0.7
v 0.3 0.2 0.7
v 0.3 0.4 0.7
v 0.3 0.5 0.7
v 0.3 0.6 0.7
v 0.3 0.7 0.7
v 0.3 0.8 0.7
v 0.3 0.9 0.7
v 0.3 1.1 0.7
v 0.3 1.2 0.7
v 0.3 1.4 0.7
v 0.3 1.5 0.7
v 0.3 2.5 0.7
v 0.3 2.6 0.7
v 0.4 0.6 0.7
v 0.4 0.7 0.7
v 0.4 0.8 0.7
v 0.4 0.9 0.7
v 0.4 1 0.7
v 0.4 1.6 0.7
v 0.4 2.6 0.7
v 0.4 2.7 0.7
v 0.5 0 0.7
v 0.5 0.3 0.7
v 0.5 0.5 0.7
v 0.5 0.6 0.7
v 0.5 0.7 0.7
v 0.5 0.8 0.7
v 0.5 1 0.7
v 0.5 1.1 0.7
v 0.5 1.2 0.7
v 0.5 1.4 0.7
v 0.5 1.5 0.7
v 0.5 1.6 0.7
v 0.5 2.5 0.7
v 0.5 2.7 0.7
v 0.5 2.8 0.7
v 0.6 2.4 0.7
v 0.6 2.5 0.7
v 0.6 2.6 0.7
v 0.6 2.7 0.7
v 0.6 2.8 0.7
v 0.7 2.3 0.7
v 0.7 2.4 0.7
v 0.7 2.5 0.7
v 0.7 2.6 0.7
v 0.7 2.7 0.7
v 0.8 2.3 0.7
v 0.8 2.5 0.7
v 0.8 2.6 0.7
v -0.5 0 -0.7
v -0.5 0.3 -0.7
v -0.5 0.8 -0.7
v -0.1 0 -0.7
v -0.1 0.3 -0.7
v -0.1 0.8 -0.7
v 0.1 0 -0.7
v 0.1 0.3 -0.7
v 0.1 0.8 -0.7
v 0.4 0.7 -0.7
v 0.4 0.8 -0.7
v 0.5 0 -0.7
v 0.5 0.3 -0.7
v 0.5 0.7 -0.7
v 0.5 0.8 -0.7
v -0.1 2.5 -0.9
v -0.1 2.6 -0.9
v 5.96046e-08 2.5 -0.9
v 5.96046e-08 2.6 -0.9
v 0.1 2.5 -0.9
v 0.1 2.6 -0.9
v -0.1 2.4 -1
v -0.1 2.5 -1
v 5.96046e-08 2.4 -1
v 5.96046e-08 2.5 -1
v 0.1 2.4 -1
v 0.1 2.5 -1
v -0.1 2.3 -1.1
v -0.1 2.4 -1.1
v 5.96046e-08 2.4 -1.1
v 0.1 2.3 -1.1
v 0.1 2.4 -1.1
v -0.1 1.6 -1.3
v -0.1 1.8 -1.3
v -0.1 2.1 -1.3
v -0.1 2.3 -1.3
v 5.96046e-08 1.6 -1.3
v 5.96046e-08 1.7 -1.3
v 5.96046e-08 1.8 -1.3
v 5.96046e-08 2.1 -1.3
v 5.96046e-08 2.3 -1.3
v 0.1 1.6 -1.3
v 0.1 1.7 -1.3
v 0.1 1.8 -1.3
v 0.1 2.1 -1.3
v 0.1 2.3 -1.3
v -0.1 1.8 -1.4
v -0.1 1.9 -1.4
v -0.1 2.1 -1.4
v 5.96046e-08 1.8 -1.4
v 5.96046e-08 1.9 -1.4
v 5.96046e-08 2 -1.4
v 5.96046e-08 2.1 -1.4
v 0.1 1.8 -1.4
v 0.1 2 -1.4
v 0.1 2.1 -1.4
v -0.8 2.3 0.5
v -0.8 2.4 0.5
v -0.8 2.6 0.5
v -0.7 2.3 0.5
v -0.7 2.4 0.5
v -0.7 2.6 0.5
v -0.7 2.7 0.5
v -0.6 2.4 0.5
v -0.6 2.5 0.5
v -0.6 2.7 0.5
v -0.6 2.8 0.5
v -0.5 2.5 0.5
v -0.5 2.7 0.5
v -0.5 2.8 0.5
v -0.4 2.5 0.5
v -0.4 2.6 0.5
v -0.4 2.7 0.5
v -0.3 2.5 0.5
v -0.3 2.6 0.5
v 0.3 2.5 0.5
v 0.3 2.6 0.5
v 0.4 2.6 0.5
v 0.4 2.7 0.5
v 0.5 2.5 0.5
v 0.5 2.7 0.5
v 0.5 2.8 0.5
v 0.6 2.4 0.5
v 0.6 2.5 0.5
v 0.6 2.7 0.5
v 0.6 2.8 0.5
v 0.7 2.3 0.5
v 0.7 2.4 0.5
v 0.7 2.5 0.5
v 0.7 2.6 0.5
v 0.7 2.7 0.5
v 0.8 2.3 0.5
v 0.8 2.5 0.5
v 0.8 2.6 0.5
v -0.5 2.3 0.4
v -0.5 2.5 0.4
v -0.4 2.3 0.4
v -0.4 2.4 0.4
v -0.4 2.5 0.4
v -0.3 2.4 0.4
v -0.3 2.5 0.4
v 0.3 2.4 0.4
v 0.3 2.5 0.4
v 0.4 2.3 0.4
v 0.4 2.4 0.4
v 0.5 2.3 0.4
v 0.5 2.5 0.4
v -0.5 0 0.3
v -0.5 0.3 0.3
v -0.5 0.4 0.3
v -0.5 0.6 0.3
v -0.5 0.7 0.3
v -0.5 0.8 0.3
v -0.5 2.2 0.3
v -0.5 2.3 0.3
v -0.4 0.7 0.3
v -0.4 0.8 0.3
v -0.4 2.2 0.3
v -0.4 2.3 0.3
v -0.4 2.4 0.3
v -0.3 0.4 0.3
v -0.3 0.6 0.3
v -0.3 2.3 0.3
v -0.3 2.4 0.3
v -0.3 2.5 0.3
v -0.2 2.3 0.3
v -0.2 2.4 0.3
v -0.2 2.5 0.3
v -0.1 0 0.3
v -0.1 0.3 0.3
v -0.1 0.8 0.3
v 0.1 0 0.3
v 0.1 0.3 0.3
v 0.1 0.8 0.3
v 0.2 0.5 0.3
v 0.2 0.8 0.3
v 0.2 2.3 0.3
v 0.2 2.4 0.3
v 0.2 2.5 0.3
v 0.3 0.8 0.3
v 0.3 2.4 0.3
v 0.3 2.5 0.3
v 0.4 2.2 0.3
v 0.4 2.3 0.3
v 0.4 2.4 0.3
v 0.5 0 0.3
v 0.5 0.3 0.3
v 0.5 0.5 0.3
v 0.5 0.8 0.3
v 0.5 2.2 0.3
v 0.5 2.3 0.3
v -0.5 1.8 0.2
v -0.5 1.9 0.2
v -0.5 2.2 0.2
v -0.4 1.8 0.2
v -0.4 1.9 0.2
v -0.4 2.1 0.2
v -0.4 2.2 0.2
v -0.4 2.3 0.2
v -0.3 2.2 0.2
v -0.3 2.3 0.2
v -0.2 2.4 0.2
v -0.2 2.5 0.2
v -0.1 2.4 0.2
v 5.96046e-08 2.4 0.2
v 0.1 2.4 0.2
v 0.1 2.5 0.2
v 0.2 2.4 0.2
v 0.2 2.5 0.2
v 0.3 2.2 0.2
v 0.3 2.3 0.2
v 0.4 1.8 0.2
v 0.4 2.1 0.2
v 0.4 2.2 0.2
v 0.4 2.3 0.2
v 0.5 1.8 0.2
v 0.5 2.1 0.2
v 0.5 2.2 0.2
v -0.5 1.6 0.0999999
v -0.5 1.8 0.0999999
v -0.4 1.8 0.0999999
v -0.4 2.1 0.0999999
v -0.4 2.2 0.0999999
v -0.3 1.6 0.0999999
v -0.3 2.2 0.0999999
v -0.3 2.3 0.0999999
v -0.2 1.8 0.0999999
v -0.2 2.1 0.0999999
v -0.2 2.3 0.0999999
v -0.2 2.4 0.0999999
v -0.1 1.6 0.0999999
v -0.1 2.2 0.0999999
v -0.1 2.4 0.0999999
v 5.96046e-08 2.2 0.0999999
v 5.96046e-08 2.4 0.0999999
v 0.1 1.6 0.0999999
v 0.1 1.7 0.0999999
v 0.1 1.8 0.0999999
v 0.1 2.1 0.0999999
v 0.1 2.2 0.0999999
v 0.1 2.3 0.0999999
v 0.2 1.6 0.0999999
v 0.2 2.3 0.0999999
v 0.2 2.4 0.0999999
v 0.3 1.8 0.0999999
v 0.3 2.1 0.0999999
v 0.3 2.2 0.0999999
v 0.3 2.3 0.0999999
v 0.4 1.6 0.0999999
v 0.4 1.7 0.0999999
v 0.4 1.8 0.0999999
v 0.4 2.2 0.0999999
v 0.5 1.6 0.0999999
v 0.5 1.7 0.0999999
v 0.5 1.8 0.0999999
v -0.1 1.8 0
v -0.1 2.2 0
v 5.96046e-08 1.8 0
v 5.96046e-08 2.2 0
v 0.1 1.8 0
v 0.1 2.2 0
v -0.1 1.7 -0.1
v -0.1 1.8 -0.1
v 5.96046e-08 1.7 -0.1
v 0.1 1.7 -0.1
v 0.1 1.8 -0.1
v -0.1 1.6 -0.3
v -0.1 1.7 -0.3
v 5.96046e-08 1.6 -0.3
v 5.96046e-08 1.7 -0.3
v 0.1 1.6 -0.3
v 0.1 1.7 -0.3
v -0.5 0 -1.1
v -0.5 0.3 -1.1
v -0.5 0.5 -1.1
v -0.5 0.7 -1.1
v -0.5 0.8 -1.1
v -0.5 1 -1.1
v -0.5 1.2 -1.1
v -0.5 1.4 -1.1
v -0.5 1.6 -1.1
v -0.4 0.8 -1.1
v -0.4 1 -1.1
v -0.4 1.4 -1.1
v -0.4 1.5 -1.1
v -0.4 1.6 -1.1
v -0.3 1.5 -1.1
v -0.3 1.6 -1.1
v -0.2 0.7 -1.1
v -0.2 1.2 -1.1
v -0.1 0 -1.1
v -0.1 0.3 -1.1
v -0.1 0.5 -1.1
v -0.1 0.7 -1.1
v -0.1 0.8 -1.1
v -0.1 1.1 -1.1
v -0.1 1.2 -1.1
v -0.1 1.3 -1.1
v -0.1 1.5 -1.1
v -0.1 1.6 -1.1
v 0.1 0 -1.1
v 0.1 0.3 -1.1
v 0.1 0.8 -1.1
v 0.1 1.1 -1.1
v 0.1 1.3 -1.1
v 0.1 1.5 -1.1
v 0.1 1.6 -1.1
v 0.2 1.5 -1.1
v 0.2 1.6 -1.1
v 0.4 0.4 -1.1
v 0.4 0.6 -1.1
v 0.4 0.9 -1.1
v 0.4 1.1 -1.1
v 0.5 0 -1.1
v 0.5 0.3 -1.1
v 0.5 0.4 -1.1
v 0.5 0.6 -1.1
v 0.5 0.9 -1.1
v 0.5 1.1 -1.1
v 0.5 1.5 -1.1
v 0.5 1.6 -1.1
v -0.1 1.1 -1.2
v -0.1 1.2 -1.2
v -0.1 2.5 -1.2
v -0.1 2.6 -1.2
v 5.96046e-08 2.5 -1.2
v 5.96046e-08 2.6 -1.2
v 0.1 1.1 -1.2
v 0.1 1.2 -1.2
v 0.1 2.5 -1.2
v 0.1 2.6 -1.2
v -0.1 1.2 -1.4
v -0.1 1.3 -1.4
v 0.1 1.2 -1.4
v 0.1 1.3 -1.4
v -0.1 1.3 -1.5
v -0.1 1.4 -1.5
v -0.1 2.3 -1.5
v -0.1 2.5 -1.5
v 5.96046e-08 2.3 -1.5
v 5.96046e-08 2.4 -1.5
v 5.96046e-08 2.5 -1.5
v 0.1 1.3 -1.5
v 0.1 1.4 -1.5
v 0.1 2.3 -1.5
v 0.1 2.4 -1.5
v 0.1 2.5 -1.5
v -0.1 1.4 -1.6
v -0.1 1.5 -1.6
v 0.1 1.4 -1.6
v 0.1 1.5 -1.6
v -0.1 1.5 -1.7
v -0.1 1.7 -1.7
v -0.1 2.1 -1.7
v -0.1 2.3 -1.7
v 0.1 1.5 -1.7
v 0.1 1.7 -1.7
v 0.1 2.1 -1.7
v 0.1 2.3 -1.7
v -0.1 1.7 -1.8
v -0.1 1.8 -1.8
v -0.1 2 -1.8
v -0.1 2.1 -1.8
v 0.1 1.7 -1.8
v 0.1 1.8 -1.8
v 0.1 2 -1.8
v 0.1 2.1 -1.8
v -0.1 1.8 -1.9
v -0.1 2 -1.9
v 0.1 1.8 -1.9
v 0.1 2 -1.9
v -0.5 0 0.7
v -0.1 0 0.7
v 0.1 0 0.7
v 0.5 0 0.7
v -0.5 0 0.6
v -0.1 0 0.6
v -0.5 0 0.3
v -0.1 0 0.3
v 0.1 0 0.3
v 0.5 0 0.3
v -0.5 0 -0.7
v -0.1 0 -0.7
v 0.1 0 -0.7
v 0.5 0 -0.7
v -0.5 0 -1.1
v -0.1 0 -1.1
v 0.1 0 -1.1
v 0.5 0 -1.1
v -0.1 0.8 0.7
v 0.1 0.8 0.7
v -0.1 0.8 0.4
v 0.1 0.8 0.4
v -0.5 0.8 0.3
v -0.4 0.8 0.3
v -0.1 0.8 0.3
v 0.1 0.8 0.3
v 0.2 0.8 0.3
v 0.3 0.8 0.3
v 0.5 0.8 0.3
v 0.2 0.8 0.2
v 0.3 0.8 0.2
v 0.1 0.8 0.0999999
v 0.2 0.8 0.0999999
v 0.1 0.8 0
v 0.2 0.8 0
v 0.3 0.8 0
v 0.1 0.8 -0.1
v 0.2 0.8 -0.1
v 0.3 0.8 -0.1
v -0.5 0.8 -0.2
v -0.4 0.8 -0.2
v 0.2 0.8 -0.2
v 0.3 0.8 -0.2
v -0.5 0.8 -0.3
v -0.4 0.8 -0.3
v -0.3 0.8 -0.3
v -0.2 0.8 -0.3
v -0.1 0.8 -0.3
v 0.1 0.8 -0.3
v 0.3 0.8 -0.3
v -0.5 0.8 -0.4
v -0.4 0.8 -0.4
v 0.4 0.8 -0.4
v 0.5 0.8 -0.4
v -0.5 0.8 -0.5
v -0.3 0.8 -0.5
v -0.1 0.8 -0.5
v 5.96046e-08 0.8 -0.5
v -0.5 0.8 -0.6
v -0.2 0.8 -0.6
v 0.4 0.8 -0.6
v 0.5 0.8 -0.6
v -0.5 0.8 -0.7
v -0.1 0.8 -0.7
v 0.1 0.8 -0.7
v 0.4 0.8 -0.7
v 0.5 0.8 -0.7
v -0.1 0.8 -0.9
v 5.96046e-08 0.8 -0.9
v -0.1 0.8 -1
v 0.1 0.8 -1
v -0.1 0.8 -1.1
v 0.1 0.8 -1.1
v -0.1 0.9 0.8
v 0.1 0.9 0.8
v -0.1 0.9 0.7
v 0.1 0.9 0.7
v -0.1 1.1 -1.1
v 0.1 1.1 -1.1
v -0.1 1.1 -1.2
v 0.1 1.1 -1.2
v -0.2 1.2 0.8
v -0.1 1.2 0.8
v 0.1 1.2 0.8
v 0.2 1.2 0.8
v -0.2 1.2 0.7
v -0.1 1.2 0.7
v 0.1 1.2 0.7
v 0.2 1.2 0.7
v -0.1 1.2 -1.2
v 0.1 1.2 -1.2
v -0.1 1.2 -1.4
v 0.1 1.2 -1.4
v -0.1 1.3 -1.4
v 0.1 1.3 -1.4
v -0.1 1.3 -1.5
v 0.1 1.3 -1.5
v -0.1 1.4 -1.5
v 0.1 1.4 -1.5
v -0.1 1.4 -1.6
v 0.1 1.4 -1.6
v -0.1 1.5 -1.6
v 0.1 1.5 -1.6
v -0.1 1.5 -1.7
v 0.1 1.5 -1.7
v -0.2 1.6 1.4
v 0.1 1.6 1.4
v 0.2 1.6 1.4
v 0.1 1.6 1.2
v 0.2 1.6 1.2
v -0.5 1.6 1.1
v -0.2 1.6 1.1
v 0.2 1.6 1.1
v 0.5 1.6 1.1
v -0.2 1.6 0.8
v -0.1 1.6 0.8
v 0.2 1.6 0.8
v 0.4 1.6 0.8
v 0.5 1.6 0.8
v -0.5 1.6 0.7
v -0.2 1.6 0.7
v 0.2 1.6 0.7
v 0.4 1.6 0.7
v 0.5 1.6 0.7
v -0.2 1.7 1.6
v 0.2 1.7 1.6
v -0.2 1.7 1.5
v -0.1 1.7 1.5
v 0.1 1.7 1.5
v 0.2 1.7 1.5
v -0.2 1.7 1.4
v -0.1 1.7 1.4
v 0.1 1.7 1.4
v 0.2 1.7 1.4
v -0.1 1.7 -1.7
v 0.1 1.7 -1.7
v -0.1 1.7 -1.8
v 0.1 1.7 -1.8
v -0.1 1.8 -1.8
v 0.1 1.8 -1.8
v -0.1 1.8 -1.9
v 0.1 1.8 -1.9
v -0.2 1.9 1.7
v 0.2 1.9 1.7
v -0.2 1.9 1.6
v 0.1 1.9 1.6
v 0.2 1.9 1.6
v -0.1 2 1.8
v 0.1 2 1.8
v -0.1 2 1.7
v 0.1 2 1.7
v -0.1 2.1 -1.3
v 5.96046e-08 2.1 -1.3
v 0.1 2.1 -1.3
v -0.1 2.1 -1.4
v 5.96046e-08 2.1 -1.4
v 0.1 2.1 -1.4
v -0.8 2.3 0.7
v -0.7 2.3 0.7
v 0.7 2.3 0.7
v 0.8 2.3 0.7
v -0.8 2.3 0.5
v -0.7 2.3 0.5
v 0.7 2.3 0.5
v 0.8 2.3 0.5
v -0.1 2.3 -1.1
v 0.1 2.3 -1.1
v -0.1 2.3 -1.2
v 5.96046e-08 2.3 -1.2
v 0.1 2.3 -1.2
v -0.1 2.3 -1.3
v 5.96046e-08 2.3 -1.3
v 0.1 2.3 -1.3
v -0.7 2.4 0.7
v -0.6 2.4 0.7
v 0.6 2.4 0.7
v 0.7 2.4 0.7
v -0.7 2.4 0.6
v -0.6 2.4 0.6
v -0.7 2.4 0.5
v -0.6 2.4 0.5
v 0.6 2.4 0.5
v 0.7 2.4 0.5
v -0.1 2.4 -1
v 5.96046e-08 2.4 -1
v 0.1 2.4 -1
v -0.1 2.4 -1.1
v 5.96046e-08 2.4 -1.1
v 0.1 2.4 -1.1
v -0.6 2.5 0.7
v -0.5 2.5 0.7
v 0.5 2.5 0.7
v 0.6 2.5 0.7
v -0.6 2.5 0.6
v -0.5 2.5 0.6
v 0.5 2.5 0.6
v -0.6 2.5 0.5
v -0.5 2.5 0.5
v 0.5 2.5 0.5
v 0.6 2.5 0.5
v -0.1 2.5 -0.9
v 5.96046e-08 2.5 -0.9
v 0.1 2.5 -0.9
v -0.1 2.5 -1
v 5.96046e-08 2.5 -1
v 0.1 2.5 -1
v -0.5 1.6 0.0999999
v -0.3 1.6 0.0999999
v -0.1 1.6 0.0999999
v 0.1 1.6 0.0999999
v 0.2 1.6 0.0999999
v 0.4 1.6 0.0999999
v 0.5 1.6 0.0999999
v -0.5 1.6 0
v -0.4 1.6 0
v 0.4 1.6 0
v 0.5 1.6 0
v 0.1 1.6 -0.1
v 0.2 1.6 -0.1
v -0.4 1.6 -0.2
v -0.3 1.6 -0.2
v 0.1 1.6 -0.2
v 0.2 1.6 -0.2
v -0.1 1.6 -0.3
v 5.96046e-08 1.6 -0.3
v 0.1 1.6 -0.3
v -0.3 1.6 -0.4
v -0.2 1.6 -0.4
v -0.1 1.6 -0.4
v 5.96046e-08 1.6 -0.4
v 0.4 1.6 -0.4
v 0.5 1.6 -0.4
v -0.3 1.6 -0.5
v -0.2 1.6 -0.5
v -0.1 1.6 -0.5
v 5.96046e-08 1.6 -0.5
v 0.1 1.6 -0.5
v 0.2 1.6 -0.5
v -0.5 1.6 -0.6
v -0.4 1.6 -0.6
v -0.2 1.6 -0.6
v -0.1 1.6 -0.6
v 5.96046e-08 1.6 -0.6
v 0.1 1.6 -0.6
v 0.2 1.6 -0.6
v 0.4 1.6 -0.6
v 0.5 1.6 -0.6
v -0.5 1.6 -0.7
v -0.4 1.6 -0.7
v 0.1 1.6 -0.7
v 0.2 1.6 -0.7
v 0.4 1.6 -0.7
v 0.5 1.6 -0.7
v -0.5 1.6 -0.8
v -0.4 1.6 -0.8
v -0.3 1.6 -0.8
v -0.2 1.6 -0.8
v -0.1 1.6 -0.8
v 5.96046e-08 1.6 -0.8
v 0.2 1.6 -0.8
v 0.3 1.6 -0.8
v 0.4 1.6 -0.8
v 0.5 1.6 -0.8
v 5.96046e-08 1.6 -0.9
v 0.2 1.6 -0.9
v 0.4 1.6 -0.9
v 0.5 1.6 -0.9
v -0.5 1.6 -1
v -0.4 1.6 -1
v -0.3 1.6 -1
v -0.2 1.6 -1
v -0.1 1.6 -1
v 5.96046e-08 1.6 -1
v 0.1 1.6 -1
v 0.2 1.6 -1
v 0.3 1.6 -1
v -0.5 1.6 -1.1
v -0.4 1.6 -1.1
v -0.3 1.6 -1.1
v -0.1 1.6 -1.1
v 0.1 1.6 -1.1
v 0.2 1.6 -1.1
v 0.5 1.6 -1.1
v 5.96046e-08 1.6 -1.2
v 0.1 1.6 -1.2
v -0.1 1.6 -1.3
v 5.96046e-08 1.6 -1.3
v 0.1 1.6 -1.3
v -0.1 1.7 -0.1
v 5.96046e-08 1.7 -0.1
v 0.1 1.7 -0.1
v -0.1 1.7 -0.3
v 5.96046e-08 1.7 -0.3
v 0.1 1.7 -0.3
v -0.5 1.8 0.2
v -0.4 1.8 0.2
v 0.4 1.8 0.2
v 0.5 1.8 0.2
v -0.5 1.8 0.0999999
v -0.4 1.8 0.0999999
v 0.4 1.8 0.0999999
v 0.5 1.8 0.0999999
v -0.1 1.8 0
v 5.96046e-08 1.8 0
v 0.1 1.8 0
v -0.1 1.8 -0.1
v 0.1 1.8 -0.1
v -0.1 1.8 -1.3
v 5.96046e-08 1.8 -1.3
v 0.1 1.8 -1.3
v -0.1 1.8 -1.4
v 5.96046e-08 1.8 -1.4
v 0.1 1.8 -1.4
v -0.1 2 -1.8
v 0.1 2 -1.8
v -0.1 2 -1.9
v 0.1 2 -1.9
v -0.1 2.1 -1.7
v 0.1 2.1 -1.7
v -0.1 2.1 -1.8
v 0.1 2.1 -1.8
v -0.1 2.2 1.8
v 5.96046e-08 2.2 1.8
v 0.1 2.2 1.8
v -0.2 2.2 1.7
v -0.1 2.2 1.7
v 5.96046e-08 2.2 1.7
v 0.1 2.2 1.7
v 0.2 2.2 1.7
v -0.2 2.2 1.5
v -0.1 2.2 1.5
v 0.1 2.2 1.5
v 0.2 2.2 1.5
v -0.1 2.2 1.4
v 0.1 2.2 1.4
v -0.2 2.2 1.3
v -0.1 2.2 1.3
v 0.1 2.2 1.2
v 0.2 2.2 1.2
v -0.2 2.2 1.1
v 0.2 2.2 1.1
v -0.5 2.2 0.3
v -0.4 2.2 0.3
v 0.4 2.2 0.3
v 0.5 2.2 0.3
v -0.5 2.2 0.2
v -0.4 2.2 0.2
v -0.3 2.2 0.2
v 0.3 2.2 0.2
v 0.4 2.2 0.2
v 0.5 2.2 0.2
v -0.4 2.2 0.0999999
v -0.3 2.2 0.0999999
v -0.1 2.2 0.0999999
v 5.96046e-08 2.2 0.0999999
v 0.1 2.2 0.0999999
v 0.3 2.2 0.0999999
v 0.4 2.2 0.0999999
v -0.1 2.2 0
v 5.96046e-08 2.2 0
v 0.1 2.2 0
v -0.5 2.3 1.1
v -0.4 2.3 1.1
v -0.3 2.3 1.1
v 0.3 2.3 1.1
v 0.4 2.3 1.1
v 0.5 2.3 1.1
v -0.4 2.3 1
v -0.3 2.3 1
v 0.3 2.3 1
v 0.4 2.3 1
v -0.5 2.3 0.9
v -0.4 2.3 0.9
v -0.3 2.3 0.9
v 0.3 2.3 0.9
v 0.5 2.3 0.9
v -0.5 2.3 0.4
v -0.4 2.3 0.4
v 0.4 2.3 0.4
v 0.5 2.3 0.4
v -0.5 2.3 0.3
v -0.4 2.3 0.3
v -0.3 2.3 0.3
v -0.2 2.3 0.3
v 0.2 2.3 0.3
v 0.4 2.3 0.3
v 0.5 2.3 0.3
v -0.4 2.3 0.2
v -0.3 2.3 0.2
v 0.2 2.3 0.2
v 0.3 2.3 0.2
v 0.4 2.3 0.2
v -0.3 2.3 0.0999999
v -0.2 2.3 0.0999999
v 0.2 2.3 0.0999999
v 0.3 2.3 0.0999999
v -0.1 2.3 -1.5
v 5.96046e-08 2.3 -1.5
v 0.1 2.3 -1.5
v -0.1 2.3 -1.6
v 5.96046e-08 2.3 -1.6
v 0.1 2.3 -1.6
v -0.1 2.3 -1.7
v 0.1 2.3 -1.7
v -0.4 2.4 0.4
v -0.3 2.4 0.4
v 0.3 2.4 0.4
v 0.4 2.4 0.4
v -0.4 2.4 0.3
v -0.3 2.4 0.3
v 0.3 2.4 0.3
v 0.4 2.4 0.3
v -0.2 2.4 0.2
v -0.1 2.4 0.2
v 5.96046e-08 2.4 0.2
v 0.1 2.4 0.2
v 0.2 2.4 0.2
v -0.2 2.4 0.0999999
v -0.1 2.4 0.0999999
v 5.96046e-08 2.4 0.0999999
v 0.2 2.4 0.0999999
v -0.3 2.5 1.1
v -0.2 2.5 1.1
v 5.96046e-08 2.5 1.1
v 0.1 2.5 1.1
v 0.3 2.5 1.1
v -0.3 2.5 1
v -0.2 2.5 1
v 5.96046e-08 2.5 1
v 0.1 2.5 1
v -0.5 2.5 0.9
v -0.4 2.5 0.9
v -0.3 2.5 0.9
v 0.3 2.5 0.9
v 0.5 2.5 0.9
v -0.1 2.5 0.8
v 5.96046e-08 2.5 0.8
v -0.5 2.5 0.7
v -0.4 2.5 0.7
v -0.3 2.5 0.7
v 5.96046e-08 2.5 0.7
v 0.2 2.5 0.7
v 0.3 2.5 0.7
v 0.5 2.5 0.7
v -0.2 2.5 0.6
v -0.1 2.5 0.6
v 5.96046e-08 2.5 0.6
v 0.2 2.5 0.6
v 0.3 2.5 0.6
v -0.5 2.5 0.5
v -0.4 2.5 0.5
v -0.3 2.5 0.5
v 0.3 2.5 0.5
v 0.5 2.5 0.5
v -0.5 2.5 0.4
v -0.4 2.5 0.4
v -0.3 2.5 0.4
v 0.3 2.5 0.4
v 0.5 2.5 0.4
v -0.3 2.5 0.3
v -0.2 2.5 0.3
v 0.1 2.5 0.3
v 0.2 2.5 0.3
v 0.3 2.5 0.3
v -0.2 2.5 0.2
v 0.1 2.5 0.2
v 0.2 2.5 0.2
v -0.1 2.5 -1.2
v 5.96046e-08 2.5 -1.2
v 0.1 2.5 -1.2
v -0.1 2.5 -1.4
v 5.96046e-08 2.5 -1.4
v 0.1 2.5 -1.4
v -0.1 2.5 -1.5
v 5.96046e-08 2.5 -1.5
v 0.1 2.5 -1.5
v -0.8 2.6 0.7
v -0.7 2.6 0.7
v -0.4 2.6 0.7
v -0.3 2.6 0.7
v 0.3 2.6 0.7
v 0.4 2.6 0.7
v 0.7 2.6 0.7
v 0.8 2.6 0.7
v -0.7 2.6 0.6
v -0.4 2.6 0.6
v 0.7 2.6 0.6
v 0.8 2.6 0.6
v -0.8 2.6 0.5
v -0.7 2.6 0.5
v -0.4 2.6 0.5
v -0.3 2.6 0.5
v 0.3 2.6 0.5
v 0.4 2.6 0.5
v 0.7 2.6 0.5
v 0.8 2.6 0.5
v -0.1 2.6 -0.9
v 5.96046e-08 2.6 -0.9
v 0.1 2.6 -0.9
v 5.96046e-08 2.6 -1
v 0.1 2.6 -1
v -0.1 2.6 -1.1
v 5.96046e-08 2.6 -1.1
v -0.1 2.6 -1.2
v 5.96046e-08 2.6 -1.2
v 0.1 2.6 -1.2
v -0.7 2.7 0.7
v -0.6 2.7 0.7
v -0.5 2.7 0.7
v -0.4 2.7 0.7
v 0.4 2.7 0.7
v 0.5 2.7 0.7
v 0.6 2.7 0.7
v 0.7 2.7 0.7
v -0.7 2.7 0.6
v -0.6 2.7 0.6
v -0.5 2.7 0.6
v -0.4 2.7 0.6
v 0.5 2.7 0.6
v 0.6 2.7 0.6
v 0.7 2.7 0.6
v -0.7 2.7 0.5
v -0.6 2.7 0.5
v -0.5 2.7 0.5
v -0.4 2.7 0.5
v 0.4 2.7 0.5
v 0.5 2.7 0.5
v 0.6 2.7 0.5
v 0.7 2.7 0.5
v -0.6 2.8 0.7
v -0.5 2.8 0.7
v 0.5 2.8 0.7
v 0.6 2.8 0.7
v 0.5 2.8 0.6
v 0.6 2.8 0.6
v -0.6 2.8 0.5
v -0.5 2.8 0.5
v 0.5 2.8 0.5
v 0.6 2.8 0.5

# faces
f 3/9/1 2/9/1 1/9/1
f 4/9/1 2/9/1 3/9/1
f 5/10/1 4/10/1 3/10/1
f 6/10/1 4/10/1 5/10/1
f 10/10/1 8/10/1 7/10/1
f 11/9/1 9/9/1 8/9/1
f 11/10/1 8/10/1 10/10/1
f 12/9/1 9/9/1 11/9/1
f 16/9/1 14/9/1 13/9/1
f 16/9/1 15/9/1 14/9/1
f 17/9/1 15/9/1 16/9/1
f 23/5/1 19/5/1 18/5/1
f 24/6/1 20/6/1 19/6/1
f 24/5/1 19/5/1 23/5/1
f 25/6/1 20/6/1 24/6/1
f 26/6/1 22/6/1 21/6/1
f 27/6/1 22/6/1 26/6/1
f 28/6/1 22/6/1 27/6/1
f 29/6/1 22/6/1 28/6/1
f 30/8/1 25/8/1 24/8/1
f 30/8/1 24/8/1 23/8/1
f 31/8/1 25/8/1 30/8/1
f 32/8/1 25/8/1 31/8/1
f 33/8/1 25/8/1 32/8/1
f 34/8/1 30/8/1 23/8/1
f 35/7/1 31/7/1 30/7/1
f 35/8/1 30/8/1 34/8/1
f 36/6/1 32/6/1 31/6/1
f 36/7/1 31/7/1 35/7/1
f 37/9/1 33/9/1 32/9/1
f 37/6/1 32/6/1 36/6/1
f 38/8/1 29/8/1 28/8/1
f 38/7/1 28/7/1 27/7/1
f 39/8/1 29/8/1 38/8/1
f 40/6/1 36/6/1 35/6/1
f 40/6/1 35/6/1 34/6/1
f 41/6/1 36/6/1 40/6/1
f 42/9/1 37/9/1 36/9/1
f 42/6/1 36/6/1 41/6/1
f 43/9/1 33/9/1 37/9/1
f 43/9/1 37/9/1 42/9/1
f 44/8/1 27/8/1 26/8/1
f 44/7/1 38/7/1 27/7/1
f 45/7/1 38/7/1 44/7/1
f 46/6/1 39/6/1 38/6/1
f 46/7/1 38/7/1 45/7/1
f 47/9/1 41/9/1 40/9/1
f 48/8/1 42/8/1 41/8/1
f 48/9/1 41/9/1 47/9/1
f 48/8/1 43/8/1 42/8/1
f 49/8/1 43/8/1 48/8/1
f 50/8/1 43/8/1 49/8/1
f 51/8/1 45/8/1 44/8/1
f 51/8/1 44/8/1 26/8/1
f 52/6/1 46/6/1 45/6/1
f 52/8/1 45/8/1 51/8/1
f 53/6/1 39/6/1 46/6/1
f 53/6/1 46/6/1 52/6/1
f 54/6/1 39/6/1 53/6/1
f 55/5/1 48/5/1 47/5/1
f 56/9/1 49/9/1 48/9/1
f 56/5/1 48/5/1 55/5/1
f 57/6/1 50/6/1 49/6/1
f 63/8/1 51/8/1 26/8/1
f 64/7/1 52/7/1 51/7/1
f 64/7/1 53/7/1 52/7/1
f 64/9/1 54/9/1 53/9/1
f 65/9/1 54/9/1 64/9/1
f 66/9/1 49/9/1 56/9/1
f 66/6/1 57/6/1 49/6/1
f 66/6/1 58/6/1 57/6/1
f 67/6/1 58/6/1 66/6/1
f 68/6/1 58/6/1 67/6/1
f 69/8/1 59/8/1 58/8/1
f 69/6/1 60/6/1 59/6/1
f 70/10/1 61/10/1 60/10/1
f 70/6/1 60/6/1 69/6/1
f 71/9/1 62/9/1 61/9/1
f 71/10/1 61/10/1 70/10/1
f 72/8/1 63/8/1 62/8/1
f 72/9/1 62/9/1 71/9/1
f 73/8/1 51/8/1 63/8/1
f 73/8/1 63/8/1 72/8/1
f 73/7/1 64/7/1 51/7/1
f 74/7/1 64/7/1 73/7/1
f 75/6/1 65/6/1 64/6/1
f 75/7/1 64/7/1 74/7/1
f 76/6/1 56/6/1 55/6/1
f 77/9/1 66/9/1 56/9/1
f 77/6/1 56/6/1 76/6/1
f 78/7/1 67/7/1 66/7/1
f 78/9/1 66/9/1 77/9/1
f 79/7/1 67/7/1 78/7/1
f 80/9/1 68/9/1 67/9/1
f 80/7/1 67/7/1 79/7/1
f 81/6/1 58/6/1 68/6/1
f 81/9/1 68/9/1 80/9/1
f 82/8/1 70/8/1 69/8/1
f 82/6/1 58/6/1 81/6/1
f 82/8/1 71/8/1 70/8/1
f 82/8/1 72/8/1 71/8/1
f 82/8/1 74/8/1 73/8/1
f 82/8/1 73/8/1 72/8/1
f 82/8/1 69/8/1 58/8/1
f 83/8/1 74/8/1 82/8/1
f 84/8/1 74/8/1 83/8/1
f 85/8/1 74/8/1 84/8/1
f 86/6/1 75/6/1 74/6/1
f 86/6/1 65/6/1 75/6/1
f 87/6/1 65/6/1 86/6/1
f 88/6/1 78/6/1 77/6/1
f 88/7/1 79/7/1 78/7/1
f 89/9/1 81/9/1 80/9/1
f 89/7/1 79/7/1 88/7/1
f 89/9/1 80/9/1 79/9/1
f 89/9/1 82/9/1 81/9/1
f 89/9/1 83/9/1 82/9/1
f 90/9/1 83/9/1 89/9/1
f 91/9/1 83/9/1 90/9/1
f 92/9/1 83/9/1 91/9/1
f 93/9/1 83/9/1 92/9/1
f 94/6/1 84/6/1 83/6/1
f 94/9/1 83/9/1 93/9/1
f 95/9/1 85/9/1 84/9/1
f 95/6/1 84/6/1 94/6/1
f 96/9/1 85/9/1 95/9/1
f 97/5/1 77/5/1 76/5/1
f 98/6/1 88/6/1 77/6/1
f 98/5/1 77/5/1 97/5/1
f 98/6/1 89/6/1 88/6/1
f 99/10/1 90/10/1 89/10/1
f 99/6/1 89/6/1 98/6/1
f 100/9/1 91/9/1 90/9/1
f 100/10/1 90/10/1 99/10/1
f 101/9/1 91/9/1 100/9/1
f 102/10/1 92/10/1 91/10/1
f 102/9/1 91/9/1 101/9/1
f 103/9/1 93/9/1 92/9/1
f 103/10/1 92/10/1 102/10/1
f 104/10/1 96/10/1 95/10/1
f 104/9/1 95/9/1 94/9/1
f 105/9/1 85/9/1 96/9/1
f 105/10/1 96/10/1 104/10/1
f 106/8/1 74/8/1 85/8/1
f 106/9/1 85/9/1 105/9/1
f 107/6/1 86/6/1 74/6/1
f 107/8/1 74/8/1 106/8/1
f 108/9/1 87/9/1 86/9/1
f 108/6/1 86/6/1 107/6/1
f 109/9/1 87/9/1 108/9/1
f 110/8/1 98/8/1 97/8/1
f 110/6/1 99/6/1 98/6/1
f 111/6/1 99/6/1 110/6/1
f 112/9/1 100/9/1 99/9/1
f 112/6/1 99/6/1 111/6/1
f 113/10/1 101/10/1 100/10/1
f 113/9/1 100/9/1 112/9/1
f 114/9/1 102/9/1 101/9/1
f 114/10/1 101/10/1 113/10/1
f 114/9/1 103/9/1 102/9/1
f 115/9/1 103/9/1 114/9/1
f 116/9/1 103/9/1 115/9/1
f 117/10/1 94/10/1 93/10/1
f 117/9/1 103/9/1 116/9/1
f 117/9/1 93/9/1 103/9/1
f 118/10/1 94/10/1 117/10/1
f 119/9/1 105/9/1 104/9/1
f 119/10/1 94/10/1 118/10/1
f 119/9/1 104/9/1 94/9/1
f 119/9/1 106/9/1 105/9/1
f 120/9/1 106/9/1 119/9/1
f 121/7/1 107/7/1 106/7/1
f 121/9/1 106/9/1 120/9/1
f 121/7/1 109/7/1 108/7/1
f 121/7/1 108/7/1 107/7/1
f 122/8/1 110/8/1 97/8/1
f 122/9/1 111/9/1 110/9/1
f 123/8/1 112/8/1 111/8/1
f 123/9/1 111/9/1 122/9/1
f 124/9/1 113/9/1 112/9/1
f 124/8/1 112/8/1 123/8/1
f 125/6/1 114/6/1 113/6/1
f 125/9/1 113/9/1 124/9/1
f 126/9/1 115/9/1 114/9/1
f 126/6/1 114/6/1 125/6/1
f 127/7/1 116/7/1 115/7/1
f 127/9/1 115/9/1 126/9/1
f 128/9/1 117/9/1 116/9/1
f 129/6/1 118/6/1 117/6/1
f 129/9/1 117/9/1 128/9/1
f 130/7/1 120/7/1 119/7/1
f 130/8/1 121/8/1 120/8/1
f 131/7/1 109/7/1 121/7/1
f 131/8/1 121/8/1 130/8/1
f 132/7/1 109/7/1 131/7/1
f 133/7/1 109/7/1 132/7/1
f 134/8/1 124/8/1 123/8/1
f 134/8/1 123/8/1 122/8/1
f 134/8/1 125/8/1 124/8/1
f 135/8/1 125/8/1 134/8/1
f 136/10/1 126/10/1 125/10/1
f 136/8/1 125/8/1 135/8/1
f 137/6/1 127/6/1 126/6/1
f 137/10/1 126/10/1 136/10/1
f 138/7/1 116/7/1 127/7/1
f 138/6/1 127/6/1 137/6/1
f 139/9/1 128/9/1 116/9/1
f 139/7/1 116/7/1 138/7/1
f 140/10/1 129/10/1 128/10/1
f 140/9/1 128/9/1 139/9/1
f 141/6/1 118/6/1 129/6/1
f 141/10/1 129/10/1 140/10/1
f 142/9/1 119/9/1 118/9/1
f 142/6/1 118/6/1 141/6/1
f 143/7/1 132/7/1 131/7/1
f 143/9/1 119/9/1 142/9/1
f 143/7/1 130/7/1 119/7/1
f 143/7/1 131/7/1 130/7/1
f 144/7/1 132/7/1 143/7/1
f 145/7/1 132/7/1 144/7/1
f 146/7/1 132/7/1 145/7/1
f 147/9/1 133/9/1 132/9/1
f 147/7/1 132/7/1 146/7/1
f 149/8/1 122/8/1 97/8/1
f 149/8/1 134/8/1 122/8/1
f 150/6/1 135/6/1 134/6/1
f 150/8/1 134/8/1 149/8/1
f 151/8/1 138/8/1 137/8/1
f 151/6/1 135/6/1 150/6/1
f 151/8/1 137/8/1 136/8/1
f 151/8/1 136/8/1 135/8/1
f 152/8/1 138/8/1 151/8/1
f 153/7/1 140/7/1 139/7/1
f 153/8/1 138/8/1 152/8/1
f 153/7/1 142/7/1 141/7/1
f 153/7/1 141/7/1 140/7/1
f 153/7/1 144/7/1 143/7/1
f 153/7/1 143/7/1 142/7/1
f 153/7/1 139/7/1 138/7/1
f 154/9/1 145/9/1 144/9/1
f 154/7/1 144/7/1 153/7/1
f 155/7/1 146/7/1 145/7/1
f 155/9/1 145/9/1 154/9/1
f 156/8/1 147/8/1 146/8/1
f 156/7/1 146/7/1 155/7/1
f 157/9/1 133/9/1 147/9/1
f 157/8/1 147/8/1 156/8/1
f 158/9/1 133/9/1 157/9/1
f 159/8/1 149/8/1 148/8/1
f 160/8/1 149/8/1 159/8/1
f 161/8/1 149/8/1 160/8/1
f 162/7/1 150/7/1 149/7/1
f 162/8/1 149/8/1 161/8/1
f 162/7/1 152/7/1 151/7/1
f 162/7/1 151/7/1 150/7/1
f 163/7/1 152/7/1 162/7/1
f 164/7/1 152/7/1 163/7/1
f 165/9/1 160/9/1 159/9/1
f 165/8/1 159/8/1 148/8/1
f 166/6/1 161/6/1 160/6/1
f 166/9/1 160/9/1 165/9/1
f 167/9/1 162/9/1 161/9/1
f 167/6/1 161/6/1 166/6/1
f 168/9/1 164/9/1 163/9/1
f 169/7/1 152/7/1 164/7/1
f 169/9/1 164/9/1 168/9/1
f 170/7/1 152/7/1 169/7/1
f 171/7/1 152/7/1 170/7/1
f 172/8/1 165/8/1 148/8/1
f 172/8/1 166/8/1 165/8/1
f 173/9/1 167/9/1 166/9/1
f 173/8/1 166/8/1 172/8/1
f 174/9/1 168/9/1 163/9/1
f 174/10/1 169/10/1 168/10/1
f 175/7/1 170/7/1 169/7/1
f 175/10/1 169/10/1 174/10/1
f 176/7/1 170/7/1 175/7/1
f 177/7/1 173/7/1 172/7/1
f 178/9/1 167/9/1 173/9/1
f 178/7/1 173/7/1 177/7/1
f 179/9/1 162/9/1 167/9/1
f 179/9/1 167/9/1 178/9/1
f 179/7/1 163/7/1 162/7/1
f 180/9/1 174/9/1 163/9/1
f 180/7/1 163/7/1 179/7/1
f 180/9/1 176/9/1 175/9/1
f 180/9/1 175/9/1 174/9/1
f 181/9/1 176/9/1 180/9/1
f 182/9/1 176/9/1 181/9/1
f 183/7/1 180/7/1 179/7/1
f 183/7/1 181/7/1 180/7/1
f 183/6/1 182/6/1 181/6/1
f 184/9/1 176/9/1 182/9/1
f 184/6/1 182/6/1 183/6/1
f 185/7/1 183/7/1 179/7/1
f 186/7/1 183/7/1 185/7/1
f 187/9/1 176/9/1 184/9/1
f 187/9/1 184/9/1 183/9/1
f 188/9/1 176/9/1 187/9/1
f 189/9/1 178/9/1 177/9/1
f 190/8/1 179/8/1 178/8/1
f 190/9/1 178/9/1 189/9/1
f 191/7/1 183/7/1 186/7/1
f 191/9/1 187/9/1 183/9/1
f 192/9/1 187/9/1 191/9/1
f 193/8/1 179/8/1 190/8/1
f 194/7/1 185/7/1 179/7/1
f 194/8/1 179/8/1 193/8/1
f 195/9/1 194/9/1 193/9/1
f 196/7/1 185/7/1 194/7/1
f 196/9/1 194/9/1 195/9/1
f 197/9/1 186/9/1 185/9/1
f 197/7/1 185/7/1 196/7/1
f 198/7/1 191/7/1 186/7/1
f 198/9/1 186/9/1 197/9/1
f 199/7/1 191/7/1 198/7/1
f 202/6/1 201/6/1 200/6/1
f 203/6/1 201/6/1 202/6/1
f 204/6/1 201/6/1 203/6/1
f 206/7/1 204/7/1 203/7/1
f 207/7/1 204/7/1 206/7/1
f 209/7/1 206/7/1 205/7/1
f 210/7/1 206/7/1 209/7/1
f 211/7/1 209/7/1 208/7/1
f 212/7/1 209/7/1 211/7/1
f 218/9/1 214/9/1 213/9/1
f 219/9/1 214/9/1 218/9/1
f 222/9/1 216/9/1 215/9/1
f 223/8/1 217/8/1 216/8/1
f 223/9/1 216/9/1 222/9/1
f 224/8/1 217/8/1 223/8/1
f 225/8/1 221/8/1 220/8/1
f 226/8/1 221/8/1 225/8/1
f 229/5/1 228/5/1 227/5/1
f 230/5/1 228/5/1 229/5/1
f 233/6/1 230/6/1 229/6/1
f 234/6/1 230/6/1 233/6/1
f 237/8/1 232/8/1 231/8/1
f 238/8/1 232/8/1 237/8/1
f 239/8/1 236/8/1 235/8/1
f 239/7/1 237/7/1 236/7/1
f 239/7/1 238/7/1 237/7/1
f 240/8/1 232/8/1 238/8/1
f 240/7/1 238/7/1 239/7/1
f 241/8/1 232/8/1 240/8/1
f 242/8/1 232/8/1 241/8/1
f 244/8/1 239/8/1 235/8/1
f 245/9/1 240/9/1 239/9/1
f 245/9/1 241/9/1 240/9/1
f 245/8/1 239/8/1 244/8/1
f 246/7/1 242/7/1 241/7/1
f 246/9/1 241/9/1 245/9/1
f 247/8/1 244/8/1 243/8/1
f 247/8/1 245/8/1 244/8/1
f 247/7/1 246/7/1 245/7/1
f 248/7/1 246/7/1 247/7/1
f 249/9/1 248/9/1 247/9/1
f 249/7/1 246/7/1 248/7/1
f 250/7/1 242/7/1 246/7/1
f 250/7/1 246/7/1 249/7/1
f 251/8/1 247/8/1 243/8/1
f 252/9/1 249/9/1 247/9/1
f 252/8/1 247/8/1 251/8/1
f 253/8/1 250/8/1 249/8/1
f 253/9/1 249/9/1 252/9/1
f 254/8/1 250/8/1 253/8/1
f 257/9/1 256/9/1 255/9/1
f 258/9/1 256/9/1 257/9/1
f 259/9/1 256/9/1 258/9/1
f 260/7/1 258/7/1 257/7/1
f 261/7/1 258/7/1 260/7/1
f 264/5/1 263/5/1 262/5/1
f 265/5/1 263/5/1 264/5/1
f 268/6/1 265/6/1 264/6/1
f 269/6/1 265/6/1 268/6/1
f 270/5/1 267/5/1 266/5/1
f 271/5/1 267/5/1 270/5/1
f 273/5/1 272/5/1 271/5/1
f 273/5/1 271/5/1 270/5/1
f 274/5/1 272/5/1 273/5/1
f 275/5/1 272/5/1 274/5/1
f 277/7/1 274/7/1 273/7/1
f 277/8/1 275/8/1 274/8/1
f 278/6/1 276/6/1 275/6/1
f 278/8/1 275/8/1 277/8/1
f 279/6/1 276/6/1 278/6/1
f 281/7/1 277/7/1 273/7/1
f 282/9/1 278/9/1 277/9/1
f 282/7/1 277/7/1 281/7/1
f 283/8/1 279/8/1 278/8/1
f 283/9/1 278/9/1 282/9/1
f 284/6/1 280/6/1 279/6/1
f 284/8/1 279/8/1 283/8/1
f 285/6/1 280/6/1 284/6/1
f 289/9/1 283/9/1 282/9/1
f 289/9/1 282/9/1 281/9/1
f 290/9/1 283/9/1 289/9/1
f 291/7/1 284/7/1 283/7/1
f 291/9/1 283/9/1 290/9/1
f 292/8/1 285/8/1 284/8/1
f 292/7/1 284/7/1 291/7/1
f 293/6/1 286/6/1 285/6/1
f 293/8/1 285/8/1 292/8/1
f 294/7/1 288/7/1 287/7/1
f 295/7/1 288/7/1 294/7/1
f 296/7/1 292/7/1 291/7/1
f 296/9/1 293/9/1 292/9/1
f 296/7/1 291/7/1 290/7/1
f 297/6/1 286/6/1 293/6/1
f 297/9/1 293/9/1 296/9/1
f 298/6/1 286/6/1 297/6/1
f 300/7/1 294/7/1 287/7/1
f 301/7/1 294/7/1 300/7/1
f 302/7/1 296/7/1 290/7/1
f 303/7/1 296/7/1 302/7/1
f 304/5/1 299/5/1 298/5/1
f 306/7/1 296/7/1 303/7/1
f 307/8/1 298/8/1 297/8/1
f 307/7/1 296/7/1 306/7/1
f 307/8/1 297/8/1 296/8/1
f 310/8/1 298/8/1 307/8/1
f 311/5/1 305/5/1 304/5/1
f 311/8/1 298/8/1 310/8/1
f 311/5/1 304/5/1 298/5/1
f 312/5/1 305/5/1 311/5/1
f 313/5/1 305/5/1 312/5/1
f 314/2/1 309/2/1 308/2/1
f 315/2/1 309/2/1 314/2/1
f 317/9/1 307/9/1 306/9/1
f 318/8/1 310/8/1 307/8/1
f 318/9/1 307/9/1 317/9/1
f 319/7/1 311/7/1 310/7/1
f 319/8/1 310/8/1 318/8/1
f 320/5/1 312/5/1 311/5/1
f 320/7/1 311/7/1 319/7/1
f 321/5/1 312/5/1 320/5/1
f 322/4/1 315/4/1 314/4/1
f 323/4/1 315/4/1 322/4/1
f 324/7/1 300/7/1 287/7/1
f 325/7/1 300/7/1 324/7/1
f 326/9/1 317/9/1 316/9/1
f 326/6/1 318/6/1 317/6/1
f 327/8/1 319/8/1 318/8/1
f 327/6/1 318/6/1 326/6/1
f 330/9/1 327/9/1 326/9/1
f 330/9/1 326/9/1 316/9/1
f 331/9/1 327/9/1 330/9/1
f 332/8/1 319/8/1 327/8/1
f 332/9/1 327/9/1 331/9/1
f 333/5/1 320/5/1 319/5/1
f 333/8/1 319/8/1 332/8/1
f 334/5/1 320/5/1 333/5/1
f 336/8/1 329/8/1 328/8/1
f 338/8/1 336/8/1 335/8/1
f 339/8/1 329/8/1 336/8/1
f 339/8/1 336/8/1 338/8/1
f 340/7/1 331/7/1 330/7/1
f 340/8/1 329/8/1 339/8/1
f 340/7/1 330/7/1 329/7/1
f 341/5/1 332/5/1 331/5/1
f 341/7/1 331/7/1 340/7/1
f 342/5/1 332/5/1 341/5/1
f 343/7/1 339/7/1 338/7/1
f 343/7/1 338/7/1 337/7/1
f 344/8/1 340/8/1 339/8/1
f 344/7/1 339/7/1 343/7/1
f 345/8/1 340/8/1 344/8/1
f 350/6/1 347/6/1 346/6/1
f 351/6/1 347/6/1 350/6/1
f 352/5/1 351/5/1 350/5/1
f 353/6/1 347/6/1 351/6/1
f 353/5/1 351/5/1 352/5/1
f 354/6/1 353/6/1 352/6/1
f 355/6/1 347/6/1 353/6/1
f 355/6/1 353/6/1 354/6/1
f 356/6/1 349/6/1 348/6/1
f 357/6/1 349/6/1 356/6/1
f 358/8/1 355/8/1 354/8/1
f 359/8/1 355/8/1 358/8/1
f 360/6/1 359/6/1 358/6/1
f 361/8/1 355/8/1 359/8/1
f 361/6/1 359/6/1 360/6/1
f 362/8/1 361/8/1 360/8/1
f 363/8/1 355/8/1 361/8/1
f 363/8/1 361/8/1 362/8/1
f 364/8/1 355/8/1 363/8/1
f 365/8/1 357/8/1 356/8/1
f 366/8/1 357/8/1 365/8/1
f 367/8/1 357/8/1 366/8/1
f 371/8/1 369/8/1 368/8/1
f 371/8/1 370/8/1 369/8/1
f 372/8/1 370/8/1 371/8/1
f 375/8/1 374/8/1 373/8/1
f 376/8/1 374/8/1 375/8/1
f 380/10/1 378/10/1 377/10/1
f 381/8/1 379/8/1 378/8/1
f 381/10/1 378/10/1 380/10/1
f 382/8/1 379/8/1 381/8/1
f 385/8/1 384/8/1 383/8/1
f 386/8/1 384/8/1 385/8/1
f 389/7/1 388/7/1 387/7/1
f 390/7/1 388/7/1 389/7/1
f 391/9/2 392/9/2 393/9/2
f 393/9/2 392/9/2 394/9/2
f 394/9/2 392/9/2 395/9/2
f 396/8/2 397/8/2 399/8/2
f 397/9/2 398/9/2 400/9/2
f 399/8/2 397/8/2 400/8/2
f 400/9/2 398/9/2 401/9/2
f 402/9/2 403/9/2 405/9/2
f 403/9/2 404/9/2 405/9/2
f 405/9/2 404/9/2 406/9/2
f 407/10/2 408/10/2 410/10/2
f 408/9/2 409/9/2 411/9/2
f 410/10/2 408/10/2 411/10/2
f 411/9/2 409/9/2 412/9/2
f 413/9/2 414/9/2 415/9/2
f 415/9/2 414/9/2 416/9/2
f 417/5/2 418/5/2 422/5/2
f 418/6/2 419/6/2 423/6/2
f 422/5/2 418/5/2 423/5/2
f 423/6/2 419/6/2 424/6/2
f 420/6/2 421/6/2 425/6/2
f 425/6/2 421/6/2 426/6/2
f 425/8/2 426/8/2 427/8/2
f 427/8/2 426/8/2 428/8/2
f 425/8/2 427/8/2 429/8/2
f 427/6/2 428/6/2 429/6/2
f 429/6/2 428/6/2 430/6/2
f 423/8/2 424/8/2 431/8/2
f 422/8/2 423/8/2 431/8/2
f 431/8/2 424/8/2 432/8/2
f 432/8/2 424/8/2 433/8/2
f 429/8/2 430/8/2 434/8/2
f 425/8/2 429/8/2 434/8/2
f 434/8/2 430/8/2 435/8/2
f 435/8/2 430/8/2 436/8/2
f 436/8/2 430/8/2 437/8/2
f 438/5/2 439/5/2 440/5/2
f 440/5/2 439/5/2 441/5/2
f 440/6/2 441/6/2 444/6/2
f 444/6/2 441/6/2 445/6/2
f 442/5/2 443/5/2 446/5/2
f 446/5/2 447/5/2 448/5/2
f 442/5/2 446/5/2 448/5/2
f 448/5/2 447/5/2 449/5/2
f 448/8/2 449/8/2 451/8/2
f 449/6/2 450/6/2 451/6/2
f 451/6/2 450/6/2 452/6/2
f 448/8/2 451/8/2 454/8/2
f 451/8/2 452/8/2 454/8/2
f 454/8/2 452/8/2 455/8/2
f 452/6/2 453/6/2 456/6/2
f 455/8/2 452/8/2 456/8/2
f 456/6/2 453/6/2 457/6/2
f 454/6/2 455/6/2 463/6/2
f 455/7/2 456/7/2 464/7/2
f 463/6/2 455/6/2 464/6/2
f 464/7/2 456/7/2 465/7/2
f 461/9/2 462/9/2 466/9/2
f 459/9/2 460/9/2 466/9/2
f 460/9/2 461/9/2 466/9/2
f 466/9/2 462/9/2 467/9/2
f 467/9/2 462/9/2 468/9/2
f 465/7/2 456/7/2 469/7/2
f 456/8/2 457/8/2 470/8/2
f 469/7/2 456/7/2 470/7/2
f 457/6/2 458/6/2 471/6/2
f 470/8/2 457/8/2 471/8/2
f 471/6/2 458/6/2 472/6/2
f 466/7/2 467/7/2 474/7/2
f 474/7/2 467/7/2 475/7/2
f 475/7/2 467/7/2 476/7/2
f 469/9/2 470/9/2 477/9/2
f 477/9/2 470/9/2 478/9/2
f 470/7/2 471/7/2 479/7/2
f 478/9/2 470/9/2 479/9/2
f 472/5/2 473/5/2 480/5/2
f 478/8/2 479/8/2 484/8/2
f 479/7/2 471/7/2 485/7/2
f 484/8/2 479/8/2 485/8/2
f 471/8/2 472/8/2 486/8/2
f 485/7/2 471/7/2 486/7/2
f 480/5/2 481/5/2 487/5/2
f 472/5/2 480/5/2 487/5/2
f 487/5/2 481/5/2 488/5/2
f 474/9/2 475/9/2 489/9/2
f 484/10/2 485/10/2 491/10/2
f 485/8/2 486/8/2 492/8/2
f 491/10/2 485/10/2 492/10/2
f 486/8/2 472/8/2 493/8/2
f 492/8/2 486/8/2 493/8/2
f 472/5/2 487/5/2 494/5/2
f 493/8/2 472/8/2 494/8/2
f 494/5/2 487/5/2 495/5/2
f 482/2/2 483/2/2 496/2/2
f 496/2/2 483/2/2 497/2/2
f 489/9/2 475/9/2 498/9/2
f 498/9/2 475/9/2 499/9/2
f 491/7/2 492/7/2 502/7/2
f 490/7/2 491/7/2 502/7/2
f 502/7/2 492/7/2 503/7/2
f 492/9/2 493/9/2 504/9/2
f 503/7/2 492/7/2 504/7/2
f 493/5/2 494/5/2 505/5/2
f 504/9/2 493/9/2 505/9/2
f 505/5/2 494/5/2 506/5/2
f 500/8/2 501/8/2 508/8/2
f 502/9/2 503/9/2 509/9/2
f 501/9/2 502/9/2 509/9/2
f 508/8/2 501/8/2 509/8/2
f 503/5/2 504/5/2 510/5/2
f 509/9/2 503/9/2 510/9/2
f 510/5/2 504/5/2 511/5/2
f 507/6/2 508/6/2 513/6/2
f 508/9/2 509/9/2 514/9/2
f 509/9/2 510/9/2 514/9/2
f 513/6/2 508/6/2 514/6/2
f 514/9/2 510/9/2 515/9/2
f 510/6/2 511/6/2 516/6/2
f 515/9/2 510/9/2 516/9/2
f 516/6/2 511/6/2 517/6/2
f 512/8/2 513/8/2 518/8/2
f 514/6/2 515/6/2 519/6/2
f 518/8/2 513/8/2 519/8/2
f 513/6/2 514/6/2 519/6/2
f 519/6/2 515/6/2 520/6/2
f 521/6/2 522/6/2 523/6/2
f 523/6/2 522/6/2 524/6/2
f 523/5/2 524/5/2 528/5/2
f 528/5/2 524/5/2 529/5/2
f 525/7/2 526/7/2 532/7/2
f 530/8/2 531/8/2 533/8/2
f 531/7/2 532/7/2 534/7/2
f 533/8/2 531/8/2 534/8/2
f 532/7/2 526/7/2 535/7/2
f 534/7/2 532/7/2 535/7/2
f 533/9/2 534/9/2 537/9/2
f 534/9/2 535/9/2 537/9/2
f 537/9/2 535/9/2 538/9/2
f 536/8/2 537/8/2 538/8/2
f 538/9/2 535/9/2 539/9/2
f 535/7/2 526/7/2 540/7/2
f 539/9/2 535/9/2 540/9/2
f 526/8/2 527/8/2 541/8/2
f 538/8/2 539/8/2 542/8/2
f 536/8/2 538/8/2 542/8/2
f 539/7/2 540/7/2 543/7/2
f 542/8/2 539/8/2 543/8/2
f 540/7/2 526/7/2 544/7/2
f 543/7/2 540/7/2 544/7/2
f 526/8/2 541/8/2 544/8/2
f 544/8/2 541/8/2 545/8/2
f 546/7/2 547/7/2 549/7/2
f 547/9/2 548/9/2 550/9/2
f 549/7/2 547/7/2 550/7/2
f 550/9/2 548/9/2 551/9/2
f 549/9/2 550/9/2 552/9/2
f 552/9/2 550/9/2 553/9/2
f 554/7/2 555/7/2 559/7/2
f 559/7/2 555/7/2 560/7/2
f 557/8/2 558/8/2 563/8/2
f 556/8/2 557/8/2 563/8/2
f 563/8/2 558/8/2 564/8/2
f 561/7/2 562/7/2 565/7/2
f 565/7/2 562/7/2 566/7/2
f 567/7/2 568/7/2 569/7/2
f 569/7/2 568/7/2 571/7/2
f 571/7/2 568/7/2 572/7/2
f 570/7/2 571/7/2 574/7/2
f 574/7/2 571/7/2 575/7/2
f 573/7/2 574/7/2 576/7/2
f 576/7/2 574/7/2 577/7/2
f 578/6/2 579/6/2 582/6/2
f 582/6/2 579/6/2 583/6/2
f 580/6/2 581/6/2 584/6/2
f 584/6/2 581/6/2 585/6/2
f 584/8/2 585/8/2 586/8/2
f 586/8/2 585/8/2 587/8/2
f 587/8/2 585/8/2 588/8/2
f 582/8/2 583/8/2 589/8/2
f 589/8/2 583/8/2 590/8/2
f 584/8/2 586/8/2 591/8/2
f 586/6/2 587/6/2 592/6/2
f 591/8/2 586/8/2 592/8/2
f 587/9/2 588/9/2 593/9/2
f 592/6/2 587/6/2 593/6/2
f 589/9/2 590/9/2 594/9/2
f 594/9/2 590/9/2 595/9/2
f 593/9/2 588/9/2 596/9/2
f 592/9/2 593/9/2 596/9/2
f 596/9/2 588/9/2 597/9/2
f 594/10/2 595/10/2 598/10/2
f 595/9/2 590/9/2 599/9/2
f 598/10/2 595/10/2 599/10/2
f 599/9/2 590/9/2 600/9/2
f 584/8/2 591/8/2 601/8/2
f 591/6/2 592/6/2 602/6/2
f 601/8/2 591/8/2 602/8/2
f 592/9/2 596/9/2 603/9/2
f 602/6/2 592/6/2 603/6/2
f 596/6/2 597/6/2 604/6/2
f 603/9/2 596/9/2 604/9/2
f 598/6/2 599/6/2 605/6/2
f 599/6/2 600/6/2 605/6/2
f 605/6/2 600/6/2 606/6/2
f 600/9/2 590/9/2 607/9/2
f 606/6/2 600/6/2 607/6/2
f 607/9/2 590/9/2 608/9/2
f 601/7/2 602/7/2 611/7/2
f 602/7/2 603/7/2 611/7/2
f 611/7/2 603/7/2 612/7/2
f 603/6/2 604/6/2 613/6/2
f 612/7/2 603/7/2 613/7/2
f 604/6/2 597/6/2 614/6/2
f 613/6/2 604/6/2 614/6/2
f 605/10/2 606/10/2 615/10/2
f 606/9/2 607/9/2 615/9/2
f 607/9/2 608/9/2 615/9/2
f 615/9/2 608/9/2 616/9/2
f 608/8/2 609/8/2 617/8/2
f 617/8/2 609/8/2 618/8/2
f 609/6/2 610/6/2 619/6/2
f 618/8/2 609/8/2 619/8/2
f 619/6/2 610/6/2 620/6/2
f 611/7/2 612/7/2 621/7/2
f 620/6/2 610/6/2 621/6/2
f 610/7/2 611/7/2 621/7/2
f 612/8/2 613/8/2 622/8/2
f 621/7/2 612/7/2 622/7/2
f 613/9/2 614/9/2 623/9/2
f 622/8/2 613/8/2 623/8/2
f 614/6/2 597/6/2 624/6/2
f 623/9/2 614/9/2 624/9/2
f 624/6/2 597/6/2 625/6/2
f 605/10/2 615/10/2 626/10/2
f 615/6/2 616/6/2 627/6/2
f 626/10/2 615/10/2 627/10/2
f 616/9/2 608/9/2 628/9/2
f 627/6/2 616/6/2 628/6/2
f 608/8/2 617/8/2 629/8/2
f 628/9/2 608/9/2 629/9/2
f 617/6/2 618/6/2 630/6/2
f 629/8/2 617/8/2 630/8/2
f 618/7/2 619/7/2 631/7/2
f 630/6/2 618/6/2 631/6/2
f 631/7/2 619/7/2 632/7/2
f 619/6/2 620/6/2 633/6/2
f 632/7/2 619/7/2 633/7/2
f 620/9/2 621/9/2 634/9/2
f 633/6/2 620/6/2 634/6/2
f 622/7/2 623/7/2 635/7/2
f 634/9/2 621/9/2 635/9/2
f 621/7/2 622/7/2 635/7/2
f 623/7/2 624/7/2 635/7/2
f 624/7/2 625/7/2 635/7/2
f 635/7/2 625/7/2 636/7/2
f 626/9/2 627/9/2 637/9/2
f 627/9/2 628/9/2 637/9/2
f 628/6/2 629/6/2 638/6/2
f 637/9/2 628/9/2 638/9/2
f 629/6/2 630/6/2 638/6/2
f 638/6/2 630/6/2 639/6/2
f 630/8/2 631/8/2 640/8/2
f 639/6/2 630/6/2 640/6/2
f 640/8/2 631/8/2 641/8/2
f 631/9/2 632/9/2 642/9/2
f 641/8/2 631/8/2 642/8/2
f 632/8/2 633/8/2 643/8/2
f 642/9/2 632/9/2 643/9/2
f 633/6/2 634/6/2 644/6/2
f 643/8/2 633/8/2 644/8/2
f 634/6/2 635/6/2 644/6/2
f 635/8/2 636/8/2 645/8/2
f 636/7/2 625/7/2 646/7/2
f 645/8/2 636/8/2 646/8/2
f 646/7/2 625/7/2 647/7/2
f 647/7/2 625/7/2 648/7/2
f 638/7/2 639/7/2 649/7/2
f 637/7/2 638/7/2 649/7/2
f 649/7/2 639/7/2 650/7/2
f 639/6/2 640/6/2 651/6/2
f 650/7/2 639/7/2 651/7/2
f 640/7/2 641/7/2 652/7/2
f 651/6/2 640/6/2 652/6/2
f 641/9/2 642/9/2 653/9/2
f 652/7/2 641/7/2 653/7/2
f 642/7/2 643/7/2 654/7/2
f 643/7/2 644/7/2 654/7/2
f 644/6/2 635/6/2 655/6/2
f 654/7/2 644/7/2 655/7/2
f 635/8/2 645/8/2 656/8/2
f 655/6/2 635/6/2 656/6/2
f 645/9/2 646/9/2 657/9/2
f 656/8/2 645/8/2 657/8/2
f 646/9/2 647/9/2 657/9/2
f 657/9/2 647/9/2 658/9/2
f 650/7/2 651/7/2 659/7/2
f 659/7/2 651/7/2 660/7/2
f 651/8/2 652/8/2 661/8/2
f 660/7/2 651/7/2 661/7/2
f 652/8/2 653/8/2 661/8/2
f 653/9/2 642/9/2 662/9/2
f 661/8/2 653/8/2 662/8/2
f 642/7/2 654/7/2 663/7/2
f 662/9/2 642/9/2 663/9/2
f 654/9/2 655/9/2 664/9/2
f 655/9/2 656/9/2 664/9/2
f 664/9/2 656/9/2 665/9/2
f 665/9/2 656/9/2 666/9/2
f 666/9/2 656/9/2 667/9/2
f 656/10/2 657/10/2 668/10/2
f 667/9/2 656/9/2 668/9/2
f 657/10/2 658/10/2 668/10/2
f 668/10/2 658/10/2 669/10/2
f 669/10/2 658/10/2 670/10/2
f 658/9/2 647/9/2 671/9/2
f 670/10/2 658/10/2 671/10/2
f 647/8/2 648/8/2 672/8/2
f 671/9/2 647/9/2 672/9/2
f 649/5/2 650/5/2 673/5/2
f 650/7/2 659/7/2 674/7/2
f 673/5/2 650/5/2 674/5/2
f 660/8/2 661/8/2 675/8/2
f 661/8/2 662/8/2 675/8/2
f 662/7/2 663/7/2 676/7/2
f 675/8/2 662/8/2 676/8/2
f 663/7/2 654/7/2 677/7/2
f 676/7/2 663/7/2 677/7/2
f 654/9/2 664/9/2 678/9/2
f 677/7/2 654/7/2 678/7/2
f 664/10/2 665/10/2 679/10/2
f 678/9/2 664/9/2 679/9/2
f 665/9/2 666/9/2 680/9/2
f 679/10/2 665/10/2 680/10/2
f 666/6/2 667/6/2 681/6/2
f 680/9/2 666/9/2 681/9/2
f 667/9/2 668/9/2 682/9/2
f 681/6/2 667/6/2 682/6/2
f 669/10/2 670/10/2 683/10/2
f 668/8/2 669/8/2 683/8/2
f 670/8/2 671/8/2 684/8/2
f 683/10/2 670/10/2 684/10/2
f 671/8/2 672/8/2 684/8/2
f 684/8/2 672/8/2 685/8/2
f 673/7/2 674/7/2 686/7/2
f 674/7/2 659/7/2 687/7/2
f 686/7/2 674/7/2 687/7/2
f 659/6/2 660/6/2 687/6/2
f 660/8/2 675/8/2 688/8/2
f 687/6/2 660/6/2 688/6/2
f 675/9/2 676/9/2 689/9/2
f 688/8/2 675/8/2 689/8/2
f 678/10/2 679/10/2 690/10/2
f 677/9/2 678/9/2 690/9/2
f 679/9/2 680/9/2 691/9/2
f 690/10/2 679/10/2 691/10/2
f 680/9/2 681/9/2 691/9/2
f 681/8/2 682/8/2 692/8/2
f 691/9/2 681/9/2 692/9/2
f 682/9/2 668/9/2 693/9/2
f 692/8/2 682/8/2 693/8/2
f 668/8/2 683/8/2 694/8/2
f 693/9/2 668/9/2 694/9/2
f 684/9/2 685/9/2 695/9/2
f 694/8/2 683/8/2 695/8/2
f 683/9/2 684/9/2 695/9/2
f 695/9/2 685/9/2 696/9/2
f 685/8/2 672/8/2 697/8/2
f 696/9/2 685/9/2 697/9/2
f 672/8/2 648/8/2 698/8/2
f 697/8/2 672/8/2 698/8/2
f 686/8/2 687/8/2 701/8/2
f 687/6/2 688/6/2 702/6/2
f 688/6/2 689/6/2 702/6/2
f 701/8/2 687/8/2 702/8/2
f 689/9/2 676/9/2 703/9/2
f 702/6/2 689/6/2 703/6/2
f 676/6/2 677/6/2 704/6/2
f 703/9/2 676/9/2 704/9/2
f 691/9/2 692/9/2 705/9/2
f 704/6/2 677/6/2 705/6/2
f 677/9/2 690/9/2 705/9/2
f 690/9/2 691/9/2 705/9/2
f 693/6/2 694/6/2 706/6/2
f 705/9/2 692/9/2 706/9/2
f 692/6/2 693/6/2 706/6/2
f 694/7/2 695/7/2 707/7/2
f 706/6/2 694/6/2 707/6/2
f 695/8/2 696/8/2 708/8/2
f 707/7/2 695/7/2 708/7/2
f 696/7/2 697/7/2 709/7/2
f 708/8/2 696/8/2 709/8/2
f 697/6/2 698/6/2 710/6/2
f 709/7/2 697/7/2 710/7/2
f 710/6/2 698/6/2 711/6/2
f 700/6/2 701/6/2 712/6/2
f 703/6/2 704/6/2 712/6/2
f 702/6/2 703/6/2 712/6/2
f 701/6/2 702/6/2 712/6/2
f 712/6/2 704/6/2 713/6/2
f 699/8/2 700/8/2 714/8/2
f 714/8/2 700/8/2 715/8/2
f 715/8/2 700/8/2 716/8/2
f 700/6/2 712/6/2 717/6/2
f 716/8/2 700/8/2 717/8/2
f 717/6/2 712/6/2 718/6/2
f 718/6/2 712/6/2 719/6/2
f 712/8/2 713/8/2 720/8/2
f 720/8/2 713/8/2 721/8/2
f 714/10/2 715/10/2 722/10/2
f 715/8/2 716/8/2 723/8/2
f 722/10/2 715/10/2 723/10/2
f 716/10/2 717/10/2 724/10/2
f 723/8/2 716/8/2 724/8/2
f 717/10/2 718/10/2 724/10/2
f 718/9/2 719/9/2 725/9/2
f 724/10/2 718/10/2 725/10/2
f 722/8/2 723/8/2 726/8/2
f 723/8/2 724/8/2 726/8/2
f 724/9/2 725/9/2 726/9/2
f 725/9/2 719/9/2 727/9/2
f 726/9/2 725/9/2 727/9/2
f 719/6/2 712/6/2 728/6/2
f 727/9/2 719/9/2 728/9/2
f 712/8/2 720/8/2 729/8/2
f 728/6/2 712/6/2 729/6/2
f 729/8/2 720/8/2 730/8/2
f 726/8/2 727/8/2 731/8/2
f 727/7/2 728/7/2 732/7/2
f 731/8/2 727/8/2 732/8/2
f 728/7/2 729/7/2 732/7/2
f 729/7/2 730/7/2 732/7/2
f 732/7/2 730/7/2 733/7/2
f 733/7/2 730/7/2 734/7/2
f 734/7/2 730/7/2 735/7/2
f 722/8/2 726/8/2 736/8/2
f 726/8/2 731/8/2 736/8/2
f 736/8/2 731/8/2 737/8/2
f 733/7/2 734/7/2 738/7/2
f 738/7/2 734/7/2 739/7/2
f 737/8/2 731/8/2 740/8/2
f 731/9/2 732/9/2 740/9/2
f 732/9/2 733/9/2 740/9/2
f 740/9/2 733/9/2 741/9/2
f 733/7/2 738/7/2 742/7/2
f 741/9/2 733/9/2 742/9/2
f 740/8/2 741/8/2 743/8/2
f 737/8/2 740/8/2 743/8/2
f 743/8/2 741/8/2 744/8/2
f 741/7/2 742/7/2 745/7/2
f 744/8/2 741/8/2 745/8/2
f 742/7/2 738/7/2 746/7/2
f 745/7/2 742/7/2 746/7/2
f 746/7/2 738/7/2 747/7/2
f 748/10/2 749/10/2 751/10/2
f 749/8/2 750/8/2 752/8/2
f 751/10/2 749/10/2 752/10/2
f 752/8/2 750/8/2 753/8/2
f 754/10/2 755/10/2 757/10/2
f 755/8/2 756/8/2 758/8/2
f 757/10/2 755/10/2 758/10/2
f 758/8/2 756/8/2 759/8/2
f 760/7/2 761/7/2 762/7/2
f 762/7/2 761/7/2 763/7/2
f 763/7/2 761/7/2 764/7/2
f 762/10/2 763/10/2 765/10/2
f 763/8/2 764/8/2 766/8/2
f 765/10/2 763/10/2 766/10/2
f 766/8/2 764/8/2 767/8/2
f 771/2/3 769/2/3 768/2/3
f 771/4/3 770/4/3 769/4/3
f 772/4/3 770/4/3 771/4/3
f 773/2/3 771/2/3 768/2/3
f 773/2/3 772/2/3 771/2/3
f 774/2/3 772/2/3 773/2/3
f 777/8/3 776/8/3 775/8/3
f 778/8/3 776/8/3 777/8/3
f 779/8/3 776/8/3 778/8/3
f 780/8/3 777/8/3 775/8/3
f 782/8/3 780/8/3 775/8/3
f 782/8/3 781/8/3 780/8/3
f 783/8/3 781/8/3 782/8/3
f 786/8/3 785/8/3 784/8/3
f 787/8/3 785/8/3 786/8/3
f 788/8/3 786/8/3 784/8/3
f 789/9/3 787/9/3 786/9/3
f 789/8/3 786/8/3 788/8/3
f 790/9/3 787/9/3 789/9/3
f 793/8/3 792/8/3 791/8/3
f 794/8/3 793/8/3 791/8/3
f 795/8/3 793/8/3 794/8/3
f 796/7/3 795/7/3 794/7/3
f 797/7/3 795/7/3 796/7/3
f 802/8/3 799/8/3 798/8/3
f 802/7/3 800/7/3 799/7/3
f 803/9/3 801/9/3 800/9/3
f 803/7/3 800/7/3 802/7/3
f 804/9/3 801/9/3 803/9/3
f 805/9/3 801/9/3 804/9/3
f 806/8/3 803/8/3 802/8/3
f 806/9/3 804/9/3 803/9/3
f 807/1/3 805/1/3 804/1/3
f 807/9/3 804/9/3 806/9/3
f 808/1/3 805/1/3 807/1/3
f 810/8/3 802/8/3 798/8/3
f 810/8/3 806/8/3 802/8/3
f 810/8/3 807/8/3 806/8/3
f 811/8/3 807/8/3 810/8/3
f 812/1/3 808/1/3 807/1/3
f 812/8/3 807/8/3 811/8/3
f 813/1/3 808/1/3 812/1/3
f 814/9/3 809/9/3 808/9/3
f 814/1/3 808/1/3 813/1/3
f 815/9/3 809/9/3 814/9/3
f 816/9/3 809/9/3 815/9/3
f 817/10/3 816/10/3 815/10/3
f 817/9/3 815/9/3 814/9/3
f 818/10/3 816/10/3 817/10/3
f 819/8/3 814/8/3 813/8/3
f 819/9/3 817/9/3 814/9/3
f 819/9/3 818/9/3 817/9/3
f 820/9/3 818/9/3 819/9/3
f 823/8/3 819/8/3 813/8/3
f 823/8/3 820/8/3 819/8/3
f 824/8/3 820/8/3 823/8/3
f 825/8/3 822/8/3 821/8/3
f 826/8/3 822/8/3 825/8/3
f 827/8/3 820/8/3 824/8/3
f 827/1/3 823/1/3 822/1/3
f 827/1/3 824/1/3 823/1/3
f 828/8/3 820/8/3 827/8/3
f 829/8/3 822/8/3 826/8/3
f 829/1/3 827/1/3 822/1/3
f 830/1/3 827/1/3 829/1/3
f 831/8/3 825/8/3 821/8/3
f 832/10/3 826/10/3 825/10/3
f 832/8/3 825/8/3 831/8/3
f 833/8/3 829/8/3 826/8/3
f 833/10/3 826/10/3 832/10/3
f 833/8/3 830/8/3 829/8/3
f 834/8/3 830/8/3 833/8/3
f 838/8/3 836/8/3 835/8/3
f 839/9/3 837/9/3 836/9/3
f 839/8/3 836/8/3 838/8/3
f 840/9/3 837/9/3 839/9/3
f 841/8/3 839/8/3 838/8/3
f 841/8/3 840/8/3 839/8/3
f 842/8/3 840/8/3 841/8/3
f 845/8/3 844/8/3 843/8/3
f 846/8/3 844/8/3 845/8/3
f 852/5/3 848/5/3 847/5/3
f 853/6/3 849/6/3 848/6/3
f 853/5/3 848/5/3 852/5/3
f 854/6/3 849/6/3 853/6/3
f 855/6/3 852/6/3 851/6/3
f 855/5/3 853/5/3 852/5/3
f 855/5/3 854/5/3 853/5/3
f 856/5/3 854/5/3 855/5/3
f 857/5/3 851/5/3 850/5/3
f 858/6/3 855/6/3 851/6/3
f 858/5/3 851/5/3 857/5/3
f 858/6/3 856/6/3 855/6/3
f 859/6/3 856/6/3 858/6/3
f 860/6/3 856/6/3 859/6/3
f 861/5/3 854/5/3 856/5/3
f 861/6/3 856/6/3 860/6/3
f 862/5/3 854/5/3 861/5/3
f 866/9/3 864/9/3 863/9/3
f 867/10/3 865/10/3 864/10/3
f 867/9/3 864/9/3 866/9/3
f 868/10/3 865/10/3 867/10/3
f 869/10/3 865/10/3 868/10/3
f 871/8/3 868/8/3 867/8/3
f 872/9/3 869/9/3 868/9/3
f 872/8/3 868/8/3 871/8/3
f 873/10/3 870/10/3 869/10/3
f 873/9/3 869/9/3 872/9/3
f 874/10/3 870/10/3 873/10/3
f 885/9/3 875/9/3 874/9/3
f 885/9/3 873/9/3 872/9/3
f 885/9/3 874/9/3 873/9/3
f 886/9/3 875/9/3 885/9/3
f 887/9/3 875/9/3 886/9/3
f 888/9/3 875/9/3 887/9/3
f 889/8/3 878/8/3 877/8/3
f 889/6/3 879/6/3 878/6/3
f 890/9/3 880/9/3 879/9/3
f 890/6/3 879/6/3 889/6/3
f 891/5/3 881/5/3 880/5/3
f 891/9/3 880/9/3 890/9/3
f 892/6/3 882/6/3 881/6/3
f 893/5/3 883/5/3 882/5/3
f 893/6/3 882/6/3 892/6/3
f 894/8/3 884/8/3 883/8/3
f 894/5/3 883/5/3 893/5/3
f 895/8/3 884/8/3 894/8/3
f 896/9/3 886/9/3 885/9/3
f 897/10/3 887/10/3 886/10/3
f 897/9/3 886/9/3 896/9/3
f 898/10/3 887/10/3 897/10/3
f 899/8/3 890/8/3 889/8/3
f 899/8/3 891/8/3 890/8/3
f 900/5/3 881/5/3 891/5/3
f 900/8/3 891/8/3 899/8/3
f 901/6/3 892/6/3 881/6/3
f 901/5/3 881/5/3 900/5/3
f 902/9/3 893/9/3 892/9/3
f 902/5/3 894/5/3 893/5/3
f 903/6/3 895/6/3 894/6/3
f 903/5/3 894/5/3 902/5/3
f 904/8/3 884/8/3 895/8/3
f 904/6/3 895/6/3 903/6/3
f 905/9/3 897/9/3 896/9/3
f 906/9/3 897/9/3 905/9/3
f 907/9/3 900/9/3 899/9/3
f 907/8/3 899/8/3 889/8/3
f 907/9/3 901/9/3 900/9/3
f 908/6/3 892/6/3 901/6/3
f 908/9/3 901/9/3 907/9/3
f 909/9/3 902/9/3 892/9/3
f 909/6/3 892/6/3 908/6/3
f 910/8/3 903/8/3 902/8/3
f 910/9/3 902/9/3 909/9/3
f 910/8/3 904/8/3 903/8/3
f 911/8/3 904/8/3 910/8/3
f 912/8/3 884/8/3 904/8/3
f 912/8/3 904/8/3 911/8/3
f 913/8/3 884/8/3 912/8/3
f 914/5/3 877/5/3 876/5/3
f 915/8/3 907/8/3 889/8/3
f 915/5/3 877/5/3 914/5/3
f 915/8/3 889/8/3 877/8/3
f 915/8/3 910/8/3 909/8/3
f 915/8/3 908/8/3 907/8/3
f 915/8/3 911/8/3 910/8/3
f 915/8/3 909/8/3 908/8/3
f 916/8/3 911/8/3 915/8/3
f 917/8/3 911/8/3 916/8/3
f 918/8/3 911/8/3 917/8/3
f 919/8/3 911/8/3 918/8/3
f 926/6/3 917/6/3 916/6/3
f 927/6/3 917/6/3 926/6/3
f 930/8/3 924/8/3 923/8/3
f 931/6/3 925/6/3 924/6/3
f 931/8/3 924/8/3 930/8/3
f 932/6/3 925/6/3 931/6/3
f 933/8/3 929/8/3 928/8/3
f 933/6/3 925/6/3 932/6/3
f 933/8/3 926/8/3 925/8/3
f 933/8/3 927/8/3 926/8/3
f 933/8/3 928/8/3 927/8/3
f 934/8/3 929/8/3 933/8/3
f 935/8/3 929/8/3 934/8/3
f 938/6/3 921/6/3 920/6/3
f 938/5/3 922/5/3 921/5/3
f 939/6/3 923/6/3 922/6/3
f 939/5/3 922/5/3 938/5/3
f 940/8/3 930/8/3 923/8/3
f 940/6/3 931/6/3 930/6/3
f 941/9/3 932/9/3 931/9/3
f 941/6/3 931/6/3 940/6/3
f 942/10/3 933/10/3 932/10/3
f 942/9/3 932/9/3 941/9/3
f 943/9/3 934/9/3 933/9/3
f 943/10/3 933/10/3 942/10/3
f 944/9/3 934/9/3 943/9/3
f 945/9/3 934/9/3 944/9/3
f 946/8/3 935/8/3 934/8/3
f 946/9/3 934/9/3 945/9/3
f 946/8/3 937/8/3 936/8/3
f 946/8/3 936/8/3 935/8/3
f 947/8/3 937/8/3 946/8/3
f 948/8/3 937/8/3 947/8/3
f 949/8/3 937/8/3 948/8/3
f 952/9/3 944/9/3 943/9/3
f 952/9/3 943/9/3 942/9/3
f 952/9/3 942/9/3 941/9/3
f 953/9/3 944/9/3 952/9/3
f 954/10/3 945/10/3 944/10/3
f 954/9/3 944/9/3 953/9/3
f 955/9/3 946/9/3 945/9/3
f 955/10/3 945/10/3 954/10/3
f 956/9/3 946/9/3 955/9/3
f 957/8/3 937/8/3 949/8/3
f 958/8/3 951/8/3 950/8/3
f 960/6/3 938/6/3 920/6/3
f 960/6/3 939/6/3 938/6/3
f 961/6/3 923/6/3 939/6/3
f 961/6/3 939/6/3 960/6/3
f 961/8/3 940/8/3 923/8/3
f 961/8/3 941/8/3 940/8/3
f 962/9/3 952/9/3 941/9/3
f 962/8/3 941/8/3 961/8/3
f 963/10/3 953/10/3 952/10/3
f 963/9/3 952/9/3 962/9/3
f 964/6/3 954/6/3 953/6/3
f 964/10/3 953/10/3 963/10/3
f 965/10/3 955/10/3 954/10/3
f 965/6/3 954/6/3 964/6/3
f 965/10/3 956/10/3 955/10/3
f 966/9/3 946/9/3 956/9/3
f 966/10/3 956/10/3 965/10/3
f 967/7/3 947/7/3 946/7/3
f 967/9/3 946/9/3 966/9/3
f 968/5/3 948/5/3 947/5/3
f 968/7/3 947/7/3 967/7/3
f 969/7/3 949/7/3 948/7/3
f 969/5/3 948/5/3 968/5/3
f 970/8/3 957/8/3 949/8/3
f 970/7/3 949/7/3 969/7/3
f 971/8/3 957/8/3 970/8/3
f 972/8/3 958/8/3 950/8/3
f 972/8/3 959/8/3 958/8/3
f 973/8/3 959/8/3 972/8/3
f 976/8/3 973/8/3 972/8/3
f 977/8/3 973/8/3 976/8/3
f 978/10/3 974/10/3 973/10/3
f 978/8/3 973/8/3 977/8/3
f 979/10/3 974/10/3 978/10/3
f 981/8/3 976/8/3 975/8/3
f 982/9/3 977/9/3 976/9/3
f 982/8/3 976/8/3 981/8/3
f 983/10/3 978/10/3 977/10/3
f 983/9/3 977/9/3 982/9/3
f 984/10/3 978/10/3 983/10/3
f 985/7/3 981/7/3 980/7/3
f 985/7/3 982/7/3 981/7/3
f 986/10/3 983/10/3 982/10/3
f 986/7/3 982/7/3 985/7/3
f 987/10/3 983/10/3 986/10/3
f 991/6/3 989/6/3 988/6/3
f 992/8/3 990/8/3 989/8/3
f 992/6/3 989/6/3 991/6/3
f 993/8/3 990/8/3 992/8/3
f 997/8/3 996/8/3 995/8/3
f 998/8/3 996/8/3 997/8/3
f 999/6/3 995/6/3 994/6/3
f 1000/8/3 997/8/3 995/8/3
f 1000/6/3 995/6/3 999/6/3
f 1001/7/3 998/7/3 997/7/3
f 1001/8/3 997/8/3 1000/8/3
f 1002/7/3 998/7/3 1001/7/3
f 1005/7/3 1004/7/3 1003/7/3
f 1006/7/3 1004/7/3 1005/7/3
f 1007/8/3 1006/8/3 1005/8/3
f 1008/8/3 1006/8/3 1007/8/3
f 1011/8/3 1010/8/3 1009/8/3
f 1012/8/3 1010/8/3 1011/8/3
f 1013/6/3 1012/6/3 1011/6/3
f 1014/6/3 1012/6/3 1013/6/3
f 1017/8/3 1016/8/3 1015/8/3
f 1018/8/3 1017/8/3 1015/8/3
f 1019/8/3 1017/8/3 1018/8/3
f 1024/7/3 1021/7/3 1020/7/3
f 1025/7/3 1021/7/3 1024/7/3
f 1026/7/3 1021/7/3 1025/7/3
f 1027/9/3 1023/9/3 1022/9/3
f 1028/9/3 1023/9/3 1027/9/3
f 1029/7/3 1025/7/3 1024/7/3
f 1030/9/3 1026/9/3 1025/9/3
f 1030/7/3 1025/7/3 1029/7/3
f 1031/9/3 1026/9/3 1030/9/3
f 1032/7/3 1028/7/3 1027/7/3
f 1033/7/3 1028/7/3 1032/7/3
f 1037/7/3 1035/7/3 1034/7/3
f 1038/9/3 1036/9/3 1035/9/3
f 1038/7/3 1035/7/3 1037/7/3
f 1039/9/3 1036/9/3 1038/9/3
f 1040/9/3 1036/9/3 1039/9/3
f 1041/8/3 1038/8/3 1037/8/3
f 1041/8/3 1039/8/3 1038/8/3
f 1042/10/3 1040/10/3 1039/10/3
f 1042/8/3 1039/8/3 1041/8/3
f 1043/10/3 1040/10/3 1042/10/3
f 1044/9/4 1045/9/4 1047/9/4
f 1045/10/4 1046/10/4 1048/10/4
f 1047/9/4 1045/9/4 1048/9/4
f 1048/10/4 1046/10/4 1049/10/4
f 1049/9/4 1050/9/4 1051/9/4
f 1048/9/4 1049/9/4 1051/9/4
f 1051/9/4 1050/9/4 1052/9/4
f 1052/9/4 1050/9/4 1053/9/4
f 1053/9/4 1054/9/4 1055/9/4
f 1052/9/4 1053/9/4 1055/9/4
f 1055/9/4 1054/9/4 1056/9/4
f 1056/9/4 1054/9/4 1057/9/4
f 1055/9/4 1056/9/4 1058/9/4
f 1058/9/4 1056/9/4 1059/9/4
f 1059/9/4 1056/9/4 1060/9/4
f 1058/9/4 1059/9/4 1061/9/4
f 1061/9/4 1059/9/4 1062/9/4
f 1063/8/4 1064/8/4 1065/8/4
f 1063/8/4 1065/8/4 1067/8/4
f 1065/8/4 1066/8/4 1067/8/4
f 1067/8/4 1066/8/4 1068/8/4
f 1067/8/4 1068/8/4 1071/8/4
f 1068/8/4 1069/8/4 1071/8/4
f 1071/8/4 1069/8/4 1072/8/4
f 1072/8/4 1069/8/4 1073/8/4
f 1070/8/4 1071/8/4 1075/8/4
f 1071/8/4 1072/8/4 1075/8/4
f 1075/8/4 1072/8/4 1076/8/4
f 1076/8/4 1072/8/4 1077/8/4
f 1077/8/4 1072/8/4 1078/8/4
f 1074/7/4 1075/7/4 1079/7/4
f 1075/7/4 1076/7/4 1079/7/4
f 1076/8/4 1077/8/4 1080/8/4
f 1079/7/4 1076/7/4 1080/7/4
f 1080/8/4 1077/8/4 1081/8/4
f 1082/7/4 1083/7/4 1084/7/4
f 1084/7/4 1083/7/4 1085/7/4
f 1085/7/4 1083/7/4 1086/7/4
f 1085/8/4 1086/8/4 1087/8/4
f 1087/8/4 1086/8/4 1088/8/4
f 1089/7/4 1090/7/4 1092/7/4
f 1091/7/4 1092/7/4 1093/7/4
f 1092/7/4 1090/7/4 1094/7/4
f 1093/7/4 1092/7/4 1094/7/4
f 1098/8/4 1099/8/4 1103/8/4
f 1099/6/4 1100/6/4 1103/6/4
f 1103/6/4 1100/6/4 1104/6/4
f 1101/9/4 1102/9/4 1105/9/4
f 1105/9/4 1102/9/4 1106/9/4
f 1096/8/4 1097/8/4 1108/8/4
f 1097/9/4 1098/9/4 1108/9/4
f 1103/8/4 1104/8/4 1109/8/4
f 1108/9/4 1098/9/4 1109/9/4
f 1098/8/4 1103/8/4 1109/8/4
f 1106/7/4 1107/7/4 1110/7/4
f 1110/7/4 1107/7/4 1111/7/4
f 1110/7/4 1111/7/4 1113/7/4
f 1111/8/4 1112/8/4 1114/8/4
f 1113/7/4 1111/7/4 1114/7/4
f 1114/8/4 1112/8/4 1115/8/4
f 1095/6/4 1096/6/4 1116/6/4
f 1096/8/4 1108/8/4 1117/8/4
f 1116/6/4 1096/6/4 1117/6/4
f 1108/8/4 1109/8/4 1117/8/4
f 1109/8/4 1104/8/4 1118/8/4
f 1117/8/4 1109/8/4 1118/8/4
f 1120/8/4 1121/8/4 1122/8/4
f 1122/8/4 1121/8/4 1123/8/4
f 1122/9/4 1123/9/4 1127/9/4
f 1125/7/4 1126/7/4 1128/7/4
f 1124/7/4 1125/7/4 1128/7/4
f 1128/7/4 1126/7/4 1129/7/4
f 1124/7/4 1128/7/4 1131/7/4
f 1131/7/4 1128/7/4 1132/7/4
f 1119/6/4 1120/6/4 1133/6/4
f 1120/8/4 1122/8/4 1134/8/4
f 1133/6/4 1120/6/4 1134/6/4
f 1122/9/4 1127/9/4 1135/9/4
f 1134/8/4 1122/8/4 1135/8/4
f 1135/9/4 1127/9/4 1136/9/4
f 1130/7/4 1131/7/4 1137/7/4
f 1137/7/4 1131/7/4 1138/7/4
f 1139/7/4 1140/7/4 1142/7/4
f 1140/9/4 1141/9/4 1143/9/4
f 1142/7/4 1140/7/4 1143/7/4
f 1143/9/4 1141/9/4 1144/9/4
f 1144/9/4 1141/9/4 1145/9/4
f 1145/7/4 1146/7/4 1147/7/4
f 1147/7/4 1146/7/4 1148/7/4
f 1149/7/4 1150/7/4 1151/7/4
f 1151/7/4 1150/7/4 1152/7/4
f 1152/7/4 1150/7/4 1153/7/4
f 1153/7/4 1150/7/4 1154/7/4
f 1153/9/4 1154/9/4 1155/9/4
f 1155/9/4 1154/9/4 1156/9/4
f 1157/7/4 1158/7/4 1161/7/4
f 1161/7/4 1158/7/4 1162/7/4
f 1159/8/4 1160/8/4 1163/8/4
f 1160/7/4 1161/7/4 1164/7/4
f 1163/8/4 1160/8/4 1164/8/4
f 1164/7/4 1161/7/4 1165/7/4
f 1166/7/4 1167/7/4 1168/7/4
f 1166/7/4 1168/7/4 1171/7/4
f 1169/7/4 1170/7/4 1172/7/4
f 1171/7/4 1168/7/4 1174/7/4
f 1168/6/4 1169/6/4 1174/6/4
f 1169/7/4 1172/7/4 1175/7/4
f 1174/6/4 1169/6/4 1175/6/4
f 1172/9/4 1173/9/4 1176/9/4
f 1171/7/4 1174/7/4 1178/7/4
f 1174/7/4 1175/7/4 1178/7/4
f 1175/7/4 1172/7/4 1179/7/4
f 1178/7/4 1175/7/4 1179/7/4
f 1176/9/4 1177/9/4 1179/9/4
f 1172/9/4 1176/9/4 1179/9/4
f 1179/9/4 1177/9/4 1180/9/4
f 1179/7/4 1180/7/4 1181/7/4
f 1181/7/4 1180/7/4 1182/7/4
f 1181/9/4 1182/9/4 1187/9/4
f 1187/9/4 1182/9/4 1188/9/4
f 1183/7/4 1184/7/4 1189/7/4
f 1184/7/4 1185/7/4 1189/7/4
f 1188/9/4 1182/9/4 1190/9/4
f 1187/7/4 1188/7/4 1190/7/4
f 1186/7/4 1187/7/4 1190/7/4
f 1190/9/4 1182/9/4 1191/9/4
f 1185/9/4 1186/9/4 1192/9/4
f 1189/7/4 1185/7/4 1192/7/4
f 1186/7/4 1190/7/4 1193/7/4
f 1192/9/4 1186/9/4 1193/9/4
f 1193/7/4 1190/7/4 1194/7/4
f 1194/7/4 1190/7/4 1195/7/4
f 1189/7/4 1192/7/4 1196/7/4
f 1192/7/4 1193/7/4 1196/7/4
f 1193/7/4 1194/7/4 1196/7/4
f 1196/7/4 1194/7/4 1197/7/4
f 1197/7/4 1194/7/4 1198/7/4
f 1198/7/4 1194/7/4 1199/7/4
f 1196/6/4 1197/6/4 1200/6/4
f 1197/8/4 1198/8/4 1201/8/4
f 1200/6/4 1197/6/4 1201/6/4
f 1201/8/4 1198/8/4 1202/8/4
f 1203/7/4 1204/7/4 1205/7/4
f 1205/7/4 1204/7/4 1206/7/4
f 1205/9/4 1206/9/4 1207/9/4
f 1207/9/4 1206/9/4 1208/9/4
f 1209/7/4 1210/7/4 1211/7/4
f 1211/7/4 1210/7/4 1212/7/4
f 1212/7/4 1210/7/4 1213/7/4
f 1214/7/4 1215/7/4 1216/7/4
f 1216/7/4 1215/7/4 1217/7/4
f 1216/9/4 1217/9/4 1218/9/4
f 1218/9/4 1217/9/4 1219/9/4
f 1223/9/4 1224/9/4 1229/9/4
f 1224/6/4 1225/6/4 1229/6/4
f 1225/9/4 1226/9/4 1230/9/4
f 1229/6/4 1225/6/4 1230/6/4
f 1227/9/4 1228/9/4 1231/9/4
f 1226/7/4 1227/7/4 1231/7/4
f 1231/9/4 1228/9/4 1232/9/4
f 1232/9/4 1228/9/4 1233/9/4
f 1231/7/4 1232/7/4 1234/7/4
f 1232/6/4 1233/6/4 1234/6/4
f 1234/6/4 1233/6/4 1235/6/4
f 1222/6/4 1223/6/4 1236/6/4
f 1229/9/4 1230/9/4 1236/9/4
f 1223/9/4 1229/9/4 1236/9/4
f 1230/9/4 1226/9/4 1237/9/4
f 1236/9/4 1230/9/4 1237/9/4
f 1231/7/4 1234/7/4 1237/7/4
f 1226/7/4 1231/7/4 1237/7/4
f 1220/6/4 1221/6/4 1238/6/4
f 1221/8/4 1222/8/4 1239/8/4
f 1238/6/4 1221/6/4 1239/6/4
f 1222/6/4 1236/6/4 1240/6/4
f 1239/8/4 1222/8/4 1240/8/4
f 1236/8/4 1237/8/4 1241/8/4
f 1240/6/4 1236/6/4 1241/6/4
f 1241/8/4 1237/8/4 1242/8/4
f 1242/8/4 1237/8/4 1243/8/4
f 1237/7/4 1234/7/4 1244/7/4
f 1243/8/4 1237/8/4 1244/8/4
f 1244/7/4 1234/7/4 1245/7/4
f 1234/8/4 1235/8/4 1246/8/4
f 1245/7/4 1234/7/4 1246/7/4
f 1246/8/4 1235/8/4 1247/8/4
f 1242/5/4 1243/5/4 1250/5/4
f 1250/5/4 1243/5/4 1251/5/4
f 1249/8/4 1250/8/4 1255/8/4
f 1253/9/4 1254/9/4 1255/9/4
f 1252/8/4 1253/8/4 1255/8/4
f 1251/8/4 1252/8/4 1255/8/4
f 1250/8/4 1251/8/4 1255/8/4
f 1255/9/4 1254/9/4 1256/9/4
f 1249/8/4 1255/8/4 1257/8/4
f 1257/8/4 1255/8/4 1258/8/4
f 1258/8/4 1255/8/4 1259/8/4
f 1259/8/4 1255/8/4 1260/8/4
f 1248/6/4 1249/6/4 1261/6/4
f 1249/8/4 1257/8/4 1262/8/4
f 1261/6/4 1249/6/4 1262/6/4
f 1257/9/4 1258/9/4 1263/9/4
f 1262/8/4 1257/8/4 1263/8/4
f 1258/6/4 1259/6/4 1264/6/4
f 1263/9/4 1258/9/4 1264/9/4
f 1259/7/4 1260/7/4 1265/7/4
f 1264/6/4 1259/6/4 1265/6/4
f 1260/8/4 1255/8/4 1266/8/4
f 1265/7/4 1260/7/4 1266/7/4
f 1255/6/4 1256/6/4 1267/6/4
f 1266/8/4 1255/8/4 1267/8/4
f 1267/6/4 1256/6/4 1268/6/4
f 1271/8/4 1272/8/4 1273/8/4
f 1273/8/4 1272/8/4 1274/8/4
f 1269/5/4 1270/5/4 1275/5/4
f 1275/5/4 1270/5/4 1276/5/4
f 1273/6/4 1274/6/4 1277/6/4
f 1277/6/4 1274/6/4 1278/6/4
f 1279/5/4 1280/5/4 1281/5/4
f 1281/5/4 1280/5/4 1282/5/4
f 1285/5/4 1286/5/4 1287/5/4
f 1287/5/4 1286/5/4 1288/5/4
f 1288/5/4 1286/5/4 1289/5/4
f 1283/6/4 1284/6/4 1290/6/4
f 1290/6/4 1284/6/4 1291/6/4
f 1287/5/4 1288/5/4 1292/5/4
f 1288/6/4 1289/6/4 1293/6/4
f 1292/5/4 1288/5/4 1293/5/4
f 1293/6/4 1289/6/4 1294/6/4
f 1295/6/4 1296/6/4 1297/6/4
f 1297/6/4 1296/6/4 1298/6/4
f 1299/6/4 1300/6/4 1303/6/4
f 1303/6/4 1300/6/4 1304/6/4
f 1301/5/4 1302/5/4 1305/5/4
f 1305/5/4 1302/5/4 1306/5/4
f 1307/5/4 1308/5/4 1311/5/4
f 1311/5/4 1308/5/4 1312/5/4
f 1309/5/4 1310/5/4 1313/5/4
f 1313/5/4 1310/5/4 1314/5/4
f 1315/5/4 1316/5/4 1317/5/4
f 1317/5/4 1316/5/4 1318/5/4
f 1323/5/5 1320/5/5 1319/5/5
f 1324/5/5 1320/5/5 1323/5/5
f 1325/6/5 1324/6/5 1323/6/5
f 1326/6/5 1324/6/5 1325/6/5
f 1327/6/5 1322/6/5 1321/6/5
f 1328/6/5 1322/6/5 1327/6/5
f 1333/6/5 1330/6/5 1329/6/5
f 1334/6/5 1330/6/5 1333/6/5
f 1335/6/5 1332/6/5 1331/6/5
f 1336/6/5 1332/6/5 1335/6/5
f 1339/6/5 1338/6/5 1337/6/5
f 1340/6/5 1338/6/5 1339/6/5
f 1343/5/5 1340/5/5 1339/5/5
f 1344/5/5 1340/5/5 1343/5/5
f 1348/9/5 1345/9/5 1344/9/5
f 1348/9/5 1346/9/5 1345/9/5
f 1349/8/5 1347/8/5 1346/8/5
f 1349/9/5 1346/9/5 1348/9/5
f 1350/5/5 1344/5/5 1343/5/5
f 1350/9/5 1348/9/5 1344/9/5
f 1351/10/5 1349/10/5 1348/10/5
f 1351/9/5 1348/9/5 1350/9/5
f 1352/5/5 1350/5/5 1343/5/5
f 1352/10/5 1351/10/5 1350/10/5
f 1353/10/5 1349/10/5 1351/10/5
f 1353/10/5 1351/10/5 1352/10/5
f 1354/8/5 1347/8/5 1349/8/5
f 1354/10/5 1349/10/5 1353/10/5
f 1355/6/5 1353/6/5 1352/6/5
f 1355/5/5 1352/5/5 1343/5/5
f 1356/9/5 1354/9/5 1353/9/5
f 1356/6/5 1353/6/5 1355/6/5
f 1357/8/5 1347/8/5 1354/8/5
f 1357/9/5 1354/9/5 1356/9/5
f 1358/6/5 1342/6/5 1341/6/5
f 1359/8/5 1343/8/5 1342/8/5
f 1359/6/5 1342/6/5 1358/6/5
f 1360/9/5 1356/9/5 1355/9/5
f 1360/10/5 1357/10/5 1356/10/5
f 1361/8/5 1347/8/5 1357/8/5
f 1361/10/5 1357/10/5 1360/10/5
f 1362/8/5 1359/8/5 1358/8/5
f 1363/8/5 1343/8/5 1359/8/5
f 1363/8/5 1359/8/5 1362/8/5
f 1364/8/5 1343/8/5 1363/8/5
f 1365/8/5 1343/8/5 1364/8/5
f 1366/5/5 1355/5/5 1343/5/5
f 1366/8/5 1343/8/5 1365/8/5
f 1367/9/5 1360/9/5 1355/9/5
f 1367/5/5 1355/5/5 1366/5/5
f 1367/9/5 1361/9/5 1360/9/5
f 1368/8/5 1347/8/5 1361/8/5
f 1368/9/5 1361/9/5 1367/9/5
f 1369/6/5 1363/6/5 1362/6/5
f 1370/10/5 1364/10/5 1363/10/5
f 1370/6/5 1363/6/5 1369/6/5
f 1371/8/5 1347/8/5 1368/8/5
f 1371/8/5 1368/8/5 1367/8/5
f 1372/8/5 1347/8/5 1371/8/5
f 1373/10/5 1370/10/5 1369/10/5
f 1374/9/5 1365/9/5 1364/9/5
f 1374/10/5 1370/10/5 1373/10/5
f 1374/10/5 1364/10/5 1370/10/5
f 1375/8/5 1366/8/5 1365/8/5
f 1375/6/5 1367/6/5 1366/6/5
f 1376/6/5 1367/6/5 1375/6/5
f 1377/9/5 1374/9/5 1373/9/5
f 1378/9/5 1365/9/5 1374/9/5
f 1378/9/5 1374/9/5 1377/9/5
f 1378/8/5 1375/8/5 1365/8/5
f 1379/6/5 1372/6/5 1371/6/5
f 1379/8/5 1371/8/5 1367/8/5
f 1380/6/5 1372/6/5 1379/6/5
f 1381/8/5 1378/8/5 1377/8/5
f 1382/8/5 1375/8/5 1378/8/5
f 1382/8/5 1378/8/5 1381/8/5
f 1382/5/5 1376/5/5 1375/5/5
f 1383/6/5 1367/6/5 1376/6/5
f 1383/8/5 1379/8/5 1367/8/5
f 1384/7/5 1380/7/5 1379/7/5
f 1384/8/5 1379/8/5 1383/8/5
f 1385/7/5 1380/7/5 1384/7/5
f 1386/5/5 1376/5/5 1382/5/5
f 1387/6/5 1383/6/5 1376/6/5
f 1387/5/5 1376/5/5 1386/5/5
f 1388/6/5 1387/6/5 1386/6/5
f 1389/6/5 1383/6/5 1387/6/5
f 1389/6/5 1387/6/5 1388/6/5
f 1390/5/5 1389/5/5 1388/5/5
f 1391/5/5 1389/5/5 1390/5/5
f 1394/5/5 1393/5/5 1392/5/5
f 1395/5/5 1393/5/5 1394/5/5
f 1398/5/5 1397/5/5 1396/5/5
f 1399/5/5 1397/5/5 1398/5/5
f 1404/5/5 1401/5/5 1400/5/5
f 1405/5/5 1401/5/5 1404/5/5
f 1406/6/5 1403/6/5 1402/6/5
f 1407/6/5 1403/6/5 1406/6/5
f 1410/5/5 1409/5/5 1408/5/5
f 1411/5/5 1409/5/5 1410/5/5
f 1414/6/5 1413/6/5 1412/6/5
f 1415/6/5 1413/6/5 1414/6/5
f 1418/6/5 1417/6/5 1416/6/5
f 1419/6/5 1417/6/5 1418/6/5
f 1422/6/5 1421/6/5 1420/6/5
f 1423/6/5 1421/6/5 1422/6/5
f 1427/8/5 1425/8/5 1424/8/5
f 1427/7/5 1426/7/5 1425/7/5
f 1428/7/5 1426/7/5 1427/7/5
f 1430/8/5 1427/8/5 1424/8/5
f 1430/8/5 1428/8/5 1427/8/5
f 1431/8/5 1428/8/5 1430/8/5
f 1433/8/5 1431/8/5 1430/8/5
f 1433/8/5 1432/8/5 1431/8/5
f 1433/8/5 1430/8/5 1429/8/5
f 1434/8/5 1432/8/5 1433/8/5
f 1435/8/5 1432/8/5 1434/8/5
f 1436/8/5 1432/8/5 1435/8/5
f 1437/8/5 1432/8/5 1436/8/5
f 1438/8/5 1433/8/5 1429/8/5
f 1439/8/5 1433/8/5 1438/8/5
f 1440/8/5 1436/8/5 1435/8/5
f 1441/6/5 1437/6/5 1436/6/5
f 1441/8/5 1436/8/5 1440/8/5
f 1442/6/5 1437/6/5 1441/6/5
f 1445/8/5 1444/8/5 1443/8/5
f 1446/8/5 1444/8/5 1445/8/5
f 1447/8/5 1444/8/5 1446/8/5
f 1448/8/5 1444/8/5 1447/8/5
f 1449/7/5 1446/7/5 1445/7/5
f 1450/8/5 1447/8/5 1446/8/5
f 1450/7/5 1446/7/5 1449/7/5
f 1451/7/5 1448/7/5 1447/7/5
f 1451/8/5 1447/8/5 1450/8/5
f 1452/7/5 1448/7/5 1451/7/5
f 1455/5/5 1454/5/5 1453/5/5
f 1456/5/5 1454/5/5 1455/5/5
f 1459/5/5 1458/5/5 1457/5/5
f 1460/5/5 1458/5/5 1459/5/5
f 1463/8/5 1462/8/5 1461/8/5
f 1464/8/5 1462/8/5 1463/8/5
f 1465/8/5 1462/8/5 1464/8/5
f 1468/2/5 1467/2/5 1466/2/5
f 1469/2/5 1467/2/5 1468/2/5
f 1473/9/5 1471/9/5 1470/9/5
f 1474/7/5 1472/7/5 1471/7/5
f 1474/9/5 1471/9/5 1473/9/5
f 1475/7/5 1472/7/5 1474/7/5
f 1480/9/5 1477/9/5 1476/9/5
f 1481/9/5 1477/9/5 1480/9/5
f 1482/7/5 1479/7/5 1478/7/5
f 1483/7/5 1479/7/5 1482/7/5
f 1486/8/5 1485/8/5 1484/8/5
f 1487/8/5 1485/8/5 1486/8/5
f 1488/8/5 1485/8/5 1487/8/5
f 1489/7/5 1487/7/5 1486/7/5
f 1490/9/5 1488/9/5 1487/9/5
f 1490/7/5 1487/7/5 1489/7/5
f 1491/9/5 1488/9/5 1490/9/5
f 1496/8/5 1493/8/5 1492/8/5
f 1497/8/5 1493/8/5 1496/8/5
f 1498/9/5 1497/9/5 1496/9/5
f 1499/9/5 1497/9/5 1498/9/5
f 1500/8/5 1495/8/5 1494/8/5
f 1501/8/5 1495/8/5 1500/8/5
f 1505/8/5 1503/8/5 1502/8/5
f 1506/6/5 1504/6/5 1503/6/5
f 1506/8/5 1503/8/5 1505/8/5
f 1507/6/5 1504/6/5 1506/6/5
f 1512/9/5 1509/9/5 1508/9/5
f 1513/9/5 1509/9/5 1512/9/5
f 1514/8/5 1511/8/5 1510/8/5
f 1515/9/5 1513/9/5 1512/9/5
f 1516/9/5 1513/9/5 1515/9/5
f 1517/8/5 1511/8/5 1514/8/5
f 1518/8/5 1511/8/5 1517/8/5
f 1522/7/5 1520/7/5 1519/7/5
f 1523/8/5 1521/8/5 1520/8/5
f 1523/7/5 1520/7/5 1522/7/5
f 1524/8/5 1521/8/5 1523/8/5
f 1525/8/6 1526/8/6 1532/8/6
f 1532/8/6 1526/8/6 1533/8/6
f 1530/6/6 1531/6/6 1534/6/6
f 1529/7/6 1530/7/6 1534/7/6
f 1534/6/6 1531/6/6 1535/6/6
f 1528/9/6 1529/9/6 1536/9/6
f 1529/7/6 1534/7/6 1537/7/6
f 1536/9/6 1529/9/6 1537/9/6
f 1533/8/6 1526/8/6 1538/8/6
f 1532/7/6 1533/7/6 1538/7/6
f 1526/9/6 1527/9/6 1539/9/6
f 1538/8/6 1526/8/6 1539/8/6
f 1536/6/6 1537/6/6 1540/6/6
f 1537/7/6 1534/7/6 1541/7/6
f 1540/6/6 1537/6/6 1541/6/6
f 1539/9/6 1527/9/6 1542/9/6
f 1540/9/6 1541/9/6 1544/9/6
f 1538/6/6 1539/6/6 1545/6/6
f 1539/9/6 1542/9/6 1545/9/6
f 1545/9/6 1542/9/6 1546/9/6
f 1542/7/6 1543/7/6 1547/7/6
f 1546/9/6 1542/9/6 1547/9/6
f 1543/9/6 1544/9/6 1548/9/6
f 1547/7/6 1543/7/6 1548/7/6
f 1541/7/6 1534/7/6 1549/7/6
f 1534/9/6 1535/9/6 1549/9/6
f 1549/9/6 1535/9/6 1550/9/6
f 1545/6/6 1546/6/6 1551/6/6
f 1538/6/6 1545/6/6 1551/6/6
f 1546/9/6 1547/9/6 1552/9/6
f 1551/6/6 1546/6/6 1552/6/6
f 1547/6/6 1548/6/6 1553/6/6
f 1552/9/6 1547/9/6 1553/9/6
f 1548/9/6 1544/9/6 1554/9/6
f 1553/6/6 1548/6/6 1554/6/6
f 1544/9/6 1541/9/6 1555/9/6
f 1554/9/6 1544/9/6 1555/9/6
f 1541/7/6 1549/7/6 1556/7/6
f 1555/9/6 1541/9/6 1556/9/6
f 1532/7/6 1538/7/6 1557/7/6
f 1538/6/6 1551/6/6 1558/6/6
f 1557/7/6 1538/7/6 1558/7/6
f 1552/6/6 1553/6/6 1559/6/6
f 1551/9/6 1552/9/6 1559/9/6
f 1553/8/6 1554/8/6 1560/8/6
f 1559/6/6 1553/6/6 1560/6/6
f 1554/9/6 1555/9/6 1561/9/6
f 1560/8/6 1554/8/6 1561/8/6
f 1555/6/6 1556/6/6 1562/6/6
f 1561/9/6 1555/9/6 1562/9/6
f 1556/7/6 1549/7/6 1563/7/6
f 1562/6/6 1556/6/6 1563/6/6
f 1549/6/6 1550/6/6 1564/6/6
f 1563/7/6 1549/7/6 1564/7/6
f 1564/6/6 1550/6/6 1565/6/6
f 1557/9/6 1558/9/6 1566/9/6
f 1558/6/6 1551/6/6 1567/6/6
f 1566/9/6 1558/9/6 1567/9/6
f 1561/9/6 1562/9/6 1568/9/6
f 1562/8/6 1563/8/6 1568/8/6
f 1563/8/6 1564/8/6 1568/8/6
f 1568/8/6 1564/8/6 1569/8/6
f 1564/7/6 1565/7/6 1570/7/6
f 1569/8/6 1564/8/6 1570/8/6
f 1570/7/6 1565/7/6 1571/7/6
f 1566/7/6 1567/7/6 1572/7/6
f 1567/6/6 1551/6/6 1573/6/6
f 1572/7/6 1567/7/6 1573/7/6
f 1551/9/6 1559/9/6 1574/9/6
f 1573/6/6 1551/6/6 1574/6/6
f 1559/9/6 1560/9/6 1574/9/6
f 1574/9/6 1560/9/6 1575/9/6
f 1560/6/6 1561/6/6 1576/6/6
f 1575/9/6 1560/9/6 1576/9/6
f 1568/9/6 1569/9/6 1577/9/6
f 1576/6/6 1561/6/6 1577/6/6
f 1561/9/6 1568/9/6 1577/9/6
f 1570/8/6 1571/8/6 1578/8/6
f 1577/9/6 1569/9/6 1578/9/6
f 1569/8/6 1570/8/6 1578/8/6
f 1578/8/6 1571/8/6 1579/8/6
f 1579/8/6 1571/8/6 1580/8/6
f 1580/8/6 1571/8/6 1581/8/6
f 1576/9/6 1577/9/6 1582/9/6
f 1575/9/6 1576/9/6 1582/9/6
f 1577/6/6 1578/6/6 1582/6/6
f 1578/9/6 1579/9/6 1583/9/6
f 1582/6/6 1578/6/6 1583/6/6
f 1580/7/6 1581/7/6 1584/7/6
f 1579/6/6 1580/6/6 1584/6/6
f 1584/7/6 1581/7/6 1585/7/6
f 1572/8/6 1573/8/6 1586/8/6
f 1574/8/6 1575/8/6 1586/8/6
f 1573/8/6 1574/8/6 1586/8/6
f 1586/8/6 1575/8/6 1587/8/6
f 1587/8/6 1575/8/6 1588/8/6
f 1582/9/6 1583/9/6 1589/9/6
f 1588/8/6 1575/8/6 1589/8/6
f 1575/9/6 1582/9/6 1589/9/6
f 1589/9/6 1583/9/6 1590/9/6
f 1590/9/6 1583/9/6 1591/9/6
f 1591/9/6 1583/9/6 1592/9/6
f 1583/9/6 1579/9/6 1593/9/6
f 1592/9/6 1583/9/6 1593/9/6
f 1584/6/6 1585/6/6 1594/6/6
f 1593/9/6 1579/9/6 1594/9/6
f 1579/6/6 1584/6/6 1594/6/6
f 1586/9/6 1587/9/6 1595/9/6
f 1587/6/6 1588/6/6 1596/6/6
f 1595/9/6 1587/9/6 1596/9/6
f 1588/8/6 1589/8/6 1597/8/6
f 1596/6/6 1588/6/6 1597/6/6
f 1589/8/6 1590/8/6 1597/8/6
f 1590/9/6 1591/9/6 1598/9/6
f 1597/8/6 1590/8/6 1598/8/6
f 1592/9/6 1593/9/6 1599/9/6
f 1591/6/6 1592/6/6 1599/6/6
f 1593/6/6 1594/6/6 1600/6/6
f 1599/9/6 1593/9/6 1600/9/6
f 1594/6/6 1585/6/6 1601/6/6
f 1600/6/6 1594/6/6 1601/6/6
f 1598/9/6 1591/9/6 1602/9/6
f 1591/6/6 1599/6/6 1602/6/6
f 1602/6/6 1599/6/6 1603/6/6
f 1598/9/6 1602/9/6 1604/9/6
f 1602/7/6 1603/7/6 1605/7/6
f 1604/9/6 1602/9/6 1605/9/6
f 1605/7/6 1603/7/6 1606/7/6
f 1607/7/6 1608/7/6 1610/7/6
f 1608/9/6 1609/9/6 1611/9/6
f 1610/7/6 1608/7/6 1611/7/6
f 1611/9/6 1609/9/6 1612/9/6
f 1613/7/6 1614/7/6 1617/7/6
f 1617/7/6 1614/7/6 1618/7/6
f 1615/8/6 1616/8/6 1619/8/6
f 1619/8/6 1616/8/6 1620/8/6
f 1621/7/6 1622/7/6 1624/7/6
f 1622/7/6 1623/7/6 1624/7/6
f 1624/7/6 1623/7/6 1625/7/6
f 1626/7/6 1627/7/6 1629/7/6
f 1627/9/6 1628/9/6 1630/9/6
f 1629/7/6 1627/7/6 1630/7/6
f 1630/9/6 1628/9/6 1631/9/6
f 1632/5/6 1633/5/6 1634/5/6
f 1634/5/6 1633/5/6 1635/5/6
f 1636/5/6 1637/5/6 1638/5/6
f 1638/5/6 1637/5/6 1639/5/6
f 1640/4/6 1641/4/6 1644/4/6
f 1641/2/6 1642/2/6 1645/2/6
f 1644/4/6 1641/4/6 1645/4/6
f 1645/2/6 1642/2/6 1646/2/6
f 1643/8/6 1644/8/6 1648/8/6
f 1644/3/6 1645/3/6 1649/3/6
f 1648/8/6 1644/8/6 1649/8/6
f 1645/3/6 1646/3/6 1649/3/6
f 1646/8/6 1647/8/6 1650/8/6
f 1649/3/6 1646/3/6 1650/3/6
f 1650/8/6 1647/8/6 1651/8/6
f 1648/9/6 1649/9/6 1652/9/6
f 1649/7/6 1650/7/6 1652/7/6
f 1650/7/6 1651/7/6 1652/7/6
f 1652/7/6 1651/7/6 1653/7/6
f 1648/9/6 1652/9/6 1654/9/6
f 1652/8/6 1653/8/6 1655/8/6
f 1654/9/6 1652/9/6 1655/9/6
f 1653/7/6 1651/7/6 1656/7/6
f 1655/8/6 1653/8/6 1656/8/6
f 1654/8/6 1655/8/6 1656/8/6
f 1656/7/6 1651/7/6 1657/7/6
f 1654/8/6 1656/8/6 1658/8/6
f 1656/8/6 1657/8/6 1658/8/6
f 1658/8/6 1657/8/6 1659/8/6
f 1660/9/6 1661/9/6 1664/9/6
f 1664/9/6 1661/9/6 1665/9/6
f 1662/7/6 1663/7/6 1668/7/6
f 1668/7/6 1663/7/6 1669/7/6
f 1665/7/6 1666/7/6 1670/7/6
f 1670/7/6 1666/7/6 1671/7/6
f 1667/7/6 1668/7/6 1675/7/6
f 1675/7/6 1668/7/6 1676/7/6
f 1672/7/6 1673/7/6 1677/7/6
f 1673/9/6 1674/9/6 1678/9/6
f 1677/7/6 1673/7/6 1678/7/6
f 1678/9/6 1674/9/6 1679/9/6
f 1680/9/6 1681/9/6 1686/9/6
f 1681/1/6 1682/1/6 1686/1/6
f 1686/1/6 1682/1/6 1687/1/6
f 1683/1/6 1684/1/6 1688/1/6
f 1684/8/6 1685/8/6 1689/8/6
f 1688/1/6 1684/1/6 1689/1/6
f 1680/9/6 1686/9/6 1690/9/6
f 1686/8/6 1687/8/6 1691/8/6
f 1690/9/6 1686/9/6 1691/9/6
f 1691/8/6 1687/8/6 1692/8/6
f 1688/8/6 1689/8/6 1693/8/6
f 1689/8/6 1685/8/6 1694/8/6
f 1693/8/6 1689/8/6 1694/8/6
f 1695/9/6 1696/9/6 1699/9/6
f 1699/9/6 1696/9/6 1700/9/6
f 1697/7/6 1698/7/6 1704/7/6
f 1704/7/6 1698/7/6 1705/7/6
f 1700/7/6 1701/7/6 1706/7/6
f 1701/9/6 1702/9/6 1707/9/6
f 1706/7/6 1701/7/6 1707/7/6
f 1703/7/6 1704/7/6 1708/7/6
f 1708/7/6 1704/7/6 1709/7/6
f 1709/7/6 1704/7/6 1710/7/6
f 1707/9/6 1702/9/6 1711/9/6
f 1711/9/6 1702/9/6 1712/9/6
f 1708/7/6 1709/7/6 1713/7/6
f 1713/7/6 1709/7/6 1714/7/6
f 1715/8/6 1716/8/6 1718/8/6
f 1716/9/6 1717/9/6 1719/9/6
f 1718/8/6 1716/8/6 1719/8/6
f 1719/9/6 1717/9/6 1720/9/6
f 1718/5/6 1719/5/6 1721/5/6
f 1719/5/6 1720/5/6 1721/5/6
f 1721/5/6 1720/5/6 1722/5/6
f 1723/7/6 1724/7/6 1727/7/6
f 1727/7/6 1724/7/6 1728/7/6
f 1725/7/6 1726/7/6 1729/7/6
f 1729/7/6 1726/7/6 1730/7/6
f 1731/9/6 1732/9/6 1736/9/6
f 1732/7/6 1733/7/6 1737/7/6
f 1736/9/6 1732/9/6 1737/9/6
f 1734/9/6 1735/9/6 1738/9/6
f 1737/7/6 1733/7/6 1738/7/6
f 1733/9/6 1734/9/6 1738/9/6
f 1738/9/6 1735/9/6 1739/9/6
f 1740/9/6 1741/9/6 1745/9/6
f 1741/10/6 1742/10/6 1746/10/6
f 1745/9/6 1741/9/6 1746/9/6
f 1742/9/6 1743/9/6 1747/9/6
f 1746/10/6 1742/10/6 1747/10/6
f 1743/8/6 1744/8/6 1748/8/6
f 1747/9/6 1743/9/6 1748/9/6
f 1746/8/6 1747/8/6 1751/8/6
f 1745/8/6 1746/8/6 1751/8/6
f 1747/8/6 1748/8/6 1751/8/6
f 1748/8/6 1744/8/6 1752/8/6
f 1751/8/6 1748/8/6 1752/8/6
f 1750/8/6 1751/8/6 1754/8/6
f 1752/8/6 1753/8/6 1754/8/6
f 1751/8/6 1752/8/6 1754/8/6
f 1754/8/6 1753/8/6 1755/8/6
f 1749/9/6 1750/9/6 1756/9/6
f 1750/8/6 1754/8/6 1757/8/6
f 1756/9/6 1750/9/6 1757/9/6
f 1757/8/6 1754/8/6 1758/8/6
f 1755/8/6 1753/8/6 1759/8/6
f 1754/7/6 1755/7/6 1759/7/6
f 1759/8/6 1753/8/6 1760/8/6
f 1760/8/6 1753/8/6 1761/8/6
f 1761/8/6 1753/8/6 1762/8/6
f 1758/8/6 1754/8/6 1763/8/6
f 1754/7/6 1759/7/6 1764/7/6
f 1763/8/6 1754/8/6 1764/8/6
f 1759/6/6 1760/6/6 1765/6/6
f 1764/7/6 1759/7/6 1765/7/6
f 1760/8/6 1761/8/6 1766/8/6
f 1765/6/6 1760/6/6 1766/6/6
f 1766/8/6 1761/8/6 1767/8/6
f 1758/8/6 1763/8/6 1770/8/6
f 1764/7/6 1765/7/6 1771/7/6
f 1763/7/6 1764/7/6 1771/7/6
f 1765/7/6 1766/7/6 1771/7/6
f 1766/7/6 1767/7/6 1771/7/6
f 1768/7/6 1769/7/6 1773/7/6
f 1769/8/6 1770/8/6 1774/8/6
f 1773/7/6 1769/7/6 1774/7/6
f 1770/8/6 1763/8/6 1775/8/6
f 1774/8/6 1770/8/6 1775/8/6
f 1771/7/6 1772/7/6 1776/7/6
f 1763/7/6 1771/7/6 1776/7/6
f 1776/7/6 1772/7/6 1777/7/6
f 1775/8/6 1763/8/6 1778/8/6
f 1763/7/6 1776/7/6 1779/7/6
f 1778/8/6 1763/8/6 1779/8/6
f 1779/7/6 1776/7/6 1780/7/6
f 1780/7/6 1776/7/6 1781/7/6
f 1781/7/6 1776/7/6 1782/7/6
f 1779/7/6 1780/7/6 1783/7/6
f 1780/9/6 1781/9/6 1784/9/6
f 1783/7/6 1780/7/6 1784/7/6
f 1784/9/6 1781/9/6 1785/9/6
f 1786/7/6 1787/7/6 1789/7/6
f 1787/9/6 1788/9/6 1790/9/6
f 1789/7/6 1787/7/6 1790/7/6
f 1790/9/6 1788/9/6 1791/9/6
f 1789/5/6 1790/5/6 1792/5/6
f 1790/6/6 1791/6/6 1793/6/6
f 1792/5/6 1790/5/6 1793/5/6
f 1793/6/6 1791/6/6 1794/6/6
f 1795/10/6 1796/10/6 1803/10/6
f 1797/9/6 1798/9/6 1804/9/6
f 1801/10/6 1802/10/6 1805/10/6
f 1805/10/6 1802/10/6 1806/10/6
f 1795/10/6 1803/10/6 1807/10/6
f 1807/10/6 1803/10/6 1808/10/6
f 1804/9/6 1798/9/6 1809/9/6
f 1809/9/6 1798/9/6 1810/9/6
f 1799/8/6 1800/8/6 1811/8/6
f 1811/8/6 1800/8/6 1812/8/6
f 1805/8/6 1806/8/6 1813/8/6
f 1813/8/6 1806/8/6 1814/8/6
f 1815/7/6 1816/7/6 1818/7/6
f 1816/8/6 1817/8/6 1818/8/6
f 1818/8/6 1817/8/6 1819/8/6
f 1815/7/6 1818/7/6 1820/7/6
f 1818/6/6 1819/6/6 1821/6/6
f 1820/7/6 1818/7/6 1821/7/6
f 1820/8/6 1821/8/6 1822/8/6
f 1821/6/6 1819/6/6 1823/6/6
f 1822/8/6 1821/8/6 1823/8/6
f 1823/6/6 1819/6/6 1824/6/6
f 1825/10/6 1826/10/6 1833/10/6
f 1833/10/6 1826/10/6 1834/10/6
f 1827/10/6 1828/10/6 1835/10/6
f 1835/10/6 1828/10/6 1836/10/6
f 1829/8/6 1830/8/6 1837/8/6
f 1831/10/6 1832/10/6 1838/10/6
f 1838/10/6 1832/10/6 1839/10/6
f 1833/9/6 1834/9/6 1840/9/6
f 1840/9/6 1834/9/6 1841/9/6
f 1835/9/6 1836/9/6 1842/9/6
f 1842/9/6 1836/9/6 1843/9/6
f 1829/8/6 1837/8/6 1844/8/6
f 1844/8/6 1837/8/6 1845/8/6
f 1838/8/6 1839/8/6 1846/8/6
f 1846/8/6 1839/8/6 1847/8/6
f 1850/10/6 1851/10/6 1852/10/6
f 1852/10/6 1851/10/6 1853/10/6
f 1848/9/6 1849/9/6 1854/9/6
f 1854/9/6 1849/9/6 1855/9/6
f 1852/8/6 1853/8/6 1856/8/6
f 1856/8/6 1853/8/6 1857/8/6
