# MagicaVoxel @ Ephtracy

# group
o 

# material
mtllib pigeon.mtl
usemtl palette

# normals
vn -1 0 0
vn 1 0 0
vn 0 0 1
vn 0 0 -1
vn 0 -1 0
vn 0 1 0

# texcoords
vt 0.208984 0.5
vt 0.912109 0.5
vt 0.927734 0.5
vt 0.966797 0.5
vt 0.986328 0.5
vt 0.994141 0.5

# verts
v -0.5 0.6 0.5
v -0.5 0.6 0.3
v -0.5 0.6 0.0999999
v -0.5 0.6 -1.19209e-07
v -0.5 0.6 -0.2
v -0.5 0.9 0.5
v -0.5 0.9 0.3
v -0.5 0.9 0.0999999
v -0.5 0.9 -1.19209e-07
v -0.5 0.9 -0.2
v -0.4 0 0.5
v -0.4 0 0.0999999
v -0.4 0.1 0.5
v -0.4 0.1 0.0999999
v -0.4 0.3 0.4
v -0.4 0.3 0.0999999
v -0.4 0.6 0.4
v -0.4 0.6 0.3
v -0.4 0.6 0.0999999
v -0.4 1.3 0.6
v -0.4 1.3 0.3
v -0.4 1.4 0.5
v -0.4 1.4 0.4
v -0.4 1.5 0.5
v -0.4 1.5 0.4
v -0.4 1.6 0.6
v -0.4 1.6 0.3
v -0.3 0 0.7
v -0.3 0 0.5
v -0.3 0.1 0.7
v -0.3 0.1 0.5
v -0.3 0.1 0.3
v -0.3 0.1 0.2
v -0.3 0.3 0.3
v -0.3 0.3 0.2
v -0.3 0.4 0.7
v -0.3 0.4 0.4
v -0.3 0.4 0.0999999
v -0.3 0.4 -1.19209e-07
v -0.3 0.4 -0.3
v -0.3 0.6 0.5
v -0.3 0.6 0.4
v -0.3 0.6 0.0999999
v -0.3 0.6 -1.19209e-07
v -0.3 0.6 -0.2
v -0.3 0.7 -0.2
v -0.3 0.7 -0.3
v -0.3 0.9 0.5
v -0.3 0.9 0.3
v -0.3 0.9 0.0999999
v -0.3 0.9 -1.19209e-07
v -0.3 1.1 0.7
v -0.3 1.1 -1.19209e-07
v -0.3 1.3 0.6
v -0.3 1.3 0.3
v -0.3 1.6 0.6
v -0.3 1.6 0.3
v -0.3 1.7 0.7
v -0.3 1.7 -1.19209e-07
v -0.1 1.3 1
v -0.1 1.3 0.7
v -0.1 1.5 1
v -0.1 1.5 0.8
v -0.1 1.5 0.7
v -0.1 1.6 0.8
v -0.1 1.6 0.7
v 0.1 0.3 0.4
v 0.1 0.3 0.0999999
v 0.1 0.4 0.4
v 0.1 0.4 0.0999999
v 0.2 0 0.7
v 0.2 0 0.0999999
v 0.2 0.1 0.7
v 0.2 0.1 0.3
v 0.2 0.1 0.2
v 0.2 0.1 0.0999999
v 0.2 0.3 0.3
v 0.2 0.3 0.2
v 0.3 0.7 -1.19209e-07
v 0.3 0.7 -0.2
v 0.3 0.9 -1.19209e-07
v 0.3 0.9 -0.2
v -0.3 0.7 -1.19209e-07
v -0.3 0.7 -0.2
v -0.3 0.9 -1.19209e-07
v -0.3 0.9 -0.2
v -0.2 0 0.7
v -0.2 0 0.0999999
v -0.2 0.1 0.7
v -0.2 0.1 0.3
v -0.2 0.1 0.2
v -0.2 0.1 0.0999999
v -0.2 0.3 0.3
v -0.2 0.3 0.2
v -0.1 0.3 0.4
v -0.1 0.3 0.0999999
v -0.1 0.4 0.4
v -0.1 0.4 0.0999999
v 0.1 1.3 1
v 0.1 1.3 0.7
v 0.1 1.5 1
v 0.1 1.5 0.8
v 0.1 1.5 0.7
v 0.1 1.6 0.8
v 0.1 1.6 0.7
v 0.3 0 0.7
v 0.3 0 0.5
v 0.3 0.1 0.7
v 0.3 0.1 0.5
v 0.3 0.1 0.3
v 0.3 0.1 0.2
v 0.3 0.3 0.3
v 0.3 0.3 0.2
v 0.3 0.4 0.7
v 0.3 0.4 0.4
v 0.3 0.4 0.0999999
v 0.3 0.4 -1.19209e-07
v 0.3 0.4 -0.3
v 0.3 0.6 0.5
v 0.3 0.6 0.4
v 0.3 0.6 0.0999999
v 0.3 0.6 -1.19209e-07
v 0.3 0.6 -0.2
v 0.3 0.7 -0.2
v 0.3 0.7 -0.3
v 0.3 0.9 0.5
v 0.3 0.9 0.3
v 0.3 0.9 0.0999999
v 0.3 0.9 -1.19209e-07
v 0.3 1.1 0.7
v 0.3 1.1 -1.19209e-07
v 0.3 1.3 0.6
v 0.3 1.3 0.3
v 0.3 1.6 0.6
v 0.3 1.6 0.3
v 0.3 1.7 0.7
v 0.3 1.7 -1.19209e-07
v 0.4 0 0.5
v 0.4 0 0.0999999
v 0.4 0.1 0.5
v 0.4 0.1 0.0999999
v 0.4 0.3 0.4
v 0.4 0.3 0.0999999
v 0.4 0.6 0.4
v 0.4 0.6 0.3
v 0.4 0.6 0.0999999
v 0.4 1.3 0.6
v 0.4 1.3 0.3
v 0.4 1.4 0.5
v 0.4 1.4 0.4
v 0.4 1.5 0.5
v 0.4 1.5 0.4
v 0.4 1.6 0.6
v 0.4 1.6 0.3
v 0.5 0.6 0.5
v 0.5 0.6 0.3
v 0.5 0.6 0.0999999
v 0.5 0.6 -1.19209e-07
v 0.5 0.6 -0.2
v 0.5 0.9 0.5
v 0.5 0.9 0.3
v 0.5 0.9 0.0999999
v 0.5 0.9 -1.19209e-07
v 0.5 0.9 -0.2
v -0.1 1.3 1
v -0.1 1.5 1
v 0.1 1.3 1
v 0.1 1.5 1
v -0.1 1.5 0.8
v -0.1 1.6 0.8
v 0.1 1.5 0.8
v 0.1 1.6 0.8
v -0.3 0 0.7
v -0.3 0.1 0.7
v -0.3 0.4 0.7
v -0.3 1.1 0.7
v -0.3 1.7 0.7
v -0.2 0 0.7
v -0.2 0.1 0.7
v -0.1 1.3 0.7
v -0.1 1.5 0.7
v -0.1 1.6 0.7
v 0.1 1.3 0.7
v 0.1 1.5 0.7
v 0.1 1.6 0.7
v 0.2 0 0.7
v 0.2 0.1 0.7
v 0.3 0 0.7
v 0.3 0.1 0.7
v 0.3 0.4 0.7
v 0.3 1.1 0.7
v 0.3 1.7 0.7
v -0.4 1.3 0.6
v -0.4 1.6 0.6
v -0.3 1.3 0.6
v -0.3 1.6 0.6
v 0.3 1.3 0.6
v 0.3 1.6 0.6
v 0.4 1.3 0.6
v 0.4 1.6 0.6
v -0.5 0.6 0.5
v -0.5 0.9 0.5
v -0.4 0 0.5
v -0.4 0.1 0.5
v -0.3 0 0.5
v -0.3 0.1 0.5
v -0.3 0.6 0.5
v -0.3 0.9 0.5
v 0.3 0 0.5
v 0.3 0.1 0.5
v 0.3 0.6 0.5
v 0.3 0.9 0.5
v 0.4 0 0.5
v 0.4 0.1 0.5
v 0.5 0.6 0.5
v 0.5 0.9 0.5
v -0.4 0.3 0.4
v -0.4 0.6 0.4
v -0.3 0.4 0.4
v -0.3 0.6 0.4
v -0.1 0.3 0.4
v -0.1 0.4 0.4
v 0.1 0.3 0.4
v 0.1 0.4 0.4
v 0.3 0.4 0.4
v 0.3 0.6 0.4
v 0.4 0.3 0.4
v 0.4 0.6 0.4
v -0.3 0.1 0.3
v -0.3 0.3 0.3
v -0.2 0.1 0.3
v -0.2 0.3 0.3
v 0.2 0.1 0.3
v 0.2 0.3 0.3
v 0.3 0.1 0.3
v 0.3 0.3 0.3
v -0.4 1.3 0.3
v -0.4 1.6 0.3
v -0.3 1.3 0.3
v -0.3 1.6 0.3
v 0.3 1.3 0.3
v 0.3 1.6 0.3
v 0.4 1.3 0.3
v 0.4 1.6 0.3
v -0.3 0.1 0.2
v -0.3 0.3 0.2
v -0.2 0.1 0.2
v -0.2 0.3 0.2
v 0.2 0.1 0.2
v 0.2 0.3 0.2
v 0.3 0.1 0.2
v 0.3 0.3 0.2
v -0.4 0 0.0999999
v -0.4 0.1 0.0999999
v -0.4 0.3 0.0999999
v -0.4 0.6 0.0999999
v -0.3 0.4 0.0999999
v -0.3 0.6 0.0999999
v -0.2 0 0.0999999
v -0.2 0.1 0.0999999
v -0.1 0.3 0.0999999
v -0.1 0.4 0.0999999
v 0.1 0.3 0.0999999
v 0.1 0.4 0.0999999
v 0.2 0 0.0999999
v 0.2 0.1 0.0999999
v 0.3 0.4 0.0999999
v 0.3 0.6 0.0999999
v 0.4 0 0.0999999
v 0.4 0.1 0.0999999
v 0.4 0.3 0.0999999
v 0.4 0.6 0.0999999
v -0.3 0.7 -1.19209e-07
v -0.3 0.9 -1.19209e-07
v -0.3 1.1 -1.19209e-07
v -0.3 1.7 -1.19209e-07
v 0.3 0.7 -1.19209e-07
v 0.3 0.9 -1.19209e-07
v 0.3 1.1 -1.19209e-07
v 0.3 1.7 -1.19209e-07
v -0.5 0.6 -0.2
v -0.5 0.9 -0.2
v -0.3 0.6 -0.2
v -0.3 0.7 -0.2
v -0.3 0.9 -0.2
v 0.3 0.6 -0.2
v 0.3 0.7 -0.2
v 0.3 0.9 -0.2
v 0.5 0.6 -0.2
v 0.5 0.9 -0.2
v -0.3 0.4 -0.3
v -0.3 0.7 -0.3
v 0.3 0.4 -0.3
v 0.3 0.7 -0.3
v -0.3 0 0.7
v -0.2 0 0.7
v 0.2 0 0.7
v 0.3 0 0.7
v -0.4 0 0.5
v -0.3 0 0.5
v 0.3 0 0.5
v 0.4 0 0.5
v -0.4 0 0.0999999
v -0.2 0 0.0999999
v 0.2 0 0.0999999
v 0.4 0 0.0999999
v -0.4 0.3 0.4
v -0.1 0.3 0.4
v 0.1 0.3 0.4
v 0.4 0.3 0.4
v -0.3 0.3 0.3
v -0.2 0.3 0.3
v 0.2 0.3 0.3
v 0.3 0.3 0.3
v -0.3 0.3 0.2
v -0.2 0.3 0.2
v 0.2 0.3 0.2
v 0.3 0.3 0.2
v -0.4 0.3 0.0999999
v -0.1 0.3 0.0999999
v 0.1 0.3 0.0999999
v 0.4 0.3 0.0999999
v -0.3 0.4 0.7
v 0.3 0.4 0.7
v -0.3 0.4 0.4
v -0.1 0.4 0.4
v 0.1 0.4 0.4
v 0.3 0.4 0.4
v -0.3 0.4 0.0999999
v -0.1 0.4 0.0999999
v 0.1 0.4 0.0999999
v 0.3 0.4 0.0999999
v -0.3 0.4 -1.19209e-07
v 0.3 0.4 -1.19209e-07
v -0.3 0.4 -0.3
v 0.3 0.4 -0.3
v -0.5 0.6 0.5
v -0.3 0.6 0.5
v 0.3 0.6 0.5
v 0.5 0.6 0.5
v -0.4 0.6 0.4
v -0.3 0.6 0.4
v 0.3 0.6 0.4
v 0.4 0.6 0.4
v -0.5 0.6 0.3
v -0.4 0.6 0.3
v 0.4 0.6 0.3
v 0.5 0.6 0.3
v -0.5 0.6 0.0999999
v -0.4 0.6 0.0999999
v -0.3 0.6 0.0999999
v 0.3 0.6 0.0999999
v 0.4 0.6 0.0999999
v 0.5 0.6 0.0999999
v -0.5 0.6 -1.19209e-07
v -0.3 0.6 -1.19209e-07
v 0.3 0.6 -1.19209e-07
v 0.5 0.6 -1.19209e-07
v -0.5 0.6 -0.2
v -0.3 0.6 -0.2
v 0.3 0.6 -0.2
v 0.5 0.6 -0.2
v -0.1 1.3 1
v 0.1 1.3 1
v -0.1 1.3 0.7
v 0.1 1.3 0.7
v -0.4 1.3 0.6
v -0.3 1.3 0.6
v 0.3 1.3 0.6
v 0.4 1.3 0.6
v -0.4 1.3 0.3
v -0.3 1.3 0.3
v 0.3 1.3 0.3
v 0.4 1.3 0.3
v -0.3 0.1 0.7
v -0.2 0.1 0.7
v 0.2 0.1 0.7
v 0.3 0.1 0.7
v -0.4 0.1 0.5
v -0.3 0.1 0.5
v 0.3 0.1 0.5
v 0.4 0.1 0.5
v -0.3 0.1 0.3
v -0.2 0.1 0.3
v 0.2 0.1 0.3
v 0.3 0.1 0.3
v -0.3 0.1 0.2
v -0.2 0.1 0.2
v 0.2 0.1 0.2
v 0.3 0.1 0.2
v -0.4 0.1 0.0999999
v -0.2 0.1 0.0999999
v 0.2 0.1 0.0999999
v 0.4 0.1 0.0999999
v -0.3 0.7 -1.19209e-07
v 0.3 0.7 -1.19209e-07
v -0.3 0.7 -0.2
v 0.3 0.7 -0.2
v -0.3 0.7 -0.3
v 0.3 0.7 -0.3
v -0.5 0.9 0.5
v -0.3 0.9 0.5
v 0.3 0.9 0.5
v 0.5 0.9 0.5
v -0.5 0.9 0.3
v -0.3 0.9 0.3
v 0.3 0.9 0.3
v 0.5 0.9 0.3
v -0.5 0.9 0.0999999
v -0.3 0.9 0.0999999
v 0.3 0.9 0.0999999
v 0.5 0.9 0.0999999
v -0.5 0.9 -1.19209e-07
v -0.3 0.9 -1.19209e-07
v 0.3 0.9 -1.19209e-07
v 0.5 0.9 -1.19209e-07
v -0.5 0.9 -0.2
v -0.3 0.9 -0.2
v 0.3 0.9 -0.2
v 0.5 0.9 -0.2
v -0.1 1.5 1
v 0.1 1.5 1
v -0.1 1.5 0.8
v 0.1 1.5 0.8
v -0.1 1.6 0.8
v 0.1 1.6 0.8
v -0.1 1.6 0.7
v 0.1 1.6 0.7
v -0.4 1.6 0.6
v -0.3 1.6 0.6
v 0.3 1.6 0.6
v 0.4 1.6 0.6
v -0.4 1.6 0.3
v -0.3 1.6 0.3
v 0.3 1.6 0.3
v 0.4 1.6 0.3
v -0.3 1.7 0.7
v 0.3 1.7 0.7
v -0.3 1.7 -1.19209e-07
v 0.3 1.7 -1.19209e-07

# faces
f 6/3/1 2/3/1 1/3/1
f 7/5/1 3/5/1 2/5/1
f 7/3/1 2/3/1 6/3/1
f 8/3/1 4/3/1 3/3/1
f 8/5/1 3/5/1 7/5/1
f 9/5/1 5/5/1 4/5/1
f 9/3/1 4/3/1 8/3/1
f 10/5/1 5/5/1 9/5/1
f 13/1/1 12/1/1 11/1/1
f 14/1/1 12/1/1 13/1/1
f 17/4/1 16/4/1 15/4/1
f 18/4/1 16/4/1 17/4/1
f 19/4/1 16/4/1 18/4/1
f 22/2/1 21/2/1 20/2/1
f 23/2/1 21/2/1 22/2/1
f 24/2/1 22/2/1 20/2/1
f 24/6/1 23/6/1 22/6/1
f 25/2/1 21/2/1 23/2/1
f 25/6/1 23/6/1 24/6/1
f 26/2/1 24/2/1 20/2/1
f 26/2/1 25/2/1 24/2/1
f 27/2/1 21/2/1 25/2/1
f 27/2/1 25/2/1 26/2/1
f 30/1/1 29/1/1 28/1/1
f 31/1/1 29/1/1 30/1/1
f 34/1/1 33/1/1 32/1/1
f 35/1/1 33/1/1 34/1/1
f 41/4/1 37/4/1 36/4/1
f 42/4/1 37/4/1 41/4/1
f 43/4/1 39/4/1 38/4/1
f 44/3/1 40/3/1 39/3/1
f 44/4/1 39/4/1 43/4/1
f 45/3/1 40/3/1 44/3/1
f 46/3/1 40/3/1 45/3/1
f 47/3/1 40/3/1 46/3/1
f 48/4/1 41/4/1 36/4/1
f 52/4/1 48/4/1 36/4/1
f 52/4/1 51/4/1 50/4/1
f 52/4/1 50/4/1 49/4/1
f 52/4/1 49/4/1 48/4/1
f 53/4/1 51/4/1 52/4/1
f 54/3/1 53/3/1 52/3/1
f 55/3/1 53/3/1 54/3/1
f 56/3/1 54/3/1 52/3/1
f 57/3/1 53/3/1 55/3/1
f 58/3/1 56/3/1 52/3/1
f 58/3/1 57/3/1 56/3/1
f 59/3/1 53/3/1 57/3/1
f 59/3/1 57/3/1 58/3/1
f 62/5/1 61/5/1 60/5/1
f 63/5/1 61/5/1 62/5/1
f 64/5/1 61/5/1 63/5/1
f 65/4/1 64/4/1 63/4/1
f 66/4/1 64/4/1 65/4/1
f 69/4/1 68/4/1 67/4/1
f 70/4/1 68/4/1 69/4/1
f 73/1/1 72/1/1 71/1/1
f 74/1/1 72/1/1 73/1/1
f 75/1/1 72/1/1 74/1/1
f 76/1/1 72/1/1 75/1/1
f 77/1/1 75/1/1 74/1/1
f 78/1/1 75/1/1 77/1/1
f 81/5/1 80/5/1 79/5/1
f 82/5/1 80/5/1 81/5/1
f 83/5/2 84/5/2 85/5/2
f 85/5/2 84/5/2 86/5/2
f 87/1/2 88/1/2 89/1/2
f 89/1/2 88/1/2 90/1/2
f 90/1/2 88/1/2 91/1/2
f 91/1/2 88/1/2 92/1/2
f 90/1/2 91/1/2 93/1/2
f 93/1/2 91/1/2 94/1/2
f 95/4/2 96/4/2 97/4/2
f 97/4/2 96/4/2 98/4/2
f 99/5/2 100/5/2 101/5/2
f 101/5/2 100/5/2 102/5/2
f 102/5/2 100/5/2 103/5/2
f 102/4/2 103/4/2 104/4/2
f 104/4/2 103/4/2 105/4/2
f 106/1/2 107/1/2 108/1/2
f 108/1/2 107/1/2 109/1/2
f 110/1/2 111/1/2 112/1/2
f 112/1/2 111/1/2 113/1/2
f 114/4/2 115/4/2 119/4/2
f 119/4/2 115/4/2 120/4/2
f 116/4/2 117/4/2 121/4/2
f 117/3/2 118/3/2 122/3/2
f 121/4/2 117/4/2 122/4/2
f 122/3/2 118/3/2 123/3/2
f 123/3/2 118/3/2 124/3/2
f 124/3/2 118/3/2 125/3/2
f 114/4/2 119/4/2 126/4/2
f 114/4/2 126/4/2 130/4/2
f 128/4/2 129/4/2 130/4/2
f 127/4/2 128/4/2 130/4/2
f 126/4/2 127/4/2 130/4/2
f 130/4/2 129/4/2 131/4/2
f 130/3/2 131/3/2 132/3/2
f 132/3/2 131/3/2 133/3/2
f 130/3/2 132/3/2 134/3/2
f 133/3/2 131/3/2 135/3/2
f 130/3/2 134/3/2 136/3/2
f 134/3/2 135/3/2 136/3/2
f 135/3/2 131/3/2 137/3/2
f 136/3/2 135/3/2 137/3/2
f 138/1/2 139/1/2 140/1/2
f 140/1/2 139/1/2 141/1/2
f 142/4/2 143/4/2 144/4/2
f 144/4/2 143/4/2 145/4/2
f 145/4/2 143/4/2 146/4/2
f 147/2/2 148/2/2 149/2/2
f 149/2/2 148/2/2 150/2/2
f 147/2/2 149/2/2 151/2/2
f 149/6/2 150/6/2 151/6/2
f 150/2/2 148/2/2 152/2/2
f 151/6/2 150/6/2 152/6/2
f 147/2/2 151/2/2 153/2/2
f 151/2/2 152/2/2 153/2/2
f 152/2/2 148/2/2 154/2/2
f 153/2/2 152/2/2 154/2/2
f 155/3/2 156/3/2 160/3/2
f 156/5/2 157/5/2 161/5/2
f 160/3/2 156/3/2 161/3/2
f 157/3/2 158/3/2 162/3/2
f 161/5/2 157/5/2 162/5/2
f 158/5/2 159/5/2 163/5/2
f 162/3/2 158/3/2 163/3/2
f 163/5/2 159/5/2 164/5/2
f 167/5/3 166/5/3 165/5/3
f 168/5/3 166/5/3 167/5/3
f 171/4/3 170/4/3 169/4/3
f 172/4/3 170/4/3 171/4/3
f 178/1/3 174/1/3 173/1/3
f 179/1/3 174/1/3 178/1/3
f 180/3/3 177/3/3 176/3/3
f 181/3/3 177/3/3 180/3/3
f 182/3/3 177/3/3 181/3/3
f 183/3/3 180/3/3 176/3/3
f 185/3/3 177/3/3 182/3/3
f 188/1/3 187/1/3 186/1/3
f 189/1/3 187/1/3 188/1/3
f 190/4/3 176/4/3 175/4/3
f 191/3/3 184/3/3 183/3/3
f 191/4/3 176/4/3 190/4/3
f 191/3/3 183/3/3 176/3/3
f 191/3/3 185/3/3 184/3/3
f 192/3/3 177/3/3 185/3/3
f 192/3/3 185/3/3 191/3/3
f 195/2/3 194/2/3 193/2/3
f 196/2/3 194/2/3 195/2/3
f 199/2/3 198/2/3 197/2/3
f 200/2/3 198/2/3 199/2/3
f 205/1/3 204/1/3 203/1/3
f 206/1/3 204/1/3 205/1/3
f 207/3/3 202/3/3 201/3/3
f 208/3/3 202/3/3 207/3/3
f 213/1/3 210/1/3 209/1/3
f 214/1/3 210/1/3 213/1/3
f 215/3/3 212/3/3 211/3/3
f 216/3/3 212/3/3 215/3/3
f 219/4/3 218/4/3 217/4/3
f 220/4/3 218/4/3 219/4/3
f 221/4/3 219/4/3 217/4/3
f 222/4/3 219/4/3 221/4/3
f 225/4/3 224/4/3 223/4/3
f 227/4/3 225/4/3 223/4/3
f 227/4/3 226/4/3 225/4/3
f 228/4/3 226/4/3 227/4/3
f 231/1/3 230/1/3 229/1/3
f 232/1/3 230/1/3 231/1/3
f 235/1/3 234/1/3 233/1/3
f 236/1/3 234/1/3 235/1/3
f 237/2/4 238/2/4 239/2/4
f 239/2/4 238/2/4 240/2/4
f 241/2/4 242/2/4 243/2/4
f 243/2/4 242/2/4 244/2/4
f 245/1/4 246/1/4 247/1/4
f 247/1/4 246/1/4 248/1/4
f 249/1/4 250/1/4 251/1/4
f 251/1/4 250/1/4 252/1/4
f 255/4/4 256/4/4 257/4/4
f 257/4/4 256/4/4 258/4/4
f 253/1/4 254/1/4 259/1/4
f 259/1/4 254/1/4 260/1/4
f 255/4/4 257/4/4 261/4/4
f 261/4/4 257/4/4 262/4/4
f 263/4/4 264/4/4 267/4/4
f 265/1/4 266/1/4 269/1/4
f 269/1/4 266/1/4 270/1/4
f 263/4/4 267/4/4 271/4/4
f 267/4/4 268/4/4 271/4/4
f 271/4/4 268/4/4 272/4/4
f 273/4/4 274/4/4 277/4/4
f 274/4/4 275/4/4 277/4/4
f 277/4/4 275/4/4 278/4/4
f 275/3/4 276/3/4 279/3/4
f 278/4/4 275/4/4 279/4/4
f 279/3/4 276/3/4 280/3/4
f 281/5/4 282/5/4 283/5/4
f 283/5/4 282/5/4 284/5/4
f 284/5/4 282/5/4 285/5/4
f 286/5/4 287/5/4 289/5/4
f 287/5/4 288/5/4 289/5/4
f 289/5/4 288/5/4 290/5/4
f 291/3/4 292/3/4 293/3/4
f 293/3/4 292/3/4 294/3/4
f 300/1/5 296/1/5 295/1/5
f 301/1/5 298/1/5 297/1/5
f 303/1/5 300/1/5 299/1/5
f 304/1/5 296/1/5 300/1/5
f 304/1/5 300/1/5 303/1/5
f 305/1/5 302/1/5 301/1/5
f 305/1/5 301/1/5 297/1/5
f 306/1/5 302/1/5 305/1/5
f 311/4/5 308/4/5 307/4/5
f 312/4/5 308/4/5 311/4/5
f 313/4/5 310/4/5 309/4/5
f 314/4/5 310/4/5 313/4/5
f 315/4/5 311/4/5 307/4/5
f 316/4/5 308/4/5 312/4/5
f 317/4/5 313/4/5 309/4/5
f 318/4/5 310/4/5 314/4/5
f 319/4/5 315/4/5 307/4/5
f 319/4/5 316/4/5 315/4/5
f 320/4/5 308/4/5 316/4/5
f 320/4/5 316/4/5 319/4/5
f 321/4/5 318/4/5 317/4/5
f 321/4/5 317/4/5 309/4/5
f 322/4/5 310/4/5 318/4/5
f 322/4/5 318/4/5 321/4/5
f 325/4/5 324/4/5 323/4/5
f 326/4/5 324/4/5 325/4/5
f 327/4/5 324/4/5 326/4/5
f 328/4/5 324/4/5 327/4/5
f 330/4/5 327/4/5 326/4/5
f 331/4/5 327/4/5 330/4/5
f 333/4/5 330/4/5 329/4/5
f 333/4/5 332/4/5 331/4/5
f 333/4/5 331/4/5 330/4/5
f 334/4/5 332/4/5 333/4/5
f 335/3/5 334/3/5 333/3/5
f 336/3/5 334/3/5 335/3/5
f 341/3/5 338/3/5 337/3/5
f 342/3/5 338/3/5 341/3/5
f 343/3/5 340/3/5 339/3/5
f 344/3/5 340/3/5 343/3/5
f 345/3/5 341/3/5 337/3/5
f 346/3/5 341/3/5 345/3/5
f 347/3/5 340/3/5 344/3/5
f 348/3/5 340/3/5 347/3/5
f 349/5/5 346/5/5 345/5/5
f 350/5/5 346/5/5 349/5/5
f 353/5/5 348/5/5 347/5/5
f 354/5/5 348/5/5 353/5/5
f 355/3/5 351/3/5 350/3/5
f 355/3/5 350/3/5 349/3/5
f 356/3/5 351/3/5 355/3/5
f 357/3/5 354/3/5 353/3/5
f 357/3/5 353/3/5 352/3/5
f 358/3/5 354/3/5 357/3/5
f 359/5/5 356/5/5 355/5/5
f 360/5/5 356/5/5 359/5/5
f 361/5/5 358/5/5 357/5/5
f 362/5/5 358/5/5 361/5/5
f 365/5/5 364/5/5 363/5/5
f 366/5/5 364/5/5 365/5/5
f 371/2/5 368/2/5 367/2/5
f 372/2/5 368/2/5 371/2/5
f 373/2/5 370/2/5 369/2/5
f 374/2/5 370/2/5 373/2/5
f 375/1/6 376/1/6 380/1/6
f 377/1/6 378/1/6 381/1/6
f 379/1/6 380/1/6 383/1/6
f 380/1/6 376/1/6 383/1/6
f 383/1/6 376/1/6 384/1/6
f 381/1/6 382/1/6 385/1/6
f 377/1/6 381/1/6 385/1/6
f 385/1/6 382/1/6 386/1/6
f 379/1/6 383/1/6 387/1/6
f 386/1/6 382/1/6 390/1/6
f 387/1/6 388/1/6 391/1/6
f 379/1/6 387/1/6 391/1/6
f 391/1/6 388/1/6 392/1/6
f 389/1/6 390/1/6 393/1/6
f 390/1/6 382/1/6 394/1/6
f 393/1/6 390/1/6 394/1/6
f 395/3/6 396/3/6 397/3/6
f 397/3/6 396/3/6 398/3/6
f 397/3/6 398/3/6 399/3/6
f 399/3/6 398/3/6 400/3/6
f 401/3/6 402/3/6 405/3/6
f 405/3/6 402/3/6 406/3/6
f 403/3/6 404/3/6 407/3/6
f 407/3/6 404/3/6 408/3/6
f 405/5/6 406/5/6 409/5/6
f 409/5/6 406/5/6 410/5/6
f 407/5/6 408/5/6 411/5/6
f 411/5/6 408/5/6 412/5/6
f 409/3/6 410/3/6 413/3/6
f 413/3/6 410/3/6 414/3/6
f 411/3/6 412/3/6 415/3/6
f 415/3/6 412/3/6 416/3/6
f 413/5/6 414/5/6 417/5/6
f 417/5/6 414/5/6 418/5/6
f 415/5/6 416/5/6 419/5/6
f 419/5/6 416/5/6 420/5/6
f 421/5/6 422/5/6 423/5/6
f 423/5/6 422/5/6 424/5/6
f 425/4/6 426/4/6 427/4/6
f 427/4/6 426/4/6 428/4/6
f 429/2/6 430/2/6 433/2/6
f 433/2/6 430/2/6 434/2/6
f 431/2/6 432/2/6 435/2/6
f 435/2/6 432/2/6 436/2/6
f 437/3/6 438/3/6 439/3/6
f 439/3/6 438/3/6 440/3/6
