# MagicaVoxel @ Ephtracy

# group
o 

# material
mtllib pigeon.mtl
usemtl palette

# normals
vn -1 0 0
vn 1 0 0
vn 0 0 1
vn 0 0 -1
vn 0 -1 0
vn 0 1 0

# texcoords
vt 0.208984 0.5
vt 0.912109 0.5
vt 0.927734 0.5
vt 0.966797 0.5
vt 0.986328 0.5
vt 0.994141 0.5

# verts
v -0.5 0.6 0.2
v -0.5 0.6 -2.98023e-08
v -0.5 0.6 -0.1
v -0.5 0.6 -0.3
v -0.5 0.6 -0.5
v -0.5 0.9 0.2
v -0.5 0.9 -2.98023e-08
v -0.5 0.9 -0.1
v -0.5 0.9 -0.3
v -0.5 0.9 -0.5
v -0.4 0 -0.1
v -0.4 0 -0.5
v -0.4 0.1 -0.1
v -0.4 0.1 -0.5
v -0.4 0.3 -0.1
v -0.4 0.3 -0.4
v -0.4 0.6 -0.1
v -0.4 0.6 -0.3
v -0.4 0.6 -0.4
v -0.4 1.3 -0.3
v -0.4 1.3 -0.6
v -0.4 1.4 -0.4
v -0.4 1.4 -0.5
v -0.4 1.5 -0.4
v -0.4 1.5 -0.5
v -0.4 1.6 -0.3
v -0.4 1.6 -0.6
v -0.3 0 -0.5
v -0.3 0 -0.7
v -0.3 0.1 -0.2
v -0.3 0.1 -0.3
v -0.3 0.1 -0.5
v -0.3 0.1 -0.7
v -0.3 0.3 -0.2
v -0.3 0.3 -0.3
v -0.3 0.4 0.3
v -0.3 0.4 -2.98023e-08
v -0.3 0.4 -0.1
v -0.3 0.4 -0.4
v -0.3 0.4 -0.7
v -0.3 0.6 0.2
v -0.3 0.6 -2.98023e-08
v -0.3 0.6 -0.1
v -0.3 0.6 -0.4
v -0.3 0.6 -0.5
v -0.3 0.7 0.3
v -0.3 0.7 0.2
v -0.3 0.9 -2.98023e-08
v -0.3 0.9 -0.1
v -0.3 0.9 -0.3
v -0.3 0.9 -0.5
v -0.3 1.1 -2.98023e-08
v -0.3 1.1 -0.7
v -0.3 1.3 -0.3
v -0.3 1.3 -0.6
v -0.3 1.6 -0.3
v -0.3 1.6 -0.6
v -0.3 1.7 -2.98023e-08
v -0.3 1.7 -0.7
v -0.1 1.3 -0.7
v -0.1 1.3 -1.1
v -0.1 1.5 -0.7
v -0.1 1.5 -0.8
v -0.1 1.5 -1.1
v -0.1 1.6 -0.7
v -0.1 1.6 -0.8
v 0.1 0.3 -0.1
v 0.1 0.3 -0.4
v 0.1 0.4 -0.1
v 0.1 0.4 -0.4
v 0.2 0 -0.1
v 0.2 0 -0.7
v 0.2 0.1 -0.1
v 0.2 0.1 -0.2
v 0.2 0.1 -0.3
v 0.2 0.1 -0.7
v 0.2 0.3 -0.2
v 0.2 0.3 -0.3
v 0.3 0.7 0.2
v 0.3 0.7 -2.98023e-08
v 0.3 0.9 0.2
v 0.3 0.9 -2.98023e-08
v -0.3 0.7 0.2
v -0.3 0.7 -2.98023e-08
v -0.3 0.9 0.2
v -0.3 0.9 -2.98023e-08
v -0.2 0 -0.1
v -0.2 0 -0.7
v -0.2 0.1 -0.1
v -0.2 0.1 -0.2
v -0.2 0.1 -0.3
v -0.2 0.1 -0.7
v -0.2 0.3 -0.2
v -0.2 0.3 -0.3
v -0.1 0.3 -0.1
v -0.1 0.3 -0.4
v -0.1 0.4 -0.1
v -0.1 0.4 -0.4
v 0.1 1.3 -0.7
v 0.1 1.3 -1.1
v 0.1 1.5 -0.7
v 0.1 1.5 -0.8
v 0.1 1.5 -1.1
v 0.1 1.6 -0.7
v 0.1 1.6 -0.8
v 0.3 0 -0.5
v 0.3 0 -0.7
v 0.3 0.1 -0.2
v 0.3 0.1 -0.3
v 0.3 0.1 -0.5
v 0.3 0.1 -0.7
v 0.3 0.3 -0.2
v 0.3 0.3 -0.3
v 0.3 0.4 0.3
v 0.3 0.4 -2.98023e-08
v 0.3 0.4 -0.1
v 0.3 0.4 -0.4
v 0.3 0.4 -0.7
v 0.3 0.6 0.2
v 0.3 0.6 -2.98023e-08
v 0.3 0.6 -0.1
v 0.3 0.6 -0.4
v 0.3 0.6 -0.5
v 0.3 0.7 0.3
v 0.3 0.7 0.2
v 0.3 0.9 -2.98023e-08
v 0.3 0.9 -0.1
v 0.3 0.9 -0.3
v 0.3 0.9 -0.5
v 0.3 1.1 -2.98023e-08
v 0.3 1.1 -0.7
v 0.3 1.3 -0.3
v 0.3 1.3 -0.6
v 0.3 1.6 -0.3
v 0.3 1.6 -0.6
v 0.3 1.7 -2.98023e-08
v 0.3 1.7 -0.7
v 0.4 0 -0.1
v 0.4 0 -0.5
v 0.4 0.1 -0.1
v 0.4 0.1 -0.5
v 0.4 0.3 -0.1
v 0.4 0.3 -0.4
v 0.4 0.6 -0.1
v 0.4 0.6 -0.3
v 0.4 0.6 -0.4
v 0.4 1.3 -0.3
v 0.4 1.3 -0.6
v 0.4 1.4 -0.4
v 0.4 1.4 -0.5
v 0.4 1.5 -0.4
v 0.4 1.5 -0.5
v 0.4 1.6 -0.3
v 0.4 1.6 -0.6
v 0.5 0.6 0.2
v 0.5 0.6 -2.98023e-08
v 0.5 0.6 -0.1
v 0.5 0.6 -0.3
v 0.5 0.6 -0.5
v 0.5 0.9 0.2
v 0.5 0.9 -2.98023e-08
v 0.5 0.9 -0.1
v 0.5 0.9 -0.3
v 0.5 0.9 -0.5
v -0.3 0.4 0.3
v -0.3 0.7 0.3
v 0.3 0.4 0.3
v 0.3 0.7 0.3
v -0.5 0.6 0.2
v -0.5 0.9 0.2
v -0.3 0.6 0.2
v -0.3 0.7 0.2
v -0.3 0.9 0.2
v 0.3 0.6 0.2
v 0.3 0.7 0.2
v 0.3 0.9 0.2
v 0.5 0.6 0.2
v 0.5 0.9 0.2
v -0.3 0.7 -2.98023e-08
v -0.3 0.9 -2.98023e-08
v -0.3 1.1 -2.98023e-08
v -0.3 1.7 -2.98023e-08
v 0.3 0.7 -2.98023e-08
v 0.3 0.9 -2.98023e-08
v 0.3 1.1 -2.98023e-08
v 0.3 1.7 -2.98023e-08
v -0.4 0 -0.1
v -0.4 0.1 -0.1
v -0.4 0.3 -0.1
v -0.4 0.6 -0.1
v -0.3 0.4 -0.1
v -0.3 0.6 -0.1
v -0.2 0 -0.1
v -0.2 0.1 -0.1
v -0.1 0.3 -0.1
v -0.1 0.4 -0.1
v 0.1 0.3 -0.1
v 0.1 0.4 -0.1
v 0.2 0 -0.1
v 0.2 0.1 -0.1
v 0.3 0.4 -0.1
v 0.3 0.6 -0.1
v 0.4 0 -0.1
v 0.4 0.1 -0.1
v 0.4 0.3 -0.1
v 0.4 0.6 -0.1
v -0.3 0.1 -0.2
v -0.3 0.3 -0.2
v -0.2 0.1 -0.2
v -0.2 0.3 -0.2
v 0.2 0.1 -0.2
v 0.2 0.3 -0.2
v 0.3 0.1 -0.2
v 0.3 0.3 -0.2
v -0.4 1.3 -0.3
v -0.4 1.6 -0.3
v -0.3 1.3 -0.3
v -0.3 1.6 -0.3
v 0.3 1.3 -0.3
v 0.3 1.6 -0.3
v 0.4 1.3 -0.3
v 0.4 1.6 -0.3
v -0.3 0.1 -0.3
v -0.3 0.3 -0.3
v -0.2 0.1 -0.3
v -0.2 0.3 -0.3
v 0.2 0.1 -0.3
v 0.2 0.3 -0.3
v 0.3 0.1 -0.3
v 0.3 0.3 -0.3
v -0.4 0.3 -0.4
v -0.4 0.6 -0.4
v -0.3 0.4 -0.4
v -0.3 0.6 -0.4
v -0.1 0.3 -0.4
v -0.1 0.4 -0.4
v 0.1 0.3 -0.4
v 0.1 0.4 -0.4
v 0.3 0.4 -0.4
v 0.3 0.6 -0.4
v 0.4 0.3 -0.4
v 0.4 0.6 -0.4
v -0.5 0.6 -0.5
v -0.5 0.9 -0.5
v -0.4 0 -0.5
v -0.4 0.1 -0.5
v -0.3 0 -0.5
v -0.3 0.1 -0.5
v -0.3 0.6 -0.5
v -0.3 0.9 -0.5
v 0.3 0 -0.5
v 0.3 0.1 -0.5
v 0.3 0.6 -0.5
v 0.3 0.9 -0.5
v 0.4 0 -0.5
v 0.4 0.1 -0.5
v 0.5 0.6 -0.5
v 0.5 0.9 -0.5
v -0.4 1.3 -0.6
v -0.4 1.6 -0.6
v -0.3 1.3 -0.6
v -0.3 1.6 -0.6
v 0.3 1.3 -0.6
v 0.3 1.6 -0.6
v 0.4 1.3 -0.6
v 0.4 1.6 -0.6
v -0.3 0 -0.7
v -0.3 0.1 -0.7
v -0.3 0.4 -0.7
v -0.3 1.1 -0.7
v -0.3 1.7 -0.7
v -0.2 0 -0.7
v -0.2 0.1 -0.7
v -0.1 1.3 -0.7
v -0.1 1.5 -0.7
v -0.1 1.6 -0.7
v 0.1 1.3 -0.7
v 0.1 1.5 -0.7
v 0.1 1.6 -0.7
v 0.2 0 -0.7
v 0.2 0.1 -0.7
v 0.3 0 -0.7
v 0.3 0.1 -0.7
v 0.3 0.4 -0.7
v 0.3 1.1 -0.7
v 0.3 1.7 -0.7
v -0.1 1.5 -0.8
v -0.1 1.6 -0.8
v 0.1 1.5 -0.8
v 0.1 1.6 -0.8
v -0.1 1.3 -1.1
v -0.1 1.5 -1.1
v 0.1 1.3 -1.1
v 0.1 1.5 -1.1
v -0.4 0 -0.1
v -0.2 0 -0.1
v 0.2 0 -0.1
v 0.4 0 -0.1
v -0.4 0 -0.5
v -0.3 0 -0.5
v 0.3 0 -0.5
v 0.4 0 -0.5
v -0.3 0 -0.7
v -0.2 0 -0.7
v 0.2 0 -0.7
v 0.3 0 -0.7
v -0.4 0.3 -0.1
v -0.1 0.3 -0.1
v 0.1 0.3 -0.1
v 0.4 0.3 -0.1
v -0.3 0.3 -0.2
v -0.2 0.3 -0.2
v 0.2 0.3 -0.2
v 0.3 0.3 -0.2
v -0.3 0.3 -0.3
v -0.2 0.3 -0.3
v 0.2 0.3 -0.3
v 0.3 0.3 -0.3
v -0.4 0.3 -0.4
v -0.1 0.3 -0.4
v 0.1 0.3 -0.4
v 0.4 0.3 -0.4
v -0.3 0.4 0.3
v 0.3 0.4 0.3
v -0.3 0.4 -2.98023e-08
v 0.3 0.4 -2.98023e-08
v -0.3 0.4 -0.1
v -0.1 0.4 -0.1
v 0.1 0.4 -0.1
v 0.3 0.4 -0.1
v -0.3 0.4 -0.4
v -0.1 0.4 -0.4
v 0.1 0.4 -0.4
v 0.3 0.4 -0.4
v -0.3 0.4 -0.7
v 0.3 0.4 -0.7
v -0.5 0.6 0.2
v -0.3 0.6 0.2
v 0.3 0.6 0.2
v 0.5 0.6 0.2
v -0.5 0.6 -2.98023e-08
v -0.3 0.6 -2.98023e-08
v 0.3 0.6 -2.98023e-08
v 0.5 0.6 -2.98023e-08
v -0.5 0.6 -0.1
v -0.4 0.6 -0.1
v -0.3 0.6 -0.1
v 0.3 0.6 -0.1
v 0.4 0.6 -0.1
v 0.5 0.6 -0.1
v -0.5 0.6 -0.3
v -0.4 0.6 -0.3
v 0.4 0.6 -0.3
v 0.5 0.6 -0.3
v -0.4 0.6 -0.4
v -0.3 0.6 -0.4
v 0.3 0.6 -0.4
v 0.4 0.6 -0.4
v -0.5 0.6 -0.5
v -0.3 0.6 -0.5
v 0.3 0.6 -0.5
v 0.5 0.6 -0.5
v -0.4 1.3 -0.3
v -0.3 1.3 -0.3
v 0.3 1.3 -0.3
v 0.4 1.3 -0.3
v -0.4 1.3 -0.6
v -0.3 1.3 -0.6
v 0.3 1.3 -0.6
v 0.4 1.3 -0.6
v -0.1 1.3 -0.7
v 0.1 1.3 -0.7
v -0.1 1.3 -1.1
v 0.1 1.3 -1.1
v -0.4 0.1 -0.1
v -0.2 0.1 -0.1
v 0.2 0.1 -0.1
v 0.4 0.1 -0.1
v -0.3 0.1 -0.2
v -0.2 0.1 -0.2
v 0.2 0.1 -0.2
v 0.3 0.1 -0.2
v -0.3 0.1 -0.3
v -0.2 0.1 -0.3
v 0.2 0.1 -0.3
v 0.3 0.1 -0.3
v -0.4 0.1 -0.5
v -0.3 0.1 -0.5
v 0.3 0.1 -0.5
v 0.4 0.1 -0.5
v -0.3 0.1 -0.7
v -0.2 0.1 -0.7
v 0.2 0.1 -0.7
v 0.3 0.1 -0.7
v -0.3 0.7 0.3
v 0.3 0.7 0.3
v -0.3 0.7 0.2
v 0.3 0.7 0.2
v -0.3 0.7 -2.98023e-08
v 0.3 0.7 -2.98023e-08
v -0.5 0.9 0.2
v -0.3 0.9 0.2
v 0.3 0.9 0.2
v 0.5 0.9 0.2
v -0.5 0.9 -2.98023e-08
v -0.3 0.9 -2.98023e-08
v 0.3 0.9 -2.98023e-08
v 0.5 0.9 -2.98023e-08
v -0.5 0.9 -0.1
v -0.3 0.9 -0.1
v 0.3 0.9 -0.1
v 0.5 0.9 -0.1
v -0.5 0.9 -0.3
v -0.3 0.9 -0.3
v 0.3 0.9 -0.3
v 0.5 0.9 -0.3
v -0.5 0.9 -0.5
v -0.3 0.9 -0.5
v 0.3 0.9 -0.5
v 0.5 0.9 -0.5
v -0.1 1.5 -0.8
v 0.1 1.5 -0.8
v -0.1 1.5 -1.1
v 0.1 1.5 -1.1
v -0.4 1.6 -0.3
v -0.3 1.6 -0.3
v 0.3 1.6 -0.3
v 0.4 1.6 -0.3
v -0.4 1.6 -0.6
v -0.3 1.6 -0.6
v 0.3 1.6 -0.6
v 0.4 1.6 -0.6
v -0.1 1.6 -0.7
v 0.1 1.6 -0.7
v -0.1 1.6 -0.8
v 0.1 1.6 -0.8
v -0.3 1.7 -2.98023e-08
v 0.3 1.7 -2.98023e-08
v -0.3 1.7 -0.7
v 0.3 1.7 -0.7

# faces
f 6/5/1 2/5/1 1/5/1
f 7/3/1 3/3/1 2/3/1
f 7/5/1 2/5/1 6/5/1
f 8/5/1 4/5/1 3/5/1
f 8/3/1 3/3/1 7/3/1
f 9/3/1 5/3/1 4/3/1
f 9/5/1 4/5/1 8/5/1
f 10/3/1 5/3/1 9/3/1
f 13/1/1 12/1/1 11/1/1
f 14/1/1 12/1/1 13/1/1
f 17/4/1 16/4/1 15/4/1
f 18/4/1 16/4/1 17/4/1
f 19/4/1 16/4/1 18/4/1
f 22/2/1 21/2/1 20/2/1
f 23/2/1 21/2/1 22/2/1
f 24/2/1 22/2/1 20/2/1
f 24/6/1 23/6/1 22/6/1
f 25/2/1 21/2/1 23/2/1
f 25/6/1 23/6/1 24/6/1
f 26/2/1 24/2/1 20/2/1
f 26/2/1 25/2/1 24/2/1
f 27/2/1 21/2/1 25/2/1
f 27/2/1 25/2/1 26/2/1
f 32/1/1 29/1/1 28/1/1
f 33/1/1 29/1/1 32/1/1
f 34/1/1 31/1/1 30/1/1
f 35/1/1 31/1/1 34/1/1
f 41/3/1 37/3/1 36/3/1
f 42/4/1 38/4/1 37/4/1
f 42/3/1 37/3/1 41/3/1
f 43/4/1 38/4/1 42/4/1
f 44/4/1 40/4/1 39/4/1
f 45/4/1 40/4/1 44/4/1
f 46/3/1 41/3/1 36/3/1
f 47/3/1 41/3/1 46/3/1
f 51/4/1 40/4/1 45/4/1
f 52/4/1 50/4/1 49/4/1
f 52/4/1 51/4/1 50/4/1
f 52/4/1 49/4/1 48/4/1
f 53/4/1 40/4/1 51/4/1
f 53/4/1 51/4/1 52/4/1
f 54/3/1 53/3/1 52/3/1
f 55/3/1 53/3/1 54/3/1
f 56/3/1 54/3/1 52/3/1
f 57/3/1 53/3/1 55/3/1
f 58/3/1 56/3/1 52/3/1
f 58/3/1 57/3/1 56/3/1
f 59/3/1 53/3/1 57/3/1
f 59/3/1 57/3/1 58/3/1
f 62/5/1 61/5/1 60/5/1
f 63/5/1 61/5/1 62/5/1
f 64/5/1 61/5/1 63/5/1
f 65/4/1 63/4/1 62/4/1
f 66/4/1 63/4/1 65/4/1
f 69/4/1 68/4/1 67/4/1
f 70/4/1 68/4/1 69/4/1
f 73/1/1 72/1/1 71/1/1
f 74/1/1 72/1/1 73/1/1
f 75/1/1 72/1/1 74/1/1
f 76/1/1 72/1/1 75/1/1
f 77/1/1 75/1/1 74/1/1
f 78/1/1 75/1/1 77/1/1
f 81/5/1 80/5/1 79/5/1
f 82/5/1 80/5/1 81/5/1
f 83/5/2 84/5/2 85/5/2
f 85/5/2 84/5/2 86/5/2
f 87/1/2 88/1/2 89/1/2
f 89/1/2 88/1/2 90/1/2
f 90/1/2 88/1/2 91/1/2
f 91/1/2 88/1/2 92/1/2
f 90/1/2 91/1/2 93/1/2
f 93/1/2 91/1/2 94/1/2
f 95/4/2 96/4/2 97/4/2
f 97/4/2 96/4/2 98/4/2
f 99/5/2 100/5/2 101/5/2
f 101/5/2 100/5/2 102/5/2
f 102/5/2 100/5/2 103/5/2
f 101/4/2 102/4/2 104/4/2
f 104/4/2 102/4/2 105/4/2
f 106/1/2 107/1/2 110/1/2
f 110/1/2 107/1/2 111/1/2
f 108/1/2 109/1/2 112/1/2
f 112/1/2 109/1/2 113/1/2
f 114/3/2 115/3/2 119/3/2
f 115/4/2 116/4/2 120/4/2
f 119/3/2 115/3/2 120/3/2
f 120/4/2 116/4/2 121/4/2
f 117/4/2 118/4/2 122/4/2
f 122/4/2 118/4/2 123/4/2
f 114/3/2 119/3/2 124/3/2
f 124/3/2 119/3/2 125/3/2
f 123/4/2 118/4/2 129/4/2
f 127/4/2 128/4/2 130/4/2
f 128/4/2 129/4/2 130/4/2
f 126/4/2 127/4/2 130/4/2
f 129/4/2 118/4/2 131/4/2
f 130/4/2 129/4/2 131/4/2
f 130/3/2 131/3/2 132/3/2
f 132/3/2 131/3/2 133/3/2
f 130/3/2 132/3/2 134/3/2
f 133/3/2 131/3/2 135/3/2
f 130/3/2 134/3/2 136/3/2
f 134/3/2 135/3/2 136/3/2
f 135/3/2 131/3/2 137/3/2
f 136/3/2 135/3/2 137/3/2
f 138/1/2 139/1/2 140/1/2
f 140/1/2 139/1/2 141/1/2
f 142/4/2 143/4/2 144/4/2
f 144/4/2 143/4/2 145/4/2
f 145/4/2 143/4/2 146/4/2
f 147/2/2 148/2/2 149/2/2
f 149/2/2 148/2/2 150/2/2
f 147/2/2 149/2/2 151/2/2
f 149/6/2 150/6/2 151/6/2
f 150/2/2 148/2/2 152/2/2
f 151/6/2 150/6/2 152/6/2
f 147/2/2 151/2/2 153/2/2
f 151/2/2 152/2/2 153/2/2
f 152/2/2 148/2/2 154/2/2
f 153/2/2 152/2/2 154/2/2
f 155/5/2 156/5/2 160/5/2
f 156/3/2 157/3/2 161/3/2
f 160/5/2 156/5/2 161/5/2
f 157/5/2 158/5/2 162/5/2
f 161/3/2 157/3/2 162/3/2
f 158/3/2 159/3/2 163/3/2
f 162/5/2 158/5/2 163/5/2
f 163/3/2 159/3/2 164/3/2
f 167/3/3 166/3/3 165/3/3
f 168/3/3 166/3/3 167/3/3
f 171/5/3 170/5/3 169/5/3
f 172/5/3 170/5/3 171/5/3
f 173/5/3 170/5/3 172/5/3
f 177/5/3 175/5/3 174/5/3
f 177/5/3 176/5/3 175/5/3
f 178/5/3 176/5/3 177/5/3
f 183/4/3 180/4/3 179/4/3
f 183/4/3 181/4/3 180/4/3
f 184/4/3 181/4/3 183/4/3
f 185/3/3 182/3/3 181/3/3
f 185/4/3 181/4/3 184/4/3
f 186/3/3 182/3/3 185/3/3
f 191/4/3 190/4/3 189/4/3
f 192/4/3 190/4/3 191/4/3
f 193/1/3 188/1/3 187/1/3
f 194/1/3 188/1/3 193/1/3
f 195/4/3 191/4/3 189/4/3
f 196/4/3 191/4/3 195/4/3
f 201/4/3 198/4/3 197/4/3
f 203/1/3 200/1/3 199/1/3
f 204/1/3 200/1/3 203/1/3
f 205/4/3 201/4/3 197/4/3
f 205/4/3 202/4/3 201/4/3
f 206/4/3 202/4/3 205/4/3
f 209/1/3 208/1/3 207/1/3
f 210/1/3 208/1/3 209/1/3
f 213/1/3 212/1/3 211/1/3
f 214/1/3 212/1/3 213/1/3
f 217/2/3 216/2/3 215/2/3
f 218/2/3 216/2/3 217/2/3
f 221/2/3 220/2/3 219/2/3
f 222/2/3 220/2/3 221/2/3
f 223/1/4 224/1/4 225/1/4
f 225/1/4 224/1/4 226/1/4
f 227/1/4 228/1/4 229/1/4
f 229/1/4 228/1/4 230/1/4
f 231/4/4 232/4/4 233/4/4
f 233/4/4 232/4/4 234/4/4
f 231/4/4 233/4/4 235/4/4
f 235/4/4 233/4/4 236/4/4
f 237/4/4 238/4/4 239/4/4
f 237/4/4 239/4/4 241/4/4
f 239/4/4 240/4/4 241/4/4
f 241/4/4 240/4/4 242/4/4
f 245/1/4 246/1/4 247/1/4
f 247/1/4 246/1/4 248/1/4
f 243/3/4 244/3/4 249/3/4
f 249/3/4 244/3/4 250/3/4
f 251/1/4 252/1/4 255/1/4
f 255/1/4 252/1/4 256/1/4
f 253/3/4 254/3/4 257/3/4
f 257/3/4 254/3/4 258/3/4
f 259/2/4 260/2/4 261/2/4
f 261/2/4 260/2/4 262/2/4
f 263/2/4 264/2/4 265/2/4
f 265/2/4 264/2/4 266/2/4
f 267/1/4 268/1/4 272/1/4
f 272/1/4 268/1/4 273/1/4
f 270/3/4 271/3/4 274/3/4
f 274/3/4 271/3/4 275/3/4
f 275/3/4 271/3/4 276/3/4
f 270/3/4 274/3/4 277/3/4
f 276/3/4 271/3/4 279/3/4
f 280/1/4 281/1/4 282/1/4
f 282/1/4 281/1/4 283/1/4
f 269/4/4 270/4/4 284/4/4
f 277/3/4 278/3/4 285/3/4
f 284/4/4 270/4/4 285/4/4
f 270/3/4 277/3/4 285/3/4
f 278/3/4 279/3/4 285/3/4
f 279/3/4 271/3/4 286/3/4
f 285/3/4 279/3/4 286/3/4
f 287/4/4 288/4/4 289/4/4
f 289/4/4 288/4/4 290/4/4
f 291/5/4 292/5/4 293/5/4
f 293/5/4 292/5/4 294/5/4
f 299/1/5 296/1/5 295/1/5
f 300/1/5 296/1/5 299/1/5
f 301/1/5 298/1/5 297/1/5
f 302/1/5 298/1/5 301/1/5
f 303/1/5 296/1/5 300/1/5
f 304/1/5 296/1/5 303/1/5
f 305/1/5 301/1/5 297/1/5
f 306/1/5 301/1/5 305/1/5
f 311/4/5 308/4/5 307/4/5
f 312/4/5 308/4/5 311/4/5
f 313/4/5 310/4/5 309/4/5
f 314/4/5 310/4/5 313/4/5
f 315/4/5 311/4/5 307/4/5
f 316/4/5 308/4/5 312/4/5
f 317/4/5 313/4/5 309/4/5
f 318/4/5 310/4/5 314/4/5
f 319/4/5 315/4/5 307/4/5
f 319/4/5 316/4/5 315/4/5
f 320/4/5 308/4/5 316/4/5
f 320/4/5 316/4/5 319/4/5
f 321/4/5 318/4/5 317/4/5
f 321/4/5 317/4/5 309/4/5
f 322/4/5 310/4/5 318/4/5
f 322/4/5 318/4/5 321/4/5
f 325/3/5 324/3/5 323/3/5
f 326/3/5 324/3/5 325/3/5
f 327/4/5 326/4/5 325/4/5
f 328/4/5 326/4/5 327/4/5
f 329/4/5 326/4/5 328/4/5
f 330/4/5 326/4/5 329/4/5
f 332/4/5 329/4/5 328/4/5
f 333/4/5 329/4/5 332/4/5
f 335/4/5 332/4/5 331/4/5
f 335/4/5 334/4/5 333/4/5
f 335/4/5 333/4/5 332/4/5
f 336/4/5 334/4/5 335/4/5
f 341/5/5 338/5/5 337/5/5
f 342/5/5 338/5/5 341/5/5
f 343/5/5 340/5/5 339/5/5
f 344/5/5 340/5/5 343/5/5
f 345/3/5 342/3/5 341/3/5
f 346/3/5 342/3/5 345/3/5
f 347/3/5 342/3/5 346/3/5
f 348/3/5 344/3/5 343/3/5
f 349/3/5 344/3/5 348/3/5
f 350/3/5 344/3/5 349/3/5
f 351/5/5 346/5/5 345/5/5
f 352/5/5 346/5/5 351/5/5
f 353/5/5 350/5/5 349/5/5
f 354/5/5 350/5/5 353/5/5
f 355/3/5 352/3/5 351/3/5
f 358/3/5 354/3/5 353/3/5
f 359/3/5 356/3/5 355/3/5
f 359/3/5 355/3/5 351/3/5
f 360/3/5 356/3/5 359/3/5
f 361/3/5 358/3/5 357/3/5
f 362/3/5 354/3/5 358/3/5
f 362/3/5 358/3/5 361/3/5
f 367/2/5 364/2/5 363/2/5
f 368/2/5 364/2/5 367/2/5
f 369/2/5 366/2/5 365/2/5
f 370/2/5 366/2/5 369/2/5
f 373/5/5 372/5/5 371/5/5
f 374/5/5 372/5/5 373/5/5
f 375/1/6 376/1/6 379/1/6
f 379/1/6 376/1/6 380/1/6
f 377/1/6 378/1/6 381/1/6
f 381/1/6 378/1/6 382/1/6
f 375/1/6 379/1/6 383/1/6
f 382/1/6 378/1/6 386/1/6
f 383/1/6 384/1/6 387/1/6
f 375/1/6 383/1/6 387/1/6
f 387/1/6 384/1/6 388/1/6
f 385/1/6 386/1/6 389/1/6
f 386/1/6 378/1/6 389/1/6
f 389/1/6 378/1/6 390/1/6
f 388/1/6 384/1/6 391/1/6
f 391/1/6 384/1/6 392/1/6
f 385/1/6 389/1/6 393/1/6
f 393/1/6 389/1/6 394/1/6
f 395/3/6 396/3/6 397/3/6
f 397/3/6 396/3/6 398/3/6
f 397/3/6 398/3/6 399/3/6
f 399/3/6 398/3/6 400/3/6
f 401/5/6 402/5/6 405/5/6
f 405/5/6 402/5/6 406/5/6
f 403/5/6 404/5/6 407/5/6
f 407/5/6 404/5/6 408/5/6
f 405/3/6 406/3/6 409/3/6
f 409/3/6 406/3/6 410/3/6
f 407/3/6 408/3/6 411/3/6
f 411/3/6 408/3/6 412/3/6
f 409/5/6 410/5/6 413/5/6
f 413/5/6 410/5/6 414/5/6
f 411/5/6 412/5/6 415/5/6
f 415/5/6 412/5/6 416/5/6
f 413/3/6 414/3/6 417/3/6
f 417/3/6 414/3/6 418/3/6
f 415/3/6 416/3/6 419/3/6
f 419/3/6 416/3/6 420/3/6
f 421/5/6 422/5/6 423/5/6
f 423/5/6 422/5/6 424/5/6
f 425/2/6 426/2/6 429/2/6
f 429/2/6 426/2/6 430/2/6
f 427/2/6 428/2/6 431/2/6
f 431/2/6 428/2/6 432/2/6
f 433/4/6 434/4/6 435/4/6
f 435/4/6 434/4/6 436/4/6
f 437/3/6 438/3/6 439/3/6
f 439/3/6 438/3/6 440/3/6
