# MagicaVoxel @ Ephtracy

# group
o 

# material
mtllib parkscene.mtl
usemtl palette

# normals
vn -1 0 0
vn 1 0 0
vn 0 0 1
vn 0 0 -1
vn 0 -1 0
vn 0 1 0

# texcoords
vt 0.0566406 0.5
vt 0.123047 0.5
vt 0.255859 0.5
vt 0.271484 0.5
vt 0.279297 0.5
vt 0.482422 0.5
vt 0.501953 0.5
vt 0.541016 0.5
vt 0.556641 0.5
vt 0.755859 0.5
vt 0.904297 0.5
vt 0.970703 0.5

# verts
v -2 0 2
v -2 0 -2
v -2 0.5 2
v -2 0.5 -2
v -1.9 0.7 -2.38419e-07
v -1.9 0.7 -0.1
v -1.9 0.8 -2.38419e-07
v -1.9 0.8 -0.1
v -1.9 0.9 -2.38419e-07
v -1.9 0.9 -0.1
v -1.8 0.5 1.8
v -1.8 0.5 1.6
v -1.8 0.5 -2.38419e-07
v -1.8 0.5 -0.1
v -1.8 0.6 1.8
v -1.8 0.6 1.6
v -1.8 0.7 -2.38419e-07
v -1.8 0.7 -0.1
v -1.8 0.8 0.0999999
v -1.8 0.8 -2.38419e-07
v -1.8 0.8 -0.1
v -1.8 0.8 -0.2
v -1.8 0.9 0.0999999
v -1.8 0.9 -2.38419e-07
v -1.8 0.9 -0.1
v -1.8 0.9 -0.2
v -1.7 0.5 1.9
v -1.7 0.5 1.8
v -1.7 0.5 1.6
v -1.7 0.5 1.5
v -1.7 0.5 1.4
v -1.7 0.6 1.9
v -1.7 0.6 1.8
v -1.7 0.6 1.7
v -1.7 0.6 1.6
v -1.7 0.6 1.5
v -1.7 0.6 1.4
v -1.7 0.7 1.9
v -1.7 0.7 1.7
v -1.7 0.7 1.6
v -1.7 0.7 1.5
v -1.6 0.5 2
v -1.6 0.5 1.9
v -1.6 0.5 1.4
v -1.6 0.5 1.3
v -1.6 0.6 1.9
v -1.6 0.6 1.5
v -1.6 0.6 1.4
v -1.6 0.6 1.3
v -1.6 0.7 2
v -1.6 0.7 1.9
v -1.6 0.7 1.8
v -1.6 0.7 1.7
v -1.6 0.7 1.6
v -1.6 0.7 1.5
v -1.6 0.7 1.4
v -1.6 0.8 1.9
v -1.6 0.8 1.8
v -1.6 0.8 1.5
v -1.3 0.7 -0.7
v -1.3 0.7 -0.8
v -1.3 0.8 -0.7
v -1.3 0.8 -0.8
v -1.3 0.9 -0.7
v -1.3 0.9 -0.8
v -1.3 1.4 1.5
v -1.3 1.4 0.8
v -1.3 1.5 1.2
v -1.3 1.5 1.1
v -1.3 1.5 0.8
v -1.3 1.5 0.7
v -1.3 1.6 1.5
v -1.3 1.6 1.4
v -1.3 1.6 1
v -1.3 1.6 0.9
v -1.3 1.7 1.5
v -1.3 1.7 1.4
v -1.3 1.7 1.2
v -1.3 1.7 1.1
v -1.3 1.7 1
v -1.3 1.7 0.9
v -1.3 1.8 1.5
v -1.3 1.8 1.3
v -1.3 1.8 0.9
v -1.3 1.8 0.7
v -1.3 1.9 1.3
v -1.3 1.9 0.9
v -1.2 0.5 -0.7
v -1.2 0.5 -0.8
v -1.2 0.7 0.4
v -1.2 0.7 0.3
v -1.2 0.7 -0.7
v -1.2 0.7 -0.8
v -1.2 0.8 0.4
v -1.2 0.8 0.3
v -1.2 0.8 -0.6
v -1.2 0.8 -0.7
v -1.2 0.8 -0.8
v -1.2 0.8 -0.9
v -1.2 0.9 0.4
v -1.2 0.9 0.3
v -1.2 0.9 -0.6
v -1.2 0.9 -0.7
v -1.2 0.9 -0.8
v -1.2 0.9 -0.9
v -1.2 1.4 0.8
v -1.2 1.4 0.7
v -1.2 1.5 1.2
v -1.2 1.5 1.1
v -1.2 1.5 0.8
v -1.2 1.5 0.7
v -1.2 1.6 1.5
v -1.2 1.6 1.4
v -1.2 1.6 1
v -1.2 1.6 0.9
v -1.2 1.7 1.5
v -1.2 1.7 1.4
v -1.2 1.7 1.2
v -1.2 1.7 1.1
v -1.2 1.7 1
v -1.2 1.7 0.9
v -1.2 1.9 1.3
v -1.2 1.9 0.9
v -1.2 2 1.3
v -1.2 2 0.9
v -1.1 0.5 0.4
v -1.1 0.5 0.3
v -1.1 0.7 0.4
v -1.1 0.7 0.3
v -1.1 0.8 0.5
v -1.1 0.8 0.4
v -1.1 0.8 0.3
v -1.1 0.8 0.2
v -1.1 0.9 0.5
v -1.1 0.9 0.4
v -1.1 0.9 0.3
v -1.1 0.9 0.2
v -1.1 1.8 1.5
v -1.1 1.8 1.3
v -1.1 1.8 0.9
v -1.1 1.8 0.7
v -1.1 1.9 1.5
v -1.1 1.9 1.4
v -1.1 1.9 0.8
v -1.1 1.9 0.7
v -1.1 2 1.4
v -1.1 2 1.3
v -1.1 2 0.9
v -1.1 2 0.8
v -1 0.5 1.2
v -1 0.5 1
v -1 1.4 1.2
v -1 1.4 1
v -0.8 0.5 -1
v -0.8 0.5 -1.9
v -0.8 0.6 -1.1
v -0.8 0.6 -1.8
v -0.8 1 -1
v -0.8 1 -1.1
v -0.8 1 -1.8
v -0.8 1 -1.9
v -0.8 1.5 0.8
v -0.8 1.5 0.7
v -0.8 1.6 0.8
v -0.8 1.6 0.7
v -0.7 1.6 1.5
v -0.7 1.6 1.4
v -0.7 1.7 1.5
v -0.7 1.7 1.4
v -0.6 0.6 -1
v -0.6 0.6 -1.9
v -0.6 0.7 -1
v -0.6 0.7 -1.9
v -0.6 1 -1
v -0.6 1 -1.1
v -0.6 1 -1.8
v -0.6 1 -1.9
v -0.6 1.1 -1
v -0.6 1.1 -1.1
v -0.6 1.1 -1.8
v -0.6 1.1 -1.9
v -0.6 1.4 0.9
v -0.6 1.4 0.8
v -0.6 1.5 0.9
v -0.6 1.5 0.8
v -0.5 0.7 -1
v -0.5 0.7 -1.1
v -0.5 0.7 -1.8
v -0.5 0.7 -1.9
v -0.5 0.9 -1
v -0.5 0.9 -1.1
v -0.5 0.9 -1.8
v -0.5 0.9 -1.9
v -0.3 0.7 -1.1
v -0.3 0.7 -1.8
v -0.3 0.8 -1.1
v -0.3 0.8 -1.8
v -0.3 1.1 -1
v -0.3 1.1 -1.1
v -0.3 1.1 -1.8
v -0.3 1.1 -1.9
v -0.3 1.2 -1
v -0.3 1.2 -1.1
v -0.3 1.2 -1.8
v -0.3 1.2 -1.9
v -0.2 0.8 -1
v -0.2 0.8 -1.1
v -0.2 0.8 -1.8
v -0.2 0.8 -1.9
v -0.2 1 -1
v -0.2 1 -1.1
v -0.2 1 -1.8
v -0.2 1 -1.9
v 0.1 0.8 -1
v 0.1 0.8 -1.1
v 0.1 0.8 -1.8
v 0.1 0.8 -1.9
v 0.1 1.1 -1
v 0.1 1.1 -1.1
v 0.1 1.1 -1.8
v 0.1 1.1 -1.9
v 0.2 0.6 -1
v 0.2 0.6 -1.9
v 0.2 0.7 -1
v 0.2 0.7 -1.9
v 0.4 0.7 -1
v 0.4 0.7 -1.1
v 0.4 0.7 -1.8
v 0.4 0.7 -1.9
v 0.4 1 -1
v 0.4 1 -1.1
v 0.4 1 -1.8
v 0.4 1 -1.9
v 0.5 0.4 2
v 0.5 0.4 -2
v 0.5 0.5 2
v 0.5 0.5 -1
v 0.5 0.5 -1.9
v 0.5 0.5 -2
v 0.5 0.6 -1
v 0.5 0.6 -1.9
v 0.7 0.6 -1
v 0.7 0.6 -1.1
v 0.7 0.6 -1.8
v 0.7 0.6 -1.9
v 0.7 0.9 -1
v 0.7 0.9 -1.1
v 0.7 0.9 -1.8
v 0.7 0.9 -1.9
v 0.8 0.5 1
v 0.8 0.5 -2.38419e-07
v 0.8 1.6 1
v 0.8 1.6 -2.38419e-07
v 1.4 0.5 0.0999999
v 1.4 0.5 -2.38419e-07
v 1.4 1.1 0.0999999
v 1.4 1.1 -2.38419e-07
v 1.6 1.5 0.9
v 1.6 1.5 0.0999999
v 1.6 1.6 0.9
v 1.6 1.6 0.0999999
v -1.7 0.5 -2.38419e-07
v -1.7 0.5 -0.1
v -1.7 0.6 -2.38419e-07
v -1.7 0.6 -0.1
v -1.7 0.7 -2.38419e-07
v -1.7 0.7 -0.1
v -1.7 0.8 0.0999999
v -1.7 0.8 -2.38419e-07
v -1.7 0.8 -0.1
v -1.7 0.8 -0.2
v -1.7 0.9 0.0999999
v -1.7 0.9 -2.38419e-07
v -1.7 0.9 -0.1
v -1.7 0.9 -0.2
v -1.6 0.6 -2.38419e-07
v -1.6 0.6 -0.1
v -1.6 0.7 -2.38419e-07
v -1.6 0.7 -0.1
v -1.6 0.8 -2.38419e-07
v -1.6 0.8 -0.1
v -1.6 0.9 -2.38419e-07
v -1.6 0.9 -0.1
v -1.3 0.5 2
v -1.3 0.5 1.9
v -1.3 0.5 1.4
v -1.3 0.5 1.3
v -1.3 0.6 1.9
v -1.3 0.6 1.8
v -1.3 0.6 1.5
v -1.3 0.6 1.4
v -1.3 0.6 1.3
v -1.3 0.7 2
v -1.3 0.7 1.9
v -1.3 0.7 1.8
v -1.3 0.7 1.7
v -1.3 0.7 1.6
v -1.3 0.7 1.5
v -1.3 0.7 1.4
v -1.3 0.8 1.9
v -1.3 0.8 1.8
v -1.3 0.8 1.7
v -1.3 0.8 1.5
v -1.2 0.5 1.9
v -1.2 0.5 1.8
v -1.2 0.5 1.4
v -1.2 0.6 1.9
v -1.2 0.6 1.8
v -1.2 0.6 1.6
v -1.2 0.6 1.5
v -1.2 0.6 1.4
v -1.2 0.7 1.8
v -1.2 0.7 1.6
v -1.2 0.7 1.5
v -1.2 1.5 0.8
v -1.2 1.5 0.7
v -1.2 1.6 0.8
v -1.2 1.6 0.7
v -1.1 0.5 -0.7
v -1.1 0.5 -0.8
v -1.1 0.6 -0.7
v -1.1 0.6 -0.8
v -1.1 0.7 -0.7
v -1.1 0.7 -0.8
v -1.1 0.8 -0.6
v -1.1 0.8 -0.7
v -1.1 0.8 -0.8
v -1.1 0.8 -0.9
v -1.1 0.9 -0.6
v -1.1 0.9 -0.7
v -1.1 0.9 -0.8
v -1.1 0.9 -0.9
v -1 0.5 0.4
v -1 0.5 0.3
v -1 0.6 0.4
v -1 0.6 0.3
v -1 0.6 -0.7
v -1 0.6 -0.8
v -1 0.7 0.4
v -1 0.7 0.3
v -1 0.7 -0.7
v -1 0.7 -0.8
v -1 0.8 0.5
v -1 0.8 0.4
v -1 0.8 0.3
v -1 0.8 0.2
v -1 0.8 -0.7
v -1 0.8 -0.8
v -1 0.9 0.5
v -1 0.9 0.4
v -1 0.9 0.3
v -1 0.9 0.2
v -1 0.9 -0.7
v -1 0.9 -0.8
v -1 1.6 1.5
v -1 1.6 1.4
v -1 1.7 1.5
v -1 1.7 1.4
v -0.9 0.6 0.4
v -0.9 0.6 0.3
v -0.9 0.7 0.4
v -0.9 0.7 0.3
v -0.9 0.8 0.4
v -0.9 0.8 0.3
v -0.9 0.9 0.4
v -0.9 0.9 0.3
v -0.8 0.5 1.2
v -0.8 0.5 1
v -0.8 1.4 1.2
v -0.8 1.4 1
v -0.7 0.6 -1
v -0.7 0.6 -1.1
v -0.7 0.6 -1.8
v -0.7 0.6 -1.9
v -0.7 0.9 -1
v -0.7 0.9 -1.1
v -0.7 0.9 -1.8
v -0.7 0.9 -1.9
v -0.7 1.4 0.9
v -0.7 1.4 0.8
v -0.7 1.5 0.9
v -0.7 1.5 0.8
v -0.7 1.8 1.5
v -0.7 1.8 1.3
v -0.7 1.8 0.9
v -0.7 1.8 0.7
v -0.7 1.9 1.5
v -0.7 1.9 1.4
v -0.7 1.9 0.8
v -0.7 1.9 0.7
v -0.7 2 1.4
v -0.7 2 1.3
v -0.7 2 0.9
v -0.7 2 0.8
v -0.6 1.5 1.4
v -0.6 1.5 1.3
v -0.6 1.5 1.2
v -0.6 1.5 1.1
v -0.6 1.6 1.2
v -0.6 1.6 1.1
v -0.6 1.6 0.8
v -0.6 1.6 0.7
v -0.6 1.7 1.4
v -0.6 1.7 1.3
v -0.6 1.7 0.8
v -0.6 1.7 0.7
v -0.6 1.9 1.3
v -0.6 1.9 0.9
v -0.6 2 1.3
v -0.6 2 0.9
v -0.5 0.4 2
v -0.5 0.4 -2
v -0.5 0.5 2
v -0.5 0.5 -1
v -0.5 0.5 -1.9
v -0.5 0.5 -2
v -0.5 0.6 -1
v -0.5 0.6 -1.9
v -0.5 1.4 1.5
v -0.5 1.4 0.7
v -0.5 1.5 1.4
v -0.5 1.5 1.3
v -0.5 1.5 1.2
v -0.5 1.5 1.1
v -0.5 1.6 1.2
v -0.5 1.6 1.1
v -0.5 1.6 0.8
v -0.5 1.6 0.7
v -0.5 1.7 1.4
v -0.5 1.7 1.3
v -0.5 1.7 0.8
v -0.5 1.7 0.7
v -0.5 1.8 1.5
v -0.5 1.8 1.3
v -0.5 1.8 0.9
v -0.5 1.8 0.7
v -0.5 1.9 1.3
v -0.5 1.9 0.9
v -0.4 0.8 -1
v -0.4 0.8 -1.1
v -0.4 0.8 -1.8
v -0.4 0.8 -1.9
v -0.4 1 -1
v -0.4 1 -1.1
v -0.4 1 -1.8
v -0.4 1 -1.9
v -0.2 0.6 -1
v -0.2 0.6 -1.9
v -0.2 0.7 -1
v -0.2 0.7 -1.9
v -0.0999999 0.8 -1
v -0.0999999 0.8 -1.1
v -0.0999999 0.8 -1.8
v -0.0999999 0.8 -1.9
v -0.0999999 1.1 -1
v -0.0999999 1.1 -1.1
v -0.0999999 1.1 -1.8
v -0.0999999 1.1 -1.9
v 0.2 0.8 -1
v 0.2 0.8 -1.1
v 0.2 0.8 -1.8
v 0.2 0.8 -1.9
v 0.2 1 -1
v 0.2 1 -1.1
v 0.2 1 -1.8
v 0.2 1 -1.9
v 0.3 0.7 -1
v 0.3 0.7 -1.9
v 0.3 0.8 -1
v 0.3 0.8 -1.9
v 0.3 1.1 -1
v 0.3 1.1 -1.1
v 0.3 1.1 -1.8
v 0.3 1.1 -1.9
v 0.3 1.2 -1
v 0.3 1.2 -1.1
v 0.3 1.2 -1.8
v 0.3 1.2 -1.9
v 0.5 0.7 -1
v 0.5 0.7 -1.1
v 0.5 0.7 -1.8
v 0.5 0.7 -1.9
v 0.5 0.9 -1
v 0.5 0.9 -1.1
v 0.5 0.9 -1.8
v 0.5 0.9 -1.9
v 0.6 0.6 -1
v 0.6 0.6 -1.9
v 0.6 0.7 -1
v 0.6 0.7 -1.9
v 0.6 1 -1
v 0.6 1 -1.1
v 0.6 1 -1.8
v 0.6 1 -1.9
v 0.6 1.1 -1
v 0.6 1.1 -1.1
v 0.6 1.1 -1.8
v 0.6 1.1 -1.9
v 0.8 0.5 -1
v 0.8 0.5 -1.9
v 0.8 0.6 -1.1
v 0.8 0.6 -1.8
v 0.8 1 -1
v 0.8 1 -1.1
v 0.8 1 -1.8
v 0.8 1 -1.9
v 0.9 1.5 0.9
v 0.9 1.5 0.0999999
v 0.9 1.6 0.9
v 0.9 1.6 0.0999999
v 1.1 0.5 0.0999999
v 1.1 0.5 -2.38419e-07
v 1.1 1.1 0.0999999
v 1.1 1.1 -2.38419e-07
v 1.7 0.5 1
v 1.7 0.5 -2.38419e-07
v 1.7 1.6 1
v 1.7 1.6 -2.38419e-07
v 2 0 2
v 2 0 -2
v 2 0.5 2
v 2 0.5 -2
v -2 0 2
v -2 0.5 2
v -1.6 0.5 2
v -1.6 0.7 2
v -1.5 0.5 2
v -1.5 0.6 2
v -1.4 0.5 2
v -1.4 0.6 2
v -1.3 0.5 2
v -1.3 0.7 2
v -0.5 0.3 2
v -0.5 0.4 2
v -0.5 0.5 2
v 0.5 0.3 2
v 0.5 0.4 2
v 0.5 0.5 2
v 2 0 2
v 2 0.5 2
v -1.7 0.5 1.9
v -1.7 0.6 1.9
v -1.7 0.7 1.9
v -1.6 0.5 1.9
v -1.6 0.6 1.9
v -1.6 0.7 1.9
v -1.6 0.8 1.9
v -1.5 0.7 1.9
v -1.5 0.8 1.9
v -1.3 0.5 1.9
v -1.3 0.6 1.9
v -1.3 0.7 1.9
v -1.3 0.8 1.9
v -1.2 0.5 1.9
v -1.2 0.6 1.9
v -1.8 0.5 1.8
v -1.8 0.6 1.8
v -1.7 0.5 1.8
v -1.7 0.6 1.8
v -1.3 0.6 1.8
v -1.3 0.7 1.8
v -1.2 0.6 1.8
v -1.2 0.7 1.8
v -1.3 1.4 1.5
v -1.3 1.6 1.5
v -1.3 1.7 1.5
v -1.3 1.8 1.5
v -1.2 1.6 1.5
v -1.2 1.7 1.5
v -1.1 1.8 1.5
v -1.1 1.9 1.5
v -1 1.6 1.5
v -1 1.7 1.5
v -0.7 1.6 1.5
v -0.7 1.7 1.5
v -0.7 1.8 1.5
v -0.7 1.9 1.5
v -0.5 1.4 1.5
v -0.5 1.8 1.5
v -1.3 1.6 1.4
v -1.3 1.7 1.4
v -1.2 1.6 1.4
v -1.2 1.7 1.4
v -1.1 1.9 1.4
v -1.1 2 1.4
v -1 1.6 1.4
v -1 1.7 1.4
v -0.7 1.6 1.4
v -0.7 1.7 1.4
v -0.7 1.9 1.4
v -0.7 2 1.4
v -1.3 1.8 1.3
v -1.3 1.9 1.3
v -1.2 1.9 1.3
v -1.2 2 1.3
v -1.1 1.8 1.3
v -1.1 2 1.3
v -0.7 1.8 1.3
v -0.7 2 1.3
v -0.6 1.5 1.3
v -0.6 1.7 1.3
v -0.6 1.9 1.3
v -0.6 2 1.3
v -0.5 1.5 1.3
v -0.5 1.7 1.3
v -0.5 1.8 1.3
v -0.5 1.9 1.3
v -1 0.5 1.2
v -1 1.4 1.2
v -0.8 0.5 1.2
v -0.8 1.4 1.2
v -1.3 1.5 1.1
v -1.3 1.7 1.1
v -1.2 1.5 1.1
v -1.2 1.7 1.1
v -0.6 1.5 1.1
v -0.6 1.6 1.1
v -0.5 1.5 1.1
v -0.5 1.6 1.1
v 0.8 0.5 1
v 0.8 1.6 1
v 1.7 0.5 1
v 1.7 1.6 1
v -1.3 1.6 0.9
v -1.3 1.7 0.9
v -1.2 1.6 0.9
v -1.2 1.7 0.9
v -0.7 1.4 0.8
v -0.7 1.5 0.8
v -0.6 1.4 0.8
v -0.6 1.5 0.8
v -1.1 0.8 0.5
v -1.1 0.9 0.5
v -1 0.8 0.5
v -1 0.9 0.5
v -1.2 0.7 0.4
v -1.2 0.8 0.4
v -1.2 0.9 0.4
v -1.1 0.5 0.4
v -1.1 0.7 0.4
v -1.1 0.8 0.4
v -1.1 0.9 0.4
v -1 0.5 0.4
v -1 0.6 0.4
v -1 0.7 0.4
v -1 0.8 0.4
v -1 0.9 0.4
v -0.9 0.6 0.4
v -0.9 0.7 0.4
v -0.9 0.8 0.4
v -0.9 0.9 0.4
v -1.8 0.8 0.0999999
v -1.8 0.9 0.0999999
v -1.7 0.8 0.0999999
v -1.7 0.9 0.0999999
v 0.9 1.5 0.0999999
v 0.9 1.6 0.0999999
v 1.6 1.5 0.0999999
v 1.6 1.6 0.0999999
v -1.9 0.7 -2.38419e-07
v -1.9 0.8 -2.38419e-07
v -1.9 0.9 -2.38419e-07
v -1.8 0.5 -2.38419e-07
v -1.8 0.7 -2.38419e-07
v -1.8 0.8 -2.38419e-07
v -1.8 0.9 -2.38419e-07
v -1.7 0.5 -2.38419e-07
v -1.7 0.6 -2.38419e-07
v -1.7 0.7 -2.38419e-07
v -1.7 0.8 -2.38419e-07
v -1.7 0.9 -2.38419e-07
v -1.6 0.6 -2.38419e-07
v -1.6 0.7 -2.38419e-07
v -1.6 0.8 -2.38419e-07
v -1.6 0.9 -2.38419e-07
v -1.2 0.8 -0.6
v -1.2 0.9 -0.6
v -1.1 0.8 -0.6
v -1.1 0.9 -0.6
v -1.3 0.7 -0.7
v -1.3 0.8 -0.7
v -1.3 0.9 -0.7
v -1.2 0.5 -0.7
v -1.2 0.7 -0.7
v -1.2 0.8 -0.7
v -1.2 0.9 -0.7
v -1.1 0.5 -0.7
v -1.1 0.6 -0.7
v -1.1 0.7 -0.7
v -1.1 0.8 -0.7
v -1.1 0.9 -0.7
v -1 0.6 -0.7
v -1 0.7 -0.7
v -1 0.8 -0.7
v -1 0.9 -0.7
v -0.8 0.5 -1
v -0.8 1 -1
v -0.7 0.6 -1
v -0.7 0.9 -1
v -0.6 0.6 -1
v -0.6 0.7 -1
v -0.6 1 -1
v -0.6 1.1 -1
v -0.5 0.5 -1
v -0.5 0.6 -1
v -0.5 0.7 -1
v -0.5 0.9 -1
v -0.4 0.8 -1
v -0.4 1 -1
v -0.3 1.1 -1
v -0.3 1.2 -1
v -0.2 0.6 -1
v -0.2 0.7 -1
v -0.2 0.8 -1
v -0.2 1 -1
v -0.0999999 0.8 -1
v -0.0999999 1.1 -1
v 0.1 0.8 -1
v 0.1 1.1 -1
v 0.2 0.6 -1
v 0.2 0.7 -1
v 0.2 0.8 -1
v 0.2 1 -1
v 0.3 0.7 -1
v 0.3 0.8 -1
v 0.3 1.1 -1
v 0.3 1.2 -1
v 0.4 0.7 -1
v 0.4 1 -1
v 0.5 0.5 -1
v 0.5 0.6 -1
v 0.5 0.7 -1
v 0.5 0.9 -1
v 0.6 0.6 -1
v 0.6 0.7 -1
v 0.6 1 -1
v 0.6 1.1 -1
v 0.7 0.6 -1
v 0.7 0.9 -1
v 0.8 0.5 -1
v 0.8 1 -1
v -0.8 0.6 -1.8
v -0.8 1 -1.8
v -0.7 0.6 -1.8
v -0.7 0.9 -1.8
v -0.6 1 -1.8
v -0.6 1.1 -1.8
v -0.5 0.7 -1.8
v -0.5 0.9 -1.8
v -0.4 0.8 -1.8
v -0.4 1 -1.8
v -0.3 0.7 -1.8
v -0.3 0.8 -1.8
v -0.3 1.1 -1.8
v -0.3 1.2 -1.8
v -0.2 0.8 -1.8
v -0.2 1 -1.8
v -0.0999999 0.8 -1.8
v -0.0999999 1.1 -1.8
v 0.1 0.8 -1.8
v 0.1 1.1 -1.8
v 0.2 0.8 -1.8
v 0.2 1 -1.8
v 0.3 1.1 -1.8
v 0.3 1.2 -1.8
v 0.4 0.7 -1.8
v 0.4 1 -1.8
v 0.5 0.7 -1.8
v 0.5 0.9 -1.8
v 0.6 1 -1.8
v 0.6 1.1 -1.8
v 0.7 0.6 -1.8
v 0.7 0.9 -1.8
v 0.8 0.6 -1.8
v 0.8 1 -1.8
v -1.8 0.5 1.6
v -1.8 0.6 1.6
v -1.7 0.5 1.6
v -1.7 0.6 1.6
v -1.7 0.6 1.5
v -1.7 0.7 1.5
v -1.6 0.6 1.5
v -1.6 0.7 1.5
v -1.6 0.8 1.5
v -1.5 0.7 1.5
v -1.4 0.7 1.5
v -1.3 0.6 1.5
v -1.3 0.7 1.5
v -1.3 0.8 1.5
v -1.2 0.6 1.5
v -1.2 0.7 1.5
v -1.7 0.5 1.4
v -1.7 0.6 1.4
v -1.6 0.5 1.4
v -1.6 0.6 1.4
v -1.6 0.7 1.4
v -1.5 0.6 1.4
v -1.5 0.7 1.4
v -1.4 0.6 1.4
v -1.4 0.7 1.4
v -1.3 0.5 1.4
v -1.3 0.6 1.4
v -1.3 0.7 1.4
v -1.2 0.5 1.4
v -1.2 0.6 1.4
v -0.6 1.5 1.4
v -0.6 1.7 1.4
v -0.5 1.5 1.4
v -0.5 1.7 1.4
v -1.6 0.5 1.3
v -1.6 0.6 1.3
v -1.3 0.5 1.3
v -1.3 0.6 1.3
v -1.3 1.5 1.2
v -1.3 1.7 1.2
v -1.2 1.5 1.2
v -1.2 1.7 1.2
v -0.6 1.5 1.2
v -0.6 1.6 1.2
v -0.5 1.5 1.2
v -0.5 1.6 1.2
v -1.3 1.6 1
v -1.3 1.7 1
v -1.2 1.6 1
v -1.2 1.7 1
v -1 0.5 1
v -1 1.4 1
v -0.8 0.5 1
v -0.8 1.4 1
v -1.3 1.8 0.9
v -1.3 1.9 0.9
v -1.2 1.9 0.9
v -1.2 2 0.9
v -1.1 1.8 0.9
v -1.1 2 0.9
v -0.7 1.4 0.9
v -0.7 1.5 0.9
v -0.7 1.8 0.9
v -0.7 2 0.9
v -0.6 1.4 0.9
v -0.6 1.5 0.9
v -0.6 1.9 0.9
v -0.6 2 0.9
v -0.5 1.8 0.9
v -0.5 1.9 0.9
v 0.9 1.5 0.9
v 0.9 1.6 0.9
v 1.6 1.5 0.9
v 1.6 1.6 0.9
v -1.3 1.4 0.8
v -1.3 1.5 0.8
v -1.2 1.4 0.8
v -1.2 1.5 0.8
v -1.2 1.6 0.8
v -1.1 1.9 0.8
v -1.1 2 0.8
v -0.8 1.5 0.8
v -0.8 1.6 0.8
v -0.7 1.9 0.8
v -0.7 2 0.8
v -0.6 1.6 0.8
v -0.6 1.7 0.8
v -0.5 1.6 0.8
v -0.5 1.7 0.8
v -1.3 1.5 0.7
v -1.3 1.8 0.7
v -1.2 1.4 0.7
v -1.2 1.5 0.7
v -1.2 1.6 0.7
v -1.1 1.8 0.7
v -1.1 1.9 0.7
v -0.8 1.5 0.7
v -0.8 1.6 0.7
v -0.7 1.8 0.7
v -0.7 1.9 0.7
v -0.6 1.6 0.7
v -0.6 1.7 0.7
v -0.5 1.4 0.7
v -0.5 1.6 0.7
v -0.5 1.7 0.7
v -0.5 1.8 0.7
v -1.2 0.7 0.3
v -1.2 0.8 0.3
v -1.2 0.9 0.3
v -1.1 0.5 0.3
v -1.1 0.7 0.3
v -1.1 0.8 0.3
v -1.1 0.9 0.3
v -1 0.5 0.3
v -1 0.6 0.3
v -1 0.7 0.3
v -1 0.8 0.3
v -1 0.9 0.3
v -0.9 0.6 0.3
v -0.9 0.7 0.3
v -0.9 0.8 0.3
v -0.9 0.9 0.3
v -1.1 0.8 0.2
v -1.1 0.9 0.2
v -1 0.8 0.2
v -1 0.9 0.2
v 1.1 0.5 0.0999999
v 1.1 1.1 0.0999999
v 1.4 0.5 0.0999999
v 1.4 1.1 0.0999999
v 0.8 0.5 -2.38419e-07
v 0.8 1.6 -2.38419e-07
v 1 0.5 -2.38419e-07
v 1 1.2 -2.38419e-07
v 1.1 0.5 -2.38419e-07
v 1.1 1.1 -2.38419e-07
v 1.4 0.5 -2.38419e-07
v 1.4 1.1 -2.38419e-07
v 1.5 0.5 -2.38419e-07
v 1.5 1.2 -2.38419e-07
v 1.7 0.5 -2.38419e-07
v 1.7 1.6 -2.38419e-07
v -1.9 0.7 -0.1
v -1.9 0.8 -0.1
v -1.9 0.9 -0.1
v -1.8 0.5 -0.1
v -1.8 0.7 -0.1
v -1.8 0.8 -0.1
v -1.8 0.9 -0.1
v -1.7 0.5 -0.1
v -1.7 0.6 -0.1
v -1.7 0.7 -0.1
v -1.7 0.8 -0.1
v -1.7 0.9 -0.1
v -1.6 0.6 -0.1
v -1.6 0.7 -0.1
v -1.6 0.8 -0.1
v -1.6 0.9 -0.1
v -1.8 0.8 -0.2
v -1.8 0.9 -0.2
v -1.7 0.8 -0.2
v -1.7 0.9 -0.2
v -1.3 0.7 -0.8
v -1.3 0.8 -0.8
v -1.3 0.9 -0.8
v -1.2 0.5 -0.8
v -1.2 0.7 -0.8
v -1.2 0.8 -0.8
v -1.2 0.9 -0.8
v -1.1 0.5 -0.8
v -1.1 0.6 -0.8
v -1.1 0.7 -0.8
v -1.1 0.8 -0.8
v -1.1 0.9 -0.8
v -1 0.6 -0.8
v -1 0.7 -0.8
v -1 0.8 -0.8
v -1 0.9 -0.8
v -1.2 0.8 -0.9
v -1.2 0.9 -0.9
v -1.1 0.8 -0.9
v -1.1 0.9 -0.9
v -0.8 0.6 -1.1
v -0.8 1 -1.1
v -0.7 0.6 -1.1
v -0.7 0.9 -1.1
v -0.6 1 -1.1
v -0.6 1.1 -1.1
v -0.5 0.7 -1.1
v -0.5 0.9 -1.1
v -0.4 0.8 -1.1
v -0.4 1 -1.1
v -0.3 0.7 -1.1
v -0.3 0.8 -1.1
v -0.3 1.1 -1.1
v -0.3 1.2 -1.1
v -0.2 0.8 -1.1
v -0.2 1 -1.1
v -0.0999999 0.8 -1.1
v -0.0999999 1.1 -1.1
v 0.1 0.8 -1.1
v 0.1 1.1 -1.1
v 0.2 0.8 -1.1
v 0.2 1 -1.1
v 0.3 1.1 -1.1
v 0.3 1.2 -1.1
v 0.4 0.7 -1.1
v 0.4 1 -1.1
v 0.5 0.7 -1.1
v 0.5 0.9 -1.1
v 0.6 1 -1.1
v 0.6 1.1 -1.1
v 0.7 0.6 -1.1
v 0.7 0.9 -1.1
v 0.8 0.6 -1.1
v 0.8 1 -1.1
v -0.8 0.5 -1.9
v -0.8 1 -1.9
v -0.7 0.6 -1.9
v -0.7 0.9 -1.9
v -0.6 0.6 -1.9
v -0.6 0.7 -1.9
v -0.6 1 -1.9
v -0.6 1.1 -1.9
v -0.5 0.5 -1.9
v -0.5 0.6 -1.9
v -0.5 0.7 -1.9
v -0.5 0.9 -1.9
v -0.4 0.8 -1.9
v -0.4 1 -1.9
v -0.3 1.1 -1.9
v -0.3 1.2 -1.9
v -0.2 0.6 -1.9
v -0.2 0.7 -1.9
v -0.2 0.8 -1.9
v -0.2 1 -1.9
v -0.0999999 0.8 -1.9
v -0.0999999 1.1 -1.9
v 0.1 0.8 -1.9
v 0.1 1.1 -1.9
v 0.2 0.6 -1.9
v 0.2 0.7 -1.9
v 0.2 0.8 -1.9
v 0.2 1 -1.9
v 0.3 0.7 -1.9
v 0.3 0.8 -1.9
v 0.3 1.1 -1.9
v 0.3 1.2 -1.9
v 0.4 0.7 -1.9
v 0.4 1 -1.9
v 0.5 0.5 -1.9
v 0.5 0.6 -1.9
v 0.5 0.7 -1.9
v 0.5 0.9 -1.9
v 0.6 0.6 -1.9
v 0.6 0.7 -1.9
v 0.6 1 -1.9
v 0.6 1.1 -1.9
v 0.7 0.6 -1.9
v 0.7 0.9 -1.9
v 0.8 0.5 -1.9
v 0.8 1 -1.9
v -2 0 -2
v -2 0.5 -2
v -0.5 0.3 -2
v -0.5 0.4 -2
v -0.5 0.5 -2
v 0.5 0.3 -2
v 0.5 0.4 -2
v 0.5 0.5 -2
v 2 0 -2
v 2 0.5 -2
v -2 0 2
v 2 0 2
v -2 0 -2
v 2 0 -2
v -1 0.6 0.4
v -0.9 0.6 0.4
v -1 0.6 0.3
v -0.9 0.6 0.3
v -1.7 0.6 -2.38419e-07
v -1.6 0.6 -2.38419e-07
v -1.7 0.6 -0.1
v -1.6 0.6 -0.1
v -1.1 0.6 -0.7
v -1 0.6 -0.7
v -1.1 0.6 -0.8
v -1 0.6 -0.8
v -0.5 0.6 -1
v -0.2 0.6 -1
v 0.2 0.6 -1
v 0.5 0.6 -1
v -0.5 0.6 -1.9
v -0.2 0.6 -1.9
v 0.2 0.6 -1.9
v 0.5 0.6 -1.9
v -1.2 0.7 0.4
v -1.1 0.7 0.4
v -1.2 0.7 0.3
v -1.1 0.7 0.3
v -1.9 0.7 -2.38419e-07
v -1.8 0.7 -2.38419e-07
v -1.9 0.7 -0.1
v -1.8 0.7 -0.1
v -1.3 0.7 -0.7
v -1.2 0.7 -0.7
v -1.3 0.7 -0.8
v -1.2 0.7 -0.8
v -0.2 0.7 -1
v 0.2 0.7 -1
v -0.2 0.7 -1.9
v 0.2 0.7 -1.9
v -1.1 0.8 0.5
v -1 0.8 0.5
v -1.1 0.8 0.4
v -1 0.8 0.4
v -0.9 0.8 0.4
v -1.1 0.8 0.3
v -1 0.8 0.3
v -0.9 0.8 0.3
v -1.1 0.8 0.2
v -1 0.8 0.2
v -1.8 0.8 0.0999999
v -1.7 0.8 0.0999999
v -1.8 0.8 -2.38419e-07
v -1.7 0.8 -2.38419e-07
v -1.6 0.8 -2.38419e-07
v -1.8 0.8 -0.1
v -1.7 0.8 -0.1
v -1.6 0.8 -0.1
v -1.8 0.8 -0.2
v -1.7 0.8 -0.2
v -1.2 0.8 -0.6
v -1.1 0.8 -0.6
v -1.2 0.8 -0.7
v -1.1 0.8 -0.7
v -1 0.8 -0.7
v -1.2 0.8 -0.8
v -1.1 0.8 -0.8
v -1 0.8 -0.8
v -1.2 0.8 -0.9
v -1.1 0.8 -0.9
v -0.7 0.9 -1
v -0.5 0.9 -1
v 0.5 0.9 -1
v 0.7 0.9 -1
v -0.7 0.9 -1.1
v -0.5 0.9 -1.1
v 0.5 0.9 -1.1
v 0.7 0.9 -1.1
v -0.7 0.9 -1.8
v -0.5 0.9 -1.8
v 0.5 0.9 -1.8
v 0.7 0.9 -1.8
v -0.7 0.9 -1.9
v -0.5 0.9 -1.9
v 0.5 0.9 -1.9
v 0.7 0.9 -1.9
v -0.4 1 -1
v -0.2 1 -1
v 0.2 1 -1
v 0.4 1 -1
v -0.4 1 -1.1
v -0.2 1 -1.1
v 0.2 1 -1.1
v 0.4 1 -1.1
v -0.4 1 -1.8
v -0.2 1 -1.8
v 0.2 1 -1.8
v 0.4 1 -1.8
v -0.4 1 -1.9
v -0.2 1 -1.9
v 0.2 1 -1.9
v 0.4 1 -1.9
v 1.1 1.1 0.0999999
v 1.4 1.1 0.0999999
v 1.1 1.1 -2.38419e-07
v 1.4 1.1 -2.38419e-07
v -0.0999999 1.1 -1
v 0.1 1.1 -1
v -0.0999999 1.1 -1.1
v 0.1 1.1 -1.1
v -0.0999999 1.1 -1.8
v 0.1 1.1 -1.8
v -0.0999999 1.1 -1.9
v 0.1 1.1 -1.9
v -1.3 1.4 1.5
v -0.5 1.4 1.5
v -1 1.4 1.2
v -0.8 1.4 1.2
v -1 1.4 1
v -0.8 1.4 1
v -0.7 1.4 0.9
v -0.6 1.4 0.9
v -1.3 1.4 0.8
v -1.2 1.4 0.8
v -0.7 1.4 0.8
v -0.6 1.4 0.8
v -1.2 1.4 0.7
v -0.5 1.4 0.7
v -0.7 1.5 0.9
v -0.6 1.5 0.9
v -1.3 1.5 0.8
v -1.2 1.5 0.8
v -0.7 1.5 0.8
v -0.6 1.5 0.8
v -1.3 1.5 0.7
v -1.2 1.5 0.7
v -0.6 1.6 1.2
v -0.5 1.6 1.2
v -0.6 1.6 1.1
v -0.5 1.6 1.1
v -1.2 1.6 0.8
v -0.8 1.6 0.8
v -1.2 1.6 0.7
v -0.8 1.6 0.7
v -1.3 1.7 1.5
v -1.2 1.7 1.5
v -1 1.7 1.5
v -0.7 1.7 1.5
v -1.3 1.7 1.4
v -1.2 1.7 1.4
v -1 1.7 1.4
v -0.7 1.7 1.4
v -0.6 1.7 1.4
v -0.5 1.7 1.4
v -0.6 1.7 1.3
v -0.5 1.7 1.3
v -1.3 1.7 1.2
v -1.2 1.7 1.2
v -1.3 1.7 1.1
v -1.2 1.7 1.1
v -1.3 1.7 1
v -1.2 1.7 1
v -1.3 1.7 0.9
v -1.2 1.7 0.9
v -0.6 1.7 0.8
v -0.5 1.7 0.8
v -0.6 1.7 0.7
v -0.5 1.7 0.7
v -0.5 0.4 2
v 0.5 0.4 2
v -0.5 0.4 -2
v 0.5 0.4 -2
v -2 0.5 2
v -1.6 0.5 2
v -1.3 0.5 2
v -0.5 0.5 2
v 0.5 0.5 2
v 2 0.5 2
v -1.7 0.5 1.9
v -1.6 0.5 1.9
v -1.3 0.5 1.9
v -1.2 0.5 1.9
v -1.8 0.5 1.8
v -1.7 0.5 1.8
v -1.2 0.5 1.8
v 0.9 0.5 1.8
v 1 0.5 1.8
v 1.2 0.5 1.8
v 1.3 0.5 1.8
v 1.4 0.5 1.8
v 0.8 0.5 1.7
v 0.9 0.5 1.7
v 1 0.5 1.7
v 1.2 0.5 1.7
v 1.3 0.5 1.7
v 1.4 0.5 1.7
v 1.5 0.5 1.7
v -1.8 0.5 1.6
v -1.7 0.5 1.6
v 1 0.5 1.6
v 1.1 0.5 1.6
v -1.7 0.5 1.5
v 1 0.5 1.5
v 1.1 0.5 1.5
v 1.3 0.5 1.5
v 1.4 0.5 1.5
v -1.7 0.5 1.4
v -1.6 0.5 1.4
v -1.3 0.5 1.4
v -1.2 0.5 1.4
v 0.8 0.5 1.4
v 0.9 0.5 1.4
v 1 0.5 1.4
v 1.3 0.5 1.4
v 1.4 0.5 1.4
v -1.6 0.5 1.3
v -1.3 0.5 1.3
v 0.9 0.5 1.3
v 1 0.5 1.3
v 1.1 0.5 1.3
v 1.2 0.5 1.3
v 1.4 0.5 1.3
v 1.5 0.5 1.3
v -1 0.5 1.2
v -0.8 0.5 1.2
v 1 0.5 1.2
v 1.1 0.5 1.2
v 1.2 0.5 1.2
v 1.4 0.5 1.2
v -1.5 0.5 1.1
v -1.3 0.5 1.1
v -1.6 0.5 1
v -1.5 0.5 1
v -1.3 0.5 1
v -1.2 0.5 1
v -1 0.5 1
v -0.8 0.5 1
v 0.8 0.5 1
v 1.7 0.5 1
v -1.6 0.5 0.8
v -1.5 0.5 0.8
v -1.3 0.5 0.8
v -1.2 0.5 0.8
v -1.5 0.5 0.7
v -1.3 0.5 0.7
v -1.6 0.5 0.6
v -1.4 0.5 0.6
v -1.7 0.5 0.5
v -1.6 0.5 0.5
v -1.4 0.5 0.5
v -1.3 0.5 0.5
v -1.1 0.5 0.4
v -1 0.5 0.4
v -1.7 0.5 0.3
v -1.6 0.5 0.3
v -1.4 0.5 0.3
v -1.3 0.5 0.3
v -1.1 0.5 0.3
v -1 0.5 0.3
v -1.6 0.5 0.2
v -1.4 0.5 0.2
v -1.5 0.5 0.0999999
v -1.3 0.5 0.0999999
v 1.1 0.5 0.0999999
v 1.4 0.5 0.0999999
v -1.8 0.5 -2.38419e-07
v -1.7 0.5 -2.38419e-07
v -1.6 0.5 -2.38419e-07
v -1.5 0.5 -2.38419e-07
v -1.3 0.5 -2.38419e-07
v -1.2 0.5 -2.38419e-07
v 0.8 0.5 -2.38419e-07
v 1 0.5 -2.38419e-07
v 1.1 0.5 -2.38419e-07
v 1.4 0.5 -2.38419e-07
v 1.5 0.5 -2.38419e-07
v 1.7 0.5 -2.38419e-07
v -1.8 0.5 -0.1
v -1.7 0.5 -0.1
v -1.6 0.5 -0.2
v -1.5 0.5 -0.2
v -1.3 0.5 -0.2
v -1.2 0.5 -0.2
v -1.5 0.5 -0.3
v -1.3 0.5 -0.3
v 1.2 0.5 -0.3
v 1.4 0.5 -0.3
v -1.6 0.5 -0.4
v -1.4 0.5 -0.4
v 1.1 0.5 -0.4
v 1.2 0.5 -0.4
v 1.4 0.5 -0.4
v 1.5 0.5 -0.4
v -1.7 0.5 -0.5
v -1.6 0.5 -0.5
v -1.4 0.5 -0.5
v -1.3 0.5 -0.5
v 1.1 0.5 -0.6
v 1.2 0.5 -0.6
v 1.4 0.5 -0.6
v 1.5 0.5 -0.6
v -1.7 0.5 -0.7
v -1.6 0.5 -0.7
v -1.4 0.5 -0.7
v -1.3 0.5 -0.7
v -1.2 0.5 -0.7
v -1.1 0.5 -0.7
v 1.2 0.5 -0.7
v 1.4 0.5 -0.7
v -1.6 0.5 -0.8
v -1.4 0.5 -0.8
v -1.2 0.5 -0.8
v -1.1 0.5 -0.8
v 1.1 0.5 -0.8
v 1.3 0.5 -0.8
v -1.5 0.5 -0.9
v -1.3 0.5 -0.9
v 1 0.5 -0.9
v 1.1 0.5 -0.9
v 1.3 0.5 -0.9
v 1.4 0.5 -0.9
v -1.6 0.5 -1
v -1.5 0.5 -1
v -1.3 0.5 -1
v -1.2 0.5 -1
v -0.8 0.5 -1
v -0.5 0.5 -1
v 0.5 0.5 -1
v 0.8 0.5 -1
v 1 0.5 -1.1
v 1.1 0.5 -1.1
v 1.3 0.5 -1.1
v 1.4 0.5 -1.1
v -1.6 0.5 -1.2
v -1.5 0.5 -1.2
v -1.3 0.5 -1.2
v -1.2 0.5 -1.2
v 1.1 0.5 -1.2
v 1.3 0.5 -1.2
v -1.5 0.5 -1.3
v -1.3 0.5 -1.3
v -1.2 0.5 -1.3
v -1 0.5 -1.3
v 1 0.5 -1.3
v 1.2 0.5 -1.3
v -1.3 0.5 -1.4
v -1.2 0.5 -1.4
v -1 0.5 -1.4
v -0.9 0.5 -1.4
v 0.9 0.5 -1.4
v 1 0.5 -1.4
v 1.2 0.5 -1.4
v 1.3 0.5 -1.4
v -1.3 0.5 -1.6
v -1.2 0.5 -1.6
v -1 0.5 -1.6
v -0.9 0.5 -1.6
v 0.9 0.5 -1.6
v 1 0.5 -1.6
v 1.2 0.5 -1.6
v 1.3 0.5 -1.6
v -1.2 0.5 -1.7
v -1 0.5 -1.7
v 1 0.5 -1.7
v 1.2 0.5 -1.7
v -0.8 0.5 -1.9
v -0.5 0.5 -1.9
v 0.5 0.5 -1.9
v 0.8 0.5 -1.9
v -2 0.5 -2
v -0.5 0.5 -2
v 0.5 0.5 -2
v 2 0.5 -2
v -1.3 0.6 1.9
v -1.2 0.6 1.9
v -1.8 0.6 1.8
v -1.7 0.6 1.8
v -1.3 0.6 1.8
v -1.2 0.6 1.8
v -1.7 0.6 1.7
v -1.8 0.6 1.6
v -1.7 0.6 1.6
v -1.7 0.6 1.5
v -1.6 0.6 1.5
v -1.3 0.6 1.5
v -1.2 0.6 1.5
v -1.7 0.6 1.4
v -1.6 0.6 1.4
v -1.5 0.6 1.4
v -1.4 0.6 1.4
v -1.3 0.6 1.4
v -1.2 0.6 1.4
v -1.6 0.6 1.3
v -1.3 0.6 1.3
v -0.7 0.6 -1
v -0.6 0.6 -1
v 0.6 0.6 -1
v 0.7 0.6 -1
v -0.8 0.6 -1.1
v -0.7 0.6 -1.1
v 0.7 0.6 -1.1
v 0.8 0.6 -1.1
v -0.8 0.6 -1.8
v -0.7 0.6 -1.8
v 0.7 0.6 -1.8
v 0.8 0.6 -1.8
v -0.7 0.6 -1.9
v -0.6 0.6 -1.9
v 0.6 0.6 -1.9
v 0.7 0.6 -1.9
v -1.6 0.7 2
v -1.3 0.7 2
v -1.7 0.7 1.9
v -1.6 0.7 1.9
v -1.5 0.7 1.9
v -1.3 0.7 1.9
v -1.6 0.7 1.8
v -1.3 0.7 1.8
v -1.2 0.7 1.8
v -1.7 0.7 1.7
v -1.6 0.7 1.7
v -1.3 0.7 1.7
v -1.7 0.7 1.6
v -1.6 0.7 1.6
v -1.3 0.7 1.6
v -1.2 0.7 1.6
v -1.7 0.7 1.5
v -1.6 0.7 1.5
v -1.5 0.7 1.5
v -1.4 0.7 1.5
v -1.3 0.7 1.5
v -1.2 0.7 1.5
v -1.6 0.7 1.4
v -1.5 0.7 1.4
v -1.4 0.7 1.4
v -1.3 0.7 1.4
v -1 0.7 0.4
v -0.9 0.7 0.4
v -1 0.7 0.3
v -0.9 0.7 0.3
v -1.7 0.7 -2.38419e-07
v -1.6 0.7 -2.38419e-07
v -1.7 0.7 -0.1
v -1.6 0.7 -0.1
v -1.1 0.7 -0.7
v -1 0.7 -0.7
v -1.1 0.7 -0.8
v -1 0.7 -0.8
v -0.6 0.7 -1
v -0.5 0.7 -1
v 0.3 0.7 -1
v 0.4 0.7 -1
v 0.5 0.7 -1
v 0.6 0.7 -1
v -0.5 0.7 -1.1
v -0.3 0.7 -1.1
v 0.4 0.7 -1.1
v 0.5 0.7 -1.1
v -0.5 0.7 -1.8
v -0.3 0.7 -1.8
v 0.4 0.7 -1.8
v 0.5 0.7 -1.8
v -0.6 0.7 -1.9
v -0.5 0.7 -1.9
v 0.3 0.7 -1.9
v 0.4 0.7 -1.9
v 0.5 0.7 -1.9
v 0.6 0.7 -1.9
v -1.6 0.8 1.9
v -1.5 0.8 1.9
v -1.3 0.8 1.9
v -1.6 0.8 1.8
v -1.5 0.8 1.8
v -1.4 0.8 1.8
v -1.3 0.8 1.8
v -1.4 0.8 1.7
v -1.3 0.8 1.7
v -1.6 0.8 1.5
v -1.3 0.8 1.5
v -0.4 0.8 -1
v -0.2 0.8 -1
v -0.0999999 0.8 -1
v 0.1 0.8 -1
v 0.2 0.8 -1
v 0.3 0.8 -1
v -0.4 0.8 -1.1
v -0.3 0.8 -1.1
v -0.2 0.8 -1.1
v -0.0999999 0.8 -1.1
v 0.1 0.8 -1.1
v 0.2 0.8 -1.1
v -0.4 0.8 -1.8
v -0.3 0.8 -1.8
v -0.2 0.8 -1.8
v -0.0999999 0.8 -1.8
v 0.1 0.8 -1.8
v 0.2 0.8 -1.8
v -0.4 0.8 -1.9
v -0.2 0.8 -1.9
v -0.0999999 0.8 -1.9
v 0.1 0.8 -1.9
v 0.2 0.8 -1.9
v 0.3 0.8 -1.9
v -1.1 0.9 0.5
v -1 0.9 0.5
v -1.2 0.9 0.4
v -1.1 0.9 0.4
v -1 0.9 0.4
v -0.9 0.9 0.4
v -1.2 0.9 0.3
v -1.1 0.9 0.3
v -1 0.9 0.3
v -0.9 0.9 0.3
v -1.1 0.9 0.2
v -1 0.9 0.2
v -1.8 0.9 0.0999999
v -1.7 0.9 0.0999999
v -1.9 0.9 -2.38419e-07
v -1.8 0.9 -2.38419e-07
v -1.7 0.9 -2.38419e-07
v -1.6 0.9 -2.38419e-07
v -1.9 0.9 -0.1
v -1.8 0.9 -0.1
v -1.7 0.9 -0.1
v -1.6 0.9 -0.1
v -1.8 0.9 -0.2
v -1.7 0.9 -0.2
v -1.2 0.9 -0.6
v -1.1 0.9 -0.6
v -1.3 0.9 -0.7
v -1.2 0.9 -0.7
v -1.1 0.9 -0.7
v -1 0.9 -0.7
v -1.3 0.9 -0.8
v -1.2 0.9 -0.8
v -1.1 0.9 -0.8
v -1 0.9 -0.8
v -1.2 0.9 -0.9
v -1.1 0.9 -0.9
v -0.8 1 -1
v -0.6 1 -1
v 0.6 1 -1
v 0.8 1 -1
v -0.8 1 -1.1
v -0.6 1 -1.1
v 0.6 1 -1.1
v 0.8 1 -1.1
v -0.8 1 -1.8
v -0.6 1 -1.8
v 0.6 1 -1.8
v 0.8 1 -1.8
v -0.8 1 -1.9
v -0.6 1 -1.9
v 0.6 1 -1.9
v 0.8 1 -1.9
v -0.6 1.1 -1
v -0.3 1.1 -1
v 0.3 1.1 -1
v 0.6 1.1 -1
v -0.6 1.1 -1.1
v -0.3 1.1 -1.1
v 0.3 1.1 -1.1
v 0.6 1.1 -1.1
v -0.6 1.1 -1.8
v -0.3 1.1 -1.8
v 0.3 1.1 -1.8
v 0.6 1.1 -1.8
v -0.6 1.1 -1.9
v -0.3 1.1 -1.9
v 0.3 1.1 -1.9
v 0.6 1.1 -1.9
v -0.3 1.2 -1
v 0.3 1.2 -1
v -0.3 1.2 -1.1
v 0.3 1.2 -1.1
v -0.3 1.2 -1.8
v 0.3 1.2 -1.8
v -0.3 1.2 -1.9
v 0.3 1.2 -1.9
v -0.6 1.5 1.4
v -0.5 1.5 1.4
v -0.6 1.5 1.3
v -0.5 1.5 1.3
v -1.3 1.5 1.2
v -1.2 1.5 1.2
v -0.6 1.5 1.2
v -0.5 1.5 1.2
v -1.3 1.5 1.1
v -1.2 1.5 1.1
v -0.6 1.5 1.1
v -0.5 1.5 1.1
v 0.9 1.5 0.9
v 1.6 1.5 0.9
v -1.2 1.5 0.8
v -0.8 1.5 0.8
v -1.2 1.5 0.7
v -0.8 1.5 0.7
v 0.9 1.5 0.0999999
v 1.6 1.5 0.0999999
v -1.3 1.6 1.5
v -1.2 1.6 1.5
v -1 1.6 1.5
v -0.7 1.6 1.5
v -1.3 1.6 1.4
v -1.2 1.6 1.4
v -1 1.6 1.4
v -0.7 1.6 1.4
v -1.3 1.6 1
v -1.2 1.6 1
v 0.8 1.6 1
v 1.7 1.6 1
v -1.3 1.6 0.9
v -1.2 1.6 0.9
v 0.9 1.6 0.9
v 1.6 1.6 0.9
v -0.6 1.6 0.8
v -0.5 1.6 0.8
v -0.6 1.6 0.7
v -0.5 1.6 0.7
v 0.9 1.6 0.0999999
v 1.6 1.6 0.0999999
v 0.8 1.6 -2.38419e-07
v 1.7 1.6 -2.38419e-07
v -1.3 1.8 1.5
v -1.1 1.8 1.5
v -0.7 1.8 1.5
v -0.5 1.8 1.5
v -1.3 1.8 1.3
v -1.1 1.8 1.3
v -0.7 1.8 1.3
v -0.5 1.8 1.3
v -1.3 1.8 0.9
v -1.1 1.8 0.9
v -0.7 1.8 0.9
v -0.5 1.8 0.9
v -1.3 1.8 0.7
v -1.1 1.8 0.7
v -0.7 1.8 0.7
v -0.5 1.8 0.7
v -1.1 1.9 1.5
v -0.7 1.9 1.5
v -1.1 1.9 1.4
v -0.7 1.9 1.4
v -1.3 1.9 1.3
v -1.2 1.9 1.3
v -0.6 1.9 1.3
v -0.5 1.9 1.3
v -1.3 1.9 0.9
v -1.2 1.9 0.9
v -0.6 1.9 0.9
v -0.5 1.9 0.9
v -1.1 1.9 0.8
v -0.7 1.9 0.8
v -1.1 1.9 0.7
v -0.7 1.9 0.7
v -1.1 2 1.4
v -0.7 2 1.4
v -1.2 2 1.3
v -1.1 2 1.3
v -0.7 2 1.3
v -0.6 2 1.3
v -1.2 2 0.9
v -1.1 2 0.9
v -0.7 2 0.9
v -0.6 2 0.9
v -1.1 2 0.8
v -0.7 2 0.8

# faces
f 3/8/1 2/8/1 1/8/1
f 4/8/1 2/8/1 3/8/1
f 7/9/1 6/9/1 5/9/1
f 8/9/1 6/9/1 7/9/1
f 9/11/1 8/11/1 7/11/1
f 10/11/1 8/11/1 9/11/1
f 15/9/1 12/9/1 11/9/1
f 16/9/1 12/9/1 15/9/1
f 17/9/1 14/9/1 13/9/1
f 18/9/1 14/9/1 17/9/1
f 23/11/1 20/11/1 19/11/1
f 24/11/1 20/11/1 23/11/1
f 25/11/1 22/11/1 21/11/1
f 26/11/1 22/11/1 25/11/1
f 32/1/1 28/1/1 27/1/1
f 33/1/1 28/1/1 32/1/1
f 35/9/1 30/9/1 29/9/1
f 36/1/1 31/1/1 30/1/1
f 36/9/1 30/9/1 35/9/1
f 37/1/1 31/1/1 36/1/1
f 38/9/1 34/9/1 33/9/1
f 38/9/1 33/9/1 32/9/1
f 39/1/1 35/1/1 34/1/1
f 39/9/1 34/9/1 38/9/1
f 40/9/1 36/9/1 35/9/1
f 40/1/1 35/1/1 39/1/1
f 41/9/1 36/9/1 40/9/1
f 46/9/1 43/9/1 42/9/1
f 48/9/1 45/9/1 44/9/1
f 49/9/1 45/9/1 48/9/1
f 50/9/1 46/9/1 42/9/1
f 51/9/1 46/9/1 50/9/1
f 55/9/1 48/9/1 47/9/1
f 56/9/1 48/9/1 55/9/1
f 57/1/1 52/1/1 51/1/1
f 58/9/1 54/9/1 53/9/1
f 58/1/1 52/1/1 57/1/1
f 58/9/1 55/9/1 54/9/1
f 58/9/1 53/9/1 52/9/1
f 59/9/1 55/9/1 58/9/1
f 62/9/1 61/9/1 60/9/1
f 63/9/1 61/9/1 62/9/1
f 64/11/1 63/11/1 62/11/1
f 65/11/1 63/11/1 64/11/1
f 68/9/1 67/9/1 66/9/1
f 69/9/1 67/9/1 68/9/1
f 70/9/1 67/9/1 69/9/1
f 72/9/1 68/9/1 66/9/1
f 73/9/1 68/9/1 72/9/1
f 74/9/1 71/9/1 70/9/1
f 74/9/1 70/9/1 69/9/1
f 75/9/1 71/9/1 74/9/1
f 77/9/1 68/9/1 73/9/1
f 78/9/1 68/9/1 77/9/1
f 79/9/1 74/9/1 69/9/1
f 80/9/1 74/9/1 79/9/1
f 81/9/1 71/9/1 75/9/1
f 82/9/1 78/9/1 77/9/1
f 82/9/1 81/9/1 80/9/1
f 82/9/1 80/9/1 79/9/1
f 82/9/1 77/9/1 76/9/1
f 82/9/1 79/9/1 78/9/1
f 83/9/1 81/9/1 82/9/1
f 84/9/1 71/9/1 81/9/1
f 84/9/1 81/9/1 83/9/1
f 85/9/1 71/9/1 84/9/1
f 86/9/1 84/9/1 83/9/1
f 87/9/1 84/9/1 86/9/1
f 92/9/1 89/9/1 88/9/1
f 93/9/1 89/9/1 92/9/1
f 94/9/1 91/9/1 90/9/1
f 95/9/1 91/9/1 94/9/1
f 100/11/1 95/11/1 94/11/1
f 101/11/1 95/11/1 100/11/1
f 102/11/1 97/11/1 96/11/1
f 103/11/1 97/11/1 102/11/1
f 104/11/1 99/11/1 98/11/1
f 105/11/1 99/11/1 104/11/1
f 110/9/1 107/9/1 106/9/1
f 111/9/1 107/9/1 110/9/1
f 116/9/1 113/9/1 112/9/1
f 117/9/1 113/9/1 116/9/1
f 118/9/1 109/9/1 108/9/1
f 119/9/1 109/9/1 118/9/1
f 120/9/1 115/9/1 114/9/1
f 121/9/1 115/9/1 120/9/1
f 124/9/1 123/9/1 122/9/1
f 125/9/1 123/9/1 124/9/1
f 128/9/1 127/9/1 126/9/1
f 129/9/1 127/9/1 128/9/1
f 134/11/1 131/11/1 130/11/1
f 135/11/1 131/11/1 134/11/1
f 136/11/1 133/11/1 132/11/1
f 137/11/1 133/11/1 136/11/1
f 142/9/1 139/9/1 138/9/1
f 143/9/1 139/9/1 142/9/1
f 144/9/1 141/9/1 140/9/1
f 145/9/1 141/9/1 144/9/1
f 146/9/1 139/9/1 143/9/1
f 147/9/1 139/9/1 146/9/1
f 148/9/1 144/9/1 140/9/1
f 149/9/1 144/9/1 148/9/1
f 152/5/1 151/5/1 150/5/1
f 153/5/1 151/5/1 152/5/1
f 156/3/1 155/3/1 154/3/1
f 157/3/1 155/3/1 156/3/1
f 158/3/1 156/3/1 154/3/1
f 159/3/1 156/3/1 158/3/1
f 160/3/1 155/3/1 157/3/1
f 161/3/1 155/3/1 160/3/1
f 164/9/1 163/9/1 162/9/1
f 165/9/1 163/9/1 164/9/1
f 168/9/1 167/9/1 166/9/1
f 169/9/1 167/9/1 168/9/1
f 172/3/1 171/3/1 170/3/1
f 173/3/1 171/3/1 172/3/1
f 178/3/1 175/3/1 174/3/1
f 179/3/1 175/3/1 178/3/1
f 180/3/1 177/3/1 176/3/1
f 181/3/1 177/3/1 180/3/1
f 184/9/1 183/9/1 182/9/1
f 185/9/1 183/9/1 184/9/1
f 190/3/1 187/3/1 186/3/1
f 191/3/1 187/3/1 190/3/1
f 192/3/1 189/3/1 188/3/1
f 193/3/1 189/3/1 192/3/1
f 196/3/1 195/3/1 194/3/1
f 197/3/1 195/3/1 196/3/1
f 202/3/1 199/3/1 198/3/1
f 203/3/1 199/3/1 202/3/1
f 204/3/1 201/3/1 200/3/1
f 205/3/1 201/3/1 204/3/1
f 210/3/1 207/3/1 206/3/1
f 211/3/1 207/3/1 210/3/1
f 212/3/1 209/3/1 208/3/1
f 213/3/1 209/3/1 212/3/1
f 218/3/1 215/3/1 214/3/1
f 219/3/1 215/3/1 218/3/1
f 220/3/1 217/3/1 216/3/1
f 221/3/1 217/3/1 220/3/1
f 224/3/1 223/3/1 222/3/1
f 225/3/1 223/3/1 224/3/1
f 230/3/1 227/3/1 226/3/1
f 231/3/1 227/3/1 230/3/1
f 232/3/1 229/3/1 228/3/1
f 233/3/1 229/3/1 232/3/1
f 236/8/1 235/8/1 234/8/1
f 237/8/1 235/8/1 236/8/1
f 238/8/1 235/8/1 237/8/1
f 239/8/1 235/8/1 238/8/1
f 240/3/1 238/3/1 237/3/1
f 241/3/1 238/3/1 240/3/1
f 246/3/1 243/3/1 242/3/1
f 247/3/1 243/3/1 246/3/1
f 248/3/1 245/3/1 244/3/1
f 249/3/1 245/3/1 248/3/1
f 252/2/1 251/2/1 250/2/1
f 253/2/1 251/2/1 252/2/1
f 256/4/1 255/4/1 254/4/1
f 257/4/1 255/4/1 256/4/1
f 260/2/1 259/2/1 258/2/1
f 261/2/1 259/2/1 260/2/1
f 262/9/2 263/9/2 264/9/2
f 264/9/2 263/9/2 265/9/2
f 266/9/2 267/9/2 269/9/2
f 269/9/2 267/9/2 270/9/2
f 268/11/2 269/11/2 272/11/2
f 272/11/2 269/11/2 273/11/2
f 270/11/2 271/11/2 274/11/2
f 274/11/2 271/11/2 275/11/2
f 276/9/2 277/9/2 278/9/2
f 278/9/2 277/9/2 279/9/2
f 280/11/2 281/11/2 282/11/2
f 282/11/2 281/11/2 283/11/2
f 284/9/2 285/9/2 288/9/2
f 286/9/2 287/9/2 291/9/2
f 291/9/2 287/9/2 292/9/2
f 288/9/2 289/9/2 293/9/2
f 284/9/2 288/9/2 293/9/2
f 293/9/2 289/9/2 294/9/2
f 294/9/2 289/9/2 295/9/2
f 290/9/2 291/9/2 298/9/2
f 298/9/2 291/9/2 299/9/2
f 294/9/2 295/9/2 300/9/2
f 295/1/2 296/1/2 301/1/2
f 300/9/2 295/9/2 301/9/2
f 296/9/2 297/9/2 302/9/2
f 301/1/2 296/1/2 302/1/2
f 297/9/2 298/9/2 302/9/2
f 302/9/2 298/9/2 303/9/2
f 304/1/2 305/1/2 307/1/2
f 305/9/2 306/9/2 308/9/2
f 307/1/2 305/1/2 308/1/2
f 308/9/2 306/9/2 309/9/2
f 309/9/2 306/9/2 310/9/2
f 310/9/2 306/9/2 311/9/2
f 308/9/2 309/9/2 312/9/2
f 309/1/2 310/1/2 313/1/2
f 312/9/2 309/9/2 313/9/2
f 313/1/2 310/1/2 314/1/2
f 315/9/2 316/9/2 317/9/2
f 317/9/2 316/9/2 318/9/2
f 319/9/2 320/9/2 321/9/2
f 321/9/2 320/9/2 322/9/2
f 323/9/2 324/9/2 326/9/2
f 326/9/2 324/9/2 327/9/2
f 325/11/2 326/11/2 329/11/2
f 329/11/2 326/11/2 330/11/2
f 327/11/2 328/11/2 331/11/2
f 331/11/2 328/11/2 332/11/2
f 333/9/2 334/9/2 335/9/2
f 335/9/2 334/9/2 336/9/2
f 337/9/2 338/9/2 341/9/2
f 341/9/2 338/9/2 342/9/2
f 339/9/2 340/9/2 344/9/2
f 344/9/2 340/9/2 345/9/2
f 343/11/2 344/11/2 349/11/2
f 349/11/2 344/11/2 350/11/2
f 345/11/2 346/11/2 351/11/2
f 351/11/2 346/11/2 352/11/2
f 347/11/2 348/11/2 353/11/2
f 353/11/2 348/11/2 354/11/2
f 355/9/2 356/9/2 357/9/2
f 357/9/2 356/9/2 358/9/2
f 359/9/2 360/9/2 361/9/2
f 361/9/2 360/9/2 362/9/2
f 363/11/2 364/11/2 365/11/2
f 365/11/2 364/11/2 366/11/2
f 367/5/2 368/5/2 369/5/2
f 369/5/2 368/5/2 370/5/2
f 371/3/2 372/3/2 375/3/2
f 375/3/2 372/3/2 376/3/2
f 373/3/2 374/3/2 377/3/2
f 377/3/2 374/3/2 378/3/2
f 379/9/2 380/9/2 381/9/2
f 381/9/2 380/9/2 382/9/2
f 383/9/2 384/9/2 387/9/2
f 387/9/2 384/9/2 388/9/2
f 385/9/2 386/9/2 389/9/2
f 389/9/2 386/9/2 390/9/2
f 388/9/2 384/9/2 391/9/2
f 391/9/2 384/9/2 392/9/2
f 385/9/2 389/9/2 393/9/2
f 393/9/2 389/9/2 394/9/2
f 397/9/2 398/9/2 399/9/2
f 399/9/2 398/9/2 400/9/2
f 395/9/2 396/9/2 403/9/2
f 403/9/2 396/9/2 404/9/2
f 401/9/2 402/9/2 405/9/2
f 405/9/2 402/9/2 406/9/2
f 407/9/2 408/9/2 409/9/2
f 409/9/2 408/9/2 410/9/2
f 411/8/2 412/8/2 413/8/2
f 413/8/2 412/8/2 414/8/2
f 414/8/2 412/8/2 415/8/2
f 415/8/2 412/8/2 416/8/2
f 414/3/2 415/3/2 417/3/2
f 417/3/2 415/3/2 418/3/2
f 419/9/2 420/9/2 421/9/2
f 421/9/2 420/9/2 422/9/2
f 422/9/2 420/9/2 423/9/2
f 423/9/2 420/9/2 424/9/2
f 422/9/2 423/9/2 425/9/2
f 424/9/2 420/9/2 426/9/2
f 426/9/2 420/9/2 427/9/2
f 427/9/2 420/9/2 428/9/2
f 419/9/2 421/9/2 429/9/2
f 422/9/2 425/9/2 430/9/2
f 425/9/2 426/9/2 430/9/2
f 426/9/2 427/9/2 430/9/2
f 430/9/2 427/9/2 431/9/2
f 419/9/2 429/9/2 433/9/2
f 431/9/2 432/9/2 433/9/2
f 430/9/2 431/9/2 433/9/2
f 429/9/2 430/9/2 433/9/2
f 433/9/2 432/9/2 434/9/2
f 434/9/2 432/9/2 435/9/2
f 435/9/2 432/9/2 436/9/2
f 434/9/2 435/9/2 437/9/2
f 437/9/2 435/9/2 438/9/2
f 439/3/2 440/3/2 443/3/2
f 443/3/2 440/3/2 444/3/2
f 441/3/2 442/3/2 445/3/2
f 445/3/2 442/3/2 446/3/2
f 447/3/2 448/3/2 449/3/2
f 449/3/2 448/3/2 450/3/2
f 451/3/2 452/3/2 455/3/2
f 455/3/2 452/3/2 456/3/2
f 453/3/2 454/3/2 457/3/2
f 457/3/2 454/3/2 458/3/2
f 459/3/2 460/3/2 463/3/2
f 463/3/2 460/3/2 464/3/2
f 461/3/2 462/3/2 465/3/2
f 465/3/2 462/3/2 466/3/2
f 467/3/2 468/3/2 469/3/2
f 469/3/2 468/3/2 470/3/2
f 471/3/2 472/3/2 475/3/2
f 475/3/2 472/3/2 476/3/2
f 473/3/2 474/3/2 477/3/2
f 477/3/2 474/3/2 478/3/2
f 479/3/2 480/3/2 483/3/2
f 483/3/2 480/3/2 484/3/2
f 481/3/2 482/3/2 485/3/2
f 485/3/2 482/3/2 486/3/2
f 487/3/2 488/3/2 489/3/2
f 489/3/2 488/3/2 490/3/2
f 491/3/2 492/3/2 495/3/2
f 495/3/2 492/3/2 496/3/2
f 493/3/2 494/3/2 497/3/2
f 497/3/2 494/3/2 498/3/2
f 499/3/2 500/3/2 501/3/2
f 501/3/2 500/3/2 502/3/2
f 499/3/2 501/3/2 503/3/2
f 503/3/2 501/3/2 504/3/2
f 502/3/2 500/3/2 505/3/2
f 505/3/2 500/3/2 506/3/2
f 507/2/2 508/2/2 509/2/2
f 509/2/2 508/2/2 510/2/2
f 511/4/2 512/4/2 513/4/2
f 513/4/2 512/4/2 514/4/2
f 515/2/2 516/2/2 517/2/2
f 517/2/2 516/2/2 518/2/2
f 519/8/2 520/8/2 521/8/2
f 521/8/2 520/8/2 522/8/2
f 525/8/3 524/8/3 523/8/3
f 527/8/3 525/8/3 523/8/3
f 527/9/3 526/9/3 525/9/3
f 528/9/3 526/9/3 527/9/3
f 529/8/3 527/8/3 523/8/3
f 529/1/3 528/1/3 527/1/3
f 530/9/3 526/9/3 528/9/3
f 530/1/3 528/1/3 529/1/3
f 531/8/3 529/8/3 523/8/3
f 531/9/3 530/9/3 529/9/3
f 532/9/3 526/9/3 530/9/3
f 532/9/3 530/9/3 531/9/3
f 533/8/3 531/8/3 523/8/3
f 534/8/3 531/8/3 533/8/3
f 535/8/3 531/8/3 534/8/3
f 536/8/3 533/8/3 523/8/3
f 536/10/3 534/10/3 533/10/3
f 537/10/3 534/10/3 536/10/3
f 539/8/3 536/8/3 523/8/3
f 539/8/3 538/8/3 537/8/3
f 539/8/3 537/8/3 536/8/3
f 540/8/3 538/8/3 539/8/3
f 544/1/3 542/1/3 541/1/3
f 545/9/3 543/9/3 542/9/3
f 545/1/3 542/1/3 544/1/3
f 546/9/3 543/9/3 545/9/3
f 548/1/3 547/1/3 546/1/3
f 549/1/3 547/1/3 548/1/3
f 552/9/3 549/9/3 548/9/3
f 553/9/3 549/9/3 552/9/3
f 554/1/3 551/1/3 550/1/3
f 555/1/3 551/1/3 554/1/3
f 558/9/3 557/9/3 556/9/3
f 559/9/3 557/9/3 558/9/3
f 562/9/3 561/9/3 560/9/3
f 563/9/3 561/9/3 562/9/3
f 568/9/3 565/9/3 564/9/3
f 569/9/3 567/9/3 566/9/3
f 570/9/3 567/9/3 569/9/3
f 570/9/3 569/9/3 568/9/3
f 572/9/3 568/9/3 564/9/3
f 572/9/3 571/9/3 570/9/3
f 572/9/3 570/9/3 568/9/3
f 573/9/3 571/9/3 572/9/3
f 574/9/3 572/9/3 564/9/3
f 575/9/3 571/9/3 573/9/3
f 576/9/3 571/9/3 575/9/3
f 577/9/3 571/9/3 576/9/3
f 578/9/3 574/9/3 564/9/3
f 578/9/3 575/9/3 574/9/3
f 578/9/3 576/9/3 575/9/3
f 579/9/3 576/9/3 578/9/3
f 582/9/3 581/9/3 580/9/3
f 583/9/3 581/9/3 582/9/3
f 588/9/3 587/9/3 586/9/3
f 589/9/3 587/9/3 588/9/3
f 590/9/3 585/9/3 584/9/3
f 591/9/3 585/9/3 590/9/3
f 594/9/3 593/9/3 592/9/3
f 596/9/3 594/9/3 592/9/3
f 596/9/3 595/9/3 594/9/3
f 597/9/3 595/9/3 596/9/3
f 602/9/3 599/9/3 598/9/3
f 603/9/3 599/9/3 602/9/3
f 604/9/3 601/9/3 600/9/3
f 605/9/3 601/9/3 604/9/3
f 606/9/3 602/9/3 598/9/3
f 607/9/3 602/9/3 606/9/3
f 610/5/3 609/5/3 608/5/3
f 611/5/3 609/5/3 610/5/3
f 614/9/3 613/9/3 612/9/3
f 615/9/3 613/9/3 614/9/3
f 618/9/3 617/9/3 616/9/3
f 619/9/3 617/9/3 618/9/3
f 622/2/3 621/2/3 620/2/3
f 623/2/3 621/2/3 622/2/3
f 626/9/3 625/9/3 624/9/3
f 627/9/3 625/9/3 626/9/3
f 630/9/3 629/9/3 628/9/3
f 631/9/3 629/9/3 630/9/3
f 634/11/3 633/11/3 632/11/3
f 635/11/3 633/11/3 634/11/3
f 640/9/3 637/9/3 636/9/3
f 641/11/3 638/11/3 637/11/3
f 641/9/3 637/9/3 640/9/3
f 642/11/3 638/11/3 641/11/3
f 643/9/3 640/9/3 639/9/3
f 643/9/3 641/9/3 640/9/3
f 644/9/3 641/9/3 643/9/3
f 645/9/3 641/9/3 644/9/3
f 646/9/3 641/9/3 645/9/3
f 648/9/3 645/9/3 644/9/3
f 649/9/3 645/9/3 648/9/3
f 650/11/3 647/11/3 646/11/3
f 651/11/3 647/11/3 650/11/3
f 654/11/3 653/11/3 652/11/3
f 655/11/3 653/11/3 654/11/3
f 658/2/3 657/2/3 656/2/3
f 659/2/3 657/2/3 658/2/3
f 664/9/3 661/9/3 660/9/3
f 665/11/3 662/11/3 661/11/3
f 665/9/3 661/9/3 664/9/3
f 666/11/3 662/11/3 665/11/3
f 667/9/3 664/9/3 663/9/3
f 667/9/3 665/9/3 664/9/3
f 668/9/3 665/9/3 667/9/3
f 669/9/3 665/9/3 668/9/3
f 670/9/3 665/9/3 669/9/3
f 672/9/3 669/9/3 668/9/3
f 673/9/3 669/9/3 672/9/3
f 674/11/3 671/11/3 670/11/3
f 675/11/3 671/11/3 674/11/3
f 678/11/3 677/11/3 676/11/3
f 679/11/3 677/11/3 678/11/3
f 684/9/3 681/9/3 680/9/3
f 685/11/3 682/11/3 681/11/3
f 685/9/3 681/9/3 684/9/3
f 686/11/3 682/11/3 685/11/3
f 687/9/3 684/9/3 683/9/3
f 687/9/3 685/9/3 684/9/3
f 688/9/3 685/9/3 687/9/3
f 689/9/3 685/9/3 688/9/3
f 690/9/3 685/9/3 689/9/3
f 692/9/3 689/9/3 688/9/3
f 693/9/3 689/9/3 692/9/3
f 694/11/3 691/11/3 690/11/3
f 695/11/3 691/11/3 694/11/3
f 698/3/3 697/3/3 696/3/3
f 699/3/3 697/3/3 698/3/3
f 700/3/3 698/3/3 696/3/3
f 702/3/3 697/3/3 699/3/3
f 704/3/3 701/3/3 700/3/3
f 704/3/3 700/3/3 696/3/3
f 705/3/3 701/3/3 704/3/3
f 706/3/3 701/3/3 705/3/3
f 707/3/3 703/3/3 702/3/3
f 707/3/3 702/3/3 699/3/3
f 708/3/3 706/3/3 705/3/3
f 708/3/3 707/3/3 706/3/3
f 709/3/3 703/3/3 707/3/3
f 709/3/3 707/3/3 708/3/3
f 710/3/3 703/3/3 709/3/3
f 712/3/3 708/3/3 705/3/3
f 713/3/3 708/3/3 712/3/3
f 714/3/3 708/3/3 713/3/3
f 715/3/3 711/3/3 710/3/3
f 715/3/3 710/3/3 709/3/3
f 716/3/3 714/3/3 713/3/3
f 716/3/3 715/3/3 714/3/3
f 717/3/3 711/3/3 715/3/3
f 717/3/3 715/3/3 716/3/3
f 718/3/3 716/3/3 713/3/3
f 719/3/3 711/3/3 717/3/3
f 721/3/3 718/3/3 713/3/3
f 721/3/3 719/3/3 718/3/3
f 722/3/3 719/3/3 721/3/3
f 723/3/3 719/3/3 722/3/3
f 724/3/3 721/3/3 720/3/3
f 724/3/3 722/3/3 721/3/3
f 725/3/3 722/3/3 724/3/3
f 726/3/3 711/3/3 719/3/3
f 726/3/3 719/3/3 723/3/3
f 727/3/3 711/3/3 726/3/3
f 728/3/3 724/3/3 720/3/3
f 729/3/3 726/3/3 723/3/3
f 731/3/3 728/3/3 720/3/3
f 731/3/3 729/3/3 728/3/3
f 732/3/3 729/3/3 731/3/3
f 733/3/3 729/3/3 732/3/3
f 734/3/3 731/3/3 730/3/3
f 734/3/3 732/3/3 731/3/3
f 735/3/3 732/3/3 734/3/3
f 736/3/3 726/3/3 729/3/3
f 736/3/3 729/3/3 733/3/3
f 737/3/3 726/3/3 736/3/3
f 738/3/3 734/3/3 730/3/3
f 739/3/3 736/3/3 733/3/3
f 740/3/3 738/3/3 730/3/3
f 740/3/3 739/3/3 738/3/3
f 741/3/3 736/3/3 739/3/3
f 741/3/3 739/3/3 740/3/3
f 744/3/3 743/3/3 742/3/3
f 745/3/3 743/3/3 744/3/3
f 746/3/3 743/3/3 745/3/3
f 749/3/3 746/3/3 745/3/3
f 749/3/3 747/3/3 746/3/3
f 750/3/3 749/3/3 748/3/3
f 751/3/3 747/3/3 749/3/3
f 751/3/3 749/3/3 750/3/3
f 752/3/3 750/3/3 748/3/3
f 753/3/3 750/3/3 752/3/3
f 754/3/3 747/3/3 751/3/3
f 757/3/3 755/3/3 754/3/3
f 757/3/3 754/3/3 751/3/3
f 758/3/3 757/3/3 756/3/3
f 759/3/3 755/3/3 757/3/3
f 759/3/3 757/3/3 758/3/3
f 761/3/3 755/3/3 759/3/3
f 762/3/3 761/3/3 760/3/3
f 763/3/3 761/3/3 762/3/3
f 764/3/3 755/3/3 761/3/3
f 764/3/3 761/3/3 763/3/3
f 765/3/3 755/3/3 764/3/3
f 767/3/3 764/3/3 763/3/3
f 768/3/3 767/3/3 766/3/3
f 769/3/3 767/3/3 768/3/3
f 770/3/3 764/3/3 767/3/3
f 770/3/3 767/3/3 769/3/3
f 771/3/3 764/3/3 770/3/3
f 773/3/3 770/3/3 769/3/3
f 774/3/3 773/3/3 772/3/3
f 775/3/3 770/3/3 773/3/3
f 775/3/3 773/3/3 774/3/3
f 776/9/4 777/9/4 778/9/4
f 778/9/4 777/9/4 779/9/4
f 780/9/4 781/9/4 782/9/4
f 782/9/4 781/9/4 783/9/4
f 783/9/4 784/9/4 785/9/4
f 785/9/4 784/9/4 786/9/4
f 786/9/4 784/9/4 788/9/4
f 788/9/4 784/9/4 789/9/4
f 787/1/4 788/1/4 790/1/4
f 790/1/4 788/1/4 791/1/4
f 792/1/4 793/1/4 794/1/4
f 794/1/4 793/1/4 795/1/4
f 795/9/4 796/9/4 797/9/4
f 797/9/4 796/9/4 798/9/4
f 797/1/4 798/1/4 799/1/4
f 799/1/4 798/1/4 800/1/4
f 799/9/4 800/9/4 802/9/4
f 802/9/4 800/9/4 803/9/4
f 801/9/4 802/9/4 804/9/4
f 804/9/4 802/9/4 805/9/4
f 806/9/4 807/9/4 808/9/4
f 808/9/4 807/9/4 809/9/4
f 810/9/4 811/9/4 812/9/4
f 812/9/4 811/9/4 813/9/4
f 814/9/4 815/9/4 816/9/4
f 816/9/4 815/9/4 817/9/4
f 818/9/4 819/9/4 820/9/4
f 820/9/4 819/9/4 821/9/4
f 822/9/4 823/9/4 824/9/4
f 824/9/4 823/9/4 825/9/4
f 826/5/4 827/5/4 828/5/4
f 828/5/4 827/5/4 829/5/4
f 830/9/4 831/9/4 832/9/4
f 830/9/4 832/9/4 834/9/4
f 832/9/4 833/9/4 834/9/4
f 834/9/4 833/9/4 835/9/4
f 836/9/4 837/9/4 840/9/4
f 840/9/4 837/9/4 841/9/4
f 838/9/4 839/9/4 842/9/4
f 842/9/4 839/9/4 843/9/4
f 838/9/4 842/9/4 844/9/4
f 844/9/4 842/9/4 845/9/4
f 846/2/4 847/2/4 848/2/4
f 848/2/4 847/2/4 849/2/4
f 850/9/4 851/9/4 852/9/4
f 852/9/4 851/9/4 853/9/4
f 853/9/4 854/9/4 857/9/4
f 857/9/4 854/9/4 858/9/4
f 855/9/4 856/9/4 859/9/4
f 859/9/4 856/9/4 860/9/4
f 861/9/4 862/9/4 863/9/4
f 863/9/4 862/9/4 864/9/4
f 865/9/4 866/9/4 868/9/4
f 868/9/4 866/9/4 869/9/4
f 869/9/4 866/9/4 870/9/4
f 867/9/4 868/9/4 872/9/4
f 870/9/4 871/9/4 873/9/4
f 869/9/4 870/9/4 873/9/4
f 873/9/4 871/9/4 874/9/4
f 872/9/4 873/9/4 874/9/4
f 874/9/4 871/9/4 875/9/4
f 872/9/4 874/9/4 876/9/4
f 876/9/4 874/9/4 877/9/4
f 867/9/4 872/9/4 878/9/4
f 872/9/4 876/9/4 878/9/4
f 878/9/4 876/9/4 879/9/4
f 877/9/4 874/9/4 880/9/4
f 880/9/4 874/9/4 881/9/4
f 882/9/4 883/9/4 886/9/4
f 883/11/4 884/11/4 887/11/4
f 886/9/4 883/9/4 887/9/4
f 887/11/4 884/11/4 888/11/4
f 885/9/4 886/9/4 889/9/4
f 886/9/4 887/9/4 889/9/4
f 889/9/4 887/9/4 890/9/4
f 890/9/4 887/9/4 891/9/4
f 891/9/4 887/9/4 892/9/4
f 890/9/4 891/9/4 894/9/4
f 894/9/4 891/9/4 895/9/4
f 892/11/4 893/11/4 896/11/4
f 896/11/4 893/11/4 897/11/4
f 898/11/4 899/11/4 900/11/4
f 900/11/4 899/11/4 901/11/4
f 902/4/4 903/4/4 904/4/4
f 904/4/4 903/4/4 905/4/4
f 906/2/4 907/2/4 908/2/4
f 908/2/4 907/2/4 909/2/4
f 908/4/4 909/4/4 910/4/4
f 910/4/4 909/4/4 911/4/4
f 911/4/4 909/4/4 913/4/4
f 912/4/4 913/4/4 914/4/4
f 909/2/4 907/2/4 915/2/4
f 914/4/4 913/4/4 915/4/4
f 913/4/4 909/4/4 915/4/4
f 914/2/4 915/2/4 916/2/4
f 915/2/4 907/2/4 917/2/4
f 916/2/4 915/2/4 917/2/4
f 918/9/4 919/9/4 922/9/4
f 919/11/4 920/11/4 923/11/4
f 922/9/4 919/9/4 923/9/4
f 923/11/4 920/11/4 924/11/4
f 921/9/4 922/9/4 925/9/4
f 922/9/4 923/9/4 925/9/4
f 925/9/4 923/9/4 926/9/4
f 926/9/4 923/9/4 927/9/4
f 927/9/4 923/9/4 928/9/4
f 926/9/4 927/9/4 930/9/4
f 930/9/4 927/9/4 931/9/4
f 928/11/4 929/11/4 932/11/4
f 932/11/4 929/11/4 933/11/4
f 934/11/4 935/11/4 936/11/4
f 936/11/4 935/11/4 937/11/4
f 938/9/4 939/9/4 942/9/4
f 939/11/4 940/11/4 943/11/4
f 942/9/4 939/9/4 943/9/4
f 943/11/4 940/11/4 944/11/4
f 941/9/4 942/9/4 945/9/4
f 942/9/4 943/9/4 945/9/4
f 945/9/4 943/9/4 946/9/4
f 946/9/4 943/9/4 947/9/4
f 947/9/4 943/9/4 948/9/4
f 946/9/4 947/9/4 950/9/4
f 950/9/4 947/9/4 951/9/4
f 948/11/4 949/11/4 952/11/4
f 952/11/4 949/11/4 953/11/4
f 954/11/4 955/11/4 956/11/4
f 956/11/4 955/11/4 957/11/4
f 958/3/4 959/3/4 960/3/4
f 960/3/4 959/3/4 961/3/4
f 961/3/4 959/3/4 962/3/4
f 961/3/4 962/3/4 965/3/4
f 962/3/4 963/3/4 965/3/4
f 964/3/4 965/3/4 966/3/4
f 965/3/4 963/3/4 967/3/4
f 966/3/4 965/3/4 967/3/4
f 964/3/4 966/3/4 968/3/4
f 968/3/4 966/3/4 969/3/4
f 967/3/4 963/3/4 970/3/4
f 970/3/4 971/3/4 973/3/4
f 967/3/4 970/3/4 973/3/4
f 972/3/4 973/3/4 974/3/4
f 973/3/4 971/3/4 975/3/4
f 974/3/4 973/3/4 975/3/4
f 975/3/4 971/3/4 977/3/4
f 976/3/4 977/3/4 978/3/4
f 978/3/4 977/3/4 979/3/4
f 977/3/4 971/3/4 980/3/4
f 979/3/4 977/3/4 980/3/4
f 980/3/4 971/3/4 981/3/4
f 979/3/4 980/3/4 983/3/4
f 982/3/4 983/3/4 984/3/4
f 984/3/4 983/3/4 985/3/4
f 983/3/4 980/3/4 986/3/4
f 985/3/4 983/3/4 986/3/4
f 986/3/4 980/3/4 987/3/4
f 985/3/4 986/3/4 989/3/4
f 988/3/4 989/3/4 990/3/4
f 989/3/4 986/3/4 991/3/4
f 990/3/4 989/3/4 991/3/4
f 992/3/4 993/3/4 994/3/4
f 994/3/4 993/3/4 995/3/4
f 992/3/4 994/3/4 996/3/4
f 995/3/4 993/3/4 998/3/4
f 996/3/4 997/3/4 1000/3/4
f 992/3/4 996/3/4 1000/3/4
f 1000/3/4 997/3/4 1001/3/4
f 1001/3/4 997/3/4 1002/3/4
f 998/3/4 999/3/4 1003/3/4
f 995/3/4 998/3/4 1003/3/4
f 1001/3/4 1002/3/4 1004/3/4
f 1002/3/4 1003/3/4 1004/3/4
f 1003/3/4 999/3/4 1005/3/4
f 1004/3/4 1003/3/4 1005/3/4
f 1005/3/4 999/3/4 1006/3/4
f 1001/3/4 1004/3/4 1008/3/4
f 1008/3/4 1004/3/4 1009/3/4
f 1009/3/4 1004/3/4 1010/3/4
f 1006/3/4 1007/3/4 1011/3/4
f 1005/3/4 1006/3/4 1011/3/4
f 1009/3/4 1010/3/4 1012/3/4
f 1010/3/4 1011/3/4 1012/3/4
f 1011/3/4 1007/3/4 1013/3/4
f 1012/3/4 1011/3/4 1013/3/4
f 1009/3/4 1012/3/4 1014/3/4
f 1013/3/4 1007/3/4 1015/3/4
f 1009/3/4 1014/3/4 1017/3/4
f 1014/3/4 1015/3/4 1017/3/4
f 1017/3/4 1015/3/4 1018/3/4
f 1018/3/4 1015/3/4 1019/3/4
f 1016/3/4 1017/3/4 1020/3/4
f 1017/3/4 1018/3/4 1020/3/4
f 1020/3/4 1018/3/4 1021/3/4
f 1015/3/4 1007/3/4 1022/3/4
f 1019/3/4 1015/3/4 1022/3/4
f 1022/3/4 1007/3/4 1023/3/4
f 1016/3/4 1020/3/4 1024/3/4
f 1019/3/4 1022/3/4 1025/3/4
f 1016/3/4 1024/3/4 1027/3/4
f 1024/3/4 1025/3/4 1027/3/4
f 1027/3/4 1025/3/4 1028/3/4
f 1028/3/4 1025/3/4 1029/3/4
f 1026/3/4 1027/3/4 1030/3/4
f 1027/3/4 1028/3/4 1030/3/4
f 1030/3/4 1028/3/4 1031/3/4
f 1025/3/4 1022/3/4 1032/3/4
f 1029/3/4 1025/3/4 1032/3/4
f 1032/3/4 1022/3/4 1033/3/4
f 1026/3/4 1030/3/4 1034/3/4
f 1029/3/4 1032/3/4 1035/3/4
f 1026/3/4 1034/3/4 1036/3/4
f 1034/3/4 1035/3/4 1036/3/4
f 1035/3/4 1032/3/4 1037/3/4
f 1036/3/4 1035/3/4 1037/3/4
f 1038/8/4 1039/8/4 1040/8/4
f 1040/8/4 1039/8/4 1041/8/4
f 1041/8/4 1039/8/4 1042/8/4
f 1038/8/4 1040/8/4 1043/8/4
f 1040/10/4 1041/10/4 1043/10/4
f 1043/10/4 1041/10/4 1044/10/4
f 1038/8/4 1043/8/4 1046/8/4
f 1044/8/4 1045/8/4 1046/8/4
f 1043/8/4 1044/8/4 1046/8/4
f 1046/8/4 1045/8/4 1047/8/4
f 1050/8/5 1049/8/5 1048/8/5
f 1051/8/5 1049/8/5 1050/8/5
f 1054/9/5 1053/9/5 1052/9/5
f 1055/9/5 1053/9/5 1054/9/5
f 1058/9/5 1057/9/5 1056/9/5
f 1059/9/5 1057/9/5 1058/9/5
f 1062/9/5 1061/9/5 1060/9/5
f 1063/9/5 1061/9/5 1062/9/5
f 1068/3/5 1065/3/5 1064/3/5
f 1069/3/5 1065/3/5 1068/3/5
f 1070/3/5 1067/3/5 1066/3/5
f 1071/3/5 1067/3/5 1070/3/5
f 1074/9/5 1073/9/5 1072/9/5
f 1075/9/5 1073/9/5 1074/9/5
f 1078/9/5 1077/9/5 1076/9/5
f 1079/9/5 1077/9/5 1078/9/5
f 1082/9/5 1081/9/5 1080/9/5
f 1083/9/5 1081/9/5 1082/9/5
f 1086/3/5 1085/3/5 1084/3/5
f 1087/3/5 1085/3/5 1086/3/5
f 1090/11/5 1089/11/5 1088/11/5
f 1091/11/5 1089/11/5 1090/11/5
f 1094/11/5 1092/11/5 1091/11/5
f 1095/11/5 1092/11/5 1094/11/5
f 1096/11/5 1094/11/5 1093/11/5
f 1097/11/5 1094/11/5 1096/11/5
f 1100/11/5 1099/11/5 1098/11/5
f 1101/11/5 1099/11/5 1100/11/5
f 1104/11/5 1102/11/5 1101/11/5
f 1105/11/5 1102/11/5 1104/11/5
f 1106/11/5 1104/11/5 1103/11/5
f 1107/11/5 1104/11/5 1106/11/5
f 1110/11/5 1109/11/5 1108/11/5
f 1111/11/5 1109/11/5 1110/11/5
f 1114/11/5 1112/11/5 1111/11/5
f 1115/11/5 1112/11/5 1114/11/5
f 1116/11/5 1114/11/5 1113/11/5
f 1117/11/5 1114/11/5 1116/11/5
f 1122/3/5 1119/3/5 1118/3/5
f 1123/3/5 1119/3/5 1122/3/5
f 1124/3/5 1121/3/5 1120/3/5
f 1125/3/5 1121/3/5 1124/3/5
f 1130/3/5 1127/3/5 1126/3/5
f 1131/3/5 1127/3/5 1130/3/5
f 1132/3/5 1129/3/5 1128/3/5
f 1133/3/5 1129/3/5 1132/3/5
f 1138/3/5 1135/3/5 1134/3/5
f 1139/3/5 1135/3/5 1138/3/5
f 1140/3/5 1137/3/5 1136/3/5
f 1141/3/5 1137/3/5 1140/3/5
f 1146/3/5 1143/3/5 1142/3/5
f 1147/3/5 1143/3/5 1146/3/5
f 1148/3/5 1145/3/5 1144/3/5
f 1149/3/5 1145/3/5 1148/3/5
f 1152/4/5 1151/4/5 1150/4/5
f 1153/4/5 1151/4/5 1152/4/5
f 1156/3/5 1155/3/5 1154/3/5
f 1157/3/5 1155/3/5 1156/3/5
f 1160/3/5 1159/3/5 1158/3/5
f 1161/3/5 1159/3/5 1160/3/5
f 1164/9/5 1163/9/5 1162/9/5
f 1165/9/5 1163/9/5 1164/9/5
f 1166/9/5 1164/9/5 1162/9/5
f 1167/9/5 1163/9/5 1165/9/5
f 1168/9/5 1163/9/5 1167/9/5
f 1168/9/5 1167/9/5 1166/9/5
f 1169/9/5 1163/9/5 1168/9/5
f 1170/9/5 1166/9/5 1162/9/5
f 1170/9/5 1168/9/5 1166/9/5
f 1171/9/5 1168/9/5 1170/9/5
f 1172/9/5 1168/9/5 1171/9/5
f 1173/9/5 1163/9/5 1169/9/5
f 1174/9/5 1172/9/5 1171/9/5
f 1174/9/5 1173/9/5 1172/9/5
f 1175/9/5 1163/9/5 1173/9/5
f 1175/9/5 1173/9/5 1174/9/5
f 1180/9/5 1177/9/5 1176/9/5
f 1181/9/5 1177/9/5 1180/9/5
f 1182/9/5 1179/9/5 1178/9/5
f 1183/9/5 1179/9/5 1182/9/5
f 1186/9/5 1185/9/5 1184/9/5
f 1187/9/5 1185/9/5 1186/9/5
f 1190/9/5 1189/9/5 1188/9/5
f 1191/9/5 1189/9/5 1190/9/5
f 1196/9/5 1193/9/5 1192/9/5
f 1197/9/5 1193/9/5 1196/9/5
f 1198/9/5 1195/9/5 1194/9/5
f 1199/9/5 1195/9/5 1198/9/5
f 1202/9/5 1201/9/5 1200/9/5
f 1203/9/5 1201/9/5 1202/9/5
f 1206/9/5 1205/9/5 1204/9/5
f 1207/9/5 1205/9/5 1206/9/5
f 1210/9/5 1209/9/5 1208/9/5
f 1211/9/5 1209/9/5 1210/9/5
f 1214/9/5 1213/9/5 1212/9/5
f 1215/9/5 1213/9/5 1214/9/5
f 1216/10/6 1217/10/6 1218/10/6
f 1218/10/6 1217/10/6 1219/10/6
f 1220/8/6 1221/8/6 1226/8/6
f 1226/8/6 1221/8/6 1227/8/6
f 1222/8/6 1223/8/6 1228/8/6
f 1228/8/6 1223/8/6 1229/8/6
f 1220/8/6 1226/8/6 1230/8/6
f 1230/8/6 1226/8/6 1231/8/6
f 1229/8/6 1223/8/6 1232/8/6
f 1224/8/6 1225/8/6 1233/8/6
f 1233/8/6 1225/8/6 1234/8/6
f 1234/8/6 1225/8/6 1235/8/6
f 1235/8/6 1225/8/6 1236/8/6
f 1236/8/6 1225/8/6 1237/8/6
f 1224/8/6 1233/8/6 1238/8/6
f 1233/1/6 1234/1/6 1239/1/6
f 1238/8/6 1233/8/6 1239/8/6
f 1234/7/6 1235/7/6 1240/7/6
f 1239/1/6 1234/1/6 1240/1/6
f 1235/1/6 1236/1/6 1241/1/6
f 1240/7/6 1235/7/6 1241/7/6
f 1236/7/6 1237/7/6 1242/7/6
f 1241/1/6 1236/1/6 1242/1/6
f 1237/8/6 1225/8/6 1243/8/6
f 1242/7/6 1237/7/6 1243/7/6
f 1243/8/6 1225/8/6 1244/8/6
f 1220/8/6 1230/8/6 1245/8/6
f 1241/7/6 1242/7/6 1247/7/6
f 1240/7/6 1241/7/6 1247/7/6
f 1238/7/6 1239/7/6 1247/7/6
f 1243/7/6 1244/7/6 1247/7/6
f 1242/7/6 1243/7/6 1247/7/6
f 1239/7/6 1240/7/6 1247/7/6
f 1247/7/6 1244/7/6 1248/7/6
f 1245/8/6 1246/8/6 1249/8/6
f 1238/7/6 1247/7/6 1250/7/6
f 1247/1/6 1248/1/6 1250/1/6
f 1248/7/6 1244/7/6 1251/7/6
f 1250/1/6 1248/1/6 1251/1/6
f 1251/7/6 1244/7/6 1252/7/6
f 1252/7/6 1244/7/6 1253/7/6
f 1245/8/6 1249/8/6 1254/8/6
f 1232/8/6 1223/8/6 1257/8/6
f 1238/7/6 1250/7/6 1258/7/6
f 1224/8/6 1238/8/6 1258/8/6
f 1250/7/6 1251/7/6 1258/7/6
f 1251/7/6 1252/7/6 1258/7/6
f 1258/7/6 1252/7/6 1259/7/6
f 1259/7/6 1252/7/6 1260/7/6
f 1252/1/6 1253/1/6 1261/1/6
f 1260/7/6 1252/7/6 1261/7/6
f 1253/7/6 1244/7/6 1262/7/6
f 1261/1/6 1253/1/6 1262/1/6
f 1254/8/6 1255/8/6 1263/8/6
f 1256/8/6 1257/8/6 1264/8/6
f 1259/1/6 1260/1/6 1265/1/6
f 1258/8/6 1259/8/6 1265/8/6
f 1260/7/6 1261/7/6 1266/7/6
f 1265/1/6 1260/1/6 1266/1/6
f 1261/7/6 1262/7/6 1266/7/6
f 1266/7/6 1262/7/6 1267/7/6
f 1267/7/6 1262/7/6 1268/7/6
f 1262/7/6 1244/7/6 1269/7/6
f 1268/7/6 1262/7/6 1269/7/6
f 1244/8/6 1225/8/6 1270/8/6
f 1269/7/6 1244/7/6 1270/7/6
f 1257/8/6 1223/8/6 1271/8/6
f 1263/8/6 1264/8/6 1271/8/6
f 1264/8/6 1257/8/6 1271/8/6
f 1271/8/6 1223/8/6 1272/8/6
f 1266/7/6 1267/7/6 1273/7/6
f 1265/8/6 1266/8/6 1273/8/6
f 1267/1/6 1268/1/6 1274/1/6
f 1273/7/6 1267/7/6 1274/7/6
f 1268/7/6 1269/7/6 1275/7/6
f 1274/1/6 1268/1/6 1275/1/6
f 1269/8/6 1270/8/6 1276/8/6
f 1275/7/6 1269/7/6 1276/7/6
f 1263/8/6 1271/8/6 1277/8/6
f 1277/8/6 1271/8/6 1278/8/6
f 1254/8/6 1263/8/6 1279/8/6
f 1263/8/6 1277/8/6 1279/8/6
f 1277/12/6 1278/12/6 1280/12/6
f 1279/8/6 1277/8/6 1280/8/6
f 1278/8/6 1271/8/6 1281/8/6
f 1280/12/6 1278/12/6 1281/12/6
f 1281/8/6 1271/8/6 1282/8/6
f 1282/8/6 1271/8/6 1283/8/6
f 1272/8/6 1223/8/6 1284/8/6
f 1265/8/6 1273/8/6 1285/8/6
f 1273/8/6 1274/8/6 1285/8/6
f 1258/8/6 1265/8/6 1285/8/6
f 1274/8/6 1275/8/6 1285/8/6
f 1224/8/6 1258/8/6 1285/8/6
f 1275/8/6 1276/8/6 1285/8/6
f 1270/8/6 1225/8/6 1286/8/6
f 1285/8/6 1276/8/6 1286/8/6
f 1276/8/6 1270/8/6 1286/8/6
f 1279/12/6 1280/12/6 1287/12/6
f 1281/12/6 1282/12/6 1287/12/6
f 1254/8/6 1279/8/6 1287/8/6
f 1280/12/6 1281/12/6 1287/12/6
f 1287/12/6 1282/12/6 1288/12/6
f 1288/12/6 1282/12/6 1289/12/6
f 1283/8/6 1284/8/6 1290/8/6
f 1289/12/6 1282/12/6 1290/12/6
f 1282/8/6 1283/8/6 1290/8/6
f 1288/12/6 1289/12/6 1291/12/6
f 1287/8/6 1288/8/6 1291/8/6
f 1289/8/6 1290/8/6 1292/8/6
f 1291/12/6 1289/12/6 1292/12/6
f 1287/8/6 1291/8/6 1293/8/6
f 1254/8/6 1287/8/6 1293/8/6
f 1291/8/6 1292/8/6 1293/8/6
f 1293/8/6 1292/8/6 1294/8/6
f 1245/8/6 1254/8/6 1295/8/6
f 1254/8/6 1293/8/6 1295/8/6
f 1293/12/6 1294/12/6 1296/12/6
f 1295/8/6 1293/8/6 1296/8/6
f 1294/8/6 1292/8/6 1297/8/6
f 1296/12/6 1294/12/6 1297/12/6
f 1292/8/6 1290/8/6 1298/8/6
f 1297/8/6 1292/8/6 1298/8/6
f 1290/8/6 1284/8/6 1299/8/6
f 1298/8/6 1290/8/6 1299/8/6
f 1299/8/6 1284/8/6 1300/8/6
f 1297/12/6 1298/12/6 1301/12/6
f 1295/12/6 1296/12/6 1301/12/6
f 1296/12/6 1297/12/6 1301/12/6
f 1245/8/6 1295/8/6 1301/8/6
f 1301/12/6 1298/12/6 1302/12/6
f 1302/12/6 1298/12/6 1303/12/6
f 1298/8/6 1299/8/6 1304/8/6
f 1303/12/6 1298/12/6 1304/12/6
f 1304/8/6 1299/8/6 1305/8/6
f 1300/8/6 1284/8/6 1306/8/6
f 1302/12/6 1303/12/6 1307/12/6
f 1301/8/6 1302/8/6 1307/8/6
f 1304/8/6 1305/8/6 1308/8/6
f 1307/12/6 1303/12/6 1308/12/6
f 1305/8/6 1306/8/6 1308/8/6
f 1303/8/6 1304/8/6 1308/8/6
f 1307/8/6 1308/8/6 1309/8/6
f 1308/8/6 1306/8/6 1310/8/6
f 1309/8/6 1308/8/6 1310/8/6
f 1301/8/6 1307/8/6 1313/8/6
f 1220/8/6 1245/8/6 1313/8/6
f 1245/8/6 1301/8/6 1313/8/6
f 1307/8/6 1309/8/6 1313/8/6
f 1313/8/6 1309/8/6 1314/8/6
f 1314/8/6 1309/8/6 1315/8/6
f 1309/12/6 1310/12/6 1316/12/6
f 1315/8/6 1309/8/6 1316/8/6
f 1310/8/6 1306/8/6 1317/8/6
f 1316/12/6 1310/12/6 1317/12/6
f 1317/8/6 1306/8/6 1318/8/6
f 1224/8/6 1285/8/6 1319/8/6
f 1311/8/6 1312/8/6 1321/8/6
f 1321/8/6 1312/8/6 1322/8/6
f 1286/8/6 1225/8/6 1324/8/6
f 1220/8/6 1313/8/6 1325/8/6
f 1314/8/6 1315/8/6 1326/8/6
f 1315/12/6 1316/12/6 1327/12/6
f 1325/8/6 1326/8/6 1327/8/6
f 1326/8/6 1315/8/6 1327/8/6
f 1316/12/6 1317/12/6 1327/12/6
f 1317/12/6 1318/12/6 1327/12/6
f 1327/12/6 1318/12/6 1328/12/6
f 1328/12/6 1318/12/6 1329/12/6
f 1318/8/6 1306/8/6 1330/8/6
f 1329/12/6 1318/12/6 1330/12/6
f 1328/12/6 1329/12/6 1331/12/6
f 1327/8/6 1328/8/6 1331/8/6
f 1329/8/6 1330/8/6 1332/8/6
f 1331/12/6 1329/12/6 1332/12/6
f 1319/8/6 1320/8/6 1333/8/6
f 1322/8/6 1323/8/6 1333/8/6
f 1323/8/6 1324/8/6 1333/8/6
f 1321/8/6 1322/8/6 1333/8/6
f 1320/8/6 1321/8/6 1333/8/6
f 1333/8/6 1324/8/6 1334/8/6
f 1331/8/6 1332/8/6 1335/8/6
f 1327/8/6 1331/8/6 1335/8/6
f 1325/8/6 1327/8/6 1335/8/6
f 1335/8/6 1332/8/6 1336/8/6
f 1319/8/6 1333/8/6 1337/8/6
f 1333/12/6 1334/12/6 1338/12/6
f 1337/8/6 1333/8/6 1338/8/6
f 1334/8/6 1324/8/6 1339/8/6
f 1338/12/6 1334/12/6 1339/12/6
f 1339/8/6 1324/8/6 1340/8/6
f 1325/8/6 1335/8/6 1341/8/6
f 1335/12/6 1336/12/6 1342/12/6
f 1341/8/6 1335/8/6 1342/8/6
f 1336/8/6 1332/8/6 1343/8/6
f 1342/12/6 1336/12/6 1343/12/6
f 1332/8/6 1330/8/6 1344/8/6
f 1343/8/6 1332/8/6 1344/8/6
f 1337/12/6 1338/12/6 1345/12/6
f 1319/8/6 1337/8/6 1345/8/6
f 1338/12/6 1339/12/6 1345/12/6
f 1339/12/6 1340/12/6 1345/12/6
f 1345/12/6 1340/12/6 1346/12/6
f 1346/12/6 1340/12/6 1347/12/6
f 1340/8/6 1324/8/6 1348/8/6
f 1347/12/6 1340/12/6 1348/12/6
f 1342/12/6 1343/12/6 1349/12/6
f 1343/12/6 1344/12/6 1349/12/6
f 1341/12/6 1342/12/6 1349/12/6
f 1325/8/6 1341/8/6 1349/8/6
f 1349/12/6 1344/12/6 1350/12/6
f 1350/12/6 1344/12/6 1351/12/6
f 1344/8/6 1330/8/6 1352/8/6
f 1351/12/6 1344/12/6 1352/12/6
f 1330/8/6 1306/8/6 1353/8/6
f 1352/8/6 1330/8/6 1353/8/6
f 1353/8/6 1306/8/6 1354/8/6
f 1345/8/6 1346/8/6 1355/8/6
f 1346/12/6 1347/12/6 1355/12/6
f 1347/8/6 1348/8/6 1356/8/6
f 1355/12/6 1347/12/6 1356/12/6
f 1350/12/6 1351/12/6 1357/12/6
f 1349/8/6 1350/8/6 1357/8/6
f 1351/8/6 1352/8/6 1358/8/6
f 1357/12/6 1351/12/6 1358/12/6
f 1352/8/6 1353/8/6 1358/8/6
f 1358/8/6 1353/8/6 1359/8/6
f 1354/8/6 1306/8/6 1360/8/6
f 1345/8/6 1355/8/6 1361/8/6
f 1355/8/6 1356/8/6 1361/8/6
f 1319/8/6 1345/8/6 1361/8/6
f 1361/8/6 1356/8/6 1362/8/6
f 1359/8/6 1360/8/6 1363/8/6
f 1358/8/6 1359/8/6 1363/8/6
f 1357/8/6 1358/8/6 1363/8/6
f 1363/8/6 1360/8/6 1364/8/6
f 1319/8/6 1361/8/6 1365/8/6
f 1361/12/6 1362/12/6 1366/12/6
f 1365/8/6 1361/8/6 1366/8/6
f 1362/8/6 1356/8/6 1367/8/6
f 1366/12/6 1362/12/6 1367/12/6
f 1356/8/6 1348/8/6 1368/8/6
f 1367/8/6 1356/8/6 1368/8/6
f 1349/8/6 1357/8/6 1369/8/6
f 1357/8/6 1363/8/6 1369/8/6
f 1363/12/6 1364/12/6 1370/12/6
f 1369/8/6 1363/8/6 1370/8/6
f 1364/8/6 1360/8/6 1371/8/6
f 1370/12/6 1364/12/6 1371/12/6
f 1371/8/6 1360/8/6 1372/8/6
f 1284/8/6 1223/8/6 1373/8/6
f 1372/8/6 1360/8/6 1373/8/6
f 1306/8/6 1284/8/6 1373/8/6
f 1360/8/6 1306/8/6 1373/8/6
f 1373/8/6 1223/8/6 1374/8/6
f 1319/8/6 1365/8/6 1375/8/6
f 1224/8/6 1319/8/6 1375/8/6
f 1375/8/6 1365/8/6 1376/8/6
f 1366/12/6 1367/12/6 1377/12/6
f 1376/8/6 1365/8/6 1377/8/6
f 1365/12/6 1366/12/6 1377/12/6
f 1367/12/6 1368/12/6 1377/12/6
f 1377/12/6 1368/12/6 1378/12/6
f 1378/12/6 1368/12/6 1379/12/6
f 1368/8/6 1348/8/6 1380/8/6
f 1379/12/6 1368/12/6 1380/12/6
f 1371/12/6 1372/12/6 1381/12/6
f 1370/12/6 1371/12/6 1381/12/6
f 1369/12/6 1370/12/6 1381/12/6
f 1349/8/6 1369/8/6 1381/8/6
f 1381/12/6 1372/12/6 1382/12/6
f 1382/12/6 1372/12/6 1383/12/6
f 1372/8/6 1373/8/6 1384/8/6
f 1383/12/6 1372/12/6 1384/12/6
f 1378/12/6 1379/12/6 1385/12/6
f 1377/8/6 1378/8/6 1385/8/6
f 1379/8/6 1380/8/6 1386/8/6
f 1385/12/6 1379/12/6 1386/12/6
f 1382/12/6 1383/12/6 1387/12/6
f 1381/8/6 1382/8/6 1387/8/6
f 1383/8/6 1384/8/6 1388/8/6
f 1387/12/6 1383/12/6 1388/12/6
f 1384/8/6 1373/8/6 1389/8/6
f 1388/8/6 1384/8/6 1389/8/6
f 1389/8/6 1373/8/6 1390/8/6
f 1377/8/6 1385/8/6 1391/8/6
f 1376/8/6 1377/8/6 1391/8/6
f 1385/8/6 1386/8/6 1391/8/6
f 1391/8/6 1386/8/6 1392/8/6
f 1387/8/6 1388/8/6 1393/8/6
f 1388/8/6 1389/8/6 1393/8/6
f 1389/12/6 1390/12/6 1394/12/6
f 1393/8/6 1389/8/6 1394/8/6
f 1390/8/6 1373/8/6 1395/8/6
f 1394/12/6 1390/12/6 1395/12/6
f 1395/8/6 1373/8/6 1396/8/6
f 1376/8/6 1391/8/6 1397/8/6
f 1391/12/6 1392/12/6 1398/12/6
f 1397/8/6 1391/8/6 1398/8/6
f 1392/8/6 1386/8/6 1399/8/6
f 1398/12/6 1392/12/6 1399/12/6
f 1386/8/6 1380/8/6 1400/8/6
f 1399/8/6 1386/8/6 1400/8/6
f 1393/12/6 1394/12/6 1401/12/6
f 1387/8/6 1393/8/6 1401/8/6
f 1394/12/6 1395/12/6 1401/12/6
f 1395/12/6 1396/12/6 1401/12/6
f 1401/12/6 1396/12/6 1402/12/6
f 1402/12/6 1396/12/6 1403/12/6
f 1396/8/6 1373/8/6 1404/8/6
f 1403/12/6 1396/12/6 1404/12/6
f 1397/12/6 1398/12/6 1405/12/6
f 1398/12/6 1399/12/6 1405/12/6
f 1399/12/6 1400/12/6 1405/12/6
f 1376/8/6 1397/8/6 1405/8/6
f 1405/12/6 1400/12/6 1406/12/6
f 1406/12/6 1400/12/6 1407/12/6
f 1400/8/6 1380/8/6 1408/8/6
f 1407/12/6 1400/12/6 1408/12/6
f 1401/8/6 1402/8/6 1409/8/6
f 1402/12/6 1403/12/6 1409/12/6
f 1403/8/6 1404/8/6 1410/8/6
f 1409/12/6 1403/12/6 1410/12/6
f 1406/12/6 1407/12/6 1411/12/6
f 1405/8/6 1406/8/6 1411/8/6
f 1407/8/6 1408/8/6 1412/8/6
f 1411/12/6 1407/12/6 1412/12/6
f 1404/8/6 1373/8/6 1413/8/6
f 1410/8/6 1404/8/6 1413/8/6
f 1409/8/6 1410/8/6 1413/8/6
f 1411/8/6 1412/8/6 1416/8/6
f 1405/8/6 1411/8/6 1416/8/6
f 1376/8/6 1405/8/6 1416/8/6
f 1220/8/6 1325/8/6 1417/8/6
f 1413/8/6 1414/8/6 1417/8/6
f 1381/8/6 1387/8/6 1417/8/6
f 1325/8/6 1349/8/6 1417/8/6
f 1409/8/6 1413/8/6 1417/8/6
f 1387/8/6 1401/8/6 1417/8/6
f 1349/8/6 1381/8/6 1417/8/6
f 1401/8/6 1409/8/6 1417/8/6
f 1417/8/6 1414/8/6 1418/8/6
f 1415/8/6 1416/8/6 1419/8/6
f 1348/8/6 1324/8/6 1420/8/6
f 1419/8/6 1416/8/6 1420/8/6
f 1380/8/6 1348/8/6 1420/8/6
f 1412/8/6 1408/8/6 1420/8/6
f 1416/8/6 1412/8/6 1420/8/6
f 1408/8/6 1380/8/6 1420/8/6
f 1324/8/6 1225/8/6 1420/8/6
f 1421/1/6 1422/1/6 1425/1/6
f 1425/1/6 1422/1/6 1426/1/6
f 1423/9/6 1424/9/6 1427/9/6
f 1423/9/6 1427/9/6 1428/9/6
f 1428/9/6 1427/9/6 1429/9/6
f 1430/1/6 1431/1/6 1434/1/6
f 1434/1/6 1431/1/6 1435/1/6
f 1432/9/6 1433/9/6 1438/9/6
f 1438/9/6 1433/9/6 1439/9/6
f 1436/9/6 1437/9/6 1440/9/6
f 1437/9/6 1438/9/6 1440/9/6
f 1435/9/6 1436/9/6 1440/9/6
f 1440/9/6 1438/9/6 1441/9/6
f 1442/3/6 1443/3/6 1447/3/6
f 1444/3/6 1445/3/6 1448/3/6
f 1446/3/6 1447/3/6 1450/3/6
f 1447/3/6 1443/3/6 1451/3/6
f 1450/3/6 1447/3/6 1451/3/6
f 1448/3/6 1449/3/6 1452/3/6
f 1444/3/6 1448/3/6 1452/3/6
f 1452/3/6 1449/3/6 1453/3/6
f 1451/3/6 1443/3/6 1454/3/6
f 1454/3/6 1443/3/6 1455/3/6
f 1444/3/6 1452/3/6 1456/3/6
f 1456/3/6 1452/3/6 1457/3/6
f 1458/9/6 1459/9/6 1461/9/6
f 1461/9/6 1459/9/6 1462/9/6
f 1462/9/6 1459/9/6 1463/9/6
f 1460/9/6 1461/9/6 1464/9/6
f 1460/9/6 1464/9/6 1467/9/6
f 1467/9/6 1464/9/6 1468/9/6
f 1465/9/6 1466/9/6 1469/9/6
f 1467/1/6 1468/1/6 1470/1/6
f 1470/1/6 1468/1/6 1471/1/6
f 1469/9/6 1466/9/6 1472/9/6
f 1472/9/6 1466/9/6 1473/9/6
f 1470/9/6 1471/9/6 1474/9/6
f 1474/9/6 1471/9/6 1475/9/6
f 1472/1/6 1473/1/6 1478/1/6
f 1478/1/6 1473/1/6 1479/1/6
f 1475/9/6 1476/9/6 1480/9/6
f 1476/1/6 1477/1/6 1481/1/6
f 1480/9/6 1476/9/6 1481/9/6
f 1477/9/6 1478/9/6 1482/9/6
f 1481/1/6 1477/1/6 1482/1/6
f 1482/9/6 1478/9/6 1483/9/6
f 1484/9/6 1485/9/6 1486/9/6
f 1486/9/6 1485/9/6 1487/9/6
f 1488/9/6 1489/9/6 1490/9/6
f 1490/9/6 1489/9/6 1491/9/6
f 1492/9/6 1493/9/6 1494/9/6
f 1494/9/6 1493/9/6 1495/9/6
f 1496/3/6 1497/3/6 1502/3/6
f 1498/3/6 1499/3/6 1504/3/6
f 1500/3/6 1501/3/6 1505/3/6
f 1502/3/6 1503/3/6 1506/3/6
f 1496/3/6 1502/3/6 1506/3/6
f 1506/3/6 1503/3/6 1507/3/6
f 1498/3/6 1504/3/6 1508/3/6
f 1504/3/6 1505/3/6 1508/3/6
f 1505/3/6 1501/3/6 1509/3/6
f 1508/3/6 1505/3/6 1509/3/6
f 1496/3/6 1506/3/6 1510/3/6
f 1510/3/6 1506/3/6 1511/3/6
f 1498/3/6 1508/3/6 1512/3/6
f 1512/3/6 1508/3/6 1513/3/6
f 1509/3/6 1501/3/6 1514/3/6
f 1514/3/6 1501/3/6 1515/3/6
f 1516/1/6 1517/1/6 1519/1/6
f 1517/9/6 1518/9/6 1520/9/6
f 1519/1/6 1517/1/6 1520/1/6
f 1520/9/6 1518/9/6 1521/9/6
f 1521/9/6 1518/9/6 1522/9/6
f 1519/9/6 1520/9/6 1523/9/6
f 1520/9/6 1521/9/6 1523/9/6
f 1521/1/6 1522/1/6 1523/1/6
f 1523/1/6 1522/1/6 1524/1/6
f 1519/9/6 1523/9/6 1525/9/6
f 1523/9/6 1524/9/6 1525/9/6
f 1525/9/6 1524/9/6 1526/9/6
f 1527/3/6 1528/3/6 1533/3/6
f 1533/3/6 1528/3/6 1534/3/6
f 1534/3/6 1528/3/6 1535/3/6
f 1529/3/6 1530/3/6 1536/3/6
f 1536/3/6 1530/3/6 1537/3/6
f 1531/3/6 1532/3/6 1538/3/6
f 1536/3/6 1537/3/6 1540/3/6
f 1534/3/6 1535/3/6 1540/3/6
f 1537/3/6 1538/3/6 1540/3/6
f 1535/3/6 1536/3/6 1540/3/6
f 1540/3/6 1538/3/6 1541/3/6
f 1541/3/6 1538/3/6 1542/3/6
f 1542/3/6 1538/3/6 1543/3/6
f 1538/3/6 1532/3/6 1544/3/6
f 1543/3/6 1538/3/6 1544/3/6
f 1539/3/6 1540/3/6 1545/3/6
f 1540/3/6 1541/3/6 1545/3/6
f 1545/3/6 1541/3/6 1546/3/6
f 1542/3/6 1543/3/6 1547/3/6
f 1547/3/6 1543/3/6 1548/3/6
f 1544/3/6 1532/3/6 1549/3/6
f 1549/3/6 1532/3/6 1550/3/6
f 1551/11/6 1552/11/6 1554/11/6
f 1554/11/6 1552/11/6 1555/11/6
f 1553/11/6 1554/11/6 1557/11/6
f 1554/6/6 1555/6/6 1558/6/6
f 1557/11/6 1554/11/6 1558/11/6
f 1555/11/6 1556/11/6 1559/11/6
f 1558/6/6 1555/6/6 1559/6/6
f 1559/11/6 1556/11/6 1560/11/6
f 1558/11/6 1559/11/6 1561/11/6
f 1561/11/6 1559/11/6 1562/11/6
f 1563/11/6 1564/11/6 1566/11/6
f 1566/11/6 1564/11/6 1567/11/6
f 1565/11/6 1566/11/6 1569/11/6
f 1566/6/6 1567/6/6 1570/6/6
f 1569/11/6 1566/11/6 1570/11/6
f 1567/11/6 1568/11/6 1571/11/6
f 1570/6/6 1567/6/6 1571/6/6
f 1571/11/6 1568/11/6 1572/11/6
f 1570/11/6 1571/11/6 1573/11/6
f 1573/11/6 1571/11/6 1574/11/6
f 1575/11/6 1576/11/6 1578/11/6
f 1578/11/6 1576/11/6 1579/11/6
f 1577/11/6 1578/11/6 1581/11/6
f 1578/6/6 1579/6/6 1582/6/6
f 1581/11/6 1578/11/6 1582/11/6
f 1579/11/6 1580/11/6 1583/11/6
f 1582/6/6 1579/6/6 1583/6/6
f 1583/11/6 1580/11/6 1584/11/6
f 1582/11/6 1583/11/6 1585/11/6
f 1585/11/6 1583/11/6 1586/11/6
f 1587/3/6 1588/3/6 1591/3/6
f 1591/3/6 1588/3/6 1592/3/6
f 1589/3/6 1590/3/6 1593/3/6
f 1593/3/6 1590/3/6 1594/3/6
f 1595/3/6 1596/3/6 1599/3/6
f 1599/3/6 1596/3/6 1600/3/6
f 1597/3/6 1598/3/6 1601/3/6
f 1601/3/6 1598/3/6 1602/3/6
f 1603/3/6 1604/3/6 1607/3/6
f 1607/3/6 1604/3/6 1608/3/6
f 1605/3/6 1606/3/6 1609/3/6
f 1609/3/6 1606/3/6 1610/3/6
f 1611/3/6 1612/3/6 1615/3/6
f 1615/3/6 1612/3/6 1616/3/6
f 1613/3/6 1614/3/6 1617/3/6
f 1617/3/6 1614/3/6 1618/3/6
f 1619/3/6 1620/3/6 1621/3/6
f 1621/3/6 1620/3/6 1622/3/6
f 1623/3/6 1624/3/6 1625/3/6
f 1625/3/6 1624/3/6 1626/3/6
f 1627/9/6 1628/9/6 1629/9/6
f 1629/9/6 1628/9/6 1630/9/6
f 1631/9/6 1632/9/6 1635/9/6
f 1635/9/6 1632/9/6 1636/9/6
f 1633/9/6 1634/9/6 1637/9/6
f 1637/9/6 1634/9/6 1638/9/6
f 1641/9/6 1642/9/6 1643/9/6
f 1643/9/6 1642/9/6 1644/9/6
f 1639/3/6 1640/3/6 1645/3/6
f 1645/3/6 1640/3/6 1646/3/6
f 1647/9/6 1648/9/6 1651/9/6
f 1651/9/6 1648/9/6 1652/9/6
f 1649/9/6 1650/9/6 1653/9/6
f 1653/9/6 1650/9/6 1654/9/6
f 1655/9/6 1656/9/6 1659/9/6
f 1659/9/6 1656/9/6 1660/9/6
f 1657/2/6 1658/2/6 1661/2/6
f 1661/2/6 1658/2/6 1662/2/6
f 1663/9/6 1664/9/6 1665/9/6
f 1665/9/6 1664/9/6 1666/9/6
f 1657/2/6 1661/2/6 1667/2/6
f 1662/2/6 1658/2/6 1668/2/6
f 1657/2/6 1667/2/6 1669/2/6
f 1667/2/6 1668/2/6 1669/2/6
f 1668/2/6 1658/2/6 1670/2/6
f 1669/2/6 1668/2/6 1670/2/6
f 1671/9/6 1672/9/6 1675/9/6
f 1675/9/6 1672/9/6 1676/9/6
f 1673/9/6 1674/9/6 1677/9/6
f 1677/9/6 1674/9/6 1678/9/6
f 1679/9/6 1680/9/6 1683/9/6
f 1683/9/6 1680/9/6 1684/9/6
f 1681/9/6 1682/9/6 1685/9/6
f 1685/9/6 1682/9/6 1686/9/6
f 1687/9/6 1688/9/6 1689/9/6
f 1689/9/6 1688/9/6 1690/9/6
f 1691/9/6 1692/9/6 1695/9/6
f 1695/9/6 1692/9/6 1696/9/6
f 1693/9/6 1694/9/6 1697/9/6
f 1697/9/6 1694/9/6 1698/9/6
f 1699/9/6 1700/9/6 1701/9/6
f 1701/9/6 1700/9/6 1702/9/6
f 1703/9/6 1704/9/6 1706/9/6
f 1706/9/6 1704/9/6 1707/9/6
f 1705/9/6 1706/9/6 1709/9/6
f 1707/9/6 1708/9/6 1709/9/6
f 1706/9/6 1707/9/6 1709/9/6
f 1709/9/6 1708/9/6 1710/9/6
f 1710/9/6 1708/9/6 1711/9/6
f 1711/9/6 1708/9/6 1712/9/6
f 1710/9/6 1711/9/6 1713/9/6
f 1713/9/6 1711/9/6 1714/9/6
