# MagicaVoxel @ Ephtracy

# group
o 

# material
mtllib Mech.mtl
usemtl palette

# normals
vn -1 0 0
vn 1 0 0
vn 0 0 1
vn 0 0 -1
vn 0 -1 0
vn 0 1 0

# texcoords
vt 0.00195312 0.5
vt 0.248047 0.5
vt 0.271484 0.5
vt 0.291016 0.5
vt 0.322266 0.5
vt 0.365234 0.5
vt 0.373047 0.5
vt 0.376953 0.5
vt 0.396484 0.5
vt 0.412109 0.5
vt 0.416016 0.5
vt 0.423828 0.5
vt 0.439453 0.5
vt 0.458984 0.5
vt 0.462891 0.5
vt 0.474609 0.5
vt 0.478516 0.5
vt 0.482422 0.5

# verts
v -1.2 2.1 0.3
v -1.2 2.1 0.2
v -1.2 2.1 -0.3
v -1.2 2.1 -0.4
v -1.2 2.2 0.3
v -1.2 2.2 0.2
v -1.2 2.2 -0.3
v -1.2 2.2 -0.4
v -0.9 2.1 0.3
v -0.9 2.1 0.2
v -0.9 2.1 -0.3
v -0.9 2.1 -0.4
v -0.9 2.2 0.3
v -0.9 2.2 0.2
v -0.9 2.2 -0.3
v -0.9 2.2 -0.4
v -0.7 2.4 0.7
v -0.7 2.4 0.3
v -0.7 2.4 -0.4
v -0.7 2.4 -0.8
v -0.7 2.5 0.7
v -0.7 2.5 0.3
v -0.7 2.5 -0.4
v -0.7 2.5 -0.8
v -0.7 2.6 0.7
v -0.7 2.6 -0.8
v -0.6 1.7 0.7
v -0.6 1.7 0.6
v -0.6 1.7 -0.7
v -0.6 1.7 -0.8
v -0.6 1.8 0.7
v -0.6 1.8 0.6
v -0.6 1.8 0.2
v -0.6 1.8 0.1
v -0.6 1.8 -5.96046e-08
v -0.6 1.8 -0.1
v -0.6 1.8 -0.2
v -0.6 1.8 -0.3
v -0.6 1.8 -0.7
v -0.6 1.8 -0.8
v -0.6 1.9 -0.3
v -0.6 1.9 -0.5
v -0.6 2 0.4
v -0.6 2 0.2
v -0.6 2 0.1
v -0.6 2 -5.96046e-08
v -0.6 2 -0.1
v -0.6 2 -0.2
v -0.6 2 -0.3
v -0.6 2 -0.5
v -0.6 2.1 0.3
v -0.6 2.1 0.2
v -0.6 2.1 -0.3
v -0.6 2.1 -0.4
v -0.6 2.2 0.3
v -0.6 2.2 0.2
v -0.6 2.2 -0.3
v -0.6 2.2 -0.4
v -0.6 2.3 0.4
v -0.6 2.3 0.1
v -0.6 2.3 -0.2
v -0.6 2.3 -0.5
v -0.6 2.6 0.6
v -0.6 2.6 -0.7
v -0.6 2.7 0.6
v -0.6 2.7 -0.7
v -0.5 0 0.7
v -0.5 0 0.5
v -0.5 0 -0.6
v -0.5 0 -0.8
v -0.5 0.1 0.7
v -0.5 0.1 0.5
v -0.5 0.1 -0.6
v -0.5 0.1 -0.8
v -0.5 1.6 0.8
v -0.5 1.6 0.5
v -0.5 1.6 -0.6
v -0.5 1.6 -0.9
v -0.5 1.7 0.7
v -0.5 1.7 0.6
v -0.5 1.7 0.4
v -0.5 1.7 0.3
v -0.5 1.7 0.2
v -0.5 1.7 -0.2
v -0.5 1.7 -0.4
v -0.5 1.7 -0.5
v -0.5 1.7 -0.7
v -0.5 1.7 -0.8
v -0.5 1.8 0.7
v -0.5 1.8 0.6
v -0.5 1.8 0.3
v -0.5 1.8 0.2
v -0.5 1.8 0.1
v -0.5 1.8 -5.96046e-08
v -0.5 1.8 -0.1
v -0.5 1.8 -0.2
v -0.5 1.8 -0.3
v -0.5 1.8 -0.4
v -0.5 1.8 -0.7
v -0.5 1.8 -0.8
v -0.5 1.9 0.8
v -0.5 1.9 0.5
v -0.5 1.9 0.4
v -0.5 1.9 0.2
v -0.5 1.9 0.1
v -0.5 1.9 -5.96046e-08
v -0.5 1.9 -0.1
v -0.5 1.9 -0.2
v -0.5 1.9 -0.3
v -0.5 1.9 -0.5
v -0.5 1.9 -0.6
v -0.5 1.9 -0.9
v -0.5 2 0.4
v -0.5 2 0.2
v -0.5 2 0.1
v -0.5 2 -5.96046e-08
v -0.5 2 -0.1
v -0.5 2 -0.2
v -0.5 2.1 0.1
v -0.5 2.1 -0.2
v -0.5 2.7 0.5
v -0.5 2.7 -0.6
v -0.5 2.8 0.7
v -0.5 2.8 0.6
v -0.5 2.8 0.5
v -0.5 2.8 0.4
v -0.5 2.8 -0.5
v -0.5 2.8 -0.6
v -0.5 2.8 -0.7
v -0.5 2.8 -0.8
v -0.5 2.9 0.6
v -0.5 2.9 0.5
v -0.5 2.9 -0.6
v -0.5 2.9 -0.7
v -0.5 3 0.4
v -0.5 3 -0.5
v -0.5 3.1 0.5
v -0.5 3.1 -0.6
v -0.5 3.2 0.7
v -0.5 3.2 0.6
v -0.5 3.2 -0.7
v -0.5 3.2 -0.8
v -0.4 0 0.8
v -0.4 0 0.7
v -0.4 0 0.5
v -0.4 0 0.4
v -0.4 0 -0.5
v -0.4 0 -0.6
v -0.4 0 -0.8
v -0.4 0 -0.9
v -0.4 0.1 0.8
v -0.4 0.1 0.7
v -0.4 0.1 0.5
v -0.4 0.1 0.4
v -0.4 0.1 -0.5
v -0.4 0.1 -0.6
v -0.4 0.1 -0.8
v -0.4 0.1 -0.9
v -0.4 1.4 0.8
v -0.4 1.4 0.4
v -0.4 1.4 -0.5
v -0.4 1.4 -0.9
v -0.4 1.5 0.8
v -0.4 1.5 0.7
v -0.4 1.5 0.6
v -0.4 1.5 0.5
v -0.4 1.5 -0.6
v -0.4 1.5 -0.7
v -0.4 1.5 -0.8
v -0.4 1.5 -0.9
v -0.4 1.6 0.7
v -0.4 1.6 0.6
v -0.4 1.6 0.5
v -0.4 1.6 0.4
v -0.4 1.6 0.3
v -0.4 1.6 -5.96046e-08
v -0.4 1.6 -0.1
v -0.4 1.6 -0.4
v -0.4 1.6 -0.5
v -0.4 1.6 -0.6
v -0.4 1.6 -0.7
v -0.4 1.6 -0.8
v -0.4 1.7 0.5
v -0.4 1.7 0.4
v -0.4 1.7 0.3
v -0.4 1.7 -5.96046e-08
v -0.4 1.7 -0.1
v -0.4 1.7 -0.4
v -0.4 1.7 -0.5
v -0.4 1.7 -0.6
v -0.4 2.1 0.1
v -0.4 2.1 -0.2
v -0.4 2.2 0.1
v -0.4 2.2 -0.2
v -0.4 2.3 0.1
v -0.4 2.3 -5.96046e-08
v -0.4 2.3 -0.1
v -0.4 2.3 -0.2
v -0.4 2.4 -5.96046e-08
v -0.4 2.4 -0.1
v -0.3 0.1 0.7
v -0.3 0.1 0.5
v -0.3 0.1 -0.6
v -0.3 0.1 -0.8
v -0.3 0.4 -0.6
v -0.3 0.4 -0.8
v -0.3 0.5 0.7
v -0.3 0.5 0.5
v -0.3 0.6 -0.6
v -0.3 0.6 -0.8
v -0.3 0.7 0.7
v -0.3 0.7 0.5
v -0.3 1.2 0.7
v -0.3 1.2 0.5
v -0.3 1.2 -0.6
v -0.3 1.2 -0.8
v -0.3 1.4 0.7
v -0.3 1.4 0.5
v -0.3 1.4 -0.6
v -0.3 1.4 -0.8
v -0.3 1.6 0.1
v -0.3 1.6 -5.96046e-08
v -0.3 1.6 -0.1
v -0.3 1.6 -0.2
v -0.3 1.7 0.1
v -0.3 1.7 -5.96046e-08
v -0.3 1.7 -0.1
v -0.3 1.7 -0.2
v -0.3 2.3 0.1
v -0.3 2.3 -5.96046e-08
v -0.3 2.3 -0.1
v -0.3 2.3 -0.2
v -0.3 2.4 -5.96046e-08
v -0.3 2.4 -0.1
v -0.3 2.5 0.1
v -0.3 2.5 -0.2
v -0.2 2.6 -0.4
v -0.2 2.6 -0.5
v -0.2 2.7 -0.4
v -0.2 2.7 -0.5
v -0.0999999 2.6 0.5
v -0.0999999 2.6 0.4
v -0.0999999 2.7 0.5
v -0.0999999 2.7 0.4
v -0.0999999 3.4 0.1
v -0.0999999 3.4 -0.1
v -0.0999999 3.5 0.2
v -0.0999999 3.5 0.1
v -0.0999999 3.5 -0.1
v -0.0999999 3.5 -0.2
v -0.0999999 3.6 0.3
v -0.0999999 3.6 0.2
v -0.0999999 3.6 0.1
v -0.0999999 3.6 -0.1
v -0.0999999 3.6 -0.2
v -0.0999999 3.6 -0.3
v -0.0999999 3.7 0.5
v -0.0999999 3.7 0.3
v -0.0999999 3.7 0.2
v -0.0999999 3.7 0.1
v -0.0999999 3.7 -0.1
v -0.0999999 3.7 -0.2
v -0.0999999 3.7 -0.3
v -0.0999999 3.7 -0.4
v -0.0999999 3.8 0.6
v -0.0999999 3.8 0.5
v -0.0999999 3.8 0.4
v -0.0999999 3.8 0.2
v -0.0999999 3.8 -0.2
v -0.0999999 3.8 -0.3
v -0.0999999 3.8 -0.4
v -0.0999999 3.8 -0.5
v -0.0999999 3.9 0.6
v -0.0999999 3.9 0.4
v -0.0999999 3.9 -0.3
v -0.0999999 3.9 -0.5
v 1.19209e-07 1.8 0.4
v 1.19209e-07 1.8 0.3
v 1.19209e-07 1.8 -0.4
v 1.19209e-07 1.8 -0.5
v 1.19209e-07 1.9 0.4
v 1.19209e-07 1.9 0.3
v 1.19209e-07 1.9 -0.4
v 1.19209e-07 1.9 -0.5
v 1.19209e-07 2.6 0.4
v 1.19209e-07 2.6 -0.4
v 1.19209e-07 2.7 -0.4
v 1.19209e-07 2.7 -0.5
v 1.19209e-07 2.8 0.7
v 1.19209e-07 2.8 0.6
v 1.19209e-07 2.8 0.5
v 1.19209e-07 2.8 -0.6
v 1.19209e-07 2.8 -0.7
v 1.19209e-07 2.8 -0.8
v 1.19209e-07 2.9 0.6
v 1.19209e-07 2.9 0.5
v 1.19209e-07 2.9 -0.6
v 1.19209e-07 2.9 -0.7
v 1.19209e-07 3 0.4
v 1.19209e-07 3 -0.5
v 1.19209e-07 3.1 0.3
v 1.19209e-07 3.1 0.2
v 1.19209e-07 3.1 -0.2
v 1.19209e-07 3.1 -0.3
v 1.19209e-07 3.2 0.7
v 1.19209e-07 3.2 0.6
v 1.19209e-07 3.2 0.2
v 1.19209e-07 3.2 0.1
v 1.19209e-07 3.2 -0.1
v 1.19209e-07 3.2 -0.2
v 1.19209e-07 3.2 -0.7
v 1.19209e-07 3.2 -0.8
v 1.19209e-07 3.3 0.3
v 1.19209e-07 3.3 0.2
v 1.19209e-07 3.3 0.1
v 1.19209e-07 3.3 -0.1
v 1.19209e-07 3.3 -0.2
v 1.19209e-07 3.3 -0.3
v 1.19209e-07 3.4 0.2
v 1.19209e-07 3.4 0.1
v 1.19209e-07 3.4 -0.1
v 1.19209e-07 3.4 -0.2
v 0.1 3.2 0.1
v 0.1 3.2 -0.1
v 0.1 3.3 0.3
v 0.1 3.3 0.2
v 0.1 3.3 0.1
v 0.1 3.3 -0.1
v 0.1 3.3 -0.2
v 0.1 3.3 -0.3
v 0.1 3.4 0.4
v 0.1 3.4 0.3
v 0.1 3.4 0.2
v 0.1 3.4 0.1
v 0.1 3.4 -0.1
v 0.1 3.4 -0.2
v 0.1 3.4 -0.3
v 0.1 3.4 -0.4
v 0.1 3.6 0.4
v 0.1 3.6 0.3
v 0.1 3.6 0.2
v 0.1 3.6 0.1
v 0.1 3.6 -0.1
v 0.1 3.6 -0.2
v 0.1 3.6 -0.3
v 0.1 3.6 -0.4
v 0.1 3.7 0.3
v 0.1 3.7 0.2
v 0.1 3.7 0.1
v 0.1 3.7 -0.1
v 0.1 3.7 -0.2
v 0.1 3.7 -0.3
v 0.1 3.8 0.2
v 0.1 3.8 0.1
v 0.1 3.8 -0.1
v 0.1 3.8 -0.2
v 0.3 2.9 -5.96046e-08
v 0.3 2.9 -0.1
v 0.3 3.3 -5.96046e-08
v 0.3 3.3 -0.1
v 0.5 1.6 0.8
v 0.5 1.6 0.7
v 0.5 1.6 0.6
v 0.5 1.6 0.5
v 0.5 1.6 -0.6
v 0.5 1.6 -0.7
v 0.5 1.6 -0.8
v 0.5 1.6 -0.9
v 0.5 1.7 0.8
v 0.5 1.7 0.7
v 0.5 1.7 0.6
v 0.5 1.7 0.5
v 0.5 1.7 -0.6
v 0.5 1.7 -0.7
v 0.5 1.7 -0.8
v 0.5 1.7 -0.9
v 0.5 1.8 0.8
v 0.5 1.8 0.7
v 0.5 1.8 0.6
v 0.5 1.8 0.5
v 0.5 1.8 -0.6
v 0.5 1.8 -0.7
v 0.5 1.8 -0.8
v 0.5 1.8 -0.9
v 0.5 1.9 0.8
v 0.5 1.9 0.7
v 0.5 1.9 0.6
v 0.5 1.9 0.5
v 0.5 1.9 -0.6
v 0.5 1.9 -0.7
v 0.5 1.9 -0.8
v 0.5 1.9 -0.9
v -1 2.1 0.3
v -1 2.1 0.2
v -1 2.1 -0.3
v -1 2.1 -0.4
v -1 2.2 0.3
v -1 2.2 0.2
v -1 2.2 -0.3
v -1 2.2 -0.4
v -0.7 2.1 0.3
v -0.7 2.1 0.2
v -0.7 2.1 -0.3
v -0.7 2.1 -0.4
v -0.7 2.2 0.3
v -0.7 2.2 0.2
v -0.7 2.2 -0.3
v -0.7 2.2 -0.4
v -0.4 1.8 0.4
v -0.4 1.8 0.3
v -0.4 1.8 -0.4
v -0.4 1.8 -0.5
v -0.4 1.9 0.4
v -0.4 1.9 0.3
v -0.4 1.9 -0.4
v -0.4 1.9 -0.5
v -0.4 2.6 0.4
v -0.4 2.6 -0.5
v -0.4 2.7 -0.4
v -0.4 2.7 -0.5
v -0.4 2.8 0.7
v -0.4 2.8 0.6
v -0.4 2.8 0.5
v -0.4 2.8 0.4
v -0.4 2.8 -0.4
v -0.4 2.8 -0.5
v -0.4 2.8 -0.6
v -0.4 2.8 -0.7
v -0.4 2.8 -0.8
v -0.4 2.9 0.6
v -0.4 2.9 0.5
v -0.4 2.9 -0.6
v -0.4 2.9 -0.7
v -0.4 3 0.4
v -0.4 3 -0.5
v -0.4 3.2 0.7
v -0.4 3.2 0.6
v -0.4 3.2 -0.7
v -0.4 3.2 -0.8
v -0.3 2.6 0.5
v -0.3 2.6 0.4
v -0.3 2.7 0.5
v -0.3 2.7 0.4
v -0.2 1.6 0.1
v -0.2 1.6 -5.96046e-08
v -0.2 1.6 -0.1
v -0.2 1.6 -0.2
v -0.2 1.7 0.1
v -0.2 1.7 -5.96046e-08
v -0.2 1.7 -0.1
v -0.2 1.7 -0.2
v -0.2 2.7 -0.4
v -0.2 2.7 -0.5
v -0.2 2.8 -0.4
v -0.2 2.8 -0.5
v -0.0999999 0.1 0.7
v -0.0999999 0.1 0.5
v -0.0999999 0.1 -0.6
v -0.0999999 0.1 -0.8
v -0.0999999 0.3 -0.6
v -0.0999999 0.3 -0.8
v -0.0999999 0.4 0.7
v -0.0999999 0.4 0.5
v -0.0999999 0.4 -0.6
v -0.0999999 0.4 -0.8
v -0.0999999 0.5 0.7
v -0.0999999 0.5 0.5
v -0.0999999 0.5 -0.6
v -0.0999999 0.5 -0.8
v -0.0999999 0.6 0.7
v -0.0999999 0.6 0.5
v -0.0999999 1.1 0.7
v -0.0999999 1.1 0.5
v -0.0999999 1.1 -0.6
v -0.0999999 1.1 -0.8
v -0.0999999 1.3 0.7
v -0.0999999 1.3 0.5
v -0.0999999 1.3 -0.6
v -0.0999999 1.3 -0.8
v -0.0999999 1.4 0.7
v -0.0999999 1.4 0.5
v -0.0999999 1.4 -0.6
v -0.0999999 1.4 -0.8
v -0.0999999 1.6 -5.96046e-08
v -0.0999999 1.6 -0.1
v -0.0999999 1.7 -5.96046e-08
v -0.0999999 1.7 -0.1
v 1.19209e-07 0 0.8
v 1.19209e-07 0 0.4
v 1.19209e-07 0 -0.5
v 1.19209e-07 0 -0.9
v 1.19209e-07 0.1 0.8
v 1.19209e-07 0.1 0.4
v 1.19209e-07 0.1 -0.5
v 1.19209e-07 0.1 -0.9
v 1.19209e-07 1.4 0.8
v 1.19209e-07 1.4 0.4
v 1.19209e-07 1.4 -0.5
v 1.19209e-07 1.4 -0.9
v 1.19209e-07 1.5 0.8
v 1.19209e-07 1.5 0.7
v 1.19209e-07 1.5 0.6
v 1.19209e-07 1.5 0.5
v 1.19209e-07 1.5 -0.6
v 1.19209e-07 1.5 -0.7
v 1.19209e-07 1.5 -0.8
v 1.19209e-07 1.5 -0.9
v 1.19209e-07 1.6 0.7
v 1.19209e-07 1.6 0.6
v 1.19209e-07 1.6 0.5
v 1.19209e-07 1.6 0.4
v 1.19209e-07 1.6 0.3
v 1.19209e-07 1.6 -0.4
v 1.19209e-07 1.6 -0.5
v 1.19209e-07 1.6 -0.6
v 1.19209e-07 1.6 -0.7
v 1.19209e-07 1.6 -0.8
v 1.19209e-07 1.7 0.5
v 1.19209e-07 1.7 0.4
v 1.19209e-07 1.7 0.3
v 1.19209e-07 1.7 -0.4
v 1.19209e-07 1.7 -0.5
v 1.19209e-07 1.7 -0.6
v 1.19209e-07 2.3 0.1
v 1.19209e-07 2.3 -5.96046e-08
v 1.19209e-07 2.3 -0.1
v 1.19209e-07 2.3 -0.2
v 1.19209e-07 2.4 -5.96046e-08
v 1.19209e-07 2.4 -0.1
v 1.19209e-07 2.5 0.1
v 1.19209e-07 2.5 -0.2
v 1.19209e-07 3.5 0.2
v 1.19209e-07 3.5 0.1
v 1.19209e-07 3.5 -0.1
v 1.19209e-07 3.5 -0.2
v 1.19209e-07 3.6 0.3
v 1.19209e-07 3.6 0.2
v 1.19209e-07 3.6 0.1
v 1.19209e-07 3.6 -0.1
v 1.19209e-07 3.6 -0.2
v 1.19209e-07 3.6 -0.3
v 1.19209e-07 3.7 0.5
v 1.19209e-07 3.7 0.3
v 1.19209e-07 3.7 0.2
v 1.19209e-07 3.7 0.1
v 1.19209e-07 3.7 -0.1
v 1.19209e-07 3.7 -0.2
v 1.19209e-07 3.7 -0.3
v 1.19209e-07 3.7 -0.4
v 1.19209e-07 3.8 0.6
v 1.19209e-07 3.8 0.5
v 1.19209e-07 3.8 0.4
v 1.19209e-07 3.8 0.2
v 1.19209e-07 3.8 -0.2
v 1.19209e-07 3.8 -0.3
v 1.19209e-07 3.8 -0.4
v 1.19209e-07 3.8 -0.5
v 1.19209e-07 3.9 0.6
v 1.19209e-07 3.9 0.4
v 1.19209e-07 3.9 -0.3
v 1.19209e-07 3.9 -0.5
v 0.1 1.7 0.4
v 0.1 1.7 0.3
v 0.1 1.7 0.2
v 0.1 1.7 -0.3
v 0.1 1.7 -0.4
v 0.1 1.7 -0.5
v 0.1 1.8 0.3
v 0.1 1.8 0.2
v 0.1 1.8 0.1
v 0.1 1.8 -0.2
v 0.1 1.8 -0.3
v 0.1 1.8 -0.4
v 0.1 1.9 0.4
v 0.1 1.9 0.2
v 0.1 1.9 0.1
v 0.1 1.9 -5.96046e-08
v 0.1 1.9 -0.1
v 0.1 1.9 -0.2
v 0.1 1.9 -0.3
v 0.1 1.9 -0.5
v 0.1 2 0.1
v 0.1 2 -5.96046e-08
v 0.1 2 -0.1
v 0.1 2 -0.2
v 0.1 2.2 0.1
v 0.1 2.2 -0.2
v 0.1 2.3 0.1
v 0.1 2.3 -5.96046e-08
v 0.1 2.3 -0.1
v 0.1 2.3 -0.2
v 0.1 2.4 -5.96046e-08
v 0.1 2.4 -0.1
v 0.1 2.7 0.5
v 0.1 2.7 -5.96046e-08
v 0.1 2.7 -0.1
v 0.1 2.7 -0.6
v 0.1 2.8 0.7
v 0.1 2.8 0.6
v 0.1 2.8 0.5
v 0.1 2.8 -0.6
v 0.1 2.8 -0.7
v 0.1 2.8 -0.8
v 0.1 2.9 0.6
v 0.1 2.9 0.5
v 0.1 2.9 -5.96046e-08
v 0.1 2.9 -0.1
v 0.1 2.9 -0.6
v 0.1 2.9 -0.7
v 0.1 3.1 0.5
v 0.1 3.1 0.3
v 0.1 3.1 0.2
v 0.1 3.1 -0.2
v 0.1 3.1 -0.3
v 0.1 3.1 -0.6
v 0.1 3.2 0.7
v 0.1 3.2 0.6
v 0.1 3.2 0.2
v 0.1 3.2 -0.2
v 0.1 3.2 -0.7
v 0.1 3.2 -0.8
v 0.1 3.3 0.3
v 0.1 3.3 0.2
v 0.1 3.3 -0.2
v 0.1 3.3 -0.3
v 0.2 1.6 0.7
v 0.2 1.6 0.6
v 0.2 1.6 -0.7
v 0.2 1.6 -0.8
v 0.2 1.7 0.8
v 0.2 1.7 0.7
v 0.2 1.7 0.6
v 0.2 1.7 0.5
v 0.2 1.7 0.3
v 0.2 1.7 0.2
v 0.2 1.7 -0.3
v 0.2 1.7 -0.4
v 0.2 1.7 -0.6
v 0.2 1.7 -0.7
v 0.2 1.7 -0.8
v 0.2 1.7 -0.9
v 0.2 1.8 0.8
v 0.2 1.8 0.7
v 0.2 1.8 0.6
v 0.2 1.8 0.5
v 0.2 1.8 0.3
v 0.2 1.8 0.2
v 0.2 1.8 -0.2
v 0.2 1.8 -0.3
v 0.2 1.8 -0.4
v 0.2 1.8 -0.6
v 0.2 1.8 -0.7
v 0.2 1.8 -0.8
v 0.2 1.8 -0.9
v 0.2 1.9 0.7
v 0.2 1.9 0.6
v 0.2 1.9 0.4
v 0.2 1.9 0.2
v 0.2 1.9 0.1
v 0.2 1.9 -5.96046e-08
v 0.2 1.9 -0.1
v 0.2 1.9 -0.3
v 0.2 1.9 -0.5
v 0.2 1.9 -0.7
v 0.2 1.9 -0.8
v 0.2 2 0.4
v 0.2 2 0.2
v 0.2 2 0.1
v 0.2 2 -5.96046e-08
v 0.2 2 -0.1
v 0.2 2 -0.2
v 0.2 2 -0.3
v 0.2 2 -0.5
v 0.2 2.1 0.3
v 0.2 2.1 0.2
v 0.2 2.1 -0.3
v 0.2 2.1 -0.4
v 0.2 2.2 0.3
v 0.2 2.2 0.2
v 0.2 2.2 -0.3
v 0.2 2.2 -0.4
v 0.2 2.3 0.4
v 0.2 2.3 0.1
v 0.2 2.3 -0.2
v 0.2 2.3 -0.5
v 0.2 2.6 0.6
v 0.2 2.6 -0.7
v 0.2 2.7 0.6
v 0.2 2.7 -5.96046e-08
v 0.2 2.7 -0.1
v 0.2 2.7 -0.7
v 0.2 3.2 0.2
v 0.2 3.2 0.1
v 0.2 3.2 -0.1
v 0.2 3.2 -0.2
v 0.2 3.3 0.3
v 0.2 3.3 0.2
v 0.2 3.3 0.1
v 0.2 3.3 -5.96046e-08
v 0.2 3.3 -0.1
v 0.2 3.3 -0.2
v 0.2 3.3 -0.3
v 0.2 3.4 0.4
v 0.2 3.4 0.3
v 0.2 3.4 0.2
v 0.2 3.4 -0.2
v 0.2 3.4 -0.3
v 0.2 3.4 -0.4
v 0.2 3.5 -5.96046e-08
v 0.2 3.5 -0.1
v 0.2 3.6 0.4
v 0.2 3.6 0.3
v 0.2 3.6 0.2
v 0.2 3.6 -0.2
v 0.2 3.6 -0.3
v 0.2 3.6 -0.4
v 0.2 3.7 0.3
v 0.2 3.7 0.2
v 0.2 3.7 0.1
v 0.2 3.7 -0.1
v 0.2 3.7 -0.2
v 0.2 3.7 -0.3
v 0.2 3.8 0.2
v 0.2 3.8 0.1
v 0.2 3.8 -0.1
v 0.2 3.8 -0.2
v 0.3 2.4 0.7
v 0.3 2.4 0.3
v 0.3 2.4 -0.4
v 0.3 2.4 -0.8
v 0.3 2.5 0.7
v 0.3 2.5 0.3
v 0.3 2.5 -0.4
v 0.3 2.5 -0.8
v 0.3 2.6 0.7
v 0.3 2.6 -0.8
v 0.4 1.6 0.8
v 0.4 1.6 0.7
v 0.4 1.6 0.6
v 0.4 1.6 0.5
v 0.4 1.6 -0.6
v 0.4 1.6 -0.7
v 0.4 1.6 -0.8
v 0.4 1.6 -0.9
v 0.4 1.7 0.8
v 0.4 1.7 0.7
v 0.4 1.7 0.6
v 0.4 1.7 0.5
v 0.4 1.7 -0.6
v 0.4 1.7 -0.7
v 0.4 1.7 -0.8
v 0.4 1.7 -0.9
v 0.4 1.8 0.8
v 0.4 1.8 0.7
v 0.4 1.8 0.6
v 0.4 1.8 0.5
v 0.4 1.8 -0.6
v 0.4 1.8 -0.7
v 0.4 1.8 -0.8
v 0.4 1.8 -0.9
v 0.4 1.9 0.8
v 0.4 1.9 0.7
v 0.4 1.9 0.6
v 0.4 1.9 0.5
v 0.4 1.9 -0.6
v 0.4 1.9 -0.7
v 0.4 1.9 -0.8
v 0.4 1.9 -0.9
v 0.4 2.7 -5.96046e-08
v 0.4 2.7 -0.1
v 0.4 3.5 -5.96046e-08
v 0.4 3.5 -0.1
v 0.6 1.6 0.8
v 0.6 1.6 0.7
v 0.6 1.6 0.6
v 0.6 1.6 0.5
v 0.6 1.6 -0.6
v 0.6 1.6 -0.7
v 0.6 1.6 -0.8
v 0.6 1.6 -0.9
v 0.6 1.7 0.8
v 0.6 1.7 0.7
v 0.6 1.7 0.6
v 0.6 1.7 0.5
v 0.6 1.7 -0.6
v 0.6 1.7 -0.7
v 0.6 1.7 -0.8
v 0.6 1.7 -0.9
v 0.6 1.8 0.8
v 0.6 1.8 0.7
v 0.6 1.8 0.6
v 0.6 1.8 0.5
v 0.6 1.8 -0.6
v 0.6 1.8 -0.7
v 0.6 1.8 -0.8
v 0.6 1.8 -0.9
v 0.6 1.9 0.8
v 0.6 1.9 0.7
v 0.6 1.9 0.6
v 0.6 1.9 0.5
v 0.6 1.9 -0.6
v 0.6 1.9 -0.7
v 0.6 1.9 -0.8
v 0.6 1.9 -0.9
v -0.5 1.6 0.8
v -0.5 1.9 0.8
v -0.4 0 0.8
v -0.4 0.1 0.8
v -0.4 1.4 0.8
v -0.4 1.5 0.8
v -0.4 1.6 0.8
v -0.4 1.9 0.8
v 1.19209e-07 0 0.8
v 1.19209e-07 0.1 0.8
v 1.19209e-07 1.4 0.8
v 1.19209e-07 1.5 0.8
v 1.19209e-07 1.6 0.8
v 1.19209e-07 1.9 0.8
v 0.2 1.6 0.8
v 0.2 1.7 0.8
v 0.2 1.8 0.8
v 0.2 1.9 0.8
v 0.3 1.6 0.8
v 0.3 1.7 0.8
v 0.3 1.8 0.8
v 0.3 1.9 0.8
v 0.4 1.6 0.8
v 0.4 1.7 0.8
v 0.4 1.8 0.8
v 0.4 1.9 0.8
v 0.5 1.6 0.8
v 0.5 1.7 0.8
v 0.5 1.8 0.8
v 0.5 1.9 0.8
v 0.6 1.6 0.8
v 0.6 1.7 0.8
v 0.6 1.8 0.8
v 0.6 1.9 0.8
v -0.7 2.4 0.7
v -0.7 2.5 0.7
v -0.7 2.6 0.7
v -0.6 1.7 0.7
v -0.6 1.8 0.7
v -0.5 0 0.7
v -0.5 0.1 0.7
v -0.5 1.7 0.7
v -0.5 1.8 0.7
v -0.5 2.8 0.7
v -0.5 3.2 0.7
v -0.4 0 0.7
v -0.4 0.1 0.7
v -0.4 1.5 0.7
v -0.4 1.6 0.7
v -0.4 2.8 0.7
v -0.4 3.2 0.7
v -0.3 0.1 0.7
v -0.3 0.5 0.7
v -0.3 0.7 0.7
v -0.3 1.2 0.7
v -0.3 1.4 0.7
v -0.2 0.4 0.7
v -0.2 0.5 0.7
v -0.2 0.6 0.7
v -0.2 0.7 0.7
v -0.2 1.1 0.7
v -0.2 1.2 0.7
v -0.2 1.3 0.7
v -0.0999999 0.1 0.7
v -0.0999999 0.4 0.7
v -0.0999999 0.5 0.7
v -0.0999999 0.6 0.7
v -0.0999999 1.1 0.7
v -0.0999999 1.3 0.7
v -0.0999999 1.4 0.7
v 1.19209e-07 1.5 0.7
v 1.19209e-07 1.6 0.7
v 1.19209e-07 2.8 0.7
v 1.19209e-07 3.2 0.7
v 0.1 2.8 0.7
v 0.1 3.2 0.7
v 0.3 2.4 0.7
v 0.3 2.5 0.7
v 0.3 2.6 0.7
v -0.6 2.6 0.6
v -0.6 2.7 0.6
v -0.0999999 3.8 0.6
v -0.0999999 3.9 0.6
v 1.19209e-07 3.8 0.6
v 1.19209e-07 3.9 0.6
v 0.2 1.6 0.6
v 0.2 1.7 0.6
v 0.2 1.8 0.6
v 0.2 1.9 0.6
v 0.2 2.6 0.6
v 0.2 2.7 0.6
v 0.3 1.6 0.6
v 0.3 1.7 0.6
v 0.3 1.8 0.6
v 0.3 1.9 0.6
v 0.4 1.6 0.6
v 0.4 1.7 0.6
v 0.4 1.8 0.6
v 0.4 1.9 0.6
v 0.5 1.6 0.6
v 0.5 1.7 0.6
v 0.5 1.8 0.6
v 0.5 1.9 0.6
v 0.6 1.6 0.6
v 0.6 1.7 0.6
v 0.6 1.8 0.6
v 0.6 1.9 0.6
v -0.5 2.7 0.5
v -0.5 2.8 0.5
v -0.5 2.9 0.5
v -0.5 3.1 0.5
v -0.4 1.5 0.5
v -0.4 1.6 0.5
v -0.4 2.8 0.5
v -0.4 2.9 0.5
v -0.0999999 3.7 0.5
v -0.0999999 3.8 0.5
v 1.19209e-07 1.5 0.5
v 1.19209e-07 1.6 0.5
v 1.19209e-07 2.8 0.5
v 1.19209e-07 2.9 0.5
v 1.19209e-07 3.7 0.5
v 1.19209e-07 3.8 0.5
v 0.1 2.7 0.5
v 0.1 2.8 0.5
v 0.1 2.9 0.5
v 0.1 3.1 0.5
v -0.6 2 0.4
v -0.6 2.3 0.4
v -0.5 1.7 0.4
v -0.5 1.9 0.4
v -0.5 2 0.4
v -0.4 1.7 0.4
v -0.4 1.8 0.4
v -0.4 1.9 0.4
v 1.19209e-07 1.7 0.4
v 1.19209e-07 1.8 0.4
v 1.19209e-07 1.9 0.4
v 0.1 1.7 0.4
v 0.1 1.9 0.4
v 0.1 3.4 0.4
v 0.1 3.6 0.4
v 0.2 1.9 0.4
v 0.2 2 0.4
v 0.2 2.3 0.4
v 0.2 3.4 0.4
v 0.2 3.6 0.4
v -1.2 2.1 0.3
v -1.2 2.2 0.3
v -1 2.1 0.3
v -1 2.2 0.3
v -0.9 2.1 0.3
v -0.9 2.2 0.3
v -0.7 2.1 0.3
v -0.7 2.2 0.3
v -0.4 1.8 0.3
v -0.4 1.9 0.3
v -0.0999999 3.6 0.3
v -0.0999999 3.7 0.3
v 1.19209e-07 1.8 0.3
v 1.19209e-07 1.9 0.3
v 1.19209e-07 3.1 0.3
v 1.19209e-07 3.3 0.3
v 1.19209e-07 3.6 0.3
v 1.19209e-07 3.7 0.3
v 0.1 1.7 0.3
v 0.1 1.8 0.3
v 0.1 3.1 0.3
v 0.1 3.3 0.3
v 0.1 3.4 0.3
v 0.1 3.6 0.3
v 0.1 3.7 0.3
v 0.2 1.7 0.3
v 0.2 1.8 0.3
v 0.2 3.3 0.3
v 0.2 3.4 0.3
v 0.2 3.6 0.3
v 0.2 3.7 0.3
v -0.6 1.8 0.2
v -0.6 2 0.2
v -0.6 2.1 0.2
v -0.6 2.2 0.2
v -0.5 1.8 0.2
v -0.5 1.9 0.2
v -0.5 2 0.2
v -0.0999999 3.5 0.2
v -0.0999999 3.6 0.2
v 1.19209e-07 3.3 0.2
v 1.19209e-07 3.4 0.2
v 1.19209e-07 3.5 0.2
v 1.19209e-07 3.6 0.2
v 0.1 3.2 0.2
v 0.1 3.3 0.2
v 0.1 3.4 0.2
v 0.1 3.7 0.2
v 0.1 3.8 0.2
v 0.2 2.1 0.2
v 0.2 2.2 0.2
v 0.2 3.2 0.2
v 0.2 3.3 0.2
v 0.2 3.7 0.2
v 0.2 3.8 0.2
v -0.3 1.6 0.1
v -0.3 1.7 0.1
v -0.3 2.3 0.1
v -0.3 2.5 0.1
v -0.2 1.6 0.1
v -0.2 1.7 0.1
v -0.0999999 3.4 0.1
v -0.0999999 3.5 0.1
v 1.19209e-07 2.3 0.1
v 1.19209e-07 2.5 0.1
v 1.19209e-07 3.4 0.1
v 1.19209e-07 3.5 0.1
v 1.19209e-07 3.6 0.1
v 0.1 3.4 0.1
v 0.1 3.6 0.1
v -0.6 1.8 -5.96046e-08
v -0.6 2 -5.96046e-08
v -0.5 1.8 -5.96046e-08
v -0.5 1.9 -5.96046e-08
v -0.5 2 -5.96046e-08
v -0.4 1.6 -5.96046e-08
v -0.4 1.7 -5.96046e-08
v -0.4 2.3 -5.96046e-08
v -0.4 2.4 -5.96046e-08
v -0.3 1.6 -5.96046e-08
v -0.3 1.7 -5.96046e-08
v -0.3 2.3 -5.96046e-08
v -0.3 2.4 -5.96046e-08
v -0.2 1.6 -5.96046e-08
v -0.2 1.7 -5.96046e-08
v -0.0999999 1.6 -5.96046e-08
v -0.0999999 1.7 -5.96046e-08
v 1.19209e-07 2.3 -5.96046e-08
v 1.19209e-07 2.4 -5.96046e-08
v 0.1 1.9 -5.96046e-08
v 0.1 2 -5.96046e-08
v 0.1 2.3 -5.96046e-08
v 0.1 2.4 -5.96046e-08
v 0.1 2.7 -5.96046e-08
v 0.1 2.9 -5.96046e-08
v 0.2 1.9 -5.96046e-08
v 0.2 2 -5.96046e-08
v 0.2 2.7 -5.96046e-08
v 0.2 3.3 -5.96046e-08
v 0.2 3.5 -5.96046e-08
v 0.3 2.7 -5.96046e-08
v 0.3 2.9 -5.96046e-08
v 0.3 3.3 -5.96046e-08
v 0.3 3.5 -5.96046e-08
v 0.4 2.7 -5.96046e-08
v 0.4 3.5 -5.96046e-08
v -0.0999999 3.6 -0.1
v -0.0999999 3.7 -0.1
v 1.19209e-07 3.2 -0.1
v 1.19209e-07 3.3 -0.1
v 1.19209e-07 3.6 -0.1
v 1.19209e-07 3.7 -0.1
v 0.1 3.2 -0.1
v 0.1 3.3 -0.1
v -0.6 1.8 -0.2
v -0.6 2 -0.2
v -0.6 2.3 -0.2
v -0.5 1.8 -0.2
v -0.5 1.9 -0.2
v -0.5 2 -0.2
v -0.5 2.1 -0.2
v -0.4 2.1 -0.2
v -0.4 2.2 -0.2
v -0.4 2.3 -0.2
v -0.0999999 3.7 -0.2
v -0.0999999 3.8 -0.2
v 1.19209e-07 3.1 -0.2
v 1.19209e-07 3.2 -0.2
v 1.19209e-07 3.7 -0.2
v 1.19209e-07 3.8 -0.2
v 0.1 1.8 -0.2
v 0.1 1.9 -0.2
v 0.1 2 -0.2
v 0.1 2.2 -0.2
v 0.1 2.3 -0.2
v 0.1 3.1 -0.2
v 0.1 3.2 -0.2
v 0.2 1.8 -0.2
v 0.2 2 -0.2
v 0.2 2.3 -0.2
v -1.2 2.1 -0.3
v -1.2 2.2 -0.3
v -1 2.1 -0.3
v -1 2.2 -0.3
v -0.9 2.1 -0.3
v -0.9 2.2 -0.3
v -0.7 2.1 -0.3
v -0.7 2.2 -0.3
v -0.0999999 3.8 -0.3
v -0.0999999 3.9 -0.3
v 1.19209e-07 3.8 -0.3
v 1.19209e-07 3.9 -0.3
v 0.1 1.7 -0.3
v 0.1 1.8 -0.3
v 0.2 1.7 -0.3
v 0.2 1.8 -0.3
v -0.7 2.4 -0.4
v -0.7 2.5 -0.4
v -0.6 2.1 -0.4
v -0.6 2.2 -0.4
v -0.4 1.6 -0.4
v -0.4 1.7 -0.4
v -0.4 2.7 -0.4
v -0.4 2.8 -0.4
v -0.3 1.7 -0.4
v -0.2 2.6 -0.4
v -0.2 2.7 -0.4
v -0.2 2.8 -0.4
v 1.19209e-07 1.6 -0.4
v 1.19209e-07 1.7 -0.4
v 1.19209e-07 2.6 -0.4
v 1.19209e-07 2.7 -0.4
v 0.2 2.1 -0.4
v 0.2 2.2 -0.4
v 0.3 2.4 -0.4
v 0.3 2.5 -0.4
v -0.4 0 -0.5
v -0.4 0.1 -0.5
v -0.4 1.4 -0.5
v -0.4 1.6 -0.5
v -0.4 2.6 -0.5
v -0.4 2.7 -0.5
v -0.4 2.8 -0.5
v -0.4 3 -0.5
v -0.2 2.6 -0.5
v -0.2 2.7 -0.5
v -0.2 2.8 -0.5
v 1.19209e-07 0 -0.5
v 1.19209e-07 0.1 -0.5
v 1.19209e-07 1.4 -0.5
v 1.19209e-07 1.6 -0.5
v 1.19209e-07 2.7 -0.5
v 1.19209e-07 3 -0.5
v -0.5 0 -0.6
v -0.5 0.1 -0.6
v -0.5 1.6 -0.6
v -0.5 1.9 -0.6
v -0.4 0 -0.6
v -0.4 0.1 -0.6
v -0.4 1.6 -0.6
v -0.4 1.7 -0.6
v -0.4 1.9 -0.6
v -0.3 0.1 -0.6
v -0.3 0.4 -0.6
v -0.3 0.6 -0.6
v -0.3 1.2 -0.6
v -0.3 1.4 -0.6
v -0.2 0.3 -0.6
v -0.2 0.4 -0.6
v -0.2 0.5 -0.6
v -0.2 0.6 -0.6
v -0.2 1.1 -0.6
v -0.2 1.2 -0.6
v -0.2 1.3 -0.6
v -0.0999999 0.1 -0.6
v -0.0999999 0.3 -0.6
v -0.0999999 0.4 -0.6
v -0.0999999 0.5 -0.6
v -0.0999999 1.1 -0.6
v -0.0999999 1.3 -0.6
v -0.0999999 1.4 -0.6
v 1.19209e-07 1.6 -0.6
v 1.19209e-07 1.7 -0.6
v 1.19209e-07 1.9 -0.6
v 0.2 1.6 -0.6
v 0.2 1.7 -0.6
v 0.2 1.8 -0.6
v 0.2 1.9 -0.6
v 0.3 1.6 -0.6
v 0.3 1.7 -0.6
v 0.3 1.8 -0.6
v 0.3 1.9 -0.6
v 0.4 1.6 -0.6
v 0.4 1.7 -0.6
v 0.4 1.8 -0.6
v 0.4 1.9 -0.6
v 0.5 1.6 -0.6
v 0.5 1.7 -0.6
v 0.5 1.8 -0.6
v 0.5 1.9 -0.6
v 0.6 1.6 -0.6
v 0.6 1.7 -0.6
v 0.6 1.8 -0.6
v 0.6 1.9 -0.6
v -0.6 1.7 -0.7
v -0.6 1.8 -0.7
v -0.5 1.7 -0.7
v -0.5 1.8 -0.7
v -0.5 2.9 -0.7
v -0.5 3.2 -0.7
v -0.4 1.5 -0.7
v -0.4 1.6 -0.7
v -0.4 2.9 -0.7
v -0.4 3.2 -0.7
v 1.19209e-07 1.5 -0.7
v 1.19209e-07 1.6 -0.7
v 1.19209e-07 2.9 -0.7
v 1.19209e-07 3.2 -0.7
v 0.1 2.9 -0.7
v 0.1 3.2 -0.7
v 0.2 1.6 -0.8
v 0.2 1.7 -0.8
v 0.2 1.8 -0.8
v 0.2 1.9 -0.8
v 0.3 1.6 -0.8
v 0.3 1.7 -0.8
v 0.3 1.8 -0.8
v 0.3 1.9 -0.8
v 0.4 1.6 -0.8
v 0.4 1.7 -0.8
v 0.4 1.8 -0.8
v 0.4 1.9 -0.8
v 0.5 1.6 -0.8
v 0.5 1.7 -0.8
v 0.5 1.8 -0.8
v 0.5 1.9 -0.8
v 0.6 1.6 -0.8
v 0.6 1.7 -0.8
v 0.6 1.8 -0.8
v 0.6 1.9 -0.8
v 0.2 1.6 0.7
v 0.2 1.7 0.7
v 0.2 1.8 0.7
v 0.2 1.9 0.7
v 0.3 1.6 0.7
v 0.3 1.7 0.7
v 0.3 1.8 0.7
v 0.3 1.9 0.7
v 0.4 1.6 0.7
v 0.4 1.7 0.7
v 0.4 1.8 0.7
v 0.4 1.9 0.7
v 0.5 1.6 0.7
v 0.5 1.7 0.7
v 0.5 1.8 0.7
v 0.5 1.9 0.7
v 0.6 1.6 0.7
v 0.6 1.7 0.7
v 0.6 1.8 0.7
v 0.6 1.9 0.7
v -0.6 1.7 0.6
v -0.6 1.8 0.6
v -0.5 1.7 0.6
v -0.5 1.8 0.6
v -0.5 2.9 0.6
v -0.5 3.2 0.6
v -0.4 1.5 0.6
v -0.4 1.6 0.6
v -0.4 2.9 0.6
v -0.4 3.2 0.6
v 1.19209e-07 1.5 0.6
v 1.19209e-07 1.6 0.6
v 1.19209e-07 2.9 0.6
v 1.19209e-07 3.2 0.6
v 0.1 2.9 0.6
v 0.1 3.2 0.6
v -0.5 0 0.5
v -0.5 0.1 0.5
v -0.5 1.6 0.5
v -0.5 1.9 0.5
v -0.4 0 0.5
v -0.4 0.1 0.5
v -0.4 1.6 0.5
v -0.4 1.7 0.5
v -0.4 1.9 0.5
v -0.3 0.1 0.5
v -0.3 0.5 0.5
v -0.3 0.7 0.5
v -0.3 1.2 0.5
v -0.3 1.4 0.5
v -0.3 2.6 0.5
v -0.3 2.7 0.5
v -0.2 0.4 0.5
v -0.2 0.5 0.5
v -0.2 0.6 0.5
v -0.2 0.7 0.5
v -0.2 1.1 0.5
v -0.2 1.2 0.5
v -0.2 1.3 0.5
v -0.0999999 0.1 0.5
v -0.0999999 0.4 0.5
v -0.0999999 0.5 0.5
v -0.0999999 0.6 0.5
v -0.0999999 1.1 0.5
v -0.0999999 1.3 0.5
v -0.0999999 1.4 0.5
v -0.0999999 2.6 0.5
v -0.0999999 2.7 0.5
v 1.19209e-07 1.6 0.5
v 1.19209e-07 1.7 0.5
v 1.19209e-07 1.9 0.5
v 0.2 1.6 0.5
v 0.2 1.7 0.5
v 0.2 1.8 0.5
v 0.2 1.9 0.5
v 0.3 1.6 0.5
v 0.3 1.7 0.5
v 0.3 1.8 0.5
v 0.3 1.9 0.5
v 0.4 1.6 0.5
v 0.4 1.7 0.5
v 0.4 1.8 0.5
v 0.4 1.9 0.5
v 0.5 1.6 0.5
v 0.5 1.7 0.5
v 0.5 1.8 0.5
v 0.5 1.9 0.5
v 0.6 1.6 0.5
v 0.6 1.7 0.5
v 0.6 1.8 0.5
v 0.6 1.9 0.5
v -0.4 0 0.4
v -0.4 0.1 0.4
v -0.4 1.4 0.4
v -0.4 1.6 0.4
v -0.4 2.6 0.4
v -0.4 2.8 0.4
v -0.4 3 0.4
v -0.3 2.6 0.4
v -0.3 2.7 0.4
v -0.0999999 2.6 0.4
v -0.0999999 2.7 0.4
v -0.0999999 3.8 0.4
v -0.0999999 3.9 0.4
v 1.19209e-07 0 0.4
v 1.19209e-07 0.1 0.4
v 1.19209e-07 1.4 0.4
v 1.19209e-07 1.6 0.4
v 1.19209e-07 2.6 0.4
v 1.19209e-07 3 0.4
v 1.19209e-07 3.8 0.4
v 1.19209e-07 3.9 0.4
v -0.7 2.4 0.3
v -0.7 2.5 0.3
v -0.6 2.1 0.3
v -0.6 2.2 0.3
v -0.4 1.6 0.3
v -0.4 1.7 0.3
v 1.19209e-07 1.6 0.3
v 1.19209e-07 1.7 0.3
v 0.2 2.1 0.3
v 0.2 2.2 0.3
v 0.3 2.4 0.3
v 0.3 2.5 0.3
v -1.2 2.1 0.2
v -1.2 2.2 0.2
v -1 2.1 0.2
v -1 2.2 0.2
v -0.9 2.1 0.2
v -0.9 2.2 0.2
v -0.7 2.1 0.2
v -0.7 2.2 0.2
v -0.0999999 3.7 0.2
v -0.0999999 3.8 0.2
v 1.19209e-07 3.1 0.2
v 1.19209e-07 3.2 0.2
v 1.19209e-07 3.7 0.2
v 1.19209e-07 3.8 0.2
v 0.1 1.7 0.2
v 0.1 1.8 0.2
v 0.1 3.1 0.2
v 0.1 3.2 0.2
v 0.2 1.7 0.2
v 0.2 1.8 0.2
v -0.6 1.8 0.1
v -0.6 2 0.1
v -0.6 2.3 0.1
v -0.5 1.8 0.1
v -0.5 1.9 0.1
v -0.5 2 0.1
v -0.5 2.1 0.1
v -0.4 2.1 0.1
v -0.4 2.2 0.1
v -0.4 2.3 0.1
v -0.0999999 3.6 0.1
v -0.0999999 3.7 0.1
v 1.19209e-07 3.2 0.1
v 1.19209e-07 3.3 0.1
v 1.19209e-07 3.6 0.1
v 1.19209e-07 3.7 0.1
v 0.1 1.9 0.1
v 0.1 2 0.1
v 0.1 2.2 0.1
v 0.1 2.3 0.1
v 0.1 3.2 0.1
v 0.1 3.3 0.1
v 0.2 1.9 0.1
v 0.2 2 0.1
v 0.2 2.3 0.1
v -0.6 1.8 -0.1
v -0.6 2 -0.1
v -0.5 1.8 -0.1
v -0.5 1.9 -0.1
v -0.5 2 -0.1
v -0.4 1.6 -0.1
v -0.4 1.7 -0.1
v -0.4 2.3 -0.1
v -0.4 2.4 -0.1
v -0.3 1.6 -0.1
v -0.3 1.7 -0.1
v -0.3 2.3 -0.1
v -0.3 2.4 -0.1
v -0.2 1.6 -0.1
v -0.2 1.7 -0.1
v -0.0999999 1.6 -0.1
v -0.0999999 1.7 -0.1
v -0.0999999 3.4 -0.1
v -0.0999999 3.5 -0.1
v 1.19209e-07 2.3 -0.1
v 1.19209e-07 2.4 -0.1
v 1.19209e-07 3.4 -0.1
v 1.19209e-07 3.5 -0.1
v 1.19209e-07 3.6 -0.1
v 0.1 1.9 -0.1
v 0.1 2 -0.1
v 0.1 2.3 -0.1
v 0.1 2.4 -0.1
v 0.1 2.7 -0.1
v 0.1 2.9 -0.1
v 0.1 3.4 -0.1
v 0.1 3.6 -0.1
v 0.2 1.9 -0.1
v 0.2 2 -0.1
v 0.2 2.7 -0.1
v 0.2 3.3 -0.1
v 0.2 3.5 -0.1
v 0.3 2.7 -0.1
v 0.3 2.9 -0.1
v 0.3 3.3 -0.1
v 0.3 3.5 -0.1
v 0.4 2.7 -0.1
v 0.4 3.5 -0.1
v -0.3 1.6 -0.2
v -0.3 1.7 -0.2
v -0.3 2.3 -0.2
v -0.3 2.5 -0.2
v -0.2 1.6 -0.2
v -0.2 1.7 -0.2
v -0.0999999 3.5 -0.2
v -0.0999999 3.6 -0.2
v 1.19209e-07 2.3 -0.2
v 1.19209e-07 2.5 -0.2
v 1.19209e-07 3.3 -0.2
v 1.19209e-07 3.4 -0.2
v 1.19209e-07 3.5 -0.2
v 1.19209e-07 3.6 -0.2
v 0.1 3.2 -0.2
v 0.1 3.3 -0.2
v 0.1 3.4 -0.2
v 0.1 3.7 -0.2
v 0.1 3.8 -0.2
v 0.2 3.2 -0.2
v 0.2 3.3 -0.2
v 0.2 3.7 -0.2
v 0.2 3.8 -0.2
v -0.6 1.8 -0.3
v -0.6 1.9 -0.3
v -0.6 2.1 -0.3
v -0.6 2.2 -0.3
v -0.5 1.8 -0.3
v -0.5 1.9 -0.3
v -0.0999999 3.6 -0.3
v -0.0999999 3.7 -0.3
v 1.19209e-07 3.1 -0.3
v 1.19209e-07 3.3 -0.3
v 1.19209e-07 3.6 -0.3
v 1.19209e-07 3.7 -0.3
v 0.1 1.8 -0.3
v 0.1 1.9 -0.3
v 0.1 3.1 -0.3
v 0.1 3.3 -0.3
v 0.1 3.4 -0.3
v 0.1 3.6 -0.3
v 0.1 3.7 -0.3
v 0.2 1.8 -0.3
v 0.2 1.9 -0.3
v 0.2 2.1 -0.3
v 0.2 2.2 -0.3
v 0.2 3.3 -0.3
v 0.2 3.4 -0.3
v 0.2 3.6 -0.3
v 0.2 3.7 -0.3
v -1.2 2.1 -0.4
v -1.2 2.2 -0.4
v -1 2.1 -0.4
v -1 2.2 -0.4
v -0.9 2.1 -0.4
v -0.9 2.2 -0.4
v -0.7 2.1 -0.4
v -0.7 2.2 -0.4
v -0.4 1.8 -0.4
v -0.4 1.9 -0.4
v -0.0999999 3.7 -0.4
v -0.0999999 3.8 -0.4
v 1.19209e-07 1.8 -0.4
v 1.19209e-07 1.9 -0.4
v 1.19209e-07 3.7 -0.4
v 1.19209e-07 3.8 -0.4
v 0.1 1.7 -0.4
v 0.1 1.8 -0.4
v 0.1 3.4 -0.4
v 0.1 3.6 -0.4
v 0.2 1.7 -0.4
v 0.2 1.8 -0.4
v 0.2 3.4 -0.4
v 0.2 3.6 -0.4
v -0.6 1.9 -0.5
v -0.6 2 -0.5
v -0.6 2.3 -0.5
v -0.5 1.7 -0.5
v -0.5 1.9 -0.5
v -0.4 1.7 -0.5
v -0.4 1.8 -0.5
v -0.4 1.9 -0.5
v -0.0999999 3.8 -0.5
v -0.0999999 3.9 -0.5
v 1.19209e-07 1.7 -0.5
v 1.19209e-07 1.8 -0.5
v 1.19209e-07 1.9 -0.5
v 1.19209e-07 3.8 -0.5
v 1.19209e-07 3.9 -0.5
v 0.1 1.7 -0.5
v 0.1 1.9 -0.5
v 0.2 1.9 -0.5
v 0.2 2 -0.5
v 0.2 2.3 -0.5
v -0.5 2.7 -0.6
v -0.5 2.8 -0.6
v -0.5 2.9 -0.6
v -0.5 3.1 -0.6
v -0.4 1.5 -0.6
v -0.4 1.6 -0.6
v -0.4 2.8 -0.6
v -0.4 2.9 -0.6
v 1.19209e-07 1.5 -0.6
v 1.19209e-07 1.6 -0.6
v 1.19209e-07 2.8 -0.6
v 1.19209e-07 2.9 -0.6
v 0.1 2.7 -0.6
v 0.1 2.8 -0.6
v 0.1 2.9 -0.6
v 0.1 3.1 -0.6
v -0.6 2.6 -0.7
v -0.6 2.7 -0.7
v 0.2 1.6 -0.7
v 0.2 1.7 -0.7
v 0.2 1.8 -0.7
v 0.2 1.9 -0.7
v 0.2 2.6 -0.7
v 0.2 2.7 -0.7
v 0.3 1.6 -0.7
v 0.3 1.7 -0.7
v 0.3 1.8 -0.7
v 0.3 1.9 -0.7
v 0.4 1.6 -0.7
v 0.4 1.7 -0.7
v 0.4 1.8 -0.7
v 0.4 1.9 -0.7
v 0.5 1.6 -0.7
v 0.5 1.7 -0.7
v 0.5 1.8 -0.7
v 0.5 1.9 -0.7
v 0.6 1.6 -0.7
v 0.6 1.7 -0.7
v 0.6 1.8 -0.7
v 0.6 1.9 -0.7
v -0.7 2.4 -0.8
v -0.7 2.5 -0.8
v -0.7 2.6 -0.8
v -0.6 1.7 -0.8
v -0.6 1.8 -0.8
v -0.5 0 -0.8
v -0.5 0.1 -0.8
v -0.5 1.7 -0.8
v -0.5 1.8 -0.8
v -0.5 2.8 -0.8
v -0.5 3.2 -0.8
v -0.4 0 -0.8
v -0.4 0.1 -0.8
v -0.4 1.5 -0.8
v -0.4 1.6 -0.8
v -0.4 2.8 -0.8
v -0.4 3.2 -0.8
v -0.3 0.1 -0.8
v -0.3 0.4 -0.8
v -0.3 0.6 -0.8
v -0.3 1.2 -0.8
v -0.3 1.4 -0.8
v -0.2 0.3 -0.8
v -0.2 0.4 -0.8
v -0.2 0.5 -0.8
v -0.2 0.6 -0.8
v -0.2 1.1 -0.8
v -0.2 1.2 -0.8
v -0.2 1.3 -0.8
v -0.0999999 0.1 -0.8
v -0.0999999 0.3 -0.8
v -0.0999999 0.4 -0.8
v -0.0999999 0.5 -0.8
v -0.0999999 1.1 -0.8
v -0.0999999 1.3 -0.8
v -0.0999999 1.4 -0.8
v 1.19209e-07 1.5 -0.8
v 1.19209e-07 1.6 -0.8
v 1.19209e-07 2.8 -0.8
v 1.19209e-07 3.2 -0.8
v 0.1 2.8 -0.8
v 0.1 3.2 -0.8
v 0.3 2.4 -0.8
v 0.3 2.5 -0.8
v 0.3 2.6 -0.8
v -0.5 1.6 -0.9
v -0.5 1.9 -0.9
v -0.4 0 -0.9
v -0.4 0.1 -0.9
v -0.4 1.4 -0.9
v -0.4 1.5 -0.9
v -0.4 1.6 -0.9
v -0.4 1.9 -0.9
v 1.19209e-07 0 -0.9
v 1.19209e-07 0.1 -0.9
v 1.19209e-07 1.4 -0.9
v 1.19209e-07 1.5 -0.9
v 1.19209e-07 1.6 -0.9
v 1.19209e-07 1.9 -0.9
v 0.2 1.6 -0.9
v 0.2 1.7 -0.9
v 0.2 1.8 -0.9
v 0.2 1.9 -0.9
v 0.3 1.6 -0.9
v 0.3 1.7 -0.9
v 0.3 1.8 -0.9
v 0.3 1.9 -0.9
v 0.4 1.6 -0.9
v 0.4 1.7 -0.9
v 0.4 1.8 -0.9
v 0.4 1.9 -0.9
v 0.5 1.6 -0.9
v 0.5 1.7 -0.9
v 0.5 1.8 -0.9
v 0.5 1.9 -0.9
v 0.6 1.6 -0.9
v 0.6 1.7 -0.9
v 0.6 1.8 -0.9
v 0.6 1.9 -0.9
v -0.4 0 0.8
v 1.19209e-07 0 0.8
v -0.5 0 0.7
v -0.4 0 0.7
v -0.5 0 0.5
v -0.4 0 0.5
v -0.4 0 0.4
v 1.19209e-07 0 0.4
v -0.4 0 -0.5
v 1.19209e-07 0 -0.5
v -0.5 0 -0.6
v -0.4 0 -0.6
v -0.5 0 -0.8
v -0.4 0 -0.8
v -0.4 0 -0.9
v 1.19209e-07 0 -0.9
v -0.4 1.4 0.8
v 1.19209e-07 1.4 0.8
v -0.3 1.4 0.7
v -0.0999999 1.4 0.7
v -0.3 1.4 0.5
v -0.0999999 1.4 0.5
v -0.4 1.4 0.4
v 1.19209e-07 1.4 0.4
v -0.4 1.4 -0.5
v 1.19209e-07 1.4 -0.5
v -0.3 1.4 -0.6
v -0.0999999 1.4 -0.6
v -0.3 1.4 -0.8
v -0.0999999 1.4 -0.8
v -0.4 1.4 -0.9
v 1.19209e-07 1.4 -0.9
v -0.5 1.6 0.8
v -0.4 1.6 0.8
v 1.19209e-07 1.6 0.8
v 0.2 1.6 0.8
v 0.3 1.6 0.8
v 0.4 1.6 0.8
v 0.5 1.6 0.8
v 0.6 1.6 0.8
v -0.4 1.6 0.7
v 1.19209e-07 1.6 0.7
v 0.2 1.6 0.7
v 0.3 1.6 0.7
v 0.4 1.6 0.7
v 0.5 1.6 0.7
v 0.6 1.6 0.7
v -0.4 1.6 0.6
v 1.19209e-07 1.6 0.6
v 0.2 1.6 0.6
v 0.3 1.6 0.6
v 0.4 1.6 0.6
v 0.5 1.6 0.6
v 0.6 1.6 0.6
v -0.5 1.6 0.5
v -0.4 1.6 0.5
v 1.19209e-07 1.6 0.5
v 0.2 1.6 0.5
v 0.3 1.6 0.5
v 0.4 1.6 0.5
v 0.5 1.6 0.5
v 0.6 1.6 0.5
v -0.4 1.6 0.4
v 1.19209e-07 1.6 0.4
v -0.4 1.6 0.3
v 1.19209e-07 1.6 0.3
v -0.3 1.6 0.1
v -0.2 1.6 0.1
v -0.4 1.6 -5.96046e-08
v -0.3 1.6 -5.96046e-08
v -0.2 1.6 -5.96046e-08
v -0.0999999 1.6 -5.96046e-08
v -0.4 1.6 -0.1
v -0.3 1.6 -0.1
v -0.2 1.6 -0.1
v -0.0999999 1.6 -0.1
v -0.3 1.6 -0.2
v -0.2 1.6 -0.2
v -0.4 1.6 -0.4
v 1.19209e-07 1.6 -0.4
v -0.4 1.6 -0.5
v 1.19209e-07 1.6 -0.5
v -0.5 1.6 -0.6
v -0.4 1.6 -0.6
v 1.19209e-07 1.6 -0.6
v 0.2 1.6 -0.6
v 0.3 1.6 -0.6
v 0.4 1.6 -0.6
v 0.5 1.6 -0.6
v 0.6 1.6 -0.6
v -0.4 1.6 -0.7
v 1.19209e-07 1.6 -0.7
v 0.2 1.6 -0.7
v 0.3 1.6 -0.7
v 0.4 1.6 -0.7
v 0.5 1.6 -0.7
v 0.6 1.6 -0.7
v -0.4 1.6 -0.8
v 1.19209e-07 1.6 -0.8
v 0.2 1.6 -0.8
v 0.3 1.6 -0.8
v 0.4 1.6 -0.8
v 0.5 1.6 -0.8
v 0.6 1.6 -0.8
v -0.5 1.6 -0.9
v -0.4 1.6 -0.9
v 1.19209e-07 1.6 -0.9
v 0.2 1.6 -0.9
v 0.3 1.6 -0.9
v 0.4 1.6 -0.9
v 0.5 1.6 -0.9
v 0.6 1.6 -0.9
v -0.6 1.7 0.7
v -0.5 1.7 0.7
v -0.6 1.7 0.6
v -0.5 1.7 0.6
v -0.5 1.7 0.4
v -0.4 1.7 0.4
v 1.19209e-07 1.7 0.4
v 0.1 1.7 0.4
v -0.5 1.7 0.3
v -0.4 1.7 0.3
v 1.19209e-07 1.7 0.3
v 0.1 1.7 0.3
v 0.2 1.7 0.3
v -0.5 1.7 0.2
v -0.4 1.7 0.2
v 1.19209e-07 1.7 0.2
v 0.1 1.7 0.2
v 0.2 1.7 0.2
v -0.3 1.7 0.1
v -0.2 1.7 0.1
v -0.4 1.7 -5.96046e-08
v -0.3 1.7 -5.96046e-08
v -0.2 1.7 -5.96046e-08
v -0.0999999 1.7 -5.96046e-08
v -0.4 1.7 -0.1
v -0.3 1.7 -0.1
v -0.2 1.7 -0.1
v -0.0999999 1.7 -0.1
v -0.5 1.7 -0.2
v -0.3 1.7 -0.2
v -0.2 1.7 -0.2
v -0.3 1.7 -0.3
v -0.2 1.7 -0.3
v 1.19209e-07 1.7 -0.3
v 0.1 1.7 -0.3
v 0.2 1.7 -0.3
v -0.5 1.7 -0.4
v -0.4 1.7 -0.4
v -0.3 1.7 -0.4
v 1.19209e-07 1.7 -0.4
v 0.1 1.7 -0.4
v 0.2 1.7 -0.4
v -0.5 1.7 -0.5
v -0.4 1.7 -0.5
v 1.19209e-07 1.7 -0.5
v 0.1 1.7 -0.5
v -0.6 1.7 -0.7
v -0.5 1.7 -0.7
v -0.6 1.7 -0.8
v -0.5 1.7 -0.8
v 0.2 1.8 0.8
v 0.3 1.8 0.8
v 0.4 1.8 0.8
v 0.5 1.8 0.8
v 0.6 1.8 0.8
v 0.2 1.8 0.7
v 0.3 1.8 0.7
v 0.4 1.8 0.7
v 0.5 1.8 0.7
v 0.6 1.8 0.7
v 0.2 1.8 0.6
v 0.3 1.8 0.6
v 0.4 1.8 0.6
v 0.5 1.8 0.6
v 0.6 1.8 0.6
v 0.2 1.8 0.5
v 0.3 1.8 0.5
v 0.4 1.8 0.5
v 0.5 1.8 0.5
v 0.6 1.8 0.5
v -0.6 1.8 0.2
v -0.5 1.8 0.2
v -0.6 1.8 0.1
v -0.5 1.8 0.1
v -0.6 1.8 -5.96046e-08
v -0.5 1.8 -5.96046e-08
v -0.6 1.8 -0.1
v -0.5 1.8 -0.1
v -0.6 1.8 -0.2
v -0.5 1.8 -0.2
v 0.1 1.8 -0.2
v 0.2 1.8 -0.2
v -0.6 1.8 -0.3
v -0.5 1.8 -0.3
v 0.1 1.8 -0.3
v 0.2 1.8 -0.3
v 0.2 1.8 -0.6
v 0.3 1.8 -0.6
v 0.4 1.8 -0.6
v 0.5 1.8 -0.6
v 0.6 1.8 -0.6
v 0.2 1.8 -0.7
v 0.3 1.8 -0.7
v 0.4 1.8 -0.7
v 0.5 1.8 -0.7
v 0.6 1.8 -0.7
v 0.2 1.8 -0.8
v 0.3 1.8 -0.8
v 0.4 1.8 -0.8
v 0.5 1.8 -0.8
v 0.6 1.8 -0.8
v 0.2 1.8 -0.9
v 0.3 1.8 -0.9
v 0.4 1.8 -0.9
v 0.5 1.8 -0.9
v 0.6 1.8 -0.9
v -0.4 1.9 0.4
v 1.19209e-07 1.9 0.4
v 0.1 1.9 0.4
v 0.2 1.9 0.4
v -0.4 1.9 0.3
v 1.19209e-07 1.9 0.3
v 0.1 1.9 0.2
v 0.2 1.9 0.2
v 0.1 1.9 0.1
v 0.2 1.9 0.1
v 0.1 1.9 -5.96046e-08
v 0.2 1.9 -5.96046e-08
v 0.1 1.9 -0.1
v 0.2 1.9 -0.1
v -0.6 1.9 -0.3
v -0.5 1.9 -0.3
v 0.1 1.9 -0.3
v 0.2 1.9 -0.3
v -0.4 1.9 -0.4
v 1.19209e-07 1.9 -0.4
v -0.6 1.9 -0.5
v -0.5 1.9 -0.5
v -0.4 1.9 -0.5
v 1.19209e-07 1.9 -0.5
v 0.1 1.9 -0.5
v 0.2 1.9 -0.5
v -0.6 2 0.4
v -0.5 2 0.4
v -0.6 2 0.2
v -0.5 2 0.2
v -1.2 2.1 0.3
v -1 2.1 0.3
v -0.9 2.1 0.3
v -0.7 2.1 0.3
v -1.2 2.1 0.2
v -1 2.1 0.2
v -0.9 2.1 0.2
v -0.7 2.1 0.2
v -1.2 2.1 -0.3
v -1 2.1 -0.3
v -0.9 2.1 -0.3
v -0.7 2.1 -0.3
v -1.2 2.1 -0.4
v -1 2.1 -0.4
v -0.9 2.1 -0.4
v -0.7 2.1 -0.4
v -0.6 2.2 0.3
v 0.2 2.2 0.3
v -0.6 2.2 0.2
v 0.2 2.2 0.2
v -0.6 2.2 -0.3
v 0.2 2.2 -0.3
v -0.6 2.2 -0.4
v 0.2 2.2 -0.4
v -0.7 2.4 0.7
v 0.3 2.4 0.7
v -0.7 2.4 0.3
v 0.3 2.4 0.3
v -0.7 2.4 -0.4
v 0.3 2.4 -0.4
v -0.7 2.4 -0.8
v 0.3 2.4 -0.8
v -0.7 2.5 0.3
v 0.3 2.5 0.3
v -0.3 2.5 0.1
v 1.19209e-07 2.5 0.1
v -0.3 2.5 -0.2
v 1.19209e-07 2.5 -0.2
v -0.7 2.5 -0.4
v 0.3 2.5 -0.4
v -0.3 2.7 0.5
v -0.0999999 2.7 0.5
v -0.3 2.7 0.4
v -0.0999999 2.7 0.4
v 0.2 2.7 -5.96046e-08
v 0.3 2.7 -5.96046e-08
v 0.4 2.7 -5.96046e-08
v 0.2 2.7 -0.1
v 0.3 2.7 -0.1
v 0.4 2.7 -0.1
v -0.4 2.7 -0.4
v -0.2 2.7 -0.4
v -0.4 2.7 -0.5
v -0.2 2.7 -0.5
v -0.5 2.8 0.7
v -0.4 2.8 0.7
v 1.19209e-07 2.8 0.7
v 0.1 2.8 0.7
v -0.5 2.8 0.6
v -0.4 2.8 0.6
v 1.19209e-07 2.8 0.6
v 0.1 2.8 0.6
v -0.5 2.8 0.5
v -0.4 2.8 0.5
v 1.19209e-07 2.8 0.5
v 0.1 2.8 0.5
v -0.5 2.8 -0.6
v -0.4 2.8 -0.6
v 1.19209e-07 2.8 -0.6
v 0.1 2.8 -0.6
v -0.5 2.8 -0.7
v -0.4 2.8 -0.7
v 1.19209e-07 2.8 -0.7
v 0.1 2.8 -0.7
v -0.5 2.8 -0.8
v -0.4 2.8 -0.8
v 1.19209e-07 2.8 -0.8
v 0.1 2.8 -0.8
v -0.4 3 0.4
v 1.19209e-07 3 0.4
v -0.4 3 -0.5
v 1.19209e-07 3 -0.5
v 1.19209e-07 3.2 0.2
v 0.1 3.2 0.2
v 0.2 3.2 0.2
v 1.19209e-07 3.2 0.1
v 0.1 3.2 0.1
v 0.2 3.2 0.1
v 1.19209e-07 3.2 -0.1
v 0.1 3.2 -0.1
v 0.2 3.2 -0.1
v 1.19209e-07 3.2 -0.2
v 0.1 3.2 -0.2
v 0.2 3.2 -0.2
v 0.1 3.3 0.3
v 0.2 3.3 0.3
v 0.1 3.3 0.2
v 0.2 3.3 0.2
v 1.19209e-07 3.3 0.1
v 0.1 3.3 0.1
v 0.2 3.3 -5.96046e-08
v 0.3 3.3 -5.96046e-08
v 1.19209e-07 3.3 -0.1
v 0.1 3.3 -0.1
v 0.2 3.3 -0.1
v 0.3 3.3 -0.1
v 0.1 3.3 -0.2
v 0.2 3.3 -0.2
v 0.1 3.3 -0.3
v 0.2 3.3 -0.3
v 0.1 3.4 0.4
v 0.2 3.4 0.4
v 0.1 3.4 0.3
v 0.2 3.4 0.3
v -0.0999999 3.4 0.1
v 1.19209e-07 3.4 0.1
v -0.0999999 3.4 -0.1
v 1.19209e-07 3.4 -0.1
v 0.1 3.4 -0.3
v 0.2 3.4 -0.3
v 0.1 3.4 -0.4
v 0.2 3.4 -0.4
v -0.0999999 3.5 0.2
v 1.19209e-07 3.5 0.2
v -0.0999999 3.5 0.1
v 1.19209e-07 3.5 0.1
v -0.0999999 3.5 -0.1
v 1.19209e-07 3.5 -0.1
v -0.0999999 3.5 -0.2
v 1.19209e-07 3.5 -0.2
v -0.0999999 3.6 0.3
v 1.19209e-07 3.6 0.3
v -0.0999999 3.6 0.2
v 1.19209e-07 3.6 0.2
v -0.0999999 3.6 -0.2
v 1.19209e-07 3.6 -0.2
v -0.0999999 3.6 -0.3
v 1.19209e-07 3.6 -0.3
v -0.0999999 3.7 0.5
v 1.19209e-07 3.7 0.5
v -0.0999999 3.7 0.3
v 1.19209e-07 3.7 0.3
v -0.0999999 3.7 -0.3
v 1.19209e-07 3.7 -0.3
v -0.0999999 3.7 -0.4
v 1.19209e-07 3.7 -0.4
v -0.0999999 3.8 0.6
v 1.19209e-07 3.8 0.6
v -0.0999999 3.8 0.5
v 1.19209e-07 3.8 0.5
v -0.0999999 3.8 -0.4
v 1.19209e-07 3.8 -0.4
v -0.0999999 3.8 -0.5
v 1.19209e-07 3.8 -0.5
v -0.4 0.1 0.8
v 1.19209e-07 0.1 0.8
v -0.5 0.1 0.7
v -0.4 0.1 0.7
v -0.3 0.1 0.7
v -0.0999999 0.1 0.7
v -0.5 0.1 0.5
v -0.4 0.1 0.5
v -0.3 0.1 0.5
v -0.0999999 0.1 0.5
v -0.4 0.1 0.4
v 1.19209e-07 0.1 0.4
v -0.4 0.1 -0.5
v 1.19209e-07 0.1 -0.5
v -0.5 0.1 -0.6
v -0.4 0.1 -0.6
v -0.3 0.1 -0.6
v -0.0999999 0.1 -0.6
v -0.5 0.1 -0.8
v -0.4 0.1 -0.8
v -0.3 0.1 -0.8
v -0.0999999 0.1 -0.8
v -0.4 0.1 -0.9
v 1.19209e-07 0.1 -0.9
v -0.4 1.5 0.8
v 1.19209e-07 1.5 0.8
v -0.4 1.5 0.7
v 1.19209e-07 1.5 0.7
v -0.4 1.5 0.6
v 1.19209e-07 1.5 0.6
v -0.4 1.5 0.5
v 1.19209e-07 1.5 0.5
v -0.4 1.5 -0.6
v 1.19209e-07 1.5 -0.6
v -0.4 1.5 -0.7
v 1.19209e-07 1.5 -0.7
v -0.4 1.5 -0.8
v 1.19209e-07 1.5 -0.8
v -0.4 1.5 -0.9
v 1.19209e-07 1.5 -0.9
v 0.2 1.7 0.8
v 0.3 1.7 0.8
v 0.4 1.7 0.8
v 0.5 1.7 0.8
v 0.6 1.7 0.8
v 0.2 1.7 0.7
v 0.3 1.7 0.7
v 0.4 1.7 0.7
v 0.5 1.7 0.7
v 0.6 1.7 0.7
v 0.2 1.7 0.6
v 0.3 1.7 0.6
v 0.4 1.7 0.6
v 0.5 1.7 0.6
v 0.6 1.7 0.6
v -0.4 1.7 0.5
v 1.19209e-07 1.7 0.5
v 0.2 1.7 0.5
v 0.3 1.7 0.5
v 0.4 1.7 0.5
v 0.5 1.7 0.5
v 0.6 1.7 0.5
v -0.4 1.7 0.4
v 1.19209e-07 1.7 0.4
v -0.4 1.7 -0.5
v 1.19209e-07 1.7 -0.5
v -0.4 1.7 -0.6
v 1.19209e-07 1.7 -0.6
v 0.2 1.7 -0.6
v 0.3 1.7 -0.6
v 0.4 1.7 -0.6
v 0.5 1.7 -0.6
v 0.6 1.7 -0.6
v 0.2 1.7 -0.7
v 0.3 1.7 -0.7
v 0.4 1.7 -0.7
v 0.5 1.7 -0.7
v 0.6 1.7 -0.7
v 0.2 1.7 -0.8
v 0.3 1.7 -0.8
v 0.4 1.7 -0.8
v 0.5 1.7 -0.8
v 0.6 1.7 -0.8
v 0.2 1.7 -0.9
v 0.3 1.7 -0.9
v 0.4 1.7 -0.9
v 0.5 1.7 -0.9
v 0.6 1.7 -0.9
v -0.6 1.8 0.7
v -0.5 1.8 0.7
v -0.6 1.8 0.6
v -0.5 1.8 0.6
v -0.4 1.8 0.4
v 1.19209e-07 1.8 0.4
v -0.4 1.8 0.3
v 1.19209e-07 1.8 0.3
v 0.1 1.8 0.3
v 0.2 1.8 0.3
v 0.1 1.8 0.2
v 0.2 1.8 0.2
v 0.1 1.8 -0.3
v 0.2 1.8 -0.3
v -0.4 1.8 -0.4
v 1.19209e-07 1.8 -0.4
v 0.1 1.8 -0.4
v 0.2 1.8 -0.4
v -0.4 1.8 -0.5
v 1.19209e-07 1.8 -0.5
v -0.6 1.8 -0.7
v -0.5 1.8 -0.7
v -0.6 1.8 -0.8
v -0.5 1.8 -0.8
v -0.5 1.9 0.8
v -0.4 1.9 0.8
v 1.19209e-07 1.9 0.8
v 0.2 1.9 0.8
v 0.3 1.9 0.8
v 0.4 1.9 0.8
v 0.5 1.9 0.8
v 0.6 1.9 0.8
v 0.2 1.9 0.7
v 0.3 1.9 0.7
v 0.4 1.9 0.7
v 0.5 1.9 0.7
v 0.6 1.9 0.7
v 0.2 1.9 0.6
v 0.3 1.9 0.6
v 0.4 1.9 0.6
v 0.5 1.9 0.6
v 0.6 1.9 0.6
v -0.5 1.9 0.5
v -0.4 1.9 0.5
v 1.19209e-07 1.9 0.5
v 0.2 1.9 0.5
v 0.3 1.9 0.5
v 0.4 1.9 0.5
v 0.5 1.9 0.5
v 0.6 1.9 0.5
v -0.5 1.9 -0.6
v -0.4 1.9 -0.6
v 1.19209e-07 1.9 -0.6
v 0.2 1.9 -0.6
v 0.3 1.9 -0.6
v 0.4 1.9 -0.6
v 0.5 1.9 -0.6
v 0.6 1.9 -0.6
v 0.2 1.9 -0.7
v 0.3 1.9 -0.7
v 0.4 1.9 -0.7
v 0.5 1.9 -0.7
v 0.6 1.9 -0.7
v 0.2 1.9 -0.8
v 0.3 1.9 -0.8
v 0.4 1.9 -0.8
v 0.5 1.9 -0.8
v 0.6 1.9 -0.8
v -0.5 1.9 -0.9
v -0.4 1.9 -0.9
v 1.19209e-07 1.9 -0.9
v 0.2 1.9 -0.9
v 0.3 1.9 -0.9
v 0.4 1.9 -0.9
v 0.5 1.9 -0.9
v 0.6 1.9 -0.9
v -0.6 2 -5.96046e-08
v -0.5 2 -5.96046e-08
v 0.1 2 -5.96046e-08
v 0.2 2 -5.96046e-08
v -0.6 2 -0.1
v -0.5 2 -0.1
v 0.1 2 -0.1
v 0.2 2 -0.1
v -0.6 2.1 0.3
v 0.2 2.1 0.3
v -0.6 2.1 0.2
v 0.2 2.1 0.2
v -0.5 2.1 0.1
v -0.4 2.1 0.1
v -0.5 2.1 -0.2
v -0.4 2.1 -0.2
v -0.6 2.1 -0.3
v 0.2 2.1 -0.3
v -0.6 2.1 -0.4
v 0.2 2.1 -0.4
v -1.2 2.2 0.3
v -1 2.2 0.3
v -0.9 2.2 0.3
v -0.7 2.2 0.3
v -1.2 2.2 0.2
v -1 2.2 0.2
v -0.9 2.2 0.2
v -0.7 2.2 0.2
v -1.2 2.2 -0.3
v -1 2.2 -0.3
v -0.9 2.2 -0.3
v -0.7 2.2 -0.3
v -1.2 2.2 -0.4
v -1 2.2 -0.4
v -0.9 2.2 -0.4
v -0.7 2.2 -0.4
v -0.6 2.3 0.4
v 0.2 2.3 0.4
v -0.6 2.3 0.1
v -0.4 2.3 0.1
v -0.3 2.3 0.1
v 1.19209e-07 2.3 0.1
v 0.1 2.3 0.1
v 0.2 2.3 0.1
v -0.4 2.3 -5.96046e-08
v -0.3 2.3 -5.96046e-08
v 1.19209e-07 2.3 -5.96046e-08
v 0.1 2.3 -5.96046e-08
v -0.4 2.3 -0.1
v -0.3 2.3 -0.1
v 1.19209e-07 2.3 -0.1
v 0.1 2.3 -0.1
v -0.6 2.3 -0.2
v -0.4 2.3 -0.2
v -0.3 2.3 -0.2
v 1.19209e-07 2.3 -0.2
v 0.1 2.3 -0.2
v 0.2 2.3 -0.2
v -0.6 2.3 -0.5
v 0.2 2.3 -0.5
v -0.4 2.4 -5.96046e-08
v -0.3 2.4 -5.96046e-08
v 1.19209e-07 2.4 -5.96046e-08
v 0.1 2.4 -5.96046e-08
v -0.4 2.4 -0.1
v -0.3 2.4 -0.1
v 1.19209e-07 2.4 -0.1
v 0.1 2.4 -0.1
v -0.7 2.6 0.7
v 0.3 2.6 0.7
v -0.6 2.6 0.6
v 0.2 2.6 0.6
v -0.3 2.6 0.5
v -0.0999999 2.6 0.5
v -0.4 2.6 0.4
v -0.3 2.6 0.4
v -0.0999999 2.6 0.4
v 1.19209e-07 2.6 0.4
v -0.2 2.6 -0.4
v 1.19209e-07 2.6 -0.4
v -0.4 2.6 -0.5
v -0.2 2.6 -0.5
v -0.6 2.6 -0.7
v 0.2 2.6 -0.7
v -0.7 2.6 -0.8
v 0.3 2.6 -0.8
v -0.6 2.7 0.6
v 0.2 2.7 0.6
v -0.5 2.7 0.5
v 0.1 2.7 0.5
v 0.1 2.7 -5.96046e-08
v 0.2 2.7 -5.96046e-08
v 0.1 2.7 -0.1
v 0.2 2.7 -0.1
v -0.2 2.7 -0.4
v 1.19209e-07 2.7 -0.4
v -0.2 2.7 -0.5
v 1.19209e-07 2.7 -0.5
v -0.5 2.7 -0.6
v 0.1 2.7 -0.6
v -0.6 2.7 -0.7
v 0.2 2.7 -0.7
v -0.4 2.8 -0.4
v -0.2 2.8 -0.4
v -0.4 2.8 -0.5
v -0.2 2.8 -0.5
v -0.5 2.9 0.6
v -0.4 2.9 0.6
v 1.19209e-07 2.9 0.6
v 0.1 2.9 0.6
v -0.5 2.9 0.5
v -0.4 2.9 0.5
v 1.19209e-07 2.9 0.5
v 0.1 2.9 0.5
v 0.1 2.9 -5.96046e-08
v 0.3 2.9 -5.96046e-08
v 0.1 2.9 -0.1
v 0.3 2.9 -0.1
v -0.5 2.9 -0.6
v -0.4 2.9 -0.6
v 1.19209e-07 2.9 -0.6
v 0.1 2.9 -0.6
v -0.5 2.9 -0.7
v -0.4 2.9 -0.7
v 1.19209e-07 2.9 -0.7
v 0.1 2.9 -0.7
v -0.5 3.1 0.5
v 0.1 3.1 0.5
v 1.19209e-07 3.1 0.3
v 0.1 3.1 0.3
v 1.19209e-07 3.1 0.2
v 0.1 3.1 0.2
v 1.19209e-07 3.1 -0.2
v 0.1 3.1 -0.2
v 1.19209e-07 3.1 -0.3
v 0.1 3.1 -0.3
v -0.5 3.1 -0.6
v 0.1 3.1 -0.6
v -0.5 3.2 0.7
v -0.4 3.2 0.7
v 1.19209e-07 3.2 0.7
v 0.1 3.2 0.7
v -0.5 3.2 0.6
v -0.4 3.2 0.6
v 1.19209e-07 3.2 0.6
v 0.1 3.2 0.6
v -0.5 3.2 -0.7
v -0.4 3.2 -0.7
v 1.19209e-07 3.2 -0.7
v 0.1 3.2 -0.7
v -0.5 3.2 -0.8
v -0.4 3.2 -0.8
v 1.19209e-07 3.2 -0.8
v 0.1 3.2 -0.8
v 1.19209e-07 3.3 0.3
v 0.1 3.3 0.3
v 1.19209e-07 3.3 0.2
v 0.1 3.3 0.2
v 1.19209e-07 3.3 -0.2
v 0.1 3.3 -0.2
v 1.19209e-07 3.3 -0.3
v 0.1 3.3 -0.3
v 1.19209e-07 3.4 0.2
v 0.1 3.4 0.2
v 1.19209e-07 3.4 0.1
v 0.1 3.4 0.1
v 1.19209e-07 3.4 -0.1
v 0.1 3.4 -0.1
v 1.19209e-07 3.4 -0.2
v 0.1 3.4 -0.2
v 0.2 3.5 -5.96046e-08
v 0.3 3.5 -5.96046e-08
v 0.4 3.5 -5.96046e-08
v 0.2 3.5 -0.1
v 0.3 3.5 -0.1
v 0.4 3.5 -0.1
v 0.1 3.6 0.4
v 0.2 3.6 0.4
v 0.1 3.6 0.3
v 0.2 3.6 0.3
v -0.0999999 3.6 0.1
v 1.19209e-07 3.6 0.1
v 0.1 3.6 0.1
v -0.0999999 3.6 -0.1
v 1.19209e-07 3.6 -0.1
v 0.1 3.6 -0.1
v 0.1 3.6 -0.3
v 0.2 3.6 -0.3
v 0.1 3.6 -0.4
v 0.2 3.6 -0.4
v 0.1 3.7 0.3
v 0.2 3.7 0.3
v -0.0999999 3.7 0.2
v 1.19209e-07 3.7 0.2
v 0.1 3.7 0.2
v 0.2 3.7 0.2
v -0.0999999 3.7 0.1
v 1.19209e-07 3.7 0.1
v -0.0999999 3.7 -0.1
v 1.19209e-07 3.7 -0.1
v -0.0999999 3.7 -0.2
v 1.19209e-07 3.7 -0.2
v 0.1 3.7 -0.2
v 0.2 3.7 -0.2
v 0.1 3.7 -0.3
v 0.2 3.7 -0.3
v -0.0999999 3.8 0.4
v 1.19209e-07 3.8 0.4
v -0.0999999 3.8 0.2
v 1.19209e-07 3.8 0.2
v 0.1 3.8 0.2
v 0.2 3.8 0.2
v 0.1 3.8 0.1
v 0.2 3.8 0.1
v 0.1 3.8 -0.1
v 0.2 3.8 -0.1
v -0.0999999 3.8 -0.2
v 1.19209e-07 3.8 -0.2
v 0.1 3.8 -0.2
v 0.2 3.8 -0.2
v -0.0999999 3.8 -0.3
v 1.19209e-07 3.8 -0.3
v -0.0999999 3.9 0.6
v 1.19209e-07 3.9 0.6
v -0.0999999 3.9 0.4
v 1.19209e-07 3.9 0.4
v -0.0999999 3.9 -0.3
v 1.19209e-07 3.9 -0.3
v -0.0999999 3.9 -0.5
v 1.19209e-07 3.9 -0.5

# faces
f 5/16/1 2/16/1 1/16/1
f 6/16/1 2/16/1 5/16/1
f 7/16/1 4/16/1 3/16/1
f 8/16/1 4/16/1 7/16/1
f 13/16/1 10/16/1 9/16/1
f 14/16/1 10/16/1 13/16/1
f 15/16/1 12/16/1 11/16/1
f 16/16/1 12/16/1 15/16/1
f 21/13/1 18/13/1 17/13/1
f 22/13/1 18/13/1 21/13/1
f 23/13/1 20/13/1 19/13/1
f 24/13/1 20/13/1 23/13/1
f 25/6/1 22/6/1 21/6/1
f 25/6/1 23/6/1 22/6/1
f 25/6/1 24/6/1 23/6/1
f 26/6/1 24/6/1 25/6/1
f 31/9/1 28/9/1 27/9/1
f 32/9/1 28/9/1 31/9/1
f 39/9/1 30/9/1 29/9/1
f 40/9/1 30/9/1 39/9/1
f 41/14/1 38/14/1 37/14/1
f 44/14/1 34/14/1 33/14/1
f 45/14/1 34/14/1 44/14/1
f 46/3/1 36/3/1 35/3/1
f 47/3/1 36/3/1 46/3/1
f 48/14/1 41/14/1 37/14/1
f 49/15/1 42/15/1 41/15/1
f 49/14/1 41/14/1 48/14/1
f 50/15/1 42/15/1 49/15/1
f 51/1/1 45/1/1 44/1/1
f 51/1/1 44/1/1 43/1/1
f 52/1/1 45/1/1 51/1/1
f 53/1/1 50/1/1 49/1/1
f 53/1/1 49/1/1 48/1/1
f 54/1/1 50/1/1 53/1/1
f 55/1/1 51/1/1 43/1/1
f 56/1/1 45/1/1 52/1/1
f 57/1/1 53/1/1 48/1/1
f 58/1/1 50/1/1 54/1/1
f 59/1/1 55/1/1 43/1/1
f 59/1/1 56/1/1 55/1/1
f 60/1/1 45/1/1 56/1/1
f 60/1/1 56/1/1 59/1/1
f 61/1/1 58/1/1 57/1/1
f 61/1/1 57/1/1 48/1/1
f 62/1/1 50/1/1 58/1/1
f 62/1/1 58/1/1 61/1/1
f 65/6/1 64/6/1 63/6/1
f 66/6/1 64/6/1 65/6/1
f 71/11/1 68/11/1 67/11/1
f 72/11/1 68/11/1 71/11/1
f 73/11/1 70/11/1 69/11/1
f 74/11/1 70/11/1 73/11/1
f 79/8/1 76/8/1 75/8/1
f 80/8/1 76/8/1 79/8/1
f 87/8/1 78/8/1 77/8/1
f 88/8/1 78/8/1 87/8/1
f 89/8/1 79/8/1 75/8/1
f 90/8/1 76/8/1 80/8/1
f 91/14/1 82/14/1 81/14/1
f 91/6/1 83/6/1 82/6/1
f 92/11/1 84/11/1 83/11/1
f 92/6/1 83/6/1 91/6/1
f 93/11/1 84/11/1 92/11/1
f 94/11/1 84/11/1 93/11/1
f 95/11/1 84/11/1 94/11/1
f 96/6/1 85/6/1 84/6/1
f 96/11/1 84/11/1 95/11/1
f 97/6/1 85/6/1 96/6/1
f 98/14/1 86/14/1 85/14/1
f 98/6/1 85/6/1 97/6/1
f 99/8/1 87/8/1 77/8/1
f 100/8/1 78/8/1 88/8/1
f 101/8/1 89/8/1 75/8/1
f 101/8/1 90/8/1 89/8/1
f 102/8/1 76/8/1 90/8/1
f 102/8/1 90/8/1 101/8/1
f 103/14/1 91/14/1 81/14/1
f 103/14/1 92/14/1 91/14/1
f 104/14/1 92/14/1 103/14/1
f 105/11/1 94/11/1 93/11/1
f 106/11/1 94/11/1 105/11/1
f 107/11/1 96/11/1 95/11/1
f 108/11/1 96/11/1 107/11/1
f 109/14/1 98/14/1 97/14/1
f 110/14/1 86/14/1 98/14/1
f 110/14/1 98/14/1 109/14/1
f 111/8/1 100/8/1 99/8/1
f 111/8/1 99/8/1 77/8/1
f 112/8/1 78/8/1 100/8/1
f 112/8/1 100/8/1 111/8/1
f 113/15/1 104/15/1 103/15/1
f 114/15/1 104/15/1 113/15/1
f 115/6/1 106/6/1 105/6/1
f 116/6/1 106/6/1 115/6/1
f 117/6/1 108/6/1 107/6/1
f 118/6/1 108/6/1 117/6/1
f 119/6/1 116/6/1 115/6/1
f 119/6/1 118/6/1 117/6/1
f 119/6/1 117/6/1 116/6/1
f 120/6/1 118/6/1 119/6/1
f 125/6/1 122/6/1 121/6/1
f 126/6/1 122/6/1 125/6/1
f 127/6/1 122/6/1 126/6/1
f 128/6/1 122/6/1 127/6/1
f 131/10/1 124/10/1 123/10/1
f 131/14/1 125/14/1 124/14/1
f 132/6/1 126/6/1 125/6/1
f 132/14/1 125/14/1 131/14/1
f 133/14/1 129/14/1 128/14/1
f 133/6/1 128/6/1 127/6/1
f 134/10/1 130/10/1 129/10/1
f 134/14/1 129/14/1 133/14/1
f 135/6/1 126/6/1 132/6/1
f 135/17/1 127/17/1 126/17/1
f 136/6/1 133/6/1 127/6/1
f 136/17/1 127/17/1 135/17/1
f 137/6/1 135/6/1 132/6/1
f 137/6/1 136/6/1 135/6/1
f 138/6/1 133/6/1 136/6/1
f 138/6/1 136/6/1 137/6/1
f 139/10/1 131/10/1 123/10/1
f 140/10/1 131/10/1 139/10/1
f 141/10/1 130/10/1 134/10/1
f 142/10/1 130/10/1 141/10/1
f 151/11/1 144/11/1 143/11/1
f 152/11/1 144/11/1 151/11/1
f 153/11/1 146/11/1 145/11/1
f 154/11/1 146/11/1 153/11/1
f 155/11/1 148/11/1 147/11/1
f 156/11/1 148/11/1 155/11/1
f 157/11/1 150/11/1 149/11/1
f 158/11/1 150/11/1 157/11/1
f 163/11/1 160/11/1 159/11/1
f 164/11/1 160/11/1 163/11/1
f 165/11/1 160/11/1 164/11/1
f 166/11/1 160/11/1 165/11/1
f 167/11/1 162/11/1 161/11/1
f 168/11/1 162/11/1 167/11/1
f 169/11/1 162/11/1 168/11/1
f 170/11/1 162/11/1 169/11/1
f 171/14/1 165/14/1 164/14/1
f 172/14/1 165/14/1 171/14/1
f 173/11/1 160/11/1 166/11/1
f 174/11/1 160/11/1 173/11/1
f 179/11/1 167/11/1 161/11/1
f 180/11/1 167/11/1 179/11/1
f 181/14/1 169/14/1 168/14/1
f 182/14/1 169/14/1 181/14/1
f 183/11/1 174/11/1 173/11/1
f 183/11/1 175/11/1 174/11/1
f 184/11/1 175/11/1 183/11/1
f 185/11/1 175/11/1 184/11/1
f 186/11/1 177/11/1 176/11/1
f 187/11/1 177/11/1 186/11/1
f 188/11/1 180/11/1 179/11/1
f 188/11/1 179/11/1 178/11/1
f 189/11/1 180/11/1 188/11/1
f 190/11/1 180/11/1 189/11/1
f 193/6/1 192/6/1 191/6/1
f 194/6/1 192/6/1 193/6/1
f 195/14/1 194/14/1 193/14/1
f 196/14/1 194/14/1 195/14/1
f 197/14/1 194/14/1 196/14/1
f 198/14/1 194/14/1 197/14/1
f 199/14/1 197/14/1 196/14/1
f 200/14/1 197/14/1 199/14/1
f 205/11/1 204/11/1 203/11/1
f 206/11/1 204/11/1 205/11/1
f 207/11/1 202/11/1 201/11/1
f 208/11/1 202/11/1 207/11/1
f 209/14/1 206/14/1 205/14/1
f 210/14/1 206/14/1 209/14/1
f 211/14/1 208/14/1 207/14/1
f 212/14/1 208/14/1 211/14/1
f 213/11/1 212/11/1 211/11/1
f 214/11/1 212/11/1 213/11/1
f 215/11/1 210/11/1 209/11/1
f 216/11/1 210/11/1 215/11/1
f 217/14/1 214/14/1 213/14/1
f 218/14/1 214/14/1 217/14/1
f 219/14/1 216/14/1 215/14/1
f 220/14/1 216/14/1 219/14/1
f 225/11/1 222/11/1 221/11/1
f 226/11/1 222/11/1 225/11/1
f 227/11/1 224/11/1 223/11/1
f 228/11/1 224/11/1 227/11/1
f 233/7/1 230/7/1 229/7/1
f 234/7/1 232/7/1 231/7/1
f 235/7/1 233/7/1 229/7/1
f 235/7/1 234/7/1 233/7/1
f 236/7/1 232/7/1 234/7/1
f 236/7/1 234/7/1 235/7/1
f 239/17/1 238/17/1 237/17/1
f 240/17/1 238/17/1 239/17/1
f 243/6/1 242/6/1 241/6/1
f 244/6/1 242/6/1 243/6/1
f 248/14/1 246/14/1 245/14/1
f 249/14/1 246/14/1 248/14/1
f 252/14/1 248/14/1 247/14/1
f 252/14/1 250/14/1 249/14/1
f 252/14/1 249/14/1 248/14/1
f 253/14/1 250/14/1 252/14/1
f 254/14/1 250/14/1 253/14/1
f 255/14/1 250/14/1 254/14/1
f 258/14/1 252/14/1 251/14/1
f 258/14/1 253/14/1 252/14/1
f 259/14/1 253/14/1 258/14/1
f 260/14/1 253/14/1 259/14/1
f 261/14/1 255/14/1 254/14/1
f 261/14/1 256/14/1 255/14/1
f 262/14/1 256/14/1 261/14/1
f 263/14/1 256/14/1 262/14/1
f 266/14/1 259/14/1 258/14/1
f 266/14/1 258/14/1 257/14/1
f 267/14/1 259/14/1 266/14/1
f 268/14/1 259/14/1 267/14/1
f 269/14/1 264/14/1 263/14/1
f 269/14/1 263/14/1 262/14/1
f 270/14/1 264/14/1 269/14/1
f 271/14/1 264/14/1 270/14/1
f 273/14/1 267/14/1 266/14/1
f 273/14/1 266/14/1 265/14/1
f 274/14/1 267/14/1 273/14/1
f 275/14/1 272/14/1 271/14/1
f 275/14/1 271/14/1 270/14/1
f 276/14/1 272/14/1 275/14/1
f 281/14/1 278/14/1 277/14/1
f 282/14/1 278/14/1 281/14/1
f 283/14/1 280/14/1 279/14/1
f 284/14/1 280/14/1 283/14/1
f 287/6/1 286/6/1 285/6/1
f 295/14/1 291/14/1 290/14/1
f 295/10/1 290/10/1 289/10/1
f 296/14/1 291/14/1 295/14/1
f 297/14/1 293/14/1 292/14/1
f 298/10/1 294/10/1 293/10/1
f 298/14/1 293/14/1 297/14/1
f 299/6/1 287/6/1 285/6/1
f 299/6/1 288/6/1 287/6/1
f 300/6/1 288/6/1 299/6/1
f 305/10/1 295/10/1 289/10/1
f 306/10/1 295/10/1 305/10/1
f 307/14/1 302/14/1 301/14/1
f 310/14/1 304/14/1 303/14/1
f 311/10/1 294/10/1 298/10/1
f 312/10/1 294/10/1 311/10/1
f 313/14/1 308/14/1 307/14/1
f 313/14/1 307/14/1 301/14/1
f 314/14/1 308/14/1 313/14/1
f 315/14/1 308/14/1 314/14/1
f 316/14/1 310/14/1 309/14/1
f 317/14/1 304/14/1 310/14/1
f 317/14/1 310/14/1 316/14/1
f 318/14/1 304/14/1 317/14/1
f 319/14/1 315/14/1 314/14/1
f 319/14/1 316/14/1 315/14/1
f 319/14/1 317/14/1 316/14/1
f 320/14/1 317/14/1 319/14/1
f 321/14/1 317/14/1 320/14/1
f 322/14/1 317/14/1 321/14/1
f 327/18/1 324/18/1 323/18/1
f 328/18/1 324/18/1 327/18/1
f 332/1/1 326/1/1 325/1/1
f 333/1/1 326/1/1 332/1/1
f 336/1/1 330/1/1 329/1/1
f 337/1/1 330/1/1 336/1/1
f 339/1/1 332/1/1 331/1/1
f 340/18/1 334/18/1 333/18/1
f 340/1/1 332/1/1 339/1/1
f 340/18/1 333/18/1 332/18/1
f 341/18/1 334/18/1 340/18/1
f 342/18/1 334/18/1 341/18/1
f 343/18/1 337/18/1 336/18/1
f 343/18/1 336/18/1 335/18/1
f 344/18/1 337/18/1 343/18/1
f 345/1/1 338/1/1 337/1/1
f 345/18/1 337/18/1 344/18/1
f 346/1/1 338/1/1 345/1/1
f 347/1/1 341/1/1 340/1/1
f 348/18/1 344/18/1 343/18/1
f 348/1/1 341/1/1 347/1/1
f 348/18/1 342/18/1 341/18/1
f 348/18/1 343/18/1 342/18/1
f 349/18/1 344/18/1 348/18/1
f 350/18/1 344/18/1 349/18/1
f 351/1/1 345/1/1 344/1/1
f 351/18/1 344/18/1 350/18/1
f 352/1/1 345/1/1 351/1/1
f 353/1/1 349/1/1 348/1/1
f 354/18/1 350/18/1 349/18/1
f 354/1/1 349/1/1 353/1/1
f 355/1/1 351/1/1 350/1/1
f 355/18/1 350/18/1 354/18/1
f 356/1/1 351/1/1 355/1/1
f 359/12/1 358/12/1 357/12/1
f 360/12/1 358/12/1 359/12/1
f 369/4/1 362/4/1 361/4/1
f 370/4/1 362/4/1 369/4/1
f 371/4/1 364/4/1 363/4/1
f 372/4/1 364/4/1 371/4/1
f 373/4/1 366/4/1 365/4/1
f 374/4/1 366/4/1 373/4/1
f 375/4/1 368/4/1 367/4/1
f 376/4/1 368/4/1 375/4/1
f 385/4/1 378/4/1 377/4/1
f 386/4/1 378/4/1 385/4/1
f 387/4/1 380/4/1 379/4/1
f 388/4/1 380/4/1 387/4/1
f 389/4/1 382/4/1 381/4/1
f 390/4/1 382/4/1 389/4/1
f 391/4/1 384/4/1 383/4/1
f 392/4/1 384/4/1 391/4/1
f 393/16/2 394/16/2 397/16/2
f 397/16/2 394/16/2 398/16/2
f 395/16/2 396/16/2 399/16/2
f 399/16/2 396/16/2 400/16/2
f 401/16/2 402/16/2 405/16/2
f 405/16/2 402/16/2 406/16/2
f 403/16/2 404/16/2 407/16/2
f 407/16/2 404/16/2 408/16/2
f 409/14/2 410/14/2 413/14/2
f 413/14/2 410/14/2 414/14/2
f 411/14/2 412/14/2 415/14/2
f 415/14/2 412/14/2 416/14/2
f 417/6/2 418/6/2 419/6/2
f 419/6/2 418/6/2 420/6/2
f 417/6/2 419/6/2 424/6/2
f 424/6/2 419/6/2 425/6/2
f 422/14/2 423/14/2 430/14/2
f 421/10/2 422/10/2 430/10/2
f 430/14/2 423/14/2 431/14/2
f 427/14/2 428/14/2 432/14/2
f 428/10/2 429/10/2 433/10/2
f 432/14/2 428/14/2 433/14/2
f 425/17/2 426/17/2 434/17/2
f 424/17/2 425/17/2 434/17/2
f 434/17/2 426/17/2 435/17/2
f 421/10/2 430/10/2 436/10/2
f 436/10/2 430/10/2 437/10/2
f 433/10/2 429/10/2 438/10/2
f 438/10/2 429/10/2 439/10/2
f 440/6/2 441/6/2 442/6/2
f 442/6/2 441/6/2 443/6/2
f 444/11/2 445/11/2 448/11/2
f 448/11/2 445/11/2 449/11/2
f 446/11/2 447/11/2 450/11/2
f 450/11/2 447/11/2 451/11/2
f 452/17/2 453/17/2 454/17/2
f 454/17/2 453/17/2 455/17/2
f 458/11/2 459/11/2 460/11/2
f 460/11/2 459/11/2 461/11/2
f 456/11/2 457/11/2 462/11/2
f 462/11/2 457/11/2 463/11/2
f 460/6/2 461/6/2 464/6/2
f 464/6/2 461/6/2 465/6/2
f 462/6/2 463/6/2 466/6/2
f 466/6/2 463/6/2 467/6/2
f 464/14/2 465/14/2 468/14/2
f 468/14/2 465/14/2 469/14/2
f 466/14/2 467/14/2 470/14/2
f 470/14/2 467/14/2 471/14/2
f 470/11/2 471/11/2 472/11/2
f 472/11/2 471/11/2 473/11/2
f 468/11/2 469/11/2 474/11/2
f 474/11/2 469/11/2 475/11/2
f 472/6/2 473/6/2 476/6/2
f 476/6/2 473/6/2 477/6/2
f 474/6/2 475/6/2 478/6/2
f 478/6/2 475/6/2 479/6/2
f 476/14/2 477/14/2 480/14/2
f 480/14/2 477/14/2 481/14/2
f 478/14/2 479/14/2 482/14/2
f 482/14/2 479/14/2 483/14/2
f 484/11/2 485/11/2 486/11/2
f 486/11/2 485/11/2 487/11/2
f 488/11/2 489/11/2 492/11/2
f 492/11/2 489/11/2 493/11/2
f 490/11/2 491/11/2 494/11/2
f 494/11/2 491/11/2 495/11/2
f 496/11/2 497/11/2 500/11/2
f 500/11/2 497/11/2 501/11/2
f 501/11/2 497/11/2 502/11/2
f 502/11/2 497/11/2 503/11/2
f 498/11/2 499/11/2 504/11/2
f 504/11/2 499/11/2 505/11/2
f 505/11/2 499/11/2 506/11/2
f 506/11/2 499/11/2 507/11/2
f 501/14/2 502/14/2 508/14/2
f 508/14/2 502/14/2 509/14/2
f 503/11/2 497/11/2 510/11/2
f 510/11/2 497/11/2 511/11/2
f 498/11/2 504/11/2 514/11/2
f 514/11/2 504/11/2 515/11/2
f 505/14/2 506/14/2 516/14/2
f 516/14/2 506/14/2 517/14/2
f 511/11/2 512/11/2 518/11/2
f 510/11/2 511/11/2 518/11/2
f 518/11/2 512/11/2 519/11/2
f 519/11/2 512/11/2 520/11/2
f 514/11/2 515/11/2 521/11/2
f 513/11/2 514/11/2 521/11/2
f 521/11/2 515/11/2 522/11/2
f 522/11/2 515/11/2 523/11/2
f 524/7/2 525/7/2 528/7/2
f 526/7/2 527/7/2 529/7/2
f 524/7/2 528/7/2 530/7/2
f 528/7/2 529/7/2 530/7/2
f 529/7/2 527/7/2 531/7/2
f 530/7/2 529/7/2 531/7/2
f 532/14/2 533/14/2 537/14/2
f 537/14/2 533/14/2 538/14/2
f 534/14/2 535/14/2 539/14/2
f 539/14/2 535/14/2 540/14/2
f 537/14/2 538/14/2 543/14/2
f 536/14/2 537/14/2 543/14/2
f 543/14/2 538/14/2 544/14/2
f 544/14/2 538/14/2 545/14/2
f 539/14/2 540/14/2 546/14/2
f 540/14/2 541/14/2 546/14/2
f 546/14/2 541/14/2 547/14/2
f 547/14/2 541/14/2 548/14/2
f 543/14/2 544/14/2 551/14/2
f 542/14/2 543/14/2 551/14/2
f 551/14/2 544/14/2 552/14/2
f 552/14/2 544/14/2 553/14/2
f 548/14/2 549/14/2 554/14/2
f 547/14/2 548/14/2 554/14/2
f 554/14/2 549/14/2 555/14/2
f 555/14/2 549/14/2 556/14/2
f 551/14/2 552/14/2 558/14/2
f 550/14/2 551/14/2 558/14/2
f 558/14/2 552/14/2 559/14/2
f 556/14/2 557/14/2 560/14/2
f 555/14/2 556/14/2 560/14/2
f 560/14/2 557/14/2 561/14/2
f 562/14/2 563/14/2 568/14/2
f 564/11/2 565/11/2 569/11/2
f 569/11/2 565/11/2 570/11/2
f 570/11/2 565/11/2 571/11/2
f 571/11/2 565/11/2 572/11/2
f 566/14/2 567/14/2 573/14/2
f 562/14/2 568/14/2 574/14/2
f 568/14/2 569/14/2 574/14/2
f 569/14/2 570/14/2 574/14/2
f 574/14/2 570/14/2 575/14/2
f 570/11/2 571/11/2 576/11/2
f 575/14/2 570/14/2 576/14/2
f 576/11/2 571/11/2 577/11/2
f 577/11/2 571/11/2 578/11/2
f 578/11/2 571/11/2 579/11/2
f 572/14/2 573/14/2 580/14/2
f 573/14/2 567/14/2 581/14/2
f 580/14/2 573/14/2 581/14/2
f 576/6/2 577/6/2 582/6/2
f 582/6/2 577/6/2 583/6/2
f 578/6/2 579/6/2 584/6/2
f 584/6/2 579/6/2 585/6/2
f 582/6/2 583/6/2 586/6/2
f 583/6/2 584/6/2 586/6/2
f 584/6/2 585/6/2 586/6/2
f 586/6/2 585/6/2 587/6/2
f 586/14/2 587/14/2 588/14/2
f 588/14/2 587/14/2 589/14/2
f 589/14/2 587/14/2 590/14/2
f 590/14/2 587/14/2 591/14/2
f 589/14/2 590/14/2 592/14/2
f 592/14/2 590/14/2 593/14/2
f 594/6/2 595/6/2 600/6/2
f 596/6/2 597/6/2 601/6/2
f 598/10/2 599/10/2 604/10/2
f 599/14/2 600/14/2 604/14/2
f 600/6/2 595/6/2 605/6/2
f 604/14/2 600/14/2 605/14/2
f 605/6/2 595/6/2 606/6/2
f 596/6/2 601/6/2 607/6/2
f 601/14/2 602/14/2 608/14/2
f 607/6/2 601/6/2 608/6/2
f 602/10/2 603/10/2 609/10/2
f 608/14/2 602/14/2 609/14/2
f 607/6/2 608/6/2 610/6/2
f 606/6/2 607/6/2 610/6/2
f 605/6/2 606/6/2 610/6/2
f 610/6/2 608/6/2 611/6/2
f 611/6/2 608/6/2 612/6/2
f 612/6/2 608/6/2 613/6/2
f 613/6/2 608/6/2 614/6/2
f 614/6/2 608/6/2 615/6/2
f 598/10/2 604/10/2 616/10/2
f 616/10/2 604/10/2 617/10/2
f 611/14/2 612/14/2 618/14/2
f 613/14/2 614/14/2 619/14/2
f 609/10/2 603/10/2 620/10/2
f 620/10/2 603/10/2 621/10/2
f 611/14/2 618/14/2 622/14/2
f 622/14/2 618/14/2 623/14/2
f 619/14/2 614/14/2 624/14/2
f 624/14/2 614/14/2 625/14/2
f 626/5/2 627/5/2 631/5/2
f 631/5/2 627/5/2 632/5/2
f 628/5/2 629/5/2 639/5/2
f 639/5/2 629/5/2 640/5/2
f 630/5/2 631/5/2 642/5/2
f 631/5/2 632/5/2 642/5/2
f 632/5/2 633/5/2 642/5/2
f 642/5/2 633/5/2 643/5/2
f 643/5/2 633/5/2 644/5/2
f 644/5/2 633/5/2 645/5/2
f 634/16/2 635/16/2 646/16/2
f 646/16/2 635/16/2 647/16/2
f 636/16/2 637/16/2 649/16/2
f 649/16/2 637/16/2 650/16/2
f 640/5/2 641/5/2 651/5/2
f 639/5/2 640/5/2 651/5/2
f 638/5/2 639/5/2 651/5/2
f 651/5/2 641/5/2 652/5/2
f 652/5/2 641/5/2 653/5/2
f 653/5/2 641/5/2 654/5/2
f 643/5/2 644/5/2 655/5/2
f 655/5/2 644/5/2 656/5/2
f 648/14/2 649/14/2 662/14/2
f 652/5/2 653/5/2 664/5/2
f 664/5/2 653/5/2 665/5/2
f 657/15/2 658/15/2 666/15/2
f 658/14/2 659/14/2 667/14/2
f 666/15/2 658/15/2 667/15/2
f 667/14/2 659/14/2 668/14/2
f 660/16/2 661/16/2 669/16/2
f 669/16/2 661/16/2 670/16/2
f 648/14/2 662/14/2 671/14/2
f 662/15/2 663/15/2 672/15/2
f 671/14/2 662/14/2 672/14/2
f 672/15/2 663/15/2 673/15/2
f 667/1/2 668/1/2 674/1/2
f 666/1/2 667/1/2 674/1/2
f 674/1/2 668/1/2 675/1/2
f 672/1/2 673/1/2 676/1/2
f 671/1/2 672/1/2 676/1/2
f 676/1/2 673/1/2 677/1/2
f 666/1/2 674/1/2 678/1/2
f 675/1/2 668/1/2 679/1/2
f 671/1/2 676/1/2 680/1/2
f 677/1/2 673/1/2 681/1/2
f 666/1/2 678/1/2 682/1/2
f 678/1/2 679/1/2 682/1/2
f 679/1/2 668/1/2 683/1/2
f 682/1/2 679/1/2 683/1/2
f 680/1/2 681/1/2 684/1/2
f 671/1/2 680/1/2 684/1/2
f 681/1/2 673/1/2 685/1/2
f 684/1/2 681/1/2 685/1/2
f 686/6/2 687/6/2 688/6/2
f 688/6/2 687/6/2 689/6/2
f 689/6/2 687/6/2 690/6/2
f 690/6/2 687/6/2 691/6/2
f 692/1/2 693/1/2 697/1/2
f 693/18/2 694/18/2 698/18/2
f 697/1/2 693/1/2 698/1/2
f 698/18/2 694/18/2 699/18/2
f 694/1/2 695/1/2 700/1/2
f 699/18/2 694/18/2 700/18/2
f 700/1/2 695/1/2 701/1/2
f 696/1/2 697/1/2 704/1/2
f 698/18/2 699/18/2 705/18/2
f 697/18/2 698/18/2 705/18/2
f 704/1/2 697/1/2 705/1/2
f 700/18/2 701/18/2 706/18/2
f 701/1/2 702/1/2 706/1/2
f 706/1/2 702/1/2 707/1/2
f 705/18/2 699/18/2 709/18/2
f 704/18/2 705/18/2 709/18/2
f 706/18/2 707/18/2 710/18/2
f 700/18/2 706/18/2 710/18/2
f 703/1/2 704/1/2 711/1/2
f 709/18/2 710/18/2 712/18/2
f 711/1/2 704/1/2 712/1/2
f 704/18/2 709/18/2 712/18/2
f 712/18/2 710/18/2 713/18/2
f 710/18/2 707/18/2 714/18/2
f 713/18/2 710/18/2 714/18/2
f 707/1/2 708/1/2 715/1/2
f 714/18/2 707/18/2 715/18/2
f 715/1/2 708/1/2 716/1/2
f 712/1/2 713/1/2 717/1/2
f 713/18/2 714/18/2 718/18/2
f 717/1/2 713/1/2 718/1/2
f 718/18/2 714/18/2 719/18/2
f 719/18/2 714/18/2 720/18/2
f 714/1/2 715/1/2 721/1/2
f 720/18/2 714/18/2 721/18/2
f 721/1/2 715/1/2 722/1/2
f 718/1/2 719/1/2 723/1/2
f 719/18/2 720/18/2 724/18/2
f 723/1/2 719/1/2 724/1/2
f 720/1/2 721/1/2 725/1/2
f 724/18/2 720/18/2 725/18/2
f 725/1/2 721/1/2 726/1/2
f 727/13/2 728/13/2 731/13/2
f 731/13/2 728/13/2 732/13/2
f 729/13/2 730/13/2 733/13/2
f 733/13/2 730/13/2 734/13/2
f 731/6/2 732/6/2 735/6/2
f 732/6/2 733/6/2 735/6/2
f 733/6/2 734/6/2 735/6/2
f 735/6/2 734/6/2 736/6/2
f 737/4/2 738/4/2 745/4/2
f 745/4/2 738/4/2 746/4/2
f 739/4/2 740/4/2 747/4/2
f 747/4/2 740/4/2 748/4/2
f 741/4/2 742/4/2 749/4/2
f 749/4/2 742/4/2 750/4/2
f 743/4/2 744/4/2 751/4/2
f 751/4/2 744/4/2 752/4/2
f 753/4/2 754/4/2 761/4/2
f 761/4/2 754/4/2 762/4/2
f 755/4/2 756/4/2 763/4/2
f 763/4/2 756/4/2 764/4/2
f 757/4/2 758/4/2 765/4/2
f 765/4/2 758/4/2 766/4/2
f 759/4/2 760/4/2 767/4/2
f 767/4/2 760/4/2 768/4/2
f 769/12/2 770/12/2 771/12/2
f 771/12/2 770/12/2 772/12/2
f 773/4/2 774/4/2 781/4/2
f 781/4/2 774/4/2 782/4/2
f 775/4/2 776/4/2 783/4/2
f 783/4/2 776/4/2 784/4/2
f 777/4/2 778/4/2 785/4/2
f 785/4/2 778/4/2 786/4/2
f 779/4/2 780/4/2 787/4/2
f 787/4/2 780/4/2 788/4/2
f 789/4/2 790/4/2 797/4/2
f 797/4/2 790/4/2 798/4/2
f 791/4/2 792/4/2 799/4/2
f 799/4/2 792/4/2 800/4/2
f 793/4/2 794/4/2 801/4/2
f 801/4/2 794/4/2 802/4/2
f 795/4/2 796/4/2 803/4/2
f 803/4/2 796/4/2 804/4/2
f 811/8/3 806/8/3 805/8/3
f 812/8/3 806/8/3 811/8/3
f 813/11/3 808/11/3 807/11/3
f 814/11/3 808/11/3 813/11/3
f 815/11/3 810/11/3 809/11/3
f 816/11/3 810/11/3 815/11/3
f 817/2/3 812/2/3 811/2/3
f 818/2/3 812/2/3 817/2/3
f 819/5/3 818/5/3 817/5/3
f 820/5/3 818/5/3 819/5/3
f 821/5/3 818/5/3 820/5/3
f 822/5/3 818/5/3 821/5/3
f 823/14/3 820/14/3 819/14/3
f 824/14/3 820/14/3 823/14/3
f 825/14/3 822/14/3 821/14/3
f 826/14/3 822/14/3 825/14/3
f 827/4/3 824/4/3 823/4/3
f 828/4/3 824/4/3 827/4/3
f 829/4/3 826/4/3 825/4/3
f 830/4/3 826/4/3 829/4/3
f 835/4/3 832/4/3 831/4/3
f 836/4/3 832/4/3 835/4/3
f 837/4/3 834/4/3 833/4/3
f 838/4/3 834/4/3 837/4/3
f 846/9/3 843/9/3 842/9/3
f 847/9/3 843/9/3 846/9/3
f 850/11/3 845/11/3 844/11/3
f 851/11/3 845/11/3 850/11/3
f 854/10/3 849/10/3 848/10/3
f 855/10/3 849/10/3 854/10/3
f 861/11/3 857/11/3 856/11/3
f 862/14/3 858/14/3 857/14/3
f 862/11/3 857/11/3 861/11/3
f 863/14/3 858/14/3 862/14/3
f 864/11/3 859/11/3 858/11/3
f 864/14/3 858/14/3 863/14/3
f 865/11/3 859/11/3 864/11/3
f 866/14/3 860/14/3 859/14/3
f 866/11/3 859/11/3 865/11/3
f 867/14/3 860/14/3 866/14/3
f 868/11/3 861/11/3 856/11/3
f 869/6/3 862/6/3 861/6/3
f 869/11/3 861/11/3 868/11/3
f 870/14/3 863/14/3 862/14/3
f 870/6/3 862/6/3 869/6/3
f 871/11/3 865/11/3 864/11/3
f 871/14/3 863/14/3 870/14/3
f 871/11/3 864/11/3 863/11/3
f 872/6/3 867/6/3 866/6/3
f 872/11/3 865/11/3 871/11/3
f 872/6/3 866/6/3 865/6/3
f 873/14/3 860/14/3 867/14/3
f 873/6/3 867/6/3 872/6/3
f 874/14/3 860/14/3 873/14/3
f 875/14/3 853/14/3 852/14/3
f 876/14/3 853/14/3 875/14/3
f 879/10/3 878/10/3 877/10/3
f 880/10/3 878/10/3 879/10/3
f 881/13/3 840/13/3 839/13/3
f 882/6/3 841/6/3 840/6/3
f 882/13/3 840/13/3 881/13/3
f 883/6/3 841/6/3 882/6/3
f 888/14/3 887/14/3 886/14/3
f 889/14/3 887/14/3 888/14/3
f 894/6/3 885/6/3 884/6/3
f 895/6/3 885/6/3 894/6/3
f 896/14/3 891/14/3 890/14/3
f 897/14/3 891/14/3 896/14/3
f 898/14/3 893/14/3 892/14/3
f 899/14/3 893/14/3 898/14/3
f 900/4/3 897/4/3 896/4/3
f 901/4/3 897/4/3 900/4/3
f 902/4/3 899/4/3 898/4/3
f 903/4/3 899/4/3 902/4/3
f 908/4/3 905/4/3 904/4/3
f 909/4/3 905/4/3 908/4/3
f 910/4/3 907/4/3 906/4/3
f 911/4/3 907/4/3 910/4/3
f 918/6/3 913/6/3 912/6/3
f 919/6/3 915/6/3 914/6/3
f 922/11/3 917/11/3 916/11/3
f 923/11/3 917/11/3 922/11/3
f 924/6/3 918/6/3 912/6/3
f 924/6/3 919/6/3 918/6/3
f 925/6/3 915/6/3 919/6/3
f 925/6/3 919/6/3 924/6/3
f 926/14/3 921/14/3 920/14/3
f 927/14/3 921/14/3 926/14/3
f 928/6/3 924/6/3 912/6/3
f 929/6/3 924/6/3 928/6/3
f 930/6/3 915/6/3 925/6/3
f 931/6/3 915/6/3 930/6/3
f 936/1/3 933/1/3 932/1/3
f 937/14/3 935/14/3 934/14/3
f 938/14/3 935/14/3 937/14/3
f 939/15/3 936/15/3 935/15/3
f 939/14/3 935/14/3 938/14/3
f 940/11/3 938/11/3 937/11/3
f 941/11/3 938/11/3 940/11/3
f 942/15/3 936/15/3 939/15/3
f 943/14/3 941/14/3 940/14/3
f 943/14/3 942/14/3 941/14/3
f 944/15/3 936/15/3 942/15/3
f 944/14/3 942/14/3 943/14/3
f 947/15/3 936/15/3 944/15/3
f 948/1/3 933/1/3 936/1/3
f 948/15/3 936/15/3 947/15/3
f 949/1/3 933/1/3 948/1/3
f 950/1/3 946/1/3 945/1/3
f 951/1/3 946/1/3 950/1/3
f 954/16/3 953/16/3 952/16/3
f 955/16/3 953/16/3 954/16/3
f 958/16/3 957/16/3 956/16/3
f 959/16/3 957/16/3 958/16/3
f 964/11/3 961/11/3 960/11/3
f 965/11/3 961/11/3 964/11/3
f 968/14/3 963/14/3 962/14/3
f 969/14/3 963/14/3 968/14/3
f 972/14/3 967/14/3 966/14/3
f 973/14/3 967/14/3 972/14/3
f 977/16/3 971/16/3 970/16/3
f 978/16/3 971/16/3 977/16/3
f 979/1/3 974/1/3 973/1/3
f 980/1/3 974/1/3 979/1/3
f 981/1/3 976/1/3 975/1/3
f 982/1/3 976/1/3 981/1/3
f 987/14/3 984/14/3 983/14/3
f 988/14/3 984/14/3 987/14/3
f 989/14/3 984/14/3 988/14/3
f 994/14/3 991/14/3 990/14/3
f 995/14/3 991/14/3 994/14/3
f 997/14/3 993/14/3 992/14/3
f 998/14/3 993/14/3 997/14/3
f 1001/1/3 986/1/3 985/1/3
f 1002/1/3 986/1/3 1001/1/3
f 1003/1/3 997/1/3 996/1/3
f 1004/1/3 997/1/3 1003/1/3
f 1005/1/3 1000/1/3 999/1/3
f 1006/1/3 1000/1/3 1005/1/3
f 1011/11/3 1008/11/3 1007/11/3
f 1012/11/3 1008/11/3 1011/11/3
f 1015/7/3 1010/7/3 1009/7/3
f 1016/7/3 1010/7/3 1015/7/3
f 1017/14/3 1014/14/3 1013/14/3
f 1018/14/3 1014/14/3 1017/14/3
f 1020/14/3 1019/14/3 1018/14/3
f 1020/14/3 1018/14/3 1017/14/3
f 1021/14/3 1019/14/3 1020/14/3
f 1024/3/3 1023/3/3 1022/3/3
f 1025/3/3 1023/3/3 1024/3/3
f 1026/3/3 1023/3/3 1025/3/3
f 1031/11/3 1028/11/3 1027/11/3
f 1032/11/3 1028/11/3 1031/11/3
f 1033/14/3 1030/14/3 1029/14/3
f 1034/14/3 1030/14/3 1033/14/3
f 1037/11/3 1036/11/3 1035/11/3
f 1038/11/3 1036/11/3 1037/11/3
f 1043/14/3 1040/14/3 1039/14/3
f 1044/14/3 1040/14/3 1043/14/3
f 1047/16/3 1042/16/3 1041/16/3
f 1048/16/3 1042/16/3 1047/16/3
f 1049/14/3 1046/14/3 1045/14/3
f 1052/14/3 1046/14/3 1049/14/3
f 1053/14/3 1046/14/3 1052/14/3
f 1054/18/3 1051/18/3 1050/18/3
f 1055/18/3 1051/18/3 1054/18/3
f 1056/12/3 1053/12/3 1052/12/3
f 1056/12/3 1054/12/3 1053/12/3
f 1056/12/3 1055/12/3 1054/12/3
f 1057/12/3 1055/12/3 1056/12/3
f 1062/14/3 1059/14/3 1058/14/3
f 1063/14/3 1059/14/3 1062/14/3
f 1064/14/3 1061/14/3 1060/14/3
f 1065/14/3 1061/14/3 1064/14/3
f 1069/14/3 1067/14/3 1066/14/3
f 1070/14/3 1067/14/3 1069/14/3
f 1071/1/3 1068/1/3 1067/1/3
f 1071/14/3 1067/14/3 1070/14/3
f 1072/1/3 1068/1/3 1071/1/3
f 1073/1/3 1068/1/3 1072/1/3
f 1074/1/3 1068/1/3 1073/1/3
f 1075/1/3 1068/1/3 1074/1/3
f 1080/14/3 1077/14/3 1076/14/3
f 1081/14/3 1077/14/3 1080/14/3
f 1087/14/3 1079/14/3 1078/14/3
f 1088/14/3 1079/14/3 1087/14/3
f 1089/14/3 1083/14/3 1082/14/3
f 1089/14/3 1084/14/3 1083/14/3
f 1090/1/3 1086/1/3 1085/1/3
f 1090/14/3 1084/14/3 1089/14/3
f 1090/1/3 1085/1/3 1084/1/3
f 1091/1/3 1086/1/3 1090/1/3
f 1094/16/3 1093/16/3 1092/16/3
f 1095/16/3 1093/16/3 1094/16/3
f 1098/16/3 1097/16/3 1096/16/3
f 1099/16/3 1097/16/3 1098/16/3
f 1102/14/3 1101/14/3 1100/14/3
f 1103/14/3 1101/14/3 1102/14/3
f 1106/16/3 1105/16/3 1104/16/3
f 1107/16/3 1105/16/3 1106/16/3
f 1116/11/3 1113/11/3 1112/11/3
f 1118/17/3 1115/17/3 1114/17/3
f 1119/17/3 1115/17/3 1118/17/3
f 1120/11/3 1116/11/3 1112/11/3
f 1121/11/3 1116/11/3 1120/11/3
f 1122/17/3 1118/17/3 1117/17/3
f 1123/17/3 1118/17/3 1122/17/3
f 1124/1/3 1111/1/3 1110/1/3
f 1125/1/3 1111/1/3 1124/1/3
f 1126/13/3 1109/13/3 1108/13/3
f 1127/13/3 1109/13/3 1126/13/3
f 1136/6/3 1133/6/3 1132/6/3
f 1137/6/3 1133/6/3 1136/6/3
f 1138/6/3 1135/6/3 1134/6/3
f 1139/11/3 1129/11/3 1128/11/3
f 1140/11/3 1129/11/3 1139/11/3
f 1141/11/3 1131/11/3 1130/11/3
f 1142/11/3 1131/11/3 1141/11/3
f 1143/6/3 1138/6/3 1137/6/3
f 1144/6/3 1135/6/3 1138/6/3
f 1144/6/3 1138/6/3 1143/6/3
f 1149/11/3 1146/11/3 1145/11/3
f 1150/11/3 1146/11/3 1149/11/3
f 1151/8/3 1148/8/3 1147/8/3
f 1152/8/3 1148/8/3 1151/8/3
f 1153/8/3 1148/8/3 1152/8/3
f 1159/11/3 1155/11/3 1154/11/3
f 1160/14/3 1156/14/3 1155/14/3
f 1160/11/3 1155/11/3 1159/11/3
f 1161/14/3 1156/14/3 1160/14/3
f 1162/11/3 1157/11/3 1156/11/3
f 1162/14/3 1156/14/3 1161/14/3
f 1163/11/3 1157/11/3 1162/11/3
f 1164/14/3 1158/14/3 1157/14/3
f 1164/11/3 1157/11/3 1163/11/3
f 1165/14/3 1158/14/3 1164/14/3
f 1166/11/3 1159/11/3 1154/11/3
f 1167/6/3 1160/6/3 1159/6/3
f 1167/11/3 1159/11/3 1166/11/3
f 1168/14/3 1161/14/3 1160/14/3
f 1168/6/3 1160/6/3 1167/6/3
f 1169/11/3 1163/11/3 1162/11/3
f 1169/14/3 1161/14/3 1168/14/3
f 1169/11/3 1162/11/3 1161/11/3
f 1170/6/3 1165/6/3 1164/6/3
f 1170/11/3 1163/11/3 1169/11/3
f 1170/6/3 1164/6/3 1163/6/3
f 1171/14/3 1158/14/3 1165/14/3
f 1171/6/3 1165/6/3 1170/6/3
f 1172/14/3 1158/14/3 1171/14/3
f 1174/2/3 1153/2/3 1152/2/3
f 1175/2/3 1153/2/3 1174/2/3
f 1176/5/3 1174/5/3 1173/5/3
f 1176/5/3 1175/5/3 1174/5/3
f 1177/5/3 1175/5/3 1176/5/3
f 1178/5/3 1175/5/3 1177/5/3
f 1179/5/3 1175/5/3 1178/5/3
f 1180/14/3 1177/14/3 1176/14/3
f 1181/14/3 1177/14/3 1180/14/3
f 1182/14/3 1179/14/3 1178/14/3
f 1183/14/3 1179/14/3 1182/14/3
f 1184/4/3 1181/4/3 1180/4/3
f 1185/4/3 1181/4/3 1184/4/3
f 1186/4/3 1183/4/3 1182/4/3
f 1187/4/3 1183/4/3 1186/4/3
f 1192/4/3 1189/4/3 1188/4/3
f 1193/4/3 1189/4/3 1192/4/3
f 1194/4/3 1191/4/3 1190/4/3
f 1195/4/3 1191/4/3 1194/4/3
f 1198/9/3 1197/9/3 1196/9/3
f 1199/9/3 1197/9/3 1198/9/3
f 1204/10/3 1201/10/3 1200/10/3
f 1205/10/3 1201/10/3 1204/10/3
f 1206/14/3 1203/14/3 1202/14/3
f 1207/14/3 1203/14/3 1206/14/3
f 1210/10/3 1209/10/3 1208/10/3
f 1211/10/3 1209/10/3 1210/10/3
f 1216/14/3 1213/14/3 1212/14/3
f 1217/14/3 1213/14/3 1216/14/3
f 1218/14/3 1215/14/3 1214/14/3
f 1219/14/3 1215/14/3 1218/14/3
f 1220/4/3 1217/4/3 1216/4/3
f 1221/4/3 1217/4/3 1220/4/3
f 1222/4/3 1219/4/3 1218/4/3
f 1223/4/3 1219/4/3 1222/4/3
f 1228/4/3 1225/4/3 1224/4/3
f 1229/4/3 1225/4/3 1228/4/3
f 1230/4/3 1227/4/3 1226/4/3
f 1231/4/3 1227/4/3 1230/4/3
f 1232/14/4 1233/14/4 1236/14/4
f 1236/14/4 1233/14/4 1237/14/4
f 1234/14/4 1235/14/4 1238/14/4
f 1238/14/4 1235/14/4 1239/14/4
f 1236/4/4 1237/4/4 1240/4/4
f 1240/4/4 1237/4/4 1241/4/4
f 1238/4/4 1239/4/4 1242/4/4
f 1242/4/4 1239/4/4 1243/4/4
f 1244/4/4 1245/4/4 1248/4/4
f 1248/4/4 1245/4/4 1249/4/4
f 1246/4/4 1247/4/4 1250/4/4
f 1250/4/4 1247/4/4 1251/4/4
f 1252/9/4 1253/9/4 1254/9/4
f 1254/9/4 1253/9/4 1255/9/4
f 1256/10/4 1257/10/4 1260/10/4
f 1260/10/4 1257/10/4 1261/10/4
f 1258/14/4 1259/14/4 1262/14/4
f 1262/14/4 1259/14/4 1263/14/4
f 1264/10/4 1265/10/4 1266/10/4
f 1266/10/4 1265/10/4 1267/10/4
f 1268/11/4 1269/11/4 1272/11/4
f 1272/11/4 1269/11/4 1273/11/4
f 1270/8/4 1271/8/4 1274/8/4
f 1274/8/4 1271/8/4 1275/8/4
f 1275/8/4 1271/8/4 1276/8/4
f 1277/11/4 1278/11/4 1284/11/4
f 1278/14/4 1279/14/4 1285/14/4
f 1284/11/4 1278/11/4 1285/11/4
f 1285/14/4 1279/14/4 1286/14/4
f 1279/11/4 1280/11/4 1287/11/4
f 1286/14/4 1279/14/4 1287/14/4
f 1287/11/4 1280/11/4 1288/11/4
f 1280/14/4 1281/14/4 1289/14/4
f 1288/11/4 1280/11/4 1289/11/4
f 1289/14/4 1281/14/4 1290/14/4
f 1277/11/4 1284/11/4 1291/11/4
f 1284/6/4 1285/6/4 1292/6/4
f 1291/11/4 1284/11/4 1292/11/4
f 1285/14/4 1286/14/4 1293/14/4
f 1292/6/4 1285/6/4 1293/6/4
f 1287/11/4 1288/11/4 1294/11/4
f 1293/14/4 1286/14/4 1294/14/4
f 1286/11/4 1287/11/4 1294/11/4
f 1289/6/4 1290/6/4 1295/6/4
f 1294/11/4 1288/11/4 1295/11/4
f 1288/6/4 1289/6/4 1295/6/4
f 1290/14/4 1281/14/4 1296/14/4
f 1295/6/4 1290/6/4 1296/6/4
f 1296/14/4 1281/14/4 1297/14/4
f 1282/6/4 1283/6/4 1298/6/4
f 1298/6/4 1283/6/4 1299/6/4
f 1275/2/4 1276/2/4 1301/2/4
f 1301/2/4 1276/2/4 1302/2/4
f 1300/5/4 1301/5/4 1303/5/4
f 1301/5/4 1302/5/4 1303/5/4
f 1303/5/4 1302/5/4 1304/5/4
f 1304/5/4 1302/5/4 1305/5/4
f 1305/5/4 1302/5/4 1306/5/4
f 1303/14/4 1304/14/4 1307/14/4
f 1307/14/4 1304/14/4 1308/14/4
f 1305/14/4 1306/14/4 1309/14/4
f 1309/14/4 1306/14/4 1310/14/4
f 1307/4/4 1308/4/4 1311/4/4
f 1311/4/4 1308/4/4 1312/4/4
f 1309/4/4 1310/4/4 1313/4/4
f 1313/4/4 1310/4/4 1314/4/4
f 1315/4/4 1316/4/4 1319/4/4
f 1319/4/4 1316/4/4 1320/4/4
f 1317/4/4 1318/4/4 1321/4/4
f 1321/4/4 1318/4/4 1322/4/4
f 1327/6/4 1328/6/4 1330/6/4
f 1328/6/4 1329/6/4 1330/6/4
f 1330/6/4 1329/6/4 1331/6/4
f 1331/6/4 1329/6/4 1333/6/4
f 1323/11/4 1324/11/4 1336/11/4
f 1336/11/4 1324/11/4 1337/11/4
f 1325/11/4 1326/11/4 1338/11/4
f 1338/11/4 1326/11/4 1339/11/4
f 1332/6/4 1333/6/4 1340/6/4
f 1333/6/4 1329/6/4 1341/6/4
f 1340/6/4 1333/6/4 1341/6/4
f 1334/14/4 1335/14/4 1342/14/4
f 1342/14/4 1335/14/4 1343/14/4
f 1348/11/4 1349/11/4 1350/11/4
f 1350/11/4 1349/11/4 1351/11/4
f 1346/1/4 1347/1/4 1352/1/4
f 1352/1/4 1347/1/4 1353/1/4
f 1344/13/4 1345/13/4 1354/13/4
f 1354/13/4 1345/13/4 1355/13/4
f 1356/16/4 1357/16/4 1358/16/4
f 1358/16/4 1357/16/4 1359/16/4
f 1360/16/4 1361/16/4 1362/16/4
f 1362/16/4 1361/16/4 1363/16/4
f 1364/14/4 1365/14/4 1368/14/4
f 1368/14/4 1365/14/4 1369/14/4
f 1366/14/4 1367/14/4 1372/14/4
f 1372/14/4 1367/14/4 1373/14/4
f 1370/16/4 1371/16/4 1374/16/4
f 1374/16/4 1371/16/4 1375/16/4
f 1376/14/4 1377/14/4 1379/14/4
f 1379/14/4 1377/14/4 1380/14/4
f 1377/1/4 1378/1/4 1381/1/4
f 1380/14/4 1377/14/4 1381/14/4
f 1381/1/4 1378/1/4 1382/1/4
f 1382/1/4 1378/1/4 1383/1/4
f 1383/1/4 1378/1/4 1384/1/4
f 1384/1/4 1378/1/4 1385/1/4
f 1386/14/4 1387/14/4 1390/14/4
f 1390/14/4 1387/14/4 1391/14/4
f 1388/14/4 1389/14/4 1396/14/4
f 1396/14/4 1389/14/4 1397/14/4
f 1392/14/4 1393/14/4 1398/14/4
f 1394/1/4 1395/1/4 1399/1/4
f 1398/14/4 1393/14/4 1399/14/4
f 1393/1/4 1394/1/4 1399/1/4
f 1399/1/4 1395/1/4 1400/1/4
f 1401/3/4 1402/3/4 1403/3/4
f 1403/3/4 1402/3/4 1404/3/4
f 1404/3/4 1402/3/4 1405/3/4
f 1406/11/4 1407/11/4 1410/11/4
f 1410/11/4 1407/11/4 1411/11/4
f 1408/14/4 1409/14/4 1412/14/4
f 1412/14/4 1409/14/4 1413/14/4
f 1414/11/4 1415/11/4 1416/11/4
f 1416/11/4 1415/11/4 1417/11/4
f 1418/14/4 1419/14/4 1422/14/4
f 1422/14/4 1419/14/4 1423/14/4
f 1420/14/4 1421/14/4 1427/14/4
f 1427/14/4 1421/14/4 1428/14/4
f 1422/14/4 1423/14/4 1431/14/4
f 1423/14/4 1424/14/4 1431/14/4
f 1431/14/4 1424/14/4 1432/14/4
f 1425/16/4 1426/16/4 1433/16/4
f 1433/16/4 1426/16/4 1434/16/4
f 1429/14/4 1430/14/4 1435/14/4
f 1435/14/4 1430/14/4 1438/14/4
f 1438/14/4 1430/14/4 1439/14/4
f 1436/18/4 1437/18/4 1440/18/4
f 1440/18/4 1437/18/4 1441/18/4
f 1438/12/4 1439/12/4 1442/12/4
f 1439/12/4 1440/12/4 1442/12/4
f 1440/12/4 1441/12/4 1442/12/4
f 1442/12/4 1441/12/4 1443/12/4
f 1444/11/4 1445/11/4 1448/11/4
f 1448/11/4 1445/11/4 1449/11/4
f 1446/7/4 1447/7/4 1452/7/4
f 1452/7/4 1447/7/4 1453/7/4
f 1450/14/4 1451/14/4 1456/14/4
f 1456/14/4 1451/14/4 1457/14/4
f 1454/14/4 1455/14/4 1459/14/4
f 1459/14/4 1455/14/4 1460/14/4
f 1458/1/4 1459/1/4 1463/1/4
f 1463/1/4 1459/1/4 1464/1/4
f 1461/1/4 1462/1/4 1465/1/4
f 1465/1/4 1462/1/4 1466/1/4
f 1467/14/4 1468/14/4 1471/14/4
f 1471/14/4 1468/14/4 1472/14/4
f 1473/14/4 1474/14/4 1477/14/4
f 1477/14/4 1474/14/4 1478/14/4
f 1475/14/4 1476/14/4 1481/14/4
f 1481/14/4 1476/14/4 1482/14/4
f 1479/14/4 1480/14/4 1486/14/4
f 1486/14/4 1480/14/4 1487/14/4
f 1469/1/4 1470/1/4 1488/1/4
f 1488/1/4 1470/1/4 1489/1/4
f 1482/1/4 1483/1/4 1490/1/4
f 1490/1/4 1483/1/4 1491/1/4
f 1484/1/4 1485/1/4 1492/1/4
f 1492/1/4 1485/1/4 1493/1/4
f 1494/16/4 1495/16/4 1496/16/4
f 1496/16/4 1495/16/4 1497/16/4
f 1498/16/4 1499/16/4 1500/16/4
f 1500/16/4 1499/16/4 1501/16/4
f 1502/11/4 1503/11/4 1506/11/4
f 1506/11/4 1503/11/4 1507/11/4
f 1504/14/4 1505/14/4 1508/14/4
f 1508/14/4 1505/14/4 1509/14/4
f 1510/16/4 1511/16/4 1514/16/4
f 1514/16/4 1511/16/4 1515/16/4
f 1512/1/4 1513/1/4 1516/1/4
f 1516/1/4 1513/1/4 1517/1/4
f 1518/15/4 1519/15/4 1522/15/4
f 1521/14/4 1522/14/4 1523/14/4
f 1523/14/4 1522/14/4 1524/14/4
f 1522/15/4 1519/15/4 1525/15/4
f 1524/14/4 1522/14/4 1525/14/4
f 1523/11/4 1524/11/4 1528/11/4
f 1528/11/4 1524/11/4 1529/11/4
f 1525/15/4 1519/15/4 1530/15/4
f 1526/14/4 1527/14/4 1531/14/4
f 1531/14/4 1527/14/4 1532/14/4
f 1529/14/4 1530/14/4 1533/14/4
f 1528/14/4 1529/14/4 1533/14/4
f 1530/15/4 1519/15/4 1534/15/4
f 1533/14/4 1530/14/4 1534/14/4
f 1534/15/4 1519/15/4 1535/15/4
f 1519/1/4 1520/1/4 1536/1/4
f 1535/15/4 1519/15/4 1536/15/4
f 1536/1/4 1520/1/4 1537/1/4
f 1538/6/4 1539/6/4 1544/6/4
f 1540/6/4 1541/6/4 1545/6/4
f 1542/11/4 1543/11/4 1546/11/4
f 1546/11/4 1543/11/4 1547/11/4
f 1544/6/4 1545/6/4 1548/6/4
f 1538/6/4 1544/6/4 1548/6/4
f 1545/6/4 1541/6/4 1549/6/4
f 1548/6/4 1545/6/4 1549/6/4
f 1538/6/4 1548/6/4 1550/6/4
f 1550/6/4 1548/6/4 1551/6/4
f 1549/6/4 1541/6/4 1552/6/4
f 1552/6/4 1541/6/4 1553/6/4
f 1554/6/4 1555/6/4 1560/6/4
f 1560/6/4 1555/6/4 1561/6/4
f 1556/14/4 1557/14/4 1562/14/4
f 1562/14/4 1557/14/4 1563/14/4
f 1558/14/4 1559/14/4 1564/14/4
f 1564/14/4 1559/14/4 1565/14/4
f 1562/4/4 1563/4/4 1566/4/4
f 1566/4/4 1563/4/4 1567/4/4
f 1564/4/4 1565/4/4 1568/4/4
f 1568/4/4 1565/4/4 1569/4/4
f 1570/4/4 1571/4/4 1574/4/4
f 1574/4/4 1571/4/4 1575/4/4
f 1572/4/4 1573/4/4 1576/4/4
f 1576/4/4 1573/4/4 1577/4/4
f 1581/9/4 1582/9/4 1585/9/4
f 1585/9/4 1582/9/4 1586/9/4
f 1583/11/4 1584/11/4 1589/11/4
f 1589/11/4 1584/11/4 1590/11/4
f 1587/10/4 1588/10/4 1593/10/4
f 1593/10/4 1588/10/4 1594/10/4
f 1595/11/4 1596/11/4 1600/11/4
f 1596/14/4 1597/14/4 1601/14/4
f 1600/11/4 1596/11/4 1601/11/4
f 1601/14/4 1597/14/4 1602/14/4
f 1597/11/4 1598/11/4 1603/11/4
f 1602/14/4 1597/14/4 1603/14/4
f 1603/11/4 1598/11/4 1604/11/4
f 1598/14/4 1599/14/4 1605/14/4
f 1604/11/4 1598/11/4 1605/11/4
f 1605/14/4 1599/14/4 1606/14/4
f 1595/11/4 1600/11/4 1607/11/4
f 1600/6/4 1601/6/4 1608/6/4
f 1607/11/4 1600/11/4 1608/11/4
f 1601/14/4 1602/14/4 1609/14/4
f 1608/6/4 1601/6/4 1609/6/4
f 1603/11/4 1604/11/4 1610/11/4
f 1609/14/4 1602/14/4 1610/14/4
f 1602/11/4 1603/11/4 1610/11/4
f 1605/6/4 1606/6/4 1611/6/4
f 1610/11/4 1604/11/4 1611/11/4
f 1604/6/4 1605/6/4 1611/6/4
f 1606/14/4 1599/14/4 1612/14/4
f 1611/6/4 1606/6/4 1612/6/4
f 1612/14/4 1599/14/4 1613/14/4
f 1591/14/4 1592/14/4 1614/14/4
f 1614/14/4 1592/14/4 1615/14/4
f 1616/10/4 1617/10/4 1618/10/4
f 1618/10/4 1617/10/4 1619/10/4
f 1578/13/4 1579/13/4 1620/13/4
f 1579/6/4 1580/6/4 1621/6/4
f 1620/13/4 1579/13/4 1621/13/4
f 1621/6/4 1580/6/4 1622/6/4
f 1623/8/4 1624/8/4 1629/8/4
f 1629/8/4 1624/8/4 1630/8/4
f 1625/11/4 1626/11/4 1631/11/4
f 1631/11/4 1626/11/4 1632/11/4
f 1627/11/4 1628/11/4 1633/11/4
f 1633/11/4 1628/11/4 1634/11/4
f 1629/2/4 1630/2/4 1635/2/4
f 1635/2/4 1630/2/4 1636/2/4
f 1635/5/4 1636/5/4 1637/5/4
f 1637/5/4 1636/5/4 1638/5/4
f 1638/5/4 1636/5/4 1639/5/4
f 1639/5/4 1636/5/4 1640/5/4
f 1637/14/4 1638/14/4 1641/14/4
f 1641/14/4 1638/14/4 1642/14/4
f 1639/14/4 1640/14/4 1643/14/4
f 1643/14/4 1640/14/4 1644/14/4
f 1641/4/4 1642/4/4 1645/4/4
f 1645/4/4 1642/4/4 1646/4/4
f 1643/4/4 1644/4/4 1647/4/4
f 1647/4/4 1644/4/4 1648/4/4
f 1649/4/4 1650/4/4 1653/4/4
f 1653/4/4 1650/4/4 1654/4/4
f 1651/4/4 1652/4/4 1655/4/4
f 1655/4/4 1652/4/4 1656/4/4
f 1660/11/5 1658/11/5 1657/11/5
f 1661/11/5 1660/11/5 1659/11/5
f 1662/11/5 1658/11/5 1660/11/5
f 1662/11/5 1660/11/5 1661/11/5
f 1663/11/5 1658/11/5 1662/11/5
f 1664/11/5 1658/11/5 1663/11/5
f 1668/11/5 1666/11/5 1665/11/5
f 1669/11/5 1668/11/5 1667/11/5
f 1670/11/5 1666/11/5 1668/11/5
f 1670/11/5 1668/11/5 1669/11/5
f 1671/11/5 1666/11/5 1670/11/5
f 1672/11/5 1666/11/5 1671/11/5
f 1675/11/5 1674/11/5 1673/11/5
f 1676/11/5 1674/11/5 1675/11/5
f 1677/11/5 1675/11/5 1673/11/5
f 1678/11/5 1674/11/5 1676/11/5
f 1679/11/5 1677/11/5 1673/11/5
f 1679/11/5 1678/11/5 1677/11/5
f 1680/11/5 1674/11/5 1678/11/5
f 1680/11/5 1678/11/5 1679/11/5
f 1683/11/5 1682/11/5 1681/11/5
f 1684/11/5 1682/11/5 1683/11/5
f 1685/11/5 1683/11/5 1681/11/5
f 1686/11/5 1682/11/5 1684/11/5
f 1687/11/5 1685/11/5 1681/11/5
f 1687/11/5 1686/11/5 1685/11/5
f 1688/11/5 1682/11/5 1686/11/5
f 1688/11/5 1686/11/5 1687/11/5
f 1697/8/5 1690/8/5 1689/8/5
f 1697/2/5 1691/2/5 1690/2/5
f 1698/5/5 1692/5/5 1691/5/5
f 1698/2/5 1691/2/5 1697/2/5
f 1699/14/5 1693/14/5 1692/14/5
f 1699/5/5 1692/5/5 1698/5/5
f 1700/4/5 1694/4/5 1693/4/5
f 1700/14/5 1693/14/5 1699/14/5
f 1701/4/5 1694/4/5 1700/4/5
f 1702/4/5 1696/4/5 1695/4/5
f 1703/4/5 1696/4/5 1702/4/5
f 1704/8/5 1697/8/5 1689/8/5
f 1705/5/5 1699/5/5 1698/5/5
f 1706/5/5 1699/5/5 1705/5/5
f 1711/8/5 1704/8/5 1689/8/5
f 1712/2/5 1705/2/5 1704/2/5
f 1712/8/5 1704/8/5 1711/8/5
f 1713/5/5 1706/5/5 1705/5/5
f 1713/2/5 1705/2/5 1712/2/5
f 1714/14/5 1707/14/5 1706/14/5
f 1714/5/5 1706/5/5 1713/5/5
f 1715/4/5 1708/4/5 1707/4/5
f 1715/14/5 1707/14/5 1714/14/5
f 1716/4/5 1708/4/5 1715/4/5
f 1717/4/5 1710/4/5 1709/4/5
f 1718/4/5 1710/4/5 1717/4/5
f 1721/11/5 1720/11/5 1719/11/5
f 1722/11/5 1720/11/5 1721/11/5
f 1726/11/5 1724/11/5 1723/11/5
f 1727/11/5 1724/11/5 1726/11/5
f 1729/11/5 1726/11/5 1725/11/5
f 1729/11/5 1728/11/5 1727/11/5
f 1729/11/5 1727/11/5 1726/11/5
f 1730/11/5 1728/11/5 1729/11/5
f 1731/11/5 1728/11/5 1730/11/5
f 1732/11/5 1728/11/5 1731/11/5
f 1733/11/5 1731/11/5 1730/11/5
f 1734/11/5 1731/11/5 1733/11/5
f 1737/11/5 1736/11/5 1735/11/5
f 1738/11/5 1736/11/5 1737/11/5
f 1747/2/5 1741/2/5 1740/2/5
f 1747/8/5 1740/8/5 1739/8/5
f 1748/5/5 1742/5/5 1741/5/5
f 1748/2/5 1741/2/5 1747/2/5
f 1749/14/5 1743/14/5 1742/14/5
f 1749/5/5 1742/5/5 1748/5/5
f 1750/4/5 1744/4/5 1743/4/5
f 1750/14/5 1743/14/5 1749/14/5
f 1751/4/5 1744/4/5 1750/4/5
f 1752/4/5 1746/4/5 1745/4/5
f 1753/4/5 1746/4/5 1752/4/5
f 1754/8/5 1747/8/5 1739/8/5
f 1755/5/5 1749/5/5 1748/5/5
f 1756/5/5 1749/5/5 1755/5/5
f 1761/8/5 1754/8/5 1739/8/5
f 1762/2/5 1755/2/5 1754/2/5
f 1762/8/5 1754/8/5 1761/8/5
f 1763/5/5 1756/5/5 1755/5/5
f 1763/2/5 1755/2/5 1762/2/5
f 1764/14/5 1757/14/5 1756/14/5
f 1764/5/5 1756/5/5 1763/5/5
f 1765/4/5 1758/4/5 1757/4/5
f 1765/14/5 1757/14/5 1764/14/5
f 1766/4/5 1758/4/5 1765/4/5
f 1767/4/5 1760/4/5 1759/4/5
f 1768/4/5 1760/4/5 1767/4/5
f 1771/9/5 1770/9/5 1769/9/5
f 1772/9/5 1770/9/5 1771/9/5
f 1777/14/5 1774/14/5 1773/14/5
f 1778/14/5 1774/14/5 1777/14/5
f 1779/14/5 1776/14/5 1775/14/5
f 1780/14/5 1776/14/5 1779/14/5
f 1782/6/5 1778/6/5 1777/6/5
f 1783/11/5 1779/11/5 1778/11/5
f 1783/6/5 1778/6/5 1782/6/5
f 1784/16/5 1781/16/5 1780/16/5
f 1784/11/5 1779/11/5 1783/11/5
f 1784/16/5 1780/16/5 1779/16/5
f 1785/16/5 1781/16/5 1784/16/5
f 1786/16/5 1781/16/5 1785/16/5
f 1787/11/5 1783/11/5 1782/11/5
f 1787/11/5 1784/11/5 1783/11/5
f 1787/11/5 1785/11/5 1784/11/5
f 1788/11/5 1785/11/5 1787/11/5
f 1789/11/5 1787/11/5 1782/11/5
f 1790/11/5 1787/11/5 1789/11/5
f 1791/11/5 1785/11/5 1788/11/5
f 1792/11/5 1785/11/5 1791/11/5
f 1793/11/5 1789/11/5 1782/11/5
f 1796/11/5 1785/11/5 1792/11/5
f 1797/11/5 1794/11/5 1793/11/5
f 1797/11/5 1793/11/5 1782/11/5
f 1798/11/5 1794/11/5 1797/11/5
f 1799/11/5 1796/11/5 1795/11/5
f 1800/6/5 1798/6/5 1797/6/5
f 1800/6/5 1799/6/5 1798/6/5
f 1801/11/5 1796/11/5 1799/11/5
f 1801/6/5 1799/6/5 1800/6/5
f 1802/11/5 1785/11/5 1796/11/5
f 1802/11/5 1796/11/5 1801/11/5
f 1803/11/5 1785/11/5 1802/11/5
f 1805/6/5 1800/6/5 1797/6/5
f 1806/6/5 1800/6/5 1805/6/5
f 1807/11/5 1801/11/5 1800/11/5
f 1807/6/5 1800/6/5 1806/6/5
f 1807/11/5 1802/11/5 1801/11/5
f 1808/16/5 1804/16/5 1803/16/5
f 1808/11/5 1802/11/5 1807/11/5
f 1808/16/5 1803/16/5 1802/16/5
f 1809/16/5 1804/16/5 1808/16/5
f 1810/16/5 1804/16/5 1809/16/5
f 1811/14/5 1806/14/5 1805/14/5
f 1812/14/5 1806/14/5 1811/14/5
f 1813/14/5 1809/14/5 1808/14/5
f 1814/14/5 1809/14/5 1813/14/5
f 1817/9/5 1816/9/5 1815/9/5
f 1818/9/5 1816/9/5 1817/9/5
f 1824/14/5 1820/14/5 1819/14/5
f 1825/4/5 1821/4/5 1820/4/5
f 1825/14/5 1820/14/5 1824/14/5
f 1826/4/5 1821/4/5 1825/4/5
f 1827/4/5 1823/4/5 1822/4/5
f 1828/4/5 1823/4/5 1827/4/5
f 1834/14/5 1830/14/5 1829/14/5
f 1835/4/5 1831/4/5 1830/4/5
f 1835/14/5 1830/14/5 1834/14/5
f 1836/4/5 1831/4/5 1835/4/5
f 1837/4/5 1833/4/5 1832/4/5
f 1838/4/5 1833/4/5 1837/4/5
f 1841/14/5 1840/14/5 1839/14/5
f 1842/14/5 1840/14/5 1841/14/5
f 1845/3/5 1844/3/5 1843/3/5
f 1846/3/5 1844/3/5 1845/3/5
f 1851/14/5 1848/14/5 1847/14/5
f 1852/14/5 1848/14/5 1851/14/5
f 1853/14/5 1850/14/5 1849/14/5
f 1854/14/5 1850/14/5 1853/14/5
f 1860/14/5 1856/14/5 1855/14/5
f 1861/4/5 1857/4/5 1856/4/5
f 1861/14/5 1856/14/5 1860/14/5
f 1862/4/5 1857/4/5 1861/4/5
f 1863/4/5 1859/4/5 1858/4/5
f 1864/4/5 1859/4/5 1863/4/5
f 1870/14/5 1866/14/5 1865/14/5
f 1871/4/5 1867/4/5 1866/4/5
f 1871/14/5 1866/14/5 1870/14/5
f 1872/4/5 1867/4/5 1871/4/5
f 1873/4/5 1869/4/5 1868/4/5
f 1874/4/5 1869/4/5 1873/4/5
f 1879/15/5 1876/15/5 1875/15/5
f 1880/15/5 1876/15/5 1879/15/5
f 1881/15/5 1878/15/5 1877/15/5
f 1882/15/5 1878/15/5 1881/15/5
f 1883/14/5 1882/14/5 1881/14/5
f 1884/14/5 1882/14/5 1883/14/5
f 1887/16/5 1886/16/5 1885/16/5
f 1888/16/5 1886/16/5 1887/16/5
f 1895/15/5 1890/15/5 1889/15/5
f 1896/15/5 1890/15/5 1895/15/5
f 1897/15/5 1894/15/5 1893/15/5
f 1898/15/5 1894/15/5 1897/15/5
f 1899/15/5 1892/15/5 1891/15/5
f 1900/15/5 1892/15/5 1899/15/5
f 1903/1/5 1902/1/5 1901/1/5
f 1904/1/5 1902/1/5 1903/1/5
f 1909/16/5 1906/16/5 1905/16/5
f 1910/16/5 1906/16/5 1909/16/5
f 1911/16/5 1908/16/5 1907/16/5
f 1912/16/5 1908/16/5 1911/16/5
f 1917/16/5 1914/16/5 1913/16/5
f 1918/16/5 1914/16/5 1917/16/5
f 1919/16/5 1916/16/5 1915/16/5
f 1920/16/5 1916/16/5 1919/16/5
f 1923/1/5 1922/1/5 1921/1/5
f 1924/1/5 1922/1/5 1923/1/5
f 1927/1/5 1926/1/5 1925/1/5
f 1928/1/5 1926/1/5 1927/1/5
f 1931/13/5 1930/13/5 1929/13/5
f 1932/13/5 1930/13/5 1931/13/5
f 1935/13/5 1934/13/5 1933/13/5
f 1936/13/5 1934/13/5 1935/13/5
f 1939/6/5 1938/6/5 1937/6/5
f 1940/6/5 1938/6/5 1939/6/5
f 1941/6/5 1939/6/5 1937/6/5
f 1942/6/5 1938/6/5 1940/6/5
f 1943/6/5 1941/6/5 1937/6/5
f 1943/6/5 1942/6/5 1941/6/5
f 1944/6/5 1938/6/5 1942/6/5
f 1944/6/5 1942/6/5 1943/6/5
f 1947/6/5 1946/6/5 1945/6/5
f 1948/6/5 1946/6/5 1947/6/5
f 1952/14/5 1950/14/5 1949/14/5
f 1953/12/5 1951/12/5 1950/12/5
f 1953/14/5 1950/14/5 1952/14/5
f 1954/12/5 1951/12/5 1953/12/5
f 1957/17/5 1956/17/5 1955/17/5
f 1958/17/5 1956/17/5 1957/17/5
f 1963/10/5 1960/10/5 1959/10/5
f 1964/10/5 1960/10/5 1963/10/5
f 1965/10/5 1962/10/5 1961/10/5
f 1966/10/5 1962/10/5 1965/10/5
f 1967/14/5 1964/14/5 1963/14/5
f 1968/14/5 1964/14/5 1967/14/5
f 1969/14/5 1966/14/5 1965/14/5
f 1970/14/5 1966/14/5 1969/14/5
f 1975/14/5 1972/14/5 1971/14/5
f 1976/14/5 1972/14/5 1975/14/5
f 1977/14/5 1974/14/5 1973/14/5
f 1978/14/5 1974/14/5 1977/14/5
f 1979/10/5 1976/10/5 1975/10/5
f 1980/10/5 1976/10/5 1979/10/5
f 1981/10/5 1978/10/5 1977/10/5
f 1982/10/5 1978/10/5 1981/10/5
f 1985/6/5 1984/6/5 1983/6/5
f 1986/6/5 1984/6/5 1985/6/5
f 1990/14/5 1988/14/5 1987/14/5
f 1991/1/5 1989/1/5 1988/1/5
f 1991/14/5 1988/14/5 1990/14/5
f 1992/1/5 1989/1/5 1991/1/5
f 1994/18/5 1992/18/5 1991/18/5
f 1995/18/5 1992/18/5 1994/18/5
f 1996/14/5 1994/14/5 1993/14/5
f 1997/1/5 1995/1/5 1994/1/5
f 1997/14/5 1994/14/5 1996/14/5
f 1998/1/5 1995/1/5 1997/1/5
f 2001/1/5 2000/1/5 1999/1/5
f 2002/1/5 2000/1/5 2001/1/5
f 2007/14/5 2004/14/5 2003/14/5
f 2008/14/5 2004/14/5 2007/14/5
f 2009/18/5 2006/18/5 2005/18/5
f 2010/18/5 2006/18/5 2009/18/5
f 2013/1/5 2012/1/5 2011/1/5
f 2014/1/5 2012/1/5 2013/1/5
f 2017/1/5 2016/1/5 2015/1/5
f 2018/1/5 2016/1/5 2017/1/5
f 2021/14/5 2020/14/5 2019/14/5
f 2022/14/5 2020/14/5 2021/14/5
f 2025/1/5 2024/1/5 2023/1/5
f 2026/1/5 2024/1/5 2025/1/5
f 2029/14/5 2028/14/5 2027/14/5
f 2030/14/5 2028/14/5 2029/14/5
f 2033/14/5 2032/14/5 2031/14/5
f 2034/14/5 2032/14/5 2033/14/5
f 2037/14/5 2036/14/5 2035/14/5
f 2038/14/5 2036/14/5 2037/14/5
f 2041/14/5 2040/14/5 2039/14/5
f 2042/14/5 2040/14/5 2041/14/5
f 2045/14/5 2044/14/5 2043/14/5
f 2046/14/5 2044/14/5 2045/14/5
f 2049/14/5 2048/14/5 2047/14/5
f 2050/14/5 2048/14/5 2049/14/5
f 2053/14/5 2052/14/5 2051/14/5
f 2054/14/5 2052/14/5 2053/14/5
f 2057/14/5 2056/14/5 2055/14/5
f 2058/14/5 2056/14/5 2057/14/5
f 2059/11/6 2060/11/6 2062/11/6
f 2062/11/6 2060/11/6 2063/11/6
f 2063/11/6 2060/11/6 2064/11/6
f 2061/11/6 2062/11/6 2065/11/6
f 2062/11/6 2063/11/6 2065/11/6
f 2065/11/6 2063/11/6 2066/11/6
f 2066/11/6 2063/11/6 2067/11/6
f 2064/11/6 2060/11/6 2068/11/6
f 2066/11/6 2067/11/6 2069/11/6
f 2067/11/6 2068/11/6 2069/11/6
f 2068/11/6 2060/11/6 2070/11/6
f 2069/11/6 2068/11/6 2070/11/6
f 2071/11/6 2072/11/6 2074/11/6
f 2074/11/6 2072/11/6 2075/11/6
f 2075/11/6 2072/11/6 2076/11/6
f 2073/11/6 2074/11/6 2077/11/6
f 2074/11/6 2075/11/6 2077/11/6
f 2077/11/6 2075/11/6 2078/11/6
f 2078/11/6 2075/11/6 2079/11/6
f 2076/11/6 2072/11/6 2080/11/6
f 2078/11/6 2079/11/6 2081/11/6
f 2079/11/6 2080/11/6 2081/11/6
f 2080/11/6 2072/11/6 2082/11/6
f 2081/11/6 2080/11/6 2082/11/6
f 2083/11/6 2084/11/6 2085/11/6
f 2085/11/6 2084/11/6 2086/11/6
f 2087/11/6 2088/11/6 2089/11/6
f 2089/11/6 2088/11/6 2090/11/6
f 2091/11/6 2092/11/6 2093/11/6
f 2093/11/6 2092/11/6 2094/11/6
f 2095/11/6 2096/11/6 2097/11/6
f 2097/11/6 2096/11/6 2098/11/6
f 2099/14/6 2100/14/6 2104/14/6
f 2100/4/6 2101/4/6 2105/4/6
f 2104/14/6 2100/14/6 2105/14/6
f 2105/4/6 2101/4/6 2106/4/6
f 2102/4/6 2103/4/6 2107/4/6
f 2107/4/6 2103/4/6 2108/4/6
f 2109/14/6 2110/14/6 2116/14/6
f 2110/4/6 2111/4/6 2117/4/6
f 2116/14/6 2110/14/6 2117/14/6
f 2117/4/6 2111/4/6 2118/4/6
f 2112/4/6 2113/4/6 2119/4/6
f 2119/4/6 2113/4/6 2120/4/6
f 2114/11/6 2115/11/6 2121/11/6
f 2121/11/6 2115/11/6 2122/11/6
f 2123/11/6 2124/11/6 2125/11/6
f 2125/11/6 2124/11/6 2126/11/6
f 2127/14/6 2128/14/6 2132/14/6
f 2128/4/6 2129/4/6 2133/4/6
f 2132/14/6 2128/14/6 2133/14/6
f 2133/4/6 2129/4/6 2134/4/6
f 2130/4/6 2131/4/6 2135/4/6
f 2135/4/6 2131/4/6 2136/4/6
f 2137/14/6 2138/14/6 2142/14/6
f 2138/4/6 2139/4/6 2143/4/6
f 2142/14/6 2138/14/6 2143/14/6
f 2143/4/6 2139/4/6 2144/4/6
f 2140/4/6 2141/4/6 2145/4/6
f 2145/4/6 2141/4/6 2146/4/6
f 2147/9/6 2148/9/6 2149/9/6
f 2149/9/6 2148/9/6 2150/9/6
f 2151/11/6 2152/11/6 2153/11/6
f 2153/11/6 2152/11/6 2154/11/6
f 2155/16/6 2156/16/6 2157/16/6
f 2157/16/6 2156/16/6 2158/16/6
f 2159/16/6 2160/16/6 2163/16/6
f 2163/16/6 2160/16/6 2164/16/6
f 2161/11/6 2162/11/6 2165/11/6
f 2165/11/6 2162/11/6 2166/11/6
f 2167/9/6 2168/9/6 2169/9/6
f 2169/9/6 2168/9/6 2170/9/6
f 2173/5/6 2174/5/6 2179/5/6
f 2174/14/6 2175/14/6 2179/14/6
f 2175/4/6 2176/4/6 2180/4/6
f 2179/14/6 2175/14/6 2180/14/6
f 2180/4/6 2176/4/6 2181/4/6
f 2177/4/6 2178/4/6 2182/4/6
f 2182/4/6 2178/4/6 2183/4/6
f 2173/5/6 2179/5/6 2184/5/6
f 2171/8/6 2172/8/6 2189/8/6
f 2172/2/6 2173/2/6 2190/2/6
f 2189/8/6 2172/8/6 2190/8/6
f 2173/5/6 2184/5/6 2191/5/6
f 2190/2/6 2173/2/6 2191/2/6
f 2184/14/6 2185/14/6 2192/14/6
f 2191/5/6 2184/5/6 2192/5/6
f 2185/4/6 2186/4/6 2193/4/6
f 2192/14/6 2185/14/6 2193/14/6
f 2193/4/6 2186/4/6 2194/4/6
f 2187/4/6 2188/4/6 2195/4/6
f 2195/4/6 2188/4/6 2196/4/6
f 2199/5/6 2200/5/6 2205/5/6
f 2200/14/6 2201/14/6 2205/14/6
f 2201/4/6 2202/4/6 2206/4/6
f 2205/14/6 2201/14/6 2206/14/6
f 2206/4/6 2202/4/6 2207/4/6
f 2203/4/6 2204/4/6 2208/4/6
f 2208/4/6 2204/4/6 2209/4/6
f 2199/5/6 2205/5/6 2210/5/6
f 2197/8/6 2198/8/6 2215/8/6
f 2198/2/6 2199/2/6 2216/2/6
f 2215/8/6 2198/8/6 2216/8/6
f 2199/5/6 2210/5/6 2217/5/6
f 2216/2/6 2199/2/6 2217/2/6
f 2210/14/6 2211/14/6 2218/14/6
f 2217/5/6 2210/5/6 2218/5/6
f 2211/4/6 2212/4/6 2219/4/6
f 2218/14/6 2211/14/6 2219/14/6
f 2219/4/6 2212/4/6 2220/4/6
f 2213/4/6 2214/4/6 2221/4/6
f 2221/4/6 2214/4/6 2222/4/6
f 2223/3/6 2224/3/6 2227/3/6
f 2227/3/6 2224/3/6 2228/3/6
f 2225/16/6 2226/16/6 2229/16/6
f 2229/16/6 2226/16/6 2230/16/6
f 2231/1/6 2232/1/6 2233/1/6
f 2233/1/6 2232/1/6 2234/1/6
f 2235/6/6 2236/6/6 2237/6/6
f 2237/6/6 2236/6/6 2238/6/6
f 2239/1/6 2240/1/6 2241/1/6
f 2241/1/6 2240/1/6 2242/1/6
f 2243/16/6 2244/16/6 2247/16/6
f 2247/16/6 2244/16/6 2248/16/6
f 2245/16/6 2246/16/6 2249/16/6
f 2249/16/6 2246/16/6 2250/16/6
f 2251/16/6 2252/16/6 2255/16/6
f 2255/16/6 2252/16/6 2256/16/6
f 2253/16/6 2254/16/6 2257/16/6
f 2257/16/6 2254/16/6 2258/16/6
f 2259/1/6 2260/1/6 2261/1/6
f 2261/1/6 2260/1/6 2262/1/6
f 2262/1/6 2260/1/6 2263/1/6
f 2263/1/6 2260/1/6 2264/1/6
f 2264/1/6 2260/1/6 2265/1/6
f 2265/1/6 2260/1/6 2266/1/6
f 2262/14/6 2263/14/6 2267/14/6
f 2267/14/6 2263/14/6 2268/14/6
f 2264/14/6 2265/14/6 2269/14/6
f 2269/14/6 2265/14/6 2270/14/6
f 2271/14/6 2272/14/6 2276/14/6
f 2276/14/6 2272/14/6 2277/14/6
f 2273/14/6 2274/14/6 2278/14/6
f 2278/14/6 2274/14/6 2279/14/6
f 2278/1/6 2279/1/6 2281/1/6
f 2279/1/6 2280/1/6 2281/1/6
f 2277/1/6 2278/1/6 2281/1/6
f 2276/1/6 2277/1/6 2281/1/6
f 2275/1/6 2276/1/6 2281/1/6
f 2281/1/6 2280/1/6 2282/1/6
f 2283/14/6 2284/14/6 2287/14/6
f 2287/14/6 2284/14/6 2288/14/6
f 2285/14/6 2286/14/6 2289/14/6
f 2289/14/6 2286/14/6 2290/14/6
f 2291/6/6 2292/6/6 2293/6/6
f 2293/6/6 2292/6/6 2294/6/6
f 2295/6/6 2296/6/6 2298/6/6
f 2298/6/6 2296/6/6 2299/6/6
f 2297/6/6 2298/6/6 2301/6/6
f 2299/6/6 2300/6/6 2301/6/6
f 2298/6/6 2299/6/6 2301/6/6
f 2301/6/6 2300/6/6 2302/6/6
f 2297/6/6 2301/6/6 2303/6/6
f 2303/6/6 2301/6/6 2304/6/6
f 2291/6/6 2293/6/6 2305/6/6
f 2294/6/6 2292/6/6 2306/6/6
f 2291/6/6 2305/6/6 2307/6/6
f 2305/6/6 2306/6/6 2307/6/6
f 2306/6/6 2292/6/6 2308/6/6
f 2307/6/6 2306/6/6 2308/6/6
f 2309/6/6 2310/6/6 2311/6/6
f 2311/6/6 2310/6/6 2312/6/6
f 2312/6/6 2310/6/6 2313/6/6
f 2313/6/6 2310/6/6 2314/6/6
f 2317/17/6 2318/17/6 2319/17/6
f 2319/17/6 2318/17/6 2320/17/6
f 2309/6/6 2311/6/6 2321/6/6
f 2315/6/6 2316/6/6 2322/6/6
f 2309/6/6 2321/6/6 2323/6/6
f 2321/6/6 2322/6/6 2323/6/6
f 2322/6/6 2316/6/6 2324/6/6
f 2323/6/6 2322/6/6 2324/6/6
f 2325/17/6 2326/17/6 2327/17/6
f 2327/17/6 2326/17/6 2328/17/6
f 2329/14/6 2330/14/6 2333/14/6
f 2333/14/6 2330/14/6 2334/14/6
f 2331/14/6 2332/14/6 2335/14/6
f 2335/14/6 2332/14/6 2336/14/6
f 2337/14/6 2338/14/6 2339/14/6
f 2339/14/6 2338/14/6 2340/14/6
f 2341/14/6 2342/14/6 2345/14/6
f 2345/14/6 2342/14/6 2346/14/6
f 2343/14/6 2344/14/6 2347/14/6
f 2347/14/6 2344/14/6 2348/14/6
f 2349/6/6 2350/6/6 2351/6/6
f 2351/6/6 2350/6/6 2352/6/6
f 2349/6/6 2351/6/6 2353/6/6
f 2349/6/6 2353/6/6 2355/6/6
f 2353/6/6 2354/6/6 2355/6/6
f 2355/6/6 2354/6/6 2356/6/6
f 2349/6/6 2355/6/6 2357/6/6
f 2349/6/6 2357/6/6 2359/6/6
f 2357/6/6 2358/6/6 2359/6/6
f 2359/6/6 2358/6/6 2360/6/6
f 2361/10/6 2362/10/6 2365/10/6
f 2365/10/6 2362/10/6 2366/10/6
f 2363/10/6 2364/10/6 2367/10/6
f 2367/10/6 2364/10/6 2368/10/6
f 2369/10/6 2370/10/6 2373/10/6
f 2373/10/6 2370/10/6 2374/10/6
f 2371/10/6 2372/10/6 2375/10/6
f 2375/10/6 2372/10/6 2376/10/6
f 2377/14/6 2378/14/6 2379/14/6
f 2379/14/6 2378/14/6 2380/14/6
f 2381/14/6 2382/14/6 2383/14/6
f 2383/14/6 2382/14/6 2384/14/6
f 2385/14/6 2386/14/6 2387/14/6
f 2387/14/6 2386/14/6 2388/14/6
f 2389/14/6 2390/14/6 2391/14/6
f 2391/14/6 2390/14/6 2392/14/6
f 2393/18/6 2394/18/6 2396/18/6
f 2394/12/6 2395/12/6 2397/12/6
f 2396/18/6 2394/18/6 2397/18/6
f 2397/12/6 2395/12/6 2398/12/6
f 2399/1/6 2400/1/6 2401/1/6
f 2401/1/6 2400/1/6 2402/1/6
f 2403/14/6 2404/14/6 2406/14/6
f 2404/14/6 2405/14/6 2406/14/6
f 2406/14/6 2405/14/6 2407/14/6
f 2407/14/6 2405/14/6 2408/14/6
f 2409/1/6 2410/1/6 2411/1/6
f 2411/1/6 2410/1/6 2412/1/6
f 2413/1/6 2414/1/6 2417/1/6
f 2417/1/6 2414/1/6 2418/1/6
f 2415/14/6 2416/14/6 2419/14/6
f 2419/14/6 2416/14/6 2420/14/6
f 2421/14/6 2422/14/6 2423/14/6
f 2423/14/6 2422/14/6 2424/14/6
f 2425/1/6 2426/1/6 2427/1/6
f 2427/1/6 2426/1/6 2428/1/6
f 2429/14/6 2430/14/6 2431/14/6
f 2431/14/6 2430/14/6 2432/14/6
f 2433/1/6 2434/1/6 2435/1/6
f 2435/1/6 2434/1/6 2436/1/6
f 2435/18/6 2436/18/6 2437/18/6
f 2437/18/6 2436/18/6 2438/18/6
f 2437/1/6 2438/1/6 2441/1/6
f 2441/1/6 2438/1/6 2442/1/6
f 2439/14/6 2440/14/6 2443/14/6
f 2443/14/6 2440/14/6 2444/14/6
f 2445/14/6 2446/14/6 2447/14/6
f 2447/14/6 2446/14/6 2448/14/6
f 2449/14/6 2450/14/6 2451/14/6
f 2451/14/6 2450/14/6 2452/14/6
