# MagicaVoxel @ Ephtracy

# group
o 

# material
mtllib CR-like-chicken.mtl
usemtl palette

# normals
vn -1 0 0
vn 1 0 0
vn 0 0 1
vn 0 0 -1
vn 0 -1 0
vn 0 1 0

# texcoords
vt 0.0644531 0.5
vt 0.173828 0.5
vt 0.912109 0.5
vt 0.994141 0.5

# verts
v -0.6 0.6 -0.3
v -0.6 0.6 -0.8
v -0.6 0.8 -0.3
v -0.6 0.8 -0.8
v -0.5 0 -0.1
v -0.5 0 -0.7
v -0.5 0.1 -0.1
v -0.5 0.1 -0.7
v -0.4 0.1 -0.5
v -0.4 0.1 -0.6
v -0.4 0.5 -0.1
v -0.4 0.5 -0.5
v -0.4 0.5 -0.6
v -0.4 0.5 -1.1
v -0.4 0.6 -0.3
v -0.4 0.6 -0.8
v -0.4 0.8 -0.3
v -0.4 0.8 -0.8
v -0.4 1 -0.7
v -0.4 1 -1.1
v -0.4 1.7 -0.1
v -0.4 1.7 -0.7
v -0.3 0 -0.1
v -0.3 0 -0.4
v -0.3 0.1 -0.1
v -0.3 0.1 -0.4
v -0.2 0.5 -1.1
v -0.2 0.5 -1.3
v -0.2 1 -1.1
v -0.2 1 -1.3
v -0.0999999 0.9 0.0999999
v -0.0999999 0.9 -0.1
v -0.0999999 1.1 0.2
v -0.0999999 1.1 0.0999999
v -0.0999999 1.1 -0.1
v -0.0999999 1.3 0.2
v -0.0999999 1.3 -0.1
v -0.0999999 1.7 -0.2
v -0.0999999 1.7 -0.6
v -0.0999999 1.9 -0.2
v -0.0999999 1.9 -0.6
v 0.2 0 -0.1
v 0.2 0 -0.7
v 0.2 0.1 -0.1
v 0.2 0.1 -0.7
v 0.3 0.1 -0.5
v 0.3 0.1 -0.6
v 0.3 0.5 -0.5
v 0.3 0.5 -0.6
v 0.4 0 -0.1
v 0.4 0 -0.4
v 0.4 0.1 -0.1
v 0.4 0.1 -0.4
v -0.4 0 -0.1
v -0.4 0 -0.4
v -0.4 0.1 -0.1
v -0.4 0.1 -0.4
v -0.3 0.1 -0.5
v -0.3 0.1 -0.6
v -0.3 0.5 -0.5
v -0.3 0.5 -0.6
v -0.2 0 -0.1
v -0.2 0 -0.7
v -0.2 0.1 -0.1
v -0.2 0.1 -0.7
v 0.1 0.9 0.0999999
v 0.1 0.9 -0.1
v 0.1 1.1 0.2
v 0.1 1.1 0.0999999
v 0.1 1.1 -0.1
v 0.1 1.3 0.2
v 0.1 1.3 -0.1
v 0.1 1.7 -0.2
v 0.1 1.7 -0.6
v 0.1 1.9 -0.2
v 0.1 1.9 -0.6
v 0.2 0.5 -1.1
v 0.2 0.5 -1.3
v 0.2 1 -1.1
v 0.2 1 -1.3
v 0.3 0 -0.1
v 0.3 0 -0.4
v 0.3 0.1 -0.1
v 0.3 0.1 -0.4
v 0.4 0.1 -0.5
v 0.4 0.1 -0.6
v 0.4 0.5 -0.1
v 0.4 0.5 -0.5
v 0.4 0.5 -0.6
v 0.4 0.5 -1.1
v 0.4 0.6 -0.3
v 0.4 0.6 -0.8
v 0.4 0.8 -0.3
v 0.4 0.8 -0.8
v 0.4 1 -0.7
v 0.4 1 -1.1
v 0.4 1.7 -0.1
v 0.4 1.7 -0.7
v 0.5 0 -0.1
v 0.5 0 -0.7
v 0.5 0.1 -0.1
v 0.5 0.1 -0.7
v 0.6 0.6 -0.3
v 0.6 0.6 -0.8
v 0.6 0.8 -0.3
v 0.6 0.8 -0.8
v -0.0999999 1.1 0.2
v -0.0999999 1.3 0.2
v 0.1 1.1 0.2
v 0.1 1.3 0.2
v -0.0999999 0.9 0.0999999
v -0.0999999 1.1 0.0999999
v 0.1 0.9 0.0999999
v 0.1 1.1 0.0999999
v -0.5 0 -0.1
v -0.5 0.1 -0.1
v -0.4 0 -0.1
v -0.4 0.1 -0.1
v -0.4 0.5 -0.1
v -0.4 1.7 -0.1
v -0.3 0 -0.1
v -0.3 0.1 -0.1
v -0.3 1.4 -0.1
v -0.3 1.5 -0.1
v -0.2 0 -0.1
v -0.2 0.1 -0.1
v -0.2 1.4 -0.1
v -0.2 1.5 -0.1
v -0.0999999 0.9 -0.1
v -0.0999999 1.1 -0.1
v -0.0999999 1.3 -0.1
v 0.1 0.9 -0.1
v 0.1 1.1 -0.1
v 0.1 1.3 -0.1
v 0.2 0 -0.1
v 0.2 0.1 -0.1
v 0.2 1.4 -0.1
v 0.2 1.5 -0.1
v 0.3 0 -0.1
v 0.3 0.1 -0.1
v 0.3 1.4 -0.1
v 0.3 1.5 -0.1
v 0.4 0 -0.1
v 0.4 0.1 -0.1
v 0.4 0.5 -0.1
v 0.4 1.7 -0.1
v 0.5 0 -0.1
v 0.5 0.1 -0.1
v -0.0999999 1.7 -0.2
v -0.0999999 1.9 -0.2
v 0.1 1.7 -0.2
v 0.1 1.9 -0.2
v -0.6 0.6 -0.3
v -0.6 0.8 -0.3
v -0.4 0.6 -0.3
v -0.4 0.8 -0.3
v 0.4 0.6 -0.3
v 0.4 0.8 -0.3
v 0.6 0.6 -0.3
v 0.6 0.8 -0.3
v -0.4 0 -0.4
v -0.4 0.1 -0.4
v -0.3 0 -0.4
v -0.3 0.1 -0.4
v 0.3 0 -0.4
v 0.3 0.1 -0.4
v 0.4 0 -0.4
v 0.4 0.1 -0.4
v -0.4 0.1 -0.5
v -0.4 0.5 -0.5
v -0.3 0.1 -0.5
v -0.3 0.5 -0.5
v 0.3 0.1 -0.5
v 0.3 0.5 -0.5
v 0.4 0.1 -0.5
v 0.4 0.5 -0.5
v -0.4 0.1 -0.6
v -0.4 0.5 -0.6
v -0.3 0.1 -0.6
v -0.3 0.5 -0.6
v -0.0999999 1.7 -0.6
v -0.0999999 1.9 -0.6
v 0.1 1.7 -0.6
v 0.1 1.9 -0.6
v 0.3 0.1 -0.6
v 0.3 0.5 -0.6
v 0.4 0.1 -0.6
v 0.4 0.5 -0.6
v -0.5 0 -0.7
v -0.5 0.1 -0.7
v -0.4 1 -0.7
v -0.4 1.7 -0.7
v -0.2 0 -0.7
v -0.2 0.1 -0.7
v 0.2 0 -0.7
v 0.2 0.1 -0.7
v 0.4 1 -0.7
v 0.4 1.7 -0.7
v 0.5 0 -0.7
v 0.5 0.1 -0.7
v -0.6 0.6 -0.8
v -0.6 0.8 -0.8
v -0.4 0.6 -0.8
v -0.4 0.8 -0.8
v 0.4 0.6 -0.8
v 0.4 0.8 -0.8
v 0.6 0.6 -0.8
v 0.6 0.8 -0.8
v -0.4 0.5 -1.1
v -0.4 1 -1.1
v -0.2 0.5 -1.1
v -0.2 1 -1.1
v 0.2 0.5 -1.1
v 0.2 1 -1.1
v 0.4 0.5 -1.1
v 0.4 1 -1.1
v -0.2 0.5 -1.3
v -0.2 1 -1.3
v 0.2 0.5 -1.3
v 0.2 1 -1.3
v -0.5 0 -0.1
v -0.4 0 -0.1
v -0.3 0 -0.1
v -0.2 0 -0.1
v 0.2 0 -0.1
v 0.3 0 -0.1
v 0.4 0 -0.1
v 0.5 0 -0.1
v -0.4 0 -0.4
v -0.3 0 -0.4
v 0.3 0 -0.4
v 0.4 0 -0.4
v -0.5 0 -0.7
v -0.2 0 -0.7
v 0.2 0 -0.7
v 0.5 0 -0.7
v -0.4 0.5 -0.1
v 0.4 0.5 -0.1
v -0.4 0.5 -0.5
v -0.3 0.5 -0.5
v 0.3 0.5 -0.5
v 0.4 0.5 -0.5
v -0.4 0.5 -0.6
v -0.3 0.5 -0.6
v 0.3 0.5 -0.6
v 0.4 0.5 -0.6
v -0.4 0.5 -1.1
v -0.2 0.5 -1.1
v 0.2 0.5 -1.1
v 0.4 0.5 -1.1
v -0.2 0.5 -1.3
v 0.2 0.5 -1.3
v -0.6 0.6 -0.3
v -0.4 0.6 -0.3
v 0.4 0.6 -0.3
v 0.6 0.6 -0.3
v -0.6 0.6 -0.8
v -0.4 0.6 -0.8
v 0.4 0.6 -0.8
v 0.6 0.6 -0.8
v -0.0999999 0.9 0.0999999
v 0.1 0.9 0.0999999
v -0.0999999 0.9 -0.1
v 0.1 0.9 -0.1
v -0.0999999 1.1 0.2
v 0.1 1.1 0.2
v -0.0999999 1.1 0.0999999
v 0.1 1.1 0.0999999
v -0.5 0.1 -0.1
v -0.4 0.1 -0.1
v -0.3 0.1 -0.1
v -0.2 0.1 -0.1
v 0.2 0.1 -0.1
v 0.3 0.1 -0.1
v 0.4 0.1 -0.1
v 0.5 0.1 -0.1
v -0.4 0.1 -0.4
v -0.3 0.1 -0.4
v 0.3 0.1 -0.4
v 0.4 0.1 -0.4
v -0.4 0.1 -0.5
v -0.3 0.1 -0.5
v 0.3 0.1 -0.5
v 0.4 0.1 -0.5
v -0.4 0.1 -0.6
v -0.3 0.1 -0.6
v 0.3 0.1 -0.6
v 0.4 0.1 -0.6
v -0.5 0.1 -0.7
v -0.2 0.1 -0.7
v 0.2 0.1 -0.7
v 0.5 0.1 -0.7
v -0.6 0.8 -0.3
v -0.4 0.8 -0.3
v 0.4 0.8 -0.3
v 0.6 0.8 -0.3
v -0.6 0.8 -0.8
v -0.4 0.8 -0.8
v 0.4 0.8 -0.8
v 0.6 0.8 -0.8
v -0.4 1 -0.7
v 0.4 1 -0.7
v -0.4 1 -1.1
v -0.2 1 -1.1
v 0.2 1 -1.1
v 0.4 1 -1.1
v -0.2 1 -1.3
v 0.2 1 -1.3
v -0.0999999 1.3 0.2
v 0.1 1.3 0.2
v -0.0999999 1.3 -0.1
v 0.1 1.3 -0.1
v -0.4 1.7 -0.1
v 0.4 1.7 -0.1
v -0.0999999 1.7 -0.2
v 0.1 1.7 -0.2
v -0.0999999 1.7 -0.6
v 0.1 1.7 -0.6
v -0.4 1.7 -0.7
v 0.4 1.7 -0.7
v -0.0999999 1.9 -0.2
v 0.1 1.9 -0.2
v -0.0999999 1.9 -0.6
v 0.1 1.9 -0.6

# faces
f 3/3/1 2/3/1 1/3/1
f 4/3/1 2/3/1 3/3/1
f 7/2/1 6/2/1 5/2/1
f 8/2/1 6/2/1 7/2/1
f 12/2/1 10/2/1 9/2/1
f 13/2/1 10/2/1 12/2/1
f 15/3/1 12/3/1 11/3/1
f 15/3/1 14/3/1 13/3/1
f 15/3/1 13/3/1 12/3/1
f 16/3/1 14/3/1 15/3/1
f 17/3/1 15/3/1 11/3/1
f 18/3/1 14/3/1 16/3/1
f 19/3/1 18/3/1 17/3/1
f 20/3/1 14/3/1 18/3/1
f 20/3/1 18/3/1 19/3/1
f 21/3/1 17/3/1 11/3/1
f 21/3/1 19/3/1 17/3/1
f 22/3/1 19/3/1 21/3/1
f 25/2/1 24/2/1 23/2/1
f 26/2/1 24/2/1 25/2/1
f 29/3/1 28/3/1 27/3/1
f 30/3/1 28/3/1 29/3/1
f 34/1/1 32/1/1 31/1/1
f 35/1/1 32/1/1 34/1/1
f 36/2/1 34/2/1 33/2/1
f 36/2/1 35/2/1 34/2/1
f 37/2/1 35/2/1 36/2/1
f 40/1/1 39/1/1 38/1/1
f 41/1/1 39/1/1 40/1/1
f 44/2/1 43/2/1 42/2/1
f 45/2/1 43/2/1 44/2/1
f 48/2/1 47/2/1 46/2/1
f 49/2/1 47/2/1 48/2/1
f 52/2/1 51/2/1 50/2/1
f 53/2/1 51/2/1 52/2/1
f 54/2/2 55/2/2 56/2/2
f 56/2/2 55/2/2 57/2/2
f 58/2/2 59/2/2 60/2/2
f 60/2/2 59/2/2 61/2/2
f 62/2/2 63/2/2 64/2/2
f 64/2/2 63/2/2 65/2/2
f 66/1/2 67/1/2 69/1/2
f 69/1/2 67/1/2 70/1/2
f 68/2/2 69/2/2 71/2/2
f 69/2/2 70/2/2 71/2/2
f 71/2/2 70/2/2 72/2/2
f 73/1/2 74/1/2 75/1/2
f 75/1/2 74/1/2 76/1/2
f 77/3/2 78/3/2 79/3/2
f 79/3/2 78/3/2 80/3/2
f 81/2/2 82/2/2 83/2/2
f 83/2/2 82/2/2 84/2/2
f 85/2/2 86/2/2 88/2/2
f 88/2/2 86/2/2 89/2/2
f 87/3/2 88/3/2 91/3/2
f 89/3/2 90/3/2 91/3/2
f 88/3/2 89/3/2 91/3/2
f 91/3/2 90/3/2 92/3/2
f 87/3/2 91/3/2 93/3/2
f 92/3/2 90/3/2 94/3/2
f 93/3/2 94/3/2 95/3/2
f 94/3/2 90/3/2 96/3/2
f 95/3/2 94/3/2 96/3/2
f 87/3/2 93/3/2 97/3/2
f 93/3/2 95/3/2 97/3/2
f 97/3/2 95/3/2 98/3/2
f 99/2/2 100/2/2 101/2/2
f 101/2/2 100/2/2 102/2/2
f 103/3/2 104/3/2 105/3/2
f 105/3/2 104/3/2 106/3/2
f 109/2/3 108/2/3 107/2/3
f 110/2/3 108/2/3 109/2/3
f 113/1/3 112/1/3 111/1/3
f 114/1/3 112/1/3 113/1/3
f 117/2/3 116/2/3 115/2/3
f 118/2/3 116/2/3 117/2/3
f 123/3/3 120/3/3 119/3/3
f 124/3/3 120/3/3 123/3/3
f 125/2/3 122/2/3 121/2/3
f 126/2/3 122/2/3 125/2/3
f 127/3/3 123/3/3 119/3/3
f 127/4/3 124/4/3 123/4/3
f 128/3/3 120/3/3 124/3/3
f 128/4/3 124/4/3 127/4/3
f 129/3/3 127/3/3 119/3/3
f 129/3/3 128/3/3 127/3/3
f 130/3/3 128/3/3 129/3/3
f 131/3/3 128/3/3 130/3/3
f 132/3/3 129/3/3 119/3/3
f 134/3/3 128/3/3 131/3/3
f 137/3/3 133/3/3 132/3/3
f 137/3/3 128/3/3 134/3/3
f 137/3/3 134/3/3 133/3/3
f 138/3/3 120/3/3 128/3/3
f 138/3/3 128/3/3 137/3/3
f 139/2/3 136/2/3 135/2/3
f 140/2/3 136/2/3 139/2/3
f 141/3/3 137/3/3 132/3/3
f 141/4/3 138/4/3 137/4/3
f 142/3/3 120/3/3 138/3/3
f 142/4/3 138/4/3 141/4/3
f 145/3/3 141/3/3 132/3/3
f 145/3/3 132/3/3 119/3/3
f 145/3/3 142/3/3 141/3/3
f 146/3/3 120/3/3 142/3/3
f 146/3/3 142/3/3 145/3/3
f 147/2/3 144/2/3 143/2/3
f 148/2/3 144/2/3 147/2/3
f 151/1/3 150/1/3 149/1/3
f 152/1/3 150/1/3 151/1/3
f 155/3/3 154/3/3 153/3/3
f 156/3/3 154/3/3 155/3/3
f 159/3/3 158/3/3 157/3/3
f 160/3/3 158/3/3 159/3/3
f 163/2/3 162/2/3 161/2/3
f 164/2/3 162/2/3 163/2/3
f 167/2/3 166/2/3 165/2/3
f 168/2/3 166/2/3 167/2/3
f 171/2/3 170/2/3 169/2/3
f 172/2/3 170/2/3 171/2/3
f 175/2/3 174/2/3 173/2/3
f 176/2/3 174/2/3 175/2/3
f 177/2/4 178/2/4 179/2/4
f 179/2/4 178/2/4 180/2/4
f 181/1/4 182/1/4 183/1/4
f 183/1/4 182/1/4 184/1/4
f 185/2/4 186/2/4 187/2/4
f 187/2/4 186/2/4 188/2/4
f 189/2/4 190/2/4 193/2/4
f 193/2/4 190/2/4 194/2/4
f 191/3/4 192/3/4 197/3/4
f 197/3/4 192/3/4 198/3/4
f 195/2/4 196/2/4 199/2/4
f 199/2/4 196/2/4 200/2/4
f 201/3/4 202/3/4 203/3/4
f 203/3/4 202/3/4 204/3/4
f 205/3/4 206/3/4 207/3/4
f 207/3/4 206/3/4 208/3/4
f 209/3/4 210/3/4 211/3/4
f 211/3/4 210/3/4 212/3/4
f 213/3/4 214/3/4 215/3/4
f 215/3/4 214/3/4 216/3/4
f 217/3/4 218/3/4 219/3/4
f 219/3/4 218/3/4 220/3/4
f 229/2/5 222/2/5 221/2/5
f 230/2/5 224/2/5 223/2/5
f 231/2/5 226/2/5 225/2/5
f 232/2/5 228/2/5 227/2/5
f 233/2/5 229/2/5 221/2/5
f 233/2/5 230/2/5 229/2/5
f 234/2/5 224/2/5 230/2/5
f 234/2/5 230/2/5 233/2/5
f 235/2/5 231/2/5 225/2/5
f 235/2/5 232/2/5 231/2/5
f 236/2/5 228/2/5 232/2/5
f 236/2/5 232/2/5 235/2/5
f 239/3/5 238/3/5 237/3/5
f 240/3/5 238/3/5 239/3/5
f 241/3/5 238/3/5 240/3/5
f 242/3/5 238/3/5 241/3/5
f 244/3/5 241/3/5 240/3/5
f 245/3/5 241/3/5 244/3/5
f 247/3/5 244/3/5 243/3/5
f 247/3/5 246/3/5 245/3/5
f 247/3/5 245/3/5 244/3/5
f 248/3/5 246/3/5 247/3/5
f 249/3/5 246/3/5 248/3/5
f 250/3/5 246/3/5 249/3/5
f 251/3/5 249/3/5 248/3/5
f 252/3/5 249/3/5 251/3/5
f 257/3/5 254/3/5 253/3/5
f 258/3/5 254/3/5 257/3/5
f 259/3/5 256/3/5 255/3/5
f 260/3/5 256/3/5 259/3/5
f 263/1/5 262/1/5 261/1/5
f 264/1/5 262/1/5 263/1/5
f 267/2/5 266/2/5 265/2/5
f 268/2/5 266/2/5 267/2/5
f 269/2/6 270/2/6 277/2/6
f 271/2/6 272/2/6 278/2/6
f 273/2/6 274/2/6 279/2/6
f 275/2/6 276/2/6 280/2/6
f 269/2/6 277/2/6 281/2/6
f 277/2/6 278/2/6 281/2/6
f 278/2/6 272/2/6 282/2/6
f 281/2/6 278/2/6 282/2/6
f 273/2/6 279/2/6 283/2/6
f 279/2/6 280/2/6 283/2/6
f 280/2/6 276/2/6 284/2/6
f 283/2/6 280/2/6 284/2/6
f 269/2/6 281/2/6 285/2/6
f 282/2/6 272/2/6 286/2/6
f 273/2/6 283/2/6 287/2/6
f 284/2/6 276/2/6 288/2/6
f 269/2/6 285/2/6 289/2/6
f 285/2/6 286/2/6 289/2/6
f 286/2/6 272/2/6 290/2/6
f 289/2/6 286/2/6 290/2/6
f 287/2/6 288/2/6 291/2/6
f 273/2/6 287/2/6 291/2/6
f 288/2/6 276/2/6 292/2/6
f 291/2/6 288/2/6 292/2/6
f 293/3/6 294/3/6 297/3/6
f 297/3/6 294/3/6 298/3/6
f 295/3/6 296/3/6 299/3/6
f 299/3/6 296/3/6 300/3/6
f 301/3/6 302/3/6 303/3/6
f 303/3/6 302/3/6 304/3/6
f 304/3/6 302/3/6 305/3/6
f 305/3/6 302/3/6 306/3/6
f 304/3/6 305/3/6 307/3/6
f 307/3/6 305/3/6 308/3/6
f 309/2/6 310/2/6 311/2/6
f 311/2/6 310/2/6 312/2/6
f 313/3/6 314/3/6 315/3/6
f 315/3/6 314/3/6 316/3/6
f 313/3/6 315/3/6 317/3/6
f 316/3/6 314/3/6 318/3/6
f 313/3/6 317/3/6 319/3/6
f 317/3/6 318/3/6 319/3/6
f 318/3/6 314/3/6 320/3/6
f 319/3/6 318/3/6 320/3/6
f 321/1/6 322/1/6 323/1/6
f 323/1/6 322/1/6 324/1/6
