# MagicaVoxel @ Ephtracy

# group
o 

# material
mtllib office.mtl
usemtl palette

# normals
vn -1 0 0
vn 1 0 0
vn 0 0 1
vn 0 0 -1
vn 0 -1 0
vn 0 1 0

# texcoords
vt 0.0292969 0.5
vt 0.224609 0.5
vt 0.302734 0.5
vt 0.306641 0.5
vt 0.310547 0.5
vt 0.318359 0.5
vt 0.783203 0.5
vt 0.982422 0.5

# verts
v -3.6 0 3.5
v -3.6 0 3.3
v -3.6 0 -3.5
v -3.6 0 -3.7
v -3.6 0.6 3.3
v -3.6 0.6 -3.5
v -3.6 0.8 3.3
v -3.6 0.8 -3.5
v -3.6 1.4 3.3
v -3.6 1.4 -3.5
v -3.6 1.6 3.5
v -3.6 1.6 -3.7
v -3 4.2 2.9
v -3 4.2 -3.1
v -3 4.4 2.9
v -3 4.4 -3.1
v -2.8 0 2.7
v -2.8 0 2.3
v -2.8 0 -2.5
v -2.8 0 -2.9
v -2.8 0.6 2.7
v -2.8 0.6 2.3
v -2.8 0.6 -2.5
v -2.8 0.6 -2.9
v -2.8 4.4 2.7
v -2.8 4.4 -2.9
v -2.8 4.6 2.7
v -2.8 4.6 -2.9
v -2.6 0.4 2.3
v -2.6 0.4 -2.5
v -2.6 0.6 2.3
v -2.6 0.6 -2.5
v -2.6 0.8 2.5
v -2.6 0.8 -2.7
v -2.6 4.4 2.5
v -2.6 4.4 -2.7
v -2.6 4.6 2.5
v -2.6 4.6 -2.7
v -2.6 4.8 2.5
v -2.6 4.8 -2.7
v -2.4 4.8 2.3
v -2.4 4.8 -2.5
v -2.4 5 2.3
v -2.4 5 -2.5
v -2.2 5 2.1
v -2.2 5 -2.3
v -2.2 5.2 2.1
v -2.2 5.2 -2.3
v -2 5.2 1.9
v -2 5.2 -2.1
v -2 5.4 1.9
v -2 5.4 -2.1
v -1.8 5.4 1.7
v -1.8 5.4 -1.9
v -1.8 5.6 1.7
v -1.8 5.6 -1.9
v -1.6 5.6 1.5
v -1.6 5.6 -1.7
v -1.6 5.8 1.5
v -1.6 5.8 -1.7
v -1.4 5.8 1.3
v -1.4 5.8 -1.5
v -1.4 6 1.3
v -1.4 6 -1.5
v -1.2 5.2 1.7
v -1.2 5.2 1.5
v -1.2 5.2 -1.7
v -1.2 5.2 -1.9
v -1.2 5.4 1.7
v -1.2 5.4 1.5
v -1.2 5.4 1.3
v -1.2 5.4 -1.5
v -1.2 5.4 -1.7
v -1.2 5.4 -1.9
v -1.2 5.6 1.5
v -1.2 5.6 1.3
v -1.2 5.6 1.1
v -1.2 5.6 -1.3
v -1.2 5.6 -1.5
v -1.2 5.6 -1.7
v -1.2 5.8 1.3
v -1.2 5.8 1.1
v -1.2 5.8 -1.3
v -1.2 5.8 -1.5
v -1.2 6 1.1
v -1.2 6 -1.3
v -1.2 6.2 1.1
v -1.2 6.2 -1.3
v -1 4.4 2.5
v -1 4.4 2.3
v -1 4.6 2.5
v -1 4.6 2.3
v -1 5.8 0.9
v -1 5.8 -1.1
v -1 6 0.9
v -1 6 -1.1
v -0.8 0 3.9
v -0.8 0 3.7
v -0.8 0 2.5
v -0.8 0.4 3.9
v -0.8 0.4 3.7
v -0.8 0.4 3.5
v -0.8 0.4 2.5
v -0.8 0.6 3.7
v -0.8 0.6 3.5
v -0.8 0.6 3.3
v -0.8 0.6 2.5
v -0.8 0.8 3.5
v -0.8 0.8 3.3
v -0.8 1.4 3.5
v -0.8 1.4 3.3
v 0.6 0 3.7
v 0.6 0 2.5
v 0.6 0.2 3.9
v 0.6 0.2 3.7
v 0.6 0.2 3.5
v 0.6 0.4 3.9
v 0.6 0.4 3.7
v 0.6 0.4 3.5
v 0.6 0.4 3.3
v 0.6 0.4 2.5
v 0.6 0.6 3.7
v 0.6 0.6 3.5
v 0.6 0.6 3.3
v 0.6 0.6 2.5
v 0.6 0.8 3.5
v 0.6 0.8 3.3
v 0.6 0.8 2.5
v 0.6 0.8 2.3
v 0.6 1.6 3.5
v 0.6 1.6 3.3
v 0.6 3 2.5
v 0.6 3 2.3
v 1.2 5.6 1.1
v 1.2 5.6 -1.3
v 1.2 5.8 1.1
v 1.2 5.8 -1.3
v 1.4 5.4 1.1
v 1.4 5.4 -1.3
v 1.4 5.6 1.3
v 1.4 5.6 1.1
v 1.4 5.6 -1.3
v 1.4 5.6 -1.5
v 1.4 5.8 1.3
v 1.4 5.8 1.1
v 1.4 5.8 -1.3
v 1.4 5.8 -1.5
v 1.6 5.2 1.1
v 1.6 5.2 -1.3
v 1.6 5.4 1.5
v 1.6 5.4 1.1
v 1.6 5.4 -1.3
v 1.6 5.4 -1.7
v 1.6 5.6 1.5
v 1.6 5.6 1.1
v 1.6 5.6 -1.3
v 1.6 5.6 -1.7
v 1.8 5 -1.3
v 1.8 5 -1.5
v 1.8 5.2 1.7
v 1.8 5.2 1.1
v 1.8 5.2 -1.3
v 1.8 5.2 -1.5
v 1.8 5.2 -1.9
v 1.8 5.4 1.7
v 1.8 5.4 1.1
v 1.8 5.4 -1.3
v 1.8 5.4 -1.9
v 2 5 1.9
v 2 5 -1.3
v 2 5 -1.5
v 2 5 -2.1
v 2 5.2 1.9
v 2 5.2 -1.3
v 2 5.2 -1.5
v 2 5.2 -2.1
v 2.2 0.8 2.3
v 2.2 0.8 -2.3
v 2.2 4.2 2.3
v 2.2 4.2 -2.3
v 2.2 4.8 2.1
v 2.2 4.8 -2.3
v 2.2 5 2.1
v 2.2 5 -2.3
v 2.4 0 2.7
v 2.4 0 2.3
v 2.4 0 -2.5
v 2.4 0 -2.9
v 2.4 0.4 2.5
v 2.4 0.4 2.3
v 2.4 0.4 -2.5
v 2.4 0.4 -2.7
v 2.4 0.6 2.7
v 2.4 0.6 2.5
v 2.4 0.6 2.3
v 2.4 0.6 -2.5
v 2.4 0.6 -2.7
v 2.4 0.6 -2.9
v 2.4 4.6 2.3
v 2.4 4.6 -2.5
v 2.4 4.8 2.3
v 2.4 4.8 -2.5
v 2.6 4.4 2.5
v 2.6 4.4 -2.7
v 2.6 4.6 2.5
v 2.6 4.6 -2.7
v 2.8 4.2 2.7
v 2.8 4.2 -2.9
v 2.8 4.4 2.7
v 2.8 4.4 -2.9
v 3.4 0 3.5
v 3.4 0 3.3
v 3.4 0 -3.5
v 3.4 0 -3.7
v 3.4 0.6 3.5
v 3.4 0.6 3.3
v 3.4 0.6 -3.5
v 3.4 0.6 -3.7
v 3.4 0.8 3.5
v 3.4 0.8 3.3
v 3.4 0.8 -3.5
v 3.4 0.8 -3.7
v 3.4 1.4 3.5
v 3.4 1.4 3.3
v 3.4 1.4 -3.5
v 3.4 1.4 -3.7
v 3.4 1.6 3.3
v 3.4 1.6 -3.5
v -3.4 0 3.5
v -3.4 0 3.3
v -3.4 0 -3.5
v -3.4 0 -3.7
v -3.4 0.6 3.5
v -3.4 0.6 3.3
v -3.4 0.6 -3.5
v -3.4 0.6 -3.7
v -3.4 0.8 3.5
v -3.4 0.8 3.3
v -3.4 0.8 -3.5
v -3.4 0.8 -3.7
v -3.4 1.4 3.5
v -3.4 1.4 3.3
v -3.4 1.4 -3.5
v -3.4 1.4 -3.7
v -3.4 1.6 3.3
v -3.4 1.6 -3.5
v -2.8 4.2 2.7
v -2.8 4.2 -2.9
v -2.8 4.4 2.7
v -2.8 4.4 -2.9
v -2.6 4.4 2.5
v -2.6 4.4 -2.7
v -2.6 4.6 2.5
v -2.6 4.6 -2.7
v -2.4 0 2.7
v -2.4 0 2.3
v -2.4 0 -2.5
v -2.4 0 -2.9
v -2.4 0.4 2.5
v -2.4 0.4 2.3
v -2.4 0.4 -2.5
v -2.4 0.4 -2.7
v -2.4 0.6 2.7
v -2.4 0.6 2.5
v -2.4 0.6 2.3
v -2.4 0.6 -2.5
v -2.4 0.6 -2.7
v -2.4 0.6 -2.9
v -2.4 4.6 2.3
v -2.4 4.6 -2.5
v -2.4 4.8 2.3
v -2.4 4.8 -2.5
v -2.2 0.8 2.3
v -2.2 0.8 -2.3
v -2.2 4.2 2.3
v -2.2 4.2 -2.3
v -2.2 4.8 2.1
v -2.2 4.8 -2.3
v -2.2 5 2.1
v -2.2 5 -2.3
v -2 5 1.9
v -2 5 -2.1
v -2 5.2 1.9
v -2 5.2 -2.1
v -1.8 5.2 1.7
v -1.8 5.2 -1.9
v -1.8 5.4 1.7
v -1.8 5.4 -1.9
v -1.6 5.4 1.5
v -1.6 5.4 -1.7
v -1.6 5.6 1.5
v -1.6 5.6 -1.7
v -1.4 5.6 1.3
v -1.4 5.6 -1.5
v -1.4 5.8 1.3
v -1.4 5.8 -1.5
v -1.2 5.8 0.9
v -1.2 5.8 -1.1
v -1.2 6 0.9
v -1.2 6 -1.1
v -0.8 4.4 2.5
v -0.8 4.4 2.3
v -0.8 4.6 2.5
v -0.8 4.6 2.3
v -0.6 0 3.7
v -0.6 0 2.5
v -0.6 0.2 3.9
v -0.6 0.2 3.7
v -0.6 0.2 3.5
v -0.6 0.4 3.9
v -0.6 0.4 3.7
v -0.6 0.4 3.5
v -0.6 0.4 3.3
v -0.6 0.4 2.5
v -0.6 0.6 3.7
v -0.6 0.6 3.5
v -0.6 0.6 3.3
v -0.6 0.6 2.5
v -0.6 0.8 3.5
v -0.6 0.8 3.3
v -0.6 0.8 2.5
v -0.6 0.8 2.3
v -0.6 1.6 3.5
v -0.6 1.6 3.3
v -0.6 3 2.5
v -0.6 3 2.3
v 0.8 0 3.9
v 0.8 0 3.7
v 0.8 0 2.5
v 0.8 0.4 3.9
v 0.8 0.4 3.7
v 0.8 0.4 3.5
v 0.8 0.4 2.5
v 0.8 0.6 3.7
v 0.8 0.6 3.5
v 0.8 0.6 3.3
v 0.8 0.6 2.5
v 0.8 0.8 3.5
v 0.8 0.8 3.3
v 0.8 1.4 3.5
v 0.8 1.4 3.3
v 1 5.2 1.7
v 1 5.2 1.5
v 1 5.2 -1.7
v 1 5.2 -1.9
v 1 5.4 1.7
v 1 5.4 1.5
v 1 5.4 1.3
v 1 5.4 -1.5
v 1 5.4 -1.7
v 1 5.4 -1.9
v 1 5.6 1.5
v 1 5.6 1.3
v 1 5.6 1.1
v 1 5.6 -1.3
v 1 5.6 -1.5
v 1 5.6 -1.7
v 1 5.8 1.3
v 1 5.8 1.1
v 1 5.8 -1.3
v 1 5.8 -1.5
v 1.2 6 1.1
v 1.2 6 -1.3
v 1.2 6.2 1.1
v 1.2 6.2 -1.3
v 1.4 5.8 1.3
v 1.4 5.8 -1.5
v 1.4 6 1.3
v 1.4 6 -1.5
v 1.6 5.6 1.5
v 1.6 5.6 -1.7
v 1.6 5.8 1.5
v 1.6 5.8 -1.7
v 1.8 5.4 1.7
v 1.8 5.4 -1.9
v 1.8 5.6 1.7
v 1.8 5.6 -1.9
v 2 5.2 1.9
v 2 5.2 -2.1
v 2 5.4 1.9
v 2 5.4 -2.1
v 2.2 5 2.1
v 2.2 5 -2.3
v 2.2 5.2 2.1
v 2.2 5.2 -2.3
v 2.4 4.8 2.3
v 2.4 4.8 -2.5
v 2.4 5 2.3
v 2.4 5 -2.5
v 2.6 0.4 2.3
v 2.6 0.4 -2.5
v 2.6 0.6 2.3
v 2.6 0.6 -2.5
v 2.6 0.8 2.5
v 2.6 0.8 -2.7
v 2.6 4.4 2.5
v 2.6 4.4 -2.7
v 2.6 4.6 2.5
v 2.6 4.6 -2.7
v 2.6 4.8 2.5
v 2.6 4.8 -2.7
v 2.8 0 2.7
v 2.8 0 2.3
v 2.8 0 -2.5
v 2.8 0 -2.9
v 2.8 0.6 2.7
v 2.8 0.6 2.3
v 2.8 0.6 -2.5
v 2.8 0.6 -2.9
v 2.8 4.4 2.7
v 2.8 4.4 -2.9
v 2.8 4.6 2.7
v 2.8 4.6 -2.9
v 3 4.2 2.9
v 3 4.2 -3.1
v 3 4.4 2.9
v 3 4.4 -3.1
v 3.6 0 3.5
v 3.6 0 3.3
v 3.6 0 -3.5
v 3.6 0 -3.7
v 3.6 0.6 3.3
v 3.6 0.6 -3.5
v 3.6 0.8 3.3
v 3.6 0.8 -3.5
v 3.6 1.4 3.3
v 3.6 1.4 -3.5
v 3.6 1.6 3.5
v 3.6 1.6 -3.7
v -0.8 0 3.9
v -0.8 0.4 3.9
v -0.6 0 3.9
v -0.6 0.2 3.9
v -0.6 0.4 3.9
v 0.6 0 3.9
v 0.6 0.2 3.9
v 0.6 0.4 3.9
v 0.8 0 3.9
v 0.8 0.4 3.9
v -0.8 0.4 3.7
v -0.8 0.6 3.7
v -0.6 0.2 3.7
v -0.6 0.4 3.7
v -0.6 0.6 3.7
v 0.6 0.2 3.7
v 0.6 0.4 3.7
v 0.6 0.6 3.7
v 0.8 0.4 3.7
v 0.8 0.6 3.7
v -3.6 0 3.5
v -3.6 1.6 3.5
v -3.4 0 3.5
v -3.4 0.6 3.5
v -3.4 0.8 3.5
v -3.4 1.4 3.5
v -0.8 0.6 3.5
v -0.8 0.8 3.5
v -0.8 1.4 3.5
v -0.6 0.4 3.5
v -0.6 0.6 3.5
v -0.6 0.8 3.5
v -0.6 1.6 3.5
v 0.6 0.4 3.5
v 0.6 0.6 3.5
v 0.6 0.8 3.5
v 0.6 1.6 3.5
v 0.8 0.6 3.5
v 0.8 0.8 3.5
v 0.8 1.4 3.5
v 3.4 0 3.5
v 3.4 0.6 3.5
v 3.4 0.8 3.5
v 3.4 1.4 3.5
v 3.6 0 3.5
v 3.6 1.6 3.5
v -3 4.2 2.9
v -3 4.4 2.9
v 3 4.2 2.9
v 3 4.4 2.9
v -2.8 0 2.7
v -2.8 0.6 2.7
v -2.8 4.4 2.7
v -2.8 4.6 2.7
v -2.4 0 2.7
v -2.4 0.6 2.7
v 2.4 0 2.7
v 2.4 0.6 2.7
v 2.8 0 2.7
v 2.8 0.6 2.7
v 2.8 4.4 2.7
v 2.8 4.6 2.7
v -2.6 0.8 2.5
v -2.6 4.4 2.5
v -2.6 4.6 2.5
v -2.6 4.8 2.5
v -2.4 0.4 2.5
v -2.4 0.6 2.5
v -0.8 0.4 2.5
v -0.8 0.6 2.5
v -0.6 0.4 2.5
v -0.6 0.6 2.5
v -0.6 0.8 2.5
v -0.6 3 2.5
v 0.6 0.4 2.5
v 0.6 0.6 2.5
v 0.6 0.8 2.5
v 0.6 3 2.5
v 0.8 0.4 2.5
v 0.8 0.6 2.5
v 2.4 0.4 2.5
v 2.4 0.6 2.5
v 2.6 0.8 2.5
v 2.6 4.4 2.5
v 2.6 4.6 2.5
v 2.6 4.8 2.5
v -2.4 4.8 2.3
v -2.4 5 2.3
v 2.4 4.8 2.3
v 2.4 5 2.3
v -2.2 5 2.1
v -2.2 5.2 2.1
v 2.2 5 2.1
v 2.2 5.2 2.1
v -2 5.2 1.9
v -2 5.4 1.9
v 2 5.2 1.9
v 2 5.4 1.9
v -1.8 5.4 1.7
v -1.8 5.6 1.7
v 1.8 5.4 1.7
v 1.8 5.6 1.7
v -1.6 5.6 1.5
v -1.6 5.8 1.5
v 1.6 5.6 1.5
v 1.6 5.8 1.5
v -1.4 5.8 1.3
v -1.4 6 1.3
v 1.4 5.8 1.3
v 1.4 6 1.3
v -1.2 6 1.1
v -1.2 6.2 1.1
v 1.2 5.6 1.1
v 1.2 5.8 1.1
v 1.2 6 1.1
v 1.2 6.2 1.1
v 1.4 5.4 1.1
v 1.4 5.6 1.1
v 1.4 5.8 1.1
v 1.6 5.2 1.1
v 1.6 5.4 1.1
v 1.6 5.6 1.1
v 1.8 5.2 1.1
v 1.8 5.4 1.1
v -1.2 5.8 -1.1
v -1.2 6 -1.1
v -1 5.8 -1.1
v -1 6 -1.1
v -1.2 5.6 -1.3
v -1.2 5.8 -1.3
v 1 5.6 -1.3
v 1 5.8 -1.3
v 1.8 5 -1.3
v 1.8 5.2 -1.3
v 2 5 -1.3
v 2 5.2 -1.3
v -1.4 5.6 -1.5
v -1.4 5.8 -1.5
v -1.2 5.4 -1.5
v -1.2 5.6 -1.5
v -1.2 5.8 -1.5
v 1 5.4 -1.5
v 1 5.6 -1.5
v 1 5.8 -1.5
v 1.4 5.6 -1.5
v 1.4 5.8 -1.5
v -1.6 5.4 -1.7
v -1.6 5.6 -1.7
v -1.2 5.2 -1.7
v -1.2 5.4 -1.7
v -1.2 5.6 -1.7
v 1 5.2 -1.7
v 1 5.4 -1.7
v 1 5.6 -1.7
v 1.6 5.4 -1.7
v 1.6 5.6 -1.7
v -1.8 5.2 -1.9
v -1.8 5.4 -1.9
v -1.2 5.2 -1.9
v -1.2 5.4 -1.9
v 1 5.2 -1.9
v 1 5.4 -1.9
v 1.8 5.2 -1.9
v 1.8 5.4 -1.9
v -2 5 -2.1
v -2 5.2 -2.1
v 2 5 -2.1
v 2 5.2 -2.1
v -2.2 0.8 -2.3
v -2.2 4.2 -2.3
v -2.2 4.8 -2.3
v -2.2 5 -2.3
v 2.2 0.8 -2.3
v 2.2 4.2 -2.3
v 2.2 4.8 -2.3
v 2.2 5 -2.3
v -2.8 0 -2.5
v -2.8 0.6 -2.5
v -2.6 0.4 -2.5
v -2.6 0.6 -2.5
v -2.4 0 -2.5
v -2.4 0.4 -2.5
v -2.4 0.6 -2.5
v -2.4 4.6 -2.5
v -2.4 4.8 -2.5
v 2.4 0 -2.5
v 2.4 0.4 -2.5
v 2.4 0.6 -2.5
v 2.4 4.6 -2.5
v 2.4 4.8 -2.5
v 2.6 0.4 -2.5
v 2.6 0.6 -2.5
v 2.8 0 -2.5
v 2.8 0.6 -2.5
v -2.6 4.4 -2.7
v -2.6 4.6 -2.7
v 2.6 4.4 -2.7
v 2.6 4.6 -2.7
v -2.8 4.2 -2.9
v -2.8 4.4 -2.9
v 2.8 4.2 -2.9
v 2.8 4.4 -2.9
v -3.6 0 -3.5
v -3.6 0.6 -3.5
v -3.6 0.8 -3.5
v -3.6 1.4 -3.5
v -3.4 0 -3.5
v -3.4 0.6 -3.5
v -3.4 0.8 -3.5
v -3.4 1.4 -3.5
v -3.4 1.6 -3.5
v 3.4 0 -3.5
v 3.4 0.6 -3.5
v 3.4 0.8 -3.5
v 3.4 1.4 -3.5
v 3.4 1.6 -3.5
v 3.6 0 -3.5
v 3.6 0.6 -3.5
v 3.6 0.8 -3.5
v 3.6 1.4 -3.5
v -0.6 0 3.7
v -0.6 0.2 3.7
v 0.6 0 3.7
v 0.6 0.2 3.7
v -0.6 0.2 3.5
v -0.6 0.4 3.5
v 0.6 0.2 3.5
v 0.6 0.4 3.5
v -3.6 0 3.3
v -3.6 0.6 3.3
v -3.6 0.8 3.3
v -3.6 1.4 3.3
v -3.4 0 3.3
v -3.4 0.6 3.3
v -3.4 0.8 3.3
v -3.4 1.4 3.3
v -3.4 1.6 3.3
v -0.8 0.8 3.3
v -0.8 1.4 3.3
v -0.6 0.4 3.3
v -0.6 0.6 3.3
v -0.6 0.8 3.3
v -0.6 1.6 3.3
v 0.6 0.4 3.3
v 0.6 0.6 3.3
v 0.6 0.8 3.3
v 0.6 1.6 3.3
v 0.8 0.8 3.3
v 0.8 1.4 3.3
v 3.4 0 3.3
v 3.4 0.6 3.3
v 3.4 0.8 3.3
v 3.4 1.4 3.3
v 3.4 1.6 3.3
v 3.6 0 3.3
v 3.6 0.6 3.3
v 3.6 0.8 3.3
v 3.6 1.4 3.3
v -2.8 4.2 2.7
v -2.8 4.4 2.7
v 2.8 4.2 2.7
v 2.8 4.4 2.7
v -2.6 4.4 2.5
v -2.6 4.6 2.5
v -1 4.4 2.5
v -1 4.6 2.5
v -0.8 0 2.5
v -0.8 0.4 2.5
v -0.8 4.4 2.5
v -0.8 4.6 2.5
v -0.6 0 2.5
v -0.6 0.4 2.5
v 0.6 0 2.5
v 0.6 0.4 2.5
v 0.8 0 2.5
v 0.8 0.4 2.5
v 2.6 4.4 2.5
v 2.6 4.6 2.5
v -2.8 0 2.3
v -2.8 0.6 2.3
v -2.6 0.4 2.3
v -2.6 0.6 2.3
v -2.4 0 2.3
v -2.4 0.4 2.3
v -2.4 0.6 2.3
v -2.4 4.6 2.3
v -2.4 4.8 2.3
v -2.2 0.6 2.3
v -2.2 0.8 2.3
v -2.2 4.2 2.3
v -1 4.4 2.3
v -1 4.6 2.3
v -0.8 4.4 2.3
v -0.8 4.6 2.3
v -0.6 0.8 2.3
v -0.6 3 2.3
v 0.6 0.8 2.3
v 0.6 3 2.3
v 2.2 0.6 2.3
v 2.2 0.8 2.3
v 2.2 4.2 2.3
v 2.4 0 2.3
v 2.4 0.4 2.3
v 2.4 0.6 2.3
v 2.4 4.6 2.3
v 2.4 4.8 2.3
v 2.6 0.4 2.3
v 2.6 0.6 2.3
v 2.8 0 2.3
v 2.8 0.6 2.3
v -2.2 4.8 2.1
v -2.2 5 2.1
v 2.2 4.8 2.1
v 2.2 5 2.1
v -2 5 1.9
v -2 5.2 1.9
v 2 5 1.9
v 2 5.2 1.9
v -1.8 5.2 1.7
v -1.8 5.4 1.7
v -1.2 5.2 1.7
v -1.2 5.4 1.7
v 1 5.2 1.7
v 1 5.4 1.7
v 1.8 5.2 1.7
v 1.8 5.4 1.7
v -1.6 5.4 1.5
v -1.6 5.6 1.5
v -1.2 5.2 1.5
v -1.2 5.4 1.5
v -1.2 5.6 1.5
v 1 5.2 1.5
v 1 5.4 1.5
v 1 5.6 1.5
v 1.6 5.4 1.5
v 1.6 5.6 1.5
v -1.4 5.6 1.3
v -1.4 5.8 1.3
v -1.2 5.4 1.3
v -1.2 5.6 1.3
v -1.2 5.8 1.3
v 1 5.4 1.3
v 1 5.6 1.3
v 1 5.8 1.3
v 1.4 5.6 1.3
v 1.4 5.8 1.3
v -1.2 5.6 1.1
v -1.2 5.8 1.1
v 1 5.6 1.1
v 1 5.8 1.1
v -1.2 5.8 0.9
v -1.2 6 0.9
v -1 5.8 0.9
v -1 6 0.9
v -1.2 6 -1.3
v -1.2 6.2 -1.3
v 1.2 5.6 -1.3
v 1.2 5.8 -1.3
v 1.2 6 -1.3
v 1.2 6.2 -1.3
v 1.4 5.4 -1.3
v 1.4 5.6 -1.3
v 1.4 5.8 -1.3
v 1.6 5.2 -1.3
v 1.6 5.4 -1.3
v 1.6 5.6 -1.3
v 1.8 5.2 -1.3
v 1.8 5.4 -1.3
v -1.4 5.8 -1.5
v -1.4 6 -1.5
v 1.4 5.8 -1.5
v 1.4 6 -1.5
v 1.8 5 -1.5
v 1.8 5.2 -1.5
v 2 5 -1.5
v 2 5.2 -1.5
v -1.6 5.6 -1.7
v -1.6 5.8 -1.7
v 1.6 5.6 -1.7
v 1.6 5.8 -1.7
v -1.8 5.4 -1.9
v -1.8 5.6 -1.9
v 1.8 5.4 -1.9
v 1.8 5.6 -1.9
v -2 5.2 -2.1
v -2 5.4 -2.1
v 2 5.2 -2.1
v 2 5.4 -2.1
v -2.2 5 -2.3
v -2.2 5.2 -2.3
v 2.2 5 -2.3
v 2.2 5.2 -2.3
v -2.4 4.8 -2.5
v -2.4 5 -2.5
v 2.4 4.8 -2.5
v 2.4 5 -2.5
v -2.6 0.8 -2.7
v -2.6 4.4 -2.7
v -2.6 4.6 -2.7
v -2.6 4.8 -2.7
v -2.4 0.4 -2.7
v -2.4 0.6 -2.7
v 2.4 0.4 -2.7
v 2.4 0.6 -2.7
v 2.6 0.8 -2.7
v 2.6 4.4 -2.7
v 2.6 4.6 -2.7
v 2.6 4.8 -2.7
v -2.8 0 -2.9
v -2.8 0.6 -2.9
v -2.8 4.4 -2.9
v -2.8 4.6 -2.9
v -2.4 0 -2.9
v -2.4 0.6 -2.9
v 2.4 0 -2.9
v 2.4 0.6 -2.9
v 2.8 0 -2.9
v 2.8 0.6 -2.9
v 2.8 4.4 -2.9
v 2.8 4.6 -2.9
v -3 4.2 -3.1
v -3 4.4 -3.1
v 3 4.2 -3.1
v 3 4.4 -3.1
v -3.6 0 -3.7
v -3.6 1.6 -3.7
v -3.4 0 -3.7
v -3.4 0.6 -3.7
v -3.4 0.8 -3.7
v -3.4 1.4 -3.7
v 3.4 0 -3.7
v 3.4 0.6 -3.7
v 3.4 0.8 -3.7
v 3.4 1.4 -3.7
v 3.6 0 -3.7
v 3.6 1.6 -3.7
v -0.8 0 3.9
v -0.6 0 3.9
v 0.6 0 3.9
v 0.8 0 3.9
v -0.8 0 3.7
v -0.6 0 3.7
v 0.6 0 3.7
v 0.8 0 3.7
v -3.6 0 3.5
v -3.4 0 3.5
v 3.4 0 3.5
v 3.6 0 3.5
v -3.6 0 3.3
v -3.4 0 3.3
v 3.4 0 3.3
v 3.6 0 3.3
v -2.8 0 2.7
v -2.4 0 2.7
v 2.4 0 2.7
v 2.8 0 2.7
v -0.8 0 2.5
v -0.6 0 2.5
v 0.6 0 2.5
v 0.8 0 2.5
v -2.8 0 2.3
v -2.4 0 2.3
v 2.4 0 2.3
v 2.8 0 2.3
v -2.8 0 -2.5
v -2.4 0 -2.5
v 2.4 0 -2.5
v 2.8 0 -2.5
v -2.8 0 -2.9
v -2.4 0 -2.9
v 2.4 0 -2.9
v 2.8 0 -2.9
v -3.6 0 -3.5
v -3.4 0 -3.5
v 3.4 0 -3.5
v 3.6 0 -3.5
v -3.6 0 -3.7
v -3.4 0 -3.7
v 3.4 0 -3.7
v 3.6 0 -3.7
v -0.6 0.2 3.7
v 0.6 0.2 3.7
v -0.6 0.2 3.5
v 0.6 0.2 3.5
v -0.6 0.4 3.5
v 0.6 0.4 3.5
v -0.6 0.4 3.3
v 0.6 0.4 3.3
v -2.4 0.4 2.5
v -0.8 0.4 2.5
v -0.6 0.4 2.5
v 0.6 0.4 2.5
v 0.8 0.4 2.5
v 2.4 0.4 2.5
v -2.6 0.4 2.3
v -2.4 0.4 2.3
v 2.4 0.4 2.3
v 2.6 0.4 2.3
v -2.6 0.4 -2.5
v -2.4 0.4 -2.5
v 2.4 0.4 -2.5
v 2.6 0.4 -2.5
v -2.4 0.4 -2.7
v 2.4 0.4 -2.7
v -3.4 0.6 3.5
v -0.8 0.6 3.5
v 0.8 0.6 3.5
v 3.4 0.6 3.5
v -3.6 0.6 3.3
v -3.4 0.6 3.3
v -0.8 0.6 3.3
v -0.6 0.6 3.3
v 0.6 0.6 3.3
v 0.8 0.6 3.3
v 3.4 0.6 3.3
v 3.6 0.6 3.3
v -2.8 0.6 2.7
v -2.4 0.6 2.7
v 2.4 0.6 2.7
v 2.8 0.6 2.7
v -2.4 0.6 2.5
v -0.8 0.6 2.5
v -0.6 0.6 2.5
v 0.6 0.6 2.5
v 0.8 0.6 2.5
v 2.4 0.6 2.5
v -2.8 0.6 2.3
v -2.6 0.6 2.3
v -2.4 0.6 2.3
v -2.2 0.6 2.3
v 2.2 0.6 2.3
v 2.4 0.6 2.3
v 2.6 0.6 2.3
v 2.8 0.6 2.3
v -2.2 0.6 -2.3
v 2.2 0.6 -2.3
v -2.8 0.6 -2.5
v -2.6 0.6 -2.5
v -2.4 0.6 -2.5
v 2.4 0.6 -2.5
v 2.6 0.6 -2.5
v 2.8 0.6 -2.5
v -2.4 0.6 -2.7
v 2.4 0.6 -2.7
v -2.8 0.6 -2.9
v -2.4 0.6 -2.9
v 2.4 0.6 -2.9
v 2.8 0.6 -2.9
v -3.6 0.6 -3.5
v -3.4 0.6 -3.5
v 3.4 0.6 -3.5
v 3.6 0.6 -3.5
v -3.4 0.6 -3.7
v 3.4 0.6 -3.7
v -3.4 1.4 3.5
v -0.8 1.4 3.5
v 0.8 1.4 3.5
v 3.4 1.4 3.5
v -3.6 1.4 3.3
v -3.4 1.4 3.3
v -0.8 1.4 3.3
v 0.8 1.4 3.3
v 3.4 1.4 3.3
v 3.6 1.4 3.3
v -3.6 1.4 -3.5
v -3.4 1.4 -3.5
v 3.4 1.4 -3.5
v 3.6 1.4 -3.5
v -3.4 1.4 -3.7
v 3.4 1.4 -3.7
v -0.6 3 2.5
v 0.6 3 2.5
v -0.6 3 2.3
v 0.6 3 2.3
v -3 4.2 2.9
v 3 4.2 2.9
v -2.8 4.2 2.7
v 2.8 4.2 2.7
v -2.2 4.2 2.3
v 2.2 4.2 2.3
v -2.2 4.2 -2.3
v 2.2 4.2 -2.3
v -2.8 4.2 -2.9
v 2.8 4.2 -2.9
v -3 4.2 -3.1
v 3 4.2 -3.1
v -2.8 4.4 2.7
v 2.8 4.4 2.7
v -2.6 4.4 2.5
v 2.6 4.4 2.5
v -2.6 4.4 -2.7
v 2.6 4.4 -2.7
v -2.8 4.4 -2.9
v 2.8 4.4 -2.9
v -2.6 4.6 2.5
v -1 4.6 2.5
v -0.8 4.6 2.5
v 2.6 4.6 2.5
v -2.4 4.6 2.3
v -1 4.6 2.3
v -0.8 4.6 2.3
v 2.4 4.6 2.3
v -2.4 4.6 -2.5
v 2.4 4.6 -2.5
v -2.6 4.6 -2.7
v 2.6 4.6 -2.7
v -2.4 4.8 2.3
v 2.4 4.8 2.3
v -2.2 4.8 2.1
v 2.2 4.8 2.1
v -2.2 4.8 -2.3
v 2.2 4.8 -2.3
v -2.4 4.8 -2.5
v 2.4 4.8 -2.5
v -2.2 5 2.1
v 2.2 5 2.1
v -2 5 1.9
v 2 5 1.9
v 1.8 5 -1.3
v 2 5 -1.3
v 1.8 5 -1.5
v 2 5 -1.5
v -2 5 -2.1
v 2 5 -2.1
v -2.2 5 -2.3
v 2.2 5 -2.3
v -2 5.2 1.9
v 2 5.2 1.9
v -1.8 5.2 1.7
v -1.2 5.2 1.7
v 1 5.2 1.7
v 1.8 5.2 1.7
v -1.2 5.2 1.5
v 1 5.2 1.5
v 1.6 5.2 1.1
v 1.8 5.2 1.1
v 1.6 5.2 -1.3
v 1.8 5.2 -1.3
v 2 5.2 -1.3
v 1.8 5.2 -1.5
v 2 5.2 -1.5
v -1.2 5.2 -1.7
v 1 5.2 -1.7
v -1.8 5.2 -1.9
v -1.2 5.2 -1.9
v 1 5.2 -1.9
v 1.8 5.2 -1.9
v -2 5.2 -2.1
v 2 5.2 -2.1
v -1.8 5.4 1.7
v -1.2 5.4 1.7
v 1 5.4 1.7
v 1.8 5.4 1.7
v -1.6 5.4 1.5
v -1.2 5.4 1.5
v 1 5.4 1.5
v 1.6 5.4 1.5
v -1.2 5.4 1.3
v 1 5.4 1.3
v 1.4 5.4 1.1
v 1.6 5.4 1.1
v 1.8 5.4 1.1
v 1.4 5.4 -1.3
v 1.6 5.4 -1.3
v 1.8 5.4 -1.3
v -1.2 5.4 -1.5
v 1 5.4 -1.5
v -1.6 5.4 -1.7
v -1.2 5.4 -1.7
v 1 5.4 -1.7
v 1.6 5.4 -1.7
v -1.8 5.4 -1.9
v -1.2 5.4 -1.9
v 1 5.4 -1.9
v 1.8 5.4 -1.9
v -1.6 5.6 1.5
v -1.2 5.6 1.5
v 1 5.6 1.5
v 1.6 5.6 1.5
v -1.4 5.6 1.3
v -1.2 5.6 1.3
v 1 5.6 1.3
v 1.4 5.6 1.3
v -1.2 5.6 1.1
v 1 5.6 1.1
v 1.2 5.6 1.1
v 1.4 5.6 1.1
v 1.6 5.6 1.1
v -1.2 5.6 -1.3
v 1 5.6 -1.3
v 1.2 5.6 -1.3
v 1.4 5.6 -1.3
v 1.6 5.6 -1.3
v -1.4 5.6 -1.5
v -1.2 5.6 -1.5
v 1 5.6 -1.5
v 1.4 5.6 -1.5
v -1.6 5.6 -1.7
v -1.2 5.6 -1.7
v 1 5.6 -1.7
v 1.6 5.6 -1.7
v -1.4 5.8 1.3
v -1.2 5.8 1.3
v 1 5.8 1.3
v 1.4 5.8 1.3
v -1.2 5.8 1.1
v 1 5.8 1.1
v 1.2 5.8 1.1
v 1.4 5.8 1.1
v -1.2 5.8 0.9
v -1 5.8 0.9
v -1.2 5.8 -1.1
v -1 5.8 -1.1
v -1.2 5.8 -1.3
v 1 5.8 -1.3
v 1.2 5.8 -1.3
v 1.4 5.8 -1.3
v -1.4 5.8 -1.5
v -1.2 5.8 -1.5
v 1 5.8 -1.5
v 1.4 5.8 -1.5
v -1.2 6 0.9
v -1 6 0.9
v -1.2 6 -1.1
v -1 6 -1.1
v -0.6 0.2 3.9
v 0.6 0.2 3.9
v -0.6 0.2 3.7
v 0.6 0.2 3.7
v -0.8 0.4 3.9
v -0.6 0.4 3.9
v 0.6 0.4 3.9
v 0.8 0.4 3.9
v -0.8 0.4 3.7
v -0.6 0.4 3.7
v 0.6 0.4 3.7
v 0.8 0.4 3.7
v -0.6 0.4 3.5
v 0.6 0.4 3.5
v -0.8 0.6 3.7
v -0.6 0.6 3.7
v 0.6 0.6 3.7
v 0.8 0.6 3.7
v -0.8 0.6 3.5
v -0.6 0.6 3.5
v 0.6 0.6 3.5
v 0.8 0.6 3.5
v -3.4 0.8 3.5
v -0.8 0.8 3.5
v -0.6 0.8 3.5
v 0.6 0.8 3.5
v 0.8 0.8 3.5
v 3.4 0.8 3.5
v -3.6 0.8 3.3
v -3.4 0.8 3.3
v -0.8 0.8 3.3
v -0.6 0.8 3.3
v 0.6 0.8 3.3
v 0.8 0.8 3.3
v 3.4 0.8 3.3
v 3.6 0.8 3.3
v -2.6 0.8 2.5
v -0.6 0.8 2.5
v 0.6 0.8 2.5
v 2.6 0.8 2.5
v -2.2 0.8 2.3
v -0.6 0.8 2.3
v 0.6 0.8 2.3
v 2.2 0.8 2.3
v -2.2 0.8 -2.3
v 2.2 0.8 -2.3
v -2.6 0.8 -2.7
v 2.6 0.8 -2.7
v -3.6 0.8 -3.5
v -3.4 0.8 -3.5
v 3.4 0.8 -3.5
v 3.6 0.8 -3.5
v -3.4 0.8 -3.7
v 3.4 0.8 -3.7
v -3.6 1.6 3.5
v -0.6 1.6 3.5
v 0.6 1.6 3.5
v 3.6 1.6 3.5
v -3.4 1.6 3.3
v -0.6 1.6 3.3
v 0.6 1.6 3.3
v 3.4 1.6 3.3
v -3.4 1.6 -3.5
v 3.4 1.6 -3.5
v -3.6 1.6 -3.7
v 3.6 1.6 -3.7
v -3 4.4 2.9
v 3 4.4 2.9
v -2.8 4.4 2.7
v 2.8 4.4 2.7
v -2.6 4.4 2.5
v -1 4.4 2.5
v -0.8 4.4 2.5
v 2.6 4.4 2.5
v -2.4 4.4 2.3
v -1 4.4 2.3
v -0.8 4.4 2.3
v 2.4 4.4 2.3
v -2.4 4.4 -2.5
v 2.4 4.4 -2.5
v -2.6 4.4 -2.7
v 2.6 4.4 -2.7
v -2.8 4.4 -2.9
v 2.8 4.4 -2.9
v -3 4.4 -3.1
v 3 4.4 -3.1
v -2.8 4.6 2.7
v 2.8 4.6 2.7
v -2.6 4.6 2.5
v 2.6 4.6 2.5
v -2.6 4.6 -2.7
v 2.6 4.6 -2.7
v -2.8 4.6 -2.9
v 2.8 4.6 -2.9
v -2.6 4.8 2.5
v 2.6 4.8 2.5
v -2.4 4.8 2.3
v 2.4 4.8 2.3
v -2.4 4.8 -2.5
v 2.4 4.8 -2.5
v -2.6 4.8 -2.7
v 2.6 4.8 -2.7
v -2.4 5 2.3
v 2.4 5 2.3
v -2.2 5 2.1
v 2.2 5 2.1
v -2.2 5 -2.3
v 2.2 5 -2.3
v -2.4 5 -2.5
v 2.4 5 -2.5
v -2.2 5.2 2.1
v 2.2 5.2 2.1
v -2 5.2 1.9
v 2 5.2 1.9
v -2 5.2 -2.1
v 2 5.2 -2.1
v -2.2 5.2 -2.3
v 2.2 5.2 -2.3
v -2 5.4 1.9
v 2 5.4 1.9
v -1.8 5.4 1.7
v 1.8 5.4 1.7
v -1.8 5.4 -1.9
v 1.8 5.4 -1.9
v -2 5.4 -2.1
v 2 5.4 -2.1
v -1.8 5.6 1.7
v 1.8 5.6 1.7
v -1.6 5.6 1.5
v 1.6 5.6 1.5
v -1.6 5.6 -1.7
v 1.6 5.6 -1.7
v -1.8 5.6 -1.9
v 1.8 5.6 -1.9
v -1.6 5.8 1.5
v 1.6 5.8 1.5
v -1.4 5.8 1.3
v 1.4 5.8 1.3
v -1.4 5.8 -1.5
v 1.4 5.8 -1.5
v -1.6 5.8 -1.7
v 1.6 5.8 -1.7
v -1.4 6 1.3
v 1.4 6 1.3
v -1.2 6 1.1
v 1.2 6 1.1
v -1.2 6 -1.3
v 1.2 6 -1.3
v -1.4 6 -1.5
v 1.4 6 -1.5
v -1.2 6.2 1.1
v 1.2 6.2 1.1
v -1.2 6.2 -1.3
v 1.2 6.2 -1.3

# faces
f 5/5/1 2/5/1 1/5/1
f 6/5/1 4/5/1 3/5/1
f 7/5/1 5/5/1 1/5/1
f 7/5/1 6/5/1 5/5/1
f 8/5/1 4/5/1 6/5/1
f 8/5/1 6/5/1 7/5/1
f 9/5/1 7/5/1 1/5/1
f 10/5/1 4/5/1 8/5/1
f 11/5/1 9/5/1 1/5/1
f 11/5/1 10/5/1 9/5/1
f 12/5/1 4/5/1 10/5/1
f 12/5/1 10/5/1 11/5/1
f 15/1/1 14/1/1 13/1/1
f 16/1/1 14/1/1 15/1/1
f 21/3/1 18/3/1 17/3/1
f 22/3/1 18/3/1 21/3/1
f 23/3/1 20/3/1 19/3/1
f 24/3/1 20/3/1 23/3/1
f 27/1/1 26/1/1 25/1/1
f 28/1/1 26/1/1 27/1/1
f 31/3/1 30/3/1 29/3/1
f 32/3/1 30/3/1 31/3/1
f 35/4/1 34/4/1 33/4/1
f 36/4/1 34/4/1 35/4/1
f 39/1/1 38/1/1 37/1/1
f 40/1/1 38/1/1 39/1/1
f 43/1/1 42/1/1 41/1/1
f 44/1/1 42/1/1 43/1/1
f 47/1/1 46/1/1 45/1/1
f 48/1/1 46/1/1 47/1/1
f 51/1/1 50/1/1 49/1/1
f 52/1/1 50/1/1 51/1/1
f 55/1/1 54/1/1 53/1/1
f 56/1/1 54/1/1 55/1/1
f 59/1/1 58/1/1 57/1/1
f 60/1/1 58/1/1 59/1/1
f 63/1/1 62/1/1 61/1/1
f 64/1/1 62/1/1 63/1/1
f 69/1/1 66/1/1 65/1/1
f 70/1/1 66/1/1 69/1/1
f 73/1/1 68/1/1 67/1/1
f 74/1/1 68/1/1 73/1/1
f 75/1/1 71/1/1 70/1/1
f 76/1/1 71/1/1 75/1/1
f 79/1/1 73/1/1 72/1/1
f 80/1/1 73/1/1 79/1/1
f 81/1/1 77/1/1 76/1/1
f 82/1/1 77/1/1 81/1/1
f 83/1/1 79/1/1 78/1/1
f 84/1/1 79/1/1 83/1/1
f 87/1/1 86/1/1 85/1/1
f 88/1/1 86/1/1 87/1/1
f 91/1/1 90/1/1 89/1/1
f 92/1/1 90/1/1 91/1/1
f 95/1/1 94/1/1 93/1/1
f 96/1/1 94/1/1 95/1/1
f 100/5/1 98/5/1 97/5/1
f 101/3/1 99/3/1 98/3/1
f 101/5/1 98/5/1 100/5/1
f 102/3/1 99/3/1 101/3/1
f 103/3/1 99/3/1 102/3/1
f 104/5/1 102/5/1 101/5/1
f 105/3/1 103/3/1 102/3/1
f 105/5/1 102/5/1 104/5/1
f 106/3/1 103/3/1 105/3/1
f 107/3/1 103/3/1 106/3/1
f 110/5/1 109/5/1 108/5/1
f 111/5/1 109/5/1 110/5/1
f 115/3/1 113/3/1 112/3/1
f 116/3/1 113/3/1 115/3/1
f 117/5/1 115/5/1 114/5/1
f 118/5/1 115/5/1 117/5/1
f 119/3/1 113/3/1 116/3/1
f 120/3/1 113/3/1 119/3/1
f 121/3/1 113/3/1 120/3/1
f 122/5/1 119/5/1 118/5/1
f 123/5/1 119/5/1 122/5/1
f 124/3/1 121/3/1 120/3/1
f 125/3/1 121/3/1 124/3/1
f 130/5/1 127/5/1 126/5/1
f 131/5/1 127/5/1 130/5/1
f 132/4/1 129/4/1 128/4/1
f 133/4/1 129/4/1 132/4/1
f 136/1/1 135/1/1 134/1/1
f 137/1/1 135/1/1 136/1/1
f 141/1/1 139/1/1 138/1/1
f 142/1/1 139/1/1 141/1/1
f 144/1/1 141/1/1 140/1/1
f 145/1/1 141/1/1 144/1/1
f 146/1/1 143/1/1 142/1/1
f 147/1/1 143/1/1 146/1/1
f 151/1/1 149/1/1 148/1/1
f 152/1/1 149/1/1 151/1/1
f 154/1/1 151/1/1 150/1/1
f 155/1/1 151/1/1 154/1/1
f 156/1/1 153/1/1 152/1/1
f 157/1/1 153/1/1 156/1/1
f 162/1/1 159/1/1 158/1/1
f 163/1/1 159/1/1 162/1/1
f 165/1/1 161/1/1 160/1/1
f 166/1/1 161/1/1 165/1/1
f 167/1/1 164/1/1 163/1/1
f 167/1/1 163/1/1 162/1/1
f 168/1/1 164/1/1 167/1/1
f 173/1/1 170/1/1 169/1/1
f 174/1/1 170/1/1 173/1/1
f 175/1/1 172/1/1 171/1/1
f 176/1/1 172/1/1 175/1/1
f 179/7/1 178/7/1 177/7/1
f 180/7/1 178/7/1 179/7/1
f 183/1/1 182/1/1 181/1/1
f 184/1/1 182/1/1 183/1/1
f 189/3/1 186/3/1 185/3/1
f 190/3/1 186/3/1 189/3/1
f 191/3/1 188/3/1 187/3/1
f 192/3/1 188/3/1 191/3/1
f 193/3/1 189/3/1 185/3/1
f 194/3/1 189/3/1 193/3/1
f 195/3/1 191/3/1 190/3/1
f 196/3/1 191/3/1 195/3/1
f 197/3/1 188/3/1 192/3/1
f 198/3/1 188/3/1 197/3/1
f 201/1/1 200/1/1 199/1/1
f 202/1/1 200/1/1 201/1/1
f 205/1/1 204/1/1 203/1/1
f 206/1/1 204/1/1 205/1/1
f 209/1/1 208/1/1 207/1/1
f 210/1/1 208/1/1 209/1/1
f 215/5/1 212/5/1 211/5/1
f 216/5/1 212/5/1 215/5/1
f 217/5/1 214/5/1 213/5/1
f 218/5/1 214/5/1 217/5/1
f 223/5/1 220/5/1 219/5/1
f 224/5/1 220/5/1 223/5/1
f 225/5/1 222/5/1 221/5/1
f 226/5/1 222/5/1 225/5/1
f 227/5/1 225/5/1 224/5/1
f 228/5/1 225/5/1 227/5/1
f 229/5/2 230/5/2 233/5/2
f 233/5/2 230/5/2 234/5/2
f 231/5/2 232/5/2 235/5/2
f 235/5/2 232/5/2 236/5/2
f 237/5/2 238/5/2 241/5/2
f 241/5/2 238/5/2 242/5/2
f 239/5/2 240/5/2 243/5/2
f 243/5/2 240/5/2 244/5/2
f 242/5/2 243/5/2 245/5/2
f 245/5/2 243/5/2 246/5/2
f 247/1/2 248/1/2 249/1/2
f 249/1/2 248/1/2 250/1/2
f 251/1/2 252/1/2 253/1/2
f 253/1/2 252/1/2 254/1/2
f 255/3/2 256/3/2 259/3/2
f 259/3/2 256/3/2 260/3/2
f 257/3/2 258/3/2 261/3/2
f 261/3/2 258/3/2 262/3/2
f 255/3/2 259/3/2 263/3/2
f 263/3/2 259/3/2 264/3/2
f 260/3/2 261/3/2 265/3/2
f 265/3/2 261/3/2 266/3/2
f 262/3/2 258/3/2 267/3/2
f 267/3/2 258/3/2 268/3/2
f 269/1/2 270/1/2 271/1/2
f 271/1/2 270/1/2 272/1/2
f 273/7/2 274/7/2 275/7/2
f 275/7/2 274/7/2 276/7/2
f 277/1/2 278/1/2 279/1/2
f 279/1/2 278/1/2 280/1/2
f 281/1/2 282/1/2 283/1/2
f 283/1/2 282/1/2 284/1/2
f 285/1/2 286/1/2 287/1/2
f 287/1/2 286/1/2 288/1/2
f 289/1/2 290/1/2 291/1/2
f 291/1/2 290/1/2 292/1/2
f 293/1/2 294/1/2 295/1/2
f 295/1/2 294/1/2 296/1/2
f 297/1/2 298/1/2 299/1/2
f 299/1/2 298/1/2 300/1/2
f 301/1/2 302/1/2 303/1/2
f 303/1/2 302/1/2 304/1/2
f 305/3/2 306/3/2 308/3/2
f 308/3/2 306/3/2 309/3/2
f 307/5/2 308/5/2 310/5/2
f 310/5/2 308/5/2 311/5/2
f 309/3/2 306/3/2 312/3/2
f 312/3/2 306/3/2 313/3/2
f 313/3/2 306/3/2 314/3/2
f 311/5/2 312/5/2 315/5/2
f 315/5/2 312/5/2 316/5/2
f 313/3/2 314/3/2 317/3/2
f 317/3/2 314/3/2 318/3/2
f 319/5/2 320/5/2 323/5/2
f 323/5/2 320/5/2 324/5/2
f 321/4/2 322/4/2 325/4/2
f 325/4/2 322/4/2 326/4/2
f 327/5/2 328/5/2 330/5/2
f 328/3/2 329/3/2 331/3/2
f 330/5/2 328/5/2 331/5/2
f 331/3/2 329/3/2 332/3/2
f 332/3/2 329/3/2 333/3/2
f 331/5/2 332/5/2 334/5/2
f 332/3/2 333/3/2 335/3/2
f 334/5/2 332/5/2 335/5/2
f 335/3/2 333/3/2 336/3/2
f 336/3/2 333/3/2 337/3/2
f 338/5/2 339/5/2 340/5/2
f 340/5/2 339/5/2 341/5/2
f 342/1/2 343/1/2 346/1/2
f 346/1/2 343/1/2 347/1/2
f 344/1/2 345/1/2 350/1/2
f 350/1/2 345/1/2 351/1/2
f 347/1/2 348/1/2 352/1/2
f 352/1/2 348/1/2 353/1/2
f 349/1/2 350/1/2 356/1/2
f 356/1/2 350/1/2 357/1/2
f 353/1/2 354/1/2 358/1/2
f 358/1/2 354/1/2 359/1/2
f 355/1/2 356/1/2 360/1/2
f 360/1/2 356/1/2 361/1/2
f 362/1/2 363/1/2 364/1/2
f 364/1/2 363/1/2 365/1/2
f 366/1/2 367/1/2 368/1/2
f 368/1/2 367/1/2 369/1/2
f 370/1/2 371/1/2 372/1/2
f 372/1/2 371/1/2 373/1/2
f 374/1/2 375/1/2 376/1/2
f 376/1/2 375/1/2 377/1/2
f 378/1/2 379/1/2 380/1/2
f 380/1/2 379/1/2 381/1/2
f 382/1/2 383/1/2 384/1/2
f 384/1/2 383/1/2 385/1/2
f 386/1/2 387/1/2 388/1/2
f 388/1/2 387/1/2 389/1/2
f 390/3/2 391/3/2 392/3/2
f 392/3/2 391/3/2 393/3/2
f 394/4/2 395/4/2 396/4/2
f 396/4/2 395/4/2 397/4/2
f 398/1/2 399/1/2 400/1/2
f 400/1/2 399/1/2 401/1/2
f 402/3/2 403/3/2 406/3/2
f 406/3/2 403/3/2 407/3/2
f 404/3/2 405/3/2 408/3/2
f 408/3/2 405/3/2 409/3/2
f 410/1/2 411/1/2 412/1/2
f 412/1/2 411/1/2 413/1/2
f 414/1/2 415/1/2 416/1/2
f 416/1/2 415/1/2 417/1/2
f 418/5/2 419/5/2 422/5/2
f 420/5/2 421/5/2 423/5/2
f 418/5/2 422/5/2 424/5/2
f 422/5/2 423/5/2 424/5/2
f 423/5/2 421/5/2 425/5/2
f 424/5/2 423/5/2 425/5/2
f 418/5/2 424/5/2 426/5/2
f 425/5/2 421/5/2 427/5/2
f 418/5/2 426/5/2 428/5/2
f 426/5/2 427/5/2 428/5/2
f 427/5/2 421/5/2 429/5/2
f 428/5/2 427/5/2 429/5/2
f 432/5/3 431/5/3 430/5/3
f 433/5/3 431/5/3 432/5/3
f 434/5/3 431/5/3 433/5/3
f 435/6/3 433/6/3 432/6/3
f 436/6/3 433/6/3 435/6/3
f 438/5/3 436/5/3 435/5/3
f 438/5/3 437/5/3 436/5/3
f 439/5/3 437/5/3 438/5/3
f 443/5/3 441/5/3 440/5/3
f 444/5/3 441/5/3 443/5/3
f 445/6/3 443/6/3 442/6/3
f 446/6/3 443/6/3 445/6/3
f 448/5/3 447/5/3 446/5/3
f 449/5/3 447/5/3 448/5/3
f 452/5/3 451/5/3 450/5/3
f 453/5/3 451/5/3 452/5/3
f 454/5/3 451/5/3 453/5/3
f 455/5/3 451/5/3 454/5/3
f 456/5/3 454/5/3 453/5/3
f 457/5/3 454/5/3 456/5/3
f 458/5/3 451/5/3 455/5/3
f 460/5/3 457/5/3 456/5/3
f 460/5/3 458/5/3 457/5/3
f 461/5/3 458/5/3 460/5/3
f 462/5/3 451/5/3 458/5/3
f 462/5/3 458/5/3 461/5/3
f 463/6/3 460/6/3 459/6/3
f 464/2/3 461/2/3 460/2/3
f 464/6/3 460/6/3 463/6/3
f 465/2/3 461/2/3 464/2/3
f 467/5/3 466/5/3 465/5/3
f 467/5/3 465/5/3 464/5/3
f 468/5/3 466/5/3 467/5/3
f 469/5/3 466/5/3 468/5/3
f 471/5/3 468/5/3 467/5/3
f 472/5/3 468/5/3 471/5/3
f 473/5/3 466/5/3 469/5/3
f 474/5/3 472/5/3 471/5/3
f 474/5/3 473/5/3 472/5/3
f 474/5/3 471/5/3 470/5/3
f 475/5/3 466/5/3 473/5/3
f 475/5/3 473/5/3 474/5/3
f 478/1/3 477/1/3 476/1/3
f 479/1/3 477/1/3 478/1/3
f 484/3/3 481/3/3 480/3/3
f 485/3/3 481/3/3 484/3/3
f 488/3/3 487/3/3 486/3/3
f 489/3/3 487/3/3 488/3/3
f 490/1/3 483/1/3 482/1/3
f 491/1/3 483/1/3 490/1/3
f 498/3/3 497/3/3 496/3/3
f 499/3/3 497/3/3 498/3/3
f 502/4/3 493/4/3 492/4/3
f 503/4/3 493/4/3 502/4/3
f 504/3/3 501/3/3 500/3/3
f 505/3/3 501/3/3 504/3/3
f 507/4/3 493/4/3 503/4/3
f 510/3/3 509/3/3 508/3/3
f 511/3/3 509/3/3 510/3/3
f 512/4/3 507/4/3 506/4/3
f 513/4/3 493/4/3 507/4/3
f 513/4/3 507/4/3 512/4/3
f 514/1/3 495/1/3 494/1/3
f 515/1/3 495/1/3 514/1/3
f 518/1/3 517/1/3 516/1/3
f 519/1/3 517/1/3 518/1/3
f 522/1/3 521/1/3 520/1/3
f 523/1/3 521/1/3 522/1/3
f 526/1/3 525/1/3 524/1/3
f 527/1/3 525/1/3 526/1/3
f 530/1/3 529/1/3 528/1/3
f 531/1/3 529/1/3 530/1/3
f 534/1/3 533/1/3 532/1/3
f 535/1/3 533/1/3 534/1/3
f 538/1/3 537/1/3 536/1/3
f 539/1/3 537/1/3 538/1/3
f 544/1/3 541/1/3 540/1/3
f 545/1/3 541/1/3 544/1/3
f 547/1/3 543/1/3 542/1/3
f 548/1/3 543/1/3 547/1/3
f 550/1/3 547/1/3 546/1/3
f 551/1/3 547/1/3 550/1/3
f 552/1/3 550/1/3 549/1/3
f 553/1/3 550/1/3 552/1/3
f 556/1/3 555/1/3 554/1/3
f 557/1/3 555/1/3 556/1/3
f 560/1/3 559/1/3 558/1/3
f 561/1/3 559/1/3 560/1/3
f 564/1/3 563/1/3 562/1/3
f 565/1/3 563/1/3 564/1/3
f 569/1/3 567/1/3 566/1/3
f 570/1/3 567/1/3 569/1/3
f 571/1/3 569/1/3 568/1/3
f 572/1/3 569/1/3 571/1/3
f 574/1/3 573/1/3 572/1/3
f 575/1/3 573/1/3 574/1/3
f 579/1/3 577/1/3 576/1/3
f 580/1/3 577/1/3 579/1/3
f 581/1/3 579/1/3 578/1/3
f 582/1/3 579/1/3 581/1/3
f 584/1/3 583/1/3 582/1/3
f 585/1/3 583/1/3 584/1/3
f 588/1/3 587/1/3 586/1/3
f 589/1/3 587/1/3 588/1/3
f 592/1/3 591/1/3 590/1/3
f 593/1/3 591/1/3 592/1/3
f 596/1/3 595/1/3 594/1/3
f 597/1/3 595/1/3 596/1/3
f 602/7/3 599/7/3 598/7/3
f 603/7/3 599/7/3 602/7/3
f 604/1/3 601/1/3 600/1/3
f 605/1/3 601/1/3 604/1/3
f 608/3/3 607/3/3 606/3/3
f 609/3/3 607/3/3 608/3/3
f 610/3/3 608/3/3 606/3/3
f 611/3/3 608/3/3 610/3/3
f 616/3/3 612/3/3 611/3/3
f 617/3/3 612/3/3 616/3/3
f 618/1/3 614/1/3 613/1/3
f 619/1/3 614/1/3 618/1/3
f 620/3/3 616/3/3 615/3/3
f 622/3/3 620/3/3 615/3/3
f 622/3/3 621/3/3 620/3/3
f 623/3/3 621/3/3 622/3/3
f 626/1/3 625/1/3 624/1/3
f 627/1/3 625/1/3 626/1/3
f 630/1/3 629/1/3 628/1/3
f 631/1/3 629/1/3 630/1/3
f 636/5/3 633/5/3 632/5/3
f 637/5/3 633/5/3 636/5/3
f 638/5/3 635/5/3 634/5/3
f 639/5/3 635/5/3 638/5/3
f 644/5/3 640/5/3 639/5/3
f 645/5/3 640/5/3 644/5/3
f 646/5/3 642/5/3 641/5/3
f 647/5/3 642/5/3 646/5/3
f 648/5/3 644/5/3 643/5/3
f 649/5/3 644/5/3 648/5/3
f 650/6/4 651/6/4 652/6/4
f 652/6/4 651/6/4 653/6/4
f 654/6/4 655/6/4 656/6/4
f 656/6/4 655/6/4 657/6/4
f 658/5/4 659/5/4 662/5/4
f 662/5/4 659/5/4 663/5/4
f 660/5/4 661/5/4 664/5/4
f 664/5/4 661/5/4 665/5/4
f 665/5/4 666/5/4 668/5/4
f 667/5/4 668/5/4 671/5/4
f 668/5/4 666/5/4 672/5/4
f 671/5/4 668/5/4 672/5/4
f 669/6/4 670/6/4 673/6/4
f 673/6/4 670/6/4 674/6/4
f 675/5/4 676/5/4 677/5/4
f 677/5/4 676/5/4 678/5/4
f 678/5/4 676/5/4 682/5/4
f 682/5/4 676/5/4 683/5/4
f 679/5/4 680/5/4 684/5/4
f 684/5/4 680/5/4 685/5/4
f 681/5/4 682/5/4 686/5/4
f 686/5/4 682/5/4 687/5/4
f 688/1/4 689/1/4 690/1/4
f 690/1/4 689/1/4 691/1/4
f 692/1/4 693/1/4 694/1/4
f 694/1/4 693/1/4 695/1/4
f 696/3/4 697/3/4 700/3/4
f 700/3/4 697/3/4 701/3/4
f 702/3/4 703/3/4 704/3/4
f 704/3/4 703/3/4 705/3/4
f 698/1/4 699/1/4 706/1/4
f 706/1/4 699/1/4 707/1/4
f 708/3/4 709/3/4 710/3/4
f 710/3/4 709/3/4 711/3/4
f 708/3/4 710/3/4 712/3/4
f 712/3/4 710/3/4 713/3/4
f 713/3/4 714/3/4 717/3/4
f 715/1/4 716/1/4 721/1/4
f 720/1/4 721/1/4 722/1/4
f 721/1/4 716/1/4 723/1/4
f 722/1/4 721/1/4 723/1/4
f 718/4/4 719/4/4 724/4/4
f 724/4/4 719/4/4 725/4/4
f 725/4/4 719/4/4 727/4/4
f 713/3/4 717/3/4 728/3/4
f 726/4/4 727/4/4 729/4/4
f 727/4/4 719/4/4 730/4/4
f 729/4/4 727/4/4 730/4/4
f 713/3/4 728/3/4 732/3/4
f 732/3/4 728/3/4 733/3/4
f 723/1/4 716/1/4 734/1/4
f 734/1/4 716/1/4 735/1/4
f 731/3/4 732/3/4 736/3/4
f 731/3/4 736/3/4 738/3/4
f 736/3/4 737/3/4 738/3/4
f 738/3/4 737/3/4 739/3/4
f 740/1/4 741/1/4 742/1/4
f 742/1/4 741/1/4 743/1/4
f 744/1/4 745/1/4 746/1/4
f 746/1/4 745/1/4 747/1/4
f 748/1/4 749/1/4 750/1/4
f 750/1/4 749/1/4 751/1/4
f 752/1/4 753/1/4 754/1/4
f 754/1/4 753/1/4 755/1/4
f 756/1/4 757/1/4 759/1/4
f 759/1/4 757/1/4 760/1/4
f 758/1/4 759/1/4 761/1/4
f 761/1/4 759/1/4 762/1/4
f 762/1/4 763/1/4 764/1/4
f 764/1/4 763/1/4 765/1/4
f 766/1/4 767/1/4 769/1/4
f 769/1/4 767/1/4 770/1/4
f 768/1/4 769/1/4 771/1/4
f 771/1/4 769/1/4 772/1/4
f 772/1/4 773/1/4 774/1/4
f 774/1/4 773/1/4 775/1/4
f 776/1/4 777/1/4 778/1/4
f 778/1/4 777/1/4 779/1/4
f 780/1/4 781/1/4 782/1/4
f 782/1/4 781/1/4 783/1/4
f 784/1/4 785/1/4 788/1/4
f 788/1/4 785/1/4 789/1/4
f 786/1/4 787/1/4 791/1/4
f 791/1/4 787/1/4 792/1/4
f 790/1/4 791/1/4 794/1/4
f 794/1/4 791/1/4 795/1/4
f 793/1/4 794/1/4 796/1/4
f 796/1/4 794/1/4 797/1/4
f 798/1/4 799/1/4 800/1/4
f 800/1/4 799/1/4 801/1/4
f 802/1/4 803/1/4 804/1/4
f 804/1/4 803/1/4 805/1/4
f 806/1/4 807/1/4 808/1/4
f 808/1/4 807/1/4 809/1/4
f 810/1/4 811/1/4 812/1/4
f 812/1/4 811/1/4 813/1/4
f 814/1/4 815/1/4 816/1/4
f 816/1/4 815/1/4 817/1/4
f 818/1/4 819/1/4 820/1/4
f 820/1/4 819/1/4 821/1/4
f 822/1/4 823/1/4 824/1/4
f 824/1/4 823/1/4 825/1/4
f 830/3/4 831/3/4 832/3/4
f 832/3/4 831/3/4 833/3/4
f 826/4/4 827/4/4 834/4/4
f 834/4/4 827/4/4 835/4/4
f 828/1/4 829/1/4 836/1/4
f 836/1/4 829/1/4 837/1/4
f 838/3/4 839/3/4 842/3/4
f 842/3/4 839/3/4 843/3/4
f 844/3/4 845/3/4 846/3/4
f 846/3/4 845/3/4 847/3/4
f 840/1/4 841/1/4 848/1/4
f 848/1/4 841/1/4 849/1/4
f 850/1/4 851/1/4 852/1/4
f 852/1/4 851/1/4 853/1/4
f 854/5/4 855/5/4 856/5/4
f 856/5/4 855/5/4 857/5/4
f 857/5/4 855/5/4 858/5/4
f 858/5/4 855/5/4 859/5/4
f 857/5/4 858/5/4 861/5/4
f 861/5/4 858/5/4 862/5/4
f 859/5/4 855/5/4 863/5/4
f 861/5/4 862/5/4 864/5/4
f 862/5/4 863/5/4 864/5/4
f 860/5/4 861/5/4 864/5/4
f 863/5/4 855/5/4 865/5/4
f 864/5/4 863/5/4 865/5/4
f 870/5/5 867/5/5 866/5/5
f 871/6/5 868/6/5 867/6/5
f 871/5/5 867/5/5 870/5/5
f 872/5/5 869/5/5 868/5/5
f 872/6/5 868/6/5 871/6/5
f 873/5/5 869/5/5 872/5/5
f 878/5/5 875/5/5 874/5/5
f 879/5/5 875/5/5 878/5/5
f 880/5/5 877/5/5 876/5/5
f 881/5/5 877/5/5 880/5/5
f 886/3/5 871/3/5 870/3/5
f 887/3/5 871/3/5 886/3/5
f 888/3/5 873/3/5 872/3/5
f 889/3/5 873/3/5 888/3/5
f 890/3/5 883/3/5 882/3/5
f 891/3/5 883/3/5 890/3/5
f 892/3/5 885/3/5 884/3/5
f 893/3/5 885/3/5 892/3/5
f 898/3/5 895/3/5 894/3/5
f 899/3/5 895/3/5 898/3/5
f 900/3/5 897/3/5 896/3/5
f 901/3/5 897/3/5 900/3/5
f 906/5/5 903/5/5 902/5/5
f 907/5/5 903/5/5 906/5/5
f 908/5/5 905/5/5 904/5/5
f 909/5/5 905/5/5 908/5/5
f 912/6/5 911/6/5 910/6/5
f 913/6/5 911/6/5 912/6/5
f 916/6/5 915/6/5 914/6/5
f 917/6/5 915/6/5 916/6/5
f 925/3/5 921/3/5 920/3/5
f 925/3/5 923/3/5 922/3/5
f 925/3/5 922/3/5 921/3/5
f 925/3/5 920/3/5 919/3/5
f 925/3/5 919/3/5 918/3/5
f 926/3/5 923/3/5 925/3/5
f 928/3/5 925/3/5 924/3/5
f 929/3/5 925/3/5 928/3/5
f 930/3/5 927/3/5 926/3/5
f 931/3/5 927/3/5 930/3/5
f 932/3/5 930/3/5 929/3/5
f 933/3/5 930/3/5 932/3/5
f 939/5/5 935/5/5 934/5/5
f 940/5/5 935/5/5 939/5/5
f 943/5/5 937/5/5 936/5/5
f 944/5/5 937/5/5 943/5/5
f 946/2/5 940/2/5 939/2/5
f 947/2/5 940/2/5 946/2/5
f 948/2/5 944/2/5 943/2/5
f 949/2/5 944/2/5 948/2/5
f 950/2/5 940/2/5 947/2/5
f 951/2/5 940/2/5 950/2/5
f 952/2/5 942/2/5 941/2/5
f 953/2/5 942/2/5 952/2/5
f 954/2/5 948/2/5 943/2/5
f 955/2/5 948/2/5 954/2/5
f 956/2/5 946/2/5 939/2/5
f 963/2/5 944/2/5 949/2/5
f 964/2/5 960/2/5 959/2/5
f 964/3/5 959/3/5 958/3/5
f 965/3/5 961/3/5 960/3/5
f 965/2/5 960/2/5 964/2/5
f 966/2/5 956/2/5 939/2/5
f 966/2/5 957/2/5 956/2/5
f 967/2/5 957/2/5 966/2/5
f 968/3/5 964/3/5 958/3/5
f 968/3/5 965/3/5 964/3/5
f 969/3/5 961/3/5 965/3/5
f 969/3/5 965/3/5 968/3/5
f 970/2/5 963/2/5 962/2/5
f 971/2/5 944/2/5 963/2/5
f 971/2/5 963/2/5 970/2/5
f 974/2/5 966/2/5 939/2/5
f 975/2/5 973/2/5 972/2/5
f 976/2/5 973/2/5 975/2/5
f 977/2/5 944/2/5 971/2/5
f 978/5/5 939/5/5 938/5/5
f 979/2/5 976/2/5 975/2/5
f 979/5/5 939/5/5 978/5/5
f 979/2/5 977/2/5 976/2/5
f 979/2/5 974/2/5 939/2/5
f 979/2/5 975/2/5 974/2/5
f 980/2/5 944/2/5 977/2/5
f 980/2/5 977/2/5 979/2/5
f 980/5/5 945/5/5 944/5/5
f 981/5/5 945/5/5 980/5/5
f 982/5/5 980/5/5 979/5/5
f 983/5/5 980/5/5 982/5/5
f 989/5/5 985/5/5 984/5/5
f 990/5/5 985/5/5 989/5/5
f 991/5/5 987/5/5 986/5/5
f 992/5/5 987/5/5 991/5/5
f 994/5/5 989/5/5 988/5/5
f 995/5/5 989/5/5 994/5/5
f 996/5/5 993/5/5 992/5/5
f 997/5/5 993/5/5 996/5/5
f 998/5/5 996/5/5 995/5/5
f 999/5/5 996/5/5 998/5/5
f 1002/4/5 1001/4/5 1000/4/5
f 1003/4/5 1001/4/5 1002/4/5
f 1006/1/5 1005/1/5 1004/1/5
f 1007/1/5 1005/1/5 1006/1/5
f 1010/8/5 1009/8/5 1008/8/5
f 1011/8/5 1009/8/5 1010/8/5
f 1012/1/5 1006/1/5 1004/1/5
f 1013/1/5 1005/1/5 1007/1/5
f 1014/1/5 1012/1/5 1004/1/5
f 1014/1/5 1013/1/5 1012/1/5
f 1015/1/5 1005/1/5 1013/1/5
f 1015/1/5 1013/1/5 1014/1/5
f 1018/1/5 1017/1/5 1016/1/5
f 1019/1/5 1017/1/5 1018/1/5
f 1020/1/5 1018/1/5 1016/1/5
f 1021/1/5 1017/1/5 1019/1/5
f 1022/1/5 1020/1/5 1016/1/5
f 1022/1/5 1021/1/5 1020/1/5
f 1023/1/5 1017/1/5 1021/1/5
f 1023/1/5 1021/1/5 1022/1/5
f 1028/1/5 1025/1/5 1024/1/5
f 1029/1/5 1025/1/5 1028/1/5
f 1030/1/5 1027/1/5 1026/1/5
f 1031/1/5 1027/1/5 1030/1/5
f 1032/1/5 1028/1/5 1024/1/5
f 1033/1/5 1027/1/5 1031/1/5
f 1034/1/5 1032/1/5 1024/1/5
f 1034/1/5 1033/1/5 1032/1/5
f 1035/1/5 1027/1/5 1033/1/5
f 1035/1/5 1033/1/5 1034/1/5
f 1038/1/5 1037/1/5 1036/1/5
f 1039/1/5 1037/1/5 1038/1/5
f 1040/1/5 1038/1/5 1036/1/5
f 1041/1/5 1037/1/5 1039/1/5
f 1042/1/5 1040/1/5 1036/1/5
f 1042/1/5 1041/1/5 1040/1/5
f 1043/1/5 1037/1/5 1041/1/5
f 1043/1/5 1041/1/5 1042/1/5
f 1046/1/5 1045/1/5 1044/1/5
f 1047/1/5 1045/1/5 1046/1/5
f 1049/1/5 1045/1/5 1047/1/5
f 1050/1/5 1049/1/5 1048/1/5
f 1051/1/5 1045/1/5 1049/1/5
f 1051/1/5 1049/1/5 1050/1/5
f 1052/1/5 1046/1/5 1044/1/5
f 1053/1/5 1045/1/5 1051/1/5
f 1054/1/5 1052/1/5 1044/1/5
f 1054/1/5 1053/1/5 1052/1/5
f 1055/1/5 1045/1/5 1053/1/5
f 1055/1/5 1053/1/5 1054/1/5
f 1058/1/5 1057/1/5 1056/1/5
f 1059/1/5 1057/1/5 1058/1/5
f 1060/1/5 1057/1/5 1059/1/5
f 1061/1/5 1057/1/5 1060/1/5
f 1062/1/5 1060/1/5 1059/1/5
f 1063/1/5 1060/1/5 1062/1/5
f 1065/1/5 1057/1/5 1061/1/5
f 1066/1/5 1065/1/5 1064/1/5
f 1067/1/5 1057/1/5 1065/1/5
f 1067/1/5 1065/1/5 1066/1/5
f 1068/1/5 1057/1/5 1067/1/5
f 1073/1/5 1058/1/5 1056/1/5
f 1074/1/5 1072/1/5 1071/1/5
f 1075/1/5 1072/1/5 1074/1/5
f 1076/1/5 1070/1/5 1069/1/5
f 1077/1/5 1073/1/5 1056/1/5
f 1077/1/5 1076/1/5 1075/1/5
f 1077/1/5 1075/1/5 1074/1/5
f 1077/1/5 1074/1/5 1073/1/5
f 1078/1/5 1070/1/5 1076/1/5
f 1078/1/5 1076/1/5 1077/1/5
f 1083/1/5 1080/1/5 1079/1/5
f 1084/1/5 1080/1/5 1083/1/5
f 1085/1/5 1082/1/5 1081/1/5
f 1086/1/5 1082/1/5 1085/1/5
f 1087/1/5 1085/1/5 1084/1/5
f 1088/1/5 1085/1/5 1087/1/5
f 1090/1/5 1082/1/5 1086/1/5
f 1091/1/5 1082/1/5 1090/1/5
f 1092/1/5 1090/1/5 1089/1/5
f 1093/1/5 1090/1/5 1092/1/5
f 1097/1/5 1083/1/5 1079/1/5
f 1098/1/5 1096/1/5 1095/1/5
f 1099/1/5 1096/1/5 1098/1/5
f 1100/1/5 1094/1/5 1093/1/5
f 1101/1/5 1097/1/5 1079/1/5
f 1101/1/5 1098/1/5 1097/1/5
f 1102/1/5 1098/1/5 1101/1/5
f 1103/1/5 1100/1/5 1099/1/5
f 1104/1/5 1094/1/5 1100/1/5
f 1104/1/5 1100/1/5 1103/1/5
f 1109/1/5 1106/1/5 1105/1/5
f 1110/1/5 1106/1/5 1109/1/5
f 1111/1/5 1108/1/5 1107/1/5
f 1112/1/5 1108/1/5 1111/1/5
f 1113/1/5 1111/1/5 1110/1/5
f 1114/1/5 1111/1/5 1113/1/5
f 1116/1/5 1108/1/5 1112/1/5
f 1117/1/5 1108/1/5 1116/1/5
f 1120/1/5 1116/1/5 1115/1/5
f 1121/1/5 1116/1/5 1120/1/5
f 1123/1/5 1109/1/5 1105/1/5
f 1124/1/5 1119/1/5 1118/1/5
f 1125/1/5 1119/1/5 1124/1/5
f 1126/1/5 1122/1/5 1121/1/5
f 1127/1/5 1123/1/5 1105/1/5
f 1127/1/5 1124/1/5 1123/1/5
f 1128/1/5 1124/1/5 1127/1/5
f 1129/1/5 1126/1/5 1125/1/5
f 1130/1/5 1122/1/5 1126/1/5
f 1130/1/5 1126/1/5 1129/1/5
f 1135/1/5 1132/1/5 1131/1/5
f 1136/1/5 1134/1/5 1133/1/5
f 1137/1/5 1134/1/5 1136/1/5
f 1138/1/5 1134/1/5 1137/1/5
f 1139/1/5 1135/1/5 1131/1/5
f 1139/1/5 1136/1/5 1135/1/5
f 1139/1/5 1137/1/5 1136/1/5
f 1140/1/5 1137/1/5 1139/1/5
f 1141/1/5 1139/1/5 1131/1/5
f 1142/1/5 1137/1/5 1140/1/5
f 1143/1/5 1141/1/5 1131/1/5
f 1143/1/5 1142/1/5 1141/1/5
f 1144/1/5 1137/1/5 1142/1/5
f 1144/1/5 1142/1/5 1143/1/5
f 1145/1/5 1137/1/5 1144/1/5
f 1147/1/5 1143/1/5 1131/1/5
f 1148/1/5 1143/1/5 1147/1/5
f 1149/1/5 1146/1/5 1145/1/5
f 1149/1/5 1145/1/5 1144/1/5
f 1150/1/5 1146/1/5 1149/1/5
f 1153/1/5 1152/1/5 1151/1/5
f 1154/1/5 1152/1/5 1153/1/5
f 1155/6/6 1156/6/6 1157/6/6
f 1157/6/6 1156/6/6 1158/6/6
f 1159/5/6 1160/5/6 1163/5/6
f 1163/5/6 1160/5/6 1164/5/6
f 1161/5/6 1162/5/6 1165/5/6
f 1165/5/6 1162/5/6 1166/5/6
f 1164/6/6 1165/6/6 1167/6/6
f 1167/6/6 1165/6/6 1168/6/6
f 1169/5/6 1170/5/6 1173/5/6
f 1173/5/6 1170/5/6 1174/5/6
f 1171/5/6 1172/5/6 1175/5/6
f 1175/5/6 1172/5/6 1176/5/6
f 1177/5/6 1178/5/6 1184/5/6
f 1184/5/6 1178/5/6 1185/5/6
f 1179/2/6 1180/2/6 1186/2/6
f 1186/2/6 1180/2/6 1187/2/6
f 1181/5/6 1182/5/6 1188/5/6
f 1188/5/6 1182/5/6 1189/5/6
f 1186/2/6 1187/2/6 1191/2/6
f 1184/2/6 1185/2/6 1191/2/6
f 1188/2/6 1189/2/6 1191/2/6
f 1187/2/6 1188/2/6 1191/2/6
f 1185/2/6 1186/2/6 1191/2/6
f 1191/2/6 1189/2/6 1192/2/6
f 1192/2/6 1189/2/6 1193/2/6
f 1193/2/6 1189/2/6 1194/2/6
f 1192/2/6 1193/2/6 1196/2/6
f 1196/2/6 1193/2/6 1197/2/6
f 1195/2/6 1196/2/6 1199/2/6
f 1197/2/6 1198/2/6 1199/2/6
f 1196/2/6 1197/2/6 1199/2/6
f 1199/2/6 1198/2/6 1200/2/6
f 1184/2/6 1191/2/6 1201/2/6
f 1194/2/6 1189/2/6 1202/2/6
f 1183/5/6 1184/5/6 1203/5/6
f 1201/2/6 1202/2/6 1204/2/6
f 1203/5/6 1184/5/6 1204/5/6
f 1184/2/6 1201/2/6 1204/2/6
f 1189/5/6 1190/5/6 1205/5/6
f 1204/2/6 1202/2/6 1205/2/6
f 1202/2/6 1189/2/6 1205/2/6
f 1205/5/6 1190/5/6 1206/5/6
f 1204/5/6 1205/5/6 1207/5/6
f 1207/5/6 1205/5/6 1208/5/6
f 1209/5/6 1210/5/6 1213/5/6
f 1213/5/6 1210/5/6 1214/5/6
f 1211/5/6 1212/5/6 1215/5/6
f 1215/5/6 1212/5/6 1216/5/6
f 1209/5/6 1213/5/6 1217/5/6
f 1216/5/6 1212/5/6 1218/5/6
f 1209/5/6 1217/5/6 1219/5/6
f 1217/5/6 1218/5/6 1219/5/6
f 1218/5/6 1212/5/6 1220/5/6
f 1219/5/6 1218/5/6 1220/5/6
f 1221/1/6 1222/1/6 1223/1/6
f 1223/1/6 1222/1/6 1224/1/6
f 1225/4/6 1226/4/6 1229/4/6
f 1229/4/6 1226/4/6 1230/4/6
f 1227/4/6 1228/4/6 1231/4/6
f 1231/4/6 1228/4/6 1232/4/6
f 1229/8/6 1230/8/6 1233/8/6
f 1225/4/6 1229/4/6 1233/4/6
f 1231/8/6 1232/8/6 1233/8/6
f 1230/8/6 1231/8/6 1233/8/6
f 1232/4/6 1228/4/6 1234/4/6
f 1233/8/6 1232/8/6 1234/8/6
f 1225/4/6 1233/4/6 1235/4/6
f 1233/4/6 1234/4/6 1235/4/6
f 1234/4/6 1228/4/6 1236/4/6
f 1235/4/6 1234/4/6 1236/4/6
f 1221/1/6 1223/1/6 1237/1/6
f 1224/1/6 1222/1/6 1238/1/6
f 1221/1/6 1237/1/6 1239/1/6
f 1237/1/6 1238/1/6 1239/1/6
f 1238/1/6 1222/1/6 1240/1/6
f 1239/1/6 1238/1/6 1240/1/6
f 1241/1/6 1242/1/6 1243/1/6
f 1243/1/6 1242/1/6 1244/1/6
f 1241/1/6 1243/1/6 1245/1/6
f 1244/1/6 1242/1/6 1246/1/6
f 1241/1/6 1245/1/6 1247/1/6
f 1245/1/6 1246/1/6 1247/1/6
f 1246/1/6 1242/1/6 1248/1/6
f 1247/1/6 1246/1/6 1248/1/6
f 1249/1/6 1250/1/6 1251/1/6
f 1251/1/6 1250/1/6 1252/1/6
f 1249/1/6 1251/1/6 1253/1/6
f 1252/1/6 1250/1/6 1254/1/6
f 1249/1/6 1253/1/6 1255/1/6
f 1253/1/6 1254/1/6 1255/1/6
f 1254/1/6 1250/1/6 1256/1/6
f 1255/1/6 1254/1/6 1256/1/6
f 1257/1/6 1258/1/6 1259/1/6
f 1259/1/6 1258/1/6 1260/1/6
f 1257/1/6 1259/1/6 1261/1/6
f 1260/1/6 1258/1/6 1262/1/6
f 1257/1/6 1261/1/6 1263/1/6
f 1261/1/6 1262/1/6 1263/1/6
f 1262/1/6 1258/1/6 1264/1/6
f 1263/1/6 1262/1/6 1264/1/6
f 1265/1/6 1266/1/6 1267/1/6
f 1267/1/6 1266/1/6 1268/1/6
f 1265/1/6 1267/1/6 1269/1/6
f 1268/1/6 1266/1/6 1270/1/6
f 1265/1/6 1269/1/6 1271/1/6
f 1269/1/6 1270/1/6 1271/1/6
f 1270/1/6 1266/1/6 1272/1/6
f 1271/1/6 1270/1/6 1272/1/6
f 1273/1/6 1274/1/6 1275/1/6
f 1275/1/6 1274/1/6 1276/1/6
f 1273/1/6 1275/1/6 1277/1/6
f 1276/1/6 1274/1/6 1278/1/6
f 1273/1/6 1277/1/6 1279/1/6
f 1277/1/6 1278/1/6 1279/1/6
f 1278/1/6 1274/1/6 1280/1/6
f 1279/1/6 1278/1/6 1280/1/6
f 1281/1/6 1282/1/6 1283/1/6
f 1283/1/6 1282/1/6 1284/1/6
f 1281/1/6 1283/1/6 1285/1/6
f 1284/1/6 1282/1/6 1286/1/6
f 1281/1/6 1285/1/6 1287/1/6
f 1285/1/6 1286/1/6 1287/1/6
f 1286/1/6 1282/1/6 1288/1/6
f 1287/1/6 1286/1/6 1288/1/6
f 1289/1/6 1290/1/6 1291/1/6
f 1291/1/6 1290/1/6 1292/1/6
f 1289/1/6 1291/1/6 1293/1/6
f 1292/1/6 1290/1/6 1294/1/6
f 1289/1/6 1293/1/6 1295/1/6
f 1293/1/6 1294/1/6 1295/1/6
f 1294/1/6 1290/1/6 1296/1/6
f 1295/1/6 1294/1/6 1296/1/6
f 1297/1/6 1298/1/6 1299/1/6
f 1299/1/6 1298/1/6 1300/1/6
f 1297/1/6 1299/1/6 1301/1/6
f 1300/1/6 1298/1/6 1302/1/6
f 1297/1/6 1301/1/6 1303/1/6
f 1301/1/6 1302/1/6 1303/1/6
f 1302/1/6 1298/1/6 1304/1/6
f 1303/1/6 1302/1/6 1304/1/6
f 1305/1/6 1306/1/6 1307/1/6
f 1307/1/6 1306/1/6 1308/1/6
