# MagicaVoxel @ Ephtracy

# group
o 

# material
mtllib pso3.mtl
usemtl palette

# normals
vn -1 0 0
vn 1 0 0
vn 0 0 1
vn 0 0 -1
vn 0 -1 0
vn 0 1 0

# texcoords
vt 0.302734 0.5
vt 0.314453 0.5
vt 0.978516 0.5
vt 0.982422 0.5
vt 0.994141 0.5

# verts
v -4.1 9.2 4
v -4.1 9.2 0
v -4.1 9.6 3.2
v -4.1 9.6 1.2
v -4.1 11.2 3.2
v -4.1 11.2 3
v -4.1 11.4 3.2
v -4.1 11.4 3
v -4.1 12.8 3.2
v -4.1 12.8 1.2
v -4.1 13.2 4
v -4.1 13.2 0
v -4.1 13.2 -4
v -4.1 13.4 4
v -4.1 13.4 -4
v -3.7 13.4 4
v -3.7 13.4 -4
v -3.7 13.6 4
v -3.7 13.6 -4
v -3.1 13.6 4
v -3.1 13.6 -4
v -3.1 13.8 4
v -3.1 13.8 -4
v -2.5 13.8 4
v -2.5 13.8 -4
v -2.5 14 4
v -2.5 14 -4
v -2.3 9.2 0
v -2.3 9.2 -4
v -2.3 10.4 -1
v -2.3 10.4 -3
v -2.3 11.2 -1
v -2.3 11.2 -3
v -2.3 11.4 -1
v -2.3 11.4 -3
v -2.3 12.2 -1
v -2.3 12.2 -3
v -2.3 13.2 0
v -2.3 13.2 -4
v -2.3 13.6 0
v -2.3 13.6 -4
v -1.9 14 4
v -1.9 14 -4
v -1.9 14.2 4
v -1.9 14.2 -4
v -1.3 14.2 4
v -1.3 14.2 -4
v -1.3 14.4 4
v -1.3 14.4 -4
v -0.7 14.4 4
v -0.7 14.4 -4
v -0.7 14.6 4
v -0.7 14.6 -4
v -0.0999999 14.6 4
v -0.0999999 14.6 -4
v -0.0999999 14.8 4
v -0.0999999 14.8 -4
v 0.5 14.8 4
v 0.5 14.8 -4
v 0.5 15 4
v 0.5 15 -4
v 1.3 15 4
v 1.3 15 -4
v 1.3 15.2 4
v 1.3 15.2 -4
v 2.1 14.8 3.8
v 2.1 14.8 -3.8
v 2.1 15 3.8
v 2.1 15 -3.8
v 2.3 14.6 3.8
v 2.3 14.6 -3.8
v 2.3 14.8 3.8
v 2.3 14.8 -3.8
v 2.5 14.4 3.8
v 2.5 14.4 -3.8
v 2.5 14.6 3.8
v 2.5 14.6 -3.8
v 2.7 14.2 3.8
v 2.7 14.2 -3.8
v 2.7 14.4 3.8
v 2.7 14.4 -3.8
v 2.9 14 3.8
v 2.9 14 -3.8
v 2.9 14.2 3.8
v 2.9 14.2 -3.8
v 3.1 13.8 3.8
v 3.1 13.8 -3.8
v 3.1 14 3.8
v 3.1 14 -3.8
v 3.3 13.6 3.8
v 3.3 13.6 -3.8
v 3.3 13.8 3.8
v 3.3 13.8 -3.8
v 3.5 13.4 3.8
v 3.5 13.4 -3.8
v 3.5 13.6 3.8
v 3.5 13.6 -3.8
v 3.7 9.4 3.8
v 3.7 9.4 -3.8
v 3.7 13 3.8
v 3.7 13 -3.8
v 3.7 13.2 3.8
v 3.7 13.2 -3.8
v 3.7 13.4 3.8
v 3.7 13.4 -3.8
v -3.7 9.4 3.8
v -3.7 9.4 0.2
v -3.7 13 3.8
v -3.7 13 0.2
v -3.3 13.2 3.8
v -3.3 13.2 0.2
v -3.3 13.2 0
v -3.3 13.2 -4
v -3.3 13.4 3.8
v -3.3 13.4 0.2
v -3.3 13.4 0
v -3.3 13.4 -4
v -2.7 13.4 3.8
v -2.7 13.4 0.2
v -2.7 13.4 0
v -2.7 13.4 -4
v -2.7 13.6 3.8
v -2.7 13.6 0.2
v -2.7 13.6 0
v -2.7 13.6 -4
v -2.1 13.6 3.8
v -2.1 13.6 0.2
v -2.1 13.8 3.8
v -2.1 13.8 0.2
v -1.9 9.4 0.2
v -1.9 9.4 0
v -1.9 9.4 -3.8
v -1.9 13 0.2
v -1.9 13 0
v -1.9 13 -3.8
v -1.9 13.2 0.2
v -1.9 13.2 -3.8
v -1.9 13.8 0.2
v -1.9 13.8 -3.8
v -1.5 13.8 3.8
v -1.5 13.8 -3.8
v -1.5 14 3.8
v -1.5 14 -3.8
v -0.9 14 3.8
v -0.9 14 -3.8
v -0.9 14.2 3.8
v -0.9 14.2 -3.8
v -0.3 14.2 3.8
v -0.3 14.2 -3.8
v -0.3 14.4 3.8
v -0.3 14.4 -3.8
v 0.3 14.4 3.8
v 0.3 14.4 -3.8
v 0.3 14.6 3.8
v 0.3 14.6 -3.8
v 0.9 14.6 3.8
v 0.9 14.6 -3.8
v 0.9 14.8 3.8
v 0.9 14.8 -3.8
v 1.7 14.8 3.8
v 1.7 14.8 -3.8
v 1.7 15 3.8
v 1.7 15 -3.8
v 2.3 15 4
v 2.3 15 -4
v 2.3 15.2 4
v 2.3 15.2 -4
v 2.5 14.8 4
v 2.5 14.8 -4
v 2.5 15 4
v 2.5 15 -4
v 2.7 14.6 4
v 2.7 14.6 -4
v 2.7 14.8 4
v 2.7 14.8 -4
v 2.9 14.4 4
v 2.9 14.4 -4
v 2.9 14.6 4
v 2.9 14.6 -4
v 3.1 14.2 4
v 3.1 14.2 -4
v 3.1 14.4 4
v 3.1 14.4 -4
v 3.3 14 4
v 3.3 14 -4
v 3.3 14.2 4
v 3.3 14.2 -4
v 3.5 13.8 4
v 3.5 13.8 -4
v 3.5 14 4
v 3.5 14 -4
v 3.7 13.6 4
v 3.7 13.6 -4
v 3.7 13.8 4
v 3.7 13.8 -4
v 3.9 13.4 4
v 3.9 13.4 -4
v 3.9 13.6 4
v 3.9 13.6 -4
v 4.1 9.2 4
v 4.1 9.2 -4
v 4.1 13.2 4
v 4.1 13.2 -4
v 4.1 13.4 4
v 4.1 13.4 -4
v -4.1 9.2 4
v -4.1 13.2 4
v -4.1 13.4 4
v -3.7 13.4 4
v -3.7 13.6 4
v -3.3 11 4
v -3.3 12.6 4
v -3.3 13.2 4
v -3.3 13.4 4
v -3.1 13.6 4
v -3.1 13.8 4
v -2.7 11 4
v -2.7 12.6 4
v -2.7 13.4 4
v -2.7 13.6 4
v -2.5 11 4
v -2.5 12.6 4
v -2.5 13.8 4
v -2.5 14 4
v -2.1 13.6 4
v -2.1 13.8 4
v -1.9 11 4
v -1.9 12.6 4
v -1.9 14 4
v -1.9 14.2 4
v -1.5 13.8 4
v -1.5 14 4
v -1.3 14.2 4
v -1.3 14.4 4
v -0.9 14 4
v -0.9 14.2 4
v -0.7 14.4 4
v -0.7 14.6 4
v -0.3 14.2 4
v -0.3 14.4 4
v -0.0999999 14.6 4
v -0.0999999 14.8 4
v 0.3 14.4 4
v 0.3 14.6 4
v 0.5 14.8 4
v 0.5 15 4
v 0.9 14.6 4
v 0.9 14.8 4
v 1.3 15 4
v 1.3 15.2 4
v 1.7 14.8 4
v 1.7 15 4
v 1.9 11 4
v 1.9 12.6 4
v 2.3 14.8 4
v 2.3 15 4
v 2.3 15.2 4
v 2.5 14.6 4
v 2.5 14.8 4
v 2.5 15 4
v 2.7 11 4
v 2.7 12.6 4
v 2.7 14.4 4
v 2.7 14.6 4
v 2.7 14.8 4
v 2.9 11 4
v 2.9 12.6 4
v 2.9 14.2 4
v 2.9 14.4 4
v 2.9 14.6 4
v 3.1 14 4
v 3.1 14.2 4
v 3.1 14.4 4
v 3.3 13.8 4
v 3.3 14 4
v 3.3 14.2 4
v 3.5 11 4
v 3.5 12.6 4
v 3.5 13.6 4
v 3.5 13.8 4
v 3.5 14 4
v 3.7 13.4 4
v 3.7 13.6 4
v 3.7 13.8 4
v 3.9 13.2 4
v 3.9 13.4 4
v 3.9 13.6 4
v 4.1 9.2 4
v 4.1 13.2 4
v 4.1 13.4 4
v -3.7 9.4 0.2
v -3.7 13 0.2
v -3.3 13.2 0.2
v -3.3 13.4 0.2
v -2.7 13.4 0.2
v -2.7 13.6 0.2
v -2.1 9.4 0.2
v -2.1 13 0.2
v -2.1 13.6 0.2
v -2.1 13.8 0.2
v -1.9 9.4 0.2
v -1.9 13 0.2
v -1.9 13.2 0.2
v -1.9 13.8 0.2
v -1.9 9.4 -3.8
v -1.9 13 -3.8
v -1.9 13.2 -3.8
v -1.9 13.8 -3.8
v -1.5 13.8 -3.8
v -1.5 14 -3.8
v -0.9 14 -3.8
v -0.9 14.2 -3.8
v -0.3 14.2 -3.8
v -0.3 14.4 -3.8
v 0.3 14.4 -3.8
v 0.3 14.6 -3.8
v 0.9 14.6 -3.8
v 0.9 14.8 -3.8
v 1.7 14.8 -3.8
v 1.7 15 -3.8
v 2.1 14.8 -3.8
v 2.1 15 -3.8
v 2.3 14.6 -3.8
v 2.3 14.8 -3.8
v 2.5 14.4 -3.8
v 2.5 14.6 -3.8
v 2.7 14.2 -3.8
v 2.7 14.4 -3.8
v 2.9 14 -3.8
v 2.9 14.2 -3.8
v 3.1 13.8 -3.8
v 3.1 14 -3.8
v 3.3 13.6 -3.8
v 3.3 13.8 -3.8
v 3.5 13.4 -3.8
v 3.5 13.6 -3.8
v 3.7 9.4 -3.8
v 3.7 13 -3.8
v 3.7 13.2 -3.8
v 3.7 13.4 -3.8
v -3.7 9.4 3.8
v -3.7 13 3.8
v -3.3 11 3.8
v -3.3 12.6 3.8
v -3.3 13.2 3.8
v -3.3 13.4 3.8
v -2.7 11 3.8
v -2.7 12.6 3.8
v -2.7 13.4 3.8
v -2.7 13.6 3.8
v -2.5 11 3.8
v -2.5 12.6 3.8
v -2.1 13.6 3.8
v -2.1 13.8 3.8
v -1.9 11 3.8
v -1.9 12.6 3.8
v -1.5 13.8 3.8
v -1.5 14 3.8
v -0.9 14 3.8
v -0.9 14.2 3.8
v -0.3 14.2 3.8
v -0.3 14.4 3.8
v 0.3 14.4 3.8
v 0.3 14.6 3.8
v 0.9 14.6 3.8
v 0.9 14.8 3.8
v 1.7 14.8 3.8
v 1.7 15 3.8
v 1.9 11 3.8
v 1.9 12.6 3.8
v 2.1 14.8 3.8
v 2.1 15 3.8
v 2.3 14.6 3.8
v 2.3 14.8 3.8
v 2.5 14.4 3.8
v 2.5 14.6 3.8
v 2.7 11 3.8
v 2.7 12.6 3.8
v 2.7 14.2 3.8
v 2.7 14.4 3.8
v 2.9 11 3.8
v 2.9 12.6 3.8
v 2.9 14 3.8
v 2.9 14.2 3.8
v 3.1 13.8 3.8
v 3.1 14 3.8
v 3.3 13.6 3.8
v 3.3 13.8 3.8
v 3.5 11 3.8
v 3.5 12.6 3.8
v 3.5 13.4 3.8
v 3.5 13.6 3.8
v 3.7 9.4 3.8
v 3.7 13 3.8
v 3.7 13.2 3.8
v 3.7 13.4 3.8
v -4.1 9.2 0
v -4.1 13.2 0
v -3.3 13.2 0
v -3.3 13.4 0
v -2.7 13.4 0
v -2.7 13.6 0
v -2.3 9.2 0
v -2.3 13.2 0
v -2.3 13.6 0
v -4.1 13.2 -4
v -4.1 13.4 -4
v -3.7 13.4 -4
v -3.7 13.6 -4
v -3.3 13.2 -4
v -3.3 13.4 -4
v -3.1 13.6 -4
v -3.1 13.8 -4
v -2.7 13.4 -4
v -2.7 13.6 -4
v -2.5 13.8 -4
v -2.5 14 -4
v -2.3 9.2 -4
v -2.3 13.2 -4
v -2.3 13.6 -4
v -2.1 13.6 -4
v -2.1 13.8 -4
v -1.9 14 -4
v -1.9 14.2 -4
v -1.5 13.8 -4
v -1.5 14 -4
v -1.3 14.2 -4
v -1.3 14.4 -4
v -0.9 14 -4
v -0.9 14.2 -4
v -0.7 14.4 -4
v -0.7 14.6 -4
v -0.3 14.2 -4
v -0.3 14.4 -4
v -0.0999999 14.6 -4
v -0.0999999 14.8 -4
v 0.3 14.4 -4
v 0.3 14.6 -4
v 0.5 14.8 -4
v 0.5 15 -4
v 0.9 14.6 -4
v 0.9 14.8 -4
v 1.3 15 -4
v 1.3 15.2 -4
v 1.7 14.8 -4
v 1.7 15 -4
v 2.3 14.8 -4
v 2.3 15 -4
v 2.3 15.2 -4
v 2.5 14.6 -4
v 2.5 14.8 -4
v 2.5 15 -4
v 2.7 14.4 -4
v 2.7 14.6 -4
v 2.7 14.8 -4
v 2.9 14.2 -4
v 2.9 14.4 -4
v 2.9 14.6 -4
v 3.1 14 -4
v 3.1 14.2 -4
v 3.1 14.4 -4
v 3.3 13.8 -4
v 3.3 14 -4
v 3.3 14.2 -4
v 3.5 13.6 -4
v 3.5 13.8 -4
v 3.5 14 -4
v 3.7 13.4 -4
v 3.7 13.6 -4
v 3.7 13.8 -4
v 3.9 13.2 -4
v 3.9 13.4 -4
v 3.9 13.6 -4
v 4.1 9.2 -4
v 4.1 13.2 -4
v 4.1 13.4 -4
v -4.1 9.2 4
v 4.1 9.2 4
v -3.7 9.2 3.8
v 3.9 9.2 3.8
v -3.7 9.2 0.2
v -2.1 9.2 0.2
v -4.1 9.2 0
v -2.3 9.2 0
v -2.1 9.2 0
v -1.9 9.2 0
v -1.9 9.2 -3.8
v 3.9 9.2 -3.8
v -2.3 9.2 -4
v 4.1 9.2 -4
v -3.7 13 3.8
v 3.7 13 3.8
v -3.7 13 0.2
v -2.1 13 0.2
v -1.9 13 0.2
v -1.9 13 0
v -1.9 13 -3.8
v 3.7 13 -3.8
v -4.1 13.2 0
v -3.3 13.2 0
v -4.1 13.2 -4
v -3.3 13.2 -4
v -3.3 13.4 3.8
v -2.7 13.4 3.8
v 3.5 13.4 3.8
v 3.7 13.4 3.8
v -3.3 13.4 0.2
v -2.7 13.4 0.2
v -3.3 13.4 0
v -2.7 13.4 0
v 3.5 13.4 -3.8
v 3.7 13.4 -3.8
v -3.3 13.4 -4
v -2.7 13.4 -4
v -2.7 13.6 3.8
v -2.1 13.6 3.8
v 3.3 13.6 3.8
v 3.5 13.6 3.8
v -2.7 13.6 0.2
v -2.1 13.6 0.2
v -2.7 13.6 0
v -2.3 13.6 0
v 3.3 13.6 -3.8
v 3.5 13.6 -3.8
v -2.7 13.6 -4
v -2.3 13.6 -4
v -2.1 13.8 3.8
v -1.5 13.8 3.8
v 3.1 13.8 3.8
v 3.3 13.8 3.8
v -2.1 13.8 0.2
v -1.9 13.8 0.2
v -1.9 13.8 -3.8
v -1.5 13.8 -3.8
v 3.1 13.8 -3.8
v 3.3 13.8 -3.8
v -1.5 14 3.8
v -0.9 14 3.8
v 2.9 14 3.8
v 3.1 14 3.8
v -1.5 14 -3.8
v -0.9 14 -3.8
v 2.9 14 -3.8
v 3.1 14 -3.8
v -0.9 14.2 3.8
v -0.3 14.2 3.8
v 2.7 14.2 3.8
v 2.9 14.2 3.8
v -0.9 14.2 -3.8
v -0.3 14.2 -3.8
v 2.7 14.2 -3.8
v 2.9 14.2 -3.8
v -0.3 14.4 3.8
v 0.3 14.4 3.8
v 2.5 14.4 3.8
v 2.7 14.4 3.8
v -0.3 14.4 -3.8
v 0.3 14.4 -3.8
v 2.5 14.4 -3.8
v 2.7 14.4 -3.8
v 0.3 14.6 3.8
v 0.9 14.6 3.8
v 2.3 14.6 3.8
v 2.5 14.6 3.8
v 0.3 14.6 -3.8
v 0.9 14.6 -3.8
v 2.3 14.6 -3.8
v 2.5 14.6 -3.8
v 0.9 14.8 3.8
v 1.7 14.8 3.8
v 2.1 14.8 3.8
v 2.3 14.8 3.8
v 0.9 14.8 -3.8
v 1.7 14.8 -3.8
v 2.1 14.8 -3.8
v 2.3 14.8 -3.8
v 1.7 15 3.8
v 2.1 15 3.8
v 1.7 15 -3.8
v 2.1 15 -3.8
v -3.7 9.4 3.8
v 3.7 9.4 3.8
v -3.7 9.4 0.2
v -2.1 9.4 0.2
v -1.9 9.4 0.2
v -1.9 9.4 0
v -1.9 9.4 -3.8
v 3.7 9.4 -3.8
v -3.3 13.2 3.8
v 3.7 13.2 3.8
v -3.3 13.2 0.2
v -1.9 13.2 0.2
v -1.9 13.2 -3.8
v 3.7 13.2 -3.8
v -4.1 13.4 4
v -3.7 13.4 4
v 3.9 13.4 4
v 4.1 13.4 4
v -4.1 13.4 -4
v -3.7 13.4 -4
v 3.9 13.4 -4
v 4.1 13.4 -4
v -3.7 13.6 4
v -3.1 13.6 4
v 3.7 13.6 4
v 3.9 13.6 4
v -3.7 13.6 -4
v -3.1 13.6 -4
v 3.7 13.6 -4
v 3.9 13.6 -4
v -3.1 13.8 4
v -2.5 13.8 4
v 3.5 13.8 4
v 3.7 13.8 4
v -3.1 13.8 -4
v -2.5 13.8 -4
v 3.5 13.8 -4
v 3.7 13.8 -4
v -2.5 14 4
v -1.9 14 4
v 3.3 14 4
v 3.5 14 4
v -2.5 14 -4
v -1.9 14 -4
v 3.3 14 -4
v 3.5 14 -4
v -1.9 14.2 4
v -1.3 14.2 4
v 3.1 14.2 4
v 3.3 14.2 4
v -1.9 14.2 -4
v -1.3 14.2 -4
v 3.1 14.2 -4
v 3.3 14.2 -4
v -1.3 14.4 4
v -0.7 14.4 4
v 2.9 14.4 4
v 3.1 14.4 4
v -1.3 14.4 -4
v -0.7 14.4 -4
v 2.9 14.4 -4
v 3.1 14.4 -4
v -0.7 14.6 4
v -0.0999999 14.6 4
v 2.7 14.6 4
v 2.9 14.6 4
v -0.7 14.6 -4
v -0.0999999 14.6 -4
v 2.7 14.6 -4
v 2.9 14.6 -4
v -0.0999999 14.8 4
v 0.5 14.8 4
v 2.5 14.8 4
v 2.7 14.8 4
v -0.0999999 14.8 -4
v 0.5 14.8 -4
v 2.5 14.8 -4
v 2.7 14.8 -4
v 0.5 15 4
v 1.3 15 4
v 2.3 15 4
v 2.5 15 4
v 0.5 15 -4
v 1.3 15 -4
v 2.3 15 -4
v 2.5 15 -4
v 1.3 15.2 4
v 2.3 15.2 4
v 1.3 15.2 -4
v 2.3 15.2 -4

# faces
f 3/2/1 2/2/1 1/2/1
f 4/2/1 2/2/1 3/2/1
f 5/2/1 3/2/1 1/2/1
f 5/1/1 4/1/1 3/1/1
f 6/1/1 4/1/1 5/1/1
f 7/2/1 5/2/1 1/2/1
f 7/4/1 6/4/1 5/4/1
f 8/1/1 4/1/1 6/1/1
f 8/4/1 6/4/1 7/4/1
f 9/2/1 7/2/1 1/2/1
f 9/1/1 8/1/1 7/1/1
f 10/2/1 2/2/1 4/2/1
f 10/1/1 8/1/1 9/1/1
f 10/1/1 4/1/1 8/1/1
f 11/2/1 9/2/1 1/2/1
f 11/2/1 10/2/1 9/2/1
f 12/2/1 2/2/1 10/2/1
f 12/2/1 10/2/1 11/2/1
f 14/4/1 12/4/1 11/4/1
f 14/4/1 13/4/1 12/4/1
f 15/4/1 13/4/1 14/4/1
f 18/4/1 17/4/1 16/4/1
f 19/4/1 17/4/1 18/4/1
f 22/4/1 21/4/1 20/4/1
f 23/4/1 21/4/1 22/4/1
f 26/4/1 25/4/1 24/4/1
f 27/4/1 25/4/1 26/4/1
f 30/2/1 29/2/1 28/2/1
f 31/2/1 29/2/1 30/2/1
f 32/2/1 30/2/1 28/2/1
f 32/5/1 31/5/1 30/5/1
f 33/2/1 29/2/1 31/2/1
f 33/5/1 31/5/1 32/5/1
f 34/2/1 32/2/1 28/2/1
f 34/4/1 33/4/1 32/4/1
f 35/2/1 29/2/1 33/2/1
f 35/4/1 33/4/1 34/4/1
f 36/2/1 34/2/1 28/2/1
f 36/5/1 35/5/1 34/5/1
f 37/2/1 29/2/1 35/2/1
f 37/5/1 35/5/1 36/5/1
f 38/2/1 36/2/1 28/2/1
f 38/2/1 37/2/1 36/2/1
f 39/2/1 29/2/1 37/2/1
f 39/2/1 37/2/1 38/2/1
f 40/5/1 39/5/1 38/5/1
f 41/5/1 39/5/1 40/5/1
f 44/4/1 43/4/1 42/4/1
f 45/4/1 43/4/1 44/4/1
f 48/4/1 47/4/1 46/4/1
f 49/4/1 47/4/1 48/4/1
f 52/4/1 51/4/1 50/4/1
f 53/4/1 51/4/1 52/4/1
f 56/4/1 55/4/1 54/4/1
f 57/4/1 55/4/1 56/4/1
f 60/4/1 59/4/1 58/4/1
f 61/4/1 59/4/1 60/4/1
f 64/4/1 63/4/1 62/4/1
f 65/4/1 63/4/1 64/4/1
f 68/4/1 67/4/1 66/4/1
f 69/4/1 67/4/1 68/4/1
f 72/4/1 71/4/1 70/4/1
f 73/4/1 71/4/1 72/4/1
f 76/4/1 75/4/1 74/4/1
f 77/4/1 75/4/1 76/4/1
f 80/4/1 79/4/1 78/4/1
f 81/4/1 79/4/1 80/4/1
f 84/4/1 83/4/1 82/4/1
f 85/4/1 83/4/1 84/4/1
f 88/4/1 87/4/1 86/4/1
f 89/4/1 87/4/1 88/4/1
f 92/4/1 91/4/1 90/4/1
f 93/4/1 91/4/1 92/4/1
f 96/4/1 95/4/1 94/4/1
f 97/4/1 95/4/1 96/4/1
f 100/2/1 99/2/1 98/2/1
f 101/2/1 99/2/1 100/2/1
f 104/4/1 103/4/1 102/4/1
f 105/4/1 103/4/1 104/4/1
f 106/2/2 107/2/2 108/2/2
f 108/2/2 107/2/2 109/2/2
f 110/4/2 111/4/2 114/4/2
f 114/4/2 111/4/2 115/4/2
f 112/4/2 113/4/2 116/4/2
f 116/4/2 113/4/2 117/4/2
f 118/4/2 119/4/2 122/4/2
f 122/4/2 119/4/2 123/4/2
f 120/4/2 121/4/2 124/4/2
f 124/4/2 121/4/2 125/4/2
f 126/4/2 127/4/2 128/4/2
f 128/4/2 127/4/2 129/4/2
f 130/4/2 131/4/2 133/4/2
f 131/2/2 132/2/2 134/2/2
f 133/4/2 131/4/2 134/4/2
f 134/2/2 132/2/2 135/2/2
f 136/5/2 137/5/2 138/5/2
f 138/5/2 137/5/2 139/5/2
f 140/4/2 141/4/2 142/4/2
f 142/4/2 141/4/2 143/4/2
f 144/4/2 145/4/2 146/4/2
f 146/4/2 145/4/2 147/4/2
f 148/4/2 149/4/2 150/4/2
f 150/4/2 149/4/2 151/4/2
f 152/4/2 153/4/2 154/4/2
f 154/4/2 153/4/2 155/4/2
f 156/4/2 157/4/2 158/4/2
f 158/4/2 157/4/2 159/4/2
f 160/4/2 161/4/2 162/4/2
f 162/4/2 161/4/2 163/4/2
f 164/4/2 165/4/2 166/4/2
f 166/4/2 165/4/2 167/4/2
f 168/4/2 169/4/2 170/4/2
f 170/4/2 169/4/2 171/4/2
f 172/4/2 173/4/2 174/4/2
f 174/4/2 173/4/2 175/4/2
f 176/4/2 177/4/2 178/4/2
f 178/4/2 177/4/2 179/4/2
f 180/4/2 181/4/2 182/4/2
f 182/4/2 181/4/2 183/4/2
f 184/4/2 185/4/2 186/4/2
f 186/4/2 185/4/2 187/4/2
f 188/4/2 189/4/2 190/4/2
f 190/4/2 189/4/2 191/4/2
f 192/4/2 193/4/2 194/4/2
f 194/4/2 193/4/2 195/4/2
f 196/4/2 197/4/2 198/4/2
f 198/4/2 197/4/2 199/4/2
f 200/2/2 201/2/2 202/2/2
f 202/2/2 201/2/2 203/2/2
f 202/4/2 203/4/2 204/4/2
f 204/4/2 203/4/2 205/4/2
f 209/4/3 208/4/3 207/4/3
f 211/2/3 207/2/3 206/2/3
f 212/2/3 207/2/3 211/2/3
f 213/4/3 210/4/3 209/4/3
f 213/2/3 207/2/3 212/2/3
f 213/4/3 209/4/3 207/4/3
f 214/4/3 210/4/3 213/4/3
f 215/4/3 210/4/3 214/4/3
f 217/5/3 212/5/3 211/5/3
f 217/2/3 211/2/3 206/2/3
f 218/2/3 213/2/3 212/2/3
f 218/5/3 212/5/3 217/5/3
f 219/4/3 216/4/3 215/4/3
f 219/4/3 215/4/3 214/4/3
f 219/5/3 214/5/3 213/5/3
f 220/4/3 216/4/3 219/4/3
f 221/3/3 218/3/3 217/3/3
f 221/2/3 217/2/3 206/2/3
f 222/2/3 213/2/3 218/2/3
f 222/3/3 218/3/3 221/3/3
f 223/4/3 216/4/3 220/4/3
f 225/5/3 220/5/3 219/5/3
f 225/4/3 224/4/3 223/4/3
f 225/4/3 223/4/3 220/4/3
f 226/4/3 224/4/3 225/4/3
f 227/2/3 221/2/3 206/2/3
f 227/5/3 222/5/3 221/5/3
f 228/2/3 213/2/3 222/2/3
f 228/5/3 222/5/3 227/5/3
f 229/4/3 224/4/3 226/4/3
f 231/5/3 226/5/3 225/5/3
f 231/4/3 230/4/3 229/4/3
f 231/4/3 229/4/3 226/4/3
f 232/4/3 230/4/3 231/4/3
f 233/4/3 230/4/3 232/4/3
f 235/5/3 232/5/3 231/5/3
f 235/4/3 234/4/3 233/4/3
f 235/4/3 233/4/3 232/4/3
f 236/4/3 234/4/3 235/4/3
f 237/4/3 234/4/3 236/4/3
f 239/5/3 236/5/3 235/5/3
f 239/4/3 238/4/3 237/4/3
f 239/4/3 237/4/3 236/4/3
f 240/4/3 238/4/3 239/4/3
f 241/4/3 238/4/3 240/4/3
f 243/5/3 240/5/3 239/5/3
f 243/4/3 242/4/3 241/4/3
f 243/4/3 241/4/3 240/4/3
f 244/4/3 242/4/3 243/4/3
f 245/4/3 242/4/3 244/4/3
f 247/5/3 244/5/3 243/5/3
f 247/4/3 246/4/3 245/4/3
f 247/4/3 245/4/3 244/4/3
f 248/4/3 246/4/3 247/4/3
f 249/4/3 246/4/3 248/4/3
f 251/5/3 248/5/3 247/5/3
f 251/4/3 250/4/3 249/4/3
f 251/4/3 249/4/3 248/4/3
f 252/4/3 250/4/3 251/4/3
f 253/2/3 227/2/3 206/2/3
f 253/2/3 228/2/3 227/2/3
f 254/2/3 213/2/3 228/2/3
f 254/2/3 228/2/3 253/2/3
f 255/5/3 252/5/3 251/5/3
f 255/5/3 251/5/3 247/5/3
f 256/4/3 250/4/3 252/4/3
f 256/5/3 252/5/3 255/5/3
f 257/4/3 250/4/3 256/4/3
f 258/5/3 255/5/3 247/5/3
f 258/5/3 247/5/3 243/5/3
f 259/4/3 256/4/3 255/4/3
f 259/5/3 255/5/3 258/5/3
f 260/4/3 256/4/3 259/4/3
f 261/2/3 253/2/3 206/2/3
f 261/5/3 254/5/3 253/5/3
f 262/2/3 213/2/3 254/2/3
f 262/5/3 254/5/3 261/5/3
f 263/5/3 243/5/3 239/5/3
f 263/5/3 258/5/3 243/5/3
f 264/4/3 259/4/3 258/4/3
f 264/5/3 258/5/3 263/5/3
f 265/4/3 259/4/3 264/4/3
f 266/2/3 261/2/3 206/2/3
f 266/3/3 262/3/3 261/3/3
f 267/2/3 213/2/3 262/2/3
f 267/3/3 262/3/3 266/3/3
f 268/5/3 239/5/3 235/5/3
f 268/5/3 263/5/3 239/5/3
f 269/4/3 264/4/3 263/4/3
f 269/5/3 263/5/3 268/5/3
f 270/4/3 264/4/3 269/4/3
f 271/5/3 235/5/3 231/5/3
f 271/5/3 268/5/3 235/5/3
f 272/4/3 269/4/3 268/4/3
f 272/5/3 268/5/3 271/5/3
f 273/4/3 269/4/3 272/4/3
f 274/5/3 231/5/3 225/5/3
f 274/5/3 271/5/3 231/5/3
f 275/4/3 272/4/3 271/4/3
f 275/5/3 271/5/3 274/5/3
f 276/4/3 272/4/3 275/4/3
f 277/2/3 266/2/3 206/2/3
f 277/5/3 267/5/3 266/5/3
f 278/2/3 213/2/3 267/2/3
f 278/5/3 267/5/3 277/5/3
f 279/5/3 225/5/3 219/5/3
f 279/5/3 274/5/3 225/5/3
f 280/4/3 275/4/3 274/4/3
f 280/5/3 274/5/3 279/5/3
f 281/4/3 275/4/3 280/4/3
f 282/5/3 219/5/3 213/5/3
f 282/5/3 279/5/3 219/5/3
f 283/4/3 280/4/3 279/4/3
f 283/5/3 279/5/3 282/5/3
f 284/4/3 280/4/3 283/4/3
f 285/2/3 213/2/3 278/2/3
f 285/2/3 278/2/3 277/2/3
f 285/5/3 282/5/3 213/5/3
f 286/4/3 283/4/3 282/4/3
f 286/5/3 282/5/3 285/5/3
f 287/4/3 283/4/3 286/4/3
f 288/2/3 277/2/3 206/2/3
f 288/2/3 285/2/3 277/2/3
f 289/4/3 286/4/3 285/4/3
f 289/2/3 285/2/3 288/2/3
f 290/4/3 286/4/3 289/4/3
f 295/5/3 294/5/3 293/5/3
f 297/2/3 292/2/3 291/2/3
f 298/2/3 292/2/3 297/2/3
f 299/5/3 296/5/3 295/5/3
f 301/4/3 298/4/3 297/4/3
f 302/4/3 298/4/3 301/4/3
f 303/5/3 300/5/3 299/5/3
f 303/5/3 295/5/3 293/5/3
f 303/5/3 299/5/3 295/5/3
f 304/5/3 300/5/3 303/5/3
f 309/5/3 308/5/3 307/5/3
f 311/5/3 310/5/3 309/5/3
f 313/5/3 312/5/3 311/5/3
f 315/5/3 314/5/3 313/5/3
f 317/5/3 316/5/3 315/5/3
f 319/5/3 318/5/3 317/5/3
f 321/5/3 319/5/3 317/5/3
f 321/5/3 320/5/3 319/5/3
f 322/5/3 320/5/3 321/5/3
f 323/5/3 317/5/3 315/5/3
f 323/5/3 321/5/3 317/5/3
f 324/5/3 321/5/3 323/5/3
f 325/5/3 315/5/3 313/5/3
f 325/5/3 323/5/3 315/5/3
f 326/5/3 323/5/3 325/5/3
f 327/5/3 313/5/3 311/5/3
f 327/5/3 325/5/3 313/5/3
f 328/5/3 325/5/3 327/5/3
f 329/5/3 311/5/3 309/5/3
f 329/5/3 327/5/3 311/5/3
f 330/5/3 327/5/3 329/5/3
f 331/5/3 309/5/3 307/5/3
f 331/5/3 329/5/3 309/5/3
f 332/5/3 329/5/3 331/5/3
f 333/5/3 331/5/3 307/5/3
f 334/5/3 331/5/3 333/5/3
f 335/5/3 333/5/3 307/5/3
f 336/5/3 333/5/3 335/5/3
f 337/2/3 306/2/3 305/2/3
f 338/2/3 306/2/3 337/2/3
f 339/5/3 335/5/3 307/5/3
f 340/5/3 335/5/3 339/5/3
f 341/2/4 342/2/4 343/2/4
f 343/2/4 342/2/4 344/2/4
f 341/2/4 343/2/4 347/2/4
f 343/5/4 344/5/4 347/5/4
f 344/2/4 342/2/4 348/2/4
f 347/5/4 344/5/4 348/5/4
f 345/5/4 346/5/4 349/5/4
f 341/2/4 347/2/4 351/2/4
f 347/3/4 348/3/4 351/3/4
f 348/2/4 342/2/4 352/2/4
f 351/3/4 348/3/4 352/3/4
f 349/5/4 350/5/4 353/5/4
f 341/2/4 351/2/4 355/2/4
f 351/5/4 352/5/4 355/5/4
f 352/2/4 342/2/4 356/2/4
f 355/5/4 352/5/4 356/5/4
f 353/5/4 354/5/4 357/5/4
f 357/5/4 358/5/4 359/5/4
f 359/5/4 360/5/4 361/5/4
f 361/5/4 362/5/4 363/5/4
f 363/5/4 364/5/4 365/5/4
f 365/5/4 366/5/4 367/5/4
f 341/2/4 355/2/4 369/2/4
f 355/2/4 356/2/4 369/2/4
f 356/2/4 342/2/4 370/2/4
f 369/2/4 356/2/4 370/2/4
f 367/5/4 368/5/4 371/5/4
f 365/5/4 367/5/4 371/5/4
f 371/5/4 368/5/4 372/5/4
f 363/5/4 365/5/4 373/5/4
f 365/5/4 371/5/4 373/5/4
f 373/5/4 371/5/4 374/5/4
f 361/5/4 363/5/4 375/5/4
f 363/5/4 373/5/4 375/5/4
f 375/5/4 373/5/4 376/5/4
f 341/2/4 369/2/4 377/2/4
f 369/5/4 370/5/4 377/5/4
f 370/2/4 342/2/4 378/2/4
f 377/5/4 370/5/4 378/5/4
f 361/5/4 375/5/4 379/5/4
f 359/5/4 361/5/4 379/5/4
f 379/5/4 375/5/4 380/5/4
f 341/2/4 377/2/4 381/2/4
f 377/3/4 378/3/4 381/3/4
f 378/2/4 342/2/4 382/2/4
f 381/3/4 378/3/4 382/3/4
f 357/5/4 359/5/4 383/5/4
f 359/5/4 379/5/4 383/5/4
f 383/5/4 379/5/4 384/5/4
f 353/5/4 357/5/4 385/5/4
f 357/5/4 383/5/4 385/5/4
f 385/5/4 383/5/4 386/5/4
f 349/5/4 353/5/4 387/5/4
f 353/5/4 385/5/4 387/5/4
f 387/5/4 385/5/4 388/5/4
f 341/2/4 381/2/4 389/2/4
f 381/5/4 382/5/4 389/5/4
f 382/2/4 342/2/4 390/2/4
f 389/5/4 382/5/4 390/5/4
f 345/5/4 349/5/4 391/5/4
f 349/5/4 387/5/4 391/5/4
f 391/5/4 387/5/4 392/5/4
f 341/2/4 389/2/4 393/2/4
f 389/2/4 390/2/4 393/2/4
f 390/2/4 342/2/4 394/2/4
f 393/2/4 390/2/4 394/2/4
f 345/5/4 391/5/4 395/5/4
f 395/5/4 391/5/4 396/5/4
f 397/2/4 398/2/4 399/2/4
f 399/5/4 400/5/4 401/5/4
f 397/2/4 399/2/4 403/2/4
f 401/5/4 402/5/4 404/5/4
f 403/2/4 399/2/4 404/2/4
f 399/5/4 401/5/4 404/5/4
f 404/5/4 402/5/4 405/5/4
f 406/4/4 407/4/4 408/4/4
f 406/4/4 408/4/4 410/4/4
f 408/4/4 409/4/4 410/4/4
f 410/4/4 409/4/4 411/4/4
f 411/4/4 409/4/4 412/4/4
f 411/4/4 412/4/4 414/4/4
f 412/4/4 413/4/4 414/4/4
f 414/4/4 413/4/4 415/4/4
f 415/4/4 413/4/4 416/4/4
f 415/4/4 416/4/4 420/4/4
f 416/4/4 417/4/4 420/4/4
f 420/4/4 417/4/4 421/4/4
f 419/5/4 420/5/4 421/5/4
f 421/4/4 417/4/4 422/4/4
f 422/4/4 417/4/4 423/4/4
f 421/5/4 422/5/4 425/5/4
f 423/4/4 424/4/4 425/4/4
f 422/4/4 423/4/4 425/4/4
f 425/4/4 424/4/4 426/4/4
f 426/4/4 424/4/4 427/4/4
f 425/5/4 426/5/4 429/5/4
f 427/4/4 428/4/4 429/4/4
f 426/4/4 427/4/4 429/4/4
f 429/4/4 428/4/4 430/4/4
f 430/4/4 428/4/4 431/4/4
f 429/5/4 430/5/4 433/5/4
f 431/4/4 432/4/4 433/4/4
f 430/4/4 431/4/4 433/4/4
f 433/4/4 432/4/4 434/4/4
f 434/4/4 432/4/4 435/4/4
f 433/5/4 434/5/4 437/5/4
f 435/4/4 436/4/4 437/4/4
f 434/4/4 435/4/4 437/4/4
f 437/4/4 436/4/4 438/4/4
f 438/4/4 436/4/4 439/4/4
f 437/5/4 438/5/4 441/5/4
f 439/4/4 440/4/4 441/4/4
f 438/4/4 439/4/4 441/4/4
f 441/4/4 440/4/4 442/4/4
f 442/4/4 440/4/4 443/4/4
f 441/5/4 442/5/4 445/5/4
f 443/4/4 444/4/4 445/4/4
f 442/4/4 443/4/4 445/4/4
f 445/4/4 444/4/4 446/4/4
f 441/5/4 445/5/4 447/5/4
f 445/5/4 446/5/4 447/5/4
f 446/4/4 444/4/4 448/4/4
f 447/5/4 446/5/4 448/5/4
f 448/4/4 444/4/4 449/4/4
f 437/5/4 441/5/4 450/5/4
f 441/5/4 447/5/4 450/5/4
f 447/4/4 448/4/4 451/4/4
f 450/5/4 447/5/4 451/5/4
f 451/4/4 448/4/4 452/4/4
f 433/5/4 437/5/4 453/5/4
f 437/5/4 450/5/4 453/5/4
f 450/4/4 451/4/4 454/4/4
f 453/5/4 450/5/4 454/5/4
f 454/4/4 451/4/4 455/4/4
f 429/5/4 433/5/4 456/5/4
f 433/5/4 453/5/4 456/5/4
f 453/4/4 454/4/4 457/4/4
f 456/5/4 453/5/4 457/5/4
f 457/4/4 454/4/4 458/4/4
f 425/5/4 429/5/4 459/5/4
f 429/5/4 456/5/4 459/5/4
f 456/4/4 457/4/4 460/4/4
f 459/5/4 456/5/4 460/5/4
f 460/4/4 457/4/4 461/4/4
f 421/5/4 425/5/4 462/5/4
f 425/5/4 459/5/4 462/5/4
f 459/4/4 460/4/4 463/4/4
f 462/5/4 459/5/4 463/5/4
f 463/4/4 460/4/4 464/4/4
f 419/5/4 421/5/4 465/5/4
f 421/5/4 462/5/4 465/5/4
f 462/4/4 463/4/4 466/4/4
f 465/5/4 462/5/4 466/5/4
f 466/4/4 463/4/4 467/4/4
f 419/5/4 465/5/4 468/5/4
f 465/4/4 466/4/4 469/4/4
f 468/5/4 465/5/4 469/5/4
f 469/4/4 466/4/4 470/4/4
f 418/2/4 419/2/4 471/2/4
f 419/5/4 468/5/4 471/5/4
f 468/4/4 469/4/4 472/4/4
f 471/5/4 468/5/4 472/5/4
f 472/4/4 469/4/4 473/4/4
f 418/2/4 471/2/4 474/2/4
f 471/4/4 472/4/4 475/4/4
f 474/2/4 471/2/4 475/2/4
f 475/4/4 472/4/4 476/4/4
f 479/2/5 478/2/5 477/2/5
f 480/2/5 478/2/5 479/2/5
f 481/2/5 479/2/5 477/2/5
f 481/4/5 480/4/5 479/4/5
f 482/4/5 480/4/5 481/4/5
f 483/2/5 481/2/5 477/2/5
f 483/2/5 482/2/5 481/2/5
f 484/2/5 482/2/5 483/2/5
f 485/4/5 480/4/5 482/4/5
f 485/2/5 482/2/5 484/2/5
f 486/4/5 480/4/5 485/4/5
f 487/4/5 480/4/5 486/4/5
f 487/2/5 486/2/5 485/2/5
f 487/2/5 485/2/5 484/2/5
f 488/2/5 478/2/5 480/2/5
f 488/4/5 480/4/5 487/4/5
f 489/2/5 487/2/5 484/2/5
f 489/2/5 488/2/5 487/2/5
f 490/2/5 478/2/5 488/2/5
f 490/2/5 488/2/5 489/2/5
f 493/4/5 492/4/5 491/4/5
f 494/4/5 492/4/5 493/4/5
f 495/4/5 492/4/5 494/4/5
f 496/4/5 492/4/5 495/4/5
f 497/4/5 492/4/5 496/4/5
f 498/4/5 492/4/5 497/4/5
f 501/4/5 500/4/5 499/4/5
f 502/4/5 500/4/5 501/4/5
f 507/4/5 504/4/5 503/4/5
f 508/4/5 504/4/5 507/4/5
f 511/4/5 506/4/5 505/4/5
f 512/4/5 506/4/5 511/4/5
f 513/4/5 510/4/5 509/4/5
f 514/4/5 510/4/5 513/4/5
f 519/4/5 516/4/5 515/4/5
f 520/4/5 516/4/5 519/4/5
f 523/4/5 518/4/5 517/4/5
f 524/4/5 518/4/5 523/4/5
f 525/4/5 522/4/5 521/4/5
f 526/4/5 522/4/5 525/4/5
f 531/4/5 528/4/5 527/4/5
f 532/4/5 528/4/5 531/4/5
f 533/4/5 528/4/5 532/4/5
f 534/4/5 528/4/5 533/4/5
f 535/4/5 530/4/5 529/4/5
f 536/4/5 530/4/5 535/4/5
f 541/4/5 538/4/5 537/4/5
f 542/4/5 538/4/5 541/4/5
f 543/4/5 540/4/5 539/4/5
f 544/4/5 540/4/5 543/4/5
f 549/4/5 546/4/5 545/4/5
f 550/4/5 546/4/5 549/4/5
f 551/4/5 548/4/5 547/4/5
f 552/4/5 548/4/5 551/4/5
f 557/4/5 554/4/5 553/4/5
f 558/4/5 554/4/5 557/4/5
f 559/4/5 556/4/5 555/4/5
f 560/4/5 556/4/5 559/4/5
f 565/4/5 562/4/5 561/4/5
f 566/4/5 562/4/5 565/4/5
f 567/4/5 564/4/5 563/4/5
f 568/4/5 564/4/5 567/4/5
f 573/4/5 570/4/5 569/4/5
f 574/4/5 570/4/5 573/4/5
f 575/4/5 572/4/5 571/4/5
f 576/4/5 572/4/5 575/4/5
f 579/4/5 578/4/5 577/4/5
f 580/4/5 578/4/5 579/4/5
f 581/4/6 582/4/6 583/4/6
f 583/4/6 582/4/6 584/4/6
f 584/4/6 582/4/6 585/4/6
f 585/4/6 582/4/6 586/4/6
f 586/4/6 582/4/6 587/4/6
f 587/4/6 582/4/6 588/4/6
f 589/4/6 590/4/6 591/4/6
f 591/4/6 590/4/6 592/4/6
f 592/4/6 590/4/6 593/4/6
f 593/4/6 590/4/6 594/4/6
f 595/4/6 596/4/6 599/4/6
f 599/4/6 596/4/6 600/4/6
f 597/4/6 598/4/6 601/4/6
f 601/4/6 598/4/6 602/4/6
f 603/4/6 604/4/6 607/4/6
f 607/4/6 604/4/6 608/4/6
f 605/4/6 606/4/6 609/4/6
f 609/4/6 606/4/6 610/4/6
f 611/4/6 612/4/6 615/4/6
f 615/4/6 612/4/6 616/4/6
f 613/4/6 614/4/6 617/4/6
f 617/4/6 614/4/6 618/4/6
f 619/4/6 620/4/6 623/4/6
f 623/4/6 620/4/6 624/4/6
f 621/4/6 622/4/6 625/4/6
f 625/4/6 622/4/6 626/4/6
f 627/4/6 628/4/6 631/4/6
f 631/4/6 628/4/6 632/4/6
f 629/4/6 630/4/6 633/4/6
f 633/4/6 630/4/6 634/4/6
f 635/4/6 636/4/6 639/4/6
f 639/4/6 636/4/6 640/4/6
f 637/4/6 638/4/6 641/4/6
f 641/4/6 638/4/6 642/4/6
f 643/4/6 644/4/6 647/4/6
f 647/4/6 644/4/6 648/4/6
f 645/4/6 646/4/6 649/4/6
f 649/4/6 646/4/6 650/4/6
f 651/4/6 652/4/6 655/4/6
f 655/4/6 652/4/6 656/4/6
f 653/4/6 654/4/6 657/4/6
f 657/4/6 654/4/6 658/4/6
f 659/4/6 660/4/6 663/4/6
f 663/4/6 660/4/6 664/4/6
f 661/4/6 662/4/6 665/4/6
f 665/4/6 662/4/6 666/4/6
f 667/4/6 668/4/6 669/4/6
f 669/4/6 668/4/6 670/4/6
